<svg width="113" height="55" viewBox="0 0 113 55" fill="none" xmlns="http://www.w3.org/2000/svg">
<path d="M109.5 2.60297C109.5 2.60297 111.692 29.0115 100 35.5C85.4649 43.5661 69.5 26 64 12.7865C66 32 61.8826 49.8679 45 52C21 55.0311 17 18.2501 17 18.2501C28.0213 17.8714 43.8626 16.3788 64 12.7865C77.3338 10.408 92.5511 7.10883 109.5 2.60297Z" fill="black"/>
<path d="M2.5 18.2501H17M64 12.7865C77.3338 10.408 92.5511 7.10883 109.5 2.60297C109.5 2.60297 111.692 29.0115 100 35.5C85.4649 43.5661 69.5 26 64 12.7865ZM64 12.7865C66 32 61.8826 49.8678 45 52C21 55.0311 17 18.2501 17 18.2501M64 12.7865C43.8626 16.3788 28.0213 17.8714 17 18.2501" stroke="black" stroke-width="5" stroke-linecap="round" stroke-linejoin="round"/>
<ellipse cx="32.561" cy="29.6225" rx="6.35025" ry="8.79266" transform="rotate(-8.35915 32.561 29.6225)" fill="white"/>
<ellipse cx="79.1401" cy="20.1856" rx="4.18561" ry="5.5" transform="rotate(-10.7756 79.1401 20.1856)" fill="white"/>
</svg>
