<svg width="148" height="94" viewBox="0 0 148 94" fill="none" xmlns="http://www.w3.org/2000/svg">
<path d="M71.7053 56.8242C61.0003 52.0001 46.5 46.0001 13.0002 52.0001C13.0002 52.0001 0.794632 94.176 50 89.5001C79.481 86.6985 71.7053 56.8242 71.7053 56.8242Z" fill="black"/>
<path d="M132 43.5001C109 43.5001 103 45.5001 83.5026 53.9076C83.5026 53.9076 88.102 86.1094 115.5 83.5001C136.5 81.5001 132 43.5001 132 43.5001Z" fill="black"/>
<ellipse cx="25.5102" cy="66.8099" rx="6.59699" ry="10.0691" transform="rotate(-5.36906 25.5102 66.8099)" fill="white"/>
<ellipse cx="101.66" cy="63.3142" rx="5.24503" ry="8.00558" transform="rotate(-19.9325 101.66 63.3142)" fill="white"/>
<path d="M71.9349 53.1356L74.5114 42.0826C58.5066 29.3663 21.9117 24.7457 13.2071 24.1943L20.0895 44.2725C38.9068 39.9797 63.7269 48.137 71.9349 53.1356Z" fill="#932C2C" stroke="black" stroke-width="5"/>
<path d="M85.2972 35.4595L84.4305 24.1434C102.182 14.0073 127.718 14.3423 136.406 15.1203L134.347 33.2591C116.401 26.1562 94.1695 31.7665 85.2972 35.4595Z" fill="#932C2C" stroke="black" stroke-width="5"/>
</svg>
