<svg width="148" height="101" viewBox="0 0 148 101" fill="none" xmlns="http://www.w3.org/2000/svg">
<path d="M61.8916 68.3796C66.2618 72.7826 71.3603 82.3225 56.7931 85.2578C38.584 88.927 34.9422 50.0336 61.8916 58.1058C88.841 66.1781 82.2856 101.402 53.8795 97.7331C31.1546 94.7977 29.6008 73.0272 31.6645 62.5089" stroke="black" stroke-width="5" stroke-linecap="round"/>
<path d="M108.613 49.4367C104.881 53.088 100.526 60.9991 112.968 63.4333C128.522 66.4761 131.633 34.223 108.613 40.9171C85.5942 47.6111 91.1936 76.8214 115.457 73.7786C134.868 71.3445 136.195 53.2909 134.432 44.5683" stroke="black" stroke-width="5" stroke-linecap="round"/>
<path d="M71.9349 53.1356L74.5114 42.0826C58.5066 29.3663 21.9117 24.7457 13.2071 24.1943L20.0895 44.2725C38.9068 39.9797 63.7269 48.137 71.9349 53.1356Z" fill="#932C2C" stroke="black" stroke-width="5"/>
<path d="M85.2972 35.4595L84.4305 24.1434C102.182 14.0073 127.718 14.3423 136.406 15.1203L134.347 33.2591C116.401 26.1562 94.1695 31.7665 85.2972 35.4595Z" fill="#932C2C" stroke="black" stroke-width="5"/>
</svg>
