<svg width="139" height="109" viewBox="0 0 139 109" fill="none" xmlns="http://www.w3.org/2000/svg">
<ellipse cx="54.16" cy="72.4145" rx="19.9147" ry="30.0599" transform="rotate(-32.924 54.16 72.4145)" fill="black"/>
<ellipse cx="50.6394" cy="74.128" rx="8.93327" ry="12.7788" transform="rotate(-22.1239 50.6394 74.128)" fill="white"/>
<ellipse cx="103.216" cy="67.4471" rx="14.9876" ry="22.6228" transform="rotate(-17.5469 103.216 67.4471)" fill="black"/>
<ellipse cx="96.9674" cy="66.0745" rx="5.58177" ry="8.42531" transform="rotate(-11.0559 96.9674 66.0745)" fill="white"/>
<path d="M59.3108 47.1778L55.4405 36.5088C35.0898 34.5823 11.9575 45.4036 4.36141 49.69L13.7071 65.3716C27.1359 51.5086 49.7049 47.4661 59.3108 47.1778Z" fill="#932C2C" stroke="black" stroke-width="5"/>
<path d="M77.1174 39.112L75.3392 27.9028C92.2139 16.3656 117.694 14.6364 126.415 14.71L125.829 32.9558C107.368 27.3261 85.6623 34.7142 77.1174 39.112Z" fill="#932C2C" stroke="black" stroke-width="5"/>
</svg>
