<svg width="254" height="179" viewBox="0 0 254 179" fill="none" xmlns="http://www.w3.org/2000/svg">
<path d="M188.617 16.5919C246.587 11.8331 249.039 53.22 253.942 62.4491C163.612 56.2194 139.876 136.282 139.299 177.092C94.9707 185.897 62.8557 161.976 52.3431 151.135C78.3 157.711 94.5952 150.991 94.7394 138.589C55.2848 146.896 42.8255 118.689 23.7904 90.1365C66.7825 112.408 82.6261 110.037 101.661 90.1365C41.0951 98.3869 4.17853 39.3763 0.429199 21.7833C23.7904 44.2793 88.1059 45.0003 121.994 38.6553C112.996 14.0827 79.021 13.7078 63.1584 16.5919C84.2701 -6.59629 111.611 -3.74103 139.299 14.4288C164.403 30.9032 189.771 39.9531 211.978 39.5205C211.632 27.0611 196.26 19.0434 188.617 16.5919Z" fill="#CF2020"/>
<path d="M205.489 19.9004C248.751 32.8789 240.531 46.7226 253.942 67.4881C174.402 62.0077 164.466 134.549 163.958 170.451C124.925 178.196 90.5853 172.2 81.3284 162.664C104.185 168.448 109.754 136.801 109.881 125.891C99.4983 131.948 67.4847 135.841 51.0453 113.345C88.9018 132.938 109.127 95.8105 125.888 78.3035C72.5565 85.5616 34.8791 62.1997 31.5776 46.7226C52.1483 66.513 112.92 52.3045 142.76 46.7226C134.836 25.1053 100.055 7.413 86.0872 9.95023C107.718 0.000112057 135.364 18.3858 157.469 32.8789C179.574 47.372 196.317 44.0749 215.872 43.6943C226.255 32.8789 212.219 22.0571 205.489 19.9004Z" fill="#E74E1E"/>
<path d="M221.496 30.2831C240.963 44.5594 244.857 53.2118 243.559 72.2986C167.733 67.0702 152.329 121.058 151.845 155.309C143.48 173.018 132.737 176.41 93.723 166.233C124.256 143.616 115.037 123.849 115.209 118.104C109.585 118.104 102.231 133.246 66.7563 121.998C110.883 120.267 124.185 89.8139 140.164 73.1121C126.753 74.8425 106.225 76.1404 81.3284 63.5945C131.512 68.7859 153.657 54.8456 153.657 54.8456C153.657 54.8456 152.71 41.5311 133.675 28.1201C164.39 38.9354 175.362 47.1027 179.667 49.599C190.518 55.8917 214.746 54.1676 221.496 49.599C225.36 46.9835 224.547 39.5669 221.496 30.2831Z" fill="#DE8923"/>
<path d="M156.324 3.73584C164.231 -1.77169 171.268 6.37032 169.464 9.86475C168.203 12.3064 164.512 13.3353 162.407 11.3823C160.558 9.66782 160.918 7.60606 160.023 5.2707C159.488 3.87213 157.651 3.757 156.324 3.73584Z" fill="#DE8923"/>
<path d="M39.6986 25.5693C43.9994 21.1035 49.483 25.1551 48.7854 27.5512C48.2979 29.2253 46.0948 30.361 44.5154 29.4461C43.1288 28.6428 43.0944 27.3252 42.2324 26.01C41.7162 25.2223 40.5402 25.4016 39.6986 25.5693Z" fill="#CF2020"/>
<path d="M0.269987 16.1065C4.57074 11.6407 9.88017 14.9776 10.2745 17.7376C10.6011 20.024 7.12245 22.2011 5.54303 21.2861C4.15644 20.4829 3.64501 18.2642 2.78304 16.949C2.26683 16.1613 1.11155 15.9388 0.269987 16.1065Z" fill="#E74E1E"/>
<path d="M14.8111 99.405C11.3187 105.441 17.6172 110.022 20.0279 108.509C21.7123 107.452 22.2304 104.728 20.6943 103.328C19.3458 102.099 17.8807 102.483 16.1423 101.979C15.1012 101.678 14.9068 100.36 14.8111 99.405Z" fill="#E74E1E"/>
<path d="M51.0855 138.045C47.5931 144.081 53.8917 148.662 56.3023 147.149C57.9867 146.092 58.5048 143.368 56.9687 141.968C55.6202 140.738 54.1551 141.123 52.4167 140.619C51.3756 140.318 51.1812 139 51.0855 138.045Z" fill="#DE8923"/>
<path d="M7.65297 77.9226C11.7716 74.9585 15.5433 79.1887 14.6214 81.0433C13.9772 82.3393 12.0423 82.9109 10.9177 81.8996C9.93041 81.0118 10.1029 79.9233 9.61307 78.7008C9.31971 77.9687 8.35167 77.923 7.65297 77.9226Z" fill="#CF2020"/>
</svg>
