<svg width="141" height="131" viewBox="0 0 141 131" fill="none" xmlns="http://www.w3.org/2000/svg">
<path d="M49.6052 66.0001C37.1053 83.0001 15.1053 74.5001 16.6053 105.5C-18.184 50.2778 56.605 23.0001 87.1052 55.0001C55.1052 51.0001 55.1052 62.0001 55.1052 62.0001C55.1052 62.0001 51.6053 60.0001 51.6053 57.0001C49.6052 59.5001 48.1053 62.5001 49.6052 66.0001Z" fill="#CB2929" stroke="black" stroke-width="5" stroke-linejoin="round"/>
<path d="M65.8304 90.7059C62.0537 104.403 46.0672 104.51 54.5522 123.506C19.1156 97.576 59.8065 62.1212 86.8841 74.6009C65.6641 79.9815 68.3381 86.8529 68.3381 86.8529C68.3381 86.8529 65.6374 86.4653 64.9081 84.5913C64.2503 86.6455 64.0305 88.8888 65.8304 90.7059Z" fill="#CB2929" stroke="black" stroke-width="5" stroke-linejoin="round"/>
<path d="M104.475 38.7182C91.3821 38.041 88.1044 23.6582 72.6773 35.0832C88.9894 -2.00559 129.032 27.6026 123.176 54.4833C114.105 36.4344 108.446 40.211 108.446 40.211C108.446 40.211 108.258 37.7005 109.801 36.6705C107.819 36.4866 105.754 36.7349 104.475 38.7182Z" fill="#CB2929" stroke="black" stroke-width="5" stroke-linejoin="round"/>
<path d="M16.8218 106C-14.9406 53.8779 12.557 30.1062 53.6052 38.0001C66.6052 40.5001 73.8254 45.0737 83.1051 49.9301C62.105 42.0001 38.1752 49.5797 31.105 61.5001C27.5925 60.3194 25.4222 57.1295 24.605 53.0001C20.9843 57.8457 22.6837 62.8025 24.605 67.0001C10.4646 73.6225 14.6123 85.6913 16.8218 106Z" fill="#EF6438" stroke="black" stroke-width="5" stroke-linejoin="round"/>
<path d="M54.724 123.439C21.984 98.3475 33.4272 76.6399 61.1511 71.581C69.9313 69.9789 75.5892 71.0969 82.6102 71.8897C67.4721 72.0246 54.2982 82.6528 52.7807 91.8956C50.2844 92.0101 48.1385 90.5297 46.6122 88.1264C45.5262 92.0662 47.8097 94.7754 50.0465 96.9518C42.7877 104.583 48.354 111.177 54.724 123.439Z" fill="#EF6438" stroke="black" stroke-width="5" stroke-linejoin="round"/>
<path d="M72.7718 35.2247C88.8653 0.732452 110.701 6.72344 120.776 30.6965C123.967 38.2888 124.085 43.6091 124.768 50.093C121.634 36.4801 109.437 26.7251 100.807 27.197C100.207 24.9706 101.114 22.7425 102.975 20.889C99.2095 20.6945 97.2228 23.2911 95.7069 25.7395C87.3863 20.7178 82.5527 27.0452 72.7718 35.2247Z" fill="#EF6438" stroke="black" stroke-width="5" stroke-linejoin="round"/>
<path d="M59.1055 47.0001C88.6055 42.2754 104.989 59.4947 112.105 70.9926L105.198 79.0001C92.138 54.8544 69.3613 45.3575 59.1055 47.0001Z" fill="#932C2C" stroke="black" stroke-width="5"/>
<path d="M67.1427 76.2616C84.6672 66.0417 99.2264 72.7687 106.528 78.2024L104.103 84.9088C89.9629 73.034 73.2352 72.7086 67.1427 76.2616Z" fill="#932C2C" stroke="black" stroke-width="5"/>
<path d="M117.751 37.0265C130.446 50.7827 127.282 65.2394 123.839 72.8993L117.314 72.0493C125.2 56.9456 122.165 41.8089 117.751 37.0265Z" fill="#932C2C" stroke="black" stroke-width="5"/>
</svg>
