<svg width="116" height="75" viewBox="0 0 116 75" fill="none" xmlns="http://www.w3.org/2000/svg">
<path d="M49.6052 32.0001C37.1053 49.0001 15.1053 40.5001 16.6053 71.5001C-18.184 16.2778 56.605 -10.9999 87.1052 21.0001C55.1052 17.0001 55.1052 28.0001 55.1052 28.0001C55.1052 28.0001 51.6053 26.0001 51.6053 23.0001C49.6052 25.5001 48.1053 28.5001 49.6052 32.0001Z" fill="#CB2929" stroke="black" stroke-width="5" stroke-linejoin="round"/>
<path d="M16.8218 72.0001C-14.9406 19.8779 12.557 -3.89379 53.6052 4.00009C66.6052 6.50009 73.8254 11.0737 83.1051 15.9301C62.105 8.0001 38.1752 15.5797 31.105 27.5001C27.5925 26.3194 25.4222 23.1295 24.605 19.0001C20.9843 23.8457 22.6837 28.8025 24.605 33.0001C10.4646 39.6225 14.6123 51.6913 16.8218 72.0001Z" fill="#EF6438" stroke="black" stroke-width="5" stroke-linejoin="round"/>
<path d="M59.1055 13.0001C88.6055 8.27538 104.989 25.4947 112.105 36.9926L105.198 45.0001C92.138 20.8544 69.3613 11.3575 59.1055 13.0001Z" fill="#932C2C" stroke="black" stroke-width="5"/>
</svg>
