<svg width="229" height="80" viewBox="0 0 229 80" fill="none" xmlns="http://www.w3.org/2000/svg">
<path d="M112.146 23.7682C52.4875 -27.4701 -27.8642 30.5387 15.3726 58.6554C76.731 98.5564 124.507 68.8165 112.146 23.7682Z" fill="#932C2C"/>
<path d="M112.146 23.7682L114.557 23.1067L114.355 22.3696L113.775 21.8717L112.146 23.7682ZM15.3726 58.6554L16.7355 56.5595V56.5595L15.3726 58.6554ZM41.5608 26.6079C40.4406 27.415 40.1868 28.9774 40.9939 30.0977C41.8011 31.2179 43.3635 31.4716 44.4837 30.6645L41.5608 26.6079ZM113.775 21.8717C83.0893 -4.48293 46.9642 -2.79768 24.0124 9.2397C12.5968 15.2268 4.09158 23.9688 1.45455 33.4685C0.1215 38.2707 0.30626 43.2364 2.37922 47.9828C4.44238 52.7067 8.29646 57.0359 14.0097 60.7512L16.7355 56.5595C11.6396 53.2457 8.54663 49.6115 6.96127 45.9816C5.3857 42.3741 5.22047 38.5952 6.27238 34.8058C8.40526 27.1223 15.6097 19.2926 26.3347 13.6677C47.6643 2.48106 81.5443 0.781054 110.517 25.6647L113.775 21.8717ZM14.0097 60.7512C45.1106 80.9759 73.3113 83.8954 92.4244 75.35C111.741 66.7139 121.028 46.6882 114.557 23.1067L109.735 24.4297C115.625 45.8965 107.205 63.2649 90.3837 70.7855C73.3595 78.3969 46.993 76.2358 16.7355 56.5595L14.0097 60.7512ZM113.525 21.6826C102.037 14.0897 71.8766 4.76404 41.5608 26.6079L44.4837 30.6645C72.7199 10.3192 100.569 19.1132 110.768 25.8538L113.525 21.6826Z" fill="black"/>
<path d="M112.605 24.3586C101.105 13.3586 63.2055 1.55857 11.6055 54.3586C72.6055 96.8586 118.029 77.5068 112.605 24.3586Z" fill="white" fill-opacity="0.2"/>
<path d="M112.146 23.7682L114.557 23.1067L114.355 22.3696L113.775 21.8717L112.146 23.7682ZM15.3726 58.6554L16.7355 56.5595L15.3726 58.6554ZM41.5608 26.6079C40.4406 27.415 40.1868 28.9774 40.9939 30.0977C41.8011 31.2179 43.3635 31.4716 44.4837 30.6645L41.5608 26.6079ZM113.775 21.8717C83.0893 -4.48293 46.9642 -2.79768 24.0124 9.2397C12.5968 15.2268 4.09158 23.9688 1.45455 33.4685C0.1215 38.2707 0.30626 43.2364 2.37922 47.9828C4.44238 52.7067 8.29646 57.0359 14.0097 60.7512L16.7355 56.5595C11.6396 53.2457 8.54663 49.6115 6.96127 45.9816C5.3857 42.3741 5.22047 38.5952 6.27238 34.8058C8.40526 27.1223 15.6097 19.2926 26.3347 13.6677C47.6643 2.48106 81.5443 0.781054 110.517 25.6647L113.775 21.8717ZM14.0097 60.7512C45.1106 80.9759 73.3113 83.8954 92.4244 75.35C111.741 66.7139 121.028 46.6882 114.557 23.1067L109.735 24.4297C115.625 45.8965 107.205 63.2649 90.3837 70.7855C73.3595 78.3969 46.993 76.2358 16.7355 56.5595L14.0097 60.7512ZM113.525 21.6826C102.037 14.0897 71.8766 4.76404 41.5608 26.6079L44.4837 30.6645C72.7199 10.3192 100.569 19.1132 110.768 25.8538L113.525 21.6826Z" fill="black"/>
<path d="M117.065 23.7682C176.723 -27.4701 257.075 30.5387 213.838 58.6554C152.48 98.5564 104.704 68.8165 117.065 23.7682Z" fill="#932C2C"/>
<path d="M117.065 23.7682L114.654 23.1067L114.856 22.3696L115.436 21.8717L117.065 23.7682ZM213.838 58.6554L212.475 56.5595V56.5595L213.838 58.6554ZM187.65 26.6079C188.77 27.415 189.024 28.9774 188.217 30.0977C187.41 31.2179 185.847 31.4716 184.727 30.6645L187.65 26.6079ZM115.436 21.8717C146.122 -4.48293 182.247 -2.79768 205.199 9.2397C216.614 15.2268 225.119 23.9688 227.756 33.4685C229.089 38.2707 228.905 43.2364 226.832 47.9828C224.769 52.7067 220.914 57.0359 215.201 60.7512L212.475 56.5595C217.571 53.2457 220.664 49.6115 222.25 45.9816C223.825 42.3741 223.99 38.5952 222.939 34.8058C220.806 27.1223 213.601 19.2926 202.876 13.6677C181.547 2.48106 147.667 0.781054 118.694 25.6647L115.436 21.8717ZM215.201 60.7512C184.1 80.9759 155.9 83.8954 136.786 75.35C117.47 66.7139 108.183 46.6882 114.654 23.1067L119.476 24.4297C113.585 45.8965 122.006 63.2649 138.827 70.7855C155.851 78.3969 182.218 76.2358 212.475 56.5595L215.201 60.7512ZM115.686 21.6826C127.174 14.0897 157.334 4.76404 187.65 26.6079L184.727 30.6645C156.491 10.3192 128.642 19.1132 118.443 25.8538L115.686 21.6826Z" fill="black"/>
<path d="M122.106 19.3585C135.106 11.407 184.106 12.3585 217.606 54.3585C250.106 21.3585 171.105 -20.6415 122.106 19.3585Z" fill="white" fill-opacity="0.2"/>
<path d="M117.065 23.7682L114.654 23.1067L114.856 22.3696L115.436 21.8717L117.065 23.7682ZM213.838 58.6554L212.475 56.5595L213.838 58.6554ZM187.65 26.6079C188.77 27.415 189.024 28.9774 188.217 30.0977C187.41 31.2179 185.847 31.4716 184.727 30.6645L187.65 26.6079ZM115.436 21.8717C146.122 -4.48293 182.247 -2.79768 205.199 9.2397C216.614 15.2268 225.119 23.9688 227.756 33.4685C229.089 38.2707 228.905 43.2364 226.832 47.9828C224.769 52.7067 220.914 57.0359 215.201 60.7512L212.475 56.5595C217.571 53.2457 220.664 49.6115 222.25 45.9816C223.825 42.3741 223.99 38.5952 222.939 34.8058C220.806 27.1223 213.601 19.2926 202.876 13.6677C181.547 2.48106 147.667 0.781054 118.694 25.6647L115.436 21.8717ZM215.201 60.7512C184.1 80.9759 155.9 83.8954 136.786 75.35C117.47 66.7139 108.183 46.6882 114.654 23.1067L119.476 24.4297C113.585 45.8965 122.006 63.2649 138.827 70.7855C155.851 78.3969 182.218 76.2358 212.475 56.5595L215.201 60.7512ZM115.686 21.6826C127.174 14.0897 157.334 4.76404 187.65 26.6079L184.727 30.6645C156.491 10.3192 128.642 19.1132 118.443 25.8538L115.686 21.6826Z" fill="black"/>
</svg>
