<svg width="108" height="125" viewBox="0 0 108 125" fill="none" xmlns="http://www.w3.org/2000/svg">
<g opacity="0.75">
<path d="M66.3475 73.4193C58.544 68.9969 54.0802 61.2983 47.7845 65.881C45.6076 67.4656 43.2119 71.6045 42.5202 74.174C40.0573 83.3228 53.5376 89.1404 62.8367 91.3774C71.7047 93.5106 77.7556 92.0105 78.4394 83.0004C78.982 75.8511 72.638 76.9843 66.3475 73.4193Z" fill="black" fill-opacity="0.15"/>
<path d="M28.1259 35.0555C35.8728 35.4762 40.4711 42.3016 43.5828 36.328C44.6587 34.2625 44.9206 30.1343 44.467 27.8778C42.8519 19.8434 35.8262 15.9247 27.7624 17.7726C20.0725 19.5349 10.3082 27.6299 13.2479 34.8718C15.5804 40.6182 21.881 34.7164 28.1259 35.0555Z" fill="black" fill-opacity="0.15"/>
<path d="M89.7492 91.7554C91.7244 96.3723 91.072 101.366 95.4759 101.381C96.9986 101.386 99.5003 100.301 100.697 99.362C104.956 96.019 100.915 88.873 97.5159 84.752C94.274 80.8221 91.0428 79.486 87.6294 83.3594C84.9209 86.4329 88.157 88.0337 89.7492 91.7554Z" fill="white" fill-opacity="0.4"/>
<path d="M35.8166 52.5472C34.5148 47.387 36.026 42.2679 31.4187 41.5224C29.8256 41.2646 27.0271 41.9851 25.6192 42.7695C20.6066 45.5623 23.6505 53.7124 26.5254 58.5898C29.267 63.241 32.4276 65.1754 36.643 61.6871C39.9878 58.9193 36.866 56.7069 35.8166 52.5472Z" fill="white" fill-opacity="0.4"/>
</g>
</svg>
