<svg width="84" height="93" viewBox="0 0 84 93" fill="none" xmlns="http://www.w3.org/2000/svg">
<g opacity="0.75">
<path d="M73.0714 72.8657C77.5933 70.4903 77.5855 63.9584 73.2447 61.2661C57.0548 51.2249 45.8753 39.4815 39.4974 24.238C37.3891 19.1991 31.2189 16.7899 26.66 19.7988C23.5669 21.8402 22.2629 25.7695 23.7973 29.1429C32.1716 47.5539 45.5922 60.5454 67.1114 72.7882C68.95 73.8342 71.1987 73.8495 73.0714 72.8657Z" fill="black" fill-opacity="0.1"/>
<path d="M43.33 73.4074C46.7739 71.7211 47.1902 66.976 44.1777 64.6035C29.0052 52.6544 21.1922 42.8447 15.4369 25.9896C14.2966 22.6503 10.5105 20.9496 7.34134 22.5014C4.71394 23.7878 3.48987 26.8738 4.59317 29.5832C12.0941 48.0036 19.8979 58.5929 37.9837 72.8515C39.506 74.0517 41.5889 74.2599 43.33 73.4074Z" fill="white" fill-opacity="0.2"/>
</g>
</svg>
