<svg width="165" height="207" viewBox="0 0 165 207" fill="none" xmlns="http://www.w3.org/2000/svg">
<rect x="2.31102" y="2.7651" width="21.9519" height="78.8728" rx="10.976" transform="matrix(0.9941 0.108471 -0.0696906 0.997569 40.0821 0.0684209)" fill="#14342F" stroke="black" stroke-width="5"/>
<rect width="17.6414" height="54.8991" rx="8.82072" transform="matrix(0.9941 0.108471 -0.0696906 0.997569 44.666 29.2212)" fill="#1C4942"/>
<rect x="2.31102" y="2.7651" width="21.9519" height="78.8728" rx="10.976" transform="matrix(0.9941 0.108471 -0.0696906 0.997569 40.0821 0.0684209)" stroke="black" stroke-width="5"/>
<path d="M27.4849 69.7016L67.4211 74.6294L80.6483 205.794L8.93879 205.667L27.4849 69.7016Z" fill="#7BE3EA"/>
<path d="M37.499 91.719L67.4517 95.8433L77.3888 205.788L23.6066 205.693L37.499 91.719Z" fill="#9FF2F8"/>
<path d="M11.8033 203.172L29.6296 72.4842L65.1347 76.8652L77.8838 203.289L11.8033 203.172Z" stroke="black" stroke-width="5"/>
<path d="M9.31449 183.668L47.6139 183.736L55.387 205.749L1.60484 205.654L9.31449 183.668Z" fill="#7BE3EA"/>
<path d="M9.53744 192.668L32.7492 192.709L37.4597 205.717L4.86445 205.66L9.53744 192.668Z" fill="#9FF2F8"/>
<path d="M5.13121 203.16L11.0886 186.171L45.8469 186.233L51.8534 203.243L5.13121 203.16Z" stroke="black" stroke-width="5"/>
<rect x="-2.31102" y="2.7651" width="21.9519" height="78.8728" rx="10.976" transform="matrix(-0.9941 0.108471 0.0696906 0.997569 119.835 0.56978)" fill="#14342F" stroke="black" stroke-width="5"/>
<rect width="17.6414" height="54.8991" rx="8.82072" transform="matrix(-0.9941 0.108471 0.0696906 0.997569 119.845 29.2212)" fill="#1C4942"/>
<rect x="-2.31102" y="2.7651" width="21.9519" height="78.8728" rx="10.976" transform="matrix(-0.9941 0.108471 0.0696906 0.997569 119.835 0.56978)" stroke="black" stroke-width="5"/>
<path d="M137.027 69.7016L97.0904 74.6294L83.8632 205.794L155.573 205.667L137.027 69.7016Z" fill="#7BE3EA"/>
<path d="M137.013 91.719L107.06 95.8433L97.1227 205.788L150.905 205.693L137.013 91.719Z" fill="#9FF2F8"/>
<path d="M152.708 203.172L134.882 72.4842L99.3768 76.8652L86.6277 203.289L152.708 203.172Z" stroke="black" stroke-width="5"/>
<path d="M155.197 183.668L116.898 183.736L109.124 205.749L162.907 205.654L155.197 183.668Z" fill="#7BE3EA"/>
<path d="M142.974 192.668L119.762 192.709L115.052 205.717L147.647 205.66L142.974 192.668Z" fill="#9FF2F8"/>
<path d="M159.38 203.16L153.423 186.171L118.665 186.233L112.658 203.243L159.38 203.16Z" stroke="black" stroke-width="5"/>
</svg>
