<svg width="154" height="83" viewBox="0 0 154 83" fill="none" xmlns="http://www.w3.org/2000/svg">
<path d="M16.0684 42.4997L16.0889 42.5H16.1094H56.0645L51.8709 68.5H16.1289C11.1836 68.4206 7.85131 66.6691 5.76726 64.3113C3.64477 61.9101 2.63164 58.6688 2.7563 55.3435C3.0067 48.6634 7.71515 42.3625 16.0684 42.4997Z" fill="#9FF2F8" stroke="black" stroke-width="5"/>
<path d="M30.4497 51.0015H55.9999L53.0214 69H30.4497C17.1673 68.8031 18.5515 50.8111 30.4497 51.0015Z" fill="#BBFBFF"/>
<path d="M16.0684 42.4997L16.0889 42.5H16.1094H56.0645L51.8709 68.5H16.1289C11.1836 68.4206 7.85131 66.6691 5.76726 64.3113C3.64477 61.9101 2.63164 58.6688 2.7563 55.3435C3.0067 48.6634 7.71515 42.3625 16.0684 42.4997Z" stroke="black" stroke-width="5"/>
<path d="M133.462 55.6374C132.774 43.1419 122.856 30.5728 105.465 30.5003L55.4912 36.6742C54.2041 36.8332 53.1471 37.2592 52.4137 37.9199C47.572 42.281 45.5592 48.8397 45.8427 55.5311C46.1275 62.2522 48.7187 68.6795 52.5201 72.5291C53.2078 73.2254 54.2652 73.6862 55.6123 73.8654L105.477 80.4997C115.824 80.4659 122.926 77.2203 127.356 72.6636C131.825 68.0662 133.806 61.8999 133.462 55.6374Z" fill="#9FF2F8" stroke="black" stroke-width="5"/>
<path d="M93.155 39L56.4725 43.5378C54.8397 43.7398 53.2356 44.2966 52.0607 45.4483C44.5368 52.8237 46.1333 66.4198 52.0709 73.0192C53.2146 74.2904 54.8754 74.9004 56.5704 75.1262L93.155 80C125.827 80 121.32 39 93.155 39Z" fill="#BBFBFF"/>
<path d="M133.462 55.6374C132.774 43.1419 122.856 30.5728 105.465 30.5003L55.4912 36.6742C54.2041 36.8332 53.1471 37.2592 52.4137 37.9199C47.572 42.281 45.5592 48.8397 45.8427 55.5311C46.1275 62.2522 48.7187 68.6795 52.5201 72.5291C53.2078 73.2254 54.2652 73.6862 55.6123 73.8654L105.477 80.4997C115.824 80.4659 122.926 77.2203 127.356 72.6636C131.825 68.0662 133.806 61.8999 133.462 55.6374Z" stroke="black" stroke-width="5"/>
<path d="M134.827 41.4115L140.303 43.2757C146.529 45.3951 150.256 51.7629 149.055 58.2291C148.085 63.4489 144.092 67.5848 138.909 68.7367L133.262 69.9918C124.141 72.0191 115.434 65.2274 115.179 55.8872C114.897 45.5347 125.023 38.0742 134.827 41.4115Z" fill="#9FF2F8" stroke="black" stroke-width="5"/>
<path d="M123.372 59.5602C123.192 52.9824 129.617 48.2357 135.852 50.3418L138.976 51.3974C143.005 52.7585 145.418 56.8773 144.636 61.0575V61.0575C144.006 64.4232 141.426 67.0869 138.082 67.8245L134.862 68.5349C129.064 69.8139 123.535 65.4955 123.372 59.5602V59.5602Z" fill="#BBFBFF"/>
<path d="M134.827 41.4115L140.303 43.2757C146.529 45.3951 150.256 51.7629 149.055 58.2291C148.085 63.4489 144.092 67.5848 138.909 68.7367L133.262 69.9918C124.141 72.0191 115.434 65.2274 115.179 55.8872C114.897 45.5347 125.023 38.0742 134.827 41.4115Z" stroke="black" stroke-width="5"/>
<path d="M80.0074 15.2932C81.9103 13.1108 85.1619 11.2746 89.2394 9.7866C93.2716 8.31514 97.8891 7.26268 102.293 6.51653C106.688 5.77193 110.816 5.34116 113.849 5.09679C114.97 5.00643 115.94 4.94173 116.715 4.8961V51.3105C115.96 51.3787 114.985 51.4564 113.838 51.525C110.967 51.6966 107.037 51.8103 102.784 51.5825C98.5224 51.3542 93.9959 50.7858 89.9113 49.6184C85.807 48.4453 82.3091 46.7126 79.9352 44.2666C74.7665 38.9408 72.8703 34.092 73.0772 29.561C73.2873 24.9609 75.6809 20.2553 80.0074 15.2932Z" fill="#008D79" stroke="black" stroke-width="4"/>
<ellipse cx="117.507" cy="27.9556" rx="14.4666" ry="25.1581" fill="#05564A"/>
<path d="M129.974 27.9556C129.974 34.6172 128.417 40.5499 126.003 44.7481C123.558 49.0005 120.481 51.1137 117.507 51.1137C114.534 51.1137 111.457 49.0005 109.012 44.7481C106.598 40.5499 105.041 34.6172 105.041 27.9556C105.041 21.294 106.598 15.3613 109.012 11.1631C111.457 6.91068 114.534 4.79749 117.507 4.79749C120.481 4.79749 123.558 6.91068 126.003 11.1631C128.417 15.3613 129.974 21.294 129.974 27.9556Z" stroke="black" stroke-width="4"/>
<ellipse cx="118.269" cy="27.9557" rx="6.0912" ry="13.9767" fill="black"/>
<path d="M57.5342 35.3729C55.3931 31.6592 54.3936 28.4921 54.3481 25.4051C54.3026 22.3182 55.208 19.1014 57.238 15.2789C59.3535 11.2954 64.4616 8.23988 71.5046 6.12078C78.4404 4.03394 86.769 3.00002 94.6115 2.68931C102.452 2.37868 109.679 2.79553 114.378 3.54831C115.399 3.71201 116.255 3.88485 116.948 4.05516C108.764 9.61308 105.793 19.4628 105.737 28.3417C105.706 33.1608 106.522 37.8525 107.925 41.6995C109.297 45.4611 111.358 48.757 114.069 50.3198C114.417 50.5203 114.696 50.7004 114.919 50.8582C114.584 50.9591 114.167 51.0592 113.66 51.1511C109.973 51.8199 103.3 51.7652 95.6261 50.8283C87.9971 49.897 79.5939 48.1202 72.4853 45.4691C65.2694 42.7779 59.8239 39.3442 57.5342 35.3729ZM115.827 50.4707C115.827 50.4708 115.823 50.4743 115.815 50.4809C115.822 50.4739 115.826 50.4706 115.827 50.4707Z" fill="#9FF2F8" stroke="black" stroke-width="4"/>
<path d="M57.3545 35.9146C54.1867 30.866 54.1276 26.8584 57.1442 21.6485C64.2588 9.36101 92.4258 13.7073 91.3651 17.95C88.0881 31.058 93.2027 45.2532 99.1507 48.3907C110.315 54.2798 64.8257 47.8217 57.3545 35.9146Z" fill="#BDFBFF"/>
<path d="M57.5342 35.3729C55.3931 31.6592 54.3936 28.4921 54.3481 25.4051C54.3026 22.3182 55.208 19.1014 57.238 15.2789C59.3535 11.2954 64.4616 8.23988 71.5046 6.12078C78.4404 4.03394 86.769 3.00002 94.6115 2.68931C102.452 2.37868 109.679 2.79553 114.378 3.54831C115.399 3.71201 116.255 3.88485 116.948 4.05516C108.764 9.61308 105.793 19.4628 105.737 28.3417C105.706 33.1608 106.522 37.8525 107.925 41.6995C109.297 45.4611 111.358 48.757 114.069 50.3198C114.417 50.5203 114.696 50.7004 114.919 50.8582C114.584 50.9591 114.167 51.0592 113.66 51.1511C109.973 51.8199 103.3 51.7652 95.6261 50.8283C87.9971 49.897 79.5939 48.1202 72.4853 45.4691C65.2694 42.7779 59.8239 39.3442 57.5342 35.3729ZM115.827 50.4707C115.827 50.4708 115.823 50.4743 115.815 50.4809C115.822 50.4739 115.826 50.4706 115.827 50.4707Z" stroke="black" stroke-width="4"/>
</svg>
