<svg width="144" height="83" viewBox="0 0 144 83" fill="none" xmlns="http://www.w3.org/2000/svg">
<rect x="-0.00012207" y="49" width="65" height="24" rx="12" fill="#9FF2F8"/>
<rect x="31.9999" y="59" width="33" height="12" rx="6" fill="#BDFBFF"/>
<rect x="2.49988" y="51.5" width="60" height="19" rx="9.5" stroke="black" stroke-width="5"/>
<rect x="63.9999" y="49" width="65" height="24" rx="12" fill="#9FF2F8"/>
<rect x="85.9999" y="59" width="34" height="12" rx="6" fill="#BDFBFF"/>
<rect x="66.4999" y="51.5" width="60" height="19" rx="9.5" stroke="black" stroke-width="5"/>
<path d="M116 60.996C116 38.8466 141 41.0615 141 41.0615V52.1363C141 52.1363 129.043 52.1363 129.043 60.996C129.043 69.8558 141 67.0872 141 67.0872V79.8231C141 79.8231 116 83.1455 116 60.996Z" fill="#9FF2F8"/>
<path d="M141 41.0615C141 41.0615 139.167 40.8991 136.493 41.102C131.017 41.7463 122.5 44.9296 122.5 58.4999C122.5 78.4999 141 72.9999 141 72.9999V79.823C141 79.823 116 83.1454 116 60.996C116 44.8444 129.294 41.6485 136.493 41.102C139.088 40.7967 141 41.0615 141 41.0615Z" fill="#BDFBFF"/>
<path d="M116 60.996C116 38.8466 141 41.0615 141 41.0615V52.1363C141 52.1363 129.043 52.1363 129.043 60.996C129.043 69.8558 141 67.0872 141 67.0872V79.8231C141 79.8231 116 83.1455 116 60.996Z" stroke="black" stroke-width="5"/>
<circle cx="65.9999" cy="60" r="15" fill="#9FF2F8"/>
<circle cx="67.9999" cy="63" r="8" fill="#BDFBFF"/>
<circle cx="65.9999" cy="60" r="12.5" stroke="black" stroke-width="5"/>
<path d="M72.0074 15.2932C73.9103 13.1108 77.1619 11.2746 81.2394 9.7866C85.2716 8.31514 89.8891 7.26268 94.293 6.51653C98.6876 5.77193 102.816 5.34116 105.849 5.09679C106.97 5.00643 107.94 4.94173 108.715 4.8961V51.3105C107.96 51.3787 106.985 51.4564 105.838 51.525C102.967 51.6966 99.0367 51.8103 94.784 51.5825C90.5224 51.3542 85.9959 50.7858 81.9113 49.6184C77.807 48.4453 74.3091 46.7126 71.9352 44.2666C66.7665 38.9408 64.8703 34.092 65.0772 29.561C65.2873 24.9609 67.6809 20.2553 72.0074 15.2932Z" fill="#008D79" stroke="black" stroke-width="4"/>
<ellipse cx="109.507" cy="27.9556" rx="14.4666" ry="25.1581" fill="#05564A"/>
<path d="M121.974 27.9556C121.974 34.6172 120.417 40.5499 118.003 44.7481C115.558 49.0005 112.481 51.1137 109.507 51.1137C106.534 51.1137 103.457 49.0005 101.012 44.7481C98.5975 40.5499 97.0406 34.6172 97.0406 27.9556C97.0406 21.294 98.5975 15.3613 101.012 11.1631C103.457 6.91068 106.534 4.79749 109.507 4.79749C112.481 4.79749 115.558 6.91068 118.003 11.1631C120.417 15.3613 121.974 21.294 121.974 27.9556Z" stroke="black" stroke-width="4"/>
<ellipse cx="110.269" cy="27.9557" rx="6.0912" ry="13.9767" fill="black"/>
<path d="M49.5342 35.3729C47.3931 31.6592 46.3936 28.4921 46.3481 25.4051C46.3026 22.3182 47.208 19.1014 49.238 15.2789C51.3535 11.2954 56.4616 8.23988 63.5046 6.12078C70.4404 4.03394 78.769 3.00002 86.6115 2.68931C94.452 2.37868 101.679 2.79553 106.378 3.54831C107.399 3.71201 108.255 3.88485 108.948 4.05516C100.764 9.61308 97.7934 19.4628 97.7367 28.3417C97.7059 33.1608 98.5222 37.8525 99.9253 41.6995C101.297 45.4611 103.358 48.757 106.069 50.3198C106.417 50.5203 106.696 50.7004 106.919 50.8582C106.584 50.9591 106.167 51.0592 105.66 51.1511C101.973 51.8199 95.3 51.7652 87.6261 50.8283C79.9971 49.897 71.5939 48.1202 64.4853 45.4691C57.2694 42.7779 51.8239 39.3442 49.5342 35.3729ZM107.827 50.4707C107.827 50.4708 107.823 50.4743 107.815 50.4809C107.822 50.4739 107.826 50.4706 107.827 50.4707Z" fill="#9FF2F8" stroke="black" stroke-width="4"/>
<path d="M49.3545 35.9146C46.1867 30.866 46.1276 26.8584 49.1442 21.6485C56.2588 9.36101 84.4258 13.7073 83.3651 17.95C80.0881 31.058 85.2027 45.2532 91.1507 48.3907C102.315 54.2798 56.8257 47.8217 49.3545 35.9146Z" fill="#BDFBFF"/>
<path d="M49.5342 35.3729C47.3931 31.6592 46.3936 28.4921 46.3481 25.4051C46.3026 22.3182 47.208 19.1014 49.238 15.2789C51.3535 11.2954 56.4616 8.23988 63.5046 6.12078C70.4404 4.03394 78.769 3.00002 86.6115 2.68931C94.452 2.37868 101.679 2.79553 106.378 3.54831C107.399 3.71201 108.255 3.88485 108.948 4.05516C100.764 9.61308 97.7934 19.4628 97.7367 28.3417C97.7059 33.1608 98.5222 37.8525 99.9253 41.6995C101.297 45.4611 103.358 48.757 106.069 50.3198C106.417 50.5203 106.696 50.7004 106.919 50.8582C106.584 50.9591 106.167 51.0592 105.66 51.1511C101.973 51.8199 95.3 51.7652 87.6261 50.8283C79.9971 49.897 71.5939 48.1202 64.4853 45.4691C57.2694 42.7779 51.8239 39.3442 49.5342 35.3729ZM107.827 50.4707C107.827 50.4708 107.823 50.4743 107.815 50.4809C107.822 50.4739 107.826 50.4706 107.827 50.4707Z" stroke="black" stroke-width="4"/>
</svg>
