<svg width="55" height="154" viewBox="0 0 55 154" fill="none" xmlns="http://www.w3.org/2000/svg">
<path d="M14.4996 15.8223L14.4999 15.8428V15.8633L14.4999 55.8184L40.4999 51.6248V15.8828C40.4204 10.9375 38.669 7.60522 36.3112 5.52117C33.91 3.39868 30.6687 2.38555 27.3433 2.5102C20.6633 2.76061 14.3624 7.46905 14.4996 15.8223Z" fill="#9FF2F8" stroke="black" stroke-width="5"/>
<path d="M23.0014 30.2036V55.7538L40.9999 52.7753V30.2036C40.8029 16.9212 22.8109 18.3054 23.0014 30.2036Z" fill="#BBFBFF"/>
<path d="M14.4996 15.8223L14.4999 15.8428V15.8633L14.4999 55.8184L40.4999 51.6248V15.8828C40.4204 10.9375 38.669 7.60522 36.3112 5.52117C33.91 3.39868 30.6687 2.38555 27.3433 2.5102C20.6633 2.76061 14.3624 7.46905 14.4996 15.8223Z" stroke="black" stroke-width="5"/>
<path d="M27.6372 133.216C15.1417 132.528 2.57269 122.609 2.50019 105.219L8.67405 55.2451C8.83306 53.958 9.2591 52.901 9.91977 52.1676C14.2809 47.3259 20.8396 45.3131 27.531 45.5966C34.2521 45.8814 40.6794 48.4726 44.5289 52.274C45.2253 52.9617 45.6861 54.0191 45.8653 55.3662L52.4996 105.231C52.4658 115.578 49.2201 122.68 44.6635 127.11C40.066 131.579 33.8998 133.56 27.6372 133.216Z" fill="#9FF2F8" stroke="black" stroke-width="5"/>
<path d="M10.9999 92.9089L15.5377 56.2264C15.7397 54.5936 16.2964 52.9895 17.4482 51.8146C24.8235 44.2907 38.4196 45.8872 45.0191 51.8248C46.2903 52.9685 46.9003 54.6293 47.1261 56.3243L51.9999 92.9089C51.9999 125.58 10.9999 121.074 10.9999 92.9089Z" fill="#BBFBFF"/>
<path d="M27.6372 133.216C15.1417 132.528 2.57269 122.609 2.50019 105.219L8.67405 55.2451C8.83306 53.958 9.2591 52.901 9.91977 52.1676C14.2809 47.3259 20.8396 45.3131 27.531 45.5966C34.2521 45.8814 40.6794 48.4726 44.5289 52.274C45.2253 52.9617 45.6861 54.0191 45.8653 55.3662L52.4996 105.231C52.4658 115.578 49.2201 122.68 44.6635 127.11C40.066 131.579 33.8998 133.56 27.6372 133.216Z" stroke="black" stroke-width="5"/>
<path d="M13.4114 134.581L15.2755 140.057C17.3949 146.283 23.7628 150.01 30.229 148.809C35.4488 147.839 39.5847 143.846 40.7366 138.663L41.9917 133.016C44.019 123.895 37.2273 115.188 27.8871 114.933C17.5346 114.651 10.0741 124.777 13.4114 134.581Z" fill="#9FF2F8" stroke="black" stroke-width="5"/>
<path d="M31.5601 123.126C24.9823 122.946 20.2356 129.371 22.3417 135.606L23.3972 138.73C24.7584 142.759 28.8772 145.172 33.0574 144.39V144.39C36.423 143.76 39.0868 141.18 39.8244 137.836L40.5348 134.616C41.8137 128.818 37.4953 123.289 31.5601 123.126V123.126Z" fill="#BBFBFF"/>
<path d="M13.4114 134.581L15.2755 140.057C17.3949 146.283 23.7628 150.01 30.229 148.809C35.4488 147.839 39.5847 143.846 40.7366 138.663L41.9917 133.016C44.019 123.895 37.2273 115.188 27.8871 114.933C17.5346 114.651 10.0741 124.777 13.4114 134.581Z" stroke="black" stroke-width="5"/>
</svg>
