<svg width="57" height="166" viewBox="0 0 57 166" fill="none" xmlns="http://www.w3.org/2000/svg">
<rect width="39" height="19" rx="8" transform="matrix(0 1 1 0 17.1052 30)" fill="#9FF2F8"/>
<rect width="22" height="7" rx="3.5" transform="matrix(0 1 1 0 26.1052 39)" fill="#BDFBFF"/>
<rect x="2.5" y="2.5" width="34" height="14" rx="5.5" transform="matrix(0 1 1 0 17.1052 30)" stroke="black" stroke-width="5"/>
<circle r="21.5" transform="matrix(0 1 1 0 26.4999 21.5)" fill="#9FF2F8"/>
<circle r="10.75" transform="matrix(0 1 1 0 30.6345 23.9808)" fill="#BDFBFF"/>
<circle r="19" transform="matrix(0 1 1 0 26.4999 21.5)" stroke="black" stroke-width="5"/>
<circle r="13" transform="matrix(0 1 1 0 26.1052 70)" fill="#9FF2F8"/>
<circle r="6.5" transform="matrix(0 1 1 0 28.6052 71.5)" fill="#BDFBFF"/>
<circle r="10.5" transform="matrix(0 1 1 0 26.1052 70)" stroke="black" stroke-width="5"/>
<path d="M16.2931 98.0075C14.1107 99.9104 12.2744 103.162 10.7865 107.239C9.31501 111.272 8.26256 115.889 7.5164 120.293C6.77181 124.688 6.34104 128.816 6.09666 131.849C6.00631 132.971 5.94161 133.94 5.89598 134.715H52.3104C52.3786 133.96 52.4563 132.986 52.5248 131.838C52.6965 128.968 52.8102 125.037 52.5824 120.784C52.3541 116.523 51.7857 111.996 50.6182 107.911C49.4452 103.807 47.7125 100.309 45.2665 97.9353C39.9407 92.7666 35.0919 90.8704 30.5608 91.0773C25.9607 91.2874 21.2552 93.681 16.2931 98.0075Z" fill="#008D79" stroke="black" stroke-width="4"/>
<ellipse rx="14.4666" ry="25.1581" transform="matrix(0 1 1 0 28.9555 135.507)" fill="#05564A"/>
<path d="M28.9555 147.974C35.6171 147.974 41.5498 146.417 45.748 144.003C50.0004 141.558 52.1136 138.481 52.1136 135.507C52.1136 132.534 50.0004 129.457 45.748 127.012C41.5498 124.598 35.6171 123.041 28.9555 123.041C22.2939 123.041 16.3612 124.598 12.163 127.012C7.91056 129.457 5.79736 132.534 5.79736 135.507C5.79736 138.481 7.91056 141.558 12.163 144.003C16.3612 146.417 22.2939 147.974 28.9555 147.974Z" stroke="black" stroke-width="4"/>
<ellipse rx="6.0912" ry="13.9767" transform="matrix(0 1 1 0 28.9556 136.269)" fill="black"/>
<path d="M36.3728 75.5343C32.6591 73.3932 29.4919 72.3937 26.405 72.3482C23.3181 72.3027 20.1012 73.2081 16.2788 75.2381C12.2953 77.3537 9.23975 82.4617 7.12066 89.5047C5.03381 96.4405 3.99989 104.769 3.68918 112.612C3.37855 120.452 3.7954 127.679 4.54819 132.378C4.71189 133.4 4.88473 134.255 5.05503 134.948C10.613 126.764 20.4627 123.794 29.3416 123.737C34.1606 123.706 38.8524 124.522 42.6994 125.925C46.461 127.297 49.7569 129.358 51.3197 132.069C51.5202 132.417 51.7002 132.697 51.858 132.919C51.9589 132.584 52.059 132.167 52.151 131.66C52.8198 127.973 52.765 121.3 51.8282 113.626C50.8969 105.997 49.1201 97.594 46.4689 90.4854C43.7778 83.2695 40.3441 77.824 36.3728 75.5343ZM51.4706 133.827C51.4707 133.827 51.4742 133.823 51.4808 133.815C51.4738 133.822 51.4705 133.826 51.4706 133.827Z" fill="#9FF2F8" stroke="black" stroke-width="4"/>
<path d="M36.9145 75.3546C31.8659 72.1868 27.8583 72.1278 22.6484 75.1443C10.3609 82.2589 14.7071 110.426 18.9499 109.365C32.0579 106.088 46.2531 111.203 49.3906 117.151C55.2797 128.315 48.8215 82.8259 36.9145 75.3546Z" fill="#BDFBFF"/>
<path d="M36.3728 75.5343C32.6591 73.3932 29.4919 72.3937 26.405 72.3482C23.3181 72.3027 20.1012 73.2081 16.2788 75.2381C12.2953 77.3537 9.23975 82.4617 7.12066 89.5047C5.03381 96.4405 3.99989 104.769 3.68918 112.612C3.37855 120.452 3.7954 127.679 4.54819 132.378C4.71189 133.4 4.88473 134.255 5.05503 134.948C10.613 126.764 20.4627 123.794 29.3416 123.737C34.1606 123.706 38.8524 124.522 42.6994 125.925C46.461 127.297 49.7569 129.358 51.3197 132.069C51.5202 132.417 51.7002 132.697 51.858 132.919C51.9589 132.584 52.059 132.167 52.151 131.66C52.8198 127.973 52.765 121.3 51.8282 113.626C50.8969 105.997 49.1201 97.594 46.4689 90.4854C43.7778 83.2695 40.3441 77.824 36.3728 75.5343ZM51.4706 133.827C51.4707 133.827 51.4742 133.823 51.4808 133.815C51.4738 133.822 51.4705 133.826 51.4706 133.827Z" stroke="black" stroke-width="4"/>
</svg>
