<svg width="138" height="65" viewBox="0 0 138 65" fill="none" xmlns="http://www.w3.org/2000/svg">
<path d="M8.65654 42.1457C4.72486 38.0129 3.12877 34.7084 3.06986 31.7039C3.01094 28.6995 4.47625 25.3349 8.24289 21.0511C12.3961 16.3277 20.5307 12.2155 31.2171 9.17898C41.7994 6.17208 54.4968 4.32737 67.3458 3.86624C80.1967 3.40503 93.0979 4.33148 104.094 6.80669C115.167 9.29924 123.958 13.2843 128.977 18.6653C133.809 23.8461 134.817 30.9239 133.182 37.6679C131.534 44.464 127.301 50.457 122.33 53.2593C116.453 56.5732 107.606 58.8514 97.1307 60.0107C86.709 61.164 74.8943 61.1867 63.2353 60.138C51.5732 59.0891 40.1406 56.9747 30.4719 53.8911C20.7363 50.7862 13.0718 46.7868 8.65654 42.1457Z" fill="#BBFBFF" stroke="black" stroke-width="5"/>
<path d="M11.6276 43.0659C4.87038 35.963 4.75957 30.312 11.2332 22.9496C26.5011 5.58549 95.3569 1.44885 113.539 20.9434C122.667 30.7299 116.934 47.3028 107.581 52.5764C86.842 64.2701 27.5645 59.8181 11.6276 43.0659Z" fill="#D8FDFF"/>
<path d="M8.65654 42.1457C4.72486 38.0129 3.12877 34.7084 3.06986 31.7039C3.01094 28.6995 4.47625 25.3349 8.24289 21.0511C12.3961 16.3277 20.5307 12.2155 31.2171 9.17898C41.7994 6.17208 54.4968 4.32737 67.3458 3.86624C80.1967 3.40503 93.0979 4.33148 104.094 6.80669C115.167 9.29924 123.958 13.2843 128.977 18.6653C133.809 23.8461 134.817 30.9239 133.182 37.6679C131.534 44.464 127.301 50.457 122.33 53.2593C116.453 56.5732 107.606 58.8514 97.1307 60.0107C86.709 61.164 74.8943 61.1867 63.2353 60.138C51.5732 59.0891 40.1406 56.9747 30.4719 53.8911C20.7363 50.7862 13.0718 46.7868 8.65654 42.1457Z" stroke="black" stroke-width="5"/>
<path d="M75.3943 23.5384C76.9061 21.8045 79.5222 20.3149 82.8663 19.0945C86.1652 17.8907 89.9516 17.0268 93.5732 16.4132C97.1857 15.8011 100.581 15.4468 103.076 15.2458C103.827 15.1852 104.496 15.1387 105.062 15.1033V52.6998C104.495 52.7485 103.806 52.8008 103.018 52.8479C100.659 52.989 97.43 53.0823 93.9386 52.8952C90.4382 52.7077 86.7324 52.2413 83.3968 51.2879C80.0415 50.3289 77.2211 48.9225 75.3221 46.9658C71.1032 42.6188 69.5981 38.7079 69.7632 35.0943C69.9313 31.4117 71.85 27.6034 75.3943 23.5384Z" fill="#008D79" stroke="black" stroke-width="4"/>
<ellipse cx="106.066" cy="33.754" rx="11.9341" ry="20.754" fill="#05564A"/>
<path d="M116 33.754C116 39.1995 114.726 44.0312 112.771 47.4324C110.784 50.8878 108.34 52.5081 106.066 52.5081C103.791 52.5081 101.348 50.8878 99.3608 47.4324C97.405 44.0312 96.1316 39.1995 96.1316 33.754C96.1316 28.3086 97.405 23.4769 99.3608 20.0757C101.348 16.6202 103.791 15 106.066 15C108.34 15 110.784 16.6202 112.771 20.0757C114.726 23.4769 116 28.3086 116 33.754Z" stroke="black" stroke-width="4"/>
<ellipse cx="106.694" cy="33.754" rx="5.02489" ry="11.53" fill="black"/>
<path d="M56.895 39.6953C55.1478 36.665 54.3493 34.1103 54.3129 31.6409C54.2765 29.1715 54.9991 26.5772 56.6556 23.4581C58.3306 20.304 62.4231 17.819 68.2133 16.0768C73.8963 14.3669 80.7348 13.5164 87.1878 13.2607C93.6388 13.0051 99.5766 13.3487 103.425 13.9652C103.921 14.0447 104.366 14.1264 104.762 14.2081C98.3681 18.9515 96.0512 26.927 96.0055 34.0743C95.9799 38.0882 96.6594 42.0001 97.8321 45.2153C98.9727 48.3426 100.707 51.1527 103.046 52.5039C102.978 52.5176 102.907 52.5311 102.833 52.5445C99.8437 53.0867 94.3807 53.0466 88.0612 52.2751C81.7865 51.5091 74.8825 50.0483 69.0506 47.8734C63.1113 45.6583 58.72 42.8608 56.895 39.6953ZM107.084 14.9151C107.084 14.915 107.082 14.9139 107.08 14.9118C107.083 14.9141 107.085 14.9152 107.084 14.9151ZM104.476 52.0466C104.476 52.0468 104.469 52.0525 104.453 52.0629C104.467 52.0516 104.475 52.0463 104.476 52.0466Z" fill="#9FF2F8" stroke="black" stroke-width="4"/>
<path d="M56.443 40.3199C53.8298 36.1551 53.7811 32.849 56.2696 28.5512C62.1387 18.4147 85.3749 22.0001 84.4999 25.5001C81.7965 36.3134 86.0157 48.0237 90.9225 50.6119C100.132 55.4701 62.6064 50.1425 56.443 40.3199Z" fill="#BDFBFF"/>
<path d="M56.895 39.6953C55.1478 36.665 54.3493 34.1103 54.3129 31.6409C54.2765 29.1715 54.9991 26.5772 56.6556 23.4581C58.3306 20.304 62.4231 17.819 68.2133 16.0768C73.8963 14.3669 80.7348 13.5164 87.1878 13.2607C93.6388 13.0051 99.5766 13.3487 103.425 13.9652C103.921 14.0447 104.366 14.1264 104.762 14.2081C98.3681 18.9515 96.0512 26.927 96.0055 34.0743C95.9799 38.0882 96.6594 42.0001 97.8321 45.2153C98.9727 48.3426 100.707 51.1527 103.046 52.5039C102.978 52.5176 102.907 52.5311 102.833 52.5445C99.8437 53.0867 94.3807 53.0466 88.0612 52.2751C81.7865 51.5091 74.8825 50.0483 69.0506 47.8734C63.1113 45.6583 58.72 42.8608 56.895 39.6953ZM107.084 14.9151C107.084 14.915 107.082 14.9139 107.08 14.9118C107.083 14.9141 107.085 14.9152 107.084 14.9151ZM104.476 52.0466C104.476 52.0468 104.469 52.0525 104.453 52.0629C104.467 52.0516 104.475 52.0463 104.476 52.0466Z" stroke="black" stroke-width="4"/>
</svg>
