<svg width="145" height="87" viewBox="0 0 145 87" fill="none" xmlns="http://www.w3.org/2000/svg">
<ellipse cx="72.4999" cy="43.5" rx="72.5" ry="43.5" fill="#7BE3EA"/>
<ellipse cx="76.4999" cy="48" rx="62.5" ry="34" fill="#9FF2F8"/>
<path d="M142.5 43.5C142.5 54.289 135.198 64.4838 122.479 72.1154C109.809 79.7172 92.145 84.5 72.4999 84.5C52.8548 84.5 35.1905 79.7172 22.5209 72.1154C9.80151 64.4838 2.49988 54.289 2.49988 43.5C2.49988 32.711 9.80151 22.5162 22.5209 14.8846C35.1905 7.28282 52.8548 2.5 72.4999 2.5C92.145 2.5 109.809 7.28282 122.479 14.8846C135.198 22.5162 142.5 32.711 142.5 43.5Z" stroke="black" stroke-width="5"/>
</svg>
