<svg width="259" height="191" viewBox="0 0 259 191" fill="none" xmlns="http://www.w3.org/2000/svg">
<path d="M11.2592 51.5416L255.758 44.8918C255.758 44.8918 256.029 179.456 133.175 177.031C16.3634 174.725 11.2592 51.5416 11.2592 51.5416Z" fill="#7BE3EA" stroke="black" stroke-width="5"/>
<path d="M252.591 56.2759C252.591 56.2759 246.44 173.561 144.702 174.076C210.95 171.502 245.493 117.957 245.493 59.2643L252.591 56.2759Z" fill="white"/>
<path d="M35.8658 61.8386L246.286 59.104C246.286 59.104 248.806 170.472 144.228 174.076C52.6084 177.233 35.8658 61.8386 35.8658 61.8386Z" fill="#9FF2F8"/>
<path d="M35.8658 61.8386L246.286 59.104C246.286 59.104 248.806 170.472 144.228 174.076C52.6084 177.233 35.8658 61.8386 35.8658 61.8386Z" fill="#BBFBFF"/>
<path d="M256.377 44.8485C260.282 83.4351 7.40848 83.9696 10.7844 48.5398C15.1144 3.09726 252.79 9.41193 256.377 44.8485Z" fill="#7BE3EA" stroke="black" stroke-width="5"/>
<path d="M254.125 44.592C257.881 78.8876 23.7383 78.2791 26.736 46.819C30.5808 6.46812 250.676 13.0961 254.125 44.592Z" fill="#94F9FF"/>
<path d="M256.377 44.8485C260.282 83.4351 7.40848 83.9696 10.7844 48.5398C15.1144 3.09726 252.79 9.41193 256.377 44.8485Z" stroke="black" stroke-width="5"/>
<path d="M256.377 45.8782C256.377 45.8782 256.029 179.456 133.175 177.031C16.3634 174.725 10.786 49.4822 10.786 49.4822" stroke="black" stroke-width="5"/>
<path d="M50.9999 89.0247C52.3881 97.4718 47.193 105.358 42.1657 106.185C37.1385 107.011 29.6926 101.202 28.3043 92.7547C26.9161 84.3076 30.8713 76.6249 37.1385 75.5949C43.4057 74.5649 49.6116 80.5776 50.9999 89.0247Z" fill="black"/>
</svg>
