<svg width="1440" height="369" viewBox="0 0 1440 369" fill="none" xmlns="http://www.w3.org/2000/svg">
<g filter="url(#filter0_d)">
<path d="M871.474 85L406 273H1478L1459.19 175L1289.93 105L1146.53 175L871.474 85Z" fill="#031F26"/>
<path d="M112 70L-2 156L-12 270H792L306 0L210 116L112 70Z" fill="#05262F"/>
<rect x="568.091" y="216.636" width="3.27273" height="16.3636" fill="#03171D"/>
<path d="M570.082 167C570.082 167 578.463 197.344 578.463 214.33C578.463 227.009 561 225.642 561 214.33C561 202.097 570.082 167 570.082 167Z" fill="#03171D"/>
<rect x="520.448" y="218.355" width="2.52893" height="12.6446" fill="#03171D"/>
<path d="M521.987 180C521.987 180 528.463 203.448 528.463 216.573C528.463 226.371 514.969 225.314 514.969 216.573C514.969 207.12 521.987 180 521.987 180Z" fill="#03171D"/>
<rect x="542.715" y="213.006" width="4.02234" height="20.1117" fill="#03171D"/>
<path d="M545.162 152C545.162 152 555.463 189.294 555.463 210.171C555.463 225.754 534 224.074 534 210.171C534 195.135 545.162 152 545.162 152Z" fill="#03171D"/>
<rect width="3.27273" height="16.3636" transform="matrix(-1 0 0 1 1312.37 216.636)" fill="#011317"/>
<path d="M1310.38 167C1310.38 167 1302 197.344 1302 214.33C1302 227.009 1319.46 225.642 1319.46 214.33C1319.46 202.097 1310.38 167 1310.38 167Z" fill="#011317"/>
<rect width="4.02234" height="20.1117" transform="matrix(-1 0 0 1 1337.75 213.006)" fill="#011317"/>
<path d="M1335.3 152C1335.3 152 1325 189.294 1325 210.171C1325 225.754 1346.46 224.074 1346.46 210.171C1346.46 195.135 1335.3 152 1335.3 152Z" fill="#011317"/>
<rect x="139.091" y="216.636" width="3.27273" height="16.3636" fill="#011317"/>
<path d="M141.082 167C141.082 167 149.463 197.344 149.463 214.33C149.463 227.009 132 225.642 132 214.33C132 202.097 141.082 167 141.082 167Z" fill="#011317"/>
<rect x="113.715" y="213.006" width="4.02234" height="20.1117" fill="#011317"/>
<path d="M116.162 152C116.162 152 126.463 189.294 126.463 210.171C126.463 225.754 105 224.074 105 210.171C105 195.135 116.162 152 116.162 152Z" fill="#011317"/>
<rect y="231" width="1440" height="130" fill="#062C36"/>
</g>
<defs>
<filter id="filter0_d" x="-16" y="0" width="1498" height="369" filterUnits="userSpaceOnUse" color-interpolation-filters="sRGB">
<feFlood flood-opacity="0" result="BackgroundImageFix"/>
<feColorMatrix in="SourceAlpha" type="matrix" values="0 0 0 0 0 0 0 0 0 0 0 0 0 0 0 0 0 0 127 0"/>
<feOffset dy="4"/>
<feGaussianBlur stdDeviation="2"/>
<feColorMatrix type="matrix" values="0 0 0 0 0 0 0 0 0 0 0 0 0 0 0 0 0 0 0.25 0"/>
<feBlend mode="normal" in2="BackgroundImageFix" result="effect1_dropShadow"/>
<feBlend mode="normal" in="SourceGraphic" in2="effect1_dropShadow" result="shape"/>
</filter>
</defs>
</svg>
