<svg width="1440" height="477" viewBox="0 0 1440 477" fill="none" xmlns="http://www.w3.org/2000/svg">
<rect x="-508.966" y="215.096" width="2951.3" height="358.905" fill="#142B27"/>
<path d="M-632.041 239.465H-269.007C-266.76 239.465 -264.963 238.514 -265.01 237.351C-265.341 229.061 -265.253 198.672 -247.08 187.194C-246.572 186.873 -247.199 186.411 -247.955 186.549C-256.611 188.124 -282.414 193.543 -288.836 203.17C-289.091 203.554 -290.148 203.534 -290.35 203.143L-300.365 183.804C-300.555 183.435 -301.526 183.387 -301.849 183.73L-313.038 195.609C-313.304 195.892 -314.058 195.922 -314.406 195.665L-335.747 179.871C-336.149 179.573 -337.043 179.671 -337.18 180.027L-347.082 205.807C-347.248 206.238 -348.429 206.253 -348.634 205.826L-366.504 168.883C-366.703 168.472 -367.824 168.465 -368.043 168.873L-383.075 196.908C-383.274 197.281 -384.265 197.319 -384.569 196.966L-401.939 176.792C-402.24 176.443 -403.218 176.475 -403.429 176.842L-417.359 200.979C-417.592 201.383 -418.706 201.367 -418.896 200.957L-427.105 183.233C-427.284 182.845 -428.316 182.802 -428.613 183.17L-451.354 211.265C-451.626 211.601 -452.546 211.602 -452.821 211.266L-483.253 174.029C-483.605 173.597 -484.854 173.753 -484.779 174.22C-483.64 181.402 -481.99 201.147 -496.139 210.194C-496.534 210.446 -497.304 210.385 -497.517 210.08L-512.475 188.63C-512.737 188.253 -513.776 188.272 -513.989 188.656L-526.449 211.237C-526.643 211.589 -527.556 211.648 -527.905 211.33C-532.388 207.232 -550.954 188.794 -541.692 172.228C-541.692 172.228 -565.966 188.747 -566.792 200.916C-566.823 201.365 -568.024 201.462 -568.329 201.043L-578.379 187.238C-578.65 186.865 -579.682 186.888 -579.89 187.272L-592.123 209.876C-592.359 210.312 -593.585 210.262 -593.68 209.813C-595.022 203.481 -602.043 185.698 -638.764 172.887C-639.388 172.669 -640.19 172.986 -639.96 173.356C-636.403 179.092 -621.66 205.951 -635.921 236.911C-636.522 238.214 -634.625 239.465 -632.041 239.465Z" fill="#142B27"/>
<path d="M-265.014 237.353C-264.966 238.512 -266.765 239.466 -269.004 239.466H-632.043C-634.625 239.466 -636.52 238.215 -635.921 236.913C-634.305 233.409 -633.066 229.953 -632.139 226.577C-632.106 226.581 -632.075 226.581 -632.043 226.581H-269.004C-266.765 226.581 -265.226 226.519 -265.226 226.519C-265.225 229.401 -265.164 233.524 -265.014 237.353Z" fill="#142B27"/>
<path d="M-565.85 220.494C-562.076 220.494 -559.016 218.909 -559.016 216.954C-559.016 214.998 -562.076 213.413 -565.85 213.413C-569.624 213.413 -572.683 214.998 -572.683 216.954C-572.683 218.909 -569.624 220.494 -565.85 220.494Z" fill="#142B27"/>
<path d="M-546.747 230.391C-542.973 230.391 -539.914 228.806 -539.914 226.85C-539.914 224.895 -542.973 223.31 -546.747 223.31C-550.521 223.31 -553.581 224.895 -553.581 226.85C-553.581 228.806 -550.521 230.391 -546.747 230.391Z" fill="#142B27"/>
<path d="M-318.7 215.347C-314.927 215.347 -311.867 213.762 -311.867 211.806C-311.867 209.851 -314.927 208.266 -318.7 208.266C-322.474 208.266 -325.534 209.851 -325.534 211.806C-325.534 213.762 -322.474 215.347 -318.7 215.347Z" fill="#142B27"/>
<path d="M-267.16 239.465H95.8736C98.1209 239.465 99.9175 238.514 99.8707 237.351C99.539 229.061 99.6273 198.672 117.8 187.194C118.308 186.873 117.682 186.411 116.925 186.549C108.269 188.124 82.4666 193.543 76.0448 203.17C75.7891 203.554 74.7327 203.534 74.53 203.143L64.5158 183.804C64.3254 183.435 63.3541 183.387 63.0317 183.73L51.842 195.609C51.5764 195.892 50.8224 195.922 50.4746 195.665L29.1333 179.871C28.7318 179.573 27.8373 179.671 27.7006 180.027L17.7985 205.807C17.6326 206.238 16.4518 206.253 16.2461 205.826L-1.62329 168.883C-1.82214 168.472 -2.94385 168.465 -3.16266 168.873L-18.1944 196.908C-18.394 197.281 -19.3845 197.319 -19.6885 196.966L-37.0588 176.792C-37.3598 176.443 -38.3372 176.475 -38.5483 176.842L-52.4789 200.979C-52.7116 201.383 -53.8256 201.367 -54.0153 200.957L-62.2244 183.233C-62.4041 182.845 -63.4352 182.802 -63.7324 183.17L-86.4733 211.265C-86.7459 211.601 -87.6656 211.602 -87.9406 211.266L-118.372 174.029C-118.725 173.597 -119.973 173.753 -119.899 174.22C-118.759 181.402 -117.109 201.147 -131.259 210.194C-131.653 210.446 -132.424 210.385 -132.636 210.08L-147.594 188.63C-147.857 188.253 -148.896 188.272 -149.108 188.656L-161.569 211.237C-161.763 211.589 -162.676 211.648 -163.024 211.33C-167.507 207.232 -186.073 188.794 -176.811 172.228C-176.811 172.228 -201.086 188.747 -201.912 200.916C-201.942 201.365 -203.143 201.462 -203.449 201.043L-213.498 187.238C-213.769 186.865 -214.802 186.888 -215.009 187.272L-227.242 209.876C-227.478 210.312 -228.704 210.262 -228.799 209.813C-230.142 203.481 -237.163 185.698 -273.884 172.887C-274.507 172.669 -275.309 172.986 -275.079 173.356C-271.523 179.092 -256.78 205.951 -271.041 236.911C-271.642 238.214 -269.745 239.465 -267.16 239.465Z" fill="#142B27"/>
<path d="M99.8665 237.353C99.9149 238.512 98.1152 239.466 95.8763 239.466H-267.162C-269.745 239.466 -271.64 238.215 -271.04 236.913C-269.425 233.409 -268.186 229.953 -267.258 226.577C-267.226 226.581 -267.194 226.581 -267.162 226.581H95.8763C98.1152 226.581 99.6546 226.519 99.6546 226.519C99.6553 229.401 99.716 233.524 99.8665 237.353Z" fill="#142B27"/>
<path d="M-200.969 220.494C-197.195 220.494 -194.136 218.909 -194.136 216.954C-194.136 214.998 -197.195 213.413 -200.969 213.413C-204.743 213.413 -207.803 214.998 -207.803 216.954C-207.803 218.909 -204.743 220.494 -200.969 220.494Z" fill="#142B27"/>
<path d="M-181.867 230.391C-178.093 230.391 -175.034 228.806 -175.034 226.85C-175.034 224.895 -178.093 223.31 -181.867 223.31C-185.641 223.31 -188.7 224.895 -188.7 226.85C-188.7 228.806 -185.641 230.391 -181.867 230.391Z" fill="#142B27"/>
<path d="M46.1801 215.347C49.954 215.347 53.0133 213.762 53.0133 211.806C53.0133 209.851 49.954 208.266 46.1801 208.266C42.4062 208.266 39.3468 209.851 39.3468 211.806C39.3468 213.762 42.4062 215.347 46.1801 215.347Z" fill="#142B27"/>
<path d="M442.649 239.465H79.6152C77.3679 239.465 75.5712 238.514 75.618 237.351C75.9497 229.061 75.8615 198.672 57.6888 187.194C57.1806 186.873 57.807 186.411 58.5633 186.549C67.2193 188.124 93.0222 193.543 99.4439 203.17C99.6996 203.554 100.756 203.534 100.959 203.143L110.973 183.804C111.163 183.435 112.135 183.387 112.457 183.73L123.647 195.609C123.912 195.892 124.666 195.922 125.014 195.665L146.355 179.871C146.757 179.573 147.651 179.671 147.788 180.027L157.69 205.807C157.856 206.238 159.037 206.253 159.243 205.826L177.112 168.883C177.311 168.472 178.433 168.465 178.651 168.873L193.683 196.908C193.883 197.281 194.873 197.319 195.177 196.966L212.547 176.792C212.849 176.443 213.826 176.475 214.037 176.842L227.968 200.979C228.2 201.383 229.314 201.367 229.504 200.957L237.713 183.233C237.893 182.845 238.924 182.802 239.221 183.17L261.962 211.265C262.235 211.601 263.154 211.602 263.429 211.266L293.861 174.029C294.214 173.597 295.462 173.753 295.387 174.22C294.248 181.402 292.598 201.147 306.748 210.194C307.142 210.446 307.912 210.385 308.125 210.08L323.083 188.63C323.346 188.253 324.384 188.272 324.597 188.656L337.057 211.237C337.252 211.589 338.164 211.648 338.513 211.33C342.996 207.232 361.562 188.794 352.3 172.228C352.3 172.228 376.574 188.747 377.401 200.916C377.431 201.365 378.632 201.462 378.938 201.043L388.987 187.238C389.258 186.865 390.291 186.888 390.498 187.272L402.731 209.876C402.967 210.312 404.193 210.262 404.288 209.813C405.63 203.481 412.652 185.698 449.372 172.887C449.996 172.669 450.798 172.986 450.568 173.356C447.011 179.092 432.269 205.951 446.529 236.911C447.131 238.214 445.233 239.465 442.649 239.465Z" fill="#142B27"/>
<path d="M75.6223 237.353C75.5739 238.512 77.3736 239.466 79.6125 239.466H442.651C445.234 239.466 447.129 238.215 446.529 236.913C444.913 233.409 443.674 229.953 442.747 226.577C442.715 226.581 442.683 226.581 442.651 226.581H79.6125C77.3736 226.581 75.8342 226.519 75.8342 226.519C75.8334 229.401 75.7728 233.524 75.6223 237.353Z" fill="#142B27"/>
<path d="M376.458 220.494C372.684 220.494 369.625 218.909 369.625 216.954C369.625 214.998 372.684 213.413 376.458 213.413C380.232 213.413 383.291 214.998 383.291 216.954C383.291 218.909 380.232 220.494 376.458 220.494Z" fill="#142B27"/>
<path d="M357.356 230.391C353.582 230.391 350.522 228.806 350.522 226.85C350.522 224.895 353.582 223.31 357.356 223.31C361.129 223.31 364.189 224.895 364.189 226.85C364.189 228.806 361.129 230.391 357.356 230.391Z" fill="#142B27"/>
<path d="M129.309 215.347C125.535 215.347 122.475 213.762 122.475 211.806C122.475 209.851 125.535 208.266 129.309 208.266C133.083 208.266 136.142 209.851 136.142 211.806C136.142 213.762 133.083 215.347 129.309 215.347Z" fill="#142B27"/>
<path d="M809.545 239.465H446.511C444.264 239.465 442.468 238.514 442.514 237.351C442.846 229.061 442.758 198.672 424.585 187.194C424.077 186.873 424.703 186.411 425.46 186.549C434.116 188.124 459.918 193.543 466.34 203.17C466.596 203.554 467.652 203.534 467.855 203.143L477.869 183.804C478.06 183.435 479.031 183.387 479.354 183.73L490.543 195.609C490.809 195.892 491.563 195.922 491.911 195.665L513.252 179.871C513.653 179.573 514.548 179.671 514.684 180.027L524.587 205.807C524.752 206.238 525.933 206.253 526.139 205.826L544.008 168.883C544.207 168.472 545.329 168.465 545.548 168.873L560.579 196.908C560.779 197.281 561.769 197.319 562.073 196.966L579.444 176.792C579.745 176.443 580.722 176.475 580.933 176.842L594.864 200.979C595.097 201.383 596.211 201.367 596.4 200.957L604.609 183.233C604.789 182.845 605.82 182.802 606.117 183.17L628.858 211.265C629.131 211.601 630.051 211.602 630.326 211.266L660.757 174.029C661.11 173.597 662.358 173.753 662.284 174.22C661.144 181.402 659.495 201.147 673.644 210.194C674.039 210.446 674.809 210.385 675.021 210.08L689.979 188.63C690.242 188.253 691.281 188.272 691.493 188.656L703.954 211.237C704.148 211.589 705.061 211.648 705.409 211.33C709.892 207.232 728.458 188.794 719.196 172.228C719.196 172.228 743.471 188.747 744.297 200.916C744.328 201.365 745.528 201.462 745.834 201.043L755.884 187.238C756.155 186.865 757.187 186.888 757.394 187.272L769.628 209.876C769.863 210.312 771.089 210.262 771.185 209.813C772.527 203.481 779.548 185.698 816.269 172.887C816.892 172.669 817.695 172.986 817.464 173.356C813.908 179.092 799.165 205.951 813.426 236.911C814.027 238.214 812.13 239.465 809.545 239.465Z" fill="#142B27"/>
<path d="M442.519 237.353C442.47 238.512 444.27 239.466 446.509 239.466H809.547C812.13 239.466 814.025 238.215 813.425 236.913C811.81 233.409 810.571 229.953 809.643 226.577C809.611 226.581 809.579 226.581 809.547 226.581H446.509C444.27 226.581 442.731 226.519 442.731 226.519C442.73 229.401 442.669 233.524 442.519 237.353Z" fill="#142B27"/>
<path d="M743.354 220.494C739.581 220.494 736.521 218.909 736.521 216.954C736.521 214.998 739.581 213.413 743.354 213.413C747.128 213.413 750.188 214.998 750.188 216.954C750.188 218.909 747.128 220.494 743.354 220.494Z" fill="#142B27"/>
<path d="M724.252 230.391C720.478 230.391 717.419 228.806 717.419 226.85C717.419 224.895 720.478 223.31 724.252 223.31C728.026 223.31 731.085 224.895 731.085 226.85C731.085 228.806 728.026 230.391 724.252 230.391Z" fill="#142B27"/>
<path d="M496.205 215.347C492.431 215.347 489.372 213.762 489.372 211.806C489.372 209.851 492.431 208.266 496.205 208.266C499.979 208.266 503.038 209.851 503.038 211.806C503.038 213.762 499.979 215.347 496.205 215.347Z" fill="#142B27"/>
<path d="M2200.53 239.465H1837.49C1835.25 239.465 1833.45 238.514 1833.5 237.351C1833.83 229.061 1833.74 198.672 1815.57 187.194C1815.06 186.873 1815.68 186.411 1816.44 186.549C1825.1 188.124 1850.9 193.543 1857.32 203.17C1857.58 203.554 1858.63 203.534 1858.84 203.143L1868.85 183.804C1869.04 183.435 1870.01 183.387 1870.33 183.73L1881.52 195.609C1881.79 195.892 1882.54 195.922 1882.89 195.665L1904.23 179.871C1904.63 179.573 1905.53 179.671 1905.67 180.027L1915.57 205.807C1915.73 206.238 1916.91 206.253 1917.12 205.826L1934.99 168.883C1935.19 168.472 1936.31 168.465 1936.53 168.873L1951.56 196.908C1951.76 197.281 1952.75 197.319 1953.05 196.966L1970.42 176.792C1970.73 176.443 1971.7 176.475 1971.91 176.842L1985.84 200.979C1986.08 201.383 1987.19 201.367 1987.38 200.957L1995.59 183.233C1995.77 182.845 1996.8 182.802 1997.1 183.17L2019.84 211.265C2020.11 211.601 2021.03 211.602 2021.31 211.266L2051.74 174.029C2052.09 173.597 2053.34 173.753 2053.26 174.22C2052.13 181.402 2050.48 201.147 2064.62 210.194C2065.02 210.446 2065.79 210.385 2066 210.08L2080.96 188.63C2081.22 188.253 2082.26 188.272 2082.47 188.656L2094.93 211.237C2095.13 211.589 2096.04 211.648 2096.39 211.33C2100.87 207.232 2119.44 188.794 2110.18 172.228C2110.18 172.228 2134.45 188.747 2135.28 200.916C2135.31 201.365 2136.51 201.462 2136.81 201.043L2146.86 187.238C2147.14 186.865 2148.17 186.888 2148.38 187.272L2160.61 209.876C2160.84 210.312 2162.07 210.262 2162.17 209.813C2163.51 203.481 2170.53 185.698 2207.25 172.887C2207.87 172.669 2208.68 172.986 2208.45 173.356C2204.89 179.092 2190.15 205.951 2204.41 236.911C2205.01 238.214 2203.11 239.465 2200.53 239.465Z" fill="#142B27"/>
<path d="M1833.5 237.353C1833.45 238.512 1835.25 239.466 1837.49 239.466H2200.53C2203.11 239.466 2205.01 238.215 2204.41 236.913C2202.79 233.409 2201.55 229.953 2200.62 226.577C2200.59 226.581 2200.56 226.581 2200.53 226.581H1837.49C1835.25 226.581 1833.71 226.519 1833.71 226.519C1833.71 229.401 1833.65 233.524 1833.5 237.353Z" fill="#142B27"/>
<path d="M2134.34 220.494C2130.56 220.494 2127.5 218.909 2127.5 216.954C2127.5 214.998 2130.56 213.413 2134.34 213.413C2138.11 213.413 2141.17 214.998 2141.17 216.954C2141.17 218.909 2138.11 220.494 2134.34 220.494Z" fill="#142B27"/>
<path d="M2115.23 230.391C2111.46 230.391 2108.4 228.806 2108.4 226.85C2108.4 224.895 2111.46 223.31 2115.23 223.31C2119.01 223.31 2122.07 224.895 2122.07 226.85C2122.07 228.806 2119.01 230.391 2115.23 230.391Z" fill="#142B27"/>
<path d="M1887.19 215.347C1883.41 215.347 1880.35 213.762 1880.35 211.806C1880.35 209.851 1883.41 208.266 1887.19 208.266C1890.96 208.266 1894.02 209.851 1894.02 211.806C1894.02 213.762 1890.96 215.347 1887.19 215.347Z" fill="#142B27"/>
<path d="M1835.65 239.465H1472.61C1470.36 239.465 1468.57 238.514 1468.61 237.351C1468.95 229.061 1468.86 198.672 1450.69 187.194C1450.18 186.873 1450.8 186.411 1451.56 186.549C1460.22 188.124 1486.02 193.543 1492.44 203.17C1492.7 203.554 1493.75 203.534 1493.96 203.143L1503.97 183.804C1504.16 183.435 1505.13 183.387 1505.45 183.73L1516.64 195.609C1516.91 195.892 1517.66 195.922 1518.01 195.665L1539.35 179.871C1539.75 179.573 1540.65 179.671 1540.78 180.027L1550.69 205.807C1550.85 206.238 1552.03 206.253 1552.24 205.826L1570.11 168.883C1570.31 168.472 1571.43 168.465 1571.65 168.873L1586.68 196.908C1586.88 197.281 1587.87 197.319 1588.17 196.966L1605.54 176.792C1605.85 176.443 1606.82 176.475 1607.03 176.842L1620.96 200.979C1621.2 201.383 1622.31 201.367 1622.5 200.957L1630.71 183.233C1630.89 182.845 1631.92 182.802 1632.22 183.17L1654.96 211.265C1655.23 211.601 1656.15 211.602 1656.43 211.266L1686.86 174.029C1687.21 173.597 1688.46 173.753 1688.38 174.22C1687.24 181.402 1685.59 201.147 1699.74 210.194C1700.14 210.446 1700.91 210.385 1701.12 210.08L1716.08 188.63C1716.34 188.253 1717.38 188.272 1717.59 188.656L1730.05 211.237C1730.25 211.589 1731.16 211.648 1731.51 211.33C1735.99 207.232 1754.56 188.794 1745.3 172.228C1745.3 172.228 1769.57 188.747 1770.4 200.916C1770.43 201.365 1771.63 201.462 1771.93 201.043L1781.98 187.238C1782.25 186.865 1783.29 186.888 1783.49 187.272L1795.73 209.876C1795.96 210.312 1797.19 210.262 1797.29 209.813C1798.63 203.481 1805.65 185.698 1842.37 172.887C1842.99 172.669 1843.79 172.986 1843.56 173.356C1840.01 179.092 1825.27 205.951 1839.53 236.911C1840.13 238.214 1838.23 239.465 1835.65 239.465Z" fill="#142B27"/>
<path d="M1468.62 237.353C1468.57 238.512 1470.37 239.466 1472.61 239.466H1835.65C1838.23 239.466 1840.13 238.215 1839.53 236.913C1837.91 233.409 1836.67 229.953 1835.74 226.577C1835.71 226.581 1835.68 226.581 1835.65 226.581H1472.61C1470.37 226.581 1468.83 226.519 1468.83 226.519C1468.83 229.401 1468.77 233.524 1468.62 237.353Z" fill="#142B27"/>
<path d="M1769.45 220.494C1765.68 220.494 1762.62 218.909 1762.62 216.954C1762.62 214.998 1765.68 213.413 1769.45 213.413C1773.23 213.413 1776.29 214.998 1776.29 216.954C1776.29 218.909 1773.23 220.494 1769.45 220.494Z" fill="#142B27"/>
<path d="M1750.35 230.391C1746.58 230.391 1743.52 228.806 1743.52 226.85C1743.52 224.895 1746.58 223.31 1750.35 223.31C1754.13 223.31 1757.19 224.895 1757.19 226.85C1757.19 228.806 1754.13 230.391 1750.35 230.391Z" fill="#142B27"/>
<path d="M1522.31 215.347C1518.53 215.347 1515.47 213.762 1515.47 211.806C1515.47 209.851 1518.53 208.266 1522.31 208.266C1526.08 208.266 1529.14 209.851 1529.14 211.806C1529.14 213.762 1526.08 215.347 1522.31 215.347Z" fill="#142B27"/>
<path d="M1125.84 239.465H1488.87C1491.12 239.465 1492.91 238.514 1492.87 237.351C1492.54 229.061 1492.62 198.672 1510.8 187.194C1511.3 186.873 1510.68 186.411 1509.92 186.549C1501.27 188.124 1475.46 193.543 1469.04 203.17C1468.79 203.554 1467.73 203.534 1467.53 203.143L1457.51 183.804C1457.32 183.435 1456.35 183.387 1456.03 183.73L1444.84 195.609C1444.57 195.892 1443.82 195.922 1443.47 195.665L1422.13 179.871C1421.73 179.573 1420.83 179.671 1420.7 180.027L1410.8 205.807C1410.63 206.238 1409.45 206.253 1409.24 205.826L1391.37 168.883C1391.17 168.472 1390.05 168.465 1389.83 168.873L1374.8 196.908C1374.6 197.281 1373.61 197.319 1373.31 196.966L1355.94 176.792C1355.64 176.443 1354.66 176.475 1354.45 176.842L1340.52 200.979C1340.29 201.383 1339.17 201.367 1338.98 200.957L1330.77 183.233C1330.59 182.845 1329.56 182.802 1329.26 183.17L1306.52 211.265C1306.25 211.601 1305.33 211.602 1305.06 211.266L1274.62 174.029C1274.27 173.597 1273.02 173.753 1273.1 174.22C1274.24 181.402 1275.89 201.147 1261.74 210.194C1261.34 210.446 1260.57 210.385 1260.36 210.08L1245.4 188.63C1245.14 188.253 1244.1 188.272 1243.89 188.656L1231.43 211.237C1231.23 211.589 1230.32 211.648 1229.97 211.33C1225.49 207.232 1206.92 188.794 1216.19 172.228C1216.19 172.228 1191.91 188.747 1191.08 200.916C1191.05 201.365 1189.85 201.462 1189.55 201.043L1179.5 187.238C1179.23 186.865 1178.19 186.888 1177.99 187.272L1165.75 209.876C1165.52 210.312 1164.29 210.262 1164.2 209.813C1162.86 203.481 1155.83 185.698 1119.11 172.887C1118.49 172.669 1117.69 172.986 1117.92 173.356C1121.47 179.092 1136.22 205.951 1121.96 236.911C1121.35 238.214 1123.25 239.465 1125.84 239.465Z" fill="#142B27"/>
<path d="M1492.86 237.353C1492.91 238.512 1491.11 239.466 1488.87 239.466H1125.83C1123.25 239.466 1121.36 238.215 1121.96 236.913C1123.57 233.409 1124.81 229.953 1125.74 226.577C1125.77 226.581 1125.8 226.581 1125.83 226.581H1488.87C1491.11 226.581 1492.65 226.519 1492.65 226.519C1492.65 229.401 1492.71 233.524 1492.86 237.353Z" fill="#142B27"/>
<path d="M1192.03 220.494C1195.8 220.494 1198.86 218.909 1198.86 216.954C1198.86 214.998 1195.8 213.413 1192.03 213.413C1188.25 213.413 1185.19 214.998 1185.19 216.954C1185.19 218.909 1188.25 220.494 1192.03 220.494Z" fill="#142B27"/>
<path d="M1211.13 230.391C1214.9 230.391 1217.96 228.806 1217.96 226.85C1217.96 224.895 1214.9 223.31 1211.13 223.31C1207.36 223.31 1204.3 224.895 1204.3 226.85C1204.3 228.806 1207.36 230.391 1211.13 230.391Z" fill="#142B27"/>
<path d="M1439.18 215.347C1442.95 215.347 1446.01 213.762 1446.01 211.806C1446.01 209.851 1442.95 208.266 1439.18 208.266C1435.4 208.266 1432.34 209.851 1432.34 211.806C1432.34 213.762 1435.4 215.347 1439.18 215.347Z" fill="#142B27"/>
<path d="M758.94 239.465H1121.97C1124.22 239.465 1126.02 238.514 1125.97 237.351C1125.64 229.061 1125.73 198.672 1143.9 187.194C1144.41 186.873 1143.78 186.411 1143.03 186.549C1134.37 188.124 1108.57 193.543 1102.15 203.17C1101.89 203.554 1100.83 203.534 1100.63 203.143L1090.62 183.804C1090.43 183.435 1089.45 183.387 1089.13 183.73L1077.94 195.609C1077.68 195.892 1076.92 195.922 1076.58 195.665C1057.41 191.383 1056.13 187.334 1055.23 179.871C1054.83 179.573 1053.94 179.671 1053.8 180.027C1040.24 190.01 1038.3 195.657 1043.9 205.807C1043.73 206.238 1042.55 206.253 1042.35 205.826C1029.84 191.873 1026.15 183.766 1024.48 168.883C1024.28 168.472 1023.16 168.465 1022.94 168.873C1020.21 182.359 1018.03 189.398 1007.91 196.908C1007.71 197.281 1006.72 197.319 1006.41 196.966C991.621 188.627 989.547 184.31 989.042 176.792C988.741 176.443 987.763 176.475 987.552 176.842L973.621 200.979C973.389 201.383 972.275 201.367 972.085 200.957L963.876 183.233C963.696 182.845 962.665 182.802 962.368 183.17L939.627 211.265C939.355 211.601 938.435 211.602 938.16 211.266L907.728 174.029C907.376 173.597 906.127 173.753 906.202 174.22C907.341 181.402 908.991 201.147 894.842 210.194C894.447 210.446 893.677 210.385 893.464 210.08L878.506 188.63C878.244 188.253 877.205 188.272 876.992 188.656L864.532 211.237C864.338 211.589 863.425 211.648 863.076 211.33C858.593 207.232 840.027 188.794 849.289 172.228C849.289 172.228 825.015 188.747 824.189 200.916C824.158 201.365 822.957 201.462 822.652 201.043L812.602 187.238C812.331 186.865 811.298 186.888 811.091 187.272L798.858 209.876C798.622 210.312 797.396 210.262 797.301 209.813C795.959 203.481 788.937 185.698 752.217 172.887C751.593 172.669 750.791 172.986 751.021 173.356C754.578 179.092 769.321 205.951 755.06 236.911C754.459 238.214 756.356 239.465 758.94 239.465Z" fill="#142B27"/>
<path d="M1125.97 237.353C1126.02 238.512 1124.22 239.466 1121.98 239.466H758.938C756.355 239.466 754.46 238.215 755.06 236.913C756.676 233.409 757.915 229.953 758.842 226.577C758.875 226.581 758.906 226.581 758.938 226.581H1121.98C1124.22 226.581 1125.75 226.519 1125.75 226.519C1125.76 229.401 1125.82 233.524 1125.97 237.353Z" fill="#142B27"/>
<path d="M825.131 220.494C828.905 220.494 831.964 218.909 831.964 216.954C831.964 214.998 828.905 213.413 825.131 213.413C821.357 213.413 818.298 214.998 818.298 216.954C818.298 218.909 821.357 220.494 825.131 220.494Z" fill="#142B27"/>
<path d="M844.234 230.391C848.007 230.391 851.067 228.806 851.067 226.85C851.067 224.895 848.007 223.31 844.234 223.31C840.46 223.31 837.4 224.895 837.4 226.85C837.4 228.806 840.46 230.391 844.234 230.391Z" fill="#142B27"/>
<path d="M1072.28 215.347C1076.05 215.347 1079.11 213.762 1079.11 211.806C1079.11 209.851 1076.05 208.266 1072.28 208.266C1068.51 208.266 1065.45 209.851 1065.45 211.806C1065.45 213.762 1068.51 215.347 1072.28 215.347Z" fill="#142B27"/>
<path d="M2519.04 239.465H2156.01C2153.76 239.465 2151.96 238.514 2152.01 237.351C2152.34 229.061 2152.25 198.672 2134.08 187.194C2133.57 186.873 2134.2 186.411 2134.95 186.549C2143.61 188.124 2169.41 193.543 2175.84 203.17C2176.09 203.554 2177.15 203.534 2177.35 203.143L2187.36 183.804C2187.55 183.435 2188.53 183.387 2188.85 183.73L2200.04 195.609C2200.3 195.892 2201.06 195.922 2201.41 195.665L2222.75 179.871C2223.15 179.573 2224.04 179.671 2224.18 180.027L2234.08 205.807C2234.25 206.238 2235.43 206.253 2235.63 205.826L2253.5 168.883C2253.7 168.472 2254.82 168.465 2255.04 168.873L2270.07 196.908C2270.27 197.281 2271.26 197.319 2271.57 196.966L2288.94 176.792C2289.24 176.443 2290.22 176.475 2290.43 176.842L2304.36 200.979C2304.59 201.383 2305.71 201.367 2305.9 200.957L2314.1 183.233C2314.28 182.845 2315.32 182.802 2315.61 183.17L2338.35 211.265C2338.63 211.601 2339.55 211.602 2339.82 211.266L2370.25 174.029C2370.61 173.597 2371.85 173.753 2371.78 174.22C2370.64 181.402 2368.99 201.147 2383.14 210.194C2383.53 210.446 2384.3 210.385 2384.52 210.08L2399.47 188.63C2399.74 188.253 2400.78 188.272 2400.99 188.656L2413.45 211.237C2413.64 211.589 2414.56 211.648 2414.9 211.33C2419.39 207.232 2437.95 188.794 2428.69 172.228C2428.69 172.228 2452.97 188.747 2453.79 200.916C2453.82 201.365 2455.02 201.462 2455.33 201.043L2465.38 187.238C2465.65 186.865 2466.68 186.888 2466.89 187.272L2479.12 209.876C2479.36 210.312 2480.58 210.262 2480.68 209.813C2482.02 203.481 2489.04 185.698 2525.76 172.887C2526.39 172.669 2527.19 172.986 2526.96 173.356C2523.4 179.092 2508.66 205.951 2522.92 236.911C2523.52 238.214 2521.62 239.465 2519.04 239.465Z" fill="#142B27"/>
<path d="M2152.01 237.353C2151.97 238.512 2153.77 239.466 2156 239.466H2519.04C2521.63 239.466 2523.52 238.215 2522.92 236.913C2521.31 233.409 2520.07 229.953 2519.14 226.577C2519.11 226.581 2519.07 226.581 2519.04 226.581H2156C2153.77 226.581 2152.23 226.519 2152.23 226.519C2152.22 229.401 2152.16 233.524 2152.01 237.353Z" fill="#142B27"/>
<path d="M2452.85 220.494C2449.08 220.494 2446.02 218.909 2446.02 216.954C2446.02 214.998 2449.08 213.413 2452.85 213.413C2456.62 213.413 2459.68 214.998 2459.68 216.954C2459.68 218.909 2456.62 220.494 2452.85 220.494Z" fill="#142B27"/>
<path d="M2433.75 230.391C2429.97 230.391 2426.91 228.806 2426.91 226.85C2426.91 224.895 2429.97 223.31 2433.75 223.31C2437.52 223.31 2440.58 224.895 2440.58 226.85C2440.58 228.806 2437.52 230.391 2433.75 230.391Z" fill="#142B27"/>
<path d="M2205.7 215.347C2201.93 215.347 2198.87 213.762 2198.87 211.806C2198.87 209.851 2201.93 208.266 2205.7 208.266C2209.47 208.266 2212.53 209.851 2212.53 211.806C2212.53 213.762 2209.47 215.347 2205.7 215.347Z" fill="#142B27"/>
<path d="M1409.59 0L1372.08 174.735H1439.75L1409.59 0Z" fill="#142A27"/>
<rect width="13.5342" height="45.6253" transform="matrix(-1 0 0 1 1412.69 170.853)" fill="#142A27"/>
<path d="M1340.31 50.4795L1313.43 175.706H1361.93L1340.31 50.4795Z" fill="#142A27"/>
<rect width="9.6995" height="32.6982" transform="matrix(-1 0 0 1 1342.53 172.923)" fill="#142A27"/>
<rect x="-177.613" y="263.524" width="1777.49" height="216.159" fill="#1C5048"/>
<path d="M-251.738 278.201H-33.0916C-31.7382 278.201 -30.6561 277.629 -30.6843 276.928C-30.8841 271.935 -30.8309 253.633 -19.886 246.72C-19.5798 246.526 -19.9572 246.248 -20.4127 246.331C-25.6259 247.28 -41.1664 250.544 -45.034 256.342C-45.188 256.573 -45.8243 256.561 -45.9464 256.325L-51.9776 244.678C-52.0923 244.456 -52.6773 244.427 -52.8715 244.633L-59.6107 251.788C-59.7707 251.958 -60.2248 251.977 -60.4343 251.822L-73.2876 242.309C-73.5294 242.13 -74.0682 242.189 -74.1505 242.403L-80.1143 257.93C-80.2141 258.189 -80.9253 258.199 -81.0493 257.942L-91.8115 235.691C-91.9313 235.444 -92.6069 235.44 -92.7386 235.685L-101.792 252.57C-101.912 252.795 -102.509 252.818 -102.692 252.605L-113.153 240.455C-113.335 240.245 -113.923 240.264 -114.05 240.485L-122.441 255.022C-122.581 255.265 -123.252 255.256 -123.366 255.009L-128.31 244.334C-128.418 244.101 -129.039 244.075 -129.218 244.296L-142.914 261.217C-143.079 261.42 -143.633 261.42 -143.798 261.218L-162.126 238.791C-162.339 238.531 -163.091 238.625 -163.046 238.906C-162.36 243.231 -161.366 255.123 -169.888 260.572C-170.125 260.724 -170.589 260.687 -170.717 260.503L-179.726 247.584C-179.884 247.358 -180.51 247.369 -180.638 247.6L-188.142 261.2C-188.259 261.412 -188.809 261.448 -189.019 261.256C-191.719 258.788 -202.901 247.683 -197.323 237.706C-197.323 237.706 -211.943 247.655 -212.44 254.984C-212.459 255.254 -213.182 255.313 -213.366 255.06L-219.418 246.746C-219.582 246.522 -220.204 246.536 -220.328 246.767L-227.696 260.381C-227.838 260.643 -228.577 260.613 -228.634 260.342C-229.442 256.529 -233.671 245.818 -255.787 238.103C-256.162 237.972 -256.646 238.162 -256.507 238.386C-254.365 241.84 -245.486 258.017 -254.075 276.663C-254.437 277.448 -253.294 278.201 -251.738 278.201Z" fill="#1C5048"/>
<path d="M-30.6869 276.929C-30.6577 277.627 -31.7417 278.202 -33.0901 278.202H-251.739C-253.294 278.202 -254.436 277.448 -254.074 276.664C-253.101 274.554 -252.355 272.473 -251.797 270.439C-251.777 270.441 -251.758 270.441 -251.739 270.441H-33.0901C-31.7417 270.441 -30.8145 270.404 -30.8145 270.404C-30.814 272.14 -30.7775 274.623 -30.6869 276.929Z" fill="#1C5048"/>
<path d="M-211.872 266.775C-209.6 266.775 -207.757 265.821 -207.757 264.643C-207.757 263.466 -209.6 262.511 -211.872 262.511C-214.145 262.511 -215.988 263.466 -215.988 264.643C-215.988 265.821 -214.145 266.775 -211.872 266.775Z" fill="#1C5048"/>
<path d="M-200.368 272.736C-198.095 272.736 -196.252 271.781 -196.252 270.604C-196.252 269.426 -198.095 268.471 -200.368 268.471C-202.64 268.471 -204.483 269.426 -204.483 270.604C-204.483 271.781 -202.64 272.736 -200.368 272.736Z" fill="#1C5048"/>
<path d="M-63.0208 263.675C-60.7479 263.675 -58.9053 262.721 -58.9053 261.543C-58.9053 260.365 -60.7479 259.411 -63.0208 259.411C-65.2937 259.411 -67.1363 260.365 -67.1363 261.543C-67.1363 262.721 -65.2937 263.675 -63.0208 263.675Z" fill="#1C5048"/>
<path d="M-31.9795 278.201H186.666C188.02 278.201 189.102 277.629 189.074 276.928C188.874 271.935 188.927 253.633 199.872 246.72C200.178 246.526 199.801 246.248 199.345 246.331C194.132 247.28 178.592 250.544 174.724 256.342C174.57 256.573 173.934 256.561 173.812 256.325L167.78 244.678C167.666 244.456 167.081 244.427 166.887 244.633L160.147 251.788C159.987 251.958 159.533 251.977 159.324 251.822L146.47 242.309C146.229 242.13 145.69 242.189 145.608 242.403L139.644 257.93C139.544 258.189 138.833 258.199 138.709 257.942L127.947 235.691C127.827 235.444 127.151 235.44 127.019 235.685L117.966 252.57C117.846 252.795 117.249 252.818 117.066 252.605L106.605 240.455C106.423 240.245 105.835 240.264 105.708 240.485L97.3175 255.022C97.1774 255.265 96.5064 255.256 96.3922 255.009L91.4481 244.334C91.3398 244.101 90.7188 244.075 90.5399 244.296L76.8436 261.217C76.6794 261.42 76.1255 261.42 75.9599 261.218L57.6316 238.791C57.4193 238.531 56.6675 238.625 56.7123 238.906C57.3986 243.231 58.3923 255.123 49.8704 260.572C49.6327 260.724 49.1689 260.687 49.0408 260.503L40.032 247.584C39.8739 247.358 39.2483 247.369 39.1202 247.6L31.6156 261.2C31.4986 261.412 30.9488 261.448 30.7389 261.256C28.0388 258.788 16.8572 247.683 22.4353 237.706C22.4353 237.706 7.81555 247.655 7.31799 254.984C7.2995 255.254 6.57629 255.313 6.39224 255.06L0.339691 246.746C0.176453 246.522 -0.445496 246.536 -0.570343 246.767L-7.93803 260.381C-8.07999 260.643 -8.81847 260.613 -8.87581 260.342C-9.68411 256.529 -13.9129 245.818 -36.0289 238.103C-36.4043 237.972 -36.8876 238.162 -36.7488 238.386C-34.6069 241.84 -25.7276 258.017 -34.3165 276.663C-34.6786 277.448 -33.536 278.201 -31.9795 278.201Z" fill="#1C5048"/>
<path d="M189.071 276.929C189.1 277.627 188.016 278.202 186.668 278.202H-31.9806C-33.5362 278.202 -34.6774 277.448 -34.3163 276.664C-33.3434 274.554 -32.597 272.473 -32.0384 270.439C-32.019 270.441 -32 270.441 -31.9806 270.441H186.668C188.016 270.441 188.944 270.404 188.944 270.404C188.944 272.14 188.981 274.623 189.071 276.929Z" fill="#1C5048"/>
<path d="M7.88562 266.775C10.1585 266.775 12.0011 265.821 12.0011 264.643C12.0011 263.466 10.1585 262.511 7.88562 262.511C5.6127 262.511 3.77011 263.466 3.77011 264.643C3.77011 265.821 5.6127 266.775 7.88562 266.775Z" fill="#1C5048"/>
<path d="M19.3905 272.736C21.6635 272.736 23.506 271.781 23.506 270.604C23.506 269.426 21.6635 268.471 19.3905 268.471C17.1176 268.471 15.275 269.426 15.275 270.604C15.275 271.781 17.1176 272.736 19.3905 272.736Z" fill="#1C5048"/>
<path d="M156.737 263.675C159.01 263.675 160.853 262.721 160.853 261.543C160.853 260.365 159.01 259.411 156.737 259.411C154.464 259.411 152.622 260.365 152.622 261.543C152.622 262.721 154.464 263.675 156.737 263.675Z" fill="#1C5048"/>
<path d="M395.52 278.201H176.874C175.521 278.201 174.439 277.629 174.467 276.928C174.667 271.935 174.614 253.633 163.669 246.72C163.363 246.526 163.74 246.248 164.195 246.331C169.409 247.28 184.949 250.544 188.817 256.342C188.971 256.573 189.607 256.561 189.729 256.325L195.76 244.678C195.875 244.456 196.46 244.427 196.654 244.633L203.393 251.788C203.553 251.958 204.008 251.977 204.217 251.822L217.07 242.309C217.312 242.13 217.851 242.189 217.933 242.403L223.897 257.93C223.997 258.189 224.708 258.199 224.832 257.942L235.594 235.691C235.714 235.444 236.39 235.44 236.521 235.685L245.575 252.57C245.695 252.795 246.291 252.818 246.474 252.605L256.936 240.455C257.117 240.245 257.706 240.264 257.833 240.485L266.223 255.022C266.363 255.265 267.034 255.256 267.149 255.009L272.093 244.334C272.201 244.101 272.822 244.075 273.001 244.296L286.697 261.217C286.861 261.42 287.415 261.42 287.581 261.218L305.909 238.791C306.121 238.531 306.873 238.625 306.828 238.906C306.142 243.231 305.148 255.123 313.67 260.572C313.908 260.724 314.372 260.687 314.5 260.503L323.509 247.584C323.667 247.358 324.292 247.369 324.421 247.6L331.925 261.2C332.042 261.412 332.592 261.448 332.802 261.256C335.502 258.788 346.684 247.683 341.105 237.706C341.105 237.706 355.725 247.655 356.223 254.984C356.241 255.254 356.964 255.313 357.148 255.06L363.201 246.746C363.364 246.522 363.986 246.536 364.111 246.767L371.479 260.381C371.621 260.643 372.359 260.613 372.417 260.342C373.225 256.529 377.454 245.818 399.57 238.103C399.945 237.972 400.428 238.162 400.29 238.386C398.148 241.84 389.268 258.017 397.857 276.663C398.219 277.448 397.077 278.201 395.52 278.201Z" fill="#1C5048"/>
<path d="M174.47 276.929C174.44 277.627 175.524 278.202 176.873 278.202H395.521C397.077 278.202 398.218 277.448 397.857 276.664C396.884 274.554 396.138 272.473 395.579 270.439C395.56 270.441 395.541 270.441 395.521 270.441H176.873C175.524 270.441 174.597 270.404 174.597 270.404C174.597 272.14 174.56 274.623 174.47 276.929Z" fill="#1C5048"/>
<path d="M355.655 266.775C353.382 266.775 351.54 265.821 351.54 264.643C351.54 263.466 353.382 262.511 355.655 262.511C357.928 262.511 359.771 263.466 359.771 264.643C359.771 265.821 357.928 266.775 355.655 266.775Z" fill="#1C5048"/>
<path d="M344.15 272.736C341.877 272.736 340.035 271.781 340.035 270.604C340.035 269.426 341.877 268.471 344.15 268.471C346.423 268.471 348.266 269.426 348.266 270.604C348.266 271.781 346.423 272.736 344.15 272.736Z" fill="#1C5048"/>
<path d="M206.803 263.675C204.531 263.675 202.688 262.721 202.688 261.543C202.688 260.365 204.531 259.411 206.803 259.411C209.076 259.411 210.919 260.365 210.919 261.543C210.919 262.721 209.076 263.675 206.803 263.675Z" fill="#1C5048"/>
<path d="M616.492 278.201H397.846C396.493 278.201 395.411 277.629 395.439 276.928C395.639 271.935 395.586 253.633 384.641 246.72C384.335 246.526 384.712 246.248 385.168 246.331C390.381 247.28 405.921 250.544 409.789 256.342C409.943 256.573 410.579 256.561 410.701 256.325L416.732 244.678C416.847 244.456 417.432 244.427 417.626 244.633L424.366 251.788C424.526 251.958 424.98 251.977 425.189 251.822L438.042 242.309C438.284 242.13 438.823 242.189 438.905 242.403L444.869 257.93C444.969 258.189 445.68 258.199 445.804 257.942L456.566 235.691C456.686 235.444 457.362 235.44 457.494 235.685L466.547 252.57C466.667 252.795 467.263 252.818 467.447 252.605L477.908 240.455C478.09 240.245 478.678 240.264 478.805 240.485L487.195 255.022C487.336 255.265 488.007 255.256 488.121 255.009L493.065 244.334C493.173 244.101 493.794 244.075 493.973 244.296L507.669 261.217C507.834 261.42 508.388 261.42 508.553 261.218L526.881 238.791C527.094 238.531 527.845 238.625 527.801 238.906C527.114 243.231 526.121 255.123 534.643 260.572C534.88 260.724 535.344 260.687 535.472 260.503L544.481 247.584C544.639 247.358 545.265 247.369 545.393 247.6L552.897 261.2C553.014 261.412 553.564 261.448 553.774 261.256C556.474 258.788 567.656 247.683 562.078 237.706C562.078 237.706 576.697 247.655 577.195 254.984C577.213 255.254 577.937 255.313 578.121 255.06L584.173 246.746C584.337 246.522 584.958 246.536 585.083 246.767L592.451 260.381C592.593 260.643 593.331 260.613 593.389 260.342C594.197 256.529 598.426 245.818 620.542 238.103C620.917 237.972 621.401 238.162 621.262 238.386C619.12 241.84 610.241 258.017 618.829 276.663C619.192 277.448 618.049 278.201 616.492 278.201Z" fill="#1C5048"/>
<path d="M395.442 276.929C395.413 277.627 396.497 278.202 397.845 278.202H616.494C618.049 278.202 619.19 277.448 618.829 276.664C617.856 274.554 617.11 272.473 616.551 270.439C616.532 270.441 616.513 270.441 616.494 270.441H397.845C396.497 270.441 395.569 270.404 395.569 270.404C395.569 272.14 395.532 274.623 395.442 276.929Z" fill="#1C5048"/>
<path d="M576.627 266.775C574.354 266.775 572.512 265.821 572.512 264.643C572.512 263.466 574.354 262.511 576.627 262.511C578.9 262.511 580.743 263.466 580.743 264.643C580.743 265.821 578.9 266.775 576.627 266.775Z" fill="#1C5048"/>
<path d="M565.122 272.736C562.85 272.736 561.007 271.781 561.007 270.604C561.007 269.426 562.85 268.471 565.122 268.471C567.395 268.471 569.238 269.426 569.238 270.604C569.238 271.781 567.395 272.736 565.122 272.736Z" fill="#1C5048"/>
<path d="M427.776 263.675C425.503 263.675 423.66 262.721 423.66 261.543C423.66 260.365 425.503 259.411 427.776 259.411C430.049 259.411 431.891 260.365 431.891 261.543C431.891 262.721 430.049 263.675 427.776 263.675Z" fill="#1C5048"/>
<path d="M1454.24 278.201H1235.6C1234.24 278.201 1233.16 277.629 1233.19 276.928C1233.39 271.935 1233.34 253.633 1222.39 246.72C1222.09 246.526 1222.46 246.248 1222.92 246.331C1228.13 247.28 1243.67 250.544 1247.54 256.342C1247.69 256.573 1248.33 256.561 1248.45 256.325L1254.48 244.678C1254.6 244.456 1255.18 244.427 1255.38 244.633L1262.12 251.788C1262.28 251.958 1262.73 251.977 1262.94 251.822L1275.79 242.309C1276.04 242.13 1276.57 242.189 1276.66 242.403L1282.62 257.93C1282.72 258.189 1283.43 258.199 1283.56 257.942L1294.32 235.691C1294.44 235.444 1295.11 235.44 1295.25 235.685L1304.3 252.57C1304.42 252.795 1305.02 252.818 1305.2 252.605L1315.66 240.455C1315.84 240.245 1316.43 240.264 1316.56 240.485L1324.95 255.022C1325.09 255.265 1325.76 255.256 1325.87 255.009L1330.82 244.334C1330.92 244.101 1331.55 244.075 1331.72 244.296L1345.42 261.217C1345.59 261.42 1346.14 261.42 1346.3 261.218L1364.63 238.791C1364.85 238.531 1365.6 238.625 1365.55 238.906C1364.87 243.231 1363.87 255.123 1372.39 260.572C1372.63 260.724 1373.1 260.687 1373.22 260.503L1382.23 247.584C1382.39 247.358 1383.02 247.369 1383.14 247.6L1390.65 261.2C1390.77 261.412 1391.32 261.448 1391.53 261.256C1394.23 258.788 1405.41 247.683 1399.83 237.706C1399.83 237.706 1414.45 247.655 1414.95 254.984C1414.97 255.254 1415.69 255.313 1415.87 255.06L1421.93 246.746C1422.09 246.522 1422.71 246.536 1422.84 246.767L1430.2 260.381C1430.34 260.643 1431.08 260.613 1431.14 260.342C1431.95 256.529 1436.18 245.818 1458.29 238.103C1458.67 237.972 1459.15 238.162 1459.01 238.386C1456.87 241.84 1447.99 258.017 1456.58 276.663C1456.94 277.448 1455.8 278.201 1454.24 278.201Z" fill="#1C5048"/>
<path d="M1233.19 276.929C1233.16 277.627 1234.25 278.202 1235.6 278.202H1454.25C1455.8 278.202 1456.94 277.448 1456.58 276.664C1455.61 274.554 1454.86 272.473 1454.3 270.439C1454.28 270.441 1454.26 270.441 1454.25 270.441H1235.6C1234.25 270.441 1233.32 270.404 1233.32 270.404C1233.32 272.14 1233.28 274.623 1233.19 276.929Z" fill="#1C5048"/>
<path d="M1414.38 266.775C1412.11 266.775 1410.26 265.821 1410.26 264.643C1410.26 263.466 1412.11 262.511 1414.38 262.511C1416.65 262.511 1418.49 263.466 1418.49 264.643C1418.49 265.821 1416.65 266.775 1414.38 266.775Z" fill="#1C5048"/>
<path d="M1402.87 272.736C1400.6 272.736 1398.76 271.781 1398.76 270.604C1398.76 269.426 1400.6 268.471 1402.87 268.471C1405.15 268.471 1406.99 269.426 1406.99 270.604C1406.99 271.781 1405.15 272.736 1402.87 272.736Z" fill="#1C5048"/>
<path d="M1265.53 263.675C1263.25 263.675 1261.41 262.721 1261.41 261.543C1261.41 260.365 1263.25 259.411 1265.53 259.411C1267.8 259.411 1269.64 260.365 1269.64 261.543C1269.64 262.721 1267.8 263.675 1265.53 263.675Z" fill="#1C5048"/>
<path d="M1234.49 278.201H1015.84C1014.49 278.201 1013.4 277.629 1013.43 276.928C1013.63 271.935 1013.58 253.633 1002.63 246.72C1002.33 246.526 1002.71 246.248 1003.16 246.331C1008.37 247.28 1023.91 250.544 1027.78 256.342C1027.94 256.573 1028.57 256.561 1028.69 256.325L1034.73 244.678C1034.84 244.456 1035.43 244.427 1035.62 244.633L1042.36 251.788C1042.52 251.958 1042.97 251.977 1043.18 251.822L1056.04 242.309C1056.28 242.13 1056.82 242.189 1056.9 242.403L1062.86 257.93C1062.96 258.189 1063.67 258.199 1063.8 257.942L1074.56 235.691C1074.68 235.444 1075.36 235.44 1075.49 235.685L1084.54 252.57C1084.66 252.795 1085.26 252.818 1085.44 252.605L1095.9 240.455C1096.08 240.245 1096.67 240.264 1096.8 240.485L1105.19 255.022C1105.33 255.265 1106 255.256 1106.11 255.009L1111.06 244.334C1111.17 244.101 1111.79 244.075 1111.97 244.296L1125.66 261.217C1125.83 261.42 1126.38 261.42 1126.55 261.218L1144.88 238.791C1145.09 238.531 1145.84 238.625 1145.79 238.906C1145.11 243.231 1144.11 255.123 1152.64 260.572C1152.87 260.724 1153.34 260.687 1153.47 260.503L1162.47 247.584C1162.63 247.358 1163.26 247.369 1163.39 247.6L1170.89 261.2C1171.01 261.412 1171.56 261.448 1171.77 261.256C1174.47 258.788 1185.65 247.683 1180.07 237.706C1180.07 237.706 1194.69 247.655 1195.19 254.984C1195.21 255.254 1195.93 255.313 1196.11 255.06L1202.17 246.746C1202.33 246.522 1202.95 246.536 1203.08 246.767L1210.44 260.381C1210.59 260.643 1211.33 260.613 1211.38 260.342C1212.19 256.529 1216.42 245.818 1238.54 238.103C1238.91 237.972 1239.39 238.162 1239.26 238.386C1237.11 241.84 1228.23 258.017 1236.82 276.663C1237.19 277.448 1236.04 278.201 1234.49 278.201Z" fill="#1C5048"/>
<path d="M1013.44 276.929C1013.41 277.627 1014.49 278.202 1015.84 278.202H1234.49C1236.04 278.202 1237.18 277.448 1236.82 276.664C1235.85 274.554 1235.1 272.473 1234.55 270.439C1234.53 270.441 1234.51 270.441 1234.49 270.441H1015.84C1014.49 270.441 1013.56 270.404 1013.56 270.404C1013.56 272.14 1013.53 274.623 1013.44 276.929Z" fill="#1C5048"/>
<path d="M1194.62 266.775C1192.35 266.775 1190.51 265.821 1190.51 264.643C1190.51 263.466 1192.35 262.511 1194.62 262.511C1196.89 262.511 1198.74 263.466 1198.74 264.643C1198.74 265.821 1196.89 266.775 1194.62 266.775Z" fill="#1C5048"/>
<path d="M1183.12 272.736C1180.84 272.736 1179 271.781 1179 270.604C1179 269.426 1180.84 268.471 1183.12 268.471C1185.39 268.471 1187.23 269.426 1187.23 270.604C1187.23 271.781 1185.39 272.736 1183.12 272.736Z" fill="#1C5048"/>
<path d="M1045.77 263.675C1043.5 263.675 1041.65 262.721 1041.65 261.543C1041.65 260.365 1043.5 259.411 1045.77 259.411C1048.04 259.411 1049.88 260.365 1049.88 261.543C1049.88 262.721 1048.04 263.675 1045.77 263.675Z" fill="#1C5048"/>
<path d="M806.986 278.201H1025.63C1026.99 278.201 1028.07 277.629 1028.04 276.928C1027.84 271.935 1027.89 253.633 1038.84 246.72C1039.14 246.526 1038.77 246.248 1038.31 246.331C1033.1 247.28 1017.56 250.544 1013.69 256.342C1013.54 256.573 1012.9 256.561 1012.78 256.325L1006.75 244.678C1006.63 244.456 1006.05 244.427 1005.85 244.633L999.113 251.788C998.953 251.958 998.499 251.977 998.29 251.822L985.436 242.309C985.194 242.13 984.656 242.189 984.573 242.403L978.61 257.93C978.51 258.189 977.799 258.199 977.675 257.942L966.912 235.691C966.793 235.444 966.117 235.44 965.985 235.685L956.932 252.57C956.812 252.795 956.215 252.818 956.032 252.605L945.571 240.455C945.389 240.245 944.801 240.264 944.674 240.485L936.283 255.022C936.143 255.265 935.472 255.256 935.358 255.009L930.414 244.334C930.306 244.101 929.685 244.075 929.506 244.296L915.809 261.217C915.645 261.42 915.091 261.42 914.926 261.218L896.598 238.791C896.385 238.531 895.633 238.625 895.678 238.906C896.365 243.231 897.358 255.123 888.836 260.572C888.599 260.724 888.135 260.687 888.007 260.503L878.998 247.584C878.84 247.358 878.214 247.369 878.086 247.6L870.582 261.2C870.465 261.412 869.915 261.448 869.705 261.256C867.005 258.788 855.823 247.683 861.401 237.706C861.401 237.706 846.781 247.655 846.284 254.984C846.265 255.254 845.542 255.313 845.358 255.06L839.306 246.746C839.142 246.522 838.52 246.536 838.396 246.767L831.028 260.381C830.886 260.643 830.147 260.613 830.09 260.342C829.282 256.529 825.053 245.818 802.937 238.103C802.562 237.972 802.078 238.162 802.217 238.386C804.359 241.84 813.238 258.017 804.649 276.663C804.287 277.448 805.43 278.201 806.986 278.201Z" fill="#1C5048"/>
<path d="M1028.04 276.929C1028.07 277.627 1026.98 278.202 1025.63 278.202H806.985C805.43 278.202 804.288 277.448 804.65 276.664C805.623 274.554 806.369 272.473 806.927 270.439C806.947 270.441 806.966 270.441 806.985 270.441H1025.63C1026.98 270.441 1027.91 270.404 1027.91 270.404C1027.91 272.14 1027.95 274.623 1028.04 276.929Z" fill="#1C5048"/>
<path d="M846.852 266.775C849.125 266.775 850.967 265.821 850.967 264.643C850.967 263.466 849.125 262.511 846.852 262.511C844.579 262.511 842.736 263.466 842.736 264.643C842.736 265.821 844.579 266.775 846.852 266.775Z" fill="#1C5048"/>
<path d="M858.356 272.736C860.629 272.736 862.472 271.781 862.472 270.604C862.472 269.426 860.629 268.471 858.356 268.471C856.083 268.471 854.241 269.426 854.241 270.604C854.241 271.781 856.083 272.736 858.356 272.736Z" fill="#1C5048"/>
<path d="M995.703 263.675C997.976 263.675 999.819 262.721 999.819 261.543C999.819 260.365 997.976 259.411 995.703 259.411C993.43 259.411 991.588 260.365 991.588 261.543C991.588 262.721 993.43 263.675 995.703 263.675Z" fill="#1C5048"/>
<path d="M586.014 278.201H804.66C806.014 278.201 807.096 277.629 807.068 276.928C806.868 271.935 806.921 253.633 817.866 246.72C818.172 246.526 817.795 246.248 817.339 246.331C812.126 247.28 796.585 250.544 792.718 256.342C792.564 256.573 791.928 256.561 791.805 256.325L785.774 244.678C785.659 244.456 785.075 244.427 784.88 244.633L778.141 251.788C777.981 251.958 777.527 251.977 777.318 251.822C765.776 249.243 765.006 246.804 764.464 242.309C764.222 242.13 763.684 242.189 763.601 242.403C755.436 248.416 754.266 251.817 757.638 257.93C757.538 258.189 756.826 258.199 756.703 257.942C749.172 249.538 746.946 244.655 745.94 235.691C745.821 235.444 745.145 235.44 745.013 235.685C743.367 243.808 742.055 248.047 735.96 252.57C735.84 252.795 735.243 252.818 735.06 252.605C726.152 247.583 724.903 244.983 724.598 240.455C724.417 240.245 723.828 240.264 723.701 240.485L715.311 255.022C715.171 255.265 714.5 255.256 714.386 255.009L709.442 244.334C709.334 244.101 708.713 244.075 708.534 244.296L694.837 261.217C694.673 261.42 694.119 261.42 693.954 261.218L675.625 238.791C675.413 238.531 674.661 238.625 674.706 238.906C675.392 243.231 676.386 255.123 667.864 260.572C667.626 260.724 667.163 260.687 667.035 260.503L658.026 247.584C657.868 247.358 657.242 247.369 657.114 247.6L649.609 261.2C649.492 261.412 648.943 261.448 648.733 261.256C646.033 258.788 634.851 247.683 640.429 237.706C640.429 237.706 625.809 247.655 625.312 254.984C625.293 255.254 624.57 255.313 624.386 255.06L618.333 246.746C618.17 246.522 617.548 246.536 617.423 246.767L610.056 260.381C609.914 260.643 609.175 260.613 609.118 260.342C608.31 256.529 604.081 245.818 581.965 238.103C581.589 237.972 581.106 238.162 581.245 238.386C583.387 241.84 592.266 258.017 583.677 276.663C583.315 277.448 584.458 278.201 586.014 278.201Z" fill="#1C5048"/>
<path d="M807.065 276.929C807.094 277.627 806.01 278.202 804.662 278.202H586.013C584.458 278.202 583.316 277.448 583.677 276.664C584.65 274.554 585.397 272.473 585.955 270.439C585.975 270.441 585.994 270.441 586.013 270.441H804.662C806.01 270.441 806.937 270.404 806.937 270.404C806.938 272.14 806.974 274.623 807.065 276.929Z" fill="#1C5048"/>
<path d="M625.879 266.775C628.152 266.775 629.995 265.821 629.995 264.643C629.995 263.466 628.152 262.511 625.879 262.511C623.606 262.511 621.764 263.466 621.764 264.643C621.764 265.821 623.606 266.775 625.879 266.775Z" fill="#1C5048"/>
<path d="M637.384 272.736C639.657 272.736 641.5 271.781 641.5 270.604C641.5 269.426 639.657 268.471 637.384 268.471C635.111 268.471 633.269 269.426 633.269 270.604C633.269 271.781 635.111 272.736 637.384 272.736Z" fill="#1C5048"/>
<path d="M774.731 263.675C777.004 263.675 778.846 262.721 778.846 261.543C778.846 260.365 777.004 259.411 774.731 259.411C772.458 259.411 770.615 260.365 770.615 261.543C770.615 262.721 772.458 263.675 774.731 263.675Z" fill="#1C5048"/>
<path d="M1646.08 278.201H1427.43C1426.08 278.201 1425 277.629 1425.02 276.928C1425.22 271.935 1425.17 253.633 1414.23 246.72C1413.92 246.526 1414.3 246.248 1414.75 246.331C1419.97 247.28 1435.51 250.544 1439.37 256.342C1439.53 256.573 1440.16 256.561 1440.29 256.325L1446.32 244.678C1446.43 244.456 1447.02 244.427 1447.21 244.633L1453.95 251.788C1454.11 251.958 1454.56 251.977 1454.77 251.822L1467.63 242.309C1467.87 242.13 1468.41 242.189 1468.49 242.403L1474.45 257.93C1474.55 258.189 1475.27 258.199 1475.39 257.942L1486.15 235.691C1486.27 235.444 1486.95 235.44 1487.08 235.685L1496.13 252.57C1496.25 252.795 1496.85 252.818 1497.03 252.605L1507.49 240.455C1507.67 240.245 1508.26 240.264 1508.39 240.485L1516.78 255.022C1516.92 255.265 1517.59 255.256 1517.71 255.009L1522.65 244.334C1522.76 244.101 1523.38 244.075 1523.56 244.296L1537.25 261.217C1537.42 261.42 1537.97 261.42 1538.14 261.218L1556.47 238.791C1556.68 238.531 1557.43 238.625 1557.39 238.906C1556.7 243.231 1555.71 255.123 1564.23 260.572C1564.47 260.724 1564.93 260.687 1565.06 260.503L1574.07 247.584C1574.22 247.358 1574.85 247.369 1574.98 247.6L1582.48 261.2C1582.6 261.412 1583.15 261.448 1583.36 261.256C1586.06 258.788 1597.24 247.683 1591.66 237.706C1591.66 237.706 1606.28 247.655 1606.78 254.984C1606.8 255.254 1607.52 255.313 1607.71 255.06L1613.76 246.746C1613.92 246.522 1614.54 246.536 1614.67 246.767L1622.04 260.381C1622.18 260.643 1622.92 260.613 1622.97 260.342C1623.78 256.529 1628.01 245.818 1650.13 238.103C1650.5 237.972 1650.99 238.162 1650.85 238.386C1648.7 241.84 1639.83 258.017 1648.41 276.663C1648.78 277.448 1647.63 278.201 1646.08 278.201Z" fill="#1C5048"/>
<path d="M1425.03 276.929C1425 277.627 1426.08 278.202 1427.43 278.202H1646.08C1647.63 278.202 1648.78 277.448 1648.41 276.664C1647.44 274.554 1646.69 272.473 1646.14 270.439C1646.12 270.441 1646.1 270.441 1646.08 270.441H1427.43C1426.08 270.441 1425.15 270.404 1425.15 270.404C1425.15 272.14 1425.12 274.623 1425.03 276.929Z" fill="#1C5048"/>
<path d="M1606.21 266.775C1603.94 266.775 1602.1 265.821 1602.1 264.643C1602.1 263.466 1603.94 262.511 1606.21 262.511C1608.49 262.511 1610.33 263.466 1610.33 264.643C1610.33 265.821 1608.49 266.775 1606.21 266.775Z" fill="#1C5048"/>
<path d="M1594.71 272.736C1592.43 272.736 1590.59 271.781 1590.59 270.604C1590.59 269.426 1592.43 268.471 1594.71 268.471C1596.98 268.471 1598.82 269.426 1598.82 270.604C1598.82 271.781 1596.98 272.736 1594.71 272.736Z" fill="#1C5048"/>
<path d="M1457.36 263.675C1455.09 263.675 1453.24 262.721 1453.24 261.543C1453.24 260.365 1455.09 259.411 1457.36 259.411C1459.63 259.411 1461.48 260.365 1461.48 261.543C1461.48 262.721 1459.63 263.675 1457.36 263.675Z" fill="#1C5048"/>
<ellipse cx="283.145" cy="306.481" rx="7.33102" ry="3.39229" fill="#204F48"/>
<ellipse cx="450.066" cy="281.038" rx="7.33102" ry="3.39229" fill="#204F48"/>
<ellipse cx="619.243" cy="306.481" rx="7.33102" ry="3.39229" fill="#204F48"/>
<ellipse cx="941.808" cy="287.822" rx="7.33102" ry="3.39229" fill="#204F48"/>
<ellipse cx="1090.68" cy="306.481" rx="7.33102" ry="3.39229" fill="#204F48"/>
<ellipse cx="1383.93" cy="284.431" rx="7.33102" ry="3.39229" fill="#204F48"/>
</svg>
