<svg width="135" height="595" viewBox="0 0 135 595" fill="none" xmlns="http://www.w3.org/2000/svg">
<path d="M115 450.5C115 479.712 50.529 458.666 -29 458.666C-108.529 458.666 -173 479.712 -173 450.5C-173 421.288 -108.529 442.334 -29 442.334C50.529 442.334 115 421.288 115 450.5Z" fill="black" fill-opacity="0.25"/>
<rect x="72.8165" y="335.643" width="19.203" height="94.0947" rx="2" fill="#30261B"/>
<path d="M77.369 370.847C77.369 368.653 81.9707 367.99 83.8578 366.871C85.0676 366.154 86.3588 364.513 87.8442 362.097C88.9382 360.318 91.7768 361.028 91.7768 363.116V427.621C91.7768 428.726 90.8814 429.621 89.7768 429.621H79.369C78.2644 429.621 77.369 428.726 77.369 427.621V370.847Z" fill="#383026"/>
<path d="M79.9706 29.0843C80.3905 26.9272 83.4769 26.9272 83.8969 29.0843L134.093 286.931C146.993 376.067 17.8835 375.22 29.7748 286.931L79.9706 29.0843Z" fill="#1B5F55"/>
<path d="M76.9837 86.9934C77.4065 84.8406 80.486 84.8406 80.9087 86.9934L121.264 292.488C131.73 364.178 26.981 363.496 36.6286 292.488L76.9837 86.9934Z" fill="#1B6C61"/>
<path d="M100.01 431.3C100.01 438.481 92.177 436.96 82.5147 436.96C72.8524 436.96 65.0195 438.481 65.0195 431.3C65.0195 424.119 72.8524 425.64 82.5147 425.64C92.177 425.64 100.01 424.119 100.01 431.3Z" fill="#1E5C54"/>
<rect x="-161.244" y="135.335" width="238.871" height="287.684" fill="#8997AE"/>
<path d="M1.73485 365.323C76.419 300.498 77.4624 135.644 77.4624 135.644V422.743H-162.203C-162.203 422.743 -57.4703 416.712 1.73485 365.323Z" fill="#7E8FAB"/>
<rect x="-168.86" y="422.743" width="254.644" height="19.9721" rx="2" fill="#4D6685"/>
<path d="M72.8854 434.393C79.9589 432.625 85.7841 422.743 85.7841 422.743V442.715H-168.86C-168.86 442.715 47.9203 440.634 72.8854 434.393Z" fill="#3D5879"/>
<path d="M-36.6161 19.0156L77.6264 136.374H-161.244L-36.6161 19.0156Z" fill="#E9EAEF"/>
<rect x="-161.244" y="142.605" width="238.871" height="17.6557" fill="black" fill-opacity="0.1"/>
<rect x="-161.244" y="134.297" width="238.871" height="17.6557" fill="white"/>
<rect x="-35.0917" y="188.401" width="78.0281" height="8.12793" fill="black" fill-opacity="0.1"/>
<rect x="42.1237" y="243.671" width="55.2699" height="8.12793" transform="rotate(-90 42.1237 243.671)" fill="black" fill-opacity="0.1"/>
<rect x="1.48401" y="243.671" width="55.2699" height="8.12793" transform="rotate(-90 1.48401 243.671)" fill="black" fill-opacity="0.1"/>
<rect x="-35.9044" y="235.543" width="78.0281" height="8.12793" fill="black" fill-opacity="0.1"/>
<rect x="-35.0917" y="196.529" width="36.5757" height="39.0141" fill="black" fill-opacity="0.1"/>
<rect x="9.61194" y="196.529" width="33.3245" height="39.0141" fill="black" fill-opacity="0.1"/>
<rect x="9.61194" y="196.529" width="33.3245" height="39.0141" fill="black" fill-opacity="0.1"/>
<path d="M34.6056 196.529H42.9363V235.543H20.8748L34.6056 196.529Z" fill="black" fill-opacity="0.1"/>
<rect x="-37.5883" y="185.904" width="78.0281" height="8.12793" fill="white"/>
<rect x="39.6272" y="241.174" width="55.2699" height="8.12793" transform="rotate(-90 39.6272 241.174)" fill="white"/>
<rect x="-1.01257" y="241.174" width="55.2699" height="8.12793" transform="rotate(-90 -1.01257 241.174)" fill="white"/>
<rect x="-38.401" y="233.046" width="78.0281" height="8.12793" fill="white"/>
<rect x="7.11523" y="194.032" width="33.3245" height="39.0141" fill="#97CAFF"/>
<rect x="7.11523" y="194.032" width="33.3245" height="39.0141" fill="#97CAFF"/>
<path d="M32.1091 194.032H40.4399V233.046H18.3783L32.1091 194.032Z" fill="#A7D2FF"/>
<path d="M104.469 141.319C105.252 140.54 105.256 139.274 104.477 138.491L-31.7811 1.42139C-32.561 0.636879 -33.8296 0.634435 -34.6125 1.41594L-45.6988 12.4827L91.956 150.938C92.7348 151.722 94.001 151.725 94.7843 150.947L104.469 141.319Z" fill="#4D6685"/>
<rect x="-49.8704" y="240.948" width="101.78" height="9.34712" fill="#4D6685"/>
<rect x="-49.8702" y="245.109" width="101.78" height="9.34712" fill="#4D6685" fill-opacity="0.2"/>
<rect x="-22.3979" y="90.7075" width="34.119" height="11.6504" rx="5.82519" fill="#D5D8E2"/>
<rect x="-1.59375" y="106.518" width="34.119" height="11.6504" rx="5.82519" fill="#D5D8E2"/>
<path d="M-23.5563 40.0843C-23.1364 37.9272 -20.0499 37.9272 -19.63 40.0843L51.7245 406.62C69.8577 531.916 -111.626 530.725 -94.9108 406.62L-23.5563 40.0843Z" fill="#1B5F55"/>
<path d="M-17.2062 118.148C-16.7846 115.994 -13.7022 115.994 -13.2806 118.148L45.9733 421C61.1136 525.092 -90.4164 524.103 -76.4601 421L-17.2062 118.148Z" fill="#1F7266"/>
</svg>
