<svg width="337" height="120%" viewBox="0 0 337 788" fill="none" xmlns="http://www.w3.org/2000/svg">
<path d="M120.849 273.866L112.613 295.935L134.21 286.531L185.918 264.015L105.091 447.831L95.7824 469.001L117.583 461.283L156.182 447.617L51.6076 733.763L46.6985 747.196L61.0001 747.196L76.5586 747.196L83.2014 747.196L85.7765 741.072L243.192 366.763L252.165 345.427L230.479 353.517L201.276 364.411L288.097 172.8L296.974 153.211L276.274 159.049L231.547 171.664L280.243 53.6979L285.947 39.8822L271 39.8822L215.109 39.8822L208.167 39.8822L205.74 46.3859L120.849 273.866Z" fill="#F2DA5B" stroke="black" stroke-width="20"/>
</svg>
