<svg width="120" height="162" viewBox="0 0 259 162" fill="none" xmlns="http://www.w3.org/2000/svg">
<path d="M80.7371 33.672C79.5051 33.672 78.4785 33.616 77.6571 33.504C76.5931 33.3547 75.6318 33.084 74.7731 32.692C74.6611 32.636 74.4931 32.552 74.2691 32.44C74.0638 32.3093 73.8865 32.188 73.7371 32.076C73.1211 31.5533 72.6171 30.9653 72.2251 30.312C71.9078 29.976 71.6185 29.5093 71.3571 28.912C70.8531 27.6053 70.6011 26.0467 70.6011 24.236C70.6011 22.108 71.0398 20.2413 71.9171 18.636C72.6825 17.1053 73.6998 15.9107 74.9691 15.052C76.2571 14.1747 77.7131 13.68 79.3371 13.568L79.6731 13.54H80.0371C81.4931 13.54 83.0611 13.8387 84.7411 14.436C84.8905 14.5107 85.2171 14.66 85.7211 14.884C86.2251 15.108 86.6918 15.36 87.1211 15.64L86.6171 19.28L84.9651 18.86C84.3678 18.7107 83.8078 18.636 83.2851 18.636C82.2398 18.636 81.4558 19.028 80.9331 19.812C80.3731 20.6333 80.0931 21.968 80.0931 23.816C80.0931 24.4133 80.1211 24.8333 80.1771 25.076C80.2518 26.252 80.5131 27.12 80.9611 27.68C81.3905 28.1653 81.9038 28.408 82.5011 28.408C83.0611 28.408 83.6865 28.2307 84.3771 27.876C84.9745 27.596 85.6278 27.2133 86.3371 26.728L86.6171 31.32C85.8891 31.992 84.9558 32.5613 83.8171 33.028C82.7345 33.4573 81.7078 33.672 80.7371 33.672ZM102.235 33.952C102.16 33.952 102.095 33.9427 102.039 33.924C101.759 33.756 101.526 33.5693 101.339 33.364C101.283 33.2707 101.246 33.224 101.227 33.224C101.208 33.1867 101.18 33.168 101.143 33.168L101.087 33.14C101.012 33.0653 100.975 33.028 100.975 33.028L98.595 29.5C98.483 29.2573 98.3243 28.996 98.119 28.716C97.9883 28.5853 97.8763 28.4453 97.783 28.296C97.7083 28.184 97.6337 28.128 97.559 28.128C97.503 28.128 97.4563 28.156 97.419 28.212C97.4003 28.268 97.3817 28.3427 97.363 28.436C97.307 28.94 97.279 29.6213 97.279 30.48C97.279 31.3013 97.2323 31.964 97.139 32.468C97.083 32.7107 96.999 32.832 96.887 32.832H96.719C96.6817 32.8133 96.6443 32.804 96.607 32.804C96.5883 32.7853 96.579 32.776 96.579 32.776C95.9257 32.832 94.9457 32.8973 93.639 32.972C92.3697 33.0467 91.399 33.084 90.727 33.084C90.5403 33.084 90.391 33.0653 90.279 33.028H89.663H89.159H88.907L87.899 32.692L87.815 32.468C87.815 32.4493 87.8057 32.412 87.787 32.356C87.787 32.3 87.787 32.2253 87.787 32.132C87.787 32.02 87.7683 31.8147 87.731 31.516C87.6377 30.3773 87.6003 29.9293 87.619 30.172C87.5817 29.6867 87.5163 28.8467 87.423 27.652L87.339 26.616C87.339 26.28 87.3297 25.9813 87.311 25.72C87.2923 25.4587 87.2737 25.2347 87.255 25.048L87.199 24.432C87.143 23.6667 87.115 22.948 87.115 22.276C87.115 22.2573 87.115 22.2293 87.115 22.192C87.1337 22.1547 87.143 22.08 87.143 21.968C87.1803 21.856 87.199 21.6787 87.199 21.436L87.227 20.932L87.255 20.596C87.255 20.204 87.2363 19.6347 87.199 18.888C87.1243 18.4213 87.087 17.824 87.087 17.096C87.087 16.0507 87.1523 15.2853 87.283 14.8C87.451 14.128 87.731 13.792 88.123 13.792C90.2323 13.792 92.379 13.82 94.563 13.876C95.0483 13.876 95.7763 13.8947 96.747 13.932L97.839 13.96C99.3323 13.9973 100.368 14.016 100.947 14.016C103.355 14.128 105.175 14.7347 106.407 15.836C106.967 16.3027 107.378 16.8627 107.639 17.516C107.919 18.1693 108.059 18.8693 108.059 19.616C108.059 20.4747 107.9 21.268 107.583 21.996C107.322 22.5747 106.948 23.1067 106.463 23.592C105.996 24.0587 105.464 24.432 104.867 24.712C104.979 24.768 105.128 24.8893 105.315 25.076C105.39 25.1693 105.52 25.2907 105.707 25.44L106.099 25.72C106.155 25.8133 106.22 25.9067 106.295 26C106.37 26.0747 106.444 26.1587 106.519 26.252L107.835 27.876C108.432 28.6413 108.815 29.2013 108.983 29.556C109.114 29.7987 109.179 29.9853 109.179 30.116C109.179 30.3027 109.104 30.4707 108.955 30.62C108.806 30.7693 108.582 30.956 108.283 31.18C108.059 31.348 107.798 31.5067 107.499 31.656C107.219 31.8053 107.004 31.9453 106.855 32.076L105.819 32.636C105.446 32.8413 105.044 33.0187 104.615 33.168C104.596 33.168 104.568 33.1773 104.531 33.196C104.512 33.2147 104.475 33.2333 104.419 33.252C104.307 33.308 103.999 33.4107 103.495 33.56C103.402 33.616 103.243 33.6627 103.019 33.7C102.963 33.7373 102.898 33.7653 102.823 33.784C102.748 33.8027 102.692 33.812 102.655 33.812H102.515C102.496 33.9053 102.459 33.952 102.403 33.952H102.319H102.235ZM97.643 24.068C98.2217 24.068 98.679 23.7787 99.015 23.2C99.3323 22.6773 99.5097 22.08 99.547 21.408C99.5843 21.016 99.603 20.5493 99.603 20.008V19.7C99.603 19.2707 99.5283 18.8227 99.379 18.356C99.2297 17.7587 98.9217 17.3293 98.455 17.068C98.2497 16.9 97.979 16.816 97.643 16.816C97.5497 16.816 97.475 16.928 97.419 17.152C97.251 17.5627 97.1577 18.216 97.139 19.112C97.0643 19.4853 97.027 19.924 97.027 20.428L96.999 21.268C96.9617 22.3507 96.943 23.2467 96.943 23.956C96.943 23.9747 96.9523 23.9933 96.971 24.012C96.9897 24.0307 97.0083 24.04 97.027 24.04L97.223 24.068H97.643ZM120.044 35.492C120.044 35.492 120.026 35.492 119.988 35.492C119.97 35.492 119.951 35.5013 119.932 35.52L119.848 35.548C119.792 35.548 119.764 35.5293 119.764 35.492C119.69 35.4547 119.643 35.3987 119.624 35.324C118.971 35.212 118.551 35.1187 118.364 35.044L117.384 34.764H117.244C117.151 34.764 117.076 34.7453 117.02 34.708C116.852 34.708 116.712 34.6893 116.6 34.652C116.451 34.6333 116.208 34.568 115.872 34.456C115.536 34.344 115.294 34.26 115.144 34.204C114.846 34.1107 114.416 33.952 113.856 33.728C113.595 33.616 113.399 33.5413 113.268 33.504L112.624 33.112C112.475 33 112.4 32.888 112.4 32.776C112.4 32.4213 112.484 32.048 112.652 31.656C112.708 31.5253 112.783 31.3667 112.876 31.18C112.988 30.9933 113.091 30.7787 113.184 30.536C113.222 30.424 113.324 30.256 113.492 30.032C113.94 29.2853 114.183 28.8747 114.22 28.8C114.295 28.5947 114.332 28.408 114.332 28.24C114.332 27.96 114.183 27.6707 113.884 27.372C113.604 27.092 113.464 26.8213 113.464 26.56C113.371 26.56 113.324 26.5693 113.324 26.588H113.268H113.24C113.203 26.5507 113.184 26.5133 113.184 26.476C112.587 25.7293 111.98 24.824 111.364 23.76C110.58 22.528 109.946 21.408 109.46 20.4C109.311 20.176 109.134 19.7747 108.928 19.196C108.686 18.692 108.48 18.1787 108.312 17.656C108.107 17.0773 108.004 16.704 108.004 16.536C108.004 16.3493 108.21 16.1067 108.62 15.808C108.788 15.696 108.984 15.584 109.208 15.472C109.432 15.36 109.6 15.276 109.712 15.22C109.806 15.2013 110.198 15.0987 110.888 14.912L111.28 14.772C111.355 14.716 111.439 14.688 111.532 14.688C111.644 14.688 111.822 14.6507 112.064 14.576C112.606 14.464 112.923 14.3893 113.016 14.352L114.024 14.128C114.584 13.9413 114.911 13.8387 115.004 13.82L115.06 13.792H115.144H115.2C115.592 13.792 115.854 13.8853 115.984 14.072C116.096 14.184 116.283 14.4453 116.544 14.856C116.582 14.968 116.647 15.0987 116.74 15.248C116.852 15.3973 116.927 15.4907 116.964 15.528L117.188 15.836L117.384 16.06C117.459 16.1533 117.534 16.2653 117.608 16.396C117.683 16.5267 117.767 16.6667 117.86 16.816C118.346 17.6747 118.719 18.2813 118.98 18.636C119.148 18.8787 119.288 19 119.4 19C119.456 19 119.55 18.8973 119.68 18.692C119.848 18.4307 120.156 17.8333 120.604 16.9C120.847 16.3027 121.136 15.6213 121.472 14.856C121.64 14.52 121.734 14.3147 121.752 14.24C121.827 13.904 121.911 13.6893 122.004 13.596C122.098 13.4467 122.266 13.372 122.508 13.372C123.106 13.372 123.89 13.4933 124.86 13.736C125.812 14.016 126.727 14.38 127.604 14.828C128.5 15.3133 129.107 15.7613 129.424 16.172C129.424 16.676 129.303 17.1427 129.06 17.572L126.484 23.256L123.964 28.968L123.852 28.996C123.834 28.996 123.806 29.0147 123.768 29.052C122.536 31.46 121.407 33.6253 120.38 35.548C120.343 35.6227 120.231 35.66 120.044 35.66V35.492ZM129.882 32.972C129.564 32.972 129.359 32.7667 129.266 32.356C129.172 32.1507 129.126 31.7773 129.126 31.236C129.126 29.612 129.107 28.1653 129.07 26.896C129.014 25.0667 128.986 23.1347 128.986 21.1V14.94C128.986 14.772 129.06 14.6133 129.21 14.464C129.378 14.296 129.546 14.212 129.714 14.212L132.934 14.24C133.531 14.2587 134.315 14.268 135.286 14.268C136.686 14.268 137.768 14.2587 138.534 14.24L139.57 14.212C140.69 14.1747 141.614 14.156 142.342 14.156C143.518 14.156 144.638 14.324 145.702 14.66C146.952 15.0333 147.97 15.6773 148.754 16.592C149.631 17.5813 150.07 18.916 150.07 20.596C150.07 23.4333 149.351 25.4867 147.914 26.756C146.644 27.9507 144.75 28.548 142.23 28.548H138.394C138.412 28.9773 138.422 29.4347 138.422 29.92C138.422 30.088 138.412 30.2933 138.394 30.536C138.394 30.76 138.394 31.068 138.394 31.46C138.394 32.076 138.263 32.468 138.002 32.636C137.796 32.804 137.414 32.888 136.854 32.888C136.032 32.888 135.463 32.8973 135.146 32.916C133.858 32.916 132.831 32.9347 132.066 32.972H129.882ZM139.906 25.188C140.298 25.188 140.587 24.8147 140.774 24.068C140.923 23.564 141.035 22.8173 141.11 21.828C141.147 21.2867 141.166 20.68 141.166 20.008V19.7C141.166 19.4013 141.119 18.9533 141.026 18.356C140.951 18.02 140.867 17.7587 140.774 17.572C140.68 17.3667 140.559 17.1987 140.41 17.068C140.26 16.9 140.092 16.816 139.906 16.816C139.812 16.816 139.728 16.8533 139.654 16.928C139.598 17.0027 139.542 17.096 139.486 17.208C139.28 17.544 139.094 18.2907 138.926 19.448C138.87 19.784 138.823 20.288 138.786 20.96C138.692 21.9867 138.646 23.3587 138.646 25.076C138.646 25.076 138.655 25.0853 138.674 25.104C138.692 25.1227 138.73 25.1413 138.786 25.16L139.122 25.188H139.906ZM154.238 33.028C153.977 33.028 153.781 32.8507 153.65 32.496C153.37 31.88 153.23 30.76 153.23 29.136C153.23 27.568 153.258 25.7667 153.314 23.732C153.333 23.0787 153.342 22.0707 153.342 20.708L153.258 20.596H150.15C149.907 20.596 149.711 20.4653 149.562 20.204C149.431 19.924 149.329 19.5413 149.254 19.056C149.161 18.496 149.114 17.6933 149.114 16.648V16.256C149.114 16.0693 149.123 15.92 149.142 15.808V15.388V15.136C149.142 15.024 149.198 14.9307 149.31 14.856C149.422 14.7627 149.553 14.6973 149.702 14.66C149.889 14.604 150.169 14.576 150.542 14.576H152.67C153.137 14.576 153.491 14.5853 153.734 14.604L154.77 14.632H164.85C165.578 14.632 166.054 14.6413 166.278 14.66C166.371 14.6787 166.502 14.6973 166.67 14.716C166.838 14.7347 166.959 14.772 167.034 14.828C167.165 14.884 167.239 14.9587 167.258 15.052C167.295 15.1267 167.314 15.248 167.314 15.416V20.036C167.314 20.2413 167.23 20.3813 167.062 20.456C166.95 20.4933 166.801 20.512 166.614 20.512H165.718H164.794C164.365 20.512 164.038 20.4933 163.814 20.456H162.974C162.806 20.456 162.713 20.4933 162.694 20.568C162.694 20.5867 162.685 20.6147 162.666 20.652C162.647 20.6707 162.638 20.6987 162.638 20.736V21.156V22.108C162.638 22.388 162.629 22.6027 162.61 22.752C162.61 23.2933 162.573 24.4787 162.498 26.308L162.442 27.148C162.405 27.932 162.367 28.5013 162.33 28.856V31.516C162.33 32.1507 162.199 32.552 161.938 32.72C161.695 32.8133 161.527 32.8693 161.434 32.888L160.734 32.916C160.006 32.916 159.493 32.9347 159.194 32.972L156.254 33C155.881 33.0187 155.209 33.028 154.238 33.028ZM177.748 33.672C175.527 33.672 173.772 33.4947 172.484 33.14C170.692 32.6733 169.33 31.8053 168.396 30.536C167.314 29.024 166.772 26.924 166.772 24.236C166.772 22.3133 166.987 20.68 167.416 19.336C167.846 17.992 168.508 16.8907 169.404 16.032C170.3 15.1733 171.448 14.548 172.848 14.156C174.267 13.7453 175.994 13.54 178.028 13.54C179.615 13.54 181.108 13.7827 182.508 14.268C184.226 14.884 185.56 15.8267 186.512 17.096C187.688 18.608 188.276 20.596 188.276 23.06C188.276 25.9347 187.847 28.1747 186.988 29.78C186.13 31.2547 184.888 32.3 183.264 32.916C181.939 33.42 180.1 33.672 177.748 33.672ZM177.524 30.956C177.748 30.956 177.926 30.816 178.056 30.536C178.336 29.9387 178.532 28.996 178.644 27.708C178.756 26.532 178.812 25.4213 178.812 24.376V23.256V22.556C178.812 21.7347 178.756 20.736 178.644 19.56C178.532 18.2907 178.336 17.3293 178.056 16.676C177.907 16.3587 177.73 16.2 177.524 16.2C177.114 16.2 176.815 16.592 176.628 17.376C176.442 18.4587 176.348 19.4387 176.348 20.316C176.292 21.0627 176.264 22.2293 176.264 23.816C176.264 24.88 176.292 25.7573 176.348 26.448C176.348 27.3253 176.442 28.3427 176.628 29.5C176.815 30.4707 177.114 30.956 177.524 30.956Z" fill="white"/>
<path d="M18.9983 73.945C18.375 73.945 17.9717 73.5417 17.7883 72.735C17.605 72.3317 17.5133 71.5983 17.5133 70.535C17.5133 67.345 17.4767 64.5033 17.4033 62.01C17.2933 58.4167 17.2383 54.6217 17.2383 50.625V38.525C17.2383 38.195 17.385 37.8833 17.6783 37.59C18.0083 37.26 18.3383 37.095 18.6683 37.095L24.9933 37.15C26.1667 37.1867 27.7067 37.205 29.6133 37.205C32.3633 37.205 34.49 37.1867 35.9933 37.15L38.0283 37.095C40.2283 37.0217 42.0433 36.985 43.4733 36.985C45.7833 36.985 47.9833 37.315 50.0733 37.975C52.53 38.7083 54.5283 39.9733 56.0683 41.77C57.7917 43.7133 58.6533 46.335 58.6533 49.635C58.6533 55.2083 57.2417 59.2417 54.4183 61.735C51.925 64.0817 48.2033 65.255 43.2533 65.255H35.7183C35.755 66.0983 35.7733 66.9967 35.7733 67.95C35.7733 68.28 35.755 68.6833 35.7183 69.16C35.7183 69.6 35.7183 70.205 35.7183 70.975C35.7183 72.185 35.4617 72.955 34.9483 73.285C34.545 73.615 33.7933 73.78 32.6933 73.78C31.08 73.78 29.9617 73.7983 29.3383 73.835C26.8083 73.835 24.7917 73.8717 23.2883 73.945H18.9983ZM38.6883 58.655C39.4583 58.655 40.0267 57.9217 40.3933 56.455C40.6867 55.465 40.9067 53.9983 41.0533 52.055C41.1267 50.9917 41.1633 49.8 41.1633 48.48V47.875C41.1633 47.2883 41.0717 46.4083 40.8883 45.235C40.7417 44.575 40.5767 44.0617 40.3933 43.695C40.21 43.2917 39.9717 42.9617 39.6783 42.705C39.385 42.375 39.055 42.21 38.6883 42.21C38.505 42.21 38.34 42.2833 38.1933 42.43C38.0833 42.5767 37.9733 42.76 37.8633 42.98C37.46 43.64 37.0933 45.1067 36.7633 47.38C36.6533 48.04 36.5617 49.03 36.4883 50.35C36.305 52.3667 36.2133 55.0617 36.2133 58.435C36.2133 58.435 36.2317 58.4533 36.2683 58.49C36.305 58.5267 36.3783 58.5633 36.4883 58.6L37.1483 58.655H38.6883ZM75.751 74C71.9744 74 69.2244 73.9817 67.501 73.945C65.9244 73.945 64.7144 73.9267 63.871 73.89L59.361 73.835C59.031 73.835 58.7194 73.6883 58.426 73.395C58.1327 73.1017 57.986 72.79 57.986 72.46V60.36V55.08L57.931 50.57C57.931 49.0667 57.9677 47.1783 58.041 44.905C58.041 44.4283 58.096 43.2 58.206 41.22V39.955C58.206 38.9283 58.4077 38.1033 58.811 37.48C58.9944 37.15 59.2877 36.985 59.691 36.985C61.4877 36.985 63.4494 37.0217 65.576 37.095C65.8694 37.1317 66.291 37.15 66.841 37.15C68.051 37.15 68.9494 37.1683 69.536 37.205H72.506C72.6527 37.205 73.0744 37.205 73.771 37.205C74.5044 37.205 75.0727 37.2967 75.476 37.48C76.136 37.8467 76.466 38.69 76.466 40.01L76.411 40.45C76.411 40.56 76.3744 40.835 76.301 41.275C76.191 41.825 76.136 42.2283 76.136 42.485C76.136 42.8883 76.191 43.4017 76.301 44.025C76.3744 44.465 76.411 44.7583 76.411 44.905L76.466 45.235V52.935V56.51V59.92V60.58C76.466 60.8733 76.631 61.0567 76.961 61.13C77.071 61.1667 77.3094 61.185 77.676 61.185H81.691C82.681 61.1483 84.1844 61.13 86.201 61.13C86.6044 61.13 86.9344 61.2583 87.191 61.515C87.4477 61.735 87.576 61.9733 87.576 62.23V72.735V72.845C87.576 73.1383 87.4294 73.3767 87.136 73.56C86.806 73.7067 86.421 73.7983 85.981 73.835C85.5044 73.945 84.7527 74 83.726 74H75.751ZM87.576 74.055C87.0994 74.055 86.7694 73.6883 86.586 72.955C86.5494 72.845 86.531 72.6617 86.531 72.405C86.531 72.0383 86.6044 71.4883 86.751 70.755C86.8244 70.2783 86.8794 69.9117 86.916 69.655C86.9894 69.3617 87.0444 69.1417 87.081 68.995C88.181 63.825 89.2627 59.2783 90.326 55.355L94.176 37.975C94.176 37.9017 94.231 37.7917 94.341 37.645C94.451 37.4983 94.5794 37.4067 94.726 37.37H95.001C95.001 37.4067 95.056 37.425 95.166 37.425C95.606 37.425 96.101 37.37 96.651 37.26C97.201 37.15 97.696 37.095 98.136 37.095C98.9427 37.095 99.6944 37.15 100.391 37.26C100.721 37.26 101.088 37.2783 101.491 37.315C101.894 37.3517 102.316 37.37 102.756 37.37C102.903 37.37 103.068 37.3333 103.251 37.26H104.241H105.506L106.826 37.205C107.083 37.1683 107.394 37.15 107.761 37.15C108.054 37.15 108.201 37.1317 108.201 37.095H109.081H110.951H113.261C115.314 37.095 116.671 37.1317 117.331 37.205C117.441 37.205 117.588 37.2233 117.771 37.26C117.991 37.26 118.119 37.2967 118.156 37.37C118.413 37.37 118.669 37.3517 118.926 37.315C119.183 37.2783 119.421 37.26 119.641 37.26C120.154 37.15 120.649 37.095 121.126 37.095C121.346 37.095 121.566 37.15 121.786 37.26C122.006 37.37 122.244 37.425 122.501 37.425L122.776 37.37H122.941C123.051 37.4433 123.161 37.5533 123.271 37.7C123.418 37.81 123.491 37.9017 123.491 37.975L127.341 55.355C128.514 59.645 129.578 64.1917 130.531 68.995C130.531 69.215 130.604 69.4533 130.751 69.71C130.788 69.9667 130.843 70.315 130.916 70.755C130.989 71.195 131.026 71.5617 131.026 71.855C131.063 72.0017 131.081 72.2033 131.081 72.46C131.081 72.9733 130.971 73.395 130.751 73.725C130.604 73.945 130.384 74.055 130.091 74.055H129.376C128.826 74.055 128.404 74.0367 128.111 74H126.681H125.306H124.206C123.913 74 123.766 73.9817 123.766 73.945H120.301V73.835C120.154 73.7617 119.971 73.725 119.751 73.725C119.751 73.725 119.733 73.7433 119.696 73.78C119.696 73.78 119.678 73.7983 119.641 73.835C119.641 73.9083 119.604 73.945 119.531 73.945H119.366H118.926C118.743 73.8717 118.376 73.835 117.826 73.835C116.726 73.7617 115.864 73.725 115.241 73.725C115.021 73.395 114.783 72.735 114.526 71.745C114.306 70.755 114.068 69.655 113.811 68.445C113.738 67.8583 113.664 67.455 113.591 67.235C112.821 67.3817 111.813 67.455 110.566 67.455H108.861H107.266L106.881 69.215C106.404 71.635 106.019 73.1383 105.726 73.725C105.579 73.725 105.396 73.7617 105.176 73.835C105.103 73.8717 105.029 73.9083 104.956 73.945C104.919 73.945 104.901 73.945 104.901 73.945H104.681C104.461 73.945 104.296 73.9083 104.186 73.835C104.113 73.7617 104.021 73.725 103.911 73.725L101.436 73.835H100.556H99.731C99.5844 73.9083 99.401 73.945 99.181 73.945H98.961H93.901H93.406C93.0027 73.9817 92.1777 74 90.931 74H89.501C89.2077 74.0367 88.786 74.055 88.236 74.055H87.576ZM112.986 60.58C112.729 58.7833 112.601 57.885 112.601 57.885C112.491 57.3717 112.308 56.4 112.051 54.97C111.978 54.6033 111.794 53.6133 111.501 52C111.208 50.24 111.061 49.36 111.061 49.36C110.951 48.6267 110.841 47.985 110.731 47.435L110.676 46.72C110.566 46.5367 110.511 46.3717 110.511 46.225L110.456 45.895C110.419 45.9683 110.401 46.0783 110.401 46.225C110.401 46.3717 110.364 46.4633 110.291 46.5V46.72L110.181 47.435C110.144 47.6917 110.089 47.985 110.016 48.315C109.979 48.6083 109.924 48.9383 109.851 49.305L109.576 50.845C109.173 53.155 108.934 54.4933 108.861 54.86C108.824 55.2633 108.733 55.8683 108.586 56.675C108.513 56.9317 108.439 57.3167 108.366 57.83L107.926 60.36H110.731L111.116 60.25H111.226C111.666 60.25 111.996 60.2867 112.216 60.36C112.363 60.36 112.491 60.3967 112.601 60.47C112.748 60.5067 112.876 60.5433 112.986 60.58ZM138.779 74.165C138.413 74.165 138.101 74.1283 137.844 74.055H136.744H135.864H135.369L132.894 73.45L132.729 73.01C132.693 73.01 132.674 72.8083 132.674 72.405C132.601 71.305 132.564 70.04 132.564 68.61C132.564 67.5833 132.528 66.7583 132.454 66.135C132.454 65.1083 132.436 64.3383 132.399 63.825V61.9C132.216 60.2133 132.106 58.3617 132.069 56.345C132.033 54.3283 132.014 52.3667 132.014 50.46L132.124 44.85C132.161 44.2267 132.179 43.2733 132.179 41.99C132.179 40.7067 132.161 39.7533 132.124 39.13C132.014 38.2867 132.253 37.6633 132.839 37.26C133.206 37.0767 133.848 36.985 134.764 36.985C136.121 36.985 137.863 36.9483 139.989 36.875L141.199 36.765C143.399 36.6183 144.774 36.545 145.324 36.545C145.838 36.545 146.204 36.5633 146.424 36.6C146.938 36.6367 147.286 36.71 147.469 36.82C147.653 36.93 147.818 37.1133 147.964 37.37C148.148 37.6267 148.276 37.8283 148.349 37.975C148.789 38.5617 149.229 39.185 149.669 39.845C150.329 40.835 150.861 41.605 151.264 42.155L154.894 47.71L156.654 50.35C156.654 49.3967 156.691 48.645 156.764 48.095V42.98L156.929 39.075C156.966 38.7817 157.003 38.58 157.039 38.47C157.076 38.36 157.131 38.2867 157.204 38.25C157.278 38.1767 157.333 38.1217 157.369 38.085C157.809 37.7183 158.249 37.4433 158.689 37.26C159.056 37.1867 159.349 37.15 159.569 37.15H162.704H163.364C163.658 37.1867 164.171 37.205 164.904 37.205C165.711 37.205 166.353 37.2233 166.829 37.26H168.699H170.239H170.899C171.853 37.26 172.494 37.4067 172.824 37.7C173.228 37.9933 173.429 38.635 173.429 39.625L173.374 40.175L173.319 41.055C173.283 41.275 173.264 41.5683 173.264 41.935V42.595V43.035L173.374 43.585V45.345C173.338 45.9683 173.319 47.0317 173.319 48.535V52.605C173.283 53.5583 173.264 54.8967 173.264 56.62V59.81V61.68V70.37L173.044 72.46C172.898 73.3033 172.604 73.8167 172.164 74L171.229 74.055L170.294 74H167.819H164.574H161.219H160.394C159.661 74.0733 158.946 73.9817 158.249 73.725C157.919 73.5783 157.553 73.34 157.149 73.01L151.539 65.145C151.539 65.1083 151.136 64.43 150.329 63.11C150.036 62.67 149.761 62.285 149.504 61.955C149.431 61.8083 149.339 61.6983 149.229 61.625C149.156 61.515 149.101 61.46 149.064 61.46C148.734 61.46 148.569 61.6067 148.569 61.9V63.11C148.533 63.4767 148.514 64.0817 148.514 64.925V67.07V69.16C148.441 69.6 148.404 70.15 148.404 70.81V71.91V72.735L148.459 73.01C148.459 73.3033 148.313 73.4867 148.019 73.56C147.836 73.7067 147.543 73.7433 147.139 73.67C145.893 73.7433 144.903 73.8167 144.169 73.89C143.729 73.9267 142.959 73.9817 141.859 74.055C140.759 74.1283 139.733 74.165 138.779 74.165ZM183.222 74.055C182.709 74.055 182.324 73.7067 182.067 73.01C181.517 71.8 181.242 69.6 181.242 66.41C181.242 63.33 181.297 59.7917 181.407 55.795C181.444 54.5117 181.462 52.5317 181.462 49.855L181.297 49.635H175.192C174.715 49.635 174.33 49.3783 174.037 48.865C173.78 48.315 173.579 47.5633 173.432 46.61C173.249 45.51 173.157 43.9333 173.157 41.88V41.11C173.157 40.7433 173.175 40.45 173.212 40.23V39.405V38.91C173.212 38.69 173.322 38.5067 173.542 38.36C173.762 38.1767 174.019 38.0483 174.312 37.975C174.679 37.865 175.229 37.81 175.962 37.81H180.142C181.059 37.81 181.755 37.8283 182.232 37.865L184.267 37.92H204.067C205.497 37.92 206.432 37.9383 206.872 37.975C207.055 38.0117 207.312 38.0483 207.642 38.085C207.972 38.1217 208.21 38.195 208.357 38.305C208.614 38.415 208.76 38.5617 208.797 38.745C208.87 38.8917 208.907 39.13 208.907 39.46V48.535C208.907 48.9383 208.742 49.2133 208.412 49.36C208.192 49.4333 207.899 49.47 207.532 49.47H205.772H203.957C203.114 49.47 202.472 49.4333 202.032 49.36H200.382C200.052 49.36 199.869 49.4333 199.832 49.58C199.832 49.6167 199.814 49.6717 199.777 49.745C199.74 49.7817 199.722 49.8367 199.722 49.91V50.735V52.605C199.722 53.155 199.704 53.5767 199.667 53.87C199.667 54.9333 199.594 57.2617 199.447 60.855L199.337 62.505C199.264 64.045 199.19 65.1633 199.117 65.86V71.085C199.117 72.3317 198.86 73.12 198.347 73.45C197.87 73.6333 197.54 73.7433 197.357 73.78L195.982 73.835C194.552 73.835 193.544 73.8717 192.957 73.945L187.182 74C186.449 74.0367 185.129 74.055 183.222 74.055ZM223.793 75.32C221.19 75.32 218.568 75.0267 215.928 74.44C213.325 73.8167 211.18 72.9733 209.493 71.91C209.053 70.59 208.723 69.27 208.503 67.95C208.283 66.63 208.008 64.7417 207.678 62.285V62.12C207.751 61.68 207.99 61.35 208.393 61.13C209.786 61.9733 211.125 62.615 212.408 63.055C213.691 63.4583 215.103 63.66 216.643 63.66H217.963L218.843 63.715C219.686 63.715 220.548 63.5867 221.428 63.33C221.905 63.1467 222.235 62.7983 222.418 62.285L219.503 60.855C217.266 59.7917 215.25 58.655 213.453 57.445C211.583 56.0883 210.245 54.365 209.438 52.275C209.035 51.1383 208.833 49.8917 208.833 48.535C208.833 45.235 209.841 42.5767 211.858 40.56C213.618 38.7633 216.001 37.48 219.008 36.71C221.611 36.0867 224.471 35.775 227.588 35.775C229.421 35.775 231.951 35.9767 235.178 36.38C235.508 36.4533 235.966 36.5267 236.553 36.6L238.203 36.93C239.45 37.15 240.366 37.26 240.953 37.26C240.99 37.26 241.045 37.315 241.118 37.425C241.228 37.535 241.32 37.6267 241.393 37.7C241.54 37.9567 241.686 38.085 241.833 38.085H241.888H241.943L242.053 39.24C242.053 39.79 242.108 40.3767 242.218 41C242.328 41.9167 242.383 42.9067 242.383 43.97C242.383 44.8867 242.328 45.5467 242.218 45.95C242.035 46.6833 241.705 47.215 241.228 47.545L236.113 46.885H235.563H234.793C233.546 46.885 232.116 47.0133 230.503 47.27L228.688 47.655C228.248 47.7283 228.028 47.8017 228.028 47.875C228.028 48.755 228.596 49.58 229.733 50.35C230.283 50.6433 230.833 50.9 231.383 51.12C231.933 51.3033 232.281 51.4317 232.428 51.505C235.141 52.275 237.488 53.6133 239.468 55.52C240.385 56.4 241.1 57.335 241.613 58.325C242.126 59.315 242.383 60.2683 242.383 61.185C242.383 61.735 242.31 62.3217 242.163 62.945C241.906 65.695 240.861 68.0783 239.028 70.095C237.231 71.8917 234.976 73.2117 232.263 74.055C229.916 74.8983 227.093 75.32 223.793 75.32Z" fill="url(#paint0_linear)"/>
<path d="M162.32 110.287L105.996 118C105.996 118 101.141 96.4675 105.349 79.4343C109.557 62.4011 145.487 52.1169 155.198 76.2205C164.909 100.324 162.32 110.287 162.32 110.287Z" fill="#172725"/>
<path d="M156.32 110.287L99.9962 118C99.9962 118 95.1407 96.4675 99.3488 79.4343C103.557 62.4011 139.487 52.1169 149.198 76.2205C158.909 100.324 156.32 110.287 156.32 110.287Z" fill="#4B4B4B"/>
<path d="M151.346 110.838L99.7959 118C99.7959 118 95.3519 98.0055 99.2034 82.189C103.055 66.3725 135.94 56.8228 144.828 79.2047C153.716 101.587 151.346 110.838 151.346 110.838Z" fill="#656565"/>
<path d="M114.277 92.1138C114.138 92.126 114.032 92.1213 113.96 92.0995C113.874 92.0789 113.796 92.0717 113.726 92.0778L113.538 92.0942C113.42 92.0343 113.358 91.9694 113.352 91.8997L111.184 86.3977C110.702 85.0626 110.224 83.6148 109.75 82.0541C109.745 81.9983 109.734 81.9432 109.715 81.8886C109.695 81.8201 109.675 81.7516 109.655 81.683C109.572 81.3811 109.524 81.1534 109.511 81C109.496 80.8326 109.5 80.7129 109.521 80.6407C109.551 80.4976 109.636 80.4199 109.775 80.4077L110.193 80.3711C110.362 80.3704 110.593 80.3572 110.886 80.3316L111.513 80.2767L111.808 80.272L113.084 80.1604C113.099 80.1731 113.122 80.1922 113.152 80.2176C113.195 80.2279 113.238 80.2312 113.28 80.2276C113.28 80.2276 113.287 80.227 113.301 80.2257C113.313 80.2106 113.325 80.1884 113.337 80.1593L113.502 80.1238L113.586 80.1164C113.727 80.1182 113.923 80.1081 114.174 80.0861C114.414 80.1072 114.779 80.0964 115.267 80.0537C115.378 80.1986 115.534 80.6205 115.736 81.3196L116.012 82.3073L116.195 82.9449L116.343 83.4378L116.435 83.767C116.605 84.4267 116.76 84.9963 116.901 85.4759C117.011 85.9301 117.166 86.4997 117.367 87.1848L117.436 87.495L117.445 87.5996C117.451 87.6693 117.464 87.7315 117.482 87.786C117.48 87.7581 117.485 87.7366 117.498 87.7215C117.511 87.7063 117.516 87.6848 117.513 87.6569C117.506 87.5732 117.508 87.5168 117.519 87.4877L117.534 87.1702C117.582 86.7584 117.629 86.1711 117.675 85.4082L117.734 84.6441C117.76 84.4591 117.78 84.2818 117.793 84.112C117.807 83.9422 117.821 83.7863 117.837 83.6444C117.84 83.5177 117.846 83.4328 117.857 83.3897C117.867 83.3466 117.871 83.3181 117.87 83.3042C117.896 82.9506 117.939 82.5604 118 82.1334L118.06 81.6222C118.091 81.1698 118.15 80.715 118.236 80.2577C118.262 80.0727 118.304 79.9144 118.363 79.7828C118.642 79.7584 118.933 79.7119 119.236 79.6432L119.571 79.6139L119.716 79.5802L119.758 79.5765L119.78 79.5956C119.798 79.6362 119.814 79.6559 119.828 79.6547C119.925 79.6462 119.973 79.6349 119.972 79.621C119.971 79.607 119.97 79.6 119.97 79.6C119.983 79.5849 119.989 79.5703 119.988 79.5564L121.138 79.4557L121.285 79.4429L122.078 79.3524C122.273 79.3353 122.426 79.315 122.536 79.2912L122.934 79.2565L123.164 79.2363C123.401 79.2156 123.54 79.4353 123.58 79.8956L123.525 80.4696C123.488 80.6976 123.472 80.8256 123.474 80.8535C123.237 82.7995 123.017 84.3084 122.816 85.38L121.637 91.1749C121.639 91.2028 121.621 91.2395 121.583 91.285C121.559 91.3292 121.527 91.3672 121.487 91.3987L121.32 91.4134C121.264 91.4182 121.196 91.4383 121.115 91.4735C121.061 91.5063 120.993 91.5263 120.909 91.5336C120.7 91.552 120.538 91.552 120.424 91.5339C120.227 91.5231 120.058 91.5238 119.918 91.536C119.893 91.5663 119.818 91.587 119.692 91.598C119.499 91.6429 119.11 91.6911 118.524 91.7423L117.876 91.799L117.353 91.8448L117.081 91.8686L116.892 91.8851C116.849 91.8748 116.694 91.8673 116.427 91.8626L115.987 91.901L115.776 91.8984C115.595 91.9142 115.338 91.9508 115.006 92.0079C114.841 92.0505 114.598 92.0858 114.277 92.1138ZM127.204 91.3412L126.716 91.2997C126.25 91.2702 125.859 91.2201 125.543 91.1493C125.375 91.15 125.224 91.114 125.091 91.0413C124.976 91.0092 124.901 90.9595 124.867 90.8922L124.18 88.3384L124.171 88.2338C124.162 88.1362 124.163 88.0658 124.174 88.0228C124.197 87.9645 124.242 87.9254 124.311 87.9053C125.248 88.1747 126.156 88.2709 127.034 88.1941C127.313 88.1697 127.53 88.1577 127.685 88.1583C128.215 88.1119 128.592 88.0086 128.817 87.8484C128.935 87.7537 128.988 87.6297 128.974 87.4763C128.955 87.2531 128.869 87.0779 128.717 86.9507C128.565 86.8094 128.351 86.6946 128.076 86.6063L127.385 86.4138C127.186 86.389 126.956 86.3318 126.695 86.2422C126.694 86.2283 126.686 86.2219 126.672 86.2231C126.657 86.2104 126.641 86.1907 126.625 86.164C126.568 86.155 126.443 86.0956 126.251 85.986L126.12 85.9342C126.148 85.9317 126.161 85.9235 126.16 85.9096C126.159 85.8956 126.137 85.8835 126.094 85.8732C126.049 85.849 125.962 85.8145 125.832 85.7697C125.714 85.7097 125.61 85.6415 125.519 85.5652C125.387 85.5064 125.317 85.4282 125.308 85.3306L125.299 85.226C124.951 85.2565 124.619 84.9201 124.304 84.2169C124.031 83.496 123.88 82.9822 123.853 82.6753C123.74 81.3783 124.211 80.3323 125.265 79.5373C126.122 78.8862 127.336 78.3935 128.909 78.0591C129.932 77.8572 131.21 77.6892 132.744 77.555C132.945 77.6076 133.102 77.636 133.215 77.6402C133.467 77.6322 133.642 77.7013 133.739 77.8473C133.787 77.9134 133.834 78.0498 133.88 78.2566C133.942 78.4761 134.04 79.1209 134.176 80.1912C134.206 80.2166 134.224 80.2573 134.229 80.313C134.239 80.4246 134.093 80.5287 133.793 80.6253C133.461 80.6964 133.247 80.7362 133.149 80.7448L132.674 80.8496C132.136 80.9669 131.785 81.0469 131.62 81.0894C131.056 81.2371 130.674 81.4462 130.473 81.7167C130.348 81.8963 130.294 82.0767 130.31 82.258C130.318 82.3557 130.339 82.4312 130.372 82.4845C130.404 82.5378 130.48 82.5945 130.597 82.6545C130.729 82.7132 131.107 82.8558 131.731 83.0823C132.397 83.3051 133.07 83.6116 133.751 84.0018C134.328 84.3307 134.762 84.7987 135.054 85.4055C135.203 85.6595 135.296 86.0027 135.334 86.4351C135.368 86.8256 135.348 87.1646 135.275 87.452C134.993 88.4042 134.376 89.2171 133.423 89.8908C132.973 90.2112 132.497 90.4707 131.994 90.6692C131.493 90.8817 131.005 91.0087 130.531 91.0502L127.461 91.382L127.204 91.3412Z" fill="url(#paint1_linear)"/>
<path d="M22.1952 136C18.4552 136 15.7235 135.982 14.0002 135.945C12.3502 135.945 11.1035 135.927 10.2602 135.89L5.86022 135.835C5.49355 135.835 5.16355 135.688 4.87022 135.395C4.54022 135.065 4.37521 134.753 4.37521 134.46V124.285C6.83188 121.975 8.81188 119.958 10.3152 118.235C11.2319 117.392 12.0935 116.493 12.9002 115.54C13.7435 114.587 14.2569 114 14.4402 113.78C15.1735 112.9 15.6135 112.313 15.7602 112.02C16.1269 111.543 16.3102 111.195 16.3102 110.975C16.3102 110.828 16.2185 110.755 16.0352 110.755L5.58521 110.535C4.96188 110.535 4.44855 110.113 4.04522 109.27C3.86188 108.757 3.69688 107.803 3.55021 106.41C3.47688 105.823 3.44021 104.98 3.44021 103.88C3.44021 103.55 3.45855 103.257 3.49522 103C3.49522 102.45 3.51355 102.028 3.55021 101.735C3.55021 101.148 3.58688 100.745 3.66021 100.525V99.975L3.93521 99.7C4.22855 99.4067 4.59522 99.26 5.03522 99.26C5.29188 99.26 5.51188 99.2967 5.69522 99.37L6.30022 99.425C7.62022 99.425 8.97688 99.37 10.3702 99.26C11.6902 99.15 13.0285 99.095 14.3852 99.095C17.8685 99.095 20.4719 99.0583 22.1952 98.985L30.1702 98.93C32.2235 98.93 33.8002 99.04 34.9002 99.26C35.3769 99.4433 35.6886 99.59 35.8352 99.7C35.9452 99.92 36.0002 100.048 36.0002 100.085V108.885C36.0002 109.215 35.8719 109.802 35.6152 110.645C35.3219 111.415 34.7719 112.387 33.9652 113.56C32.3519 116.053 29.1435 119.812 24.3402 124.835C25.9535 124.835 27.1452 124.817 27.9152 124.78H31.1602H34.2952C34.6252 124.78 34.9369 124.908 35.2302 125.165C35.5236 125.385 35.6702 125.623 35.6702 125.88V134.735V134.9C35.6702 135.157 35.5419 135.377 35.2852 135.56C34.9552 135.707 34.5519 135.798 34.0752 135.835C33.6352 135.945 32.8836 136 31.8202 136H22.1952ZM57.7321 137.32C53.3688 137.32 49.9221 136.972 47.3921 136.275C43.8721 135.358 41.1954 133.653 39.3621 131.16C37.2354 128.19 36.1721 124.065 36.1721 118.785C36.1721 115.008 36.5938 111.8 37.4371 109.16C38.2804 106.52 39.5821 104.357 41.3421 102.67C43.1021 100.983 45.3571 99.755 48.1071 98.985C50.8938 98.1783 54.2854 97.775 58.2821 97.775C61.3988 97.775 64.3321 98.2517 67.0821 99.205C70.4554 100.415 73.0771 102.267 74.9471 104.76C77.2571 107.73 78.4121 111.635 78.4121 116.475C78.4121 122.122 77.5688 126.522 75.8821 129.675C74.1954 132.572 71.7571 134.625 68.5671 135.835C65.9638 136.825 62.3521 137.32 57.7321 137.32ZM57.2921 131.985C57.7321 131.985 58.0804 131.71 58.3371 131.16C58.8871 129.987 59.2721 128.135 59.4921 125.605C59.7121 123.295 59.8221 121.113 59.8221 119.06V116.86V115.485C59.8221 113.872 59.7121 111.91 59.4921 109.6C59.2721 107.107 58.8871 105.218 58.3371 103.935C58.0438 103.312 57.6954 103 57.2921 103C56.4854 103 55.8988 103.77 55.5321 105.31C55.1654 107.437 54.9821 109.362 54.9821 111.085C54.8721 112.552 54.8171 114.843 54.8171 117.96C54.8171 120.05 54.8721 121.773 54.9821 123.13C54.9821 124.853 55.1654 126.852 55.5321 129.125C55.8988 131.032 56.4854 131.985 57.2921 131.985ZM84.9777 136.165C84.611 136.165 84.3177 136.128 84.0977 136.055H82.9977H82.0077H81.6227L79.1477 135.45L78.9277 135.01C78.891 135.01 78.8727 134.808 78.8727 134.405C78.8727 133.892 78.8544 133.47 78.8177 133.14L78.7627 130.61C78.726 130.06 78.7077 129.235 78.7077 128.135L78.5977 123.9C78.5977 122.983 78.6344 121.718 78.7077 120.105L78.7627 118.235C78.836 117.062 78.8727 115.137 78.8727 112.46V112.075V111.36C78.7994 111.25 78.7627 111.048 78.7627 110.755L78.7077 110.37C78.7077 109.453 78.7627 108.5 78.8727 107.51C78.946 106.263 78.9827 105.127 78.9827 104.1L78.9277 102.56C78.891 102.157 78.8727 101.68 78.8727 101.13C78.8727 101.093 78.836 101.038 78.7627 100.965C78.726 100.892 78.7077 100.818 78.7077 100.745C78.7077 100.378 78.8544 100.067 79.1477 99.81C79.441 99.5533 79.8077 99.37 80.2477 99.26C80.8344 99.0767 81.586 98.985 82.5027 98.985H91.7977H96.0877C96.1244 98.985 96.1794 99.0217 96.2527 99.095C96.326 99.1683 96.3994 99.2233 96.4727 99.26C96.766 99.5167 97.1327 100.012 97.5727 100.745C97.6827 100.965 97.7927 101.222 97.9027 101.515C98.0494 101.772 98.2327 102.193 98.4527 102.78C98.7094 103.367 99.0577 104.265 99.4977 105.475L100.158 107.18C100.451 107.73 100.781 108.518 101.148 109.545C101.258 109.838 101.368 110.132 101.478 110.425C101.624 110.718 101.753 111.012 101.863 111.305C101.936 111.562 102.009 111.763 102.083 111.91C102.193 112.02 102.248 112.093 102.248 112.13C102.504 112.717 102.779 113.01 103.073 113.01C103.439 113.01 103.733 112.717 103.953 112.13C103.989 112.093 104.026 112.02 104.063 111.91C104.099 111.763 104.191 111.543 104.338 111.25L105.163 109.435L107.363 104.76L108.298 102.78C108.408 102.487 108.481 102.248 108.518 102.065C108.591 101.845 108.664 101.698 108.738 101.625C108.884 101.295 109.233 100.727 109.783 99.92C109.966 99.6267 110.131 99.4067 110.278 99.26C110.388 99.2233 110.461 99.1683 110.498 99.095C110.534 99.0217 110.589 98.985 110.663 98.985H114.953H124.248H125.073H125.623H126.338H127.548C127.621 98.985 127.713 99.26 127.823 99.81L127.988 105.2C128.061 106.74 128.098 109.16 128.098 112.46V115.65C128.098 116.897 128.043 118.29 127.933 119.83C127.823 121.37 127.749 122.36 127.713 122.8L127.603 123.9V125.825C127.639 126.338 127.658 127.108 127.658 128.135C127.658 129.235 127.676 130.06 127.713 130.61C127.713 131.673 127.749 132.407 127.823 132.81V134.405V135.01L127.658 135.45L125.183 136.055H124.798H123.808H122.708C122.451 136.128 122.139 136.165 121.773 136.165C121.113 136.165 120.196 136.128 119.023 136.055L117.648 136C117.391 135.963 117.098 135.927 116.768 135.89C116.438 135.853 116.034 135.835 115.558 135.835L113.413 135.67C113.339 135.67 113.284 135.688 113.248 135.725H112.808C112.624 135.725 112.514 135.523 112.478 135.12C112.258 134.387 112.148 133.14 112.148 131.38C112.148 130.207 112.129 129.29 112.093 128.63L112.038 125.66C112.001 125 111.983 124.047 111.983 122.8C111.983 122.507 111.854 122.36 111.598 122.36C111.451 122.36 111.304 122.543 111.158 122.91L110.553 124.395L110.058 125.77C109.984 125.99 109.911 126.21 109.838 126.43C109.764 126.65 109.673 126.852 109.563 127.035L109.288 127.695C108.958 128.428 108.536 129.253 108.023 130.17C107.473 131.16 106.794 131.948 105.988 132.535C105.548 132.792 105.163 132.92 104.833 132.92H104.008C103.568 132.92 103.201 132.883 102.908 132.81H101.698H100.598C99.131 130.463 97.756 127.897 96.4727 125.11L95.6477 123.075C95.4277 122.598 95.281 122.36 95.2077 122.36C94.951 122.36 94.8227 122.507 94.8227 122.8V125.385C94.8227 127.952 94.786 129.84 94.7127 131.05C94.6394 132.957 94.511 134.277 94.3277 135.01C94.291 135.487 94.181 135.725 93.9977 135.725H93.6127L93.3377 135.67C92.091 135.743 91.101 135.817 90.3677 135.89C89.9277 135.927 89.1577 135.982 88.0577 136.055C86.9577 136.128 85.931 136.165 84.9777 136.165ZM141.883 137.32C139.28 137.32 137.19 137.247 135.613 137.1C134.073 136.99 132.845 136.77 131.928 136.44C130.975 136.037 130.278 135.487 129.838 134.79C129.398 134.093 129.178 133.158 129.178 131.985V130.61C129.215 130.243 129.233 129.693 129.233 128.96C129.27 128.593 129.288 128.043 129.288 127.31C129.325 126.943 129.343 126.558 129.343 126.155C129.343 124.762 129.307 122.672 129.233 119.885L129.178 116.585C128.995 113.982 128.903 110.828 128.903 107.125V105.255V103.55C128.903 102.267 128.958 101.332 129.068 100.745C129.142 100.562 129.178 100.397 129.178 100.25C129.215 100.103 129.233 99.9933 129.233 99.92C129.27 99.26 129.545 98.765 130.058 98.435C130.352 98.325 130.755 98.27 131.268 98.27C131.598 98.27 131.947 98.2517 132.313 98.215C132.717 98.1783 133.138 98.16 133.578 98.16C134.165 98.16 135.082 98.1233 136.328 98.05C136.658 98.0133 137.043 97.9767 137.483 97.94C137.96 97.9033 138.492 97.885 139.078 97.885C140.252 97.8117 141.077 97.775 141.553 97.775C144.56 97.775 148.08 98.0683 152.113 98.655C154.937 98.985 157.137 99.3333 158.713 99.7C161.39 100.36 163.425 101.222 164.818 102.285C166.615 103.825 167.513 105.787 167.513 108.17C167.513 111.25 166.248 113.578 163.718 115.155C163.535 115.265 163.37 115.357 163.223 115.43C163.077 115.467 162.93 115.522 162.783 115.595C162.123 115.778 161.555 116.017 161.078 116.31C161.005 116.347 160.913 116.42 160.803 116.53C160.693 116.603 160.602 116.713 160.528 116.86C160.528 116.86 160.528 116.878 160.528 116.915C160.565 116.915 160.583 116.933 160.583 116.97C160.583 116.97 160.62 117.007 160.693 117.08C163.223 118.107 165.277 119.372 166.853 120.875C168.027 122.195 168.613 123.57 168.613 125C168.613 127.017 167.385 129.052 164.928 131.105C162.508 133.012 159.52 134.46 155.963 135.45C153.323 136.183 150.72 136.697 148.153 136.99C146.21 137.21 144.12 137.32 141.883 137.32ZM148.428 111.635C148.612 111.635 148.813 111.58 149.033 111.47C149.987 111.14 150.885 110.737 151.728 110.26C152.242 110.04 152.737 109.82 153.213 109.6C153.727 109.343 154.075 109.178 154.258 109.105L154.753 108.885L155.193 108.775C155.34 108.775 155.413 108.683 155.413 108.5C155.413 107.877 154.735 107.455 153.378 107.235C152.572 107.052 151.563 106.96 150.353 106.96C149.253 106.96 148.557 107.382 148.263 108.225C148.08 108.665 147.988 109.215 147.988 109.875C147.988 110.535 147.988 110.938 147.988 111.085V111.36C147.988 111.543 148.135 111.635 148.428 111.635ZM147.603 127.53C147.64 127.53 147.658 127.512 147.658 127.475C150.225 126.228 153.14 124.872 156.403 123.405C156.55 123.258 156.642 123.185 156.678 123.185L156.953 123.02C155.413 122.543 153.892 122.232 152.388 122.085C150.482 122.012 148.905 121.975 147.658 121.975C147.255 121.975 147.053 122.232 147.053 122.745V127.145C147.053 127.402 147.2 127.53 147.493 127.53H147.603ZM170.171 136.055C169.914 136.055 169.676 135.963 169.456 135.78C169.236 135.56 169.071 135.285 168.961 134.955C168.814 134.295 168.704 133.562 168.631 132.755C168.594 132.498 168.576 132.15 168.576 131.71V130.995L168.631 124.175C168.631 121.865 168.686 119.592 168.796 117.355V99.975C168.796 99.6083 169.034 99.425 169.511 99.425C172.041 99.425 173.929 99.4067 175.176 99.37H180.676C180.786 99.37 180.877 99.3517 180.951 99.315C181.024 99.2783 181.116 99.26 181.226 99.26C181.702 99.1867 182.362 99.1683 183.206 99.205C183.829 99.205 184.489 99.26 185.186 99.37C185.406 99.5167 185.571 99.5533 185.681 99.48C185.754 99.48 185.901 99.4433 186.121 99.37C186.671 99.37 187.092 99.4067 187.386 99.48C187.716 99.5533 187.972 99.7183 188.156 99.975C188.339 100.305 188.486 100.708 188.596 101.185C188.632 101.552 188.651 102.322 188.651 103.495V114.22V115.045C188.614 115.338 188.596 115.998 188.596 117.025C188.596 118.125 188.559 118.987 188.486 119.61L188.431 122.085C188.394 122.635 188.376 123.332 188.376 124.175L188.321 125.055V128.575C188.321 130.775 188.229 132.645 188.046 134.185C188.046 134.698 187.917 135.212 187.661 135.725C187.001 135.725 186.047 135.762 184.801 135.835C184.214 135.835 183.829 135.872 183.646 135.945H183.096H182.931C182.674 135.945 182.546 135.908 182.546 135.835C182.252 135.762 182.087 135.725 182.051 135.725L181.611 135.945H176.551C176.514 135.982 176.221 136 175.671 136H173.581H171.546L170.171 136.055ZM193.956 136C193.773 136 193.498 135.982 193.131 135.945C192.765 135.872 192.325 135.817 191.811 135.78L190.656 135.505C190.473 135.468 190.326 135.432 190.216 135.395C190.143 135.322 190.125 135.267 190.161 135.23C190.161 134.277 190.106 133.012 189.996 131.435C189.996 130.885 189.978 130.408 189.941 130.005C189.905 129.565 189.868 129.198 189.831 128.905L189.721 126.54C189.721 125.917 189.685 125.128 189.611 124.175L189.556 122.47C189.556 121.077 189.538 119.995 189.501 119.225C189.465 118.455 189.446 116.842 189.446 114.385C189.446 112.075 189.465 109.692 189.501 107.235C189.538 104.778 189.648 102.45 189.831 100.25C189.831 99.8467 190.271 99.5167 191.151 99.26C191.701 99.1867 192.618 99.15 193.901 99.15C196.871 99.15 199.053 99.095 200.446 98.985C204.773 98.9117 208.036 98.875 210.236 98.875H212.656C215.663 98.9483 217.973 99.0583 219.586 99.205C220.173 99.205 220.595 99.9017 220.851 101.295C220.961 101.552 221.09 102.212 221.236 103.275C221.346 103.825 221.493 104.503 221.676 105.31C221.713 105.53 221.713 105.75 221.676 105.97C221.676 106.153 221.676 106.263 221.676 106.3C221.64 106.667 221.438 106.85 221.071 106.85C220.925 106.813 220.705 106.795 220.411 106.795C218.871 106.795 216.983 106.923 214.746 107.18L211.831 107.4C210.621 107.547 209.668 107.638 208.971 107.675C208.861 107.675 208.715 107.895 208.531 108.335C208.385 108.812 208.22 109.912 208.036 111.635L207.926 113.01C207.926 113.487 207.981 113.798 208.091 113.945C208.201 114.055 208.44 114.11 208.806 114.11H213.701C215.131 114.11 216.763 114.202 218.596 114.385H219.256C219.733 114.495 220.026 114.678 220.136 114.935C220.283 115.155 220.375 115.393 220.411 115.65L220.631 120.545V120.71C220.631 121.333 219.971 121.7 218.651 121.81C217.881 121.993 216.415 122.085 214.251 122.085C212.381 122.085 211.171 122.067 210.621 122.03C209.558 122.03 208.916 122.048 208.696 122.085C208.293 122.195 208.036 122.415 207.926 122.745C207.816 123.038 207.761 123.552 207.761 124.285C207.761 124.762 207.725 125.44 207.651 126.32C207.615 126.76 207.596 127.457 207.596 128.41C209.98 128.41 211.74 128.373 212.876 128.3C214.123 128.19 215.883 128.135 218.156 128.135C218.303 128.135 218.45 128.263 218.596 128.52C218.78 128.887 219.073 129.712 219.476 130.995C219.696 131.728 219.916 132.645 220.136 133.745C220.21 134.002 220.246 134.277 220.246 134.57C220.246 135.34 219.88 135.725 219.146 135.725C218.193 135.725 216.91 135.762 215.296 135.835C214.453 135.908 213.133 135.945 211.336 135.945C207.486 135.945 204.59 135.963 202.646 136H193.956ZM237.371 137.32C234.768 137.32 232.146 137.027 229.506 136.44C226.903 135.817 224.758 134.973 223.071 133.91C222.631 132.59 222.301 131.27 222.081 129.95C221.861 128.63 221.586 126.742 221.256 124.285V124.12C221.329 123.68 221.568 123.35 221.971 123.13C223.364 123.973 224.703 124.615 225.986 125.055C227.269 125.458 228.681 125.66 230.221 125.66H231.541L232.421 125.715C233.264 125.715 234.126 125.587 235.006 125.33C235.483 125.147 235.813 124.798 235.996 124.285L233.081 122.855C230.844 121.792 228.828 120.655 227.031 119.445C225.161 118.088 223.823 116.365 223.016 114.275C222.613 113.138 222.411 111.892 222.411 110.535C222.411 107.235 223.419 104.577 225.436 102.56C227.196 100.763 229.579 99.48 232.586 98.71C235.189 98.0867 238.049 97.775 241.166 97.775C242.999 97.775 245.529 97.9767 248.756 98.38C249.086 98.4533 249.544 98.5267 250.131 98.6L251.781 98.93C253.028 99.15 253.944 99.26 254.531 99.26C254.568 99.26 254.623 99.315 254.696 99.425C254.806 99.535 254.898 99.6267 254.971 99.7C255.118 99.9567 255.264 100.085 255.411 100.085H255.466H255.521L255.631 101.24C255.631 101.79 255.686 102.377 255.796 103C255.906 103.917 255.961 104.907 255.961 105.97C255.961 106.887 255.906 107.547 255.796 107.95C255.613 108.683 255.283 109.215 254.806 109.545L249.691 108.885H249.141H248.371C247.124 108.885 245.694 109.013 244.081 109.27L242.266 109.655C241.826 109.728 241.606 109.802 241.606 109.875C241.606 110.755 242.174 111.58 243.311 112.35C243.861 112.643 244.411 112.9 244.961 113.12C245.511 113.303 245.859 113.432 246.006 113.505C248.719 114.275 251.066 115.613 253.046 117.52C253.963 118.4 254.678 119.335 255.191 120.325C255.704 121.315 255.961 122.268 255.961 123.185C255.961 123.735 255.888 124.322 255.741 124.945C255.484 127.695 254.439 130.078 252.606 132.095C250.809 133.892 248.554 135.212 245.841 136.055C243.494 136.898 240.671 137.32 237.371 137.32Z" fill="url(#paint2_linear)"/>
<defs>
<linearGradient id="paint0_linear" x1="129.745" y1="27.7049" x2="129.499" y2="100" gradientUnits="userSpaceOnUse">
<stop stop-color="#29CB6A"/>
<stop offset="0.992908" stop-color="#49DA7B"/>
</linearGradient>
<linearGradient id="paint1_linear" x1="120.878" y1="67.3814" x2="127.676" y2="145.085" gradientUnits="userSpaceOnUse">
<stop stop-color="white"/>
</linearGradient>
<linearGradient id="paint2_linear" x1="129.5" y1="72" x2="129.5" y2="162" gradientUnits="userSpaceOnUse">
<stop stop-color="#CACACA"/>
<stop offset="1" stop-color="#D6D6D6"/>
</linearGradient>
</defs>
</svg>
