<svg width="110" height="97" viewBox="0 0 110 97" fill="none" xmlns="http://www.w3.org/2000/svg">
<path d="M22.258 19.4862C47.5915 14.6113 95.8877 20.1469 86.404 81.2888C37.1683 80.8861 24.8294 65.6782 22.258 19.4862Z" fill="#B9A22B" stroke="black" stroke-width="5"/>
<path d="M22.3729 19.8934C42.9064 16.4182 82.2814 21.5573 75.5128 69.9144C35.4529 68.8327 25.1798 56.5773 22.3729 19.8934Z" fill="#93801F"/>
<path d="M22.1091 19.6619C48.4367 23.7 78.0102 38.1261 86.2552 81.4645C37.0194 81.0618 24.6805 65.8539 22.1091 19.6619Z" fill="#D9C24A" stroke="black" stroke-width="5"/>
<path d="M57.0166 75.8889C29.9357 70.127 26.2865 36.7079 25.9023 24.3198L40.5952 30.6579C35.1214 37.8603 33.969 67.1308 57.0166 75.8889Z" fill="#F2DA5B"/>
<g filter="url(#filter0_f)">
<path d="M43.0005 12.9642C44.7773 10.6942 50.2989 6.51268 58.1714 7.94636C66.0439 9.38004 67.6443 5.22708 72.1122 7.94636C77.7076 11.3518 80.5587 16.4051 74.9824 23" stroke="#D9C24A" stroke-opacity="0.75" stroke-width="2"/>
</g>
<path d="M43.0005 12.9642C44.7773 10.6942 50.2989 6.51268 58.1714 7.94636C66.0439 9.38004 67.6443 5.22708 72.1122 7.94636C77.7076 11.3518 80.5587 16.4051 74.9824 23" stroke="#F2DA5B" stroke-width="2" stroke-linecap="round" stroke-linejoin="round"/>
<path d="M56.5005 8.00001C58.5005 7.66668 62.7005 6.50001 63.5005 4.50001C64.5005 2.00001 66.0005 1.18017e-05 71.0005 2.00001C76.0005 4.00001 71.0005 6.5 76.0005 10.5" stroke="#F2DA5B"/>
<g filter="url(#filter1_f)">
<path d="M64.1164 77.62C61.3225 79.3414 53.2434 81.8822 43.2786 78.2744C33.3138 74.6666 30.3543 78.2783 25.0992 74.3677C18.5181 69.4702 15.8618 63.7307 24.5192 58.8457" stroke="#D9C24A" stroke-opacity="0.75" stroke-width="2"/>
</g>
<path d="M72.5002 81C69.7062 82.7214 58.7747 97.92 46.001 79.5C39.2227 69.7257 30.3544 78.2783 25.0994 74.3677C18.5183 69.4702 15.862 63.7307 24.5194 58.8457" stroke="#F2DA5B" stroke-width="2" stroke-linecap="round" stroke-linejoin="round"/>
<path d="M45.4683 78.6902C42.7901 78.4556 37.0681 78.4192 35.6046 80.1504C33.7753 82.3143 31.3991 83.8494 25.2991 80.4928C19.1991 77.1363 26.2445 76.0933 20.5647 70.7814" stroke="#F2DA5B"/>
<path d="M67.5005 84.5C64.5005 87.5 62.5006 86 61.5006 84.5C60.5006 83 60.4769 81.8469 57.0006 81C53.5243 80.1531 54.9967 84.4604 51.0006 84.5" stroke="#F2DA5B" stroke-linecap="round"/>
<defs>
<filter id="filter0_f" x="38.2129" y="2.00001" width="44.7884" height="25.6457" filterUnits="userSpaceOnUse" color-interpolation-filters="sRGB">
<feFlood flood-opacity="0" result="BackgroundImageFix"/>
<feBlend mode="normal" in="SourceGraphic" in2="BackgroundImageFix" result="shape"/>
<feGaussianBlur stdDeviation="2" result="effect1_foregroundBlur"/>
</filter>
<filter id="filter1_f" x="12.0308" y="53.0576" width="59.0274" height="35.5165" filterUnits="userSpaceOnUse" color-interpolation-filters="sRGB">
<feFlood flood-opacity="0" result="BackgroundImageFix"/>
<feBlend mode="normal" in="SourceGraphic" in2="BackgroundImageFix" result="shape"/>
<feGaussianBlur stdDeviation="2" result="effect1_foregroundBlur"/>
</filter>
</defs>
</svg>
