<svg width="110" height="110" viewBox="0 0 110 110" fill="none" xmlns="http://www.w3.org/2000/svg">
<path d="M64.4375 97.8095L62 78L88 81.0476L82.7188 96.7937C82.7188 96.7937 81.5414 92.0331 80.2812 89.1746C78 84 74.1875 110 74.1875 110C74.1875 110 71.6875 87.3571 69 87C64.4599 86.3967 64.4375 97.8095 64.4375 97.8095Z" fill="#A3EDF2"/>
<path d="M64.5 94.5L62 78L88 81.0476L83 93.5C83 93.5 82.444 88.68 81.0938 86.127C76.5563 77.5477 74.1875 110 74.1875 110C74.1875 110 71.875 85 69.5 85C65.7149 85 64.5 94.5 64.5 94.5Z" fill="#BBFBFF"/>
<path d="M74 101V82L78 82.5L74 101Z" fill="white"/>
<path d="M64.5 91L65 82H66.5L64.5 91Z" fill="white"/>
<path d="M83.5 92L84.5 83H86.5L83.5 92Z" fill="white"/>
<path d="M22.257 18.4862C47.5906 13.6113 95.8868 19.1469 86.4031 80.2888C37.1673 79.8861 24.8284 64.6782 22.257 18.4862Z" fill="#BFEDF0" stroke="black" stroke-width="5"/>
<path d="M22.3724 18.8933C42.9059 15.4182 82.2809 20.5573 75.5123 68.9144C35.4524 67.8327 25.1793 55.5773 22.3724 18.8933Z" fill="#92C9CC"/>
<path d="M22.1081 18.6619C48.4357 22.6999 78.0092 37.126 86.2542 80.4645C37.0184 80.0618 24.6795 64.8539 22.1081 18.6619Z" fill="#D0FCFF" stroke="black" stroke-width="5"/>
<path d="M57.0166 74.8889C29.9357 69.127 26.2865 35.7079 25.9023 23.3198L40.5952 29.6579C35.1214 36.8603 33.969 66.1308 57.0166 74.8889Z" fill="#BFECEF"/>
<path d="M24.7396 88.6564C24.7396 88.6564 20.2123 48.2201 22.7125 43.7201C27.4453 58.0454 30.0324 64.707 34.2122 67.4364L32.2679 74.8537C32.2679 74.8537 30.7407 70.1936 29.2719 67.4364C26.6132 62.4453 24.7396 88.6564 24.7396 88.6564Z" fill="#A3EDF2"/>
<path d="M24.7398 88.6565C24.7398 88.6565 21.7122 49.2201 23.2124 45.7201C24.8791 51.8868 29.3125 64.8201 33.7124 67.2201L32.3043 71.5483C32.3043 71.5483 31.7484 69.666 30.2124 67.2201C25.0512 59.001 24.7398 88.6565 24.7398 88.6565Z" fill="#BBFBFF"/>
<path d="M24.8803 72.8436L24.8806 53.7201C26.3932 57.5613 27.0337 59.7759 27.7126 60.2201L24.8803 72.8436Z" fill="white"/>
</svg>
