<svg width="110" height="96" viewBox="0 0 110 96" fill="none" xmlns="http://www.w3.org/2000/svg">
<path d="M22.258 18.4862C47.5915 13.6113 95.8877 19.1469 86.404 80.2888C37.1683 79.8861 24.8294 64.6782 22.258 18.4862Z" fill="#1B6AB4" stroke="black" stroke-width="5"/>
<path d="M22.3729 18.8934C42.9064 15.4182 82.2814 20.5573 75.5128 68.9144C35.4529 67.8327 25.1798 55.5773 22.3729 18.8934Z" fill="#0B467D"/>
<path d="M22.1091 18.6619C48.4367 22.7 78.0102 37.1261 86.2552 80.4645C37.0194 80.0618 24.6805 64.8539 22.1091 18.6619Z" fill="#297DCB" stroke="black" stroke-width="5"/>
<path d="M57.0166 74.8889C29.9357 69.127 26.2865 35.7079 25.9023 23.3198L40.5952 29.6579C35.1214 36.8603 33.969 66.1308 57.0166 74.8889Z" fill="#3590E4"/>
</svg>
