<svg width="175" height="172" viewBox="0 0 175 172" fill="none" xmlns="http://www.w3.org/2000/svg">
<g filter="url(#filter0_f)">
<path d="M129.298 91.2792C128.692 100.876 129.129 103.493 133.032 112.077C138.365 123.81 131.965 129.143 124.498 131.276C114.981 133.994 106.64 128.233 97.8296 127.543C87.0314 126.697 89.6991 133.266 75 130C65.3994 127.867 66.246 115.903 60.4934 108.344C56.7094 103.372 48.3862 106.274 46 100.5C42.3412 91.6459 48.275 83.5191 47.1594 74.214C46.089 65.2863 36.2979 56.9532 41.9997 50C45.8839 45.2634 54.4697 49.7315 60.4934 48.6161C69.0954 47.0232 73.4232 39.5486 81.9998 41C88.4006 42.0832 92.4662 49.4674 101 58C109.533 66.5326 116.581 60.0633 124.498 66C128.764 69.1997 130.056 79.2815 129.298 91.2792Z" fill="#CB2929" fill-opacity="0.5"/>
</g>
<path d="M111.124 50C114.696 55.2228 115.213 58.5002 111.124 58.9839C108.834 59.2547 106.805 56.0404 108.834 54.5042C110.863 52.9681 111.259 51.2801 111.124 50Z" fill="#CB2929"/>
<path d="M116.918 46C114.536 50.0622 114.191 52.6113 116.918 52.9875C118.444 53.1981 119.797 50.6981 118.444 49.5033C117.091 48.3085 116.827 46.9956 116.918 46Z" fill="#CB5029"/>
<path d="M55.9175 38C53.5362 42.6425 53.1913 45.5558 55.9175 45.9857C57.444 46.2264 58.7967 43.3692 57.444 42.0038C56.0912 40.6383 55.8273 39.1379 55.9175 38Z" fill="#CB2929"/>
<path d="M40.9175 73C38.5362 77.0622 38.1913 79.6113 40.9175 79.9875C42.444 80.1981 43.7967 77.6981 42.444 76.5033C41.0912 75.3085 40.8273 73.9956 40.9175 73Z" fill="#CB5029"/>
<path d="M140.918 108C138.536 112.062 138.191 114.611 140.918 114.987C142.444 115.198 143.797 112.698 142.444 111.503C141.091 110.309 140.827 108.996 140.918 108Z" fill="#CB5029"/>
<path d="M136.918 101C134.536 105.643 134.191 108.556 136.918 108.986C138.444 109.226 139.797 106.369 138.444 105.004C137.091 103.638 136.827 102.138 136.918 101Z" fill="#CB8129"/>
<path d="M90.6031 32C93.5797 36.6425 94.0109 39.5558 90.6031 39.9857C88.6951 40.2264 87.0041 37.3692 88.6951 36.0038C90.386 34.6383 90.7159 33.1379 90.6031 32Z" fill="#CB2929"/>
<path d="M86.9588 30C85.7681 32.3213 85.5956 33.7779 86.9588 33.9928C87.722 34.1132 88.3984 32.6846 87.722 32.0019C87.0456 31.3192 86.9137 30.5689 86.9588 30Z" fill="#CB8129"/>
<path d="M129.298 91.2792C128.692 100.876 129.129 103.493 133.032 112.077C138.365 123.81 131.965 129.143 124.498 131.276C114.981 133.994 106.64 128.233 97.8296 127.543C87.0314 126.697 89.6991 133.266 75 130C65.3994 127.867 66.246 115.903 60.4934 108.344C56.7094 103.372 48.3862 106.274 46 100.5C42.3412 91.6459 48.275 83.5191 47.1594 74.214C46.089 65.2863 36.2979 56.9532 41.9997 50C45.8839 45.2634 54.4697 49.7315 60.4934 48.6161C69.0954 47.0232 73.4232 39.5486 81.9998 41C88.4006 42.0832 92.4662 49.4674 101 58C109.533 66.5326 116.581 60.0633 124.498 66C128.764 69.1997 130.056 79.2815 129.298 91.2792Z" fill="#CB2929"/>
<path d="M125 92.5C124.431 101.498 124.841 103.952 128.5 112C133.5 123 127.5 128 120.5 130C111.578 132.549 103.759 127.147 95.5 126.5C85.3774 125.707 87.2791 129.562 73.4996 126.5C64.4996 124.5 65.8923 115.587 60.4996 108.5C56.9524 103.838 50.2367 101.414 47.9998 96C44.5699 87.6986 49.0457 85.2243 47.9998 76.5C46.9964 68.1297 38.6545 61.5192 43.9996 55C47.6408 50.5591 54.8528 53.5458 60.4996 52.5C68.5635 51.0066 72.4596 45.1392 80.4996 46.5C86.5 47.5156 89.0002 50 96.9999 58C105 66 110.579 64.9339 118 70.5C122 73.5 125.71 81.2512 125 92.5Z" fill="#CB5029"/>
<path d="M121.208 92.6135C120.699 100.718 121.066 102.928 124.346 110.176C128.828 120.084 123.449 124.587 117.174 126.388C109.176 128.684 102.166 123.819 94.7612 123.236C85.6861 122.522 87.3911 125.994 75.0376 123.236C66.969 121.435 68.2175 113.407 63.3829 107.024C60.2028 102.826 54.1821 100.642 52.1767 95.7659C49.1017 88.2891 53.1143 86.0606 52.1767 78.2029C51.2771 70.664 43.7985 64.7102 48.5904 58.8386C51.8548 54.8388 58.3205 57.5289 63.3829 56.5869C70.6123 55.2418 74.1052 49.9573 81.3132 51.1829C86.6926 52.0977 88.9341 54.3353 96.1059 61.5406C103.278 68.7459 108.28 67.7857 114.933 72.7989C118.518 75.5009 121.845 82.4821 121.208 92.6135Z" fill="#CB8129"/>
<path d="M54.258 60.4862C79.5915 55.6113 127.888 61.147 118.404 122.289C69.1683 121.886 56.8294 106.678 54.258 60.4862Z" fill="#AE741C" stroke="black" stroke-width="5"/>
<path d="M54.3729 60.8934C74.9064 57.4183 114.281 62.5573 107.513 110.914C67.4529 109.833 57.1798 97.5773 54.3729 60.8934Z" fill="#8B4918"/>
<path d="M54.1091 60.6619C80.4367 64.7 110.01 79.1261 118.255 122.465C69.0194 122.062 56.6805 106.854 54.1091 60.6619Z" fill="#CB5029" stroke="black" stroke-width="5"/>
<path d="M89.0171 116.889C61.9362 111.127 58.287 77.708 57.9028 65.3199L72.5957 71.658C67.1219 78.8603 65.9695 108.131 89.0171 116.889Z" fill="#E0824D"/>
<defs>
<filter id="filter0_f" x="0.228027" y="0.814102" width="174.772" height="171.186" filterUnits="userSpaceOnUse" color-interpolation-filters="sRGB">
<feFlood flood-opacity="0" result="BackgroundImageFix"/>
<feBlend mode="normal" in="SourceGraphic" in2="BackgroundImageFix" result="shape"/>
<feGaussianBlur stdDeviation="20" result="effect1_foregroundBlur"/>
</filter>
</defs>
</svg>
