<svg width="110" height="96" viewBox="0 0 110 96" fill="none" xmlns="http://www.w3.org/2000/svg">
<path d="M22.2577 18.4862C47.5913 13.6113 95.8875 19.1469 86.4038 80.2888C37.168 79.8861 24.8291 64.6782 22.2577 18.4862Z" fill="#1CAE56" stroke="black" stroke-width="5"/>
<path d="M22.3726 18.8934C42.9062 15.4182 82.2812 20.5573 75.5126 68.9144C35.4527 67.8327 25.1795 55.5773 22.3726 18.8934Z" fill="#188B46"/>
<path d="M22.1088 18.6619C48.4364 22.7 78.0099 37.1261 86.2549 80.4645C37.0191 80.0618 24.6803 64.8539 22.1088 18.6619Z" fill="#29CB6A" stroke="black" stroke-width="5"/>
<path d="M57.0166 74.8889C29.9357 69.127 26.2865 35.7079 25.9023 23.3198L40.5952 29.6579C35.1214 36.8603 33.969 66.1308 57.0166 74.8889Z" fill="#4DE087"/>
</svg>
