<svg width="136" height="78" viewBox="0 0 136 78" fill="none" xmlns="http://www.w3.org/2000/svg">
<path d="M136 24.9467C136 38.7245 136 77.2544 67.9999 77.2544C1.89606e-05 77.2544 -9.15527e-05 38.7245 -9.15527e-05 24.9467C-9.15527e-05 11.169 30.4445 0 67.9999 0C105.555 0 136 11.169 136 24.9467Z" fill="#F57F59"/>
<path d="M131.976 28.8363C131.976 40.3177 131.976 72.4261 75.2425 72.4261C18.5089 72.4261 18.5088 40.3177 18.5088 28.8363C18.5088 17.3549 43.9093 8.04736 75.2425 8.04736C106.576 8.04736 131.976 17.3549 131.976 28.8363Z" fill="#FFA487"/>
<ellipse cx="67.9999" cy="24.9467" rx="68" ry="24.9467" fill="#E76238"/>
<path d="M133.5 24.9467C133.5 31.8503 133.453 44.1436 125.499 54.769C117.641 65.2654 101.548 74.7544 67.9999 74.7544C34.4514 74.7544 18.3587 65.2654 10.5013 54.769C2.54723 44.1436 2.49991 31.8503 2.49991 24.9467C2.49991 22.4961 3.84555 19.8452 6.98176 17.1249C10.1115 14.4103 14.7854 11.8521 20.7777 9.65377C32.7422 5.26441 49.4374 2.5 67.9999 2.5C86.5624 2.5 103.258 5.26441 115.222 9.65377C121.214 11.8521 125.888 14.4103 129.018 17.1249C132.154 19.8452 133.5 22.4961 133.5 24.9467Z" stroke="black" stroke-width="5"/>
<path d="M133.5 24.9467C133.5 27.3974 132.154 30.0483 129.018 32.7686C125.888 35.4832 121.214 38.0414 115.222 40.2397C103.258 44.6291 86.5624 47.3935 67.9999 47.3935C49.4374 47.3935 32.7423 44.6291 20.7777 40.2397C14.7854 38.0414 10.1115 35.4832 6.98176 32.7686C3.84555 30.0483 2.49991 27.3974 2.49991 24.9467C2.49991 22.4961 3.84555 19.8452 6.98176 17.1249C10.1115 14.4103 14.7854 11.8521 20.7777 9.65377C32.7423 5.26441 49.4374 2.5 67.9999 2.5C86.5624 2.5 103.258 5.26441 115.222 9.65377C121.214 11.8521 125.888 14.4103 129.018 17.1249C132.154 19.8452 133.5 22.4961 133.5 24.9467Z" stroke="black" stroke-width="5"/>
</svg>
