<svg width="167" height="211" viewBox="0 0 167 211" fill="none" xmlns="http://www.w3.org/2000/svg">
<rect x="2.27349" y="2.70944" width="21.8917" height="63.7313" rx="10.9459" transform="matrix(0.99616 0.0875474 -0.0867657 0.996229 38.2423 15.8892)" fill="#14342F" stroke="black" stroke-width="5"/>
<rect width="17.602" height="44.9882" rx="8.80101" transform="matrix(0.99616 0.0875474 -0.0867657 0.996229 42.7478 39.7263)" fill="#1C4942"/>
<rect x="2.27349" y="2.70944" width="21.8917" height="63.7313" rx="10.9459" transform="matrix(0.99616 0.0875474 -0.0867657 0.996229 38.2423 15.8892)" stroke="black" stroke-width="5"/>
<rect x="2.48906" y="2.60599" width="21.9519" height="78.8728" rx="10.976" transform="matrix(0.999101 0.0424016 -0.00347626 0.999994 32.0123 93.6829)" fill="#14342F" stroke="black" stroke-width="5"/>
<rect width="17.6414" height="54.8991" rx="8.82072" transform="matrix(0.999101 0.0424016 -0.00347626 0.999994 38.6952 122.316)" fill="#1C4942"/>
<rect x="2.48906" y="2.60599" width="21.9519" height="78.8728" rx="10.976" transform="matrix(0.999101 0.0424016 -0.00347626 0.999994 32.0123 93.6829)" stroke="black" stroke-width="5"/>
<circle cx="45" cy="89.9995" r="17" fill="#E76238"/>
<circle cx="49.5" cy="90.4996" r="8.5" fill="#F57F59"/>
<circle cx="45" cy="89.9995" r="14.5" stroke="black" stroke-width="5"/>
<circle cx="52.2648" cy="18.2648" r="17" fill="#E76238"/>
<circle cx="56.7648" cy="18.7649" r="8.5" fill="#F57F59"/>
<circle cx="52.2648" cy="18.2648" r="14.5" stroke="black" stroke-width="5"/>
<path d="M5.5528 184.882C23.7651 177.292 29.8227 173.439 30.9215 161.102C31.1664 158.352 33.3538 156.104 36.1152 156.109L53.7814 156.138C56.5428 156.142 58.7444 158.396 58.9367 161.152C59.858 174.356 65.1056 174.328 80.7056 185.005L80.7371 208.181L5.58424 208.058L5.5528 184.882Z" fill="#E76238"/>
<path d="M29.9401 180.74C34.1764 178.122 37.0681 174.877 38.1204 170.036C38.6591 167.558 40.4616 165.394 42.9819 165.105L54.4523 163.788C57.4223 163.447 59.9783 165.785 60.1986 168.768C61.048 180.273 65.4328 176.726 80.7086 187.182L80.7371 208.181L31.9399 208.101C30.6344 208.099 29.3514 207.753 28.2204 207.097C17.5749 200.928 19.5011 187.19 29.9401 180.74Z" fill="#F57F59"/>
<path d="M5.5528 184.882C23.7651 177.292 29.8227 173.439 30.9215 161.102C31.1664 158.352 33.3538 156.104 36.1152 156.109L53.7814 156.138C56.5428 156.142 58.7444 158.396 58.9367 161.152C59.858 174.356 65.1056 174.328 80.7056 185.005M5.5528 184.882L5.58424 208.058L80.7371 208.181L80.7056 185.005M5.5528 184.882L80.7056 185.005" stroke="black" stroke-width="5"/>
<rect x="-2.27349" y="2.70944" width="21.8917" height="63.7313" rx="10.9459" transform="matrix(-0.99616 0.0875474 0.0867657 0.996229 126.3 16.2873)" fill="#14342F" stroke="black" stroke-width="5"/>
<rect width="17.602" height="44.9882" rx="8.80101" transform="matrix(-0.99616 0.0875474 0.0867657 0.996229 131.324 39.7263)" fill="#1C4942"/>
<rect x="-2.27349" y="2.70944" width="21.8917" height="63.7313" rx="10.9459" transform="matrix(-0.99616 0.0875474 0.0867657 0.996229 126.3 16.2873)" stroke="black" stroke-width="5"/>
<rect x="-2.48906" y="2.60599" width="21.9519" height="78.8728" rx="10.976" transform="matrix(-0.999101 0.0424016 0.00347626 0.999994 132.086 93.894)" fill="#14342F" stroke="black" stroke-width="5"/>
<rect width="17.6414" height="54.8991" rx="8.82072" transform="matrix(-0.999101 0.0424016 0.00347626 0.999994 135.376 122.316)" fill="#1C4942"/>
<rect x="-2.48906" y="2.60599" width="21.9519" height="78.8728" rx="10.976" transform="matrix(-0.999101 0.0424016 0.00347626 0.999994 132.086 93.894)" stroke="black" stroke-width="5"/>
<circle r="17" transform="matrix(-1 0 0 1 124.072 89.9994)" fill="#E76238"/>
<circle r="8.5" transform="matrix(-1 0 0 1 128.572 90.4995)" fill="#F57F59"/>
<circle r="14.5" transform="matrix(-1 0 0 1 124.072 89.9994)" stroke="black" stroke-width="5"/>
<circle r="17" transform="matrix(-1 0 0 1 116.807 18.2648)" fill="#E76238"/>
<circle r="8.5" transform="matrix(-1 0 0 1 121.307 18.7649)" fill="#F57F59"/>
<circle r="14.5" transform="matrix(-1 0 0 1 116.807 18.2648)" stroke="black" stroke-width="5"/>
<path d="M163.519 184.882C145.306 177.292 139.249 173.439 138.15 161.102C137.905 158.352 135.718 156.104 132.956 156.109L115.29 156.138C112.529 156.142 110.327 158.396 110.135 161.152C109.214 174.356 103.966 174.328 88.3659 185.005L88.3345 208.181L163.487 208.058L163.519 184.882Z" fill="#E76238"/>
<path d="M110.055 180.74C114.291 178.122 117.183 174.877 118.235 170.036C118.774 167.558 120.576 165.394 123.097 165.105L134.567 163.788C137.537 163.447 140.093 165.785 140.313 168.768C141.163 180.273 145.547 176.726 160.823 187.182L160.852 208.181L112.055 208.101C110.749 208.099 109.466 207.753 108.335 207.097C97.6896 200.928 99.6158 187.19 110.055 180.74Z" fill="#F57F59"/>
<path d="M163.519 184.882C145.306 177.292 139.249 173.439 138.15 161.102C137.905 158.352 135.718 156.104 132.956 156.109L115.29 156.138C112.529 156.142 110.327 158.396 110.135 161.152C109.214 174.356 103.966 174.328 88.3659 185.005M163.519 184.882L163.487 208.058L88.3345 208.181L88.3659 185.005M163.519 184.882L88.3659 185.005" stroke="black" stroke-width="5"/>
</svg>
