<svg width="63" height="136" viewBox="0 0 63 136" fill="none" xmlns="http://www.w3.org/2000/svg">
<path d="M22.6855 7.88089C26.8946 4.03099 30.2297 2.5 33.2348 2.5C36.2398 2.5 39.575 4.03099 43.7841 7.88089C48.4252 12.1259 52.3772 20.3396 55.2036 31.0835C58.0024 41.7226 59.5978 54.4538 59.807 67.3093C60.0161 80.1669 58.8369 93.0474 56.1466 103.993C53.4374 115.015 49.2808 123.726 43.8024 128.639C38.5279 133.368 31.4317 134.237 24.7211 132.47C17.9586 130.689 12.0498 126.339 9.34538 121.315C6.14739 115.374 4.04301 106.484 3.08937 95.9878C2.1406 85.5454 2.34951 73.7326 3.62657 62.0964C4.90398 50.4571 7.24205 39.0682 10.5146 29.4618C13.8098 19.7889 17.9587 12.2043 22.6855 7.88089Z" fill="#E76238" stroke="black" stroke-width="5"/>
<path d="M26.1704 18.711C32.9465 12.4297 38.2408 12.4297 45.0169 18.711C60.9982 33.5257 63.6078 98.9568 45.0169 115.851C35.6841 124.333 20.2685 118.583 15.5015 109.608C4.93109 89.7056 10.189 33.5257 26.1704 18.711Z" fill="#F07650"/>
<path d="M22.6855 7.88089C26.8946 4.03099 30.2297 2.5 33.2348 2.5C36.2398 2.5 39.575 4.03099 43.7841 7.88089C48.4252 12.1259 52.3772 20.3396 55.2036 31.0835C58.0024 41.7226 59.5978 54.4538 59.807 67.3093C60.0161 80.1669 58.8369 93.0474 56.1466 103.993C53.4374 115.015 49.2808 123.726 43.8024 128.639C38.5279 133.368 31.4317 134.237 24.7211 132.47C17.9586 130.689 12.0498 126.339 9.34538 121.315C6.14739 115.374 4.04301 106.484 3.08937 95.9878C2.1406 85.5454 2.34951 73.7326 3.62657 62.0964C4.90398 50.4571 7.24205 39.0682 10.5146 29.4618C13.8098 19.7889 17.9587 12.2043 22.6855 7.88089Z" stroke="black" stroke-width="5"/>
</svg>
