<svg width="166" height="57" viewBox="0 0 166 57" fill="none" xmlns="http://www.w3.org/2000/svg">
<rect x="29.9998" y="17.1053" width="39" height="19" rx="8" fill="#F57F59"/>
<rect x="38.9998" y="26.1053" width="22" height="7" rx="3.5" fill="#FC9979"/>
<rect x="32.4998" y="19.6053" width="34" height="14" rx="5.5" stroke="black" stroke-width="5"/>
<circle cx="21.4998" cy="26.5" r="21.5" fill="#F57F59"/>
<circle cx="23.9806" cy="30.6346" r="10.75" fill="#FC9979"/>
<circle cx="21.4998" cy="26.5" r="19" stroke="black" stroke-width="5"/>
<circle cx="69.9998" cy="26.1053" r="13" fill="#F57F59"/>
<circle cx="71.4998" cy="28.6053" r="6.5" fill="#FC9979"/>
<circle cx="69.9998" cy="26.1053" r="10.5" stroke="black" stroke-width="5"/>
<path d="M98.0074 16.2932C99.9103 14.1108 103.162 12.2746 107.239 10.7866C111.272 9.31514 115.889 8.26268 120.293 7.51653C124.688 6.77193 128.816 6.34116 131.849 6.09679C132.97 6.00643 133.94 5.94173 134.715 5.8961V52.3105C133.96 52.3787 132.985 52.4564 131.838 52.525C128.967 52.6966 125.037 52.8103 120.784 52.5825C116.522 52.3542 111.996 51.7858 107.911 50.6184C103.807 49.4453 100.309 47.7126 97.9352 45.2666C92.7665 39.9408 90.8703 35.092 91.0772 30.561C91.2873 25.9609 93.6809 21.2553 98.0074 16.2932Z" fill="#008D79" stroke="black" stroke-width="4"/>
<ellipse cx="135.507" cy="28.9556" rx="14.4666" ry="25.1581" fill="#05564A"/>
<path d="M147.974 28.9556C147.974 35.6172 146.417 41.5499 144.003 45.7481C141.558 50.0005 138.481 52.1137 135.507 52.1137C132.534 52.1137 129.457 50.0005 127.012 45.7481C124.598 41.5499 123.041 35.6172 123.041 28.9556C123.041 22.294 124.598 16.3613 127.012 12.1631C129.457 7.91068 132.534 5.79749 135.507 5.79749C138.481 5.79749 141.558 7.91068 144.003 12.1631C146.417 16.3613 147.974 22.294 147.974 28.9556Z" stroke="black" stroke-width="4"/>
<ellipse cx="136.269" cy="28.9557" rx="6.0912" ry="13.9767" fill="black"/>
<path d="M75.5342 36.3729C73.393 32.6592 72.3936 29.4921 72.3481 26.4051C72.3026 23.3182 73.2079 20.1014 75.2379 16.2789C77.3535 12.2954 82.4615 9.23988 89.5045 7.12078C96.4403 5.03394 104.769 4.00002 112.611 3.68931C120.452 3.37868 127.679 3.79553 132.378 4.54831C133.399 4.71201 134.255 4.88485 134.948 5.05516C126.764 10.6131 123.793 20.4628 123.737 29.3417C123.706 34.1608 124.522 38.8525 125.925 42.6995C127.297 46.4611 129.358 49.757 132.069 51.3198C132.417 51.5203 132.696 51.7004 132.919 51.8582C132.584 51.9591 132.167 52.0592 131.66 52.1511C127.973 52.8199 121.3 52.7652 113.626 51.8283C105.997 50.897 97.5938 49.1202 90.4852 46.4691C83.2693 43.7779 77.8238 40.3442 75.5342 36.3729ZM133.827 51.4707C133.827 51.4708 133.823 51.4743 133.815 51.4809C133.822 51.4739 133.826 51.4706 133.827 51.4707Z" fill="#F57F59" stroke="black" stroke-width="4"/>
<path d="M75.3545 36.9146C72.1867 31.866 72.1276 27.8584 75.1442 22.6485C82.2587 10.361 110.426 14.7073 109.365 18.95C106.088 32.058 111.203 46.2532 117.151 49.3907C128.315 55.2798 82.8257 48.8217 75.3545 36.9146Z" fill="#FC9979"/>
<path d="M75.5341 36.3729C73.393 32.6592 72.3935 29.4921 72.348 26.4051C72.3025 23.3182 73.2079 20.1014 75.2379 16.2789C77.3534 12.2954 82.4615 9.23988 89.5045 7.12078C96.4403 5.03394 104.769 4.00002 112.611 3.68931C120.452 3.37868 127.679 3.79553 132.377 4.54831C133.399 4.71201 134.255 4.88485 134.948 5.05516C126.764 10.6131 123.793 20.4628 123.737 29.3417C123.706 34.1608 124.522 38.8525 125.925 42.6995C127.297 46.4611 129.358 49.757 132.069 51.3198C132.417 51.5203 132.696 51.7004 132.919 51.8582C132.584 51.9591 132.167 52.0592 131.66 52.1511C127.973 52.8199 121.3 52.7652 113.626 51.8283C105.997 50.897 97.5938 49.1202 90.4852 46.4691C83.2693 43.7779 77.8238 40.3442 75.5341 36.3729ZM133.827 51.4707C133.827 51.4708 133.823 51.4743 133.815 51.4809C133.822 51.4739 133.826 51.4706 133.827 51.4707Z" stroke="black" stroke-width="4"/>
</svg>
