<svg width="151" height="91" viewBox="0 0 151 91" fill="none" xmlns="http://www.w3.org/2000/svg">
<path d="M39.4403 4.41162L57.9454 4.13542C88.1472 3.68465 106.462 37.3003 89.7069 62.4325L86.3007 67.5418C78.0987 79.8449 63.4327 86.1796 48.8529 83.7168L33.7539 81.1663C15.7091 78.1182 2.49991 62.4905 2.49991 44.1901V41.9074C2.49991 21.415 18.9501 4.71744 39.4403 4.41162Z" fill="#E76238" stroke="black" stroke-width="5"/>
<path d="M17.4502 42.3527C17.2013 20.3193 34.8184 2.23405 56.8507 1.90521L110.403 1.10592C132.725 0.772754 151 18.7766 151 41.1015V42.4465C151 63.1451 135.209 80.4247 114.594 82.2847L61.1028 87.111C37.8664 89.2075 17.7745 71.0541 17.5109 47.7248L17.4502 42.3527Z" fill="#E76238"/>
<path d="M28.4293 48.7658C28.1919 27.7702 44.9793 10.5368 65.9739 10.2236L111.032 9.55145C131.359 9.24823 148 25.6427 148 45.9719V45.9719C148 64.821 133.62 80.5564 114.847 82.2493L69.9656 86.2965C47.8247 88.293 28.6806 70.9952 28.4293 48.7658V48.7658Z" fill="#F57F59"/>
<path d="M56.888 4.40493L110.44 3.60565C131.368 3.2933 148.5 20.1719 148.5 41.1015V42.4465C148.5 61.8514 133.696 78.0511 114.37 79.7948L60.8781 84.6211C39.094 86.5866 20.2579 69.5677 20.0108 47.6965L19.9501 42.3245C19.7167 21.6682 36.2327 4.71322 56.888 4.40493Z" stroke="black" stroke-width="5"/>
</svg>
