<svg width="64" height="174" viewBox="0 0 64 174" fill="none" xmlns="http://www.w3.org/2000/svg">
<path d="M45.5856 124.496C67.3365 136.81 61.0517 162.913 56.5861 171C50.9195 163.888 32.1863 152.398 2.58627 163.34C4.16203 156.995 -0.0507431 126.724 26.0861 122.854C34.5859 100.97 29.5859 53.9183 17.5857 6.86671C19.9191 3.94878 26.6858 -0.136307 35.0857 6.86671C45.169 48.2388 47.6323 65.0302 45.5856 124.496Z" fill="#1C8AF0" stroke="black" stroke-width="5" stroke-linejoin="round"/>
<path d="M28.614 128.288C16.9799 128.385 10.6855 137.943 9.55406 145.487C9.29146 147.237 11.3934 147.812 12.7736 146.703C21.8124 139.443 34.4002 147.688 37.0859 135.438C42.037 112.854 41.0859 95.134 41.0859 75.2556C41.0859 70.8787 38.086 70.8787 37.5859 74.7085C37.5859 74.7085 36.2137 119.256 31.0858 127.274C30.5682 128.083 29.5746 128.28 28.614 128.288Z" fill="white" fill-opacity="0.2"/>
</svg>
