<svg width="71" height="157" viewBox="0 0 71 157" fill="none" xmlns="http://www.w3.org/2000/svg">
<path d="M4 15.5L26.3916 3H42.5L63.5843 19L50.6807 35.5L61.3072 57L50.6807 79L61.3072 96.5L53.7169 118L67 132L48.4036 154H26.3916L10.4518 148.5L22.2169 120.5L7.41566 109.5L18.0422 79L4 60.5L18.0422 35.5L4 15.5Z" fill="#1C8AF0" stroke="black" stroke-width="5"/>
<path d="M6 16C14.3333 21.5 35.3 30.3 52.5 21.5" stroke="black" stroke-width="3" stroke-linecap="round"/>
<path d="M6 60C14.3333 65.5 36.3 68.8 53.5 60" stroke="black" stroke-width="3" stroke-linecap="round"/>
<path d="M10 109C18.3333 114.5 44 112.5 54 99.5" stroke="black" stroke-width="3" stroke-linecap="round"/>
<path d="M15.8106 139.801C23.6971 145.925 47.5314 146.194 58.5 134" stroke="black" stroke-width="3" stroke-linecap="round"/>
<path d="M11.2304 58.2551L22.8695 38.2793C28.2026 45.3289 40.8825 58.8244 48.9378 56.4093C35.7842 65.7358 18.3189 61.5259 11.2304 58.2551Z" fill="white" fill-opacity="0.2"/>
<path d="M14.0601 106.091L21.4438 84.1823C28.0857 90.0153 43.2208 100.685 50.6257 96.699C39.6167 108.48 21.6615 107.869 14.0601 106.091Z" fill="white" fill-opacity="0.2"/>
<path d="M20.5037 139.497L28.1374 121.153C33.4849 126.549 45.8264 136.597 52.4122 133.62C42.2727 143.066 26.9151 141.474 20.5037 139.497Z" fill="white" fill-opacity="0.2"/>
</svg>
