<svg width="65" height="166" viewBox="0 0 65 166" fill="none" xmlns="http://www.w3.org/2000/svg">
<path d="M8.49984 98.5C-5.36298 134.981 6.05538 163.386 32.4998 162.5C58.5195 161.628 65.4999 140 60.9998 111.5C55.228 74.9457 49.8331 36.8334 48.4997 8.00002C43.7634 3.37529 39.6286 2.11227 26.4998 5.00002C26.0998 27.4 17.9999 73.5 8.49984 98.5Z" fill="#1C8AF0" stroke="black" stroke-width="5"/>
<path d="M22.0001 85C24.5008 77.3416 26.4152 71.1489 27.8655 66.2539C28.5332 64.0002 32.5325 64.446 32.6555 66.7933C32.8875 71.2165 33.269 75.5747 34.5 88.5C36.5 109.5 39.5 131.5 34.5 135C29.5 138.5 22.9999 142 12.4999 133.5C7.69993 121.1 16.0094 103.347 22.0001 85Z" fill="white" fill-opacity="0.2"/>
</svg>
