<svg width="141" height="185" viewBox="0 0 141 185" fill="none" xmlns="http://www.w3.org/2000/svg">
<path d="M81.0001 8.99997C108.5 -11.0001 128 20.6666 138 43C116.667 60.8333 73.7 97.3 98.4999 158.5C84.4999 171.5 63.7347 195.636 45.5 173C31 155 53.1667 124.833 73.5 115.5C57.1666 122.833 6.80735 135.578 2.99975 103C-1.49995 64.5 76.1666 44.8333 98.4999 46.5C79.4999 40.5 61.9846 22.8295 81.0001 8.99997Z" fill="#1165B3" stroke="black" stroke-width="5" stroke-linejoin="round"/>
<path d="M92.0001 20.4999C104.691 8.49994 125.567 32.8533 134 51.4999C116.01 66.3894 83.7779 86.9026 104.691 138C92.8851 148.854 68.7619 169 59.9976 158.228C47.7702 143.199 57.8536 121.793 75.0001 114C61.2267 120.123 27.3693 126.984 24.1584 99.7832C20.364 67.6387 83.1671 45.6084 102 46.9999C85.9781 41.9904 86.6277 25.5799 92.0001 20.4999Z" fill="#1C8AF0"/>
<path d="M81.0001 8.99997C108.5 -11.0001 128 20.6666 138 43C116.667 60.8333 73.7 97.3 98.4999 158.5C84.4999 171.5 63.7347 195.636 45.5 173C31 155 53.1667 124.833 73.5 115.5C57.1666 122.833 6.80735 135.578 2.99975 103C-1.49995 64.5 76.1666 44.8333 98.4999 46.5C79.4999 40.5 61.9846 22.8295 81.0001 8.99997Z" stroke="black" stroke-width="5" stroke-linejoin="round"/>
</svg>
