<svg width="116" height="75" viewBox="0 0 116 75" fill="none" xmlns="http://www.w3.org/2000/svg">
<path d="M49.6052 32C37.1053 49 15.1053 40.5 16.6053 71.5C-18.184 16.2777 56.605 -11 87.1052 21C55.1052 17 55.1052 28 55.1052 28C55.1052 28 51.6053 26 51.6053 23C49.6052 25.5 48.1053 28.5 49.6052 32Z" fill="#1165B3" stroke="black" stroke-width="5" stroke-linejoin="round"/>
<path d="M16.8218 72C-14.9406 19.8779 12.557 -3.89385 53.6052 4.00003C66.6052 6.50003 73.8254 11.0736 83.1051 15.9301C62.105 8.00004 38.1752 15.5796 31.105 27.5C27.5925 26.3194 25.4222 23.1294 24.605 19C20.9843 23.8456 22.6837 28.8024 24.605 33C10.4646 39.6225 14.6123 51.6912 16.8218 72Z" fill="#297DCB" stroke="black" stroke-width="5" stroke-linejoin="round"/>
<path d="M59.1055 13C88.6055 8.27532 104.989 25.4946 112.105 36.9926L105.198 45.0001C92.138 20.8544 69.3613 11.3575 59.1055 13Z" fill="#356490" stroke="black" stroke-width="5"/>
</svg>
