<svg width="229" height="80" viewBox="0 0 229 80" fill="none" xmlns="http://www.w3.org/2000/svg">
<path d="M112.146 23.7681C52.4875 -27.4702 -27.8642 30.5386 15.3726 58.6552C76.731 98.5562 124.507 68.8163 112.146 23.7681Z" fill="#1D7FDB"/>
<path d="M112.146 23.7681L114.557 23.1066L114.355 22.3695L113.775 21.8715L112.146 23.7681ZM15.3726 58.6552L16.7355 56.5594V56.5594L15.3726 58.6552ZM41.5608 26.6077C40.4406 27.4149 40.1868 28.9773 40.9939 30.0975C41.8011 31.2177 43.3635 31.4715 44.4837 30.6644L41.5608 26.6077ZM113.775 21.8715C83.0893 -4.48305 46.9642 -2.7978 24.0124 9.23958C12.5968 15.2267 4.09158 23.9686 1.45455 33.4683C0.1215 38.2706 0.30626 43.2363 2.37922 47.9827C4.44238 52.7066 8.29646 57.0358 14.0097 60.7511L16.7355 56.5594C11.6396 53.2456 8.54663 49.6114 6.96127 45.9815C5.3857 42.3739 5.22047 38.5951 6.27238 34.8057C8.40526 27.1222 15.6097 19.2924 26.3347 13.6675C47.6643 2.48094 81.5443 0.780932 110.517 25.6646L113.775 21.8715ZM14.0097 60.7511C45.1106 80.9758 73.3113 83.8953 92.4244 75.3499C111.741 66.7137 121.028 46.6881 114.557 23.1066L109.735 24.4296C115.625 45.8963 107.205 63.2647 90.3837 70.7853C73.3595 78.3967 46.993 76.2357 16.7355 56.5594L14.0097 60.7511ZM113.525 21.6825C102.037 14.0896 71.8766 4.76392 41.5608 26.6077L44.4837 30.6644C72.7199 10.3191 100.569 19.113 110.768 25.8537L113.525 21.6825Z" fill="black"/>
<path d="M112.605 24.3585C101.105 13.3584 63.2055 1.55844 11.6055 54.3584C72.6055 96.8584 118.029 77.5067 112.605 24.3585Z" fill="white" fill-opacity="0.2"/>
<path d="M112.146 23.7681L114.557 23.1066L114.355 22.3695L113.775 21.8715L112.146 23.7681ZM15.3726 58.6552L16.7355 56.5594L15.3726 58.6552ZM41.5608 26.6077C40.4406 27.4149 40.1868 28.9773 40.9939 30.0975C41.8011 31.2177 43.3635 31.4715 44.4837 30.6644L41.5608 26.6077ZM113.775 21.8715C83.0893 -4.48305 46.9642 -2.7978 24.0124 9.23958C12.5968 15.2267 4.09158 23.9686 1.45455 33.4683C0.1215 38.2706 0.30626 43.2363 2.37922 47.9827C4.44238 52.7066 8.29646 57.0358 14.0097 60.7511L16.7355 56.5594C11.6396 53.2456 8.54663 49.6114 6.96127 45.9815C5.3857 42.3739 5.22047 38.5951 6.27238 34.8057C8.40526 27.1222 15.6097 19.2924 26.3347 13.6675C47.6643 2.48094 81.5443 0.780932 110.517 25.6646L113.775 21.8715ZM14.0097 60.7511C45.1106 80.9758 73.3113 83.8953 92.4244 75.3499C111.741 66.7137 121.028 46.6881 114.557 23.1066L109.735 24.4296C115.625 45.8964 107.205 63.2647 90.3837 70.7853C73.3595 78.3967 46.993 76.2357 16.7355 56.5594L14.0097 60.7511ZM113.525 21.6825C102.037 14.0896 71.8766 4.76392 41.5608 26.6077L44.4837 30.6644C72.7199 10.3191 100.569 19.113 110.768 25.8537L113.525 21.6825Z" fill="black"/>
<path d="M117.065 23.7681C176.723 -27.4702 257.075 30.5386 213.838 58.6552C152.48 98.5562 104.704 68.8163 117.065 23.7681Z" fill="#1D7FDB"/>
<path d="M117.065 23.7681L114.654 23.1066L114.856 22.3695L115.436 21.8715L117.065 23.7681ZM213.838 58.6552L212.475 56.5594V56.5594L213.838 58.6552ZM187.65 26.6077C188.77 27.4149 189.024 28.9773 188.217 30.0975C187.41 31.2177 185.847 31.4715 184.727 30.6644L187.65 26.6077ZM115.436 21.8715C146.122 -4.48305 182.247 -2.7978 205.199 9.23958C216.614 15.2267 225.119 23.9686 227.756 33.4683C229.089 38.2706 228.905 43.2363 226.832 47.9827C224.769 52.7066 220.914 57.0358 215.201 60.7511L212.475 56.5594C217.571 53.2456 220.664 49.6114 222.25 45.9815C223.825 42.3739 223.99 38.5951 222.939 34.8057C220.806 27.1222 213.601 19.2924 202.876 13.6675C181.547 2.48094 147.667 0.780932 118.694 25.6646L115.436 21.8715ZM215.201 60.7511C184.1 80.9758 155.9 83.8953 136.786 75.3499C117.47 66.7137 108.183 46.6881 114.654 23.1066L119.476 24.4296C113.585 45.8963 122.006 63.2647 138.827 70.7853C155.851 78.3967 182.218 76.2357 212.475 56.5594L215.201 60.7511ZM115.686 21.6825C127.174 14.0896 157.334 4.76392 187.65 26.6077L184.727 30.6644C156.491 10.3191 128.642 19.113 118.443 25.8537L115.686 21.6825Z" fill="black"/>
<path d="M122.106 19.3584C135.106 11.4069 184.106 12.3584 217.606 54.3584C250.106 21.3584 171.105 -20.6416 122.106 19.3584Z" fill="white" fill-opacity="0.2"/>
<path d="M117.065 23.7681L114.654 23.1066L114.856 22.3695L115.436 21.8715L117.065 23.7681ZM213.838 58.6552L212.475 56.5594L213.838 58.6552ZM187.65 26.6077C188.77 27.4149 189.024 28.9773 188.217 30.0975C187.41 31.2177 185.847 31.4715 184.727 30.6644L187.65 26.6077ZM115.436 21.8715C146.122 -4.48305 182.247 -2.7978 205.199 9.23958C216.614 15.2267 225.119 23.9686 227.756 33.4683C229.089 38.2706 228.905 43.2363 226.832 47.9827C224.769 52.7066 220.914 57.0358 215.201 60.7511L212.475 56.5594C217.571 53.2456 220.664 49.6114 222.25 45.9815C223.825 42.3739 223.99 38.5951 222.939 34.8057C220.806 27.1222 213.601 19.2924 202.876 13.6675C181.547 2.48094 147.667 0.780932 118.694 25.6646L115.436 21.8715ZM215.201 60.7511C184.1 80.9758 155.9 83.8953 136.786 75.3499C117.47 66.7137 108.183 46.6881 114.654 23.1066L119.476 24.4296C113.585 45.8964 122.006 63.2647 138.827 70.7853C155.851 78.3967 182.218 76.2357 212.475 56.5594L215.201 60.7511ZM115.686 21.6825C127.174 14.0896 157.334 4.76392 187.65 26.6077L184.727 30.6644C156.491 10.3191 128.642 19.113 118.443 25.8537L115.686 21.6825Z" fill="black"/>
</svg>
