<svg width="204" height="98" viewBox="0 0 204 98" fill="none" xmlns="http://www.w3.org/2000/svg">
<path d="M105.331 55.4812C133.138 0.779492 208.353 18.7408 185.519 51.8795C153.116 98.9074 109.807 91.6555 105.331 55.4812Z" fill="#1D7FDB"/>
<path d="M105.331 55.4812L102.85 55.7881L102.756 55.0296L103.103 54.3483L105.331 55.4812ZM185.519 51.8795L183.461 50.461L183.461 50.461L185.519 51.8795ZM157.226 36.0105C158.569 36.33 159.399 37.6779 159.079 39.0211C158.76 40.3644 157.412 41.1943 156.069 40.8749L157.226 36.0105ZM103.103 54.3483C117.518 25.9912 144.308 16.3716 164.646 18.2508C174.747 19.1842 183.652 23.0006 188.506 29.2334C190.966 32.3927 192.357 36.1515 192.269 40.3284C192.183 44.481 190.641 48.8524 187.578 53.298L183.461 50.461C186.106 46.6219 187.209 43.183 187.271 40.224C187.332 37.2895 186.375 34.6355 184.561 32.3055C180.865 27.5598 173.51 24.0912 164.186 23.2296C145.672 21.5189 120.952 30.2695 107.56 56.6141L103.103 54.3483ZM187.578 53.298C171.091 77.2261 151.459 87.8702 134.878 87.3801C118.075 86.8834 105.222 74.9635 102.85 55.7881L107.812 55.1742C109.915 72.1733 120.955 81.9664 135.026 82.3823C149.319 82.8047 167.544 73.5608 183.461 50.461L187.578 53.298ZM103.262 54.0781C109.388 45.0445 128.587 29.1993 157.226 36.0105L156.069 40.8749C129.923 34.6567 112.659 49.1299 107.4 56.8842L103.262 54.0781Z" fill="black"/>
<path d="M107.657 50.8012C114.672 41.1999 150.305 27.3187 186.96 47.6596C200.596 14.1899 131.116 7.37612 107.657 50.8012Z" fill="white" fill-opacity="0.25"/>
<path d="M105.331 55.4812L102.85 55.7881L102.756 55.0296L103.103 54.3483L105.331 55.4812ZM185.519 51.8795L183.461 50.461L185.519 51.8795ZM157.226 36.0105C158.569 36.33 159.399 37.6779 159.079 39.0211C158.76 40.3644 157.412 41.1943 156.069 40.8749L157.226 36.0105ZM103.103 54.3483C117.518 25.9912 144.308 16.3716 164.646 18.2508C174.747 19.1842 183.652 23.0006 188.506 29.2334C190.966 32.3927 192.357 36.1515 192.269 40.3284C192.183 44.481 190.641 48.8524 187.578 53.298L183.461 50.461C186.106 46.6219 187.209 43.183 187.271 40.224C187.332 37.2895 186.375 34.6355 184.561 32.3055C180.865 27.5598 173.51 24.0912 164.186 23.2296C145.672 21.5189 120.952 30.2695 107.56 56.6141L103.103 54.3483ZM187.578 53.298C171.091 77.2261 151.459 87.8702 134.878 87.3801C118.075 86.8834 105.222 74.9635 102.85 55.7881L107.812 55.1742C109.915 72.1733 120.955 81.9664 135.026 82.3823C149.319 82.8047 167.544 73.5608 183.461 50.461L187.578 53.298ZM103.262 54.0781C109.388 45.0446 128.587 29.1993 157.226 36.0105L156.069 40.8749C129.923 34.6567 112.659 49.1299 107.4 56.8842L103.262 54.0781Z" fill="black"/>
<path d="M92.2486 60.5438C76.3704 5.33788 4.05099 8.53459 19.1745 43.0387C40.6367 92.0042 81.7315 93.0044 92.2486 60.5438Z" fill="#1D7FDB"/>
<path d="M92.2486 60.5438L94.6269 61.3144L94.8625 60.5873L94.6512 59.8528L92.2486 60.5438ZM19.1745 43.0387L16.8848 44.0423L16.8848 44.0423L19.1745 43.0387ZM47.9852 33.3002C46.6058 33.3599 45.5359 34.5265 45.5956 35.906C45.6554 37.2854 46.822 38.3552 48.2014 38.2955L47.9852 33.3002ZM94.6512 59.8528C86.4001 31.165 63.4164 17.5403 44.3307 15.662C34.8556 14.7295 25.9433 16.6629 20.3328 21.5728C17.4867 24.0635 15.5227 27.3046 14.8568 31.1988C14.1951 35.0689 14.8466 39.3921 16.8848 44.0423L21.4642 42.0351C19.7216 38.0593 19.3248 34.7348 19.7853 32.0415C20.2417 29.3722 21.5705 27.1339 23.6256 25.3354C27.8177 21.6668 35.142 19.7819 43.8411 20.638C61.1038 22.3368 82.2189 34.7167 89.846 61.2348L94.6512 59.8528ZM16.8848 44.0423C27.8178 68.9858 44.0154 82.2976 59.4159 84.7938C75.036 87.3256 89.0304 78.5877 94.6269 61.3144L89.8703 59.7732C84.9497 74.9605 73.1381 81.9528 60.2159 79.8582C47.0742 77.7282 31.9934 66.0571 21.4642 42.0351L16.8848 44.0423ZM94.5458 59.5573C90.4945 50.1237 75.5988 32.105 47.9852 33.3002L48.2014 38.2955C73.254 37.2112 86.5101 53.5168 89.9515 61.5303L94.5458 59.5573Z" fill="black"/>
<path d="M92.2925 61.0883C89.6821 49.7609 71.2741 27.3589 18.5976 38.9046C38.7988 89.3133 74.2918 95.7126 92.2925 61.0883Z" fill="white" fill-opacity="0.25"/>
<path d="M92.2486 60.5438L94.6269 61.3144L94.8625 60.5873L94.6512 59.8528L92.2486 60.5438ZM19.1745 43.0387L21.4642 42.0351L19.1745 43.0387ZM47.9852 33.3002C46.6058 33.3599 45.5359 34.5265 45.5956 35.906C45.6554 37.2854 46.822 38.3552 48.2014 38.2955L47.9852 33.3002ZM94.6512 59.8528C86.4001 31.165 63.4164 17.5403 44.3307 15.662C34.8556 14.7295 25.9433 16.6629 20.3328 21.5728C17.4867 24.0635 15.5227 27.3046 14.8568 31.1988C14.1951 35.0689 14.8466 39.3921 16.8848 44.0423L21.4642 42.0351C19.7216 38.0593 19.3248 34.7348 19.7853 32.0415C20.2417 29.3722 21.5705 27.1339 23.6256 25.3354C27.8177 21.6668 35.142 19.7819 43.8411 20.638C61.1038 22.3368 82.2189 34.7167 89.846 61.2348L94.6512 59.8528ZM16.8848 44.0423C27.8178 68.9858 44.0154 82.2976 59.4159 84.7938C75.036 87.3256 89.0304 78.5877 94.6269 61.3144L89.8703 59.7732C84.9497 74.9605 73.1381 81.9528 60.2159 79.8583C47.0742 77.7282 31.9934 66.0571 21.4642 42.0351L16.8848 44.0423ZM94.5458 59.5573C90.4945 50.1237 75.5988 32.105 47.9852 33.3002L48.2014 38.2955C73.254 37.2112 86.5101 53.5168 89.9515 61.5303L94.5458 59.5573Z" fill="black"/>
</svg>
