<svg width="229" height="110" viewBox="0 0 229 110" fill="none" xmlns="http://www.w3.org/2000/svg">
<path d="M113.453 64.7173C104.103 43.7519 69.7869 11.189 7.31953 48.6602C38.8425 77.2154 104.201 120.404 113.453 64.7173Z" fill="#1D7FDB"/>
<path d="M113.453 64.7173C104.103 43.7519 69.7869 11.189 7.31953 48.6602C38.8425 77.2154 104.201 120.404 113.453 64.7173ZM113.453 64.7173C100.015 57.6205 66.1744 41.0519 36.3609 46.2568" stroke="black" stroke-width="5" stroke-linecap="round"/>
<path d="M113.452 64.7173C101.607 55.0072 64.3046 38.1367 9.85437 48.3352C40.5324 76.9988 104.201 120.404 113.452 64.7173Z" fill="white" fill-opacity="0.2"/>
<path d="M113.453 64.7173C104.103 43.7519 69.7869 11.189 7.31953 48.6602C38.8425 77.2154 104.201 120.404 113.453 64.7173ZM113.453 64.7173C100.015 57.6205 66.1744 41.0519 36.3609 46.2568" stroke="black" stroke-width="5" stroke-linecap="round"/>
<path d="M124.731 64.9773C132.188 45.2594 161.917 13.5814 221.178 44.6121C193.797 72.4675 136.174 115.538 124.731 64.9773Z" fill="#1D7FDB"/>
<path d="M124.731 64.9773C132.188 45.2594 161.917 13.5814 221.178 44.6121C193.797 72.4675 136.174 115.538 124.731 64.9773ZM124.731 64.9773C136.673 57.7565 166.817 40.767 194.426 43.9532" stroke="black" stroke-width="5" stroke-linecap="round"/>
<path d="M124.731 64.9773C135.074 55.4454 168.376 37.995 218.837 44.449C192.236 72.3587 136.174 115.538 124.731 64.9773Z" fill="white" fill-opacity="0.2"/>
<path d="M124.731 64.9773C132.188 45.2594 161.917 13.5814 221.178 44.6121C193.797 72.4675 136.174 115.538 124.731 64.9773ZM124.731 64.9773C136.673 57.7565 166.817 40.767 194.426 43.9532" stroke="black" stroke-width="5" stroke-linecap="round"/>
</svg>
