<svg width="447" height="248" viewBox="0 0 447 248" fill="none" xmlns="http://www.w3.org/2000/svg">
<path d="M345.186 92.5644C346.999 106.316 363.616 108.912 376.283 118.684C396.539 134.309 402.068 147.39 392.31 162.303C384.597 174.09 346.394 187.35 320.961 186.159C281.464 184.309 258.567 173.765 219.891 180.536C204.028 183.313 180.252 200.61 153.669 197.663C117.45 193.649 114.472 177.082 93.2537 162.303C74.502 149.242 43.34 148.941 51.265 129.929C56.3998 117.611 90.5861 120.749 100.736 103.977C108.363 91.3745 98.4015 81.5229 103.396 68.077C110.17 49.8372 137.584 46.6792 159.25 52.9383C189.314 61.6239 204.155 69.4299 234.786 70.2397C269.432 71.1557 289.628 51.4197 320.961 58.9938C337.936 63.0973 343.275 78.0652 345.186 92.5644Z" fill="#1285EF" fill-opacity="0.5"/>
<g filter="url(#filter0_f)">
<path d="M345.186 92.5644C346.999 106.316 363.616 108.912 376.283 118.684C396.539 134.309 402.068 147.39 392.31 162.303C384.597 174.09 346.394 187.35 320.961 186.159C281.464 184.309 258.567 173.765 219.891 180.536C204.028 183.313 180.252 200.61 153.669 197.663C117.45 193.649 114.472 177.082 93.2537 162.303C74.502 149.242 43.34 148.941 51.265 129.929C56.3998 117.611 90.5861 120.749 100.736 103.977C108.363 91.3745 98.4015 81.5229 103.396 68.077C110.17 49.8372 137.584 46.6792 159.25 52.9383C189.314 61.6239 204.155 69.4299 234.786 70.2397C269.432 71.1557 289.628 51.4197 320.961 58.9938C337.936 63.0973 343.275 78.0652 345.186 92.5644Z" fill="#1285EF"/>
</g>
<path d="M321.041 98.5117C322.509 109.661 335.966 111.767 346.223 119.689C362.627 132.359 367.104 142.965 359.202 155.057C352.956 164.613 322.019 175.365 301.423 174.399C269.439 172.899 250.897 164.35 219.578 169.84C206.732 172.092 187.478 186.116 165.951 183.727C136.621 180.472 134.209 167.039 117.027 155.057C101.842 144.467 76.6068 144.222 83.0244 128.808C87.1825 118.82 114.867 121.364 123.086 107.765C129.262 97.5469 121.195 89.5591 125.24 78.657C130.726 63.868 152.926 61.3074 170.47 66.3824C194.816 73.4248 206.835 79.7539 231.639 80.4106C259.695 81.1532 276.05 65.1511 301.423 71.2922C315.17 74.6195 319.493 86.7556 321.041 98.5117Z" fill="#349CFB"/>
<defs>
<filter id="filter0_f" x="0" y="0" width="447" height="248" filterUnits="userSpaceOnUse" color-interpolation-filters="sRGB">
<feFlood flood-opacity="0" result="BackgroundImageFix"/>
<feBlend mode="normal" in="SourceGraphic" in2="BackgroundImageFix" result="shape"/>
<feGaussianBlur stdDeviation="25" result="effect1_foregroundBlur"/>
</filter>
</defs>
</svg>
