<svg width="110" height="74" viewBox="0 0 110 74" fill="none" xmlns="http://www.w3.org/2000/svg">
<path d="M2.55516 15.5C44.2218 24.0263 67.2987 24.3173 107.855 15.5C107.855 15.5 107.855 20.5176 107.855 50.5241C107.855 80.5305 2.55528 80.5305 2.55512 50.5241C2.55497 20.5176 2.55516 15.5 2.55516 15.5Z" fill="#1C423C"/>
<path d="M3.33069 16L44.133 21C41.6821 34.8682 40.7657 39.9024 40.7657 54.2439C40.7657 68.5853 6.91593 68.5853 6.91588 54.2439C6.91583 39.9024 5.10285 29.3886 3.33069 16Z" fill="#14342F"/>
<path d="M106.587 14.3218C106.462 15.6112 106.322 17.2676 106.183 19.3423C105.767 25.5387 105.355 35.4767 105.355 50.5241C105.355 56.3193 100.244 61.3687 90.514 65.0657C81.0149 68.6749 68.177 70.5289 55.2051 70.5289C42.2333 70.5289 29.3953 68.6749 19.8963 65.0657C10.1661 61.3687 5.05524 56.3193 5.05521 50.5241C5.05513 35.4521 4.41348 25.4829 3.76402 19.2505C3.55649 17.2589 3.348 15.6475 3.15909 14.3717C22.8726 19.2386 38.7799 21.7346 54.7459 21.7518C70.7785 21.769 86.7533 19.2865 106.587 14.3218Z" stroke="black" stroke-width="5"/>
<path d="M106.618 11.0322C106.866 11.2791 106.958 11.4367 106.99 11.5078C106.96 11.588 106.862 11.7899 106.556 12.1186C106.067 12.642 105.231 13.2821 103.964 13.9887C101.439 15.3961 97.6385 16.8292 92.7671 18.1104C83.057 20.6641 69.5342 22.5 54.5417 22.5C39.5493 22.5 26.133 20.6641 16.5307 18.1121C11.7132 16.8317 7.96729 15.4001 5.48419 13.9961C4.23779 13.2914 3.41795 12.6536 2.9395 12.1329C2.62253 11.7879 2.53183 11.5812 2.50721 11.5065C2.53451 11.4391 2.6213 11.2775 2.87729 11.0183C3.3292 10.5608 4.12444 9.99622 5.36645 9.37889C7.83945 8.14969 11.581 6.95494 16.414 5.91599C26.0404 3.84659 39.4928 2.5 54.5417 2.5C69.5904 2.5 83.1491 3.84655 92.8828 5.91711C97.7695 6.9566 101.566 8.15265 104.081 9.38509C105.344 10.0043 106.156 10.5715 106.618 11.0322ZM2.49574 11.5429C2.49547 11.5429 2.49595 11.5395 2.49795 11.5326C2.497 11.5394 2.496 11.5429 2.49574 11.5429ZM107.003 11.5414C107.005 11.5483 107.005 11.5518 107.005 11.5517C107.005 11.5517 107.004 11.5482 107.003 11.5414Z" fill="#336961" stroke="black" stroke-width="5"/>
</svg>
