<svg width="103" height="49" viewBox="0 0 103 49" fill="none" xmlns="http://www.w3.org/2000/svg">
<path d="M1.02456 25.1986C1.02462 -4.80796 31.4042 5.50687 52.8403 5.42506C72.5855 5.34971 102.475 -6.95138 101.761 25.1986C101.345 43.9105 76.0427 45.6318 57.7188 47.1138C35.1928 48.9356 1.02451 45.2027 1.02456 25.1986Z" fill="black"/>
<path d="M76.8805 35.0006C78.3795 36.4523 80.8659 35.9681 81.7107 34.0601L90.3381 14.5756C91.3198 12.3584 89.4018 9.9529 87.0216 10.4163L63.0867 15.0766C60.7065 15.54 59.8311 18.4894 61.573 20.1764L76.8805 35.0006Z" fill="#1ED6FF"/>
<path d="M25.9659 35.4951C26.8131 37.4021 29.3 37.8832 30.7972 36.4298L46.0869 21.5872C47.8268 19.8981 46.9479 16.9498 44.5671 16.4892L20.6267 11.8577C18.2459 11.3971 16.3308 13.8049 17.3152 16.0209L25.9659 35.4951Z" fill="#1ED6FF"/>
<rect x="13.1702" y="9.48096" width="77.1595" height="1.42888" fill="black"/>
<rect x="13.1702" y="23.7698" width="77.1595" height="1.42888" fill="black"/>
<rect x="13.1702" y="12.3386" width="77.1595" height="1.42888" fill="black"/>
<rect x="13.1702" y="26.6274" width="77.1595" height="1.42888" fill="black"/>
<rect x="13.1702" y="15.1965" width="77.1595" height="1.42888" fill="black"/>
<rect x="13.1702" y="29.4851" width="77.1595" height="1.42888" fill="black"/>
<rect x="13.1702" y="18.0542" width="77.1595" height="1.42888" fill="black"/>
<rect x="13.1702" y="32.343" width="77.1595" height="1.42888" fill="black"/>
<rect x="13.1702" y="20.9119" width="77.1595" height="1.42888" fill="black"/>
<rect x="13.1702" y="35.2007" width="77.1595" height="1.42888" fill="black"/>
<g filter="url(#filter0_f)">
<path d="M76.8805 35.0006C78.3795 36.4523 80.8659 35.9681 81.7107 34.0601L90.3381 14.5756C91.3198 12.3584 89.4018 9.9529 87.0216 10.4163L63.0867 15.0766C60.7065 15.54 59.8311 18.4894 61.573 20.1764L76.8805 35.0006Z" fill="#00FFF0" fill-opacity="0.6"/>
</g>
<g filter="url(#filter1_f)">
<path d="M25.9659 35.4951C26.8131 37.4021 29.3 37.8832 30.7972 36.4298L46.0869 21.5872C47.8268 19.8981 46.9479 16.9498 44.5671 16.4892L20.6267 11.8577C18.2459 11.3971 16.3308 13.8049 17.3152 16.0209L25.9659 35.4951Z" fill="#00FFF0" fill-opacity="0.6"/>
</g>
<defs>
<filter id="filter0_f" x="55.137" y="4.84204" width="44.3213" height="38.8527" filterUnits="userSpaceOnUse" color-interpolation-filters="sRGB">
<feFlood flood-opacity="0" result="BackgroundImageFix"/>
<feBlend mode="normal" in="SourceGraphic" in2="BackgroundImageFix" result="shape"/>
<feGaussianBlur stdDeviation="2.5" result="effect1_foregroundBlur"/>
</filter>
<filter id="filter1_f" x="8.21704" y="6.28687" width="44.3006" height="38.8223" filterUnits="userSpaceOnUse" color-interpolation-filters="sRGB">
<feFlood flood-opacity="0" result="BackgroundImageFix"/>
<feBlend mode="normal" in="SourceGraphic" in2="BackgroundImageFix" result="shape"/>
<feGaussianBlur stdDeviation="2.5" result="effect1_foregroundBlur"/>
</filter>
</defs>
</svg>
