<svg width="77" height="41" viewBox="0 0 77 41" fill="none" xmlns="http://www.w3.org/2000/svg">
<path d="M41.9999 30.0935C41.9999 35.6164 46.477 40.0935 51.9999 40.0935H66.1153C71.6382 40.0935 76.1153 35.6164 76.1153 30.0935V15.321C76.1153 8.10154 68.6992 3.26094 62.0904 6.16672L47.9749 12.3731C44.3441 13.9695 41.9999 17.5609 41.9999 21.5273V30.0935Z" fill="black"/>
<path d="M61.9082 15.5481C60.7143 13.8367 58.1812 13.8367 56.9873 15.5481L47.808 28.7058C46.4206 30.6946 47.8436 33.4223 50.2685 33.4223H68.627C71.0519 33.4223 72.4749 30.6946 71.0875 28.7058L61.9082 15.5481Z" fill="#1ED6FF"/>
<rect x="71.903" y="30.1084" width="26.6267" height="0.832084" transform="rotate(-180 71.903 30.1084)" fill="black"/>
<rect x="71.903" y="36.7651" width="26.6267" height="0.832084" transform="rotate(-180 71.903 36.7651)" fill="black"/>
<rect x="71.903" y="21.7876" width="23.2984" height="0.832084" transform="rotate(-180 71.903 21.7876)" fill="black"/>
<rect x="71.903" y="28.4441" width="26.6267" height="0.832084" transform="rotate(-180 71.903 28.4441)" fill="black"/>
<rect x="71.903" y="35.1008" width="26.6267" height="0.832084" transform="rotate(-180 71.903 35.1008)" fill="black"/>
<rect x="71.903" y="20.1233" width="23.2984" height="0.832084" transform="rotate(-180 71.903 20.1233)" fill="black"/>
<rect x="71.903" y="26.78" width="26.6267" height="0.832084" transform="rotate(-180 71.903 26.78)" fill="black"/>
<rect x="71.903" y="33.4368" width="26.6267" height="0.832084" transform="rotate(-180 71.903 33.4368)" fill="black"/>
<rect x="71.903" y="18.4592" width="23.2984" height="0.832084" transform="rotate(-180 71.903 18.4592)" fill="black"/>
<rect x="71.903" y="25.116" width="26.6267" height="0.832084" transform="rotate(-180 71.903 25.116)" fill="black"/>
<rect x="71.903" y="31.7725" width="26.6267" height="0.832084" transform="rotate(-180 71.903 31.7725)" fill="black"/>
<rect x="71.903" y="16.7949" width="23.2984" height="0.832084" transform="rotate(-180 71.903 16.7949)" fill="black"/>
<rect x="71.903" y="23.4517" width="23.2984" height="0.832084" transform="rotate(-180 71.903 23.4517)" fill="black"/>
<rect x="71.903" y="15.1309" width="23.2984" height="0.832084" transform="rotate(-180 71.903 15.1309)" fill="black"/>
<g filter="url(#filter0_f)">
<path d="M61.9082 15.5481C60.7143 13.8367 58.1812 13.8367 56.9873 15.5481L47.808 28.7058C46.4206 30.6946 47.8436 33.4223 50.2685 33.4223H68.627C71.0519 33.4223 72.4749 30.6946 71.0875 28.7058L61.9082 15.5481Z" fill="#00FFF0" fill-opacity="0.6"/>
</g>
<path d="M34.6875 30.0935C34.6875 35.6164 30.2103 40.0935 24.6875 40.0935H10.572C5.04918 40.0935 0.572037 35.6164 0.572037 30.0935V15.321C0.572037 8.10154 7.98819 3.26094 14.597 6.16672L28.7125 12.3731C32.3433 13.9695 34.6875 17.5609 34.6875 21.5273V30.0935Z" fill="black"/>
<path d="M14.7792 15.5481C15.9731 13.8367 18.5062 13.8367 19.7001 15.5481L28.8793 28.7058C30.2667 30.6946 28.8438 33.4223 26.4189 33.4223H8.06036C5.63547 33.4223 4.21251 30.6946 5.59993 28.7058L14.7792 15.5481Z" fill="#1ED6FF"/>
<rect width="26.6267" height="0.832084" transform="matrix(1 0 0 -1 4.78442 30.1084)" fill="black"/>
<rect width="26.6267" height="0.832084" transform="matrix(1 0 0 -1 4.78442 36.7651)" fill="black"/>
<rect width="23.2984" height="0.832084" transform="matrix(1 0 0 -1 4.78442 21.7876)" fill="black"/>
<rect width="26.6267" height="0.832084" transform="matrix(1 0 0 -1 4.78442 28.4441)" fill="black"/>
<rect width="26.6267" height="0.832084" transform="matrix(1 0 0 -1 4.78442 35.1008)" fill="black"/>
<rect width="23.2984" height="0.832084" transform="matrix(1 0 0 -1 4.78442 20.1233)" fill="black"/>
<rect width="26.6267" height="0.832084" transform="matrix(1 0 0 -1 4.78442 26.78)" fill="black"/>
<rect width="26.6267" height="0.832084" transform="matrix(1 0 0 -1 4.78442 33.4368)" fill="black"/>
<rect width="23.2984" height="0.832084" transform="matrix(1 0 0 -1 4.78442 18.4592)" fill="black"/>
<rect width="26.6267" height="0.832084" transform="matrix(1 0 0 -1 4.78442 25.116)" fill="black"/>
<rect width="26.6267" height="0.832084" transform="matrix(1 0 0 -1 4.78442 31.7725)" fill="black"/>
<rect width="23.2984" height="0.832084" transform="matrix(1 0 0 -1 4.78442 16.7949)" fill="black"/>
<rect width="23.2984" height="0.832084" transform="matrix(1 0 0 -1 4.78442 23.4517)" fill="black"/>
<rect width="23.2984" height="0.832084" transform="matrix(1 0 0 -1 4.78442 15.1309)" fill="black"/>
<g filter="url(#filter1_f)">
<path d="M14.7792 15.5481C15.9731 13.8367 18.5062 13.8367 19.7001 15.5481L28.8793 28.7058C30.2667 30.6946 28.8438 33.4223 26.4189 33.4223H8.06036C5.63547 33.4223 4.21251 30.6946 5.59993 28.7058L14.7792 15.5481Z" fill="#00FFF0" fill-opacity="0.6"/>
</g>
<defs>
<filter id="filter0_f" x="42.2633" y="9.26465" width="34.369" height="29.1578" filterUnits="userSpaceOnUse" color-interpolation-filters="sRGB">
<feFlood flood-opacity="0" result="BackgroundImageFix"/>
<feBlend mode="normal" in="SourceGraphic" in2="BackgroundImageFix" result="shape"/>
<feGaussianBlur stdDeviation="2.5" result="effect1_foregroundBlur"/>
</filter>
<filter id="filter1_f" x="0.0551758" y="9.26465" width="34.369" height="29.1578" filterUnits="userSpaceOnUse" color-interpolation-filters="sRGB">
<feFlood flood-opacity="0" result="BackgroundImageFix"/>
<feBlend mode="normal" in="SourceGraphic" in2="BackgroundImageFix" result="shape"/>
<feGaussianBlur stdDeviation="2.5" result="effect1_foregroundBlur"/>
</filter>
</defs>
</svg>
