<svg width="73" height="167" viewBox="0 0 73 167" fill="none" xmlns="http://www.w3.org/2000/svg">
<path d="M27.9999 11.0001C16.6885 43.0347 11.3371 65.9954 19.255 110.917C19.6724 113.284 21.7414 115 24.1458 115H50.6914C54.208 115 56.6247 111.463 55.4392 108.153C43.7742 75.5768 43.6748 53.2481 52.2558 12.7858C49.2118 -3.35343 32.6911 -2.28563 27.9999 11.0001Z" fill="#F2DA5B"/>
<path d="M32.1671 32.0961C26.396 57.0065 23.8271 74.8852 29.383 109.008C29.7831 111.466 31.9582 113.237 34.4465 113.156L45.7711 112.787C49.1057 112.678 51.3941 109.389 50.4357 106.194C43.0634 81.612 42.5125 64.2609 46.4692 33.0226C44.2697 20.5035 34.5866 21.6525 32.1671 32.0961Z" fill="#FFEFA5"/>
<path d="M30.3573 11.8324C24.7196 27.7986 20.6296 41.3354 18.9001 56.4108C17.1722 71.4735 17.7885 88.1947 21.717 110.483C21.9212 111.641 22.9395 112.5 24.1458 112.5H50.6914C52.4234 112.5 53.7066 110.73 53.0855 108.995C47.1866 92.5219 44.1756 78.5313 43.7562 63.4964C43.3413 48.6201 45.4676 32.8393 49.7035 12.7711C48.2613 5.95298 44.2733 3.42107 40.7016 3.35819C36.8534 3.29044 32.4058 6.03086 30.3573 11.8324Z" stroke="black" stroke-width="5"/>
<path d="M39.8126 143.434C50.6401 143.434 59.4175 134.657 59.4175 123.829C59.4175 113.002 50.6401 104.225 39.8126 104.225C28.9852 104.225 20.2078 113.002 20.2078 123.829C20.2078 127.545 21.2388 131.012 23.0291 133.968C26.4683 139.648 32.6994 143.434 39.8126 143.434Z" fill="#F2DA5B" stroke="black" stroke-width="5"/>
<path d="M17.3758 151.129C16.9849 142.006 22.2937 135.334 25.8647 132.407C26.4873 131.896 27.3646 131.893 28.0401 132.331L32.5835 135.277C33.7089 136.006 33.8073 137.617 32.9001 138.605C28.6684 143.212 27.4895 148.659 27.4784 152.643C27.4739 154.266 25.7948 155.653 24.2859 155.054L18.5966 152.799C17.8996 152.522 17.4079 151.878 17.3758 151.129Z" fill="#F2DA5B" stroke="black" stroke-width="5"/>
<path d="M6.20333 130.188C11.3519 122.647 19.5986 120.482 24.2117 120.275C25.0159 120.239 25.7203 120.762 25.9992 121.517L27.8749 126.596C28.3395 127.855 27.4538 129.204 26.1358 129.452C19.9878 130.609 15.7827 134.265 13.3882 137.45C12.4128 138.747 10.2378 138.852 9.38749 137.47L6.18118 132.257C5.78836 131.618 5.78053 130.807 6.20333 130.188Z" fill="#F2DA5B" stroke="black" stroke-width="5"/>
<path d="M38.2285 158.373C34.0707 150.244 36.1152 141.966 38.1408 137.817C38.4939 137.093 39.2902 136.725 40.0868 136.841L45.4443 137.625C46.7714 137.819 47.5324 139.242 47.1194 140.518C45.1934 146.47 46.3922 151.912 48.043 155.539C48.7154 157.016 47.767 158.976 46.1461 159.061L40.0344 159.382C39.2856 159.421 38.57 159.04 38.2285 158.373Z" fill="#F2DA5B" stroke="black" stroke-width="5"/>
<path d="M69.1027 131.397C66.5247 122.638 59.3447 118.039 55.0192 116.423C54.2651 116.141 53.4339 116.422 52.9362 117.055L49.5883 121.31C48.7591 122.364 49.1865 123.92 50.3643 124.562C55.8578 127.555 58.7335 132.328 60.0316 136.095C60.5604 137.63 62.5975 138.399 63.8321 137.345L68.4871 133.372C69.0574 132.885 69.3144 132.116 69.1027 131.397Z" fill="#F2DA5B" stroke="black" stroke-width="5"/>
<path d="M39.4999 141C49.1649 141 56.9999 133.165 56.9999 123.5C56.9999 113.835 49.1649 106 39.4999 106C29.8349 106 21.9999 113.835 21.9999 123.5C21.9999 126.813 22.9204 129.911 24.5197 132.552C27.5861 137.616 33.1478 141 39.4999 141Z" fill="#F2DA5B"/>
<path d="M50.1286 135.61C54.2425 132.172 55.6344 127.06 53.2376 124.192C50.8407 121.325 45.5627 121.788 41.4488 125.226C37.3349 128.665 35.9429 133.777 38.3398 136.645C39.1613 137.628 40.3214 138.219 41.6571 138.434C44.2181 138.845 47.4248 137.87 50.1286 135.61Z" fill="#FFED94"/>
</svg>
