<svg width="144" height="104" viewBox="0 0 144 104" fill="none" xmlns="http://www.w3.org/2000/svg">
<path d="M140.639 54C140.639 58.8842 139.481 63.1836 137.737 66.1765C135.957 69.2313 133.867 70.5 132.07 70.5C130.273 70.5 128.182 69.2313 126.402 66.1765C124.659 63.1836 123.5 58.8842 123.5 54C123.5 49.1158 124.659 44.8164 126.402 41.8235C128.182 38.7687 130.273 37.5 132.07 37.5C133.867 37.5 135.957 38.7687 137.737 41.8235C139.481 44.8164 140.639 49.1158 140.639 54Z" fill="#D3B92C" stroke="black" stroke-width="5"/>
<path d="M11.9883 20.5H133.5V84.7377C133.026 86.7587 131.356 88.8657 128.086 90.9232C124.737 93.0309 120.048 94.8649 114.338 96.3631C102.938 99.3544 87.9944 100.875 72.9418 100.875C57.8897 100.875 42.9112 99.3545 31.4436 96.3622C25.7003 94.8636 20.9649 93.0281 17.5619 90.9152C14.2495 88.8585 12.517 86.7437 11.9883 84.7096V20.5Z" fill="#D3B92C" stroke="black" stroke-width="5"/>
<path d="M21.0852 36.9268C64.31 49.9268 88.5527 55.771 131.783 30.4268V82.5C127.632 103.736 25.6976 103.736 21.0852 82.5V36.9268Z" fill="#F1D954"/>
<path d="M11.9883 20.5H133.5V84.7377C133.026 86.7587 131.356 88.8657 128.086 90.9232C124.737 93.0309 120.048 94.8649 114.338 96.3631C102.938 99.3544 87.9944 100.875 72.9418 100.875C57.8897 100.875 42.9112 99.3545 31.4436 96.3622C25.7003 94.8636 20.9649 93.0281 17.5619 90.9152C14.2495 88.8585 12.517 86.7437 11.9883 84.7096V20.5Z" stroke="black" stroke-width="5"/>
<path d="M133.5 18C133.5 19.2118 132.616 20.9257 129.633 22.9321C126.74 24.8786 122.389 26.7296 116.788 28.3234C105.621 31.5012 90.048 33.5 72.7441 33.5C55.4402 33.5 39.8674 31.5012 28.6997 28.3234C23.0988 26.7296 18.7479 24.8786 15.8547 22.9321C12.8723 20.9257 11.9883 19.2118 11.9883 18C11.9883 16.7882 12.8723 15.0743 15.8547 13.0678C18.7479 11.1214 23.0988 9.27041 28.6997 7.67662C39.8674 4.49877 55.4402 2.5 72.7441 2.5C90.048 2.5 105.621 4.49877 116.788 7.67662C122.389 9.27041 126.74 11.1214 129.633 13.0678C132.616 15.0743 133.5 16.7882 133.5 18Z" fill="#D3B92C" stroke="black" stroke-width="5"/>
<path d="M19.6394 54C19.6394 58.8842 18.4807 63.1836 16.737 66.1765C14.9573 69.2313 12.8666 70.5 11.0696 70.5C9.27266 70.5 7.18203 69.2313 5.40226 66.1765C3.65855 63.1836 2.49988 58.8842 2.49988 54C2.49988 49.1158 3.65855 44.8164 5.40226 41.8235C7.18203 38.7687 9.27266 37.5 11.0696 37.5C12.8666 37.5 14.9573 38.7687 16.737 41.8235C18.4807 44.8164 19.6394 49.1158 19.6394 54Z" fill="#D3B92C" stroke="black" stroke-width="5"/>
</svg>
