<svg width="140" height="93" viewBox="0 0 140 93" fill="none" xmlns="http://www.w3.org/2000/svg">
<path d="M-0.00012207 20.2398C-0.00012207 9.19407 8.95418 0.239746 19.9999 0.239746H120C131.046 0.239746 140 9.19405 140 20.2397V65.5539C140 75.0761 133.282 83.3292 123.902 84.9671C84.3799 91.8679 56.5023 91.9902 16.1009 84.9604C6.71826 83.3279 -0.00012207 75.0745 -0.00012207 65.5509V20.2398Z" fill="#D3B92C"/>
<path d="M14.3834 33.0891C14.3834 22.0434 23.3377 13.0891 34.3834 13.0891H114.246C125.292 13.0891 134.246 22.0434 134.246 33.0891V66.7354C134.246 76.256 127.541 84.5197 118.154 86.1076C86.2774 91.4997 63.0546 91.5905 30.484 86.1014C21.0944 84.519 14.3834 76.2543 14.3834 66.7324V33.0891Z" fill="#F1D954"/>
<path d="M19.9999 2.73975H120C129.665 2.73975 137.5 10.5748 137.5 20.2397V66.418C137.5 74.4248 132.091 81.3998 124.375 83.1254C84.6366 92.0119 56.8755 91.937 15.7912 83.0316C7.99289 81.3413 2.49988 74.328 2.49988 66.258V20.2398C2.49988 10.5748 10.3349 2.73975 19.9999 2.73975Z" stroke="black" stroke-width="5"/>
</svg>
