<svg width="166" height="112" viewBox="0 0 166 112" fill="none" xmlns="http://www.w3.org/2000/svg">
<path d="M161.904 81.3121C158.728 104.811 8.84576 106.081 9.48088 80.0418L161.904 81.3121Z" fill="#D3B92C"/>
<path d="M9.48091 81.3122L161.904 82.5824C161.904 82.5824 161.739 9.27284 85.3256 10.6594C12.6709 11.9778 9.48091 81.3122 9.48091 81.3122Z" fill="#D3B92C"/>
<path d="M159.483 80.2187C156.625 101.368 21.7286 102.511 22.3002 79.0754L159.483 80.2187Z" fill="#F2DA5B"/>
<path d="M22.3001 80.2186L159.483 81.3618C159.483 81.3618 159.334 15.3821 90.5615 16.63C25.1712 17.8166 22.3001 80.2186 22.3001 80.2186Z" fill="#F2DA5B"/>
<path d="M161.904 82.5824C161.904 82.5824 161.739 9.27284 85.3256 10.6594C12.6709 11.9778 9.48091 81.3122 9.48091 81.3122" stroke="black" stroke-width="5"/>
<path d="M161.904 81.3121C158.728 104.811 8.84576 106.081 9.48088 80.0418" stroke="black" stroke-width="5"/>
</svg>
