<svg width="257" height="144" viewBox="0 0 257 144" fill="none" xmlns="http://www.w3.org/2000/svg">
<path d="M257 55.0367C257 85.4326 199.468 144 128.5 144C57.5313 144 -0.00012207 85.4326 -0.00012207 55.0367C-0.00012207 24.6408 57.5313 0 128.5 0C199.468 0 257 24.6408 257 55.0367Z" fill="white"/>
<path d="M246.247 58.455C246.247 87.1239 191.845 142.364 124.736 142.364C57.6279 142.364 3.22583 87.1239 3.22583 58.455C3.22583 29.7861 57.6279 3.27271 124.736 3.27271C191.845 3.27271 249.473 24.0914 246.247 58.455Z" fill="#F2DA5B"/>
<path d="M246.247 57.6818C246.247 85.1418 196.403 137.455 132.264 137.455C48.389 142.364 13.979 78.1872 13.979 50.7273C13.979 23.2674 85.924 50.7273 132.264 50.7273C196.782 50.7273 246.247 18.5976 246.247 57.6818Z" fill="#FFEFA5"/>
<path d="M254.5 55.0367C254.5 61.9299 251.198 70.7975 244.821 80.3748C238.482 89.8944 229.26 99.8773 217.81 108.958C194.896 127.129 163.303 141.5 128.5 141.5C93.6967 141.5 62.1035 127.129 39.1901 108.958C27.7396 99.8773 18.5179 89.8944 12.1789 80.3748C5.80155 70.7975 2.49988 61.9299 2.49988 55.0367C2.49988 48.2837 5.68469 41.6408 11.8769 35.3706C18.0796 29.0896 27.1791 23.3185 38.6209 18.418C61.4956 8.62072 93.2709 2.5 128.5 2.5C163.729 2.5 195.504 8.62072 218.379 18.418C229.821 23.3185 238.92 29.0896 245.123 35.3706C251.315 41.6408 254.5 48.2837 254.5 55.0367Z" stroke="black" stroke-width="5"/>
<ellipse cx="26.9999" cy="71.0001" rx="11" ry="19" transform="rotate(-23.6414 26.9999 71.0001)" fill="black"/>
</svg>
