<svg width="66" height="196" viewBox="0 0 66 196" fill="none" xmlns="http://www.w3.org/2000/svg">
<path d="M42 174.966L24 19.2556C32.4 22.2624 42 12.9914 46 7.44312L56 174.966C49.9938 180.76 46.9971 180.013 42 174.966Z" fill="#2E364B"/>
<path d="M39.95 175.143L25 28.5712C28.7697 30.7953 30.6145 31.3317 34.5707 30.0677C36.533 29.4407 38.6388 30.7122 38.772 32.7679L48 175.143C44.5465 180.634 42.8233 179.926 39.95 175.143Z" fill="#434F6D"/>
<path d="M42 174.966L24 19.2556C32.4 22.2624 42 12.9914 46 7.44312L56 174.966C49.9938 180.76 46.9971 180.013 42 174.966Z" stroke="black" stroke-width="5"/>
<path d="M40.2287 170.805C45.632 172.197 49.886 170.893 54.1605 168.744C55.3472 168.148 56.7993 168.787 57.1 170.081L59.9786 182.463C60.2538 183.647 59.4179 184.8 58.207 184.908L11.9998 189C-4.96241 189 3.96 169.756 39.7595 170.737C39.9156 170.742 40.0775 170.766 40.2287 170.805Z" fill="#1D2334"/>
<path d="M40.4443 171.001C45.3458 173.806 45.9281 173.365 47.8538 172.151C49.061 171.39 50.4998 172.317 50.4998 173.744L50.4998 174.498C50.4998 175.44 49.8415 176.255 48.9198 176.453L13.2076 184.123C13.0696 184.153 12.9201 184.168 12.7789 184.167C-3.84902 184.042 4.07928 169.814 39.4819 170.73C39.8146 170.739 40.1555 170.836 40.4443 171.001Z" fill="#2E364B"/>
<path d="M41.0405 168.925C46.1277 172.728 50.8715 170.702 54.3 168.245C55.4176 167.444 57.0257 167.834 57.5297 169.114L62.0483 180.584C62.5292 181.805 61.7242 183.15 60.4212 183.303L11.9999 189C-4.88975 189 4.37794 167.706 39.8016 168.482C40.2459 168.492 40.6845 168.659 41.0405 168.925Z" stroke="black" stroke-width="5"/>
<path d="M2.7096 186.982C2.49634 184.202 4.98483 181.982 7.73533 182.437C26.4582 185.537 38.7755 185.017 56.848 178.786C59.4768 177.88 62.3016 179.663 62.5143 182.435C62.6594 184.327 61.5007 186.085 59.6974 186.676C39.3285 193.35 26.6179 194.269 6.1812 190.806C4.28411 190.485 2.85678 188.9 2.7096 186.982Z" fill="#3D5AA4" stroke="black" stroke-width="5"/>
<g filter="url(#filter0_f)">
<path d="M6.88399 186.423C6.99587 186.142 7.29008 185.969 7.59132 185.998C30.1177 188.144 34.4783 188.596 55.6571 182.913C56.4066 182.712 57.0545 183.48 56.7217 184.181C56.6082 184.42 56.3868 184.601 56.1312 184.67C33.4611 190.83 29.8751 190.074 7.44865 187.352C7.0052 187.299 6.71885 186.838 6.88399 186.423Z" fill="#7097FF"/>
</g>
<defs>
<filter id="filter0_f" x="2.83667" y="178.881" width="57.9746" height="14.5012" filterUnits="userSpaceOnUse" color-interpolation-filters="sRGB">
<feFlood flood-opacity="0" result="BackgroundImageFix"/>
<feBlend mode="normal" in="SourceGraphic" in2="BackgroundImageFix" result="shape"/>
<feGaussianBlur stdDeviation="2" result="effect1_foregroundBlur"/>
</filter>
</defs>
</svg>
