<svg width="51" height="180" viewBox="0 0 51 180" fill="none" xmlns="http://www.w3.org/2000/svg">
<path d="M37.543 130.269C45.095 43.9867 26.0652 2.2154 10.563 2.70608C4.29188 8.1993 -3.09053 26.2794 9.51488 36.6713C27.4548 51.4609 29.9794 104.974 27.5431 130.215C11.1433 130.127 8.95588 151.543 9.91217 162.262C12.7046 164.113 18.7415 163.266 19.912 162.315C17.9753 146.808 20.4963 141.656 23.9939 142.249C28.7302 157.886 27.8886 168.098 25.8722 172.105C27.4609 174.868 33.3526 176.928 33.8534 176.739C34.3487 177.89 36.3674 173.309 36.3674 173.309C37.9561 176.073 43.3509 177.364 44.8532 176.798C53.3039 162.344 43.5445 136.085 37.543 130.269Z" fill="#967BE7"/>
<path d="M37.543 130.269C45.095 43.9867 26.0652 2.2154 10.563 2.70608C8.36711 9.86336 13.5067 16.4968 20.4598 28.0133C41.4158 62.7224 33.9582 110.161 31.5219 135.402C15.122 135.314 8.95588 151.543 9.91217 162.262C12.7046 164.113 18.7415 163.266 19.912 162.315C17.9753 146.808 20.4963 141.656 23.9939 142.249C28.7302 157.886 27.8886 168.098 25.8722 172.105C27.4609 174.868 33.3526 176.928 33.8534 176.739C34.3487 177.89 36.3674 173.309 36.3674 173.309C37.9561 176.073 43.3509 177.364 44.8532 176.798C53.3039 162.344 43.5445 136.085 37.543 130.269Z" fill="#A68EEC"/>
<path d="M36.3674 173.309C37.9561 176.073 43.3509 177.364 44.8532 176.798C53.3039 162.344 43.5445 136.085 37.543 130.269C45.095 43.9867 26.0652 2.2154 10.563 2.70608C0.67062 8.6234 0.874243 25.7817 7.63385 35.7029C25.5737 50.4925 29.9794 104.974 27.5431 130.215C11.1433 130.127 8.95588 151.543 9.91217 162.262C12.7047 164.113 18.7415 163.266 19.912 162.315C17.9753 146.808 20.4963 141.656 23.9939 142.249C28.7302 157.886 27.8886 168.098 25.8722 172.105C27.4609 174.868 33.3526 176.928 33.8534 176.739C34.3487 177.89 36.3674 173.309 36.3674 173.309ZM36.3674 173.309C38.1247 164.284 38.4352 156.676 34.4798 145.749" stroke="black" stroke-width="5" stroke-linecap="round" stroke-linejoin="round"/>
</svg>
