<svg width="150" height="253" viewBox="0 0 150 253" fill="none" xmlns="http://www.w3.org/2000/svg">
<path d="M7.5 233.08V223.08L13 206.58L29.5 204.58L73.5 197.079C76.4307 195.981 79.5783 195.009 83 194.08C129 181.58 144.667 213.246 139.5 233.08C129.1 237.08 71.5 233.746 44 231.58L42 236.08L7.5 233.08Z" fill="#755422"/>
<path d="M45.5 221.08C53.7929 207.683 61.966 201.402 73.5 197.079M73.5 197.079C76.4307 195.981 79.5783 195.009 83 194.08C129 181.58 144.667 213.246 139.5 233.08C129.1 237.08 71.5 233.746 44 231.58L42 236.08L7.5 233.08V223.08L13 206.58L29.5 204.58L73.5 197.079Z" stroke="black" stroke-width="5"/>
<path d="M9.00003 244.58C6.20003 241.78 6.50003 236.08 7.00003 233.58C8.60005 234.78 30.3334 235.413 41 235.58L43 232.08C62 233.58 123.721 237.182 144 232.08L147 244.58C136.2 253.38 74.5 249.58 45 246.58L43 248.58C32.8333 248.413 11.8 247.38 9.00003 244.58Z" fill="#4D3415" stroke="black" stroke-width="5"/>
<path d="M55.9999 94.0797L60.9999 3.07971H106.5V105.58L101.5 121.58L89 118.08C83.3333 131.58 68.3 165.18 71.5 189.58L76 195.58C64.5 200.08 57.8333 204.746 54.5 209.08L38 217.08L30 208.08L26 220.08L4.5 224.08L3 211.08L14.5 201.58L10.5 195.08L20.4999 186.08C14.8999 164.48 41.8332 115.746 55.9999 94.0797Z" fill="#1C2856" stroke="black" stroke-width="5"/>
<path d="M46.0003 111.5C64.4003 100.3 64.3336 167.833 62.0003 203L37.5 216L29.5 208L26 219.5L5 224.5L3 212L13.5 201.5L10.5 195L21.5003 187C16.3003 161 35.667 125.833 46.0003 111.5Z" fill="#363D6B"/>
<path d="M55.9999 94.0797L60.9999 3.07971H106.5V105.58L101.5 121.58L89 118.08C83.3333 131.58 68.3 165.18 71.5 189.58L76 195.58C64.5 200.08 57.8333 204.746 54.5 209.08L38 217.08L30 208.08L26 220.08L4.5 224.08L3 211.08L14.5 201.58L10.5 195.08L20.4999 186.08C14.8999 164.48 41.8332 115.746 55.9999 94.0797Z" stroke="black" stroke-width="5"/>
</svg>
