<svg width="128" height="295" viewBox="0 0 128 295" fill="none" xmlns="http://www.w3.org/2000/svg">
<path d="M60.3449 92.6375L62.9938 27.4955L80.7286 14.5542L83.1322 8.76861L102.95 53.4286L101.155 178.816L55.9843 179.581L54.298 163.67L56.1242 119.23L52.772 116.066L58.1819 105.437L54.2798 101.828L60.3449 92.6375Z" fill="#4D3415" stroke="black" stroke-width="5"/>
<path d="M69.1326 23.7479L78.9757 173.545L54.7107 167.569L54.7292 120.304L52.1606 115.045L58.2257 105.855L54.1128 100.257L60.8333 92.5056L63.9267 26.8136L69.1326 23.7479Z" fill="#735321"/>
<path d="M60.3449 92.6375L62.9938 27.4955L80.7286 14.5542L83.1322 8.76861L102.95 53.4286L101.155 178.816L55.9843 179.581L54.298 163.67L56.1242 119.23L52.772 116.066L58.1819 105.437L54.2798 101.828L60.3449 92.6375Z" stroke="black" stroke-width="5"/>
<path d="M40.4168 222.461C38.23 209.419 48.984 198.927 54.6344 195.311C59.3378 196.992 72.8219 199.92 89.1305 198.192C100.129 207.082 98.5584 219.148 96.3985 224.07L105.513 234.165C117.676 231.267 120.912 235.55 121.009 238.054C122.624 241.905 114.603 251.47 110.39 255.772C110.493 263.779 105.549 277.637 101.879 275.78C96.9511 273.286 96.8773 271.282 96.8773 271.282C97.9129 284.849 87.8258 288.666 82.6528 288.879L78.9317 282.235L68.355 277.322L61.8409 244.325L53.4019 264.326L59.5403 284.29C45.0574 291.858 38.6046 286.006 37.1886 282.134C39.2379 278.699 36.6371 267.443 35.0806 262.245L39.3905 250.727C24.607 247.869 22.8053 236.562 23.7524 231.266L40.4168 222.461Z" fill="#6D7E5D"/>
<path d="M54.6344 195.311L55.4755 192.957L54.3202 192.544L53.2869 193.206L54.6344 195.311ZM40.4168 222.461L41.5847 224.671L43.1809 223.828L42.8823 222.048L40.4168 222.461ZM23.7524 231.266L22.5844 229.056L21.5061 229.626L21.2914 230.826L23.7524 231.266ZM60.3126 229.906L60.9643 227.492L58.4057 226.801L57.8652 229.396L60.3126 229.906ZM35.0806 262.245L32.7391 261.369L32.4444 262.157L32.6857 262.962L35.0806 262.245ZM37.1886 282.134L35.0416 280.853L34.432 281.875L34.8406 282.992L37.1886 282.134ZM59.5403 284.29L60.6982 286.506L62.541 285.543L61.9299 283.555L59.5403 284.29ZM61.8409 244.325L64.2935 243.841L59.5375 243.353L61.8409 244.325ZM68.355 277.322L65.9023 277.806L66.1486 279.054L67.3019 279.589L68.355 277.322ZM78.9317 282.235L81.113 281.013L80.718 280.308L79.9848 279.967L78.9317 282.235ZM82.6528 288.879L80.4715 290.101L81.2217 291.44L82.7557 291.377L82.6528 288.879ZM96.8773 271.282L99.37 271.092L99.269 269.768L98.1161 269.111L96.8773 271.282ZM101.879 275.78L100.75 278.011L101.879 275.78ZM108.247 250.468L109.047 248.099L108.247 250.468ZM96.1556 250.241L94.3943 252.015L95.4211 253.034L96.8164 252.652L96.1556 250.241ZM110.39 255.772L107.89 255.804L110.39 255.772ZM121.009 238.054L118.511 238.151L118.529 238.603L118.704 239.02L121.009 238.054ZM105.513 234.165L103.658 235.841L104.651 236.941L106.093 236.597L105.513 234.165ZM96.3985 224.07L94.1092 223.065L93.4597 224.545L94.5429 225.745L96.3985 224.07ZM89.1305 198.192L90.7021 196.247L89.8968 195.596L88.867 195.705L89.1305 198.192ZM53.2869 193.206C50.2065 195.177 45.8404 198.939 42.5034 203.969C39.1549 209.017 36.721 215.538 37.9512 222.874L42.8823 222.048C41.9257 216.342 43.7754 211.096 46.6699 206.733C49.5758 202.353 53.4119 199.062 55.9819 197.417L53.2869 193.206ZM39.2488 220.251L22.5844 229.056L24.9203 233.477L41.5847 224.671L39.2488 220.251ZM21.2914 230.826C20.7321 233.954 20.9861 238.713 23.4976 243.144C26.0701 247.682 30.8718 251.626 38.9161 253.181L39.865 248.272C33.1258 246.969 29.6348 243.831 27.8474 240.678C25.9989 237.417 25.8255 233.875 26.2133 231.707L21.2914 230.826ZM40.2342 253.08C43.4691 251.92 48.3635 249.455 52.7957 245.75C57.2189 242.052 61.4031 236.928 62.76 230.415L57.8652 229.396C56.8226 234.4 53.5329 238.616 49.5885 241.914C45.6531 245.204 41.2862 247.391 38.5469 248.373L40.2342 253.08ZM59.6609 232.319C62.6037 233.114 67.278 233.713 71.9308 232.944C76.6076 232.17 81.5928 229.939 84.4535 224.766L80.0779 222.347C78.213 225.719 74.896 227.385 71.1147 228.011C67.3096 228.64 63.3701 228.142 60.9643 227.492L59.6609 232.319ZM37.0491 249.851L32.7391 261.369L37.422 263.121L41.732 251.603L37.0491 249.851ZM32.6857 262.962C33.4399 265.481 34.4483 269.477 35.0149 273.224C35.2987 275.102 35.4606 276.846 35.4428 278.277C35.4238 279.812 35.1974 280.592 35.0416 280.853L39.3355 283.415C40.2044 281.958 40.4214 280.042 40.4425 278.339C40.4648 276.531 40.2634 274.492 39.9587 272.477C39.3481 268.439 38.2778 264.207 37.4755 261.528L32.6857 262.962ZM34.8406 282.992C35.8097 285.642 38.3744 288.682 42.7947 289.911C47.2099 291.138 53.114 290.469 60.6982 286.506L58.3824 282.074C51.4837 285.679 46.9199 285.868 44.134 285.093C41.3531 284.32 39.9834 282.497 39.5365 281.275L34.8406 282.992ZM61.9299 283.555L55.7915 263.591L51.0123 265.06L57.1507 285.025L61.9299 283.555ZM55.7053 265.297L64.1442 245.297L59.5375 243.353L51.0986 263.354L55.7053 265.297ZM59.3882 244.809L65.9023 277.806L70.8077 276.838L64.2935 243.841L59.3882 244.809ZM67.3019 279.589L77.8786 284.502L79.9848 279.967L69.4081 275.055L67.3019 279.589ZM76.7504 283.456L80.4715 290.101L84.834 287.658L81.113 281.013L76.7504 283.456ZM82.7557 291.377C85.7877 291.252 90.1902 290.096 93.7458 286.964C97.4174 283.73 99.943 278.597 99.37 271.092L94.3845 271.472C94.8472 277.533 92.8471 281.093 90.4408 283.212C87.9185 285.434 84.6909 286.293 82.5499 286.382L82.7557 291.377ZM98.1161 269.111L84.7371 261.478L82.2595 265.821L95.6385 273.454L98.1161 269.111ZM85.5497 262.221C83.5495 259.349 78.5876 250.573 75.4077 239.288L70.5952 240.645C73.9317 252.485 79.1397 261.766 81.447 265.079L85.5497 262.221ZM75.4077 239.288C75.3773 239.18 75.347 239.072 75.3168 238.964L70.499 240.301C70.5309 240.416 70.5629 240.53 70.5952 240.645L75.4077 239.288ZM96.8773 271.282C94.379 271.374 94.3791 271.377 94.3792 271.38C94.3792 271.381 94.3794 271.384 94.3794 271.386C94.3796 271.39 94.3798 271.394 94.38 271.398C94.3804 271.406 94.3808 271.414 94.3812 271.423C94.3822 271.44 94.3833 271.457 94.3847 271.475C94.3873 271.511 94.3909 271.549 94.3954 271.589C94.4046 271.669 94.4178 271.757 94.4364 271.852C94.4737 272.043 94.5322 272.261 94.6212 272.502C94.8002 272.985 95.0943 273.538 95.5596 274.134C96.4834 275.317 98.0639 276.651 100.75 278.011L103.008 273.549C100.766 272.415 99.8459 271.499 99.5008 271.057C99.3316 270.84 99.2993 270.736 99.3105 270.767C99.3155 270.78 99.3297 270.822 99.3438 270.894C99.3508 270.93 99.3576 270.972 99.3632 271.022C99.366 271.047 99.3685 271.073 99.3706 271.101C99.3717 271.115 99.3726 271.129 99.3735 271.144C99.3739 271.152 99.3743 271.159 99.3746 271.167C99.3748 271.171 99.375 271.175 99.3751 271.178C99.3752 271.18 99.3753 271.183 99.3754 271.184C99.3755 271.187 99.3756 271.19 96.8773 271.282ZM109.047 248.099C105.708 246.972 102.309 246.927 99.8273 247.13C98.571 247.232 97.5108 247.402 96.7574 247.547C96.3799 247.62 96.077 247.687 95.8625 247.738C95.7552 247.763 95.6698 247.784 95.608 247.8C95.5771 247.808 95.552 247.815 95.5331 247.82C95.5236 247.822 95.5157 247.824 95.5093 247.826C95.5061 247.827 95.5033 247.828 95.5009 247.828C95.4997 247.829 95.4985 247.829 95.4975 247.829C95.497 247.829 95.4963 247.829 95.4961 247.83C95.4954 247.83 95.4948 247.83 96.1556 250.241C96.8164 252.652 96.8158 252.652 96.8152 252.652C96.815 252.652 96.8145 252.653 96.8142 252.653C96.8136 252.653 96.813 252.653 96.8126 252.653C96.8117 252.653 96.8112 252.654 96.811 252.654C96.8107 252.654 96.8119 252.653 96.8145 252.653C96.8198 252.651 96.8309 252.648 96.8475 252.644C96.8809 252.636 96.9365 252.622 97.0129 252.604C97.1657 252.567 97.4005 252.515 97.7043 252.456C98.3136 252.339 99.1908 252.198 100.234 252.113C102.35 251.941 104.997 252.009 107.447 252.837L109.047 248.099ZM97.9168 248.467C95.6442 246.211 94.0987 244.378 92.8387 242.31C91.5736 240.233 90.5345 237.819 89.3849 234.337L84.637 235.904C85.8482 239.573 87.0283 242.383 88.5688 244.911C90.1143 247.448 91.9608 249.6 94.3943 252.015L97.9168 248.467ZM100.75 278.011C101.978 278.632 103.254 278.541 104.321 278.065C105.292 277.632 106.075 276.898 106.685 276.172C107.915 274.709 108.992 272.614 109.873 270.398C111.641 265.947 112.947 260.151 112.89 255.739L107.89 255.804C107.937 259.399 106.821 264.536 105.226 268.552C104.425 270.569 103.584 272.091 102.858 272.954C102.687 273.158 102.543 273.299 102.434 273.39C102.322 273.483 102.271 273.505 102.284 273.499C102.379 273.456 102.698 273.393 103.008 273.549L100.75 278.011ZM112.89 255.739C112.87 254.224 112.689 252.698 112.199 251.396C111.708 250.091 110.765 248.679 109.047 248.099L107.447 252.837C107.207 252.756 107.318 252.622 107.52 253.158C107.723 253.696 107.874 254.573 107.89 255.804L112.89 255.739ZM112.176 257.521C114.349 255.302 117.512 251.722 119.949 248.154C121.163 246.378 122.262 244.511 122.951 242.755C123.59 241.128 124.117 239 123.315 237.087L118.704 239.02C118.692 238.991 118.747 239.101 118.706 239.46C118.665 239.816 118.542 240.304 118.297 240.929C117.804 242.184 116.938 243.699 115.821 245.333C113.598 248.587 110.644 251.94 108.604 254.022L112.176 257.521ZM123.508 237.956C123.418 235.66 121.924 233.162 118.785 231.792C115.739 230.463 111.269 230.224 104.934 231.733L106.093 236.597C111.92 235.209 115.149 235.661 116.786 236.375C118.33 237.049 118.503 237.943 118.511 238.151L123.508 237.956ZM107.369 232.49L98.2541 222.394L94.5429 225.745L103.658 235.841L107.369 232.49ZM98.6877 225.074C101.141 219.484 102.852 206.069 90.7021 196.247L87.5589 200.136C97.4055 208.095 95.976 218.811 94.1092 223.065L98.6877 225.074ZM53.7933 197.666C58.8448 199.47 72.7061 202.446 89.394 200.678L88.867 195.705C72.9376 197.394 59.8308 194.513 55.4755 192.957L53.7933 197.666ZM56.7724 243.659C61.6434 245.128 67.9482 244.091 73.7193 242.361L72.2835 237.572C66.6647 239.256 61.5884 239.889 58.2161 238.872L56.7724 243.659ZM73.7193 242.361C81.9009 239.909 90.079 235.724 94.0047 233.082L91.2126 228.934C87.7044 231.295 79.9836 235.263 72.2835 237.572L73.7193 242.361ZM53.1384 261.84C52.2082 261.938 50.6695 261.989 49.2038 261.816C48.4743 261.73 47.8301 261.596 47.3176 261.42C46.7854 261.237 46.543 261.058 46.4622 260.977L42.9085 264.494C43.7286 265.323 44.7568 265.827 45.6911 266.148C46.6452 266.476 47.6635 266.669 48.6185 266.782C50.522 267.006 52.4408 266.941 53.6654 266.812L53.1384 261.84ZM82.7054 261.279C80.96 261.863 79.5075 262.453 78.284 263.28C76.9963 264.151 76.0904 265.195 75.2813 266.494L79.5256 269.137C80.0546 268.287 80.5051 267.814 81.0849 267.422C81.7287 266.986 82.6546 266.568 84.2913 266.021L82.7054 261.279Z" fill="black"/>
<path d="M54.4658 226.925C82.1174 218.363 82.025 203.892 78.5224 197.727C75.032 196.421 65.4086 194.491 54.8374 197.221C44.2662 199.95 41.2155 215.76 41.0115 223.323C35.3763 223.921 25.0714 228.533 23.9019 232.679C22.7324 236.825 27.9919 242.804 31.3968 246.466L54.4658 226.925Z" fill="#79896A"/>
<path d="M54.6344 195.311L55.4755 192.957L54.3202 192.544L53.2869 193.206L54.6344 195.311ZM40.4168 222.461L41.5847 224.671L43.1809 223.828L42.8823 222.048L40.4168 222.461ZM23.7524 231.266L22.5844 229.056L21.5061 229.626L21.2914 230.826L23.7524 231.266ZM60.3126 229.906L60.9643 227.492L58.4057 226.801L57.8652 229.396L60.3126 229.906ZM35.0806 262.245L32.7391 261.369L32.4444 262.157L32.6857 262.962L35.0806 262.245ZM37.1886 282.134L35.0416 280.853L34.432 281.875L34.8406 282.992L37.1886 282.134ZM59.5403 284.29L60.6982 286.506L62.541 285.543L61.9299 283.555L59.5403 284.29ZM61.8409 244.325L64.2935 243.841L59.5375 243.353L61.8409 244.325ZM68.355 277.322L65.9023 277.806L66.1486 279.054L67.3019 279.589L68.355 277.322ZM78.9317 282.235L81.113 281.013L80.718 280.308L79.9848 279.967L78.9317 282.235ZM82.6528 288.879L80.4715 290.101L81.2217 291.44L82.7557 291.377L82.6528 288.879ZM96.8773 271.282L99.37 271.092L99.269 269.768L98.1161 269.111L96.8773 271.282ZM101.879 275.78L100.75 278.011L101.879 275.78ZM108.247 250.468L107.447 252.837L108.247 250.468ZM96.1556 250.241L94.3943 252.015L95.4211 253.034L96.8164 252.652L96.1556 250.241ZM121.009 238.054L118.511 238.151L118.529 238.603L118.704 239.02L121.009 238.054ZM105.513 234.165L103.658 235.841L104.651 236.941L106.093 236.597L105.513 234.165ZM96.3985 224.07L94.1092 223.065L93.4597 224.545L94.5429 225.745L96.3985 224.07ZM89.1305 198.192L90.7021 196.247L89.8968 195.596L88.867 195.705L89.1305 198.192ZM53.2869 193.206C50.2065 195.177 45.8404 198.939 42.5034 203.969C39.1549 209.017 36.721 215.538 37.9512 222.874L42.8823 222.048C41.9257 216.342 43.7754 211.096 46.6699 206.733C49.5758 202.353 53.4119 199.062 55.9819 197.417L53.2869 193.206ZM39.2488 220.251L22.5844 229.056L24.9203 233.477L41.5847 224.671L39.2488 220.251ZM21.2914 230.826C20.7321 233.954 20.9861 238.713 23.4976 243.144C26.0701 247.682 30.8718 251.626 38.9161 253.181L39.865 248.272C33.1258 246.969 29.6348 243.831 27.8474 240.678C25.9989 237.417 25.8255 233.875 26.2133 231.707L21.2914 230.826ZM40.2342 253.08C43.4691 251.92 48.3635 249.455 52.7957 245.75C57.2189 242.052 61.4031 236.928 62.76 230.415L57.8652 229.396C56.8226 234.4 53.5329 238.616 49.5885 241.914C45.6531 245.204 41.2862 247.391 38.5469 248.373L40.2342 253.08ZM59.6609 232.319C62.6037 233.114 67.278 233.713 71.9308 232.944C76.6076 232.17 81.5928 229.939 84.4535 224.766L80.0779 222.347C78.213 225.719 74.896 227.385 71.1147 228.011C67.3096 228.64 63.3701 228.142 60.9643 227.492L59.6609 232.319ZM37.0491 249.851L32.7391 261.369L37.422 263.121L41.732 251.603L37.0491 249.851ZM32.6857 262.962C33.4399 265.481 34.4483 269.477 35.0149 273.224C35.2987 275.102 35.4606 276.846 35.4428 278.277C35.4238 279.812 35.1974 280.592 35.0416 280.853L39.3355 283.415C40.2044 281.958 40.4214 280.042 40.4425 278.339C40.4648 276.531 40.2634 274.492 39.9587 272.477C39.3481 268.439 38.2778 264.207 37.4755 261.528L32.6857 262.962ZM34.8406 282.992C35.8097 285.642 38.3744 288.682 42.7947 289.911C47.2099 291.138 53.114 290.469 60.6982 286.506L58.3824 282.074C51.4837 285.679 46.9199 285.868 44.134 285.093C41.3531 284.32 39.9834 282.497 39.5365 281.275L34.8406 282.992ZM61.9299 283.555L55.7915 263.591L51.0123 265.06L57.1507 285.025L61.9299 283.555ZM55.7053 265.297L64.1442 245.297L59.5375 243.353L51.0986 263.354L55.7053 265.297ZM59.3882 244.809L65.9023 277.806L70.8077 276.838L64.2935 243.841L59.3882 244.809ZM67.3019 279.589L77.8786 284.502L79.9848 279.967L69.4081 275.055L67.3019 279.589ZM76.7504 283.456L80.4715 290.101L84.834 287.658L81.113 281.013L76.7504 283.456ZM82.7557 291.377C85.7877 291.252 90.1902 290.096 93.7458 286.964C97.4174 283.73 99.943 278.597 99.37 271.092L94.3845 271.472C94.8472 277.533 92.8471 281.093 90.4408 283.212C87.9185 285.434 84.6909 286.293 82.5499 286.382L82.7557 291.377ZM98.1161 269.111L84.7371 261.478L82.2595 265.821L95.6385 273.454L98.1161 269.111ZM85.5497 262.221C83.5296 259.321 78.4919 250.403 75.3169 238.964L70.499 240.301C73.8312 252.306 79.1182 261.736 81.447 265.079L85.5497 262.221ZM96.8773 271.282C94.379 271.374 94.3791 271.377 94.3792 271.38C94.3792 271.381 94.3794 271.384 94.3794 271.386C94.3796 271.39 94.3798 271.394 94.38 271.398C94.3804 271.406 94.3808 271.414 94.3812 271.423C94.3822 271.44 94.3833 271.457 94.3847 271.475C94.3873 271.511 94.3909 271.549 94.3954 271.589C94.4046 271.669 94.4178 271.757 94.4364 271.852C94.4737 272.043 94.5322 272.261 94.6212 272.502C94.8002 272.985 95.0943 273.538 95.5596 274.134C96.4834 275.317 98.0639 276.651 100.75 278.011L103.008 273.549C100.766 272.415 99.8459 271.499 99.5008 271.057C99.3316 270.84 99.2993 270.736 99.3105 270.767C99.3155 270.78 99.3297 270.822 99.3438 270.894C99.3508 270.93 99.3576 270.972 99.3632 271.022C99.366 271.047 99.3685 271.073 99.3706 271.101C99.3717 271.115 99.3726 271.129 99.3735 271.144C99.3739 271.152 99.3743 271.159 99.3746 271.167C99.3748 271.171 99.375 271.175 99.3751 271.178C99.3752 271.18 99.3753 271.183 99.3754 271.184C99.3755 271.187 99.3756 271.19 96.8773 271.282ZM109.047 248.099C105.708 246.972 102.309 246.927 99.8273 247.13C98.571 247.232 97.5108 247.402 96.7574 247.547C96.3799 247.62 96.077 247.687 95.8625 247.738C95.7552 247.763 95.6698 247.784 95.608 247.8C95.5771 247.808 95.552 247.815 95.5331 247.82C95.5236 247.822 95.5157 247.824 95.5093 247.826C95.5061 247.827 95.5033 247.828 95.5009 247.828C95.4997 247.829 95.4985 247.829 95.4975 247.829C95.497 247.829 95.4963 247.829 95.4961 247.83C95.4954 247.83 95.4948 247.83 96.1556 250.241C96.8164 252.652 96.8158 252.652 96.8152 252.652C96.815 252.652 96.8145 252.653 96.8142 252.653C96.8136 252.653 96.813 252.653 96.8126 252.653C96.8117 252.653 96.8112 252.654 96.811 252.654C96.8107 252.654 96.8119 252.653 96.8145 252.653C96.8198 252.651 96.8309 252.648 96.8475 252.644C96.8809 252.636 96.9365 252.622 97.0129 252.604C97.1657 252.567 97.4005 252.515 97.7043 252.456C98.3136 252.339 99.1908 252.198 100.234 252.113C102.35 251.941 104.997 252.009 107.447 252.837L109.047 248.099ZM97.9168 248.467C95.6442 246.211 94.0987 244.378 92.8387 242.31C91.5736 240.233 90.5345 237.819 89.3849 234.337L84.637 235.904C85.8482 239.573 87.0283 242.383 88.5688 244.911C90.1143 247.448 91.9608 249.6 94.3943 252.015L97.9168 248.467ZM100.75 278.011C101.978 278.632 103.254 278.541 104.321 278.065C105.292 277.632 106.075 276.898 106.685 276.172C107.915 274.709 108.992 272.614 109.873 270.398C111.641 265.947 112.947 260.151 112.89 255.739L107.89 255.804C107.937 259.399 106.821 264.536 105.226 268.552C104.425 270.569 103.584 272.091 102.858 272.954C102.687 273.158 102.543 273.299 102.434 273.39C102.322 273.483 102.271 273.505 102.284 273.499C102.379 273.456 102.698 273.393 103.008 273.549L100.75 278.011ZM112.89 255.739C112.87 254.224 112.689 252.698 112.199 251.396C111.708 250.091 110.765 248.679 109.047 248.099L107.447 252.837C107.207 252.756 107.318 252.622 107.52 253.158C107.723 253.696 107.874 254.573 107.89 255.804L112.89 255.739ZM112.176 257.521C114.349 255.302 117.512 251.722 119.949 248.154C121.163 246.378 122.262 244.511 122.951 242.755C123.59 241.128 124.117 239 123.315 237.087L118.704 239.02C118.692 238.991 118.747 239.101 118.706 239.46C118.665 239.816 118.542 240.304 118.297 240.929C117.804 242.184 116.938 243.699 115.821 245.333C113.598 248.587 110.644 251.94 108.604 254.022L112.176 257.521ZM123.508 237.956C123.418 235.66 121.924 233.162 118.785 231.792C115.739 230.463 111.269 230.224 104.934 231.733L106.093 236.597C111.92 235.209 115.149 235.661 116.786 236.375C118.33 237.049 118.503 237.943 118.511 238.151L123.508 237.956ZM107.369 232.49L98.2541 222.394L94.5429 225.745L103.658 235.841L107.369 232.49ZM98.6877 225.074C101.141 219.484 102.852 206.069 90.7021 196.247L87.5589 200.136C97.4055 208.095 95.976 218.811 94.1092 223.065L98.6877 225.074ZM53.7933 197.666C58.8448 199.47 72.7061 202.446 89.394 200.678L88.867 195.705C72.9376 197.394 59.8308 194.513 55.4755 192.957L53.7933 197.666ZM56.7724 243.659C59.7396 244.554 63.1849 244.508 66.6161 243.995C70.0802 243.478 73.7255 242.454 77.1964 241.22C84.1161 238.759 90.6194 235.361 94.0047 233.082L91.2126 228.934C88.2152 230.952 82.0956 234.171 75.521 236.509C72.2447 237.674 68.925 238.595 65.8772 239.05C62.7966 239.511 60.1833 239.466 58.2161 238.872L56.7724 243.659ZM53.1384 261.84C52.2082 261.938 50.6695 261.989 49.2038 261.816C48.4743 261.73 47.8301 261.596 47.3176 261.42C46.7854 261.237 46.543 261.058 46.4622 260.977L42.9085 264.494C43.7286 265.323 44.7568 265.827 45.6911 266.148C46.6452 266.476 47.6635 266.669 48.6185 266.782C50.522 267.006 52.4408 266.941 53.6654 266.812L53.1384 261.84ZM82.7054 261.279C80.96 261.863 79.5075 262.453 78.284 263.28C76.9963 264.151 76.0904 265.195 75.2813 266.494L79.5256 269.137C80.0546 268.287 80.5051 267.814 81.0849 267.422C81.7287 266.986 82.6546 266.568 84.2913 266.021L82.7054 261.279Z" fill="black"/>
<path d="M49.9283 165.139L47.5155 194.557C53.8432 201.127 88.9394 199.552 105.697 197.944L104.968 167.35L75.7835 162.399L71.6546 170.881L67.8281 163.242L49.9283 165.139Z" fill="#4D3415" stroke="black" stroke-width="5"/>
<path d="M67.3229 163.215L51.6228 166.891L48.0575 194.923L79.1781 199.166C74.4598 188.806 83.5469 172.39 88.6802 165.477L75.2784 162.372L71.6993 171.299L67.3229 163.215Z" fill="#755422"/>
<path d="M49.9283 165.139L47.5155 194.557C53.8432 201.127 88.9394 199.552 105.697 197.944L104.968 167.35L75.7835 162.399L71.6546 170.881L67.8281 163.242L49.9283 165.139Z" stroke="black" stroke-width="5"/>
</svg>
