<svg width="83" height="185" viewBox="0 0 83 185" fill="none" xmlns="http://www.w3.org/2000/svg">
<path d="M49.1084 66.7421C49.1084 66.7421 42.2309 18.2686 43.4723 9.60079C36.9758 18.1217 31.3346 30.7604 10.8533 27.2558C26.2085 34.2493 18.9674 70.4861 18.9674 70.4861C18.6789 85.1047 47.3205 85.9311 49.1084 66.7421Z" fill="#967BE7"/>
<path d="M43.0296 62.4301C43.0296 62.4301 37.7864 25.4754 38.7328 18.8674C33.7801 25.3635 29.4794 34.9988 13.8651 32.327C25.5714 37.6586 20.051 65.2844 20.051 65.2844C19.8311 76.4291 41.6666 77.0592 43.0296 62.4301Z" fill="#A68EEC"/>
<path d="M49.1084 66.7421C49.1084 66.7421 42.2309 18.2686 43.4723 9.60079C36.9758 18.1217 31.3346 30.7604 10.8533 27.2558C26.2085 34.2493 18.9674 70.4861 18.9674 70.4861C18.6789 85.1047 47.3205 85.9311 49.1084 66.7421Z" stroke="black" stroke-width="5"/>
<path d="M49.9555 50.7874C40.3741 67.3217 19.2948 61.4166 19.2948 52.7557C12.4164 52.9085 -0.146043 71.6706 3.9646 91.7295C10.4993 123.617 13.0669 122.83 19.2948 174.008C26.4809 186.605 51.3927 183.062 57.6206 172.039C49.9555 98.422 91.6065 95.747 76.7832 68.109C71.0824 57.4799 49.9555 50.7874 49.9555 50.7874Z" fill="#2E364B"/>
<path d="M49.9555 50.7874C40.3741 67.3217 19.2948 61.4166 19.2948 52.7557C12.4164 52.9085 -0.146043 71.6706 3.9646 91.7295C10.4993 123.617 13.0669 122.83 19.2948 174.008C26.9601 181.881 39.4159 183.849 45.1648 174.008C37.4997 100.39 61.9323 109.839 55.7044 81.8877C53.1585 70.4619 49.9555 50.7874 49.9555 50.7874Z" fill="#434F6D"/>
<path d="M49.9555 50.7874C40.3741 67.3217 19.2948 61.4166 19.2948 52.7557C12.4164 52.9085 -0.146043 71.6706 3.9646 91.7295C10.4993 123.617 13.0669 122.83 19.2948 174.008C26.4809 186.605 51.3927 183.062 57.6206 172.039C49.9555 98.422 91.6065 95.747 76.7832 68.109C71.0824 57.4799 49.9555 50.7874 49.9555 50.7874Z" stroke="black" stroke-width="5"/>
<path d="M25.203 103.344L18.0357 66.2736C17.9356 65.756 18.2545 65.2496 18.7646 65.1163L27.9559 62.7131C28.2363 62.6398 28.5347 62.6917 28.7738 62.8555L36.4279 68.0969C36.7821 68.3394 36.942 68.781 36.8252 69.194L27.1471 103.426C26.8604 104.44 25.403 104.379 25.203 103.344Z" fill="white" stroke="black" stroke-width="4"/>
<path d="M25.1468 103.393L22.2194 90.7641C22.1865 90.6221 22.185 90.4747 22.215 90.3322L25.4932 74.7677C25.7166 73.7071 27.2317 73.71 27.4511 74.7714L30.7419 90.6962C30.7752 90.8578 30.7682 91.025 30.7212 91.1831L27.0796 103.452C26.7874 104.437 25.3787 104.394 25.1468 103.393Z" fill="#2E364B" stroke="black" stroke-width="3"/>
<path d="M25.3309 75.7588L20.7377 68.8391C20.4604 68.4213 20.5354 67.8626 20.9132 67.5328L27.0424 62.1814C27.5033 61.7789 28.2144 61.8812 28.5433 62.3972L32.7535 69.002C33.007 69.3997 32.9482 69.9204 32.6124 70.2515L26.8662 75.9178C26.4183 76.3595 25.6787 76.2829 25.3309 75.7588Z" fill="#2E364B" stroke="black" stroke-width="3"/>
<path d="M30.559 61.439C37.6842 61.9372 44.3665 56.5621 47.1053 51.8726C47.678 50.8919 48.8749 50.358 49.926 50.7881L55.3877 53.023C56.5476 53.4976 56.9903 54.9133 56.2847 55.9491C50.972 63.7475 46.4098 67.9423 38.7494 73.8677C37.8222 74.5849 36.4805 74.3452 35.8519 73.3559L29.3946 63.1944C28.9035 62.4215 29.6455 61.3751 30.559 61.439Z" fill="white" stroke="black" stroke-width="5"/>
<path d="M25.3847 59.9987C21.3273 57.6652 19.9732 56.4901 19.5214 55.2397C19.1311 54.1599 18.3175 53.2665 17.2971 53.7929C15.818 54.5559 14.2113 55.8657 12.9987 57.0149C12.6715 57.325 12.4692 57.7451 12.4273 58.1939C11.9936 62.8372 12.8469 65.6714 14.7852 69.4768C15.3614 70.608 16.8484 70.8771 17.8135 70.0523L25.7157 63.299C26.7797 62.3897 26.5979 60.6964 25.3847 59.9987Z" fill="white" stroke="black" stroke-width="5"/>
</svg>
