<svg width="215" height="246" viewBox="0 0 215 246" fill="none" xmlns="http://www.w3.org/2000/svg">
<path d="M32 112.58L26.5 64.5797L32 61.5797L40.5 47.5797L90.5 180.58L46.5 206.58L32 123.58L40.5 112.58H32Z" fill="#563615" stroke="black" stroke-width="5"/>
<path d="M86.5 200.58L35 54.0797L49 32.0797L69.5 10.5797L179 173.08L86.5 200.58Z" fill="#9CA58F" stroke="black" stroke-width="5"/>
<path d="M54 63.5797L60.5 47.0797L43.5 28.5797L25 50.5797L37.5 67.0797C41.5 68.6797 50.1667 65.413 54 63.5797Z" fill="#5E0E12" stroke="black" stroke-width="5"/>
<path d="M68 166.08L53.5 64.5797L37.5 67.5797C28.7 80.3797 10.8333 133.913 3.5 160.58C7.9 174.18 25.3333 194.913 33.5 203.58C44.7 196.78 61.1667 175.746 68 166.08Z" fill="#5E0E12" stroke="black" stroke-width="5"/>
<path d="M57 165.943L45.7597 87.0797L18.5 120.58C14 133.58 12 140.08 6 160.58C9.41085 171.147 23.9251 188.346 30.2558 195.08C38.938 189.796 51.7028 173.454 57 165.943Z" fill="#C01D25"/>
<path d="M67.5 53.0797L48.5 35.0797L71.5 8.57971L67.5 53.0797Z" fill="#96A488" stroke="black" stroke-width="5"/>
<path d="M185 137.08C177.274 117.58 140 27.0797 75 3.07971L67.5 11.0797C70.7 19.8797 66.1667 64.7464 63.5 86.5797L104 209.08L117.5 241.08C137.5 221.48 147.5 216.58 150 216.58L145.5 202.08L165.5 220.08L174.5 202.08L173 192.58H182C194.4 171.38 207.833 167.08 213 167.58C213 167.58 192.726 156.58 185 137.08Z" fill="#4D3415" stroke="black" stroke-width="5"/>
<path d="M91.5 49.5797C91.1 44.3797 80.3333 19.413 75 7.57971L69 11.5797L63.5 86.0797L117 237.08C121.8 221.88 108 119.413 100 69.0797H83L91.5 49.5797Z" fill="#725120" stroke="black" stroke-width="5"/>
<path d="M128.5 157.58C137.5 153.913 156.3 143.88 159.5 133.08" stroke="black" stroke-width="5"/>
<ellipse cx="144.753" cy="97.281" rx="9" ry="16" transform="rotate(-24.1222 144.753 97.281)" fill="#332514"/>
<ellipse cx="131.403" cy="178.413" rx="5.12645" ry="9.11369" transform="rotate(-24.1222 131.403 178.413)" fill="#332514"/>
<ellipse cx="183.403" cy="164.413" rx="5.12645" ry="9.11369" transform="rotate(-24.1222 183.403 164.413)" fill="#332514"/>
</svg>
