<svg width="258" height="266" viewBox="0 0 258 266" fill="none" xmlns="http://www.w3.org/2000/svg">
<path d="M119.201 250.695L65.3576 241.565L64.322 227.381L53.0912 224.2L50.6982 213.394L65.7838 198.88C67.4333 194.628 64.2957 185.822 62.5207 181.95L48.6688 174.977L30.2684 173.06L19.3594 152.317C35.5058 136.305 32.1249 113.431 28.4161 103.996L19.4235 88.983C49.4932 -11.4414 173.592 8.52747 212.226 38.1911C250.859 67.8548 247.283 126.299 240.89 144.233C235.776 158.58 202.282 188.302 186.174 201.37L164.063 230.234L119.201 250.695Z" fill="#79896A" stroke="black" stroke-width="5"/>
<path d="M42.4738 157.239C59.777 159.042 80.0131 144.338 81.9592 125.662C83.9053 106.985 72.7614 87.5029 55.4581 85.6999C46.3282 84.7486 29.8086 88.2935 23.3813 94.4225C30.3044 104.205 41.5374 131.488 23.3827 147.477C28.2924 152.846 34.9207 156.452 42.4738 157.239Z" fill="#627254"/>
<path d="M168.503 71.8409C164.508 56.1424 188.638 39.4198 201.202 33.0208C257.314 58.9759 242.196 141.353 242.196 141.353C242.585 143.913 206.319 188.132 185.024 202.758L166.105 229.944L135.499 243.847L149.507 225.198C164.312 187.328 160.878 178.793 157.31 179.259C143.095 175.767 129.347 167.8 118.967 151.637C93.167 111.467 127.997 67.9936 168.503 71.8409Z" fill="#627254"/>
<path d="M119.201 250.695L65.3576 241.565L64.322 227.381L53.0912 224.2L50.6982 213.394L65.7838 198.88C67.4333 194.628 64.2957 185.822 62.5207 181.95L48.6688 174.977L30.2684 173.06L19.3594 152.317C35.5058 136.305 32.1249 113.431 28.4161 103.996L19.4235 88.983C49.4932 -11.4414 173.592 8.52747 212.226 38.1911C250.859 67.8548 247.283 126.299 240.89 144.233C235.776 158.58 202.282 188.302 186.174 201.37L164.063 230.234L119.201 250.695Z" stroke="black" stroke-width="5"/>
<path d="M51.6512 223.548L75.2111 229.019M121.958 233.89L138.866 235.652L148.564 224.597" stroke="black" stroke-width="5"/>
<path d="M137.52 224.452L60.3028 212.887C65.4486 211.747 75.187 206.093 72.9745 192.591C72.0566 186.926 68.6108 173.68 62.1701 166.019C88.6513 165.859 116.126 172.837 128.86 177.3C149.979 190.762 143.433 214.343 137.52 224.452Z" fill="#551C1D"/>
<path d="M40.3393 168.077C47.3013 166.678 54.6961 166.064 62.1701 166.019M62.1701 166.019C88.6513 165.859 116.126 172.837 128.86 177.3C149.979 190.762 143.433 214.343 137.52 224.452L60.3028 212.887C65.4486 211.747 75.187 206.093 72.9745 192.591C72.0566 186.926 68.6108 173.68 62.1701 166.019Z" stroke="black" stroke-width="5"/>
<path d="M106.243 172.43C106.044 173.302 95.4709 179.088 87.7487 181.06C76.7348 183.872 64.4477 182.754 58.6458 180.541C52.8439 178.328 47.277 170.643 45.4157 167.6C60.5631 162.141 106.804 169.965 106.243 172.43Z" fill="#C78E86" stroke="black" stroke-width="5"/>
<path d="M141.23 193.671C101.255 187.494 89.6855 205.894 88.1 216.286L137.074 223.903C145.066 211.468 143.069 198.892 141.23 193.671Z" fill="#86534D" stroke="black" stroke-width="5"/>
<path d="M116.23 211.676C109.698 212.604 106.256 217.34 105.351 219.592L138.018 224.503L141.644 213.822C135.745 212.537 122.761 210.748 116.23 211.676Z" fill="#C58C84" stroke="black" stroke-width="5"/>
<path d="M57.662 189.99L63.6305 166.482L84.5692 168.161L85.1176 191.845L57.662 189.99Z" fill="#C7D197" stroke="black" stroke-width="5"/>
<path d="M60.9569 187.317L65.088 171.004L79.5549 172.163L79.9265 188.596L60.9569 187.317Z" fill="#E8F1BE"/>
<path d="M94.8256 190.343L94.3701 180.242L106.192 172.927L112.832 191.214L94.8256 190.343Z" fill="#E8F1BE" stroke="black" stroke-width="5"/>
<path d="M118.925 185.816L121.95 176.078C127.521 177.366 130.189 178.655 133.865 182.346L127.7 193.266L118.925 185.816Z" fill="#E8F1BE" stroke="black" stroke-width="5"/>
<path d="M59.7646 198.755L65.3278 212.908L75.274 213.944L78.165 200.672L59.7646 198.755Z" fill="#E8F1BE" stroke="black" stroke-width="5"/>
<path d="M115.722 202.072L118.612 212.93L127.833 220.929L135.676 213.2L135.034 200.063L115.722 202.072Z" fill="#E8F1BE" stroke="black" stroke-width="5"/>
<ellipse cx="83.0765" cy="144.296" rx="4" ry="8" transform="rotate(36.8654 83.0765 144.296)" fill="black"/>
<ellipse cx="100.73" cy="141.718" rx="4.85336" ry="9.70672" transform="rotate(-6.5072 100.73 141.718)" fill="black"/>
<path d="M197.603 168.879L190.309 176.163L190.661 187.259L177.585 196.956" stroke="black" stroke-width="5" stroke-linecap="square"/>
<circle cx="43.2003" cy="126.147" r="28" transform="rotate(5.94869 43.2003 126.147)" fill="black"/>
<circle cx="42.6512" cy="126.593" r="24.5" transform="rotate(5.94869 42.6512 126.593)" fill="#C7D197"/>
<path d="M63.1969 127.225C61.9377 139.31 51.1202 148.086 39.0353 146.827C26.9505 145.568 18.1746 134.75 19.4338 122.665C20.6931 110.581 31.5106 101.805 43.5954 103.064C55.6802 104.323 64.4561 115.141 63.1969 127.225Z" fill="#E6EFBC"/>
<circle cx="159.924" cy="125.239" r="44" transform="rotate(5.94869 159.924 125.239)" fill="black"/>
<circle cx="159.374" cy="125.685" r="38.5" transform="rotate(5.94869 159.374 125.685)" fill="#C7D197"/>
<circle cx="156.701" cy="122.39" r="35.5" transform="rotate(5.94869 156.701 122.39)" fill="#E6EFBC"/>
<circle cx="40.7348" cy="120.863" r="4" transform="rotate(5.94869 40.7348 120.863)" fill="black"/>
<circle cx="165.788" cy="126.856" r="4" transform="rotate(5.94869 165.788 126.856)" fill="black"/>
</svg>
