<svg width="149" height="149" viewBox="0 0 149 149" fill="none" xmlns="http://www.w3.org/2000/svg">
<path d="M130.375 85.0823C130.375 117.578 91.7809 143.92 73.6534 143.92C55.5258 143.92 16.9318 117.578 16.9318 85.0823C16.9318 52.587 42.3269 26.2443 73.6534 26.2443C104.98 26.2443 130.375 52.587 130.375 85.0823Z" fill="#A68EEC"/>
<path d="M121.062 86.3522C121.062 116.276 85.6365 140.534 68.9971 140.534C52.3577 140.534 16.9318 116.276 16.9318 86.3522C16.9318 56.4284 40.2422 32.1704 68.9971 32.1704C97.752 32.1704 121.062 56.4284 121.062 86.3522Z" fill="#C8B8F8"/>
<path d="M128.722 85.5057C128.722 101.11 119.416 115.513 107.511 126.144C101.589 131.432 95.1126 135.701 89.0239 138.638C82.8905 141.597 77.338 143.114 73.2301 143.114C69.1222 143.114 63.5698 141.597 57.4364 138.638C51.3476 135.701 44.8717 131.432 38.9495 126.144C27.0447 115.513 17.7386 101.11 17.7386 85.5057C17.7386 53.6044 42.6667 27.8977 73.2301 27.8977C103.794 27.8977 128.722 53.6044 128.722 85.5057Z" stroke="black" stroke-width="5"/>
<path d="M66.6816 81.6641C61.3609 65.0461 43.5454 47.4314 24.04 70.5519C27.2878 83.4088 40.3631 103.631 66.6816 81.6641Z" fill="#A68EEC"/>
<path d="M61.4866 80.6256C57.1588 68.927 42.8924 56.8022 27.5229 73.6874C30.1806 82.758 40.6941 96.8444 61.4866 80.6256Z" fill="white" stroke="black" stroke-width="5"/>
<path d="M56.2168 79.6009C51.558 69.6415 38.1376 60.0358 25.8734 75.9943C28.8725 83.7676 39.14 95.3714 56.2168 79.6009Z" fill="black"/>
<path d="M70.1228 81.6642C75.4436 65.0462 93.2591 47.4315 112.764 70.552C109.517 83.4089 96.4414 103.631 70.1228 81.6642Z" fill="#A68EEC"/>
<path d="M73.6247 80.6256C77.9525 68.927 92.2189 56.8022 107.588 73.6874C104.931 82.758 94.4172 96.8444 73.6247 80.6256Z" fill="white" stroke="black" stroke-width="5"/>
<path d="M72.9684 79.6009C77.6271 69.6415 91.0476 60.0358 103.312 75.9943C100.313 83.7676 90.0452 95.3714 72.9684 79.6009Z" fill="black"/>
<ellipse cx="61.4086" cy="95.9194" rx="2.28019" ry="3.25741" transform="rotate(13.8539 61.4086 95.9194)" fill="black"/>
<ellipse rx="2.75167" ry="3.93095" transform="matrix(-0.970909 0.239447 0.239447 0.970909 69.194 96.4605)" fill="black"/>
<circle cx="74.5" cy="74.5" r="74.5" fill="#73EBE4" fill-opacity="0.15"/>
<path d="M143.074 76.2405C143.074 113.178 104.131 136.348 91.0084 140.503C54.0712 140.503 114.29 113.178 114.29 76.2405C114.29 39.3034 39.256 9.35986 76.1931 9.35986C113.13 9.35986 143.074 39.3034 143.074 76.2405Z" fill="#73EBE4" fill-opacity="0.1"/>
<ellipse cx="58.3068" cy="30.0662" rx="13" ry="9.5" transform="rotate(8.97488 58.3068 30.0662)" fill="#73EBE4" fill-opacity="0.1"/>
</svg>
