<svg width="46" height="180" viewBox="0 0 46 180" fill="none" xmlns="http://www.w3.org/2000/svg">
<path d="M13.8642 130.559C5.88716 44.327 24.7109 2.43279 40.2152 2.82281C42.4463 9.96572 45.2309 26.7427 38.5203 36.7076C20.6536 51.6135 21.303 105.215 23.8636 130.44C40.2628 130.245 42.5556 151.647 41.6522 162.372C38.8689 164.241 32.828 163.433 31.6527 162.49C33.5131 146.971 30.9667 141.835 27.472 142.451C22.8129 158.118 23.7048 168.325 25.7409 172.318C24.1658 175.092 18.2844 177.19 17.7827 177.004C17.293 178.158 15.2518 173.591 15.2518 173.591C13.6767 176.364 8.28843 177.691 6.78329 177.135C-1.73846 162.736 7.89144 136.414 13.8642 130.559Z" fill="#967BE7"/>
<path d="M13.8642 130.559C5.88715 44.327 24.7109 2.43279 40.2152 2.82281C42.4463 9.96572 37.3395 16.6325 30.4432 28.1939C9.65858 63.0385 17.3498 110.428 19.9105 135.653C36.3096 135.458 42.5556 151.647 41.6522 162.372C38.8689 164.241 32.828 163.433 31.6527 162.49C33.5131 146.971 30.9667 141.835 27.472 142.451C22.8129 158.118 23.7048 168.325 25.7409 172.318C24.1658 175.092 18.2844 177.19 17.7827 177.004C17.293 178.158 15.2518 173.591 15.2518 173.591C13.6767 176.364 8.28842 177.691 6.78329 177.135C-1.73847 162.736 7.89143 136.414 13.8642 130.559Z" fill="#A68EEC"/>
<path d="M15.2518 173.591C13.6767 176.364 8.28843 177.691 6.78329 177.135C-1.73846 162.736 7.89144 136.414 13.8642 130.559C5.88716 44.327 24.7109 2.43279 40.2152 2.82281C42.4463 9.96572 45.2309 26.7428 38.5203 36.7076C20.6536 51.6135 21.303 105.215 23.8636 130.44C40.2628 130.245 42.5556 151.647 41.6522 162.372C38.8689 164.241 32.828 163.433 31.6527 162.49C33.5131 146.971 30.9667 141.835 27.472 142.451C22.8129 158.118 23.7048 168.325 25.7409 172.318C24.1658 175.092 18.2844 177.19 17.7827 177.004C17.293 178.158 15.2518 173.591 15.2518 173.591ZM15.2518 173.591C13.4501 164.577 13.1021 156.971 17.0036 146.019" stroke="black" stroke-width="5" stroke-linecap="round" stroke-linejoin="round"/>
</svg>
