<svg width="114" height="321" viewBox="0 0 114 321" fill="none" xmlns="http://www.w3.org/2000/svg">
<path d="M84.918 116.252L85.3939 108.767L85.5525 106.272L89.2444 95.4842L67.0752 89.5657L65.7111 111.022L63.1415 151.441L80.8686 140.544L82.9049 132.156C82.9049 132.156 88.338 128.613 88.8697 125.02C89.4195 121.304 84.918 116.252 84.918 116.252Z" fill="#79896A" stroke="black" stroke-width="5"/>
<path d="M44.2767 117.175C43.0298 23.3067 68.5177 3.81785 81.4175 5.80697C92.179 4.65409 108.807 24.1817 95.2145 111.896C89.6438 110.206 76.5065 106.699 73.576 105.51L79.7054 119.427L69.8121 125.311L76.576 129.248L79.0306 137.922L90.0085 138.62L79.8614 148.496L75.3825 195.306C53.6991 195.931 36.187 186.635 30.1413 181.908C37.3152 169.94 42.131 140.419 43.6423 127.155L50.288 125.072L44.2767 117.175Z" fill="#4D3415" stroke="black" stroke-width="5" stroke-linejoin="bevel"/>
<path d="M45.9204 130.727L32.1741 181.457C36.7122 186.254 47.7479 194.972 55.5864 191.462C51.5643 172.77 68.4819 148.861 77.4435 139.244L76.0503 129.636L69.3816 124.202L78.7125 119.284L66.3817 100.464L85.6606 96.6795L87.8496 62.249C88.0648 45.7294 85.5109 -8.14116 66.8482 14.32C48.1855 36.7812 45.6912 92.3015 46.7769 117.254L53.2553 125.682L45.9204 130.727Z" fill="#755422"/>
<path d="M44.2767 117.175C43.0298 23.3067 68.5177 3.81785 81.4175 5.80697C92.179 4.65409 108.807 24.1817 95.2145 111.896C89.6438 110.206 76.5065 106.699 73.576 105.51L79.7054 119.427L69.8121 125.311L76.576 129.248L79.0306 137.922L90.0085 138.62L79.8614 148.496L75.3825 195.306C53.6991 195.931 36.187 186.635 30.1413 181.908C37.3152 169.94 42.131 140.419 43.6423 127.155L50.288 125.072L44.2767 117.175Z" stroke="black" stroke-width="5" stroke-linejoin="bevel"/>
<path d="M79.9059 195.092C56.4988 197.612 36.1137 187.799 29.1441 181.845C25.8012 187.144 19.4113 200.966 20.5952 213.867C27.9397 219.177 50.1534 228.071 80.2522 221.167C77.9401 213.404 79.0579 200.549 79.9059 195.092Z" fill="#4D3415" stroke="black" stroke-width="5"/>
<path d="M65.9299 202.14C48.881 204.056 34.347 192.734 29.2792 188.287C26.838 192.257 22.1669 202.611 23.0123 212.265C29.3323 214.937 45.5102 224.336 66.2531 220.698C64.5793 214.891 65.3053 206.226 65.9299 202.14Z" fill="#745321"/>
<path d="M13.8666 264.542C7.52544 244.5 18.2235 224.906 24.3652 217.614C44.3691 224.497 56.1496 224.645 59.5394 223.858C73.3209 227.74 65.0026 248.254 67.4975 248.413C69.4935 248.539 74.2902 254.522 76.4391 257.498L95.2105 261.698C99.3917 271.583 92.0725 279.534 87.8902 282.275L83.491 281.995C83.5897 291.216 77.1738 299.579 73.5523 302.906L68.3172 298.566C68.2366 315.595 53.5437 318.168 53.6706 316.172C53.7721 314.575 50.3285 310.949 48.5941 309.336L39.7708 306.27C36.7295 303.672 31.9367 282.391 29.9205 272.076L23.1626 291.687C26.7485 298.328 27.4912 307.66 27.4143 311.497C24.0177 314.487 17.8037 315.562 15.1213 315.725C4.64071 316.662 4.31877 307.022 5.46786 302.085C-1.75466 289.602 8.05762 271.855 13.8666 264.542Z" fill="#7B8D6B"/>
<path d="M68.3172 298.566C68.2366 315.595 53.5437 318.168 53.6706 316.172C53.7721 314.575 50.3285 310.949 48.5941 309.336L39.7708 306.27C36.7295 303.672 31.9367 282.391 29.9205 272.076L23.1626 291.687C26.7485 298.328 27.4912 307.66 27.4143 311.497C24.0177 314.487 17.8037 315.562 15.1213 315.725C4.64071 316.662 4.31877 307.022 5.46786 302.085C-1.75466 289.602 8.05762 271.855 13.8666 264.542C7.52544 244.5 18.2235 224.906 24.3652 217.614C44.3691 224.497 56.1496 224.645 59.5394 223.858C73.3209 227.74 65.0026 248.254 67.4975 248.413C69.4935 248.539 74.2902 254.522 76.4391 257.498L95.2105 261.698C99.3917 271.583 92.0725 279.534 87.8902 282.275L83.491 281.995M68.3172 298.566L53.2925 290.596L42.4039 264.854M68.3172 298.566L73.5523 302.906C77.1738 299.579 83.5897 291.216 83.491 281.995M57.3822 257.79L65.8479 274.36L83.1223 278.464C83.3619 279.649 83.4785 280.829 83.491 281.995" stroke="black" stroke-width="5"/>
<path d="M60.7701 243.897L52.9937 224.364L25.962 216.133C8.27571 235.85 10.2415 255.882 13.4353 263.433C-0.480994 280.585 2.30678 296.627 5.4402 302.505L7.70452 314.172L17.1854 314.774L16.6487 291.694L29.2127 267.442L39.3082 305.66L49.066 309.787L56.1068 317.249L66.127 309.369L46.8969 296.623L43.3748 265.336L54.2 292.077L75.1809 300.926L79.8073 291.2L60.1416 277.425L50.9317 256.799L60.7701 243.897Z" fill="#8A9A7D"/>
<path d="M68.3172 298.566C68.2366 315.595 53.5437 318.168 53.6706 316.172C53.7721 314.575 50.3285 310.949 48.5941 309.336L39.7708 306.27C36.7295 303.672 31.9367 282.391 29.9205 272.076L23.1626 291.687C26.7485 298.328 27.4912 307.66 27.4143 311.497C24.0177 314.487 17.8037 315.562 15.1213 315.725C4.64071 316.662 4.31877 307.022 5.46786 302.085C-1.75466 289.602 8.05762 271.855 13.8666 264.542C7.52544 244.5 18.2235 224.906 24.3652 217.614C44.3691 224.497 56.1496 224.645 59.5394 223.858C73.3209 227.74 65.0026 248.254 67.4975 248.413C69.4935 248.539 74.2902 254.522 76.4391 257.498L95.2105 261.698C99.3917 271.583 92.0725 279.534 87.8902 282.275L83.491 281.995M68.3172 298.566L53.2925 290.596L42.4039 264.854M68.3172 298.566L73.5523 302.906C77.1738 299.579 83.5897 291.216 83.491 281.995M57.3822 257.79L65.8479 274.36L83.1223 278.464C83.3619 279.649 83.4785 280.829 83.491 281.995" stroke="black" stroke-width="5"/>
</svg>
