<svg width="183" height="302" viewBox="0 0 183 302" fill="none" xmlns="http://www.w3.org/2000/svg">
<path d="M10 269.08C12.4 221.08 76.3333 227.746 108 237.08H157.5L166.5 269.08C48.1 304.28 12.8333 283.746 10 269.08Z" fill="#755422" stroke="black" stroke-width="5"/>
<path d="M5.0002 270.08C0.200197 278.48 5.0002 290.246 8.0002 295.08C68.0004 304.28 98.3335 292.913 106 286.08L172.5 281.58C173.7 273.58 169 268.58 166.5 267.08L81 274.58L76.5 281.58L71.5 276.58C62.3 281.78 23.3335 274.413 5.0002 270.08Z" fill="#4E3415" stroke="black" stroke-width="5"/>
<path d="M84 148.58V107.08L104.5 120.08L103 157.08L116.5 162.58L146.5 231.08L125 228.08L90.5 175.08L84 178.08L71 164.08L84 148.58Z" fill="#7B8D6B"/>
<path d="M97 172.08L90.5 175.08M90.5 175.08L84 178.08L71 164.08L84 148.58V107.08L104.5 120.08L103 157.08M90.5 175.08L125 228.08L146.5 231.08L116.5 162.58L103 157.08M103 157.08L102 164.58" stroke="black" stroke-width="5"/>
<path d="M108.5 171L127.5 229L91 174L84 178L72 165L84 149V128.5H95V165L108.5 171Z" fill="#92A382"/>
<path d="M97 172.08L90.5 175.08M90.5 175.08L84 178.08L71 164.08L84 148.58V107.08L104.5 120.08L103 157.08M90.5 175.08L125 228.08L146.5 231.08L116.5 162.58L103 157.08M103 157.08L102 164.58" stroke="black" stroke-width="5"/>
<path d="M81.5 209.58C89.1 201.98 103 209.413 109 214.08L121.5 203.08L140.5 211.08L161.5 199.08L165.25 220.08V233.33L172 239.08L166.5 247.08C172.5 256.28 174 266.246 174 270.08C162.8 262.08 148.667 262.08 143 263.08V245.58L134.5 249.58C128.5 243.18 102 238.246 89.5 236.58V230.58L98.5 227.58L81.5 209.58Z" fill="#343B69"/>
<path d="M158.5 227.58L165.25 233.33M165.25 233.33L172 239.08L166.5 247.08C172.5 256.28 174 266.246 174 270.08C162.8 262.08 148.667 262.08 143 263.08V245.58L134.5 249.58C128.5 243.18 102 238.246 89.5 236.58V230.58L98.5 227.58L81.5 209.58C89.1 201.98 103 209.413 109 214.08L121.5 203.08L140.5 211.08L161.5 199.08L165.25 220.08V233.33Z" stroke="black" stroke-width="5"/>
<path d="M119 204C131.4 205.2 137.5 233.5 139 247.5L133.5 249.5C129.1 243.1 102.333 237.167 89.5 235V231L99 227.5C95 224.833 86.3999 217.6 83.9999 210C81.5999 202.4 99.9999 209.5 109.5 214L119 204Z" fill="#4C5C94"/>
<path d="M158.5 227.58L165.25 233.33M165.25 233.33L172 239.08L166.5 247.08C172.5 256.28 174 266.246 174 270.08C162.8 262.08 148.667 262.08 143 263.08V245.58L134.5 249.58C128.5 243.18 102 238.246 89.5 236.58V230.58L98.5 227.58L81.5 209.58C89.1 201.98 103 209.413 109 214.08L121.5 203.08L140.5 211.08L161.5 199.08L165.25 220.08V233.33Z" stroke="black" stroke-width="5"/>
<path d="M161 197.58C179.8 202.78 181.167 222.08 179.5 231.08C160.7 212.68 141.333 211.413 134 213.08L161 197.58Z" fill="#727FBC" stroke="black" stroke-width="5"/>
<path d="M134 58.0797L130.5 34.0797L115.5 4.07971L64 28.0797L66.5 86.5797V125.58L80.5 109.08L88 138.08L115.5 141.58L118.5 123.08L124.5 144.08L138 138.08L127.5 109.08V65.5797L134 58.0797Z" fill="#343B69" stroke="black" stroke-width="5"/>
<path d="M110.5 78.5L90.5 70L81 61L66.5 87L65 119.5H69L81 108L90.5 138.5L110.5 140L108 110.5L110.5 78.5Z" fill="#4C5C94"/>
<path d="M134 58.0797L130.5 34.0797L115.5 4.07971L64 28.0797L66.5 86.5797V125.58L80.5 109.08L88 138.08L115.5 141.58L118.5 123.08L124.5 144.08L138 138.08L127.5 109.08V65.5797L134 58.0797Z" stroke="black" stroke-width="5"/>
</svg>
