<svg width="83" height="200" viewBox="0 0 83 200" fill="none" xmlns="http://www.w3.org/2000/svg">
<path d="M43.6337 173.222L42.1524 16.3247C50.1817 20.3326 60.6967 12.2873 65.2555 7.26059L57.5438 174.923C50.9659 179.95 48.0671 178.843 43.6337 173.222Z" fill="#2E364B"/>
<path d="M41.7476 173.213L44 26C47.4433 28.8045 48.2539 32.7655 52.8232 32.3817C55.0549 32.1943 57.3762 33.6763 57.2723 35.9227L51.0001 171.5C47.0321 176.854 44.0081 178.575 41.7476 173.213Z" fill="#434F6D"/>
<path d="M43.6337 173.222L42.1524 16.3247C50.1817 20.3326 60.6967 12.2873 65.2555 7.26059L57.5438 174.923C50.9659 179.95 48.0671 178.843 43.6337 173.222Z" stroke="black" stroke-width="5"/>
<path d="M41.9746 172.188C47.1932 174.162 51.5643 173.331 56.0482 171.663C57.293 171.2 58.6664 171.995 58.8239 173.313L60.3308 185.936C60.475 187.143 59.5178 188.198 58.3024 188.172L11.9249 187.186C-4.93555 185.331 6.03815 167.179 41.5155 172.069C41.6702 172.091 41.8286 172.132 41.9746 172.188Z" fill="#1D2334"/>
<path d="M42.1674 172.406C46.7326 175.731 47.3597 175.356 49.4067 174.36C50.6899 173.735 52.0186 174.814 51.8625 176.233L51.7801 176.982C51.677 177.919 50.9335 178.657 49.9957 178.753L13.6589 182.47C13.5184 182.485 13.3681 182.484 13.2279 182.467C-3.28657 180.524 6.15043 167.248 41.2404 172.032C41.5701 172.076 41.8984 172.21 42.1674 172.406Z" fill="#2E364B"/>
<path d="M42.9869 170.408C47.6277 174.744 52.5646 173.249 56.2414 171.182C57.4398 170.508 58.9956 171.072 59.3566 172.399L62.5935 184.295C62.938 185.561 61.9907 186.81 60.6787 186.82L11.9248 187.186C-4.86345 185.339 6.67778 165.186 41.804 169.832C42.2446 169.89 42.6622 170.105 42.9869 170.408Z" stroke="black" stroke-width="5"/>
<path d="M2.91112 184.164C3.00319 181.377 5.71954 179.443 8.40373 180.196C26.6752 185.325 38.9755 186.156 57.6211 181.939C60.3332 181.326 62.9461 183.407 62.8542 186.186C62.7916 188.082 61.4476 189.703 59.5904 190.093C38.6138 194.499 25.879 194.022 5.94355 188.345C4.093 187.818 2.84758 186.087 2.91112 184.164Z" fill="#3D5AA4" stroke="black" stroke-width="5"/>
<g filter="url(#filter0_f)">
<path d="M7.12156 184.065C7.26351 183.798 7.57484 183.658 7.87114 183.72C30.0276 188.317 34.3126 189.243 55.9859 185.911C56.7529 185.793 57.3129 186.627 56.9055 187.288C56.7664 187.513 56.5267 187.668 56.265 187.709C33.0572 191.353 29.5754 190.209 7.58115 185.051C7.14626 184.949 6.912 184.459 7.12156 184.065Z" fill="#7097FF"/>
</g>
<defs>
<filter id="filter0_f" x="3.04382" y="179.705" width="57.9986" height="14.1281" filterUnits="userSpaceOnUse" color-interpolation-filters="sRGB">
<feFlood flood-opacity="0" result="BackgroundImageFix"/>
<feBlend mode="normal" in="SourceGraphic" in2="BackgroundImageFix" result="shape"/>
<feGaussianBlur stdDeviation="2" result="effect1_foregroundBlur"/>
</filter>
</defs>
</svg>
