<svg width="149" height="195" viewBox="0 0 149 195" fill="none" xmlns="http://www.w3.org/2000/svg">
<path d="M112.649 105.603C50.5887 101.204 26.9221 175.951 67.6456 173.411C125.437 169.807 141.75 128.382 112.649 105.603Z" fill="#D0FCFF"/>
<path d="M112.649 105.603L114.19 103.634L113.588 103.163L112.826 103.109L112.649 105.603ZM67.6456 173.411L67.49 170.916L67.6456 173.411ZM112.826 103.109C80.6696 100.83 58.3323 119.08 49.3511 137.725C44.89 146.986 43.5599 156.708 46.4374 164.169C47.8956 167.95 50.431 171.115 54.0992 173.216C57.7462 175.305 62.3433 176.247 67.8012 175.906L67.49 170.916C62.767 171.211 59.1954 170.373 56.5843 168.877C53.9945 167.394 52.1825 165.17 51.1024 162.369C48.9032 156.667 49.733 148.453 53.8557 139.895C62.042 122.901 82.5681 105.977 112.472 108.096L112.826 103.109ZM67.8012 175.906C97.1991 174.073 116.688 162.573 124.912 147.921C133.246 133.075 129.604 115.699 114.19 103.634L111.108 107.571C124.795 118.285 127.548 133.011 120.552 145.474C113.448 158.131 95.8838 169.145 67.49 170.916L67.8012 175.906Z" fill="black"/>
<path d="M107.367 105.181C95.3599 106.264 64.6888 129.983 63.2259 172.461C27.0176 166.834 57.3778 102.892 107.367 105.181Z" fill="white" fill-opacity="0.25"/>
<path d="M112.649 105.603L114.19 103.634L113.588 103.163L112.826 103.109L112.649 105.603ZM67.6456 173.411L67.49 170.916L67.6456 173.411ZM112.826 103.109C80.6696 100.83 58.3323 119.08 49.3511 137.725C44.89 146.986 43.5599 156.708 46.4374 164.169C47.8956 167.95 50.431 171.115 54.0992 173.216C57.7462 175.305 62.3433 176.247 67.8012 175.906L67.49 170.916C62.767 171.211 59.1954 170.373 56.5843 168.877C53.9945 167.394 52.1825 165.17 51.1024 162.369C48.9032 156.667 49.733 148.453 53.8557 139.895C62.042 122.901 82.5681 105.977 112.472 108.096L112.826 103.109ZM67.8012 175.906C97.1991 174.073 116.688 162.573 124.912 147.921C133.246 133.075 129.604 115.699 114.19 103.634L111.108 107.571C124.795 118.285 127.548 133.011 120.552 145.474C113.448 158.131 95.8838 169.145 67.49 170.916L67.8012 175.906Z" fill="black"/>
<path d="M122.892 94.011C107.54 23.6616 16.8205 21.7538 32.9194 66.1473C55.7656 129.147 107.086 133.754 122.892 94.011Z" fill="#D0FCFF"/>
<path d="M122.892 94.011L125.215 94.9349L125.498 94.2247L125.335 93.478L122.892 94.011ZM32.9194 66.1473L35.2696 65.295L32.9194 66.1473ZM125.335 93.478C117.418 57.2005 90.0084 38.4541 66.5181 34.5838C54.8402 32.6597 43.7358 34.3571 36.5067 39.895C32.8491 42.697 30.2164 46.469 29.1021 51.1324C27.9934 55.772 28.4313 61.1043 30.5692 66.9996L35.2696 65.295C33.3828 60.092 33.134 55.7728 33.9652 52.2944C34.7906 48.8397 36.7241 46.027 39.5474 43.8642C45.2802 39.4725 54.7967 37.72 65.7053 39.5173C87.3882 43.0898 113.014 60.4722 120.45 94.5441L125.335 93.478ZM30.5692 66.9996C42.1638 98.9725 61.2092 116.729 79.986 121.044C98.9795 125.409 116.907 115.825 125.215 94.9349L120.569 93.0872C113.071 111.94 97.4356 119.924 81.1058 116.171C64.5592 112.369 46.5213 96.3221 35.2696 65.295L30.5692 66.9996Z" fill="black"/>
<path d="M122.903 94.6956C120.563 80.3138 99.3678 50.7896 32.5361 60.929C53.6872 125.631 97.56 136.534 122.903 94.6956Z" fill="white" fill-opacity="0.25"/>
<path d="M122.892 94.011L125.215 94.9349L125.498 94.2247L125.335 93.478L122.892 94.011ZM32.9194 66.1473L35.2696 65.295L32.9194 66.1473ZM125.335 93.478C117.418 57.2005 90.0084 38.4541 66.5181 34.5838C54.8402 32.6597 43.7358 34.3571 36.5067 39.895C32.8491 42.697 30.2164 46.469 29.1021 51.1324C27.9934 55.772 28.4313 61.1043 30.5692 66.9996L35.2696 65.295C33.3828 60.092 33.134 55.7728 33.9652 52.2944C34.7906 48.8397 36.7241 46.027 39.5474 43.8642C45.2802 39.4725 54.7967 37.72 65.7053 39.5173C87.3882 43.0898 113.014 60.4722 120.45 94.5441L125.335 93.478ZM30.5692 66.9996C42.1638 98.9725 61.2092 116.729 79.986 121.044C98.9795 125.409 116.907 115.825 125.215 94.9349L120.569 93.0872C113.071 111.94 97.4356 119.924 81.1058 116.171C64.5592 112.369 46.5213 96.3221 35.2696 65.295L30.5692 66.9996Z" fill="black"/>
</svg>
