<svg width="330" height="248" viewBox="0 0 330 248" fill="none" xmlns="http://www.w3.org/2000/svg">
<path d="M72.7304 226.969C68.9876 219.837 71.7647 205.379 71.7647 205.379C84.6761 215.618 111.531 220.501 133.16 216.83C133.16 216.83 132.851 227.427 129.741 233.207C123.035 245.676 81.0499 242.821 72.7304 226.969Z" fill="#398F94" stroke="black" stroke-width="5"/>
<path d="M82.731 225.097C79.7606 219.288 81.9449 207.524 81.9449 207.524C92.1772 215.87 113.443 219.871 130.564 216.905C130.564 216.905 130.329 225.529 127.873 230.231C122.576 240.373 89.3333 238.008 82.731 225.097Z" fill="white" fill-opacity="0.15"/>
<path d="M72.7304 226.969C68.9876 219.837 71.7647 205.379 71.7647 205.379C84.6761 215.618 111.531 220.501 133.16 216.83C133.16 216.83 132.851 227.427 129.741 233.207C123.035 245.676 81.0499 242.821 72.7304 226.969Z" stroke="black" stroke-width="5"/>
<path d="M244.605 120.358C244.605 143.961 231.634 168.574 210.306 187.357C189.01 206.112 159.588 218.858 127.105 218.858C61.7909 218.858 9.60547 174.372 9.60547 120.358C9.60547 66.2299 61.9238 17.8584 127.105 17.8584C159.532 17.8584 188.943 31.5626 210.259 51.317C231.611 71.1053 244.605 96.7325 244.605 120.358Z" fill="#D0FCFF" stroke="black" stroke-width="5"/>
<path d="M70.6053 32.8584C41.9246 43.7011 29.6054 59.8584 15.1053 97.8584L37.6054 97.8584C43.6052 38.8583 117.605 15.8584 163.605 25.8584C141.105 16.8583 111.605 17.3583 70.6053 32.8584Z" fill="white"/>
<path d="M133.105 215.858C183.605 212.858 225.105 180.358 215.105 173.358C151.105 223.858 43.4012 203.427 12.1052 113.358C9.60522 175.858 66.9476 219.788 133.105 215.858Z" fill="#9EE3E7"/>
<path d="M244.605 120.358C244.605 143.961 231.634 168.574 210.306 187.357C189.01 206.112 159.588 218.858 127.105 218.858C61.7909 218.858 9.60547 174.372 9.60547 120.358C9.60547 66.2299 61.9238 17.8584 127.105 17.8584C159.532 17.8584 188.943 31.5626 210.259 51.317C231.611 71.1053 244.605 96.7325 244.605 120.358Z" stroke="black" stroke-width="5"/>
<path d="M312.615 91.5364C291.088 38.4102 229.375 54.5842 209.105 97.3583C200.721 115.051 195.225 136.858 199.105 165.858C202.985 194.858 221.543 208.621 245.787 208.873C295.287 209.387 334.143 144.663 312.615 91.5364Z" fill="white"/>
<path d="M310.66 96.0163C292.178 50.4064 239.197 64.2921 221.795 101.014C214.597 116.204 209.879 134.926 213.21 159.823C216.541 184.72 232.473 196.536 253.287 196.752C295.783 197.193 329.142 141.626 310.66 96.0163Z" fill="#D0FCFF"/>
<path d="M210.105 95.8584C230.375 53.0842 291.087 38.4104 312.615 91.5366C334.143 144.663 295.287 209.387 245.787 208.873C221.543 208.622 206.085 192.858 199.105 167.858" stroke="black" stroke-width="5" stroke-linecap="round"/>
<ellipse cx="268.958" cy="135.58" rx="30.5" ry="48.5" transform="rotate(13.3197 268.958 135.58)" fill="#9EE3E7"/>
<path d="M239.279 128.554C233.108 154.619 241.393 178.895 257.785 182.776C229.105 157.358 245.105 95.3584 280.132 88.3851C263.741 84.5044 245.45 102.488 239.279 128.554Z" fill="black"/>
<ellipse cx="263.198" cy="136.194" rx="23.9597" ry="38.0998" transform="rotate(13.3197 263.198 136.194)" fill="black"/>
</svg>
