<svg width="182" height="196" viewBox="0 0 182 196" fill="none" xmlns="http://www.w3.org/2000/svg">
<path d="M68.2584 11.9723L137.702 75.1538L99.9023 108.48L28.746 59.7495L18.3677 13.1664L68.2584 11.9723Z" fill="#D0FCFF"/>
<path d="M18.3677 13.1664L119.053 91.5538L131.921 70.1459L68.2584 11.9723L18.3677 13.1664Z" fill="#9EE3E7"/>
<path d="M49.9175 41.2306L18.8945 13.6683L53.4194 37.0297L49.9175 41.2306Z" fill="white"/>
<path d="M68.2581 11.9721L48.2509 36.124L52.4271 38.5972L68.2581 11.9721Z" fill="white"/>
<path d="M51.4236 39.6506L47.7494 36.6507L28.7463 59.7494L51.4236 39.6506Z" fill="white"/>
<path d="M108.655 87.1707L48.8636 40.2264L52.3655 36.0255L113.235 85.0026L108.655 87.1707Z" fill="white"/>
<path d="M52.445 76.0909L141.378 106.178L120.086 151.852L35.3705 135.693L7.20703 97.1632L52.445 76.0909Z" fill="#D0FCFF"/>
<path d="M7.20703 97.1632L130.857 128.673L134.076 103.904L52.445 76.0909L7.20703 97.1632Z" fill="#9EE3E7"/>
<path d="M47.3547 110.246L7.89062 97.4125L48.8814 104.994L47.3547 110.246Z" fill="white"/>
<path d="M52.4449 76.0909L43.7831 106.234L48.6002 106.827L52.4449 76.0909Z" fill="white"/>
<path d="M48.1021 108.195L43.5341 106.917L35.3706 135.693L48.1021 108.195Z" fill="white"/>
<path d="M119.575 128.821L45.9879 109.747L47.5146 104.496L122.903 125L119.575 128.821Z" fill="white"/>
<path d="M136.964 20.5772L165.801 76.8448L134.083 88.9146L100.746 41.3533L105.224 9.52612L136.964 20.5772Z" fill="#D0FCFF"/>
<path d="M105.224 9.52612L150.162 82.7731L163.341 72.3194L136.964 20.5772L105.224 9.52612Z" fill="#9EE3E7"/>
<path d="M118.478 34.6857L105.438 9.96716L121.679 32.8655L118.478 34.6857Z" fill="white"/>
<path d="M136.964 20.577L118.635 31.0718L120.683 33.6193L136.964 20.577Z" fill="white"/>
<path d="M119.8 34.0459L118.193 31.2851L100.746 41.3532L119.8 34.0459Z" fill="white"/>
<path d="M144.644 77.5493L118.051 33.8033L121.253 31.983L148.045 77.2658L144.644 77.5493Z" fill="white"/>
</svg>
