<svg width="243" height="102" viewBox="0 0 243 102" fill="none" xmlns="http://www.w3.org/2000/svg">
<path d="M80.7028 6.18634C88.3439 -6.29666 120 21.9258 120 21.9258C120 21.9258 116.18 49.3464 107.447 56.9448C98.7144 64.5431 88.3439 33.2293 88.3439 33.2293C88.3439 33.2293 99.5362 68.1311 88.3439 78.3708C77.1649 88.5984 62.5231 59.38 59.451 52.8596C61.8867 58.3625 70.6237 80.4721 58.8706 90.8538C49.0574 99.5219 42.5176 83.853 39.5015 73.7956C40.7758 80.7967 41.2122 91.0206 34.8557 96.824C24.2455 106.511 19.0272 80.7157 19.0272 80.7157C19.0272 80.7157 -4.38225 73.6147 5.38211 62.6314C10.7213 56.6257 19.1198 57.7945 26.0013 60.3344C18.6675 55.4401 12.283 48.0875 22.3023 40.379C34.3371 31.1199 46.8397 39.5437 53.659 45.9491C46.698 37.8287 36.2277 23.1631 45.2258 17.0411C57.3995 8.75869 77.5389 23.9437 85.2285 30.4642C80.8759 26.0482 74.1994 16.8107 80.7028 6.18634Z" fill="#57A0A4"/>
<path d="M120 21.9258C120 21.9258 88.3439 -6.29666 80.7028 6.18634C71.5931 21.0684 88.3439 33.2293 88.3439 33.2293M120 21.9258C108.797 26.2205 97.3484 28.9924 88.3439 33.2293M120 21.9258C120 21.9258 116.18 49.3464 107.447 56.9448C98.7144 64.5431 88.3439 33.2293 88.3439 33.2293M6.47391 90.8538C7.76467 89.8075 17.7704 81.7246 19.0272 80.7157M88.3439 33.2293C88.3439 33.2293 60.5082 6.64368 45.2258 17.0411C32.4622 25.725 58.8706 51.5994 58.8706 51.5994M88.3439 33.2293C77.0945 38.5225 68.7416 45.3483 58.8706 51.5994M88.3439 33.2293C88.3439 33.2293 99.5362 68.1311 88.3439 78.3708C75.7906 89.8558 58.8706 51.5994 58.8706 51.5994M58.8706 51.5994C58.8706 51.5994 40.0763 26.7044 22.3023 40.379C4.73824 53.8921 37.5844 66.3116 37.5844 66.3116M58.8706 51.5994C51.8517 56.0444 44.893 60.8786 37.5844 66.3116M58.8706 51.5994C58.8706 51.5994 72.3538 78.9439 58.8706 90.8538C44.9195 103.177 37.5844 66.3116 37.5844 66.3116M37.5844 66.3116C37.5844 66.3116 15.7334 50.9878 5.38211 62.6314C-4.38225 73.6147 19.0272 80.7157 19.0272 80.7157M37.5844 66.3116C31.6971 70.688 25.5828 75.4529 19.0272 80.7157M37.5844 66.3116C37.5844 66.3116 45.1798 87.3982 34.8557 96.824C24.2455 106.511 19.0272 80.7157 19.0272 80.7157" stroke="black" stroke-width="5" stroke-linecap="round" stroke-linejoin="round"/>
<path d="M162.297 6.18634C154.656 -6.29666 123 21.9258 123 21.9258C123 21.9258 126.82 49.3464 135.553 56.9448C144.286 64.5431 154.656 33.2293 154.656 33.2293C154.656 33.2293 143.464 68.1311 154.656 78.3708C165.835 88.5984 180.477 59.38 183.549 52.8596C181.113 58.3625 172.376 80.4721 184.129 90.8538C193.943 99.5219 200.482 83.853 203.498 73.7956C202.224 80.7967 201.788 91.0206 208.144 96.824C218.754 106.511 223.973 80.7157 223.973 80.7157C223.973 80.7157 247.382 73.6147 237.618 62.6314C232.279 56.6257 223.88 57.7945 216.999 60.3344C224.332 55.4401 230.717 48.0875 220.698 40.379C208.663 31.1199 196.16 39.5437 189.341 45.9491C196.302 37.8287 206.772 23.1631 197.774 17.0411C185.6 8.75869 165.461 23.9437 157.771 30.4642C162.124 26.0482 168.801 16.8107 162.297 6.18634Z" fill="#57A0A4"/>
<path d="M123 21.9258C123 21.9258 154.656 -6.29666 162.297 6.18634C171.407 21.0684 154.656 33.2293 154.656 33.2293M123 21.9258C134.203 26.2205 145.652 28.9924 154.656 33.2293M123 21.9258C123 21.9258 126.82 49.3464 135.553 56.9448C144.286 64.5431 154.656 33.2293 154.656 33.2293M236.526 90.8538C235.235 89.8075 225.23 81.7246 223.973 80.7157M154.656 33.2293C154.656 33.2293 182.492 6.64368 197.774 17.0411C210.538 25.725 184.129 51.5994 184.129 51.5994M154.656 33.2293C165.906 38.5225 174.258 45.3483 184.129 51.5994M154.656 33.2293C154.656 33.2293 143.464 68.1311 154.656 78.3708C167.209 89.8558 184.129 51.5994 184.129 51.5994M184.129 51.5994C184.129 51.5994 202.924 26.7044 220.698 40.379C238.262 53.8921 205.416 66.3116 205.416 66.3116M184.129 51.5994C191.148 56.0444 198.107 60.8786 205.416 66.3116M184.129 51.5994C184.129 51.5994 170.646 78.9439 184.129 90.8538C198.081 103.177 205.416 66.3116 205.416 66.3116M205.416 66.3116C205.416 66.3116 227.267 50.9878 237.618 62.6314C247.382 73.6147 223.973 80.7157 223.973 80.7157M205.416 66.3116C211.303 70.688 217.417 75.4529 223.973 80.7157M205.416 66.3116C205.416 66.3116 197.82 87.3982 208.144 96.824C218.754 106.511 223.973 80.7157 223.973 80.7157" stroke="black" stroke-width="5" stroke-linecap="round" stroke-linejoin="round"/>
</svg>
