<svg width="257" height="141" viewBox="0 0 257 141" fill="none" xmlns="http://www.w3.org/2000/svg">
<path d="M103.151 51.9501C114.484 46.6686 123.725 81.7085 123.725 81.7085C123.725 81.7085 108.067 99.4304 98.2598 100.718C88.4529 102.006 95.837 74.8134 95.837 74.8134C95.837 74.8134 87.3458 104.949 74.5403 106.957C61.7501 108.962 65.1023 81.245 65.9896 75.1519C65.1289 80.2201 60.9233 100.088 47.6512 101.932C36.5699 103.472 39.3025 89.2272 41.8983 80.642C39.5033 86.2286 34.9909 93.7147 27.7239 94.8464C15.5941 96.7353 24.0456 75.9041 24.0456 75.9041C24.0456 75.9041 10.7163 59.7969 22.8552 56.5856C29.4927 54.8296 34.9253 59.6266 38.63 64.6838C35.7137 57.7366 34.6335 49.4872 45.409 48.7281C58.3521 47.8164 63.2861 59.7167 65.1229 67.497C63.9942 58.4286 63.453 43.0431 72.7524 42.9317C85.3336 42.781 92.5191 63.1008 94.9218 71.3738C93.9039 66.1746 93.5048 56.4452 103.151 51.9501Z" fill="#57A0A4"/>
<path d="M123.725 81.7085C123.725 81.7085 114.484 46.6686 103.151 51.9501C89.6392 58.2466 95.837 74.8134 95.837 74.8134M123.725 81.7085C113.716 79.478 104.252 76.0473 95.837 74.8134M123.725 81.7085C123.725 81.7085 108.067 99.4304 98.2598 100.718C88.4529 102.006 95.837 74.8134 95.837 74.8134M10.3184 77.1971C11.7317 77.0613 22.6742 76.0293 24.0456 75.9041M95.837 74.8134C95.837 74.8134 88.5464 42.7425 72.7524 42.9317C59.5614 43.0898 66.1705 73.9805 66.1705 73.9805M95.837 74.8134C85.3245 73.272 76.1528 74.1892 66.1705 73.9805M95.837 74.8134C95.837 74.8134 87.3458 104.949 74.5403 106.957C60.1777 109.209 66.1705 73.9805 66.1705 73.9805M66.1705 73.9805C66.1705 73.9805 64.5244 47.3816 45.409 48.7281C26.5194 50.0587 44.0632 74.4079 44.0632 74.4079M66.1705 73.9805C59.0725 73.8322 51.8337 73.9895 44.0632 74.4079M66.1705 73.9805C66.1705 73.9805 62.8769 99.8165 47.6512 101.932C31.8973 104.121 44.0632 74.4079 44.0632 74.4079M44.0632 74.4079C44.0632 74.4079 35.7237 53.1812 22.8552 56.5856C10.7163 59.7969 24.0456 75.9041 24.0456 75.9041M44.0632 74.4079C37.8038 74.7449 31.1994 75.2514 24.0456 75.9041M44.0632 74.4079C44.0632 74.4079 39.5268 93.0084 27.7239 94.8464C15.5941 96.7353 24.0456 75.9041 24.0456 75.9041" stroke="black" stroke-width="5" stroke-linecap="round" stroke-linejoin="round"/>
<path d="M151.837 47.8524C140.056 43.6624 134.159 79.4172 134.159 79.4172C134.159 79.4172 151.418 95.5846 161.302 95.9427C171.187 96.3008 161.273 69.9248 161.273 69.9248C161.273 69.9248 172.566 99.1262 185.504 99.9182C198.426 100.709 192.477 73.4314 191.019 67.449C192.354 72.4135 198.413 91.7966 211.8 92.3817C222.977 92.8703 218.914 78.9468 215.521 70.6443C218.432 75.9804 223.629 83.008 230.971 83.4498C243.225 84.1872 232.848 64.2452 232.848 64.2452C232.848 64.2452 244.6 46.9535 232.212 44.9004C225.439 43.7778 220.482 49.0654 217.271 54.4491C219.519 47.2581 219.817 38.9435 209.018 39.2033C196.047 39.5154 192.256 51.8277 191.161 59.7464C191.43 50.6121 190.519 35.2441 181.25 36.0095C168.711 37.045 163.472 57.9516 161.86 66.4142C162.383 61.1422 161.864 51.4184 151.837 47.8524Z" fill="#57A0A4"/>
<path d="M134.159 79.4172C134.159 79.4172 140.056 43.6624 151.837 47.8524C165.882 52.8475 161.273 69.9248 161.273 69.9248M134.159 79.4172C143.913 76.2535 153.012 71.9461 161.273 69.9248M134.159 79.4172C134.159 79.4172 151.418 95.5846 161.302 95.9427C171.187 96.3008 161.273 69.9248 161.273 69.9248M246.636 64.2388C245.216 64.2368 234.225 64.2405 232.848 64.2452M161.273 69.9248C161.273 69.9248 165.509 37.3095 181.25 36.0095C194.398 34.9238 190.729 66.2999 190.729 66.2999M161.273 69.9248C171.593 67.3995 180.811 67.4483 190.729 66.2999M161.273 69.9248C161.273 69.9248 172.566 99.1262 185.504 99.9182C200.015 100.807 190.729 66.2999 190.729 66.2999M190.729 66.2999C190.729 66.2999 189.861 39.6642 209.018 39.2033C227.949 38.7479 212.778 64.642 212.778 64.642M190.729 66.2999C197.781 65.4833 205.003 64.9577 212.778 64.642M190.729 66.2999C190.729 66.2999 196.442 91.7105 211.8 92.3817C227.69 93.0763 212.778 64.642 212.778 64.642M212.778 64.642C212.778 64.642 219.08 42.7239 232.212 44.9004C244.6 46.9535 232.848 64.2452 232.848 64.2452M212.778 64.642C219.041 64.3877 225.664 64.2696 232.848 64.2452M212.778 64.642C212.778 64.642 219.047 82.7322 230.971 83.4498C243.225 84.1872 232.848 64.2452 232.848 64.2452" stroke="black" stroke-width="5" stroke-linecap="round" stroke-linejoin="round"/>
</svg>
