<svg width="148" height="94" viewBox="0 0 148 94" fill="none" xmlns="http://www.w3.org/2000/svg">
<path d="M71.7053 56.8241C61.0003 52 46.5 46 13.0002 52C13.0002 52 0.794632 94.1759 50 89.5C79.481 86.6985 71.7053 56.8241 71.7053 56.8241Z" fill="black"/>
<path d="M132 43.5C109 43.5 103 45.5 83.5026 53.9075C83.5026 53.9075 88.102 86.1093 115.5 83.5C136.5 81.5 132 43.5 132 43.5Z" fill="black"/>
<ellipse cx="25.5102" cy="66.8099" rx="6.59699" ry="10.0691" transform="rotate(-5.36906 25.5102 66.8099)" fill="white"/>
<ellipse cx="101.66" cy="63.3141" rx="5.24503" ry="8.00558" transform="rotate(-19.9325 101.66 63.3141)" fill="white"/>
<path d="M71.9349 53.1356L74.5114 42.0826C58.5066 29.3663 21.9117 24.7457 13.2071 24.1943L20.0895 44.2725C38.9068 39.9797 63.7269 48.137 71.9349 53.1356Z" fill="#AC9311" stroke="black" stroke-width="5"/>
<path d="M85.2972 35.4595L84.4305 24.1433C102.182 14.0072 127.718 14.3423 136.406 15.1203L134.347 33.259C116.401 26.1561 94.1695 31.7665 85.2972 35.4595Z" fill="#AC9311" stroke="black" stroke-width="5"/>
</svg>
