<svg width="204" height="98" viewBox="0 0 204 98" fill="none" xmlns="http://www.w3.org/2000/svg">
<path d="M105.331 55.4813C133.138 0.779614 208.353 18.741 185.519 51.8796C153.116 98.9075 109.807 91.6557 105.331 55.4813Z" fill="#AC9311"/>
<path d="M105.331 55.4813L102.85 55.7882L102.756 55.0297L103.103 54.3484L105.331 55.4813ZM185.519 51.8796L183.461 50.4612L183.461 50.4612L185.519 51.8796ZM157.226 36.0107C158.569 36.3301 159.399 37.678 159.079 39.0213C158.76 40.3645 157.412 41.1944 156.069 40.875L157.226 36.0107ZM103.103 54.3484C117.518 25.9913 144.308 16.3717 164.646 18.2509C174.747 19.1843 183.652 23.0007 188.506 29.2335C190.966 32.3928 192.357 36.1516 192.269 40.3286C192.183 44.4811 190.641 48.8526 187.578 53.2981L183.461 50.4612C186.106 46.622 187.209 43.1831 187.271 40.2241C187.332 37.2896 186.375 34.6356 184.561 32.3057C180.865 27.5599 173.51 24.0913 164.186 23.2297C145.672 21.519 120.952 30.2696 107.56 56.6142L103.103 54.3484ZM187.578 53.2981C171.091 77.2262 151.459 87.8703 134.878 87.3802C118.075 86.8836 105.222 74.9636 102.85 55.7882L107.812 55.1744C109.915 72.1734 120.955 81.9665 135.026 82.3824C149.319 82.8049 167.544 73.5609 183.461 50.4612L187.578 53.2981ZM103.262 54.0782C109.388 45.0447 128.587 29.1994 157.226 36.0107L156.069 40.875C129.923 34.6568 112.659 49.13 107.4 56.8844L103.262 54.0782Z" fill="black"/>
<path d="M107.657 50.8014C114.672 41.2 150.305 27.3188 186.96 47.6597C200.596 14.19 131.116 7.37624 107.657 50.8014Z" fill="white" fill-opacity="0.25"/>
<path d="M105.331 55.4813L102.85 55.7882L102.756 55.0297L103.103 54.3484L105.331 55.4813ZM185.519 51.8796L183.461 50.4612L185.519 51.8796ZM157.226 36.0107C158.569 36.3301 159.399 37.678 159.079 39.0213C158.76 40.3645 157.412 41.1944 156.069 40.875L157.226 36.0107ZM103.103 54.3484C117.518 25.9913 144.308 16.3717 164.646 18.2509C174.747 19.1843 183.652 23.0007 188.506 29.2335C190.966 32.3928 192.357 36.1516 192.269 40.3286C192.183 44.4811 190.641 48.8526 187.578 53.2981L183.461 50.4612C186.106 46.622 187.209 43.1831 187.271 40.2241C187.332 37.2896 186.375 34.6356 184.561 32.3057C180.865 27.5599 173.51 24.0913 164.186 23.2297C145.672 21.519 120.952 30.2696 107.56 56.6142L103.103 54.3484ZM187.578 53.2981C171.091 77.2262 151.459 87.8703 134.878 87.3802C118.075 86.8836 105.222 74.9636 102.85 55.7882L107.812 55.1744C109.915 72.1734 120.955 81.9665 135.026 82.3824C149.319 82.8049 167.544 73.5609 183.461 50.4612L187.578 53.2981ZM103.262 54.0782C109.388 45.0447 128.587 29.1994 157.226 36.0107L156.069 40.875C129.923 34.6568 112.659 49.13 107.4 56.8844L103.262 54.0782Z" fill="black"/>
<path d="M92.2486 60.5438C76.3704 5.33788 4.05099 8.53459 19.1745 43.0387C40.6367 92.0042 81.7315 93.0044 92.2486 60.5438Z" fill="#AC9311"/>
<path d="M92.2486 60.5438L94.6269 61.3144L94.8625 60.5873L94.6512 59.8528L92.2486 60.5438ZM19.1745 43.0387L16.8848 44.0423L16.8848 44.0423L19.1745 43.0387ZM47.9852 33.3002C46.6058 33.3599 45.5359 34.5265 45.5956 35.906C45.6554 37.2854 46.822 38.3552 48.2014 38.2955L47.9852 33.3002ZM94.6512 59.8528C86.4001 31.165 63.4164 17.5403 44.3307 15.662C34.8556 14.7295 25.9433 16.6629 20.3328 21.5728C17.4867 24.0635 15.5227 27.3046 14.8568 31.1988C14.1951 35.0689 14.8466 39.3921 16.8848 44.0423L21.4642 42.0351C19.7216 38.0593 19.3248 34.7348 19.7853 32.0415C20.2417 29.3722 21.5705 27.1339 23.6256 25.3354C27.8177 21.6668 35.142 19.7819 43.8411 20.638C61.1038 22.3368 82.2189 34.7167 89.846 61.2348L94.6512 59.8528ZM16.8848 44.0423C27.8178 68.9858 44.0154 82.2976 59.4159 84.7938C75.036 87.3256 89.0304 78.5877 94.6269 61.3144L89.8703 59.7732C84.9497 74.9605 73.1381 81.9528 60.2159 79.8582C47.0742 77.7282 31.9934 66.0571 21.4642 42.0351L16.8848 44.0423ZM94.5458 59.5573C90.4945 50.1237 75.5988 32.105 47.9852 33.3002L48.2014 38.2955C73.254 37.2112 86.5101 53.5168 89.9515 61.5303L94.5458 59.5573Z" fill="black"/>
<path d="M92.2925 61.0885C89.6821 49.761 71.2741 27.359 18.5976 38.9047C38.7988 89.3134 74.2918 95.7127 92.2925 61.0885Z" fill="white" fill-opacity="0.25"/>
<path d="M92.2486 60.5438L94.6269 61.3144L94.8625 60.5873L94.6512 59.8528L92.2486 60.5438ZM19.1745 43.0387L21.4642 42.0351L19.1745 43.0387ZM47.9852 33.3002C46.6058 33.3599 45.5359 34.5265 45.5956 35.906C45.6554 37.2854 46.822 38.3552 48.2014 38.2955L47.9852 33.3002ZM94.6512 59.8528C86.4001 31.165 63.4164 17.5403 44.3307 15.662C34.8556 14.7295 25.9433 16.6629 20.3328 21.5728C17.4867 24.0635 15.5227 27.3046 14.8568 31.1988C14.1951 35.0689 14.8466 39.3921 16.8848 44.0423L21.4642 42.0351C19.7216 38.0593 19.3248 34.7348 19.7853 32.0415C20.2417 29.3722 21.5705 27.1339 23.6256 25.3354C27.8177 21.6668 35.142 19.7819 43.8411 20.638C61.1038 22.3368 82.2189 34.7167 89.846 61.2348L94.6512 59.8528ZM16.8848 44.0423C27.8178 68.9858 44.0154 82.2976 59.4159 84.7938C75.036 87.3256 89.0304 78.5877 94.6269 61.3144L89.8703 59.7732C84.9497 74.9605 73.1381 81.9528 60.2159 79.8583C47.0742 77.7282 31.9934 66.0571 21.4642 42.0351L16.8848 44.0423ZM94.5458 59.5573C90.4945 50.1237 75.5988 32.105 47.9852 33.3002L48.2014 38.2955C73.254 37.2112 86.5101 53.5168 89.9515 61.5303L94.5458 59.5573Z" fill="black"/>
</svg>
