<svg width="244" height="112" viewBox="0 0 244 112" fill="none" xmlns="http://www.w3.org/2000/svg">
<path d="M69.1419 54.6618C84.7281 33.0196 116.262 38.8257 115.885 59.8277C115.325 90.974 80.0057 99.0792 54.7056 90.7067C26.8775 81.4976 14.322 44.7117 14.322 44.7117C36.0368 57.6688 58.4458 69.5139 69.1419 54.6618Z" fill="#AC9311"/>
<path d="M115.885 59.8277C116.262 38.8257 84.7281 33.0196 69.1419 54.6618C58.4458 69.5139 36.0368 57.6688 14.322 44.7117M115.885 59.8277C115.325 90.974 80.0057 99.0792 54.7056 90.7067C26.8775 81.4976 14.322 44.7117 14.322 44.7117M115.885 59.8277C104.131 55.1158 97.4189 53.7561 86.7662 60.5586C60.4448 77.3667 47.0356 82.9873 14.322 44.7117" stroke="black" stroke-width="5" stroke-linecap="round" stroke-linejoin="round"/>
<path d="M54.7056 90.7065C26.8768 81.4992 14.3329 44.6842 14.3329 44.6842C47.0373 82.9829 60.4506 77.3523 86.782 60.5191C97.4388 53.7065 104.152 55.065 115.905 59.7769C115.334 90.9518 80.0064 99.0774 54.7056 90.7065Z" fill="white" fill-opacity="0.2" stroke="black" stroke-width="5" stroke-linecap="round" stroke-linejoin="round"/>
<path d="M171.337 50.5303C154.106 28.2521 121.035 35.518 122.192 57.6695C123.906 90.5205 161.475 97.7998 187.874 88.0505C216.911 77.3269 228.834 38.0504 228.834 38.0504C206.384 52.509 183.162 65.8189 171.337 50.5303Z" fill="#AC9311"/>
<path d="M122.192 57.6695C121.035 35.518 154.106 28.2521 171.337 50.5303C183.162 65.8189 206.384 52.509 228.834 38.0504M122.192 57.6695C123.906 90.5205 161.475 97.7998 187.874 88.0505C216.911 77.3269 228.834 38.0504 228.834 38.0504M122.192 57.6695C134.426 52.2724 141.461 50.5951 152.949 57.3898C181.335 74.1788 195.69 79.6267 228.834 38.0504" stroke="black" stroke-width="5" stroke-linecap="round" stroke-linejoin="round"/>
<path d="M187.874 88.0504C216.911 77.3287 228.821 38.022 228.821 38.022C195.688 79.6222 181.329 74.1639 152.931 57.3489C141.438 50.5436 134.403 52.2197 122.168 57.6167C123.896 90.4976 161.474 97.7981 187.874 88.0504Z" fill="white" fill-opacity="0.2" stroke="black" stroke-width="5" stroke-linecap="round" stroke-linejoin="round"/>
</svg>
