<svg width="229" height="80" viewBox="0 0 229 80" fill="none" xmlns="http://www.w3.org/2000/svg">
<path d="M112.146 23.7678C52.4875 -27.4704 -27.8642 30.5383 15.3726 58.655C76.731 98.556 124.507 68.8161 112.146 23.7678Z" fill="#AC9311"/>
<path d="M112.146 23.7678L114.557 23.1063L114.355 22.3693L113.775 21.8713L112.146 23.7678ZM15.3726 58.655L16.7355 56.5592V56.5592L15.3726 58.655ZM41.5608 26.6075C40.4406 27.4146 40.1868 28.9771 40.9939 30.0973C41.8011 31.2175 43.3635 31.4713 44.4837 30.6641L41.5608 26.6075ZM113.775 21.8713C83.0893 -4.48329 46.9642 -2.79804 24.0124 9.23933C12.5968 15.2264 4.09158 23.9684 1.45455 33.4681C0.1215 38.2703 0.30626 43.236 2.37922 47.9824C4.44238 52.7064 8.29646 57.0355 14.0097 60.7508L16.7355 56.5592C11.6396 53.2453 8.54663 49.6112 6.96127 45.9812C5.3857 42.3737 5.22047 38.5949 6.27238 34.8055C8.40526 27.1219 15.6097 19.2922 26.3347 13.6673C47.6643 2.48069 81.5443 0.780688 110.517 25.6644L113.775 21.8713ZM14.0097 60.7508C45.1106 80.9755 73.3113 83.895 92.4244 75.3497C111.741 66.7135 121.028 46.6878 114.557 23.1063L109.735 24.4293C115.625 45.8961 107.205 63.2645 90.3837 70.7851C73.3595 78.3965 46.993 76.2354 16.7355 56.5592L14.0097 60.7508ZM113.525 21.6822C102.037 14.0894 71.8766 4.76367 41.5608 26.6075L44.4837 30.6641C72.7199 10.3188 100.569 19.1128 110.768 25.8534L113.525 21.6822Z" fill="black"/>
<path d="M112.605 24.3582C101.105 13.3582 63.2055 1.5582 11.6055 54.3582C72.6055 96.8582 118.029 77.5065 112.605 24.3582Z" fill="white" fill-opacity="0.2"/>
<path d="M112.146 23.7678L114.557 23.1063L114.355 22.3693L113.775 21.8713L112.146 23.7678ZM15.3726 58.655L16.7355 56.5592L15.3726 58.655ZM41.5608 26.6075C40.4406 27.4146 40.1868 28.9771 40.9939 30.0973C41.8011 31.2175 43.3635 31.4713 44.4837 30.6641L41.5608 26.6075ZM113.775 21.8713C83.0893 -4.48329 46.9642 -2.79804 24.0124 9.23933C12.5968 15.2264 4.09158 23.9684 1.45455 33.4681C0.1215 38.2703 0.30626 43.236 2.37922 47.9824C4.44238 52.7064 8.29646 57.0355 14.0097 60.7508L16.7355 56.5592C11.6396 53.2453 8.54663 49.6112 6.96127 45.9812C5.3857 42.3737 5.22047 38.5949 6.27238 34.8055C8.40526 27.1219 15.6097 19.2922 26.3347 13.6673C47.6643 2.48069 81.5443 0.780688 110.517 25.6644L113.775 21.8713ZM14.0097 60.7508C45.1106 80.9755 73.3113 83.895 92.4244 75.3497C111.741 66.7135 121.028 46.6878 114.557 23.1063L109.735 24.4293C115.625 45.8961 107.205 63.2645 90.3837 70.7851C73.3595 78.3965 46.993 76.2354 16.7355 56.5592L14.0097 60.7508ZM113.525 21.6822C102.037 14.0894 71.8766 4.76367 41.5608 26.6075L44.4837 30.6641C72.7199 10.3188 100.569 19.1128 110.768 25.8534L113.525 21.6822Z" fill="black"/>
<path d="M117.065 23.7678C176.723 -27.4704 257.075 30.5383 213.838 58.655C152.48 98.556 104.704 68.8161 117.065 23.7678Z" fill="#AC9311"/>
<path d="M117.065 23.7678L114.654 23.1063L114.856 22.3693L115.436 21.8713L117.065 23.7678ZM213.838 58.655L212.475 56.5592V56.5592L213.838 58.655ZM187.65 26.6075C188.77 27.4146 189.024 28.9771 188.217 30.0973C187.41 31.2175 185.847 31.4713 184.727 30.6641L187.65 26.6075ZM115.436 21.8713C146.122 -4.48329 182.247 -2.79804 205.199 9.23933C216.614 15.2264 225.119 23.9684 227.756 33.4681C229.089 38.2703 228.905 43.236 226.832 47.9824C224.769 52.7064 220.914 57.0355 215.201 60.7508L212.475 56.5592C217.571 53.2453 220.664 49.6112 222.25 45.9812C223.825 42.3737 223.99 38.5949 222.939 34.8055C220.806 27.1219 213.601 19.2922 202.876 13.6673C181.547 2.48069 147.667 0.780688 118.694 25.6644L115.436 21.8713ZM215.201 60.7508C184.1 80.9755 155.9 83.895 136.786 75.3497C117.47 66.7135 108.183 46.6878 114.654 23.1063L119.476 24.4293C113.585 45.8961 122.006 63.2645 138.827 70.7851C155.851 78.3965 182.218 76.2354 212.475 56.5592L215.201 60.7508ZM115.686 21.6822C127.174 14.0894 157.334 4.76367 187.65 26.6075L184.727 30.6641C156.491 10.3188 128.642 19.1128 118.443 25.8534L115.686 21.6822Z" fill="black"/>
<path d="M122.106 19.3583C135.106 11.4068 184.106 12.3583 217.606 54.3583C250.106 21.3583 171.105 -20.6418 122.106 19.3583Z" fill="white" fill-opacity="0.2"/>
<path d="M117.065 23.7678L114.654 23.1063L114.856 22.3693L115.436 21.8713L117.065 23.7678ZM213.838 58.655L212.475 56.5592L213.838 58.655ZM187.65 26.6075C188.77 27.4146 189.024 28.9771 188.217 30.0973C187.41 31.2175 185.847 31.4713 184.727 30.6641L187.65 26.6075ZM115.436 21.8713C146.122 -4.48329 182.247 -2.79804 205.199 9.23933C216.614 15.2264 225.119 23.9684 227.756 33.4681C229.089 38.2703 228.905 43.236 226.832 47.9824C224.769 52.7064 220.914 57.0355 215.201 60.7508L212.475 56.5592C217.571 53.2453 220.664 49.6112 222.25 45.9812C223.825 42.3737 223.99 38.5949 222.939 34.8055C220.806 27.1219 213.601 19.2922 202.876 13.6673C181.547 2.48069 147.667 0.780688 118.694 25.6644L115.436 21.8713ZM215.201 60.7508C184.1 80.9755 155.9 83.895 136.786 75.3497C117.47 66.7135 108.183 46.6878 114.654 23.1063L119.476 24.4293C113.585 45.8961 122.006 63.2645 138.827 70.7851C155.851 78.3965 182.218 76.2354 212.475 56.5592L215.201 60.7508ZM115.686 21.6822C127.174 14.0894 157.334 4.76367 187.65 26.6075L184.727 30.6641C156.491 10.3188 128.642 19.1128 118.443 25.8534L115.686 21.6822Z" fill="black"/>
</svg>
