<svg width="260" height="76" viewBox="0 0 260 76" fill="none" xmlns="http://www.w3.org/2000/svg">
<path d="M128 15.0001C104.333 -1.33323 46.4 -13.7999 4 67.0001C56.3333 77.0001 154.4 80.6001 128 15.0001Z" fill="#AC9311"/>
<path d="M128 15.0001C104.333 -1.33323 46.4 -13.7999 4 67.0001C56.3333 77.0001 154.4 80.6001 128 15.0001ZM128 15.0001C109 16.1668 62 20.5001 33.5 45.5001" stroke="black" stroke-width="5" stroke-linecap="round"/>
<path d="M128 15C109 12.3333 58.1 18.6 6.5 65C58 75.6666 154.4 80.6 128 15Z" fill="white" fill-opacity="0.2"/>
<path d="M128 15.0001C104.333 -1.33323 46.4 -13.7999 4 67.0001C56.3333 77.0001 154.4 80.6001 128 15.0001ZM128 15.0001C109 16.1668 62 20.5001 33.5 45.5001" stroke="black" stroke-width="5" stroke-linecap="round"/>
<path d="M131.492 15.0001C155.159 -1.33323 213.092 -13.7999 255.492 67.0001C203.159 77.0001 105.092 80.6001 131.492 15.0001Z" fill="#AC9311"/>
<path d="M131.492 15.0001C155.159 -1.33323 213.092 -13.7999 255.492 67.0001C203.159 77.0001 105.092 80.6001 131.492 15.0001ZM131.492 15.0001C150.492 16.1668 197.492 20.5001 225.992 45.5001" stroke="black" stroke-width="5" stroke-linecap="round"/>
<path d="M131.492 15C150.492 12.3333 201.392 18.6 252.992 65C201.492 75.6666 105.092 80.6 131.492 15Z" fill="white" fill-opacity="0.2"/>
<path d="M131.492 15.0001C155.159 -1.33323 213.092 -13.7999 255.492 67.0001C203.159 77.0001 105.092 80.6001 131.492 15.0001ZM131.492 15.0001C150.492 16.1668 197.492 20.5001 225.992 45.5001" stroke="black" stroke-width="5" stroke-linecap="round"/>
</svg>
