<svg width="253" height="83" viewBox="0 0 253 83" fill="none" xmlns="http://www.w3.org/2000/svg">
<path d="M69.7205 32.4465C77.57 0.808498 115.987 -6.93366 125.103 17.0668C138.621 52.6598 102.231 77.9061 69.7205 79.9035C33.9618 82.1005 3 46.0683 3 46.0683C33.5257 50.9019 64.3337 54.1583 69.7205 32.4465Z" fill="#AC9311"/>
<path d="M125.103 17.0668C115.987 -6.93366 77.57 0.808498 69.7205 32.4465C64.3337 54.1583 33.5257 50.9019 3 46.0683M125.103 17.0668C138.621 52.6598 102.231 77.906 69.7205 79.9035C33.9618 82.1005 3 46.0683 3 46.0683M125.103 17.0668C109.626 17.0618 101.392 18.5692 92.3968 31.1282C70.1703 62.1598 57.5102 74.6304 3 46.0683" stroke="black" stroke-width="5" stroke-linecap="round" stroke-linejoin="round"/>
<path d="M69.7205 79.9034C33.9618 82.1027 3 46.0324 3 46.0324C57.5102 74.6247 70.1703 62.1409 92.3968 31.0764C101.392 18.5041 109.626 16.995 125.103 17C138.621 52.6308 102.231 77.9038 69.7205 79.9034Z" fill="white" fill-opacity="0.2" stroke="black" stroke-width="5" stroke-linecap="round" stroke-linejoin="round"/>
<path d="M183.279 32.4465C175.43 0.808498 137.013 -6.93366 127.897 17.0668C114.379 52.6598 150.769 77.9061 183.279 79.9035C219.038 82.1005 250 46.0683 250 46.0683C219.474 50.9019 188.666 54.1583 183.279 32.4465Z" fill="#AC9311"/>
<path d="M127.897 17.0668C137.013 -6.93366 175.43 0.808498 183.279 32.4465C188.666 54.1583 219.474 50.9019 250 46.0683M127.897 17.0668C114.379 52.6598 150.769 77.906 183.279 79.9035C219.038 82.1005 250 46.0683 250 46.0683M127.897 17.0668C143.374 17.0618 151.608 18.5692 160.603 31.1282C182.83 62.1598 195.49 74.6304 250 46.0683" stroke="black" stroke-width="5" stroke-linecap="round" stroke-linejoin="round"/>
<path d="M183.279 79.9034C219.038 82.1027 250 46.0324 250 46.0324C195.49 74.6247 182.83 62.1409 160.603 31.0764C151.608 18.5041 143.374 16.995 127.897 17C114.379 52.6308 150.769 77.9038 183.279 79.9034Z" fill="white" fill-opacity="0.2" stroke="black" stroke-width="5" stroke-linecap="round" stroke-linejoin="round"/>
</svg>
