<svg width="108" height="125" viewBox="0 0 108 125" fill="none" xmlns="http://www.w3.org/2000/svg">
<g opacity="0.75">
<path d="M66.3475 73.4193C58.544 68.9969 54.0802 61.2983 47.7845 65.881C45.6076 67.4656 43.2119 71.6045 42.5202 74.174C40.0573 83.3228 53.5376 89.1404 62.8367 91.3774C71.7047 93.5106 77.7556 92.0105 78.4394 83.0004C78.982 75.8511 72.638 76.9843 66.3475 73.4193Z" fill="black" fill-opacity="0.15"/>
<path d="M28.1259 35.0554C35.8728 35.476 40.4711 42.3015 43.5828 36.3279C44.6587 34.2624 44.9206 30.1342 44.467 27.8777C42.8519 19.8433 35.8262 15.9246 27.7624 17.7725C20.0725 19.5348 10.3082 27.6298 13.2479 34.8717C15.5804 40.6181 21.881 34.7163 28.1259 35.0554Z" fill="black" fill-opacity="0.15"/>
<path d="M89.7492 91.7553C91.7244 96.3722 91.072 101.366 95.4759 101.38C96.9986 101.385 99.5003 100.301 100.697 99.3619C104.956 96.0189 100.915 88.8729 97.5159 84.7519C94.274 80.822 91.0428 79.4859 87.6294 83.3593C84.9209 86.4328 88.157 88.0336 89.7492 91.7553Z" fill="white" fill-opacity="0.4"/>
<path d="M35.8166 52.5471C34.5148 47.3868 36.026 42.2678 31.4187 41.5223C29.8256 41.2645 27.0271 41.985 25.6192 42.7694C20.6066 45.5622 23.6505 53.7122 26.5254 58.5896C29.267 63.2409 32.4276 65.1753 36.643 61.687C39.9878 58.9191 36.866 56.7068 35.8166 52.5471Z" fill="white" fill-opacity="0.4"/>
</g>
</svg>
