<svg width="84" height="93" viewBox="0 0 84 93" fill="none" xmlns="http://www.w3.org/2000/svg">
<g opacity="0.75">
<path d="M73.0714 72.8657C77.5933 70.4902 77.5855 63.9583 73.2447 61.2661C57.0548 51.2249 45.8753 39.4815 39.4974 24.238C37.3891 19.199 31.2189 16.7899 26.66 19.7987C23.5669 21.8401 22.2629 25.7694 23.7973 29.1429C32.1716 47.5538 45.5922 60.5453 67.1114 72.7881C68.95 73.8341 71.1987 73.8494 73.0714 72.8657Z" fill="black" fill-opacity="0.1"/>
<path d="M43.33 73.4073C46.7739 71.721 47.1902 66.9758 44.1777 64.6034C29.0052 52.6543 21.1922 42.8445 15.4369 25.9895C14.2966 22.6502 10.5105 20.9495 7.34134 22.5012C4.71394 23.7877 3.48987 26.8737 4.59317 29.5831C12.0941 48.0035 19.8979 58.5928 37.9837 72.8514C39.506 74.0516 41.5889 74.2598 43.33 73.4073Z" fill="white" fill-opacity="0.2"/>
</g>
</svg>
