<svg width="232" height="35" viewBox="0 0 232 35" fill="none" xmlns="http://www.w3.org/2000/svg">
<path d="M17.2299 34.128C15.1619 34.128 13.4385 34.034 12.0599 33.846C10.2739 33.5953 8.6602 33.141 7.21886 32.483C7.03086 32.389 6.74886 32.248 6.37286 32.06C6.0282 31.8407 5.73053 31.637 5.47986 31.449C4.44586 30.5717 3.59986 29.5847 2.94186 28.488C2.4092 27.924 1.92353 27.1407 1.48486 26.138C0.638864 23.9447 0.215864 21.3283 0.215864 18.289C0.215864 14.717 0.952198 11.5837 2.42486 8.889C3.70953 6.31967 5.4172 4.31433 7.54786 2.873C9.70986 1.40033 12.1539 0.569999 14.8799 0.382L15.4439 0.334998H16.0549C18.4989 0.334998 21.1309 0.836331 23.9509 1.839C24.2015 1.96433 24.7499 2.215 25.5959 2.591C26.4419 2.967 27.2252 3.39 27.9459 3.86L27.0999 9.97L24.3269 9.265C23.3242 9.01433 22.3842 8.889 21.5069 8.889C19.7522 8.889 18.4362 9.547 17.5589 10.863C16.6189 12.2417 16.1489 14.482 16.1489 17.584C16.1489 18.5867 16.1959 19.2917 16.2899 19.699C16.4152 21.673 16.8539 23.13 17.6059 24.07C18.3265 24.8847 19.1882 25.292 20.1909 25.292C21.1309 25.292 22.1805 24.9943 23.3399 24.399C24.3425 23.929 25.4392 23.2867 26.6299 22.472L27.0999 30.18C25.8779 31.308 24.3112 32.2637 22.3999 33.047C20.5825 33.7677 18.8592 34.128 17.2299 34.128ZM35.1266 33.141C33.8106 33.141 32.6982 33.1097 31.7896 33.047C30.9122 32.9843 30.0819 32.8433 29.2986 32.624C29.1732 32.624 29.0792 32.5613 29.0166 32.436C28.9539 32.2793 28.9069 32.1697 28.8756 32.107C28.8442 31.9503 28.8286 31.7623 28.8286 31.543C28.6406 28.3783 28.4682 25.9187 28.3116 24.164C28.1549 22.096 28.0766 19.511 28.0766 16.409V15.234L28.1236 13.448L28.2176 11.333L28.2646 10.158C28.2959 9.93867 28.3116 9.594 28.3116 9.124V7.338C28.3116 6.74267 28.3272 6.351 28.3586 6.163C28.3586 6.069 28.4212 6.022 28.5466 6.022C28.8286 6.022 29.0792 5.95933 29.2986 5.834C29.3926 5.834 29.5336 5.834 29.7216 5.834C29.9409 5.80266 30.1289 5.80266 30.2856 5.834H31.8366H34.3276H35.6906H38.3226C38.8866 5.834 39.3096 5.84967 39.5916 5.881L41.0016 5.928C41.3462 5.928 41.5969 5.95933 41.7536 6.022C41.9416 6.05333 42.0826 6.14733 42.1766 6.304C42.2706 6.398 42.3333 6.586 42.3646 6.868C42.3959 7.15 42.4116 7.46333 42.4116 7.808V8.184V8.842C42.4116 9.15533 42.4272 9.37467 42.4586 9.5V9.97V10.299C42.4899 10.4243 42.5056 10.581 42.5056 10.769L42.4586 12.179C42.4272 12.4923 42.4116 12.9467 42.4116 13.542C42.4116 13.8867 42.4429 14.1217 42.5056 14.247C42.5996 14.4037 42.7406 14.482 42.9286 14.482C42.9912 14.482 43.1479 14.4507 43.3986 14.388C43.4926 14.388 43.6179 14.3723 43.7746 14.341C43.9312 14.3097 44.1036 14.294 44.2916 14.294H44.7616C44.9182 14.3567 45.2002 14.388 45.6076 14.388C45.7642 14.388 45.9052 14.3723 46.0306 14.341C46.1872 14.3097 46.3282 14.294 46.4536 14.294C46.7356 14.294 46.8766 14.2627 46.8766 14.2V12.273V11.568C46.8766 11.098 46.8923 10.722 46.9236 10.44V9.124C46.9549 8.81067 46.9706 8.372 46.9706 7.808C46.9706 7.27533 46.9862 6.915 47.0176 6.727V6.022H47.1586H47.3936C47.5816 6.022 47.6756 5.95933 47.6756 5.834H49.9316C50.8716 5.834 51.5766 5.86533 52.0466 5.928C52.8613 5.99067 53.5193 6.022 54.0206 6.022L56.9816 5.928C57.4516 5.86533 58.0313 5.834 58.7206 5.834H59.9426C60.5693 5.834 60.9923 5.89667 61.2116 6.022C61.4309 6.14733 61.5406 6.46066 61.5406 6.962V10.675C61.5406 11.3017 61.5249 11.803 61.4936 12.179L61.4466 13.307C61.4466 13.8083 61.4152 14.5603 61.3526 15.563L61.3056 16.362L61.3526 17.114L60.8826 32.013C60.8826 32.107 60.7886 32.3107 60.6006 32.624C60.4126 32.8747 60.2246 33 60.0366 33H56.7466C55.5246 33 54.3182 32.953 53.1276 32.859C52.3443 32.8277 51.1693 32.812 49.6026 32.812H48.8036C48.3649 32.812 48.0672 32.6553 47.9106 32.342C47.7852 31.9347 47.7069 31.402 47.6756 30.744L47.2056 22.989H46.7356C45.9836 22.989 45.4352 22.9733 45.0906 22.942C44.7772 22.8793 44.6206 22.848 44.6206 22.848H42.6936C42.5682 22.848 42.4899 22.895 42.4586 22.989C42.4272 23.083 42.4116 23.1927 42.4116 23.318C42.4116 23.412 42.4116 23.4903 42.4116 23.553V31.355V32.248C42.4116 32.342 42.3959 32.436 42.3646 32.53C42.3333 32.5927 42.3176 32.6553 42.3176 32.718C42.2862 32.812 42.2079 32.859 42.0826 32.859C42.0512 32.859 42.0042 32.8747 41.9416 32.906C41.8789 32.9373 41.8006 32.9687 41.7066 33C40.5472 33 39.4506 33.047 38.4166 33.141H35.1266ZM62.7685 33.047C62.1731 33.047 61.9381 32.5143 62.0635 31.449C62.0635 31.073 62.1418 30.65 62.2985 30.18C62.2985 29.9607 62.3141 29.7883 62.3455 29.663C62.3768 29.5063 62.3925 29.381 62.3925 29.287C63.1131 25.8717 63.9121 22.5033 64.7895 19.182L67.9855 6.68C67.9855 6.61733 68.0325 6.539 68.1265 6.445C68.2205 6.351 68.3145 6.27267 68.4085 6.21H68.7375C69.1135 6.21 69.4111 6.163 69.6305 6.069C69.8185 6.03767 70.1475 6.022 70.6175 6.022C71.3695 6.022 71.9335 6.03767 72.3095 6.069C72.8735 6.163 73.4531 6.21 74.0485 6.21L76.4925 6.163C76.7431 6.10033 77.0408 6.069 77.3855 6.069L79.4535 5.975H81.0045C81.5998 5.975 82.1795 5.99067 82.7435 6.022H84.0595C84.3728 6.05333 84.8271 6.069 85.4225 6.069H87.2085C87.3025 6.069 87.3965 6.08467 87.4905 6.116C87.5845 6.14733 87.6628 6.17866 87.7255 6.21C87.8508 6.27267 88.0075 6.304 88.1955 6.304H88.6185C88.8378 6.46067 88.9475 6.61733 88.9475 6.774L92.2845 19.182C93.3185 23.1613 94.1331 26.5297 94.7285 29.287C94.7285 29.4437 94.7755 29.7413 94.8695 30.18C94.9948 30.8067 95.0575 31.308 95.0575 31.684C95.0575 31.9033 95.0261 32.201 94.9635 32.577C94.8068 32.8903 94.5875 33.047 94.3055 33.047H93.7885C93.3811 33.047 93.0678 33.0313 92.8485 33H91.8145H90.8275H90.0285C89.8091 33 89.6838 32.9843 89.6525 32.953H87.0675L87.0205 32.859C86.9578 32.7963 86.8638 32.765 86.7385 32.765L86.5975 32.859C86.5975 32.9217 86.5661 32.953 86.5035 32.953H86.3625H86.0335C85.8768 32.8903 85.5948 32.859 85.1875 32.859C84.4355 32.7963 83.8088 32.765 83.3075 32.765C82.9628 32.0443 82.5555 30.462 82.0855 28.018C81.4275 28.112 80.6755 28.159 79.8295 28.159H78.6075H77.4325C77.3071 28.629 77.2288 29.0207 77.1975 29.334C77.1661 29.4907 77.0408 30.0233 76.8215 30.932C76.6021 31.8407 76.3985 32.4517 76.2105 32.765L75.9285 32.859C75.8345 32.8903 75.7561 32.9217 75.6935 32.953C75.6308 32.953 75.5995 32.953 75.5995 32.953H75.5055C75.3175 32.953 75.1921 32.9217 75.1295 32.859C75.0041 32.7963 74.9258 32.765 74.8945 32.765L73.1085 32.859H71.7925C71.6358 32.8903 71.5105 32.9217 71.4165 32.953C71.3225 32.953 71.2598 32.953 71.2285 32.953H67.4685H67.0925C66.8105 32.9843 66.2308 33 65.3535 33H64.2255C64.0375 33.0313 63.7398 33.047 63.3325 33.047H62.7685ZM81.6625 22.989C81.4745 21.9237 81.3648 21.297 81.3335 21.109L80.9575 18.853C80.8948 18.4143 80.8321 18.0227 80.7695 17.678C80.7068 17.302 80.6598 16.9573 80.6285 16.644C80.5345 16.268 80.4561 15.9233 80.3935 15.61C80.3621 15.2653 80.3151 14.952 80.2525 14.67C80.2211 14.482 80.1898 14.247 80.1585 13.965C80.1271 13.6517 80.0801 13.4323 80.0175 13.307L79.9235 12.743C79.9235 12.6177 79.8921 12.508 79.8295 12.414L79.7825 12.132C79.7198 12.32 79.6885 12.414 79.6885 12.414V12.602V12.743C79.6885 12.7743 79.6728 12.837 79.6415 12.931C79.6101 12.9937 79.5788 13.119 79.5475 13.307C79.5161 13.4637 79.4848 13.6673 79.4535 13.918C79.4221 14.1373 79.3751 14.388 79.3125 14.67L78.9835 16.597L78.6075 18.759L78.4665 19.793C78.4038 20.0437 78.3411 20.451 78.2785 21.015C77.9965 22.425 77.8711 23.0673 77.9025 22.942H79.9705C80.0018 22.9107 80.0488 22.8793 80.1115 22.848C80.1741 22.7853 80.2211 22.754 80.2525 22.754H80.3935C80.5501 22.754 80.6755 22.7697 80.7695 22.801C80.8948 22.8323 81.0045 22.8637 81.0985 22.895C81.2865 22.9577 81.4745 22.989 81.6625 22.989ZM96.8725 33.141C96.4025 33.141 96.0891 32.859 95.9325 32.295C95.8385 31.9817 95.7915 31.4177 95.7915 30.603C95.7915 28.1903 95.7601 26.091 95.6975 24.305C95.6035 21.579 95.5565 18.7433 95.5565 15.798V6.774C95.5565 6.52333 95.6661 6.28833 95.8855 6.069C96.1361 5.84967 96.3868 5.74 96.6375 5.74C98.8935 5.74 100.46 5.75566 101.337 5.787L104.768 5.834C105.708 5.834 107.275 5.80267 109.468 5.74C110.596 5.70867 112.461 5.693 115.061 5.693C116.973 5.693 118.618 5.928 119.996 6.398C121.751 6.962 123.239 7.87067 124.461 9.124C125.715 10.628 126.341 12.6177 126.341 15.093C126.341 19.1663 125.292 22.1743 123.192 24.117C121.281 25.8403 118.508 26.702 114.873 26.702H109.28C109.28 27.642 109.249 28.206 109.186 28.394C109.186 28.6133 109.171 28.77 109.139 28.864C109.108 28.958 109.092 29.0207 109.092 29.052C109.092 29.146 109.124 29.24 109.186 29.334V29.992L109.28 30.603V30.932C109.28 31.778 109.092 32.3733 108.716 32.718C108.56 32.8433 108.325 32.9217 108.011 32.953C107.729 32.9843 107.416 33 107.071 33H104.533L103.217 33.047C101.901 33.1097 100.836 33.141 100.021 33.141H96.8725ZM111.536 21.767C112.038 21.767 112.445 21.2343 112.758 20.169C112.978 19.4483 113.15 18.336 113.275 16.832C113.307 16.08 113.322 15.2027 113.322 14.2V13.777C113.322 13.0877 113.244 12.4297 113.087 11.803C112.931 10.863 112.664 10.2363 112.288 9.923C112.069 9.70367 111.818 9.594 111.536 9.594C111.286 9.594 111.066 9.75067 110.878 10.064C110.534 10.722 110.283 11.8187 110.126 13.354C109.97 14.2313 109.891 14.9833 109.891 15.61C109.735 17.0513 109.656 19.0723 109.656 21.673C109.656 21.673 109.672 21.6887 109.703 21.72C109.766 21.72 109.829 21.72 109.891 21.72C109.923 21.7513 110.095 21.767 110.408 21.767H111.536ZM139.37 33.141H137.208H134.764H131.662C131.38 32.7023 131.192 31.9033 131.098 30.744C130.973 29.71 130.91 28.206 130.91 26.232L130.957 21.062C130.989 19.8087 131.004 17.819 131.004 15.093L130.863 14.952H126.21C125.521 14.952 125.067 14.1687 124.847 12.602C124.722 11.756 124.659 10.5183 124.659 8.889V8.278C124.722 8.05866 124.753 7.714 124.753 7.244V6.304L124.8 5.928L124.988 5.74L125.834 5.787H126.774C128.153 5.787 129.203 5.77133 129.923 5.74H132.978H133.824H135.422H137.443H139.464C139.872 5.77133 140.451 5.787 141.203 5.787H142.378C142.504 5.72433 142.707 5.693 142.989 5.693C143.209 5.63033 143.412 5.599 143.6 5.599C144.196 5.599 144.65 5.63033 144.963 5.693C145.59 5.75566 146.06 5.787 146.373 5.787L147.595 5.74H149.428C150.368 5.74 151.011 5.75566 151.355 5.787L152.013 5.834C152.045 5.86533 152.092 5.91233 152.154 5.975C152.217 6.00633 152.248 6.03767 152.248 6.069V14.059C152.248 14.247 152.139 14.4507 151.919 14.67C151.731 14.8893 151.543 15.0303 151.355 15.093C150.321 14.8737 148.974 14.764 147.313 14.764H145.527C145.057 14.764 144.744 15.3593 144.587 16.55C144.525 16.8947 144.493 17.396 144.493 18.054V19.464C144.493 20.0907 144.509 20.5607 144.54 20.874V22.19C144.54 23.4747 144.478 24.6653 144.352 25.762C144.29 26.5767 144.258 27.172 144.258 27.548C144.196 27.924 144.164 28.441 144.164 29.099C144.164 30.039 144.133 30.8223 144.07 31.449C144.039 32.4203 143.679 32.9373 142.989 33C142.237 33.094 141.799 33.141 141.673 33.141H139.37ZM153.485 32.812C153.423 32.812 153.376 32.7493 153.344 32.624C153.125 32.342 152.968 31.9973 152.874 31.59C152.78 31.4333 152.702 31.2297 152.639 30.979C152.357 30.415 152.154 29.6317 152.028 28.629C151.903 27.1877 151.84 26.044 151.84 25.198C151.809 24.822 151.793 24.305 151.793 23.647V22.519C151.793 21.579 151.778 20.8427 151.746 20.31C151.715 19.746 151.699 18.6337 151.699 16.973C151.699 12.5237 151.793 9.09267 151.981 6.68C151.981 6.304 152.514 6.022 153.579 5.834H154.989H156.164C157.95 5.834 159.282 5.86533 160.159 5.928C161.475 6.022 162.807 6.069 164.154 6.069C164.468 6.069 164.703 6.05333 164.859 6.022H165.564L165.799 6.21C166.833 5.99067 167.899 5.84967 168.995 5.787C170.092 5.72433 171.424 5.693 172.99 5.693C173.053 5.693 173.131 5.74 173.225 5.834H174.729C174.98 5.834 175.168 5.975 175.293 6.257C175.45 6.539 175.575 6.94633 175.669 7.479C175.795 7.88633 175.889 8.38767 175.951 8.983C176.077 9.76633 176.186 10.2833 176.28 10.534C176.28 11.4113 176.124 11.85 175.81 11.85C175.779 11.85 175.732 11.803 175.669 11.709L175.481 11.662C175.325 11.6307 175.152 11.6463 174.964 11.709C174.776 11.803 174.573 11.85 174.353 11.85C174.165 11.85 174.009 11.803 173.883 11.709C173.821 11.6777 173.68 11.662 173.46 11.662C173.178 11.662 172.849 11.709 172.473 11.803C172.348 11.8343 172.097 11.8813 171.721 11.944C171.377 12.0067 170.969 12.038 170.499 12.038C169.152 12.038 168.181 12.0693 167.585 12.132C167.241 12.1633 166.912 12.2573 166.598 12.414V12.32C166.473 12.32 166.363 12.4767 166.269 12.79C166.05 13.3227 165.909 14.059 165.846 14.999C165.815 15.281 165.799 15.5943 165.799 15.939C165.799 16.2837 165.846 16.5187 165.94 16.644C166.066 16.7693 166.254 16.832 166.504 16.832C166.692 16.832 166.849 16.7693 166.974 16.644C167.037 16.644 167.115 16.6597 167.209 16.691C167.303 16.7223 167.382 16.7693 167.444 16.832H171.439C171.471 16.7693 171.518 16.7223 171.58 16.691C171.643 16.6597 171.706 16.644 171.768 16.644C172.082 16.644 172.317 16.691 172.473 16.785C172.661 16.879 173.037 16.973 173.601 17.067C173.915 17.067 174.134 17.161 174.259 17.349C174.416 17.5683 174.494 17.772 174.494 17.96L175.481 21.062C175.575 21.5633 175.105 21.8923 174.071 22.049C173.476 22.1743 172.332 22.237 170.64 22.237H168.619H167.209C166.771 22.237 166.442 22.2683 166.222 22.331C166.003 22.3623 165.862 22.472 165.799 22.66C165.674 22.8167 165.611 23.0673 165.611 23.412V23.6C165.611 23.7567 165.627 23.8663 165.658 23.929L165.611 24.963C165.58 25.1823 165.564 25.5113 165.564 25.95V26.42V26.843V27.125C166.974 27.125 168.416 27.078 169.888 26.984C171.33 26.89 172.755 26.843 174.165 26.843C174.259 26.843 174.338 26.9213 174.4 27.078C174.463 27.2033 174.494 27.36 174.494 27.548C174.557 27.736 174.588 27.9397 174.588 28.159C174.651 28.629 174.745 29.0677 174.87 29.475L175.199 30.838V31.778V31.919V32.295L174.823 32.624H174.494H174.353C174.009 32.624 173.789 32.6083 173.695 32.577C173.601 32.5143 173.492 32.483 173.366 32.483C173.304 32.5143 173.21 32.5613 173.084 32.624C172.959 32.6867 172.849 32.7493 172.755 32.812V32.577L172.191 32.624H171.486C171.361 32.624 171.267 32.5927 171.204 32.53L170.828 32.483C169.669 32.483 168.854 32.5927 168.384 32.812H153.485ZM198.456 33.517C197.077 32.1697 195.902 30.8067 194.931 29.428C194.241 28.5193 193.176 26.9057 191.735 24.587L190.936 23.318C190.904 23.2867 190.873 23.271 190.842 23.271C190.842 23.2397 190.842 23.224 190.842 23.224H190.607L190.419 23.318C190.387 23.7253 190.372 24.822 190.372 26.608C190.372 27.7673 190.309 29.1303 190.184 30.697L190.137 32.107C190.011 32.4517 189.933 32.624 189.902 32.624H189.573H189.432C185.985 32.8747 183.478 33 181.912 33H181.207H180.314C179.969 33 179.718 32.9843 179.562 32.953H179.233L177.776 32.483L177.682 32.154C177.619 32.154 177.572 32.0913 177.541 31.966C177.541 31.8407 177.541 31.7467 177.541 31.684C177.447 30.368 177.368 29.4123 177.306 28.817C177.18 27.125 177.102 25.8873 177.071 25.104C177.008 24.352 176.977 23.8663 176.977 23.647L176.742 21.062L176.695 19.652C176.663 19.37 176.648 18.9783 176.648 18.477V18.054C176.71 17.8973 176.742 17.6467 176.742 17.302V16.503C176.773 16.3777 176.789 16.2367 176.789 16.08L176.742 15.704V15.234C176.742 15.0147 176.71 14.8423 176.648 14.717V14.435L176.695 13.26C176.726 13.0407 176.742 12.7117 176.742 12.273C176.804 11.333 176.836 10.44 176.836 9.594V9.124C176.804 9.03 176.789 8.82633 176.789 8.513V7.855V7.385C176.695 7.291 176.648 7.197 176.648 7.103C176.648 6.66433 177.039 6.351 177.823 6.163C178.23 6.03766 178.81 5.975 179.562 5.975C186.894 5.975 192.377 6.22566 196.012 6.727C199.584 7.22833 202.09 8.09 203.532 9.312C204.158 9.90733 204.597 10.6123 204.848 11.427C205.13 12.2103 205.271 13.1503 205.271 14.247C205.271 16.0017 204.769 17.4743 203.767 18.665C203.109 19.323 202.341 19.8713 201.464 20.31C201.652 20.78 202.2 21.72 203.109 23.13C203.297 23.3493 203.469 23.5843 203.626 23.835C203.814 24.0857 204.033 24.352 204.284 24.634C204.879 25.4487 205.568 26.3417 206.352 27.313C206.383 27.4383 206.508 27.7047 206.728 28.112C206.884 28.1747 206.963 28.253 206.963 28.347C206.994 28.4097 206.978 28.5037 206.916 28.629C206.665 29.005 205.929 29.5533 204.707 30.274C204.55 30.4307 204.362 30.5873 204.143 30.744C203.516 31.2453 202.654 31.7623 201.558 32.295C200.555 32.8277 199.693 33.2037 198.973 33.423C198.691 33.5797 198.518 33.611 198.456 33.517ZM189.902 16.973C190.309 16.973 190.857 16.8947 191.547 16.738C192.205 16.55 192.675 16.362 192.957 16.174C193.427 15.892 193.834 15.5787 194.179 15.234C194.523 14.8267 194.696 14.3567 194.696 13.824C194.696 12.9467 194.429 12.2417 193.897 11.709C193.427 11.333 192.847 11.145 192.158 11.145H190.137C190.137 11.5523 190.105 12.1947 190.043 13.072L189.996 14.059C189.933 14.6857 189.902 15.657 189.902 16.973ZM212.744 33.94L211.663 33.752C210.629 33.5953 209.767 33.4073 209.078 33.188C208.702 33.1567 208.373 33.047 208.091 32.859C207.84 32.765 207.683 32.6397 207.621 32.483L206.587 26.655V26.42C206.587 26.2007 206.602 26.044 206.634 25.95C206.696 25.8247 206.806 25.7463 206.963 25.715C208.999 26.4983 211.005 26.89 212.979 26.89C213.605 26.89 214.091 26.9057 214.436 26.937C215.626 26.937 216.488 26.7803 217.021 26.467C217.303 26.279 217.444 26.0127 217.444 25.668C217.444 25.1667 217.287 24.7593 216.974 24.446C216.66 24.1013 216.206 23.8037 215.611 23.553L214.107 22.989C213.668 22.895 213.167 22.7227 212.603 22.472C212.603 22.4407 212.587 22.425 212.556 22.425C212.524 22.3937 212.493 22.3467 212.462 22.284C212.336 22.2527 212.07 22.096 211.663 21.814L211.381 21.673C211.443 21.673 211.475 21.6573 211.475 21.626C211.475 21.5947 211.428 21.5633 211.334 21.532C211.24 21.4693 211.052 21.3753 210.77 21.25C210.519 21.0933 210.3 20.921 210.112 20.733C209.83 20.5763 209.689 20.3883 209.689 20.169V19.934C208.905 19.934 208.232 19.1193 207.668 17.49C207.198 15.8293 206.963 14.6543 206.963 13.965C206.963 11.051 208.216 8.81067 210.723 7.244C212.759 5.95933 215.564 5.09766 219.136 4.659C221.454 4.40833 224.337 4.283 227.784 4.283C228.222 4.43967 228.567 4.53367 228.818 4.565C229.382 4.59633 229.758 4.78433 229.946 5.129C230.04 5.28567 230.118 5.599 230.181 6.069C230.275 6.57033 230.369 8.02733 230.463 10.44C230.525 10.5027 230.557 10.5967 230.557 10.722C230.557 10.9727 230.212 11.1763 229.523 11.333C228.771 11.427 228.285 11.474 228.066 11.474L226.985 11.615C225.763 11.7717 224.964 11.8813 224.588 11.944C223.303 12.1633 222.41 12.555 221.909 13.119C221.595 13.495 221.439 13.8867 221.439 14.294C221.439 14.5133 221.47 14.6857 221.533 14.811C221.595 14.9363 221.752 15.0773 222.003 15.234C222.285 15.3907 223.099 15.7823 224.447 16.409C225.888 17.0357 227.329 17.8503 228.771 18.853C229.993 19.699 230.87 20.827 231.403 22.237C231.685 22.8323 231.826 23.6157 231.826 24.587C231.826 25.4643 231.716 26.2163 231.497 26.843C230.682 28.911 229.147 30.603 226.891 31.919C225.825 32.5457 224.713 33.0313 223.554 33.376C222.394 33.752 221.282 33.94 220.217 33.94L213.308 34.081L212.744 33.94Z" fill="white"/>
</svg>
