<svg width="434" height="36" viewBox="0 0 434 36" fill="none" xmlns="http://www.w3.org/2000/svg">
<rect y="15" width="219" height="8" rx="4" fill="#18B77E"/>
<path d="M242.163 26C241.136 26 240.417 25.9927 240.007 25.978H239.193C238.841 25.9487 238.313 25.934 237.609 25.934H236.685C236.245 25.934 235.951 25.8753 235.805 25.758C235.599 25.5967 235.497 25.2813 235.497 24.812L235.519 24.614C235.519 24.57 235.526 24.526 235.541 24.482C235.555 24.4233 235.563 24.3573 235.563 24.284L235.607 23.8L235.563 23.184C235.563 23.1253 235.555 23.074 235.541 23.03C235.526 22.9713 235.519 22.9127 235.519 22.854L235.497 22.7C235.482 22.5533 235.475 22.2747 235.475 21.864V19.884C235.46 19.4293 235.453 18.9013 235.453 18.3C235.453 18.1387 235.431 18.058 235.387 18.058C235.328 18.058 235.24 18.1167 235.123 18.234C234.859 18.5567 234.58 18.8353 234.287 19.07C234.14 19.1727 233.979 19.224 233.803 19.224C233.641 19.224 233.509 19.18 233.407 19.092C233.304 19.004 233.253 18.9013 233.253 18.784V14.582C233.253 14.5233 233.267 14.4867 233.297 14.472C233.326 14.4573 233.355 14.4353 233.385 14.406C233.414 14.3767 233.451 14.3547 233.495 14.34C233.583 14.296 233.693 14.23 233.825 14.142C233.971 14.054 234.147 13.9513 234.353 13.834C234.763 13.5553 235.071 13.3867 235.277 13.328C235.467 13.2547 235.636 13.218 235.783 13.218C237.279 13.218 238.364 13.2253 239.039 13.24L242.295 13.262C242.456 13.262 242.595 13.3207 242.713 13.438C242.83 13.5553 242.889 13.6873 242.889 13.834V21.16C242.889 21.8053 242.867 22.4067 242.823 22.964C242.779 23.5507 242.757 24.1153 242.757 24.658C242.757 25.0687 242.727 25.362 242.669 25.538C242.595 25.846 242.427 26 242.163 26ZM249.867 26.528C249.794 26.528 249.691 26.5133 249.559 26.484C249.427 26.4693 249.258 26.4473 249.053 26.418L247.865 26.176C247.777 26.132 247.689 26.0953 247.601 26.066C247.528 26.0513 247.462 26.0293 247.403 26C247.374 25.9853 247.33 25.9633 247.271 25.934C247.212 25.9047 247.183 25.868 247.183 25.824C247.051 25.78 246.89 25.7067 246.699 25.604C246.508 25.5453 246.347 25.472 246.215 25.384L245.907 25.164C245.76 25.076 245.658 25.0027 245.599 24.944C245.174 24.5773 244.844 24.0567 244.609 23.382C244.418 22.8247 244.272 22.172 244.169 21.424C244.125 20.984 244.103 20.412 244.103 19.708C244.103 18.872 244.147 18.2193 244.235 17.75C244.308 17.2073 244.462 16.5547 244.697 15.792C244.8 15.704 244.968 15.418 245.203 14.934C245.262 14.8607 245.306 14.7873 245.335 14.714C245.364 14.626 245.401 14.5527 245.445 14.494C245.46 14.4793 245.482 14.4427 245.511 14.384C245.555 14.3107 245.599 14.274 245.643 14.274C245.76 14.274 245.929 14.164 246.149 13.944C246.222 13.9 246.325 13.812 246.457 13.68C246.56 13.5773 246.655 13.504 246.743 13.46C247.154 13.2107 247.667 13.0347 248.283 12.932C248.386 12.9173 248.518 12.9027 248.679 12.888C248.855 12.8587 248.994 12.844 249.097 12.844C249.288 12.844 249.449 12.8367 249.581 12.822C249.713 12.8073 249.83 12.7927 249.933 12.778C250.857 12.8073 251.627 12.866 252.243 12.954C252.786 13.0127 253.468 13.1227 254.289 13.284C254.333 13.284 254.406 13.306 254.509 13.35C254.993 13.5113 255.36 13.658 255.609 13.79C255.785 13.878 255.873 13.966 255.873 14.054V14.252C256.034 14.252 256.203 14.3253 256.379 14.472C256.555 14.604 256.716 14.7873 256.863 15.022C257.024 15.2273 257.149 15.4473 257.237 15.682C257.325 15.9167 257.369 16.1073 257.369 16.254C257.501 16.254 257.574 16.2613 257.589 16.276C257.618 16.2907 257.633 16.3567 257.633 16.474C257.706 16.8407 257.78 17.134 257.853 17.354C257.882 17.4713 257.912 17.6033 257.941 17.75C257.985 17.882 258.029 18.0433 258.073 18.234L258.095 18.41L258.139 19.224V19.774C258.139 20.874 258.066 21.732 257.919 22.348C257.714 23.3013 257.31 24.042 256.709 24.57C256.489 24.7607 256.247 24.9367 255.983 25.098L255.213 25.604C254.773 25.7507 254.45 25.8753 254.245 25.978L253.299 26.308C252.8 26.308 252.236 26.3447 251.605 26.418C251.121 26.4913 250.542 26.528 249.867 26.528ZM251.143 23.338C251.598 23.338 251.928 23.14 252.133 22.744C252.206 22.568 252.25 22.37 252.265 22.15C252.28 21.93 252.287 21.798 252.287 21.754L252.309 21.138C252.353 20.698 252.375 20.2727 252.375 19.862C252.39 19.73 252.397 19.554 252.397 19.334C252.397 18.982 252.36 18.6447 252.287 18.322C252.214 17.9847 252.133 17.6693 252.045 17.376C251.957 17.0827 251.898 16.892 251.869 16.804C251.84 16.54 251.774 16.3347 251.671 16.188C251.583 16.0413 251.422 15.968 251.187 15.968C250.747 15.968 250.454 16.2027 250.307 16.672C250.234 16.848 250.182 17.0533 250.153 17.288C250.153 17.376 250.131 17.574 250.087 17.882L249.933 18.96C249.83 19.2827 249.779 19.642 249.779 20.038C249.779 20.5513 249.83 21.0133 249.933 21.424C249.962 21.644 250.021 21.8787 250.109 22.128C250.212 22.3627 250.278 22.5313 250.307 22.634C250.322 22.7807 250.454 22.9273 250.703 23.074C250.776 23.1473 250.857 23.2133 250.945 23.272C251.033 23.316 251.099 23.338 251.143 23.338ZM264.837 26.528C264.764 26.528 264.661 26.5133 264.529 26.484C264.397 26.4693 264.229 26.4473 264.023 26.418L262.835 26.176C262.747 26.132 262.659 26.0953 262.571 26.066C262.498 26.0513 262.432 26.0293 262.373 26C262.344 25.9853 262.3 25.9633 262.241 25.934C262.183 25.9047 262.153 25.868 262.153 25.824C262.021 25.78 261.86 25.7067 261.669 25.604C261.479 25.5453 261.317 25.472 261.185 25.384L260.877 25.164C260.731 25.076 260.628 25.0027 260.569 24.944C260.144 24.5773 259.814 24.0567 259.579 23.382C259.389 22.8247 259.242 22.172 259.139 21.424C259.095 20.984 259.073 20.412 259.073 19.708C259.073 18.872 259.117 18.2193 259.205 17.75C259.279 17.2073 259.433 16.5547 259.667 15.792C259.77 15.704 259.939 15.418 260.173 14.934C260.232 14.8607 260.276 14.7873 260.305 14.714C260.335 14.626 260.371 14.5527 260.415 14.494C260.43 14.4793 260.452 14.4427 260.481 14.384C260.525 14.3107 260.569 14.274 260.613 14.274C260.731 14.274 260.899 14.164 261.119 13.944C261.193 13.9 261.295 13.812 261.427 13.68C261.53 13.5773 261.625 13.504 261.713 13.46C262.124 13.2107 262.637 13.0347 263.253 12.932C263.356 12.9173 263.488 12.9027 263.649 12.888C263.825 12.8587 263.965 12.844 264.067 12.844C264.258 12.844 264.419 12.8367 264.551 12.822C264.683 12.8073 264.801 12.7927 264.903 12.778C265.827 12.8073 266.597 12.866 267.213 12.954C267.756 13.0127 268.438 13.1227 269.259 13.284C269.303 13.284 269.377 13.306 269.479 13.35C269.963 13.5113 270.33 13.658 270.579 13.79C270.755 13.878 270.843 13.966 270.843 14.054V14.252C271.005 14.252 271.173 14.3253 271.349 14.472C271.525 14.604 271.687 14.7873 271.833 15.022C271.995 15.2273 272.119 15.4473 272.207 15.682C272.295 15.9167 272.339 16.1073 272.339 16.254C272.471 16.254 272.545 16.2613 272.559 16.276C272.589 16.2907 272.603 16.3567 272.603 16.474C272.677 16.8407 272.75 17.134 272.823 17.354C272.853 17.4713 272.882 17.6033 272.911 17.75C272.955 17.882 272.999 18.0433 273.043 18.234L273.065 18.41L273.109 19.224V19.774C273.109 20.874 273.036 21.732 272.889 22.348C272.684 23.3013 272.281 24.042 271.679 24.57C271.459 24.7607 271.217 24.9367 270.953 25.098L270.183 25.604C269.743 25.7507 269.421 25.8753 269.215 25.978L268.269 26.308C267.771 26.308 267.206 26.3447 266.575 26.418C266.091 26.4913 265.512 26.528 264.837 26.528ZM266.113 23.338C266.568 23.338 266.898 23.14 267.103 22.744C267.177 22.568 267.221 22.37 267.235 22.15C267.25 21.93 267.257 21.798 267.257 21.754L267.279 21.138C267.323 20.698 267.345 20.2727 267.345 19.862C267.36 19.73 267.367 19.554 267.367 19.334C267.367 18.982 267.331 18.6447 267.257 18.322C267.184 17.9847 267.103 17.6693 267.015 17.376C266.927 17.0827 266.869 16.892 266.839 16.804C266.81 16.54 266.744 16.3347 266.641 16.188C266.553 16.0413 266.392 15.968 266.157 15.968C265.717 15.968 265.424 16.2027 265.277 16.672C265.204 16.848 265.153 17.0533 265.123 17.288C265.123 17.376 265.101 17.574 265.057 17.882L264.903 18.96C264.801 19.2827 264.749 19.642 264.749 20.038C264.749 20.5513 264.801 21.0133 264.903 21.424C264.933 21.644 264.991 21.8787 265.079 22.128C265.182 22.3627 265.248 22.5313 265.277 22.634C265.292 22.7807 265.424 22.9273 265.673 23.074C265.747 23.1473 265.827 23.2133 265.915 23.272C266.003 23.316 266.069 23.338 266.113 23.338ZM289.796 17.618C289.678 17.882 289.429 18.4907 289.048 19.444L288.278 21.27C288.19 21.49 288.138 21.6073 288.124 21.622L287.244 23.888L286.43 25.56C286.356 25.7213 286.254 25.846 286.122 25.934C285.99 26.022 285.85 26.0807 285.704 26.11C285.63 26.154 285.52 26.176 285.374 26.176L285.22 26.198H285.154C285.095 26.198 285.051 26.1907 285.022 26.176C284.992 26.176 284.97 26.176 284.956 26.176C284.941 26.132 284.904 26.11 284.846 26.11C284.802 26.11 284.758 26.1173 284.714 26.132C284.655 26.176 284.626 26.198 284.626 26.198H283.416C283.416 26.1833 283.357 26.176 283.24 26.176H282.866H282.47H282.206C281.986 26.176 281.876 26.022 281.876 25.714C281.861 25.5087 281.905 25.23 282.008 24.878L282.206 24.218C282.983 22.3113 283.782 20.4193 284.604 18.542L287.376 11.37C287.376 11.3407 287.39 11.3187 287.42 11.304C287.464 11.2747 287.493 11.2527 287.508 11.238C287.522 11.2087 287.537 11.194 287.552 11.194C287.566 11.194 287.581 11.1867 287.596 11.172C287.625 11.172 287.64 11.1573 287.64 11.128C287.684 11.128 287.713 11.1353 287.728 11.15H287.794C287.955 11.15 288.124 11.128 288.3 11.084C288.461 11.04 288.63 11.018 288.806 11.018H289.268C289.752 11.018 290.126 11.0253 290.39 11.04C290.654 11.0693 290.852 11.0987 290.984 11.128V11.15C291.042 11.1793 291.094 11.194 291.138 11.194L291.336 11.128C291.688 11.128 291.864 11.3627 291.864 11.832C291.864 12.052 291.834 12.3013 291.776 12.58C291.658 13.0933 291.49 13.6213 291.27 14.164L290.588 15.704L290.368 16.232L290.148 16.782C290.133 16.8407 290.104 16.8993 290.06 16.958C290.03 17.0167 290.008 17.0753 289.994 17.134L289.928 17.288L289.796 17.618ZM282.668 19.334C282.228 20.0233 281.575 20.4633 280.71 20.654C280.123 20.786 279.331 20.852 278.334 20.852C278.26 20.852 278.15 20.8373 278.004 20.808C277.945 20.7787 277.835 20.764 277.674 20.764C276.867 20.764 276.134 20.566 275.474 20.17C274.902 19.862 274.447 19.29 274.11 18.454C273.846 17.75 273.714 17.0533 273.714 16.364C273.714 15.8067 273.802 15.242 273.978 14.67C274.168 14.098 274.432 13.5847 274.77 13.13C275.136 12.646 275.562 12.2647 276.046 11.986C276.53 11.7073 277.058 11.568 277.63 11.568H277.916C278.018 11.568 278.099 11.5753 278.158 11.59C278.172 11.5753 278.187 11.568 278.202 11.568C278.216 11.568 278.224 11.568 278.224 11.568H278.268C279.03 11.568 279.654 11.59 280.138 11.634C280.592 11.7073 281.025 11.854 281.436 12.074C282.228 12.6167 282.807 13.196 283.174 13.812C283.511 14.472 283.68 15.286 283.68 16.254C283.68 17.2953 283.46 18.1753 283.02 18.894L282.954 19.004L282.866 19.158C282.836 19.2167 282.814 19.2533 282.8 19.268L282.756 19.312L282.668 19.334ZM279.324 15.264C279.324 14.912 279.258 14.582 279.126 14.274C279.111 14.1273 279.03 14.054 278.884 14.054C278.722 14.054 278.583 14.1567 278.466 14.362C278.334 14.5967 278.231 14.9707 278.158 15.484L278.07 16.298V16.584C278.07 16.5987 278.07 16.6207 278.07 16.65C278.084 16.6647 278.099 16.694 278.114 16.738C278.114 16.914 278.158 17.1707 278.246 17.508C278.26 17.6107 278.282 17.706 278.312 17.794C278.341 17.882 278.363 17.9553 278.378 18.014C278.392 18.0873 278.458 18.124 278.576 18.124C278.766 18.124 278.928 17.9187 279.06 17.508C279.118 17.332 279.184 16.936 279.258 16.32C279.302 16.056 279.324 15.77 279.324 15.462V15.264ZM299.058 19.224C299.41 19.884 299.586 20.6907 299.586 21.644C299.586 22.6413 299.358 23.5213 298.904 24.284C298.904 24.3573 298.882 24.4087 298.838 24.438C298.808 24.4967 298.794 24.5407 298.794 24.57C298.735 24.614 298.698 24.6507 298.684 24.68V24.724L298.574 24.768C298.134 25.428 297.474 25.8607 296.594 26.066C295.948 26.2127 295.156 26.286 294.218 26.286C294.188 26.286 294.086 26.264 293.91 26.22C293.836 26.2053 293.726 26.198 293.58 26.198C292.773 26.198 292.032 25.9927 291.358 25.582C290.83 25.2887 290.382 24.7093 290.016 23.844C289.752 23.228 289.62 22.546 289.62 21.798C289.62 21.226 289.708 20.654 289.884 20.082C290.074 19.4953 290.338 18.982 290.676 18.542C291.013 18.058 291.424 17.6767 291.908 17.398C292.406 17.1193 292.949 16.98 293.536 16.98H293.8C293.917 16.98 294.005 16.9873 294.064 17.002C294.078 16.9873 294.1 16.98 294.13 16.98H294.174C294.966 16.98 295.589 17.0093 296.044 17.068C296.542 17.1413 296.968 17.2733 297.32 17.464C298.126 18.0067 298.706 18.5933 299.058 19.224ZM295.208 20.72C295.164 20.28 295.112 19.994 295.054 19.862C294.995 19.73 294.9 19.664 294.768 19.664C294.636 19.664 294.511 19.7593 294.394 19.95C294.247 20.082 294.137 20.4047 294.064 20.918L293.976 22.128V22.414C293.976 22.4287 293.976 22.4433 293.976 22.458C293.976 22.4727 293.983 22.4947 293.998 22.524C294.012 22.6707 294.056 22.8833 294.13 23.162C294.203 23.3527 294.254 23.47 294.284 23.514C294.284 23.5873 294.357 23.624 294.504 23.624C294.592 23.624 294.672 23.5653 294.746 23.448C294.834 23.3307 294.907 23.184 294.966 23.008C295.039 22.6707 295.105 22.2527 295.164 21.754L295.208 20.874V20.72ZM312.718 26.528C311.75 26.528 310.943 26.484 310.298 26.396C309.462 26.2787 308.707 26.066 308.032 25.758C307.944 25.714 307.812 25.648 307.636 25.56C307.475 25.4573 307.335 25.362 307.218 25.274C306.734 24.8633 306.338 24.4013 306.03 23.888C305.781 23.624 305.553 23.2573 305.348 22.788C304.952 21.7613 304.754 20.5367 304.754 19.114C304.754 17.442 305.099 15.9753 305.788 14.714C306.389 13.5113 307.189 12.5727 308.186 11.898C309.198 11.2087 310.342 10.82 311.618 10.732L311.882 10.71H312.168C313.312 10.71 314.544 10.9447 315.864 11.414C315.981 11.4727 316.238 11.59 316.634 11.766C317.03 11.942 317.397 12.14 317.734 12.36L317.338 15.22L316.04 14.89C315.571 14.7727 315.131 14.714 314.72 14.714C313.899 14.714 313.283 15.022 312.872 15.638C312.432 16.2833 312.212 17.332 312.212 18.784C312.212 19.2533 312.234 19.5833 312.278 19.774C312.337 20.698 312.542 21.38 312.894 21.82C313.231 22.2013 313.635 22.392 314.104 22.392C314.544 22.392 315.035 22.2527 315.578 21.974C316.047 21.754 316.561 21.4533 317.118 21.072L317.338 24.68C316.766 25.208 316.033 25.6553 315.138 26.022C314.287 26.3593 313.481 26.528 312.718 26.528ZM325.385 26.55C325.268 26.55 325.107 26.5353 324.901 26.506C324.799 26.4767 324.637 26.462 324.417 26.462C323.86 26.462 323.171 26.3373 322.349 26.088H322.195C322.093 26.088 321.983 26.0587 321.865 26C321.836 25.9707 321.799 25.9487 321.755 25.934C321.711 25.9047 321.66 25.868 321.601 25.824L321.139 25.56C320.699 25.3107 320.311 24.966 319.973 24.526C319.636 24.0713 319.365 23.5727 319.159 23.03C318.763 22.0327 318.565 21.0133 318.565 19.972C318.565 18.8133 318.8 17.6987 319.269 16.628C319.768 15.4987 320.435 14.604 321.271 13.944C322.195 13.2107 323.222 12.844 324.351 12.844C324.703 12.844 324.975 12.8587 325.165 12.888C325.165 12.8587 325.187 12.844 325.231 12.844H325.297C326.324 12.844 327.241 12.8807 328.047 12.954C328.737 13.0567 329.375 13.2693 329.961 13.592C331.135 14.3693 331.978 15.22 332.491 16.144C333.034 17.1707 333.305 18.3807 333.305 19.774C333.305 21.1673 332.975 22.4727 332.315 23.69L332.095 24.042C332.037 24.13 332 24.174 331.985 24.174L331.919 24.284L331.765 24.372C331.135 25.3107 330.181 25.9487 328.905 26.286C328.055 26.462 326.881 26.55 325.385 26.55ZM325.759 24.9C325.891 24.9 325.994 24.8193 326.067 24.658C326.243 24.394 326.39 23.8807 326.507 23.118C326.522 22.986 326.559 22.6927 326.617 22.238C326.676 21.7833 326.713 21.358 326.727 20.962C326.786 19.9647 326.815 19.3487 326.815 19.114V18.608V18.432C326.815 17.904 326.793 17.4493 326.749 17.068C326.705 16.4667 326.617 15.99 326.485 15.638C326.353 15.462 326.251 15.374 326.177 15.374C326.031 15.374 325.891 15.484 325.759 15.704C325.627 15.924 325.525 16.3273 325.451 16.914L324.989 20.434V20.874V21.16C325.033 21.776 325.055 22.1793 325.055 22.37L325.099 22.898L325.165 23.602C325.165 23.7193 325.18 23.822 325.209 23.91L325.451 24.724C325.466 24.7827 325.503 24.8267 325.561 24.856C325.635 24.8853 325.701 24.9 325.759 24.9ZM336.603 26.066C336.471 26.066 336.368 26.0513 336.295 26.022H335.899H335.569H335.415L334.579 25.824L334.513 25.67V25.45L334.491 24.856C334.461 24.592 334.447 24.3647 334.447 24.174L334.425 22.502C334.41 22.3407 334.403 22.1207 334.403 21.842C334.403 21.1673 334.425 20.5147 334.469 19.884C334.498 19.4733 334.513 18.8133 334.513 17.904C334.513 17.7573 334.498 17.6327 334.469 17.53V17.31L334.447 17.178C334.447 16.8407 334.469 16.5107 334.513 16.188L334.535 15.022L334.513 14.494V13.988C334.469 13.944 334.447 13.8927 334.447 13.834C334.447 13.614 334.623 13.4527 334.975 13.35C335.18 13.2913 335.437 13.262 335.745 13.262H338.957L340.453 13.284C340.453 13.284 340.46 13.2913 340.475 13.306C340.504 13.3207 340.533 13.3427 340.563 13.372C340.68 13.4893 340.797 13.6433 340.915 13.834C341.047 14.054 341.157 14.2887 341.245 14.538C341.347 14.8313 341.545 15.3447 341.839 16.078C342.073 16.6793 342.271 17.156 342.433 17.508C342.55 17.8893 342.682 18.08 342.829 18.08C342.961 18.08 343.063 17.9847 343.137 17.794C343.166 17.7647 343.21 17.6693 343.269 17.508L343.621 16.694C343.65 16.6353 343.753 16.4153 343.929 16.034C343.973 15.9607 344.097 15.6967 344.303 15.242L344.633 14.538C344.662 14.45 344.706 14.34 344.765 14.208C344.823 14.076 344.889 13.9513 344.963 13.834C345.109 13.5993 345.227 13.4453 345.315 13.372C345.344 13.3133 345.388 13.284 345.447 13.284L346.943 13.262H350.133H350.397H350.595H350.859C350.917 13.2767 351.049 13.284 351.255 13.284C351.269 13.284 351.299 13.3793 351.343 13.57C351.387 14.318 351.409 14.9193 351.409 15.374C351.438 15.9313 351.453 16.7747 351.453 17.904V19.004C351.453 19.664 351.394 20.61 351.277 21.842V22.502C351.291 22.6927 351.299 22.9567 351.299 23.294L351.321 24.218C351.335 24.394 351.343 24.6287 351.343 24.922C351.343 25.186 351.35 25.362 351.365 25.45V25.67L351.299 25.824L350.463 26.022H350.287H349.979H349.605C349.517 26.0513 349.407 26.066 349.275 26.066C348.703 26.066 348.116 26.044 347.515 26C346.913 25.9413 346.539 25.9047 346.393 25.89L346.305 25.912H346.195C346.107 25.912 346.063 25.7727 346.063 25.494C345.989 25.1127 345.953 24.2693 345.953 22.964C345.923 22.5973 345.909 22.0987 345.909 21.468C345.909 21.3653 345.857 21.314 345.755 21.314C345.711 21.314 345.667 21.3727 345.623 21.49C345.403 22.018 345.271 22.348 345.227 22.48L345.073 22.942L344.897 23.294C344.633 23.8807 344.347 24.3353 344.039 24.658C343.848 24.8487 343.65 24.944 343.445 24.944H343.159H342.763C342.572 24.944 342.433 24.9367 342.345 24.922C342.183 24.922 342.066 24.9147 341.993 24.9C341.479 24.108 341.003 23.2353 340.563 22.282C340.504 22.106 340.445 21.9593 340.387 21.842C340.343 21.7247 340.306 21.622 340.277 21.534C340.174 21.3873 340.123 21.314 340.123 21.314C340.02 21.314 339.969 21.3653 339.969 21.468V22.348C339.969 23.2427 339.961 23.888 339.947 24.284C339.947 24.9147 339.903 25.384 339.815 25.692C339.8 25.7507 339.778 25.802 339.749 25.846C339.734 25.89 339.712 25.912 339.683 25.912H339.573L339.485 25.89C339.353 25.9047 338.986 25.9413 338.385 26C337.798 26.044 337.204 26.066 336.603 26.066ZM353.491 26.066C353.271 26.066 353.124 25.934 353.051 25.67C353.007 25.5233 352.985 25.2593 352.985 24.878C352.985 23.7487 352.97 22.766 352.941 21.93C352.897 20.654 352.875 19.3267 352.875 17.948V13.724C352.875 13.6067 352.926 13.4967 353.029 13.394C353.146 13.2913 353.264 13.24 353.381 13.24C354.437 13.24 355.17 13.2473 355.581 13.262L357.187 13.284C357.627 13.284 358.36 13.2693 359.387 13.24C359.915 13.2253 360.788 13.218 362.005 13.218C362.9 13.218 363.67 13.328 364.315 13.548C365.136 13.812 365.833 14.2373 366.405 14.824C366.992 15.528 367.285 16.4593 367.285 17.618C367.285 19.5247 366.794 20.9327 365.811 21.842C364.916 22.6487 363.618 23.052 361.917 23.052H359.299C359.299 23.492 359.284 23.756 359.255 23.844C359.255 23.9467 359.248 24.02 359.233 24.064C359.218 24.108 359.211 24.1373 359.211 24.152C359.211 24.196 359.226 24.24 359.255 24.284V24.592L359.299 24.878V25.032C359.299 25.428 359.211 25.7067 359.035 25.868C358.962 25.9267 358.852 25.9633 358.705 25.978C358.573 25.9927 358.426 26 358.265 26H357.077L356.461 26.022C355.845 26.0513 355.346 26.066 354.965 26.066H353.491ZM360.355 20.742C360.59 20.742 360.78 20.4927 360.927 19.994C361.03 19.6567 361.11 19.136 361.169 18.432C361.184 18.08 361.191 17.6693 361.191 17.2V17.002C361.191 16.6793 361.154 16.3713 361.081 16.078C361.008 15.638 360.883 15.3447 360.707 15.198C360.604 15.0953 360.487 15.044 360.355 15.044C360.238 15.044 360.135 15.1173 360.047 15.264C359.886 15.572 359.768 16.0853 359.695 16.804C359.622 17.2147 359.585 17.5667 359.585 17.86C359.512 18.5347 359.475 19.4807 359.475 20.698C359.475 20.698 359.482 20.7053 359.497 20.72C359.526 20.72 359.556 20.72 359.585 20.72C359.6 20.7347 359.68 20.742 359.827 20.742H360.355ZM374.154 26.11L373.868 26.066H373.516C373.296 26.0367 372.914 26.0073 372.372 25.978C372.254 25.978 372.144 25.9707 372.042 25.956C371.939 25.9413 371.844 25.934 371.756 25.934H371.272L371.052 25.912C370.582 25.912 370.238 25.9193 370.018 25.934C369.798 25.9633 369.453 25.978 368.984 25.978H368.544L368.148 26L368.082 25.912V25.67V25.12V24.548V24.174V22.678C368.082 22.326 368.067 22.0693 368.038 21.908V21.38L368.126 20.434C368.17 19.8473 368.192 19.004 368.192 17.904C368.221 16.1293 368.331 14.846 368.522 14.054C368.624 13.6287 368.793 13.3573 369.028 13.24L371.602 13.262C371.822 13.2767 372.137 13.284 372.548 13.284H373.604C373.677 13.2987 373.809 13.3133 374 13.328C374.205 13.3427 374.359 13.3793 374.462 13.438C374.55 13.5113 374.608 13.614 374.638 13.746C374.682 13.8633 374.704 14.0393 374.704 14.274L374.682 14.45V14.714C374.638 14.8167 374.616 14.9193 374.616 15.022C374.586 15.1393 374.579 15.2567 374.594 15.374V15.704C374.608 15.7773 374.616 15.88 374.616 16.012L374.638 16.188V16.694L374.66 17.398C374.674 17.5447 374.682 17.75 374.682 18.014C374.711 18.2193 374.748 18.3587 374.792 18.432C374.792 18.5347 374.784 18.6447 374.77 18.762C374.755 18.8793 374.748 18.9967 374.748 19.114C374.733 19.29 374.726 19.554 374.726 19.906C374.726 20.2433 374.733 20.4927 374.748 20.654C374.748 20.8887 374.784 21.1307 374.858 21.38C375.004 21.4387 375.173 21.468 375.364 21.468C375.848 21.468 376.346 21.4607 376.86 21.446C377.388 21.4313 377.857 21.3873 378.268 21.314C378.356 21.3287 378.436 21.3873 378.51 21.49C378.598 21.5927 378.642 21.6807 378.642 21.754L378.488 25.538C378.458 25.626 378.4 25.6847 378.312 25.714C378.062 25.8313 377.718 25.9047 377.278 25.934C376.691 26.022 376.302 26.066 376.112 26.066H375.738C375.444 26.066 375.224 26.0733 375.078 26.088C374.784 26.1173 374.579 26.132 374.462 26.132L374.154 26.11ZM380.257 25.912C380.228 25.912 380.206 25.8827 380.191 25.824C380.088 25.692 380.015 25.5307 379.971 25.34C379.927 25.2667 379.89 25.1713 379.861 25.054C379.729 24.79 379.634 24.4233 379.575 23.954C379.516 23.2793 379.487 22.744 379.487 22.348C379.472 22.172 379.465 21.93 379.465 21.622V21.094C379.465 20.654 379.458 20.3093 379.443 20.06C379.428 19.796 379.421 19.2753 379.421 18.498C379.421 16.4153 379.465 14.8093 379.553 13.68C379.553 13.504 379.802 13.372 380.301 13.284H380.961H381.511C382.347 13.284 382.97 13.2987 383.381 13.328C383.997 13.372 384.62 13.394 385.251 13.394C385.398 13.394 385.508 13.3867 385.581 13.372H385.911L386.021 13.46C386.505 13.3573 387.004 13.2913 387.517 13.262C388.03 13.2327 388.654 13.218 389.387 13.218C389.416 13.218 389.453 13.24 389.497 13.284H390.201C390.318 13.284 390.406 13.35 390.465 13.482C390.538 13.614 390.597 13.8047 390.641 14.054C390.7 14.2447 390.744 14.4793 390.773 14.758C390.832 15.1247 390.883 15.3667 390.927 15.484C390.927 15.8947 390.854 16.1 390.707 16.1C390.692 16.1 390.67 16.078 390.641 16.034L390.553 16.012C390.48 15.9973 390.399 16.0047 390.311 16.034C390.223 16.078 390.128 16.1 390.025 16.1C389.937 16.1 389.864 16.078 389.805 16.034C389.776 16.0193 389.71 16.012 389.607 16.012C389.475 16.012 389.321 16.034 389.145 16.078C389.086 16.0927 388.969 16.1147 388.793 16.144C388.632 16.1733 388.441 16.188 388.221 16.188C387.59 16.188 387.136 16.2027 386.857 16.232C386.696 16.2467 386.542 16.2907 386.395 16.364V16.32C386.336 16.32 386.285 16.3933 386.241 16.54C386.138 16.7893 386.072 17.134 386.043 17.574C386.028 17.706 386.021 17.8527 386.021 18.014C386.021 18.1753 386.043 18.2853 386.087 18.344C386.146 18.4027 386.234 18.432 386.351 18.432C386.439 18.432 386.512 18.4027 386.571 18.344C386.6 18.344 386.637 18.3513 386.681 18.366C386.725 18.3807 386.762 18.4027 386.791 18.432H388.661C388.676 18.4027 388.698 18.3807 388.727 18.366C388.756 18.3513 388.786 18.344 388.815 18.344C388.962 18.344 389.072 18.366 389.145 18.41C389.233 18.454 389.409 18.498 389.673 18.542C389.82 18.542 389.922 18.586 389.981 18.674C390.054 18.7767 390.091 18.872 390.091 18.96L390.553 20.412C390.597 20.6467 390.377 20.8007 389.893 20.874C389.614 20.9327 389.079 20.962 388.287 20.962H387.341H386.681C386.476 20.962 386.322 20.9767 386.219 21.006C386.116 21.0207 386.05 21.072 386.021 21.16C385.962 21.2333 385.933 21.3507 385.933 21.512V21.6C385.933 21.6733 385.94 21.7247 385.955 21.754L385.933 22.238C385.918 22.3407 385.911 22.4947 385.911 22.7V22.92V23.118V23.25C386.571 23.25 387.246 23.228 387.935 23.184C388.61 23.14 389.277 23.118 389.937 23.118C389.981 23.118 390.018 23.1547 390.047 23.228C390.076 23.2867 390.091 23.36 390.091 23.448C390.12 23.536 390.135 23.6313 390.135 23.734C390.164 23.954 390.208 24.1593 390.267 24.35L390.421 24.988V25.428V25.494V25.67L390.245 25.824H390.091H390.025C389.864 25.824 389.761 25.8167 389.717 25.802C389.673 25.7727 389.622 25.758 389.563 25.758C389.534 25.7727 389.49 25.7947 389.431 25.824C389.372 25.8533 389.321 25.8827 389.277 25.912V25.802L389.013 25.824H388.683C388.624 25.824 388.58 25.8093 388.551 25.78L388.375 25.758C387.832 25.758 387.451 25.8093 387.231 25.912H380.257ZM398.645 26.066H397.633H396.489H395.037C394.905 25.8607 394.817 25.4867 394.773 24.944C394.714 24.46 394.685 23.756 394.685 22.832L394.707 20.412C394.722 19.8253 394.729 18.894 394.729 17.618L394.663 17.552H392.485C392.162 17.552 391.95 17.1853 391.847 16.452C391.788 16.056 391.759 15.4767 391.759 14.714V14.428C391.788 14.3253 391.803 14.164 391.803 13.944V13.504L391.825 13.328L391.913 13.24L392.309 13.262H392.749C393.394 13.262 393.886 13.2547 394.223 13.24H395.653H396.049H396.797H397.743H398.689C398.88 13.2547 399.151 13.262 399.503 13.262H400.053C400.112 13.2327 400.207 13.218 400.339 13.218C400.442 13.1887 400.537 13.174 400.625 13.174C400.904 13.174 401.116 13.1887 401.263 13.218C401.556 13.2473 401.776 13.262 401.923 13.262L402.495 13.24H403.353C403.793 13.24 404.094 13.2473 404.255 13.262L404.563 13.284C404.578 13.2987 404.6 13.3207 404.629 13.35C404.658 13.3647 404.673 13.3793 404.673 13.394V17.134C404.673 17.222 404.622 17.3173 404.519 17.42C404.431 17.5227 404.343 17.5887 404.255 17.618C403.771 17.5153 403.14 17.464 402.363 17.464H401.527C401.307 17.464 401.16 17.7427 401.087 18.3C401.058 18.4613 401.043 18.696 401.043 19.004V19.664C401.043 19.9573 401.05 20.1773 401.065 20.324V20.94C401.065 21.5413 401.036 22.0987 400.977 22.612C400.948 22.9933 400.933 23.272 400.933 23.448C400.904 23.624 400.889 23.866 400.889 24.174C400.889 24.614 400.874 24.9807 400.845 25.274C400.83 25.7287 400.662 25.9707 400.339 26C399.987 26.044 399.782 26.066 399.723 26.066H398.645ZM406.352 25.912C406.323 25.912 406.301 25.8827 406.286 25.824C406.183 25.692 406.11 25.5307 406.066 25.34C406.022 25.2667 405.985 25.1713 405.956 25.054C405.824 24.79 405.729 24.4233 405.67 23.954C405.611 23.2793 405.582 22.744 405.582 22.348C405.567 22.172 405.56 21.93 405.56 21.622V21.094C405.56 20.654 405.553 20.3093 405.538 20.06C405.523 19.796 405.516 19.2753 405.516 18.498C405.516 16.4153 405.56 14.8093 405.648 13.68C405.648 13.504 405.897 13.372 406.396 13.284H407.056H407.606C408.442 13.284 409.065 13.2987 409.476 13.328C410.092 13.372 410.715 13.394 411.346 13.394C411.493 13.394 411.603 13.3867 411.676 13.372H412.006L412.116 13.46C412.6 13.3573 413.099 13.2913 413.612 13.262C414.125 13.2327 414.749 13.218 415.482 13.218C415.511 13.218 415.548 13.24 415.592 13.284H416.296C416.413 13.284 416.501 13.35 416.56 13.482C416.633 13.614 416.692 13.8047 416.736 14.054C416.795 14.2447 416.839 14.4793 416.868 14.758C416.927 15.1247 416.978 15.3667 417.022 15.484C417.022 15.8947 416.949 16.1 416.802 16.1C416.787 16.1 416.765 16.078 416.736 16.034L416.648 16.012C416.575 15.9973 416.494 16.0047 416.406 16.034C416.318 16.078 416.223 16.1 416.12 16.1C416.032 16.1 415.959 16.078 415.9 16.034C415.871 16.0193 415.805 16.012 415.702 16.012C415.57 16.012 415.416 16.034 415.24 16.078C415.181 16.0927 415.064 16.1147 414.888 16.144C414.727 16.1733 414.536 16.188 414.316 16.188C413.685 16.188 413.231 16.2027 412.952 16.232C412.791 16.2467 412.637 16.2907 412.49 16.364V16.32C412.431 16.32 412.38 16.3933 412.336 16.54C412.233 16.7893 412.167 17.134 412.138 17.574C412.123 17.706 412.116 17.8527 412.116 18.014C412.116 18.1753 412.138 18.2853 412.182 18.344C412.241 18.4027 412.329 18.432 412.446 18.432C412.534 18.432 412.607 18.4027 412.666 18.344C412.695 18.344 412.732 18.3513 412.776 18.366C412.82 18.3807 412.857 18.4027 412.886 18.432H414.756C414.771 18.4027 414.793 18.3807 414.822 18.366C414.851 18.3513 414.881 18.344 414.91 18.344C415.057 18.344 415.167 18.366 415.24 18.41C415.328 18.454 415.504 18.498 415.768 18.542C415.915 18.542 416.017 18.586 416.076 18.674C416.149 18.7767 416.186 18.872 416.186 18.96L416.648 20.412C416.692 20.6467 416.472 20.8007 415.988 20.874C415.709 20.9327 415.174 20.962 414.382 20.962H413.436H412.776C412.571 20.962 412.417 20.9767 412.314 21.006C412.211 21.0207 412.145 21.072 412.116 21.16C412.057 21.2333 412.028 21.3507 412.028 21.512V21.6C412.028 21.6733 412.035 21.7247 412.05 21.754L412.028 22.238C412.013 22.3407 412.006 22.4947 412.006 22.7V22.92V23.118V23.25C412.666 23.25 413.341 23.228 414.03 23.184C414.705 23.14 415.372 23.118 416.032 23.118C416.076 23.118 416.113 23.1547 416.142 23.228C416.171 23.2867 416.186 23.36 416.186 23.448C416.215 23.536 416.23 23.6313 416.23 23.734C416.259 23.954 416.303 24.1593 416.362 24.35L416.516 24.988V25.428V25.494V25.67L416.34 25.824H416.186H416.12C415.959 25.824 415.856 25.8167 415.812 25.802C415.768 25.7727 415.717 25.758 415.658 25.758C415.629 25.7727 415.585 25.7947 415.526 25.824C415.467 25.8533 415.416 25.8827 415.372 25.912V25.802L415.108 25.824H414.778C414.719 25.824 414.675 25.8093 414.646 25.78L414.47 25.758C413.927 25.758 413.546 25.8093 413.326 25.912H406.352ZM421.814 26C421.257 25.9853 420.296 25.978 418.932 25.978C418.727 25.978 418.587 25.846 418.514 25.582C418.47 25.4353 418.448 25.1787 418.448 24.812C418.448 24.152 418.433 23.5727 418.404 23.074C418.404 22.6193 418.389 21.7907 418.36 20.588L418.338 17.948V13.79C418.338 13.6873 418.389 13.5773 418.492 13.46C418.609 13.3427 418.719 13.284 418.822 13.284L420.098 13.306C420.303 13.3207 420.604 13.328 421 13.328C421.425 13.3427 421.953 13.35 422.584 13.35C423.523 13.35 424.256 13.3427 424.784 13.328C425.297 13.2987 426.155 13.284 427.358 13.284C428.179 13.284 428.935 13.4307 429.624 13.724C430.489 14.0907 431.179 14.6627 431.692 15.44C432.279 16.3493 432.572 17.53 432.572 18.982C432.572 20.2873 432.425 21.38 432.132 22.26C431.853 23.14 431.399 23.8513 430.768 24.394C430.123 24.9513 429.272 25.362 428.216 25.626C427.175 25.8753 425.869 26 424.3 26H421.814ZM424.454 23.514C424.777 23.514 424.989 23.4993 425.092 23.47C425.195 23.4407 425.268 23.404 425.312 23.36C425.532 23.14 425.737 22.4873 425.928 21.402C426.089 20.39 426.17 19.444 426.17 18.564V18.212C426.17 17.6987 426.133 17.2073 426.06 16.738C426.001 16.166 425.884 15.6967 425.708 15.33C425.605 15.1687 425.473 15.088 425.312 15.088C425.18 15.088 425.019 15.1247 424.828 15.198L424.674 15.264C424.674 15.6013 424.659 16.3567 424.63 17.53L424.608 18.894C424.608 19.1873 424.601 19.4147 424.586 19.576L424.564 20.258L424.454 23.514Z" fill="#18B77E"/>
</svg>
