<svg width="1440" height="1478" viewBox="0 0 1440 1478" fill="none" xmlns="http://www.w3.org/2000/svg">
<rect y="173.535" width="1440" height="289.558" fill="#142220"/>
<path d="M-457.943 193.196H-136.061C-134.069 193.196 -132.476 192.429 -132.517 191.49C-132.811 184.802 -132.733 160.285 -116.62 151.025C-116.17 150.766 -116.725 150.393 -117.396 150.504C-125.071 151.775 -147.949 156.147 -153.642 163.914C-153.869 164.224 -154.806 164.208 -154.985 163.892L-163.864 148.29C-164.033 147.992 -164.894 147.953 -165.18 148.23L-175.102 157.814C-175.337 158.042 -176.006 158.067 -176.314 157.859L-195.236 145.117C-195.592 144.877 -196.385 144.955 -196.506 145.242L-205.286 166.041C-205.433 166.389 -206.48 166.402 -206.663 166.057L-222.506 136.252C-222.683 135.92 -223.677 135.915 -223.871 136.244L-237.199 158.862C-237.376 159.163 -238.254 159.193 -238.524 158.909L-253.925 142.633C-254.192 142.351 -255.058 142.377 -255.246 142.673L-267.597 162.146C-267.803 162.472 -268.791 162.459 -268.959 162.129L-276.238 147.829C-276.397 147.517 -277.311 147.482 -277.575 147.778L-297.738 170.445C-297.98 170.716 -298.795 170.717 -299.039 170.446L-326.021 140.403C-326.334 140.055 -327.44 140.181 -327.374 140.558C-326.364 146.352 -324.901 162.282 -337.447 169.581C-337.797 169.784 -338.48 169.735 -338.668 169.489L-351.93 152.183C-352.163 151.879 -353.084 151.894 -353.273 152.205L-364.321 170.423C-364.493 170.706 -365.302 170.754 -365.611 170.497C-369.586 167.191 -386.048 152.316 -377.836 138.951C-377.836 138.951 -399.358 152.278 -400.091 162.096C-400.118 162.457 -401.183 162.536 -401.454 162.198L-410.364 151.06C-410.604 150.759 -411.52 150.778 -411.704 151.088L-422.55 169.325C-422.759 169.676 -423.846 169.636 -423.931 169.273C-425.121 164.165 -431.346 149.818 -463.904 139.482C-464.457 139.306 -465.168 139.562 -464.964 139.861C-461.811 144.488 -448.739 166.158 -461.383 191.136C-461.916 192.187 -460.234 193.196 -457.943 193.196Z" fill="#142220"/>
<path d="M-132.521 191.492C-132.478 192.428 -134.074 193.197 -136.059 193.197H-457.945C-460.235 193.197 -461.915 192.187 -461.383 191.138C-459.951 188.31 -458.852 185.522 -458.03 182.798C-458.001 182.802 -457.973 182.802 -457.945 182.802H-136.059C-134.074 182.802 -132.709 182.752 -132.709 182.752C-132.708 185.077 -132.654 188.403 -132.521 191.492Z" fill="#142220"/>
<path d="M-399.255 177.891C-395.909 177.891 -393.196 176.612 -393.196 175.034C-393.196 173.457 -395.909 172.178 -399.255 172.178C-402.601 172.178 -405.314 173.457 -405.314 175.034C-405.314 176.612 -402.601 177.891 -399.255 177.891Z" fill="#142220"/>
<path d="M-382.318 185.875C-378.972 185.875 -376.259 184.596 -376.259 183.019C-376.259 181.442 -378.972 180.163 -382.318 180.163C-385.664 180.163 -388.377 181.442 -388.377 183.019C-388.377 184.596 -385.664 185.875 -382.318 185.875Z" fill="#142220"/>
<path d="M-180.122 173.738C-176.776 173.738 -174.063 172.459 -174.063 170.882C-174.063 169.304 -176.776 168.025 -180.122 168.025C-183.468 168.025 -186.18 169.304 -186.18 170.882C-186.18 172.459 -183.468 173.738 -180.122 173.738Z" fill="#142220"/>
<path d="M-134.424 193.196H187.458C189.45 193.196 191.043 192.429 191.002 191.49C190.707 184.802 190.786 160.285 206.898 151.025C207.349 150.766 206.794 150.393 206.123 150.504C198.448 151.775 175.57 156.147 169.876 163.914C169.65 164.224 168.713 164.208 168.533 163.892L159.654 148.29C159.486 147.992 158.624 147.953 158.339 148.23L148.417 157.814C148.182 158.042 147.513 158.067 147.205 157.859L128.283 145.117C127.927 144.877 127.134 144.955 127.012 145.242L118.233 166.041C118.086 166.389 117.039 166.402 116.856 166.057L101.013 136.252C100.836 135.92 99.8417 135.915 99.6477 136.244L86.3199 158.862C86.1429 159.163 85.2648 159.193 84.9952 158.909L69.5939 142.633C69.327 142.351 68.4604 142.377 68.2733 142.673L55.9218 162.146C55.7155 162.472 54.7277 162.459 54.5596 162.129L47.281 147.829C47.1217 147.517 46.2074 147.482 45.944 147.778L25.7809 170.445C25.5392 170.716 24.7237 170.717 24.4799 170.446L-2.50223 140.403C-2.8147 140.055 -3.92157 140.181 -3.85553 140.558C-2.84531 146.352 -1.38242 162.282 -13.9279 169.581C-14.2779 169.784 -14.9606 169.735 -15.1492 169.489L-28.4116 152.183C-28.6444 151.879 -29.5654 151.894 -29.754 152.205L-40.8019 170.423C-40.9741 170.706 -41.7835 170.754 -42.0926 170.497C-46.0675 167.191 -62.5287 152.316 -54.3168 138.951C-54.3168 138.951 -75.8394 152.278 -76.5719 162.096C-76.5991 162.457 -77.6638 162.536 -77.9347 162.198L-86.8451 151.06C-87.0854 150.759 -88.001 150.778 -88.1848 151.088L-99.0312 169.325C-99.2402 169.676 -100.327 169.636 -100.412 169.273C-101.602 164.165 -107.827 149.818 -140.385 139.482C-140.938 139.306 -141.65 139.562 -141.445 139.861C-138.292 144.488 -125.22 166.158 -137.865 191.136C-138.398 192.187 -136.715 193.196 -134.424 193.196Z" fill="#142220"/>
<path d="M190.998 191.492C191.041 192.428 189.445 193.197 187.46 193.197H-134.426C-136.716 193.197 -138.396 192.187 -137.864 191.138C-136.432 188.31 -135.333 185.522 -134.511 182.798C-134.482 182.802 -134.454 182.802 -134.426 182.802H187.46C189.445 182.802 190.81 182.752 190.81 182.752C190.811 185.077 190.864 188.403 190.998 191.492Z" fill="#142220"/>
<path d="M-75.7362 177.891C-72.3901 177.891 -69.6776 176.612 -69.6776 175.034C-69.6776 173.457 -72.3901 172.178 -75.7362 172.178C-79.0823 172.178 -81.7949 173.457 -81.7949 175.034C-81.7949 176.612 -79.0823 177.891 -75.7362 177.891Z" fill="#142220"/>
<path d="M-58.7992 185.875C-55.4531 185.875 -52.7405 184.596 -52.7405 183.019C-52.7405 181.442 -55.4531 180.163 -58.7992 180.163C-62.1453 180.163 -64.8578 181.442 -64.8578 183.019C-64.8578 184.596 -62.1453 185.875 -58.7992 185.875Z" fill="#142220"/>
<path d="M143.397 173.738C146.743 173.738 149.456 172.459 149.456 170.882C149.456 169.304 146.743 168.025 143.397 168.025C140.051 168.025 137.338 169.304 137.338 170.882C137.338 172.459 140.051 173.738 143.397 173.738Z" fill="#142220"/>
<path d="M494.924 193.196H173.042C171.05 193.196 169.457 192.429 169.498 191.49C169.792 184.802 169.714 160.285 153.601 151.025C153.151 150.766 153.706 150.393 154.377 150.504C162.051 151.775 184.929 156.147 190.623 163.914C190.85 164.224 191.787 164.208 191.966 163.892L200.845 148.29C201.014 147.992 201.875 147.953 202.161 148.23L212.082 157.814C212.318 158.042 212.986 158.067 213.295 157.859L232.217 145.117C232.573 144.877 233.366 144.955 233.487 145.242L242.267 166.041C242.414 166.389 243.461 166.402 243.643 166.057L259.487 136.252C259.663 135.92 260.658 135.915 260.852 136.244L274.18 158.862C274.357 159.163 275.235 159.193 275.504 158.909L290.906 142.633C291.173 142.351 292.039 142.377 292.226 142.673L304.578 162.146C304.784 162.472 305.772 162.459 305.94 162.129L313.219 147.829C313.378 147.517 314.292 147.482 314.556 147.778L334.719 170.445C334.96 170.716 335.776 170.717 336.02 170.446L363.002 140.403C363.314 140.055 364.421 140.181 364.355 140.558C363.345 146.352 361.882 162.282 374.428 169.581C374.778 169.784 375.46 169.735 375.649 169.489L388.911 152.183C389.144 151.879 390.065 151.894 390.254 152.205L401.302 170.423C401.474 170.706 402.283 170.754 402.592 170.497C406.567 167.191 423.028 152.316 414.816 138.951C414.816 138.951 436.339 152.278 437.072 162.096C437.099 162.457 438.163 162.536 438.434 162.198L447.345 151.06C447.585 150.759 448.501 150.778 448.684 151.088L459.531 169.325C459.74 169.676 460.827 169.636 460.911 169.273C462.101 164.165 468.327 149.818 500.885 139.482C501.438 139.306 502.149 139.562 501.945 139.861C498.792 144.488 485.72 166.158 498.364 191.136C498.897 192.187 497.215 193.196 494.924 193.196Z" fill="#142220"/>
<path d="M169.502 191.492C169.459 192.428 171.055 193.197 173.04 193.197H494.925C497.215 193.197 498.896 192.187 498.364 191.138C496.932 188.31 495.833 185.522 495.01 182.798C494.982 182.802 494.954 182.802 494.925 182.802H173.04C171.055 182.802 169.69 182.752 169.69 182.752C169.689 185.077 169.635 188.403 169.502 191.492Z" fill="#142220"/>
<path d="M436.236 177.891C432.89 177.891 430.177 176.612 430.177 175.034C430.177 173.457 432.89 172.178 436.236 172.178C439.582 172.178 442.295 173.457 442.295 175.034C442.295 176.612 439.582 177.891 436.236 177.891Z" fill="#142220"/>
<path d="M419.299 185.875C415.953 185.875 413.24 184.596 413.24 183.019C413.24 181.442 415.953 180.163 419.299 180.163C422.645 180.163 425.358 181.442 425.358 183.019C425.358 184.596 422.645 185.875 419.299 185.875Z" fill="#142220"/>
<path d="M217.103 173.738C213.756 173.738 211.044 172.459 211.044 170.882C211.044 169.304 213.756 168.025 217.103 168.025C220.449 168.025 223.161 169.304 223.161 170.882C223.161 172.459 220.449 173.738 217.103 173.738Z" fill="#142220"/>
<path d="M820.23 193.196H498.348C496.356 193.196 494.763 192.429 494.804 191.49C495.099 184.802 495.02 160.285 478.908 151.025C478.457 150.766 479.012 150.393 479.683 150.504C487.358 151.775 510.236 156.147 515.929 163.914C516.156 164.224 517.093 164.208 517.273 163.892L526.151 148.29C526.32 147.992 527.182 147.953 527.467 148.23L537.389 157.814C537.624 158.042 538.293 158.067 538.601 157.859L557.523 145.117C557.879 144.877 558.672 144.955 558.794 145.242L567.573 166.041C567.72 166.389 568.767 166.402 568.95 166.057L584.793 136.252C584.97 135.92 585.964 135.915 586.158 136.244L599.486 158.862C599.663 159.163 600.541 159.193 600.811 158.909L616.212 142.633C616.479 142.351 617.345 142.377 617.533 142.673L629.884 162.146C630.09 162.472 631.078 162.459 631.246 162.129L638.525 147.829C638.684 147.517 639.599 147.482 639.862 147.778L660.025 170.445C660.267 170.716 661.082 170.717 661.326 170.446L688.308 140.403C688.621 140.055 689.728 140.181 689.661 140.558C688.651 146.352 687.188 162.282 699.734 169.581C700.084 169.784 700.766 169.735 700.955 169.489L714.218 152.183C714.45 151.879 715.371 151.894 715.56 152.205L726.608 170.423C726.78 170.706 727.589 170.754 727.899 170.497C731.873 167.191 748.335 152.316 740.123 138.951C740.123 138.951 761.645 152.278 762.378 162.096C762.405 162.457 763.47 162.536 763.741 162.198L772.651 151.06C772.891 150.759 773.807 150.778 773.991 151.088L784.837 169.325C785.046 169.676 786.133 169.636 786.218 169.273C787.408 164.165 793.633 149.818 826.191 139.482C826.744 139.306 827.455 139.562 827.251 139.861C824.098 144.488 811.026 166.158 823.67 191.136C824.203 192.187 822.521 193.196 820.23 193.196Z" fill="#142220"/>
<path d="M494.808 191.492C494.765 192.428 496.361 193.197 498.346 193.197H820.232C822.522 193.197 824.202 192.187 823.67 191.138C822.238 188.31 821.139 185.522 820.317 182.798C820.288 182.802 820.26 182.802 820.232 182.802H498.346C496.361 182.802 494.996 182.752 494.996 182.752C494.995 185.077 494.942 188.403 494.808 191.492Z" fill="#142220"/>
<path d="M761.542 177.891C758.196 177.891 755.484 176.612 755.484 175.034C755.484 173.457 758.196 172.178 761.542 172.178C764.888 172.178 767.601 173.457 767.601 175.034C767.601 176.612 764.888 177.891 761.542 177.891Z" fill="#142220"/>
<path d="M744.605 185.875C741.259 185.875 738.546 184.596 738.546 183.019C738.546 181.442 741.259 180.163 744.605 180.163C747.951 180.163 750.664 181.442 750.664 183.019C750.664 184.596 747.951 185.875 744.605 185.875Z" fill="#142220"/>
<path d="M542.409 173.738C539.063 173.738 536.35 172.459 536.35 170.882C536.35 169.304 539.063 168.025 542.409 168.025C545.755 168.025 548.468 169.304 548.468 170.882C548.468 172.459 545.755 173.738 542.409 173.738Z" fill="#142220"/>
<path d="M2053.53 193.196H1731.65C1729.66 193.196 1728.07 192.429 1728.11 191.49C1728.4 184.802 1728.32 160.285 1712.21 151.025C1711.76 150.766 1712.32 150.393 1712.99 150.504C1720.66 151.775 1743.54 156.147 1749.23 163.914C1749.46 164.224 1750.4 164.208 1750.58 163.892L1759.46 148.29C1759.62 147.992 1760.49 147.953 1760.77 148.23L1770.69 157.814C1770.93 158.042 1771.6 158.067 1771.91 157.859L1790.83 145.117C1791.18 144.877 1791.98 144.955 1792.1 145.242L1800.88 166.041C1801.02 166.389 1802.07 166.402 1802.25 166.057L1818.1 136.252C1818.27 135.92 1819.27 135.915 1819.46 136.244L1832.79 158.862C1832.97 159.163 1833.85 159.193 1834.11 158.909L1849.52 142.633C1849.78 142.351 1850.65 142.377 1850.84 142.673L1863.19 162.146C1863.39 162.472 1864.38 162.459 1864.55 162.129L1871.83 147.829C1871.99 147.517 1872.9 147.482 1873.17 147.778L1893.33 170.445C1893.57 170.716 1894.39 170.717 1894.63 170.446L1921.61 140.403C1921.92 140.055 1923.03 140.181 1922.97 140.558C1921.96 146.352 1920.49 162.282 1933.04 169.581C1933.39 169.784 1934.07 169.735 1934.26 169.489L1947.52 152.183C1947.75 151.879 1948.68 151.894 1948.86 152.205L1959.91 170.423C1960.08 170.706 1960.89 170.754 1961.2 170.497C1965.18 167.191 1981.64 152.316 1973.43 138.951C1973.43 138.951 1994.95 152.278 1995.68 162.096C1995.71 162.457 1996.77 162.536 1997.04 162.198L2005.96 151.06C2006.2 150.759 2007.11 150.778 2007.29 151.088L2018.14 169.325C2018.35 169.676 2019.44 169.636 2019.52 169.273C2020.71 164.165 2026.94 149.818 2059.5 139.482C2060.05 139.306 2060.76 139.562 2060.56 139.861C2057.4 144.488 2044.33 166.158 2056.97 191.136C2057.51 192.187 2055.83 193.196 2053.53 193.196Z" fill="#142220"/>
<path d="M1728.11 191.492C1728.07 192.428 1729.67 193.197 1731.65 193.197H2053.54C2055.83 193.197 2057.51 192.187 2056.97 191.138C2055.54 188.31 2054.44 185.522 2053.62 182.798C2053.59 182.802 2053.56 182.802 2053.54 182.802H1731.65C1729.67 182.802 1728.3 182.752 1728.3 182.752C1728.3 185.077 1728.25 188.403 1728.11 191.492Z" fill="#142220"/>
<path d="M1994.85 177.891C1991.5 177.891 1988.79 176.612 1988.79 175.034C1988.79 173.457 1991.5 172.178 1994.85 172.178C1998.19 172.178 2000.91 173.457 2000.91 175.034C2000.91 176.612 1998.19 177.891 1994.85 177.891Z" fill="#142220"/>
<path d="M1977.91 185.875C1974.56 185.875 1971.85 184.596 1971.85 183.019C1971.85 181.442 1974.56 180.163 1977.91 180.163C1981.26 180.163 1983.97 181.442 1983.97 183.019C1983.97 184.596 1981.26 185.875 1977.91 185.875Z" fill="#142220"/>
<path d="M1775.71 173.738C1772.37 173.738 1769.65 172.459 1769.65 170.882C1769.65 169.304 1772.37 168.025 1775.71 168.025C1779.06 168.025 1781.77 169.304 1781.77 170.882C1781.77 172.459 1779.06 173.738 1775.71 173.738Z" fill="#142220"/>
<path d="M1730.02 193.196H1408.13C1406.14 193.196 1404.55 192.429 1404.59 191.49C1404.88 184.802 1404.81 160.285 1388.69 151.025C1388.24 150.766 1388.8 150.393 1389.47 150.504C1397.14 151.775 1420.02 156.147 1425.71 163.914C1425.94 164.224 1426.88 164.208 1427.06 163.892L1435.94 148.29C1436.11 147.992 1436.97 147.953 1437.25 148.23L1447.17 157.814C1447.41 158.042 1448.08 158.067 1448.39 157.859L1467.31 145.117C1467.66 144.877 1468.46 144.955 1468.58 145.242L1477.36 166.041C1477.51 166.389 1478.55 166.402 1478.73 166.057L1494.58 136.252C1494.76 135.92 1495.75 135.915 1495.94 136.244L1509.27 158.862C1509.45 159.163 1510.33 159.193 1510.6 158.909L1526 142.633C1526.26 142.351 1527.13 142.377 1527.32 142.673L1539.67 162.146C1539.88 162.472 1540.86 162.459 1541.03 162.129L1548.31 147.829C1548.47 147.517 1549.38 147.482 1549.65 147.778L1569.81 170.445C1570.05 170.716 1570.87 170.717 1571.11 170.446L1598.09 140.403C1598.41 140.055 1599.51 140.181 1599.45 140.558C1598.44 146.352 1596.97 162.282 1609.52 169.581C1609.87 169.784 1610.55 169.735 1610.74 169.489L1624 152.183C1624.24 151.879 1625.16 151.894 1625.35 152.205L1636.39 170.423C1636.57 170.706 1637.37 170.754 1637.68 170.497C1641.66 167.191 1658.12 152.316 1649.91 138.951C1649.91 138.951 1671.43 152.278 1672.16 162.096C1672.19 162.457 1673.25 162.536 1673.53 162.198L1682.44 151.06C1682.68 150.759 1683.59 150.778 1683.78 151.088L1694.62 169.325C1694.83 169.676 1695.92 169.636 1696 169.273C1697.19 164.165 1703.42 149.818 1735.98 139.482C1736.53 139.306 1737.24 139.562 1737.04 139.861C1733.88 144.488 1720.81 166.158 1733.46 191.136C1733.99 192.187 1732.31 193.196 1730.02 193.196Z" fill="#142220"/>
<path d="M1404.59 191.492C1404.55 192.428 1406.15 193.197 1408.13 193.197H1730.02C1732.31 193.197 1733.99 192.187 1733.46 191.138C1732.02 188.31 1730.92 185.522 1730.1 182.798C1730.07 182.802 1730.05 182.802 1730.02 182.802H1408.13C1406.15 182.802 1404.78 182.752 1404.78 182.752C1404.78 185.077 1404.73 188.403 1404.59 191.492Z" fill="#142220"/>
<path d="M1671.33 177.891C1667.98 177.891 1665.27 176.612 1665.27 175.034C1665.27 173.457 1667.98 172.178 1671.33 172.178C1674.67 172.178 1677.39 173.457 1677.39 175.034C1677.39 176.612 1674.67 177.891 1671.33 177.891Z" fill="#142220"/>
<path d="M1654.39 185.875C1651.04 185.875 1648.33 184.596 1648.33 183.019C1648.33 181.442 1651.04 180.163 1654.39 180.163C1657.74 180.163 1660.45 181.442 1660.45 183.019C1660.45 184.596 1657.74 185.875 1654.39 185.875Z" fill="#142220"/>
<path d="M1452.19 173.738C1448.85 173.738 1446.14 172.459 1446.14 170.882C1446.14 169.304 1448.85 168.025 1452.19 168.025C1455.54 168.025 1458.25 169.304 1458.25 170.882C1458.25 172.459 1455.54 173.738 1452.19 173.738Z" fill="#142220"/>
<path d="M1100.67 193.196H1422.55C1424.54 193.196 1426.13 192.429 1426.09 191.49C1425.8 184.802 1425.88 160.285 1441.99 151.025C1442.44 150.766 1441.89 150.393 1441.21 150.504C1433.54 151.775 1410.66 156.147 1404.97 163.914C1404.74 164.224 1403.8 164.208 1403.62 163.892L1394.75 148.29C1394.58 147.992 1393.72 147.953 1393.43 148.23L1383.51 157.814C1383.27 158.042 1382.6 158.067 1382.3 157.859L1363.37 145.117C1363.02 144.877 1362.23 144.955 1362.1 145.242L1353.32 166.041C1353.18 166.389 1352.13 166.402 1351.95 166.057L1336.1 136.252C1335.93 135.92 1334.93 135.915 1334.74 136.244L1321.41 158.862C1321.23 159.163 1320.36 159.193 1320.09 158.909L1304.69 142.633C1304.42 142.351 1303.55 142.377 1303.36 142.673L1291.01 162.146C1290.81 162.472 1289.82 162.459 1289.65 162.129L1282.37 147.829C1282.21 147.517 1281.3 147.482 1281.04 147.778L1260.87 170.445C1260.63 170.716 1259.82 170.717 1259.57 170.446L1232.59 140.403C1232.28 140.055 1231.17 140.181 1231.24 140.558C1232.25 146.352 1233.71 162.282 1221.16 169.581C1220.81 169.784 1220.13 169.735 1219.94 169.489L1206.68 152.183C1206.45 151.879 1205.53 151.894 1205.34 152.205L1194.29 170.423C1194.12 170.706 1193.31 170.754 1193 170.497C1189.02 167.191 1172.56 152.316 1180.77 138.951C1180.77 138.951 1159.25 152.278 1158.52 162.096C1158.49 162.457 1157.43 162.536 1157.16 162.198L1148.25 151.06C1148.01 150.759 1147.09 150.778 1146.91 151.088L1136.06 169.325C1135.85 169.676 1134.76 169.636 1134.68 169.273C1133.49 164.165 1127.26 149.818 1094.71 139.482C1094.15 139.306 1093.44 139.562 1093.65 139.861C1096.8 144.488 1109.87 166.158 1097.23 191.136C1096.69 192.187 1098.38 193.196 1100.67 193.196Z" fill="#142220"/>
<path d="M1426.09 191.492C1426.13 192.428 1424.54 193.197 1422.55 193.197H1100.67C1098.38 193.197 1096.7 192.187 1097.23 191.138C1098.66 188.31 1099.76 185.522 1100.58 182.798C1100.61 182.802 1100.64 182.802 1100.67 182.802H1422.55C1424.54 182.802 1425.9 182.752 1425.9 182.752C1425.9 185.077 1425.96 188.403 1426.09 191.492Z" fill="#142220"/>
<path d="M1159.36 177.891C1162.7 177.891 1165.41 176.612 1165.41 175.034C1165.41 173.457 1162.7 172.178 1159.36 172.178C1156.01 172.178 1153.3 173.457 1153.3 175.034C1153.3 176.612 1156.01 177.891 1159.36 177.891Z" fill="#142220"/>
<path d="M1176.29 185.875C1179.64 185.875 1182.35 184.596 1182.35 183.019C1182.35 181.442 1179.64 180.163 1176.29 180.163C1172.95 180.163 1170.23 181.442 1170.23 183.019C1170.23 184.596 1172.95 185.875 1176.29 185.875Z" fill="#142220"/>
<path d="M1378.49 173.738C1381.83 173.738 1384.55 172.459 1384.55 170.882C1384.55 169.304 1381.83 168.025 1378.49 168.025C1375.14 168.025 1372.43 169.304 1372.43 170.882C1372.43 172.459 1375.14 173.738 1378.49 173.738Z" fill="#142220"/>
<path d="M775.361 193.196H1097.24C1099.24 193.196 1100.83 192.429 1100.79 191.49C1100.49 184.802 1100.57 160.285 1116.68 151.025C1117.13 150.766 1116.58 150.393 1115.91 150.504C1108.23 151.775 1085.36 156.147 1079.66 163.914C1079.44 164.224 1078.5 164.208 1078.32 163.892L1069.44 148.29C1069.27 147.992 1068.41 147.953 1068.12 148.23L1058.2 157.814C1057.97 158.042 1057.3 158.067 1056.99 157.859C1040 154.405 1038.87 151.138 1038.07 145.117C1037.71 144.877 1036.92 144.955 1036.8 145.242C1024.78 153.297 1023.06 157.852 1028.02 166.041C1027.87 166.389 1026.82 166.402 1026.64 166.057C1015.55 154.8 1012.28 148.259 1010.8 136.252C1010.62 135.92 1009.63 135.915 1009.43 136.244C1007.01 147.124 1005.08 152.803 996.105 158.862C995.928 159.163 995.05 159.193 994.781 158.909C981.666 152.181 979.828 148.698 979.379 142.633C979.112 142.351 978.246 142.377 978.058 142.673L965.707 162.146C965.501 162.472 964.513 162.459 964.345 162.129L957.066 147.829C956.907 147.517 955.993 147.482 955.729 147.778L935.566 170.445C935.324 170.716 934.509 170.717 934.265 170.446L907.283 140.403C906.97 140.055 905.864 140.181 905.93 140.558C906.94 146.352 908.403 162.282 895.857 169.581C895.507 169.784 894.825 169.735 894.636 169.489L881.374 152.183C881.141 151.879 880.22 151.894 880.031 152.205L868.983 170.423C868.811 170.706 868.002 170.754 867.693 170.497C863.718 167.191 847.257 152.316 855.468 138.951C855.468 138.951 833.946 152.278 833.213 162.096C833.186 162.457 832.121 162.536 831.851 162.198L822.94 151.06C822.7 150.759 821.784 150.778 821.6 151.088L810.754 169.325C810.545 169.676 809.458 169.636 809.373 169.273C808.183 164.165 801.958 149.818 769.4 139.482C768.847 139.306 768.136 139.562 768.34 139.861C771.493 144.488 784.565 166.158 771.921 191.136C771.388 192.187 773.07 193.196 775.361 193.196Z" fill="#142220"/>
<path d="M1100.78 191.492C1100.83 192.428 1099.23 193.197 1097.25 193.197H775.359C773.069 193.197 771.389 192.187 771.921 191.138C773.353 188.31 774.452 185.522 775.274 182.798C775.303 182.802 775.331 182.802 775.359 182.802H1097.25C1099.23 182.802 1100.6 182.752 1100.6 182.752C1100.6 185.077 1100.65 188.403 1100.78 191.492Z" fill="#142220"/>
<path d="M834.049 177.891C837.395 177.891 840.108 176.612 840.108 175.034C840.108 173.457 837.395 172.178 834.049 172.178C830.703 172.178 827.99 173.457 827.99 175.034C827.99 176.612 830.703 177.891 834.049 177.891Z" fill="#142220"/>
<path d="M850.986 185.875C854.332 185.875 857.045 184.596 857.045 183.019C857.045 181.442 854.332 180.163 850.986 180.163C847.64 180.163 844.927 181.442 844.927 183.019C844.927 184.596 847.64 185.875 850.986 185.875Z" fill="#142220"/>
<path d="M1053.18 173.738C1056.53 173.738 1059.24 172.459 1059.24 170.882C1059.24 169.304 1056.53 168.025 1053.18 168.025C1049.84 168.025 1047.12 169.304 1047.12 170.882C1047.12 172.459 1049.84 173.738 1053.18 173.738Z" fill="#142220"/>
<path d="M2335.94 193.196H2014.06C2012.07 193.196 2010.48 192.429 2010.52 191.49C2010.81 184.802 2010.73 160.285 1994.62 151.025C1994.17 150.766 1994.73 150.393 1995.4 150.504C2003.07 151.775 2025.95 156.147 2031.64 163.914C2031.87 164.224 2032.81 164.208 2032.99 163.892L2041.86 148.29C2042.03 147.992 2042.89 147.953 2043.18 148.23L2053.1 157.814C2053.34 158.042 2054.01 158.067 2054.31 157.859L2073.24 145.117C2073.59 144.877 2074.39 144.955 2074.51 145.242L2083.29 166.041C2083.43 166.389 2084.48 166.402 2084.66 166.057L2100.51 136.252C2100.68 135.92 2101.68 135.915 2101.87 136.244L2115.2 158.862C2115.38 159.163 2116.25 159.193 2116.52 158.909L2131.92 142.633C2132.19 142.351 2133.06 142.377 2133.25 142.673L2145.6 162.146C2145.8 162.472 2146.79 162.459 2146.96 162.129L2154.24 147.829C2154.4 147.517 2155.31 147.482 2155.57 147.778L2175.74 170.445C2175.98 170.716 2176.8 170.717 2177.04 170.446L2204.02 140.403C2204.33 140.055 2205.44 140.181 2205.37 140.558C2204.36 146.352 2202.9 162.282 2215.45 169.581C2215.8 169.784 2216.48 169.735 2216.67 169.489L2229.93 152.183C2230.16 151.879 2231.08 151.894 2231.27 152.205L2242.32 170.423C2242.49 170.706 2243.3 170.754 2243.61 170.497C2247.59 167.191 2264.05 152.316 2255.84 138.951C2255.84 138.951 2277.36 152.278 2278.09 162.096C2278.12 162.457 2279.18 162.536 2279.45 162.198L2288.36 151.06C2288.6 150.759 2289.52 150.778 2289.7 151.088L2300.55 169.325C2300.76 169.676 2301.85 169.636 2301.93 169.273C2303.12 164.165 2309.35 149.818 2341.9 139.482C2342.46 139.306 2343.17 139.562 2342.96 139.861C2339.81 144.488 2326.74 166.158 2339.38 191.136C2339.92 192.187 2338.23 193.196 2335.94 193.196Z" fill="#142220"/>
<path d="M2010.52 191.492C2010.48 192.428 2012.07 193.197 2014.06 193.197H2335.94C2338.23 193.197 2339.91 192.187 2339.38 191.138C2337.95 188.31 2336.85 185.522 2336.03 182.798C2336 182.802 2335.97 182.802 2335.94 182.802H2014.06C2012.07 182.802 2010.71 182.752 2010.71 182.752C2010.71 185.077 2010.65 188.403 2010.52 191.492Z" fill="#142220"/>
<path d="M2277.26 177.891C2273.91 177.891 2271.2 176.612 2271.2 175.034C2271.2 173.457 2273.91 172.178 2277.26 172.178C2280.6 172.178 2283.31 173.457 2283.31 175.034C2283.31 176.612 2280.6 177.891 2277.26 177.891Z" fill="#142220"/>
<path d="M2260.32 185.875C2256.97 185.875 2254.26 184.596 2254.26 183.019C2254.26 181.442 2256.97 180.163 2260.32 180.163C2263.66 180.163 2266.38 181.442 2266.38 183.019C2266.38 184.596 2263.66 185.875 2260.32 185.875Z" fill="#142220"/>
<path d="M2058.12 173.738C2054.78 173.738 2052.06 172.459 2052.06 170.882C2052.06 169.304 2054.78 168.025 2058.12 168.025C2061.47 168.025 2064.18 169.304 2064.18 170.882C2064.18 172.459 2061.47 173.738 2058.12 173.738Z" fill="#142220"/>
<path d="M23.926 27.2998L52.4286 148.134H1L23.926 27.2998Z" fill="#142220"/>
<rect x="21.5713" y="145.449" width="10.2857" height="31.5512" fill="#142220"/>
<path d="M1352.25 0L1319 140.973H1379L1352.25 0Z" fill="#142220"/>
<rect width="12" height="36.8097" transform="matrix(-1 0 0 1 1355 137.841)" fill="#142220"/>
<path d="M76.5734 62.2075L97.0002 148.805H60.1431L76.5734 62.2075Z" fill="#142220"/>
<rect x="74.8857" y="146.881" width="7.37143" height="22.6117" fill="#142220"/>
<path d="M1290.83 40.7256L1267 141.757H1310L1290.83 40.7256Z" fill="#142220"/>
<rect width="8.6" height="26.3803" transform="matrix(-1 0 0 1 1292.8 139.511)" fill="#142220"/>
<path d="M1414.31 70.4868L1394.8 153.185H1430L1414.31 70.4868Z" fill="#142220"/>
<rect width="7.03946" height="21.5934" transform="matrix(-1 0 0 1 1415.92 151.347)" fill="#142220"/>
<rect x="0" y="212.606" width="1440" height="174.393" fill="#1C423C"/>
<path d="M-120.75 224.448H73.1113C74.3113 224.448 75.2707 223.986 75.2457 223.42C75.0686 219.392 75.1158 204.626 84.82 199.049C85.0914 198.893 84.7569 198.669 84.353 198.736C79.7307 199.501 65.9519 202.134 62.5227 206.812C62.3861 206.998 61.822 206.989 61.7137 206.799L56.3661 197.402C56.2645 197.223 55.7458 197.199 55.5736 197.366L49.5983 203.138C49.4564 203.275 49.0538 203.29 48.8681 203.165L37.4718 195.491C37.2574 195.346 36.7797 195.394 36.7067 195.567L31.419 208.093C31.3304 208.303 30.6999 208.31 30.59 208.103L21.0477 190.152C20.9415 189.952 20.3425 189.949 20.2256 190.147L12.1987 203.769C12.0921 203.95 11.5632 203.969 11.4008 203.797L2.12505 193.995C1.96432 193.825 1.4424 193.841 1.32965 194.019L-6.10935 205.747C-6.23358 205.944 -6.82849 205.936 -6.92976 205.737L-11.3134 197.124C-11.4094 196.936 -11.96 196.915 -12.1187 197.094L-24.2624 210.745C-24.408 210.909 -24.8991 210.909 -25.0459 210.746L-41.2966 192.652C-41.4848 192.442 -42.1515 192.518 -42.1117 192.745C-41.5033 196.235 -40.6222 205.829 -48.178 210.225C-48.3888 210.347 -48.8 210.318 -48.9136 210.169L-56.9011 199.747C-57.0414 199.564 -57.5961 199.573 -57.7097 199.76L-64.3635 210.732C-64.4672 210.903 -64.9547 210.931 -65.1409 210.777C-67.5348 208.786 -77.449 199.826 -72.5032 191.777C-72.5032 191.777 -85.4657 199.804 -85.9068 205.717C-85.9232 205.935 -86.5645 205.982 -86.7277 205.778L-92.0941 199.07C-92.2389 198.889 -92.7903 198.901 -92.901 199.087L-99.4335 210.07C-99.5594 210.282 -100.214 210.258 -100.265 210.04C-100.982 206.963 -104.731 198.322 -124.34 192.097C-124.673 191.991 -125.101 192.145 -124.978 192.325C-123.079 195.112 -115.207 208.163 -122.822 223.207C-123.143 223.84 -122.13 224.448 -120.75 224.448Z" fill="#1C423C"/>
<path d="M75.2435 223.421C75.2693 223.985 74.3082 224.448 73.1127 224.448H-120.751C-122.13 224.448 -123.142 223.84 -122.822 223.208C-121.959 221.505 -121.297 219.826 -120.802 218.186C-120.785 218.187 -120.768 218.187 -120.751 218.187H73.1127C74.3082 218.187 75.1303 218.157 75.1303 218.157C75.1307 219.558 75.1631 221.561 75.2435 223.421Z" fill="#1C423C"/>
<path d="M-85.4036 215.23C-83.3883 215.23 -81.7546 214.459 -81.7546 213.509C-81.7546 212.559 -83.3883 211.789 -85.4036 211.789C-87.4188 211.789 -89.0526 212.559 -89.0526 213.509C-89.0526 214.459 -87.4188 215.23 -85.4036 215.23Z" fill="#1C423C"/>
<path d="M-75.2028 220.039C-73.1875 220.039 -71.5538 219.268 -71.5538 218.318C-71.5538 217.368 -73.1875 216.598 -75.2028 216.598C-77.2181 216.598 -78.8518 217.368 -78.8518 218.318C-78.8518 219.268 -77.2181 220.039 -75.2028 220.039Z" fill="#1C423C"/>
<path d="M46.5748 212.729C48.5901 212.729 50.2238 211.958 50.2238 211.008C50.2238 210.058 48.5901 209.288 46.5748 209.288C44.5595 209.288 42.9258 210.058 42.9258 211.008C42.9258 211.958 44.5595 212.729 46.5748 212.729Z" fill="#1C423C"/>
<path d="M74.0974 224.448H267.958C269.158 224.448 270.118 223.986 270.093 223.42C269.916 219.392 269.963 204.626 279.667 199.049C279.938 198.893 279.604 198.669 279.2 198.736C274.578 199.501 260.799 202.134 257.37 206.812C257.233 206.998 256.669 206.989 256.561 206.799L251.213 197.402C251.112 197.223 250.593 197.199 250.421 197.366L244.445 203.138C244.303 203.275 243.901 203.29 243.715 203.165L232.319 195.491C232.104 195.346 231.627 195.394 231.554 195.567L226.266 208.093C226.177 208.303 225.547 208.31 225.437 208.103L215.895 190.152C215.789 189.952 215.19 189.949 215.073 190.147L207.046 203.769C206.939 203.95 206.41 203.969 206.248 203.797L196.972 193.995C196.811 193.825 196.289 193.841 196.177 194.019L188.738 205.747C188.613 205.944 188.019 205.936 187.917 205.737L183.534 197.124C183.438 196.936 182.887 196.915 182.728 197.094L170.585 210.745C170.439 210.909 169.948 210.909 169.801 210.746L153.55 192.652C153.362 192.442 152.696 192.518 152.735 192.745C153.344 196.235 154.225 205.829 146.669 210.225C146.458 210.347 146.047 210.318 145.934 210.169L137.946 199.747C137.806 199.564 137.251 199.573 137.137 199.76L130.484 210.732C130.38 210.903 129.892 210.931 129.706 210.777C127.312 208.786 117.398 199.826 122.344 191.777C122.344 191.777 109.381 199.804 108.94 205.717C108.924 205.935 108.283 205.982 108.119 205.778L102.753 199.07C102.608 198.889 102.057 198.901 101.946 199.087L95.4136 210.07C95.2877 210.282 94.6329 210.258 94.5821 210.04C93.8654 206.963 90.116 198.322 70.507 192.097C70.1741 191.991 69.7456 192.145 69.8686 192.325C71.7677 195.112 79.6405 208.163 72.0252 223.207C71.7042 223.84 72.7173 224.448 74.0974 224.448Z" fill="#1C423C"/>
<path d="M270.091 223.421C270.116 223.985 269.155 224.448 267.96 224.448H74.0963C72.7171 224.448 71.7052 223.84 72.0255 223.208C72.8881 221.505 73.5498 219.826 74.0451 218.186C74.0623 218.187 74.0791 218.187 74.0963 218.187H267.96C269.155 218.187 269.977 218.157 269.977 218.157C269.978 219.558 270.01 221.561 270.091 223.421Z" fill="#1C423C"/>
<path d="M109.443 215.23C111.459 215.23 113.092 214.459 113.092 213.509C113.092 212.559 111.459 211.789 109.443 211.789C107.428 211.789 105.795 212.559 105.795 213.509C105.795 214.459 107.428 215.23 109.443 215.23Z" fill="#1C423C"/>
<path d="M119.644 220.039C121.66 220.039 123.293 219.268 123.293 218.318C123.293 217.368 121.66 216.598 119.644 216.598C117.629 216.598 115.995 217.368 115.995 218.318C115.995 219.268 117.629 220.039 119.644 220.039Z" fill="#1C423C"/>
<path d="M241.422 212.729C243.437 212.729 245.071 211.958 245.071 211.008C245.071 210.058 243.437 209.288 241.422 209.288C239.407 209.288 237.773 210.058 237.773 211.008C237.773 211.958 239.407 212.729 241.422 212.729Z" fill="#1C423C"/>
<path d="M453.137 224.448H259.276C258.076 224.448 257.117 223.986 257.142 223.42C257.319 219.392 257.272 204.626 247.568 199.049C247.296 198.893 247.631 198.669 248.035 198.736C252.657 199.501 266.436 202.134 269.865 206.812C270.001 206.998 270.566 206.989 270.674 206.799L276.021 197.402C276.123 197.223 276.642 197.199 276.814 197.366L282.789 203.138C282.931 203.275 283.334 203.29 283.519 203.165L294.916 195.491C295.13 195.346 295.608 195.394 295.681 195.567L300.969 208.093C301.057 208.303 301.688 208.31 301.798 208.103L311.34 190.152C311.446 189.952 312.045 189.949 312.162 190.147L320.189 203.769C320.295 203.95 320.824 203.969 320.987 203.797L330.262 193.995C330.423 193.825 330.945 193.841 331.058 194.019L338.497 205.747C338.621 205.944 339.216 205.936 339.317 205.737L343.701 197.124C343.797 196.936 344.348 196.915 344.506 197.094L356.65 210.745C356.796 210.909 357.287 210.909 357.433 210.746L373.684 192.652C373.872 192.442 374.539 192.518 374.499 192.745C373.891 196.235 373.01 205.829 380.566 210.225C380.776 210.347 381.188 210.318 381.301 210.169L389.289 199.747C389.429 199.564 389.984 199.573 390.097 199.76L396.751 210.732C396.855 210.903 397.342 210.931 397.528 210.777C399.922 208.786 409.836 199.826 404.891 191.777C404.891 191.777 417.853 199.804 418.294 205.717C418.311 205.935 418.952 205.982 419.115 205.778L424.482 199.07C424.626 198.889 425.178 198.901 425.289 199.087L431.821 210.07C431.947 210.282 432.602 210.258 432.652 210.04C433.369 206.963 437.119 198.322 456.728 192.097C457.06 191.991 457.489 192.145 457.366 192.325C455.467 195.112 447.594 208.163 455.209 223.207C455.53 223.84 454.517 224.448 453.137 224.448Z" fill="#1C423C"/>
<path d="M257.144 223.421C257.118 223.985 258.079 224.448 259.275 224.448H453.138C454.517 224.448 455.529 223.84 455.209 223.208C454.346 221.505 453.685 219.826 453.19 218.186C453.172 218.187 453.155 218.187 453.138 218.187H259.275C258.079 218.187 257.257 218.157 257.257 218.157C257.257 219.558 257.224 221.561 257.144 223.421Z" fill="#1C423C"/>
<path d="M417.791 215.23C415.776 215.23 414.142 214.459 414.142 213.509C414.142 212.559 415.776 211.789 417.791 211.789C419.806 211.789 421.44 212.559 421.44 213.509C421.44 214.459 419.806 215.23 417.791 215.23Z" fill="#1C423C"/>
<path d="M407.59 220.039C405.575 220.039 403.941 219.268 403.941 218.318C403.941 217.368 405.575 216.598 407.59 216.598C409.606 216.598 411.239 217.368 411.239 218.318C411.239 219.268 409.606 220.039 407.59 220.039Z" fill="#1C423C"/>
<path d="M285.813 212.729C283.797 212.729 282.164 211.958 282.164 211.008C282.164 210.058 283.797 209.288 285.813 209.288C287.828 209.288 289.462 210.058 289.462 211.008C289.462 211.958 287.828 212.729 285.813 212.729Z" fill="#1C423C"/>
<path d="M649.061 224.448H455.2C454 224.448 453.04 223.986 453.065 223.42C453.242 219.392 453.195 204.626 443.491 199.049C443.22 198.893 443.554 198.669 443.958 198.736C448.58 199.501 462.359 202.134 465.788 206.812C465.925 206.998 466.489 206.989 466.597 206.799L471.945 197.402C472.047 197.223 472.565 197.199 472.737 197.366L478.713 203.138C478.855 203.275 479.257 203.29 479.443 203.165L490.839 195.491C491.054 195.346 491.531 195.394 491.604 195.567L496.892 208.093C496.981 208.303 497.611 208.31 497.721 208.103L507.263 190.152C507.37 189.952 507.969 189.949 508.085 190.147L516.112 203.769C516.219 203.95 516.748 203.969 516.91 203.797L526.186 193.995C526.347 193.825 526.869 193.841 526.981 194.019L534.42 205.747C534.545 205.944 535.14 205.936 535.241 205.737L539.625 197.124C539.72 196.936 540.271 196.915 540.43 197.094L552.574 210.745C552.719 210.909 553.21 210.909 553.357 210.746L569.608 192.652C569.796 192.442 570.463 192.518 570.423 192.745C569.814 196.235 568.933 205.829 576.489 210.225C576.7 210.347 577.111 210.318 577.225 210.169L585.212 199.747C585.352 199.564 585.907 199.573 586.021 199.76L592.675 210.732C592.778 210.903 593.266 210.931 593.452 210.777C595.846 208.786 605.76 199.826 600.814 191.777C600.814 191.777 613.777 199.804 614.218 205.717C614.234 205.935 614.876 205.982 615.039 205.778L620.405 199.07C620.55 198.889 621.101 198.901 621.212 199.087L627.745 210.07C627.87 210.282 628.525 210.258 628.576 210.04C629.293 206.963 633.042 198.322 652.651 192.097C652.984 191.991 653.413 192.145 653.289 192.325C651.39 195.112 643.518 208.163 651.133 223.207C651.454 223.84 650.441 224.448 649.061 224.448Z" fill="#1C423C"/>
<path d="M453.068 223.421C453.042 223.985 454.003 224.448 455.198 224.448H649.062C650.441 224.448 651.453 223.84 651.133 223.208C650.27 221.505 649.608 219.826 649.113 218.186C649.096 218.187 649.079 218.187 649.062 218.187H455.198C454.003 218.187 453.181 218.157 453.181 218.157C453.18 219.558 453.148 221.561 453.068 223.421Z" fill="#1C423C"/>
<path d="M613.715 215.23C611.699 215.23 610.066 214.459 610.066 213.509C610.066 212.559 611.699 211.789 613.715 211.789C615.73 211.789 617.364 212.559 617.364 213.509C617.364 214.459 615.73 215.23 613.715 215.23Z" fill="#1C423C"/>
<path d="M603.514 220.039C601.499 220.039 599.865 219.268 599.865 218.318C599.865 217.368 601.499 216.598 603.514 216.598C605.529 216.598 607.163 217.368 607.163 218.318C607.163 219.268 605.529 220.039 603.514 220.039Z" fill="#1C423C"/>
<path d="M481.736 212.729C479.721 212.729 478.087 211.958 478.087 211.008C478.087 210.058 479.721 209.288 481.736 209.288C483.752 209.288 485.385 210.058 485.385 211.008C485.385 211.958 483.752 212.729 481.736 212.729Z" fill="#1C423C"/>
<path d="M1391.85 224.448H1197.99C1196.79 224.448 1195.83 223.986 1195.85 223.42C1196.03 219.392 1195.98 204.626 1186.28 199.049C1186.01 198.893 1186.34 198.669 1186.75 198.736C1191.37 199.501 1205.15 202.134 1208.58 206.812C1208.71 206.998 1209.28 206.989 1209.38 206.799L1214.73 197.402C1214.83 197.223 1215.35 197.199 1215.52 197.366L1221.5 203.138C1221.64 203.275 1222.04 203.29 1222.23 203.165L1233.63 195.491C1233.84 195.346 1234.32 195.394 1234.39 195.567L1239.68 208.093C1239.77 208.303 1240.4 208.31 1240.51 208.103L1250.05 190.152C1250.16 189.952 1250.76 189.949 1250.87 190.147L1258.9 203.769C1259.01 203.95 1259.54 203.969 1259.7 203.797L1268.97 193.995C1269.13 193.825 1269.66 193.841 1269.77 194.019L1277.21 205.747C1277.33 205.944 1277.93 205.936 1278.03 205.737L1282.41 197.124C1282.51 196.936 1283.06 196.915 1283.22 197.094L1295.36 210.745C1295.51 210.909 1296 210.909 1296.14 210.746L1312.39 192.652C1312.58 192.442 1313.25 192.518 1313.21 192.745C1312.6 196.235 1311.72 205.829 1319.28 210.225C1319.49 210.347 1319.9 210.318 1320.01 210.169L1328 199.747C1328.14 199.564 1328.69 199.573 1328.81 199.76L1335.46 210.732C1335.57 210.903 1336.05 210.931 1336.24 210.777C1338.63 208.786 1348.55 199.826 1343.6 191.777C1343.6 191.777 1356.56 199.804 1357.01 205.717C1357.02 205.935 1357.66 205.982 1357.83 205.778L1363.19 199.07C1363.34 198.889 1363.89 198.901 1364 199.087L1370.53 210.07C1370.66 210.282 1371.31 210.258 1371.36 210.04C1372.08 206.963 1375.83 198.322 1395.44 192.097C1395.77 191.991 1396.2 192.145 1396.08 192.325C1394.18 195.112 1386.3 208.163 1393.92 223.207C1394.24 223.84 1393.23 224.448 1391.85 224.448Z" fill="#1C423C"/>
<path d="M1195.85 223.421C1195.83 223.985 1196.79 224.448 1197.99 224.448H1391.85C1393.23 224.448 1394.24 223.84 1393.92 223.208C1393.06 221.505 1392.4 219.826 1391.9 218.186C1391.88 218.187 1391.87 218.187 1391.85 218.187H1197.99C1196.79 218.187 1195.97 218.157 1195.97 218.157C1195.97 219.558 1195.94 221.561 1195.85 223.421Z" fill="#1C423C"/>
<path d="M1356.5 215.23C1354.49 215.23 1352.85 214.459 1352.85 213.509C1352.85 212.559 1354.49 211.789 1356.5 211.789C1358.52 211.789 1360.15 212.559 1360.15 213.509C1360.15 214.459 1358.52 215.23 1356.5 215.23Z" fill="#1C423C"/>
<path d="M1346.3 220.039C1344.29 220.039 1342.65 219.268 1342.65 218.318C1342.65 217.368 1344.29 216.598 1346.3 216.598C1348.32 216.598 1349.95 217.368 1349.95 218.318C1349.95 219.268 1348.32 220.039 1346.3 220.039Z" fill="#1C423C"/>
<path d="M1224.52 212.729C1222.51 212.729 1220.87 211.958 1220.87 211.008C1220.87 210.058 1222.51 209.288 1224.52 209.288C1226.54 209.288 1228.17 210.058 1228.17 211.008C1228.17 211.958 1226.54 212.729 1224.52 212.729Z" fill="#1C423C"/>
<path d="M1197 224.448H1003.14C1001.94 224.448 1000.98 223.986 1001.01 223.42C1001.18 219.392 1001.14 204.626 991.431 199.049C991.16 198.893 991.494 198.669 991.898 198.736C996.521 199.501 1010.3 202.134 1013.73 206.812C1013.86 206.998 1014.43 206.989 1014.54 206.799L1019.89 197.402C1019.99 197.223 1020.51 197.199 1020.68 197.366L1026.65 203.138C1026.79 203.275 1027.2 203.29 1027.38 203.165L1038.78 195.491C1038.99 195.346 1039.47 195.394 1039.54 195.567L1044.83 208.093C1044.92 208.303 1045.55 208.31 1045.66 208.103L1055.2 190.152C1055.31 189.952 1055.91 189.949 1056.03 190.147L1064.05 203.769C1064.16 203.95 1064.69 203.969 1064.85 203.797L1074.13 193.995C1074.29 193.825 1074.81 193.841 1074.92 194.019L1082.36 205.747C1082.48 205.944 1083.08 205.936 1083.18 205.737L1087.56 197.124C1087.66 196.936 1088.21 196.915 1088.37 197.094L1100.51 210.745C1100.66 210.909 1101.15 210.909 1101.3 210.746L1117.55 192.652C1117.74 192.442 1118.4 192.518 1118.36 192.745C1117.75 196.235 1116.87 205.829 1124.43 210.225C1124.64 210.347 1125.05 210.318 1125.16 210.169L1133.15 199.747C1133.29 199.564 1133.85 199.573 1133.96 199.76L1140.61 210.732C1140.72 210.903 1141.21 210.931 1141.39 210.777C1143.79 208.786 1153.7 199.826 1148.75 191.777C1148.75 191.777 1161.72 199.804 1162.16 205.717C1162.17 205.935 1162.82 205.982 1162.98 205.778L1168.35 199.07C1168.49 198.889 1169.04 198.901 1169.15 199.087L1175.68 210.07C1175.81 210.282 1176.47 210.258 1176.52 210.04C1177.23 206.963 1180.98 198.322 1200.59 192.097C1200.92 191.991 1201.35 192.145 1201.23 192.325C1199.33 195.112 1191.46 208.163 1199.07 223.207C1199.39 223.84 1198.38 224.448 1197 224.448Z" fill="#1C423C"/>
<path d="M1001.01 223.421C1000.98 223.985 1001.94 224.448 1003.14 224.448H1197C1198.38 224.448 1199.39 223.84 1199.07 223.208C1198.21 221.505 1197.55 219.826 1197.05 218.186C1197.04 218.187 1197.02 218.187 1197 218.187H1003.14C1001.94 218.187 1001.12 218.157 1001.12 218.157C1001.12 219.558 1001.09 221.561 1001.01 223.421Z" fill="#1C423C"/>
<path d="M1161.65 215.23C1159.64 215.23 1158.01 214.459 1158.01 213.509C1158.01 212.559 1159.64 211.789 1161.65 211.789C1163.67 211.789 1165.3 212.559 1165.3 213.509C1165.3 214.459 1163.67 215.23 1161.65 215.23Z" fill="#1C423C"/>
<path d="M1151.45 220.039C1149.44 220.039 1147.81 219.268 1147.81 218.318C1147.81 217.368 1149.44 216.598 1151.45 216.598C1153.47 216.598 1155.1 217.368 1155.1 218.318C1155.1 219.268 1153.47 220.039 1151.45 220.039Z" fill="#1C423C"/>
<path d="M1029.68 212.729C1027.66 212.729 1026.03 211.958 1026.03 211.008C1026.03 210.058 1027.66 209.288 1029.68 209.288C1031.69 209.288 1033.33 210.058 1033.33 211.008C1033.33 211.958 1031.69 212.729 1029.68 212.729Z" fill="#1C423C"/>
<path d="M817.961 224.448H1011.82C1013.02 224.448 1013.98 223.986 1013.96 223.42C1013.78 219.392 1013.83 204.626 1023.53 199.049C1023.8 198.893 1023.47 198.669 1023.06 198.736C1018.44 199.501 1004.66 202.134 1001.23 206.812C1001.1 206.998 1000.53 206.989 1000.42 206.799L995.077 197.402C994.975 197.223 994.457 197.199 994.284 197.366L988.309 203.138C988.167 203.275 987.765 203.29 987.579 203.165L976.182 195.491C975.968 195.346 975.49 195.394 975.417 195.567L970.13 208.093C970.041 208.303 969.411 208.31 969.301 208.103L959.758 190.152C959.652 189.952 959.053 189.949 958.936 190.147L950.909 203.769C950.803 203.95 950.274 203.969 950.112 203.797L940.836 193.995C940.675 193.825 940.153 193.841 940.04 194.019L932.601 205.747C932.477 205.944 931.882 205.936 931.781 205.737L927.397 197.124C927.301 196.936 926.751 196.915 926.592 197.094L914.448 210.745C914.303 210.909 913.812 210.909 913.665 210.746L897.414 192.652C897.226 192.442 896.559 192.518 896.599 192.745C897.208 196.235 898.089 205.829 890.533 210.225C890.322 210.347 889.911 210.318 889.797 210.169L881.81 199.747C881.669 199.564 881.115 199.573 881.001 199.76L874.347 210.732C874.244 210.903 873.756 210.931 873.57 210.777C871.176 208.786 861.262 199.826 866.208 191.777C866.208 191.777 853.245 199.804 852.804 205.717C852.787 205.935 852.146 205.982 851.983 205.778L846.617 199.07C846.472 198.889 845.92 198.901 845.81 199.087L839.277 210.07C839.151 210.282 838.497 210.258 838.446 210.04C837.729 206.963 833.98 198.322 814.371 192.097C814.038 191.991 813.609 192.145 813.732 192.325C815.631 195.112 823.504 208.163 815.889 223.207C815.568 223.84 816.581 224.448 817.961 224.448Z" fill="#1C423C"/>
<path d="M1013.95 223.421C1013.98 223.985 1013.02 224.448 1011.82 224.448H817.96C816.581 224.448 815.569 223.84 815.889 223.208C816.752 221.505 817.414 219.826 817.909 218.186C817.926 218.187 817.943 218.187 817.96 218.187H1011.82C1013.02 218.187 1013.84 218.157 1013.84 218.157C1013.84 219.558 1013.87 221.561 1013.95 223.421Z" fill="#1C423C"/>
<path d="M853.307 215.23C855.322 215.23 856.956 214.459 856.956 213.509C856.956 212.559 855.322 211.789 853.307 211.789C851.292 211.789 849.658 212.559 849.658 213.509C849.658 214.459 851.292 215.23 853.307 215.23Z" fill="#1C423C"/>
<path d="M863.508 220.039C865.523 220.039 867.157 219.268 867.157 218.318C867.157 217.368 865.523 216.598 863.508 216.598C861.493 216.598 859.859 217.368 859.859 218.318C859.859 219.268 861.493 220.039 863.508 220.039Z" fill="#1C423C"/>
<path d="M985.286 212.729C987.301 212.729 988.934 211.958 988.934 211.008C988.934 210.058 987.301 209.288 985.286 209.288C983.27 209.288 981.637 210.058 981.637 211.008C981.637 211.958 983.27 212.729 985.286 212.729Z" fill="#1C423C"/>
<path d="M622.037 224.448H815.898C817.099 224.448 818.058 223.986 818.033 223.42C817.856 219.392 817.903 204.626 827.607 199.049C827.879 198.893 827.544 198.669 827.14 198.736C822.518 199.501 808.739 202.134 805.31 206.812C805.173 206.998 804.609 206.989 804.501 206.799L799.153 197.402C799.052 197.223 798.533 197.199 798.361 197.366L792.385 203.138C792.244 203.275 791.841 203.29 791.655 203.165C781.422 201.085 780.739 199.117 780.259 195.491C780.045 195.346 779.567 195.394 779.494 195.567C772.254 200.418 771.217 203.161 774.206 208.093C774.118 208.303 773.487 208.31 773.377 208.103C766.7 201.323 764.727 197.384 763.835 190.152C763.729 189.952 763.13 189.949 763.013 190.147C761.554 196.7 760.39 200.12 754.986 203.769C754.879 203.95 754.35 203.969 754.188 203.797C746.29 199.746 745.182 197.648 744.912 193.995C744.752 193.825 744.23 193.841 744.117 194.019L736.678 205.747C736.554 205.944 735.959 205.936 735.857 205.737L731.474 197.124C731.378 196.936 730.827 196.915 730.669 197.094L718.525 210.745C718.379 210.909 717.888 210.909 717.741 210.746L701.491 192.652C701.302 192.442 700.636 192.518 700.675 192.745C701.284 196.235 702.165 205.829 694.609 210.225C694.398 210.347 693.987 210.318 693.874 210.169L685.886 199.747C685.746 199.564 685.191 199.573 685.078 199.76L678.424 210.732C678.32 210.903 677.832 210.931 677.646 210.777C675.252 208.786 665.338 199.826 670.284 191.777C670.284 191.777 657.321 199.804 656.88 205.717C656.864 205.935 656.223 205.982 656.06 205.778L650.693 199.07C650.548 198.889 649.997 198.901 649.886 199.087L643.354 210.07C643.228 210.282 642.573 210.258 642.522 210.04C641.805 206.963 638.056 198.322 618.447 192.097C618.114 191.991 617.686 192.145 617.809 192.325C619.708 195.112 627.581 208.163 619.965 223.207C619.644 223.84 620.657 224.448 622.037 224.448Z" fill="#1C423C"/>
<path d="M818.031 223.421C818.056 223.985 817.095 224.448 815.9 224.448H622.036C620.657 224.448 619.645 223.84 619.966 223.208C620.828 221.505 621.49 219.826 621.985 218.186C622.002 218.187 622.019 218.187 622.036 218.187H815.9C817.095 218.187 817.917 218.157 817.917 218.157C817.918 219.558 817.95 221.561 818.031 223.421Z" fill="#1C423C"/>
<path d="M657.384 215.23C659.399 215.23 661.033 214.459 661.033 213.509C661.033 212.559 659.399 211.789 657.384 211.789C655.368 211.789 653.735 212.559 653.735 213.509C653.735 214.459 655.368 215.23 657.384 215.23Z" fill="#1C423C"/>
<path d="M667.584 220.039C669.6 220.039 671.233 219.268 671.233 218.318C671.233 217.368 669.6 216.598 667.584 216.598C665.569 216.598 663.935 217.368 663.935 218.318C663.935 219.268 665.569 220.039 667.584 220.039Z" fill="#1C423C"/>
<path d="M789.362 212.729C791.377 212.729 793.011 211.958 793.011 211.008C793.011 210.058 791.377 209.288 789.362 209.288C787.347 209.288 785.713 210.058 785.713 211.008C785.713 211.958 787.347 212.729 789.362 212.729Z" fill="#1C423C"/>
<path d="M1561.94 224.448H1368.07C1366.87 224.448 1365.92 223.986 1365.94 223.42C1366.12 219.392 1366.07 204.626 1356.37 199.049C1356.09 198.893 1356.43 198.669 1356.83 198.736C1361.46 199.501 1375.23 202.134 1378.66 206.812C1378.8 206.998 1379.36 206.989 1379.47 206.799L1384.82 197.402C1384.92 197.223 1385.44 197.199 1385.61 197.366L1391.59 203.138C1391.73 203.275 1392.13 203.29 1392.32 203.165L1403.71 195.491C1403.93 195.346 1404.41 195.394 1404.48 195.567L1409.77 208.093C1409.86 208.303 1410.49 208.31 1410.6 208.103L1420.14 190.152C1420.24 189.952 1420.84 189.949 1420.96 190.147L1428.99 203.769C1429.09 203.95 1429.62 203.969 1429.78 203.797L1439.06 193.995C1439.22 193.825 1439.74 193.841 1439.86 194.019L1447.3 205.747C1447.42 205.944 1448.01 205.936 1448.12 205.737L1452.5 197.124C1452.6 196.936 1453.15 196.915 1453.3 197.094L1465.45 210.745C1465.59 210.909 1466.08 210.909 1466.23 210.746L1482.48 192.652C1482.67 192.442 1483.34 192.518 1483.3 192.745C1482.69 196.235 1481.81 205.829 1489.36 210.225C1489.57 210.347 1489.99 210.318 1490.1 210.169L1498.09 199.747C1498.23 199.564 1498.78 199.573 1498.9 199.76L1505.55 210.732C1505.65 210.903 1506.14 210.931 1506.33 210.777C1508.72 208.786 1518.63 199.826 1513.69 191.777C1513.69 191.777 1526.65 199.804 1527.09 205.717C1527.11 205.935 1527.75 205.982 1527.91 205.778L1533.28 199.07C1533.42 198.889 1533.98 198.901 1534.09 199.087L1540.62 210.07C1540.75 210.282 1541.4 210.258 1541.45 210.04C1542.17 206.963 1545.92 198.322 1565.53 192.097C1565.86 191.991 1566.29 192.145 1566.16 192.325C1564.27 195.112 1556.39 208.163 1564.01 223.207C1564.33 223.84 1563.32 224.448 1561.94 224.448Z" fill="#1C423C"/>
<path d="M1365.94 223.421C1365.92 223.985 1366.88 224.448 1368.07 224.448H1561.94C1563.32 224.448 1564.33 223.84 1564.01 223.208C1563.14 221.505 1562.48 219.826 1561.99 218.186C1561.97 218.187 1561.95 218.187 1561.94 218.187H1368.07C1366.88 218.187 1366.06 218.157 1366.06 218.157C1366.06 219.558 1366.02 221.561 1365.94 223.421Z" fill="#1C423C"/>
<path d="M1526.59 215.23C1524.57 215.23 1522.94 214.459 1522.94 213.509C1522.94 212.559 1524.57 211.789 1526.59 211.789C1528.6 211.789 1530.24 212.559 1530.24 213.509C1530.24 214.459 1528.6 215.23 1526.59 215.23Z" fill="#1C423C"/>
<path d="M1516.39 220.039C1514.37 220.039 1512.74 219.268 1512.74 218.318C1512.74 217.368 1514.37 216.598 1516.39 216.598C1518.4 216.598 1520.04 217.368 1520.04 218.318C1520.04 219.268 1518.4 220.039 1516.39 220.039Z" fill="#1C423C"/>
<path d="M1394.61 212.729C1392.6 212.729 1390.96 211.958 1390.96 211.008C1390.96 210.058 1392.6 209.288 1394.61 209.288C1396.63 209.288 1398.26 210.058 1398.26 211.008C1398.26 211.958 1396.63 212.729 1394.61 212.729Z" fill="#1C423C"/>
<ellipse cx="53.5" cy="286.21" rx="6.5" ry="2.73684" fill="#204F48"/>
<ellipse cx="353.5" cy="301.263" rx="6.5" ry="2.73684" fill="#204F48"/>
<ellipse cx="501.5" cy="280.737" rx="6.5" ry="2.73684" fill="#204F48"/>
<ellipse cx="651.5" cy="301.263" rx="6.5" ry="2.73684" fill="#204F48"/>
<ellipse cx="937.5" cy="286.21" rx="6.5" ry="2.73684" fill="#204F48"/>
<ellipse cx="1069.5" cy="301.263" rx="6.5" ry="2.73684" fill="#204F48"/>
<ellipse cx="1329.5" cy="283.474" rx="6.5" ry="2.73684" fill="#204F48"/>
<ellipse cx="1410.5" cy="301.263" rx="6.5" ry="2.73684" fill="#204F48"/>
<rect y="330" width="1440" height="1148" fill="url(#paint0_linear)"/>
<defs>
<linearGradient id="paint0_linear" x1="720" y1="330" x2="720" y2="1478" gradientUnits="userSpaceOnUse">
<stop stop-color="#1C423C"/>
<stop offset="1" stop-color="#366961"/>
</linearGradient>
</defs>
</svg>
