<svg width="202" height="217" viewBox="0 0 202 217" fill="none" xmlns="http://www.w3.org/2000/svg">
<path d="M25.4245 23.1206C19.1419 31.6651 8.08432 27.3928 8.83826 42.9739C-8.64742 15.2183 28.9427 1.50813 44.2726 17.5918C28.1889 15.5814 28.1889 21.1101 28.1889 21.1101C28.1889 21.1101 26.4298 20.1049 26.4298 18.5971C25.4245 19.8536 24.6706 21.3615 25.4245 23.1206Z" fill="#129345" stroke="black" stroke-width="3" stroke-linejoin="round"/>
<path d="M8.94704 43.2252C-7.01722 17.0278 6.80351 5.07973 27.435 9.04732C33.969 10.3039 37.598 12.6026 42.2621 15.0436C31.7071 11.0578 19.6796 14.8674 16.126 20.8588C14.3606 20.2654 13.2698 18.662 12.859 16.5866C11.0392 19.022 11.8933 21.5134 12.859 23.6232C5.75181 26.9517 7.83654 33.0177 8.94704 43.2252Z" fill="#29CB6A" stroke="black" stroke-width="3" stroke-linejoin="round"/>
<path d="M30.1992 13.5708C45.0264 11.1961 53.2611 19.8508 56.8379 25.6299L53.3663 29.6546C46.8019 17.5186 35.354 12.7453 30.1992 13.5708Z" fill="#1A7156" stroke="black" stroke-width="3"/>
<path d="M90.1242 182.189C104.1 154.695 141.905 163.723 130.428 180.379C114.141 204.016 92.3735 200.371 90.1242 182.189Z" fill="#1A7156"/>
<path d="M90.1242 182.189L88.6355 182.373L88.5792 181.918L88.787 181.509L90.1242 182.189ZM130.428 180.379L129.193 179.528L130.428 180.379ZM116.263 172.166C117.069 172.357 117.567 173.166 117.376 173.972C117.184 174.778 116.375 175.276 115.569 175.084L116.263 172.166ZM88.787 181.509C96.0821 167.158 109.648 162.281 119.959 163.234C125.074 163.707 129.625 165.642 132.121 168.847C133.389 170.475 134.109 172.418 134.064 174.578C134.019 176.723 133.223 178.966 131.663 181.23L129.193 179.528C130.502 177.627 131.035 175.944 131.065 174.515C131.094 173.101 130.635 171.821 129.754 170.69C127.953 168.377 124.332 166.651 119.683 166.221C110.467 165.37 98.1426 169.725 91.4613 182.869L88.787 181.509ZM131.663 181.23C123.349 193.297 113.413 198.715 104.968 198.465C96.3892 198.212 89.841 192.117 88.6355 182.373L91.6128 182.005C92.6567 190.443 98.1171 195.261 105.056 195.466C112.129 195.676 121.221 191.098 129.193 179.528L131.663 181.23ZM88.8827 181.347C92.0038 176.744 101.748 168.713 116.263 172.166L115.569 175.084C102.55 171.988 93.9663 179.196 91.3657 183.031L88.8827 181.347Z" fill="black"/>
<path d="M91.2932 179.837C94.8189 175.011 112.729 168.034 131.152 178.258C138.006 161.435 103.084 158.01 91.2932 179.837Z" fill="#2C9F7C"/>
<path d="M90.1242 182.189L88.6355 182.373L88.5792 181.918L88.787 181.509L90.1242 182.189ZM130.428 180.379L129.193 179.528L130.428 180.379ZM116.263 172.166C117.069 172.357 117.567 173.166 117.376 173.972C117.184 174.778 116.375 175.276 115.569 175.084L116.263 172.166ZM88.787 181.509C96.0821 167.158 109.648 162.281 119.959 163.234C125.074 163.707 129.625 165.642 132.121 168.847C133.389 170.475 134.109 172.418 134.064 174.578C134.019 176.723 133.223 178.966 131.663 181.23L129.193 179.528C130.502 177.627 131.035 175.944 131.065 174.515C131.094 173.101 130.635 171.821 129.754 170.69C127.953 168.377 124.332 166.651 119.683 166.221C110.467 165.37 98.1426 169.725 91.4613 182.869L88.787 181.509ZM131.663 181.23C123.349 193.297 113.413 198.715 104.968 198.465C96.3892 198.212 89.841 192.117 88.6355 182.373L91.6128 182.005C92.6567 190.443 98.117 195.261 105.056 195.466C112.129 195.676 121.221 191.098 129.193 179.528L131.663 181.23ZM88.8827 181.347C92.0037 176.744 101.748 168.713 116.263 172.166L115.569 175.084C102.55 171.988 93.9663 179.196 91.3657 183.031L88.8827 181.347Z" fill="black"/>
<path d="M83.5485 184.733C75.5679 156.986 39.219 158.593 46.8203 175.935C57.6075 200.546 78.2624 201.049 83.5485 184.733Z" fill="#1A7156"/>
<path d="M83.5485 184.733L84.9755 185.196L85.1169 184.759L84.9901 184.319L83.5485 184.733ZM46.8203 175.935L48.1942 175.333L46.8203 175.935ZM61.2905 170.797C60.4629 170.833 59.821 171.533 59.8568 172.36C59.8926 173.188 60.5926 173.83 61.4202 173.794L61.2905 170.797ZM84.9901 184.319C80.8126 169.794 69.1696 162.886 59.4881 161.933C54.688 161.46 50.1312 162.434 47.2422 164.963C45.7732 166.248 44.7551 167.926 44.4102 169.943C44.0678 171.945 44.4077 174.167 45.4465 176.537L48.1942 175.333C47.3327 173.367 47.1456 171.745 47.3673 170.449C47.5865 169.167 48.2234 168.091 49.2179 167.22C51.2558 165.437 54.8598 164.492 59.1943 164.918C67.782 165.763 78.3039 171.925 82.107 185.148L84.9901 184.319ZM45.4465 176.537C50.9613 189.119 59.1568 195.89 67.0074 197.162C74.9896 198.456 82.1297 193.979 84.9755 185.196L82.1216 184.271C79.6813 191.803 73.8509 195.232 67.4874 194.201C60.9921 193.148 53.4666 187.362 48.1942 175.333L45.4465 176.537ZM84.9268 184.141C82.8609 179.331 75.2942 170.191 61.2905 170.797L61.4202 173.794C73.8874 173.255 80.4703 181.367 82.1703 185.325L84.9268 184.141Z" fill="black"/>
<path d="M83.5706 185.007C82.2586 179.313 73.0064 168.054 46.5304 173.857C56.6838 199.193 74.5232 202.409 83.5706 185.007Z" fill="#2C9F7C"/>
<path d="M83.5485 184.733L84.9755 185.196L85.1169 184.759L84.9901 184.319L83.5485 184.733ZM46.8203 175.935L48.1942 175.333L46.8203 175.935ZM61.2905 170.797C60.4629 170.833 59.821 171.533 59.8568 172.36C59.8926 173.188 60.5926 173.83 61.4202 173.794L61.2905 170.797ZM84.9901 184.319C80.8126 169.794 69.1696 162.886 59.4881 161.933C54.688 161.46 50.1312 162.434 47.2422 164.963C45.7732 166.248 44.7551 167.926 44.4102 169.943C44.0678 171.945 44.4077 174.167 45.4465 176.537L48.1942 175.333C47.3327 173.367 47.1456 171.745 47.3673 170.449C47.5865 169.167 48.2234 168.091 49.2179 167.22C51.2558 165.437 54.8598 164.492 59.1943 164.918C67.782 165.763 78.3039 171.925 82.107 185.148L84.9901 184.319ZM45.4465 176.537C50.9613 189.119 59.1568 195.89 67.0074 197.162C74.9896 198.456 82.1297 193.979 84.9755 185.196L82.1216 184.271C79.6813 191.803 73.8509 195.232 67.4874 194.201C60.9921 193.148 53.4666 187.362 48.1942 175.333L45.4465 176.537ZM84.9268 184.141C82.8609 179.331 75.2942 170.191 61.2905 170.797L61.4202 173.794C73.8874 173.255 80.4703 181.367 82.1703 185.325L84.9268 184.141Z" fill="black"/>
<path d="M83.1248 188.896C73.3328 175.84 68.7241 138.989 80.5136 118.829C82.9797 119.99 89.3046 121.963 94.8751 120.57C87.9119 126.663 83.1248 161.914 97.0511 185.85C94.7301 188.606 88.6954 195.511 83.1248 188.896Z" fill="#29CB6A" stroke="black" stroke-width="3"/>
<path d="M78.3376 169.965C73.7681 151.034 74.9071 134.687 82.286 120.365C84.0631 119.857 86.4347 121.419 89.4352 121.44C84.8656 121.44 73.7681 142.112 78.3376 169.965Z" fill="#45E083"/>
<path d="M73.7384 114.078C71.8572 110.494 73.253 103.227 73.253 103.227C79.7425 108.373 93.2401 110.828 104.111 108.982C104.111 108.982 103.956 114.309 102.393 117.214C99.0221 123.481 77.9199 122.046 73.7384 114.078Z" fill="#14523F" stroke="black" stroke-width="3"/>
<path d="M78.7645 113.138C77.2716 110.218 78.3694 104.305 78.3694 104.305C83.5123 108.5 94.2009 110.511 102.806 109.02C102.806 109.02 102.688 113.355 101.454 115.718C98.7912 120.815 82.0829 119.627 78.7645 113.138Z" fill="#1A7156"/>
<path d="M73.7384 114.078C71.8572 110.494 73.253 103.227 73.253 103.227C79.7425 108.373 93.2401 110.828 104.111 108.982C104.111 108.982 103.956 114.309 102.393 117.214C99.0221 123.481 77.9199 122.046 73.7384 114.078Z" stroke="black" stroke-width="3"/>
<path d="M159.882 60.4939C159.882 72.2695 153.407 84.5783 142.725 93.9859C132.063 103.376 117.33 109.758 101.068 109.758C68.3336 109.758 42.2544 87.4699 42.2544 60.4939C42.2544 33.449 68.4133 9.21924 101.068 9.21924C117.297 9.21924 132.022 16.0784 142.697 25.9712C153.394 35.8843 159.882 48.7043 159.882 60.4939Z" fill="#29CB6A" stroke="black" stroke-width="3"/>
<path d="M72.6705 16.5153C58.2551 21.965 52.0632 30.0859 44.7753 49.1853L56.0842 49.1853C59.0998 19.531 96.2934 7.97083 119.414 12.997C108.105 8.47342 93.2777 8.72474 72.6705 16.5153Z" fill="#3ED87B"/>
<path d="M104.084 108.494C129.466 106.986 150.324 90.6508 145.298 87.1325C113.131 112.515 58.997 102.245 43.2671 56.9756C42.0106 88.3891 70.8318 110.469 104.084 108.494Z" fill="#1CAE56"/>
<path d="M159.882 60.4939C159.882 72.2695 153.407 84.5783 142.725 93.9859C132.063 103.376 117.33 109.758 101.068 109.758C68.3336 109.758 42.2544 87.4699 42.2544 60.4939C42.2544 33.449 68.4133 9.21924 101.068 9.21924C117.297 9.21924 132.022 16.0784 142.697 25.9712C153.394 35.8843 159.882 48.7043 159.882 60.4939Z" stroke="black" stroke-width="3"/>
<path d="M194.308 46.0075C183.488 19.3054 152.47 27.4347 142.282 48.9337C138.068 57.8263 135.306 68.787 137.256 83.3629C139.207 97.9387 148.534 104.856 160.719 104.983C185.599 105.241 205.128 72.7096 194.308 46.0075Z" fill="#41EF86"/>
<path d="M193.326 48.259C184.036 25.3348 157.407 32.314 148.661 50.7712C145.043 58.4057 142.671 67.8157 144.346 80.3293C146.02 92.8429 154.028 98.7818 164.489 98.8904C185.848 99.1122 202.615 71.1833 193.326 48.259Z" fill="#39E17C"/>
<path d="M142.785 48.1797C152.973 26.6808 183.488 19.3055 194.308 46.0075C205.128 72.7096 185.599 105.241 160.719 104.983C148.534 104.856 140.764 96.9335 137.256 84.3681" stroke="black" stroke-width="3" stroke-linecap="round"/>
<ellipse cx="172.366" cy="68.145" rx="15.3298" ry="24.3769" transform="rotate(13.3197 172.366 68.145)" fill="#3AC271"/>
<path d="M157.448 64.6132C154.347 77.714 158.511 89.9155 166.75 91.8661C152.335 79.0909 160.377 47.9287 177.982 44.4238C169.743 42.4733 160.55 51.5124 157.448 64.6132Z" fill="black"/>
<ellipse cx="169.47" cy="68.4533" rx="12.0425" ry="19.1496" transform="rotate(13.3197 169.47 68.4533)" fill="black"/>
<ellipse cx="107.63" cy="37.4018" rx="10.0094" ry="15.1086" transform="rotate(-32.924 107.63 37.4018)" fill="black"/>
<ellipse cx="105.117" cy="35.1048" rx="5.16449" ry="7.38764" transform="rotate(-22.1239 105.117 35.1048)" fill="white"/>
<ellipse cx="132.286" cy="34.9049" rx="7.53302" ry="11.3706" transform="rotate(-17.5469 132.286 34.9049)" fill="black"/>
<ellipse cx="129.648" cy="32.7075" rx="2.80548" ry="4.23469" transform="rotate(-11.0559 129.648 32.7075)" fill="white"/>
<path d="M87.518 188.365C57.5326 162.612 17.1466 191.768 38.8781 205.9C69.7178 225.954 93.7307 211.007 87.518 188.365Z" fill="#1A7156"/>
<path d="M87.518 188.365L88.9645 187.968L88.8432 187.526L88.4953 187.227L87.518 188.365ZM38.8781 205.9L38.0603 207.157L38.8781 205.9ZM51.8983 189.594C51.2262 190.079 51.0739 191.016 51.5582 191.688C52.0425 192.36 52.98 192.513 53.6521 192.028L51.8983 189.594ZM88.4953 187.227C72.9888 173.909 54.7224 174.755 43.1075 180.847C37.3362 183.874 32.998 188.312 31.648 193.175C30.9643 195.638 31.0581 198.192 32.1243 200.633C33.1845 203.06 35.1587 205.27 38.0603 207.157L39.6958 204.642C37.1646 202.996 35.6471 201.203 34.8735 199.432C34.1058 197.674 34.0237 195.833 34.5387 193.977C35.5862 190.204 39.1439 186.313 44.5009 183.504C55.1425 177.922 72.0618 177.067 86.5407 189.503L88.4953 187.227ZM38.0603 207.157C53.7332 217.349 67.9966 218.853 77.7049 214.513C87.535 210.118 92.2449 199.923 88.9645 187.968L86.0714 188.762C89.0037 199.448 84.8135 208.048 76.4804 211.774C68.0255 215.554 54.8626 214.505 39.6958 204.642L38.0603 207.157ZM88.3451 187.113C82.5084 183.256 67.2368 178.542 51.8983 189.594L53.6521 192.028C67.7428 181.875 81.6278 186.27 86.6909 189.616L88.3451 187.113Z" fill="black"/>
<path d="M87.7491 188.661C81.969 183.133 62.9198 177.202 36.9849 203.74C67.6444 225.101 90.475 215.375 87.7491 188.661Z" fill="#2C9F7C"/>
<path d="M87.518 188.365L88.9645 187.968L88.8432 187.526L88.4953 187.227L87.518 188.365ZM38.8781 205.9L39.6958 204.642H39.6958L38.8781 205.9ZM51.8983 189.594C51.2262 190.079 51.0739 191.016 51.5582 191.688C52.0425 192.36 52.98 192.513 53.6521 192.028L51.8983 189.594ZM88.4953 187.227C72.9888 173.909 54.7224 174.755 43.1075 180.847C37.3362 183.874 32.998 188.312 31.648 193.175C30.9643 195.638 31.0581 198.192 32.1243 200.633C33.1845 203.06 35.1587 205.27 38.0603 207.157L39.6958 204.642C37.1646 202.996 35.6471 201.203 34.8735 199.432C34.1058 197.674 34.0237 195.833 34.5387 193.977C35.5862 190.204 39.1439 186.313 44.5009 183.504C55.1425 177.922 72.0618 177.067 86.5407 189.503L88.4953 187.227ZM38.0603 207.157C53.7332 217.349 67.9966 218.853 77.7049 214.513C87.535 210.118 92.2449 199.923 88.9645 187.968L86.0714 188.762C89.0037 199.448 84.8135 208.048 76.4804 211.774C68.0255 215.554 54.8626 214.505 39.6958 204.642L38.0603 207.157ZM88.3451 187.113C82.5084 183.256 67.2368 178.542 51.8983 189.594L53.6521 192.028C67.7428 181.875 81.6278 186.27 86.6909 189.616L88.3451 187.113Z" fill="black"/>
<path d="M89.9903 188.365C119.976 162.612 160.362 191.768 138.63 205.9C107.791 225.954 83.7776 211.007 89.9903 188.365Z" fill="#1A7156"/>
<path d="M89.9903 188.365L88.5438 187.968L88.6651 187.526L89.013 187.227L89.9903 188.365ZM138.63 205.9L139.448 207.157L138.63 205.9ZM125.61 189.594C126.282 190.079 126.434 191.016 125.95 191.688C125.466 192.36 124.528 192.513 123.856 192.028L125.61 189.594ZM89.013 187.227C104.52 173.909 122.786 174.755 134.401 180.847C140.172 183.874 144.51 188.312 145.86 193.175C146.544 195.638 146.45 198.192 145.384 200.633C144.324 203.06 142.35 205.27 139.448 207.157L137.812 204.642C140.344 202.996 141.861 201.203 142.635 199.432C143.402 197.674 143.485 195.833 142.97 193.977C141.922 190.204 138.364 186.313 133.007 183.504C122.366 177.922 105.447 177.067 90.9676 189.503L89.013 187.227ZM139.448 207.157C123.775 217.349 109.512 218.853 99.8034 214.513C89.9733 210.118 85.2634 199.923 88.5438 187.968L91.4369 188.762C88.5046 199.448 92.6948 208.048 101.028 211.774C109.483 215.554 122.646 214.505 137.812 204.642L139.448 207.157ZM89.1632 187.113C94.9999 183.256 110.271 178.542 125.61 189.594L123.856 192.028C109.766 181.875 95.8805 186.27 90.8174 189.616L89.1632 187.113Z" fill="black"/>
<path d="M92.5238 186.148C99.0578 182.152 123.686 182.63 140.524 203.74C156.859 187.153 117.152 166.043 92.5238 186.148Z" fill="#2C9F7C"/>
<path d="M89.9903 188.365L88.5438 187.968L88.6651 187.526L89.013 187.227L89.9903 188.365ZM138.63 205.9L137.812 204.642H137.812L138.63 205.9ZM125.61 189.594C126.282 190.079 126.434 191.016 125.95 191.688C125.466 192.36 124.528 192.513 123.856 192.028L125.61 189.594ZM89.013 187.227C104.52 173.909 122.786 174.755 134.401 180.847C140.172 183.874 144.51 188.312 145.86 193.175C146.544 195.638 146.45 198.192 145.384 200.633C144.324 203.06 142.35 205.27 139.448 207.157L137.812 204.642C140.344 202.996 141.861 201.203 142.635 199.432C143.402 197.674 143.485 195.833 142.97 193.977C141.922 190.204 138.364 186.313 133.007 183.504C122.366 177.922 105.447 177.067 90.9676 189.503L89.013 187.227ZM139.448 207.157C123.775 217.349 109.512 218.853 99.8034 214.513C89.9733 210.118 85.2634 199.923 88.5438 187.968L91.4369 188.762C88.5046 199.448 92.6948 208.048 101.028 211.774C109.483 215.554 122.646 214.505 137.812 204.642L139.448 207.157ZM89.1632 187.113C94.9999 183.256 110.271 178.542 125.61 189.594L123.856 192.028C109.766 181.875 95.8805 186.27 90.8174 189.616L89.1632 187.113Z" fill="black"/>
</svg>
