<svg width="767" height="720" viewBox="0 0 767 720" fill="none" xmlns="http://www.w3.org/2000/svg">
<g filter="url(#filter0_f)">
<circle cx="360" cy="360" r="160" fill="#29CB6A" fill-opacity="0.3"/>
</g>
<path d="M220.983 219.26L190.472 247.02L207.08 261.663L238.344 240.252L242.904 219.785L220.983 219.26Z" fill="#D0FCFF"/>
<path d="M242.904 219.785L198.666 254.226L193.012 244.82L220.983 219.26L242.904 219.785Z" fill="#9EE3E7"/>
<path d="M229.042 232.115L242.672 220.005L227.503 230.27L229.042 232.115Z" fill="white"/>
<path d="M220.984 219.26L229.774 229.872L227.939 230.959L220.984 219.26Z" fill="white"/>
<path d="M228.38 231.421L229.994 230.103L238.344 240.252L228.38 231.421Z" fill="white"/>
<path d="M203.234 252.3L229.505 231.674L227.966 229.828L201.222 251.347L203.234 252.3Z" fill="white"/>
<path d="M227.932 247.432L188.857 260.651L198.212 280.719L235.434 273.619L247.808 256.69L227.932 247.432Z" fill="#D0FCFF"/>
<path d="M247.808 256.69L193.48 270.535L192.066 259.652L227.932 247.432L247.808 256.69Z" fill="#9EE3E7"/>
<path d="M230.168 262.438L247.508 256.8L229.497 260.131L230.168 262.438Z" fill="white"/>
<path d="M227.932 247.432L231.737 260.676L229.621 260.937L227.932 247.432Z" fill="white"/>
<path d="M229.84 261.537L231.847 260.976L235.434 273.619L229.84 261.537Z" fill="white"/>
<path d="M198.437 270.6L230.769 262.219L230.098 259.912L196.975 268.921L198.437 270.6Z" fill="white"/>
<path d="M190.796 223.041L178.126 247.763L192.062 253.066L206.709 232.169L204.742 218.186L190.796 223.041Z" fill="#D0FCFF"/>
<path d="M204.742 218.186L184.997 250.368L179.207 245.775L190.796 223.041L204.742 218.186Z" fill="#9EE3E7"/>
<path d="M198.919 229.24L204.648 218.379L197.512 228.44L198.919 229.24Z" fill="white"/>
<path d="M190.796 223.041L198.85 227.652L197.95 228.772L190.796 223.041Z" fill="white"/>
<path d="M198.338 228.959L199.044 227.746L206.709 232.17L198.338 228.959Z" fill="white"/>
<path d="M187.422 248.073L199.107 228.852L197.7 228.053L185.928 247.948L187.422 248.073Z" fill="white"/>
<path d="M219.982 247.589C225.475 255.058 235.141 251.324 234.482 264.944C249.767 240.681 216.907 228.696 203.506 242.756C217.566 240.998 217.566 245.832 217.566 245.832C217.566 245.832 219.104 244.953 219.104 243.635C219.982 244.733 220.641 246.051 219.982 247.589Z" fill="#9EE3E7" stroke="black" stroke-width="3" stroke-linejoin="round"/>
<path d="M234.387 265.164C248.342 242.263 236.26 231.818 218.225 235.287C212.513 236.385 209.341 238.394 205.264 240.528C214.491 237.044 225.005 240.374 228.111 245.612C229.654 245.093 230.608 243.691 230.967 241.877C232.558 244.006 231.811 246.184 230.967 248.028C237.18 250.938 235.357 256.241 234.387 265.164Z" fill="#D0FCFF" stroke="black" stroke-width="3" stroke-linejoin="round"/>
<path d="M215.808 239.241C202.847 237.165 195.648 244.731 192.522 249.782L195.556 253.301C201.295 242.692 211.302 238.519 215.808 239.241Z" fill="#57A0A4" stroke="black" stroke-width="3"/>
<path d="M170.424 388.641C158.206 364.607 125.159 372.499 135.192 387.059C149.429 407.722 168.458 404.535 170.424 388.641Z" fill="#57A0A4"/>
<path d="M170.424 388.641L171.913 388.826L171.969 388.371L171.761 387.962L170.424 388.641ZM135.192 387.059L136.427 386.208L135.192 387.059ZM147.53 379.696C146.724 379.888 146.226 380.696 146.418 381.502C146.61 382.308 147.418 382.806 148.224 382.615L147.53 379.696ZM171.761 387.962C165.345 375.341 153.408 371.044 144.326 371.884C139.826 372.3 135.788 374.004 133.563 376.862C132.43 378.317 131.784 380.057 131.824 381.992C131.865 383.913 132.577 385.908 133.957 387.91L136.427 386.208C135.298 384.57 134.849 383.134 134.824 381.93C134.799 380.74 135.184 379.663 135.93 378.706C137.46 376.74 140.568 375.244 144.602 374.871C152.59 374.133 163.285 377.908 169.087 389.321L171.761 387.962ZM133.957 387.91C141.246 398.49 149.985 403.279 157.454 403.058C165.056 402.834 170.849 397.425 171.913 388.826L168.935 388.457C168.033 395.751 163.328 399.883 157.365 400.06C151.269 400.24 143.374 396.291 136.427 386.208L133.957 387.91ZM171.665 387.8C168.904 383.728 160.314 376.656 147.53 379.696L148.224 382.615C159.512 379.93 166.942 386.179 169.182 389.483L171.665 387.8Z" fill="black"/>
<path d="M169.402 386.585C166.32 382.367 150.664 376.268 134.559 385.205C128.568 370.499 159.095 367.506 169.402 386.585Z" fill="white" fill-opacity="0.25"/>
<path d="M170.424 388.641L171.913 388.826L171.969 388.371L171.761 387.962L170.424 388.641ZM135.192 387.059L136.427 386.208L135.192 387.059ZM147.53 379.696C146.724 379.888 146.226 380.696 146.418 381.502C146.61 382.308 147.418 382.806 148.224 382.615L147.53 379.696ZM171.761 387.962C165.345 375.341 153.408 371.044 144.326 371.884C139.826 372.3 135.788 374.004 133.563 376.862C132.43 378.317 131.784 380.057 131.824 381.992C131.865 383.913 132.577 385.908 133.957 387.91L136.427 386.208C135.298 384.57 134.849 383.134 134.824 381.93C134.799 380.74 135.184 379.663 135.93 378.706C137.46 376.74 140.568 375.244 144.602 374.871C152.59 374.133 163.285 377.908 169.087 389.321L171.761 387.962ZM133.957 387.91C141.246 398.49 149.985 403.279 157.454 403.058C165.056 402.834 170.849 397.425 171.913 388.826L168.935 388.457C168.033 395.751 163.328 399.883 157.365 400.06C151.269 400.24 143.374 396.291 136.427 386.208L133.957 387.91ZM171.665 387.8C168.904 383.728 160.314 376.656 147.53 379.696L148.224 382.615C159.512 379.93 166.942 386.179 169.182 389.483L171.665 387.8Z" fill="black"/>
<path d="M176.172 390.866C183.149 366.61 214.924 368.015 208.279 383.175C198.849 404.689 180.793 405.128 176.172 390.866Z" fill="#57A0A4"/>
<path d="M176.172 390.866L174.745 391.328L174.604 390.892L174.731 390.451L176.172 390.866ZM208.279 383.175L209.653 383.777L208.279 383.175ZM195.638 378.495C196.465 378.53 197.107 379.23 197.071 380.058C197.036 380.886 196.336 381.528 195.508 381.492L195.638 378.495ZM174.731 390.451C178.406 377.672 188.655 371.586 197.187 370.747C201.412 370.331 205.455 371.184 208.034 373.441C209.348 374.591 210.262 376.095 210.572 377.905C210.879 379.7 210.572 381.679 209.653 383.777L206.905 382.572C207.647 380.88 207.801 379.499 207.615 378.41C207.431 377.336 206.898 376.433 206.059 375.699C204.331 374.186 201.24 373.362 197.48 373.732C190.042 374.464 180.915 379.803 177.614 391.28L174.731 390.451ZM209.653 383.777C204.817 394.81 197.61 400.791 190.662 401.917C183.582 403.065 177.258 399.085 174.745 391.328L177.599 390.404C179.707 396.909 184.721 399.841 190.182 398.956C195.775 398.049 202.311 393.053 206.905 382.572L209.653 383.777ZM174.794 390.274C176.623 386.015 183.299 377.961 195.638 378.495L195.508 381.492C184.706 381.024 179.014 388.051 177.551 391.458L174.794 390.274Z" fill="black"/>
<path d="M176.153 391.105C177.3 386.128 185.388 376.286 208.532 381.358C199.657 403.506 184.062 406.318 176.153 391.105Z" fill="white" fill-opacity="0.25"/>
<path d="M176.172 390.866L174.745 391.328L174.604 390.892L174.731 390.451L176.172 390.866ZM208.279 383.175L206.905 382.572L208.279 383.175ZM195.638 378.495C196.465 378.53 197.107 379.23 197.071 380.058C197.036 380.886 196.336 381.528 195.508 381.492L195.638 378.495ZM174.731 390.451C178.406 377.672 188.655 371.586 197.187 370.747C201.412 370.331 205.455 371.184 208.034 373.441C209.348 374.591 210.262 376.095 210.572 377.905C210.879 379.7 210.572 381.679 209.653 383.777L206.905 382.572C207.647 380.88 207.801 379.499 207.615 378.41C207.431 377.336 206.898 376.433 206.059 375.699C204.331 374.186 201.24 373.362 197.48 373.732C190.042 374.464 180.915 379.803 177.614 391.28L174.731 390.451ZM209.653 383.777C204.817 394.81 197.61 400.791 190.662 401.917C183.582 403.065 177.258 399.085 174.745 391.328L177.599 390.404C179.707 396.909 184.721 399.841 190.182 398.956C195.775 398.049 202.311 393.053 206.905 382.572L209.653 383.777ZM174.794 390.274C176.623 386.015 183.299 377.961 195.638 378.495L195.508 381.492C184.706 381.024 179.014 388.051 177.551 391.458L174.794 390.274Z" fill="black"/>
<path d="M184.41 369.318C190.501 385.346 185.484 397.827 173.865 397.437C162.433 397.054 159.366 387.551 161.343 375.029C163.879 358.969 166.249 342.223 166.835 329.555C168.916 327.523 170.733 326.968 176.501 328.236C176.677 338.078 180.236 358.333 184.41 369.318Z" fill="#D0FCFF" stroke="black" stroke-width="3"/>
<path d="M182.652 384.696C184.761 379.248 181.11 371.447 178.478 363.386C177.759 361.185 173.294 361.681 173.075 363.986L172.986 364.924C172.107 374.151 170.789 383.817 172.986 385.355C175.183 386.893 178.039 388.43 182.652 384.696Z" fill="white" fill-opacity="0.2"/>
<path d="M184.748 329.102C186.392 325.968 185.172 319.616 185.172 319.616C179.499 324.114 167.7 326.26 158.197 324.647C158.197 324.647 158.333 329.303 159.699 331.843C162.645 337.321 181.092 336.067 184.748 329.102Z" fill="#398F94" stroke="black" stroke-width="3"/>
<path d="M180.354 328.279C181.659 325.727 180.699 320.558 180.699 320.558C176.204 324.225 166.86 325.983 159.338 324.68C159.338 324.68 159.441 328.469 160.52 330.535C162.847 334.991 177.453 333.952 180.354 328.279Z" fill="white" fill-opacity="0.15"/>
<path d="M184.748 329.102C186.392 325.968 185.172 319.616 185.172 319.616C179.499 324.114 167.7 326.26 158.197 324.647C158.197 324.647 158.333 329.303 159.699 331.843C162.645 337.321 181.092 336.067 184.748 329.102Z" stroke="black" stroke-width="3"/>
<path d="M109.632 282.26C109.632 292.486 115.258 303.198 124.566 311.396C133.856 319.577 146.69 325.136 160.857 325.136C189.4 325.136 212.081 305.708 212.081 282.26C212.081 258.743 189.32 237.626 160.857 237.626C146.724 237.626 133.896 243.6 124.595 252.22C115.271 260.86 109.632 272.02 109.632 282.26Z" fill="#D0FCFF" stroke="black" stroke-width="3"/>
<path d="M185.681 243.815C198.283 248.579 203.696 255.678 210.066 272.374L200.181 272.374C197.544 246.451 165.031 236.346 144.82 240.739C154.706 236.785 167.667 237.005 185.681 243.815Z" fill="white"/>
<path d="M158.221 324.22C136.033 322.901 117.799 308.622 122.193 305.546C150.312 327.734 197.634 318.758 211.385 279.184C212.483 306.645 187.289 325.946 158.221 324.22Z" fill="#9EE3E7"/>
<path d="M109.632 282.26C109.632 292.486 115.258 303.198 124.566 311.396C133.856 319.577 146.69 325.136 160.857 325.136C189.4 325.136 212.081 305.708 212.081 282.26C212.081 258.743 189.32 237.626 160.857 237.626C146.724 237.626 133.896 243.6 124.595 252.22C115.271 260.86 109.632 272.02 109.632 282.26Z" stroke="black" stroke-width="3"/>
<path d="M79.3496 269.597C88.8083 246.255 115.923 253.361 124.829 272.155C128.513 279.928 130.927 289.51 129.222 302.251C127.518 314.993 119.364 321.04 108.712 321.151C86.9632 321.377 69.8909 292.939 79.3496 269.597Z" fill="white"/>
<path d="M80.2086 271.565C88.329 251.525 111.607 257.626 119.253 273.761C122.416 280.435 124.489 288.661 123.025 299.6C121.562 310.539 114.562 315.73 105.417 315.825C86.745 316.019 72.0881 291.604 80.2086 271.565Z" fill="#D0FCFF"/>
<path d="M124.389 271.495C115.483 252.702 88.8082 246.254 79.3496 269.597C69.8909 292.939 86.9632 321.377 108.712 321.151C119.364 321.04 126.156 314.114 129.222 303.13" stroke="black" stroke-width="3" stroke-linecap="round"/>
<ellipse rx="13.4008" ry="21.3095" transform="matrix(-0.9731 0.230385 0.230385 0.9731 98.5309 288.948)" fill="#9EE3E7"/>
<path d="M111.571 285.861C114.283 297.313 110.642 307.979 103.44 309.684C116.041 298.517 109.011 271.276 93.6216 268.212C100.824 266.507 108.86 274.408 111.571 285.861Z" fill="black"/>
<ellipse rx="10.5272" ry="16.7399" transform="matrix(-0.9731 0.230385 0.230385 0.9731 101.062 289.217)" fill="black"/>
<g opacity="0.75">
<path d="M173.174 303.133C171.188 302.09 171.191 299.22 173.098 298.037C180.212 293.625 185.123 288.465 187.926 281.768C188.852 279.554 191.563 278.495 193.566 279.817C194.925 280.714 195.498 282.441 194.824 283.923C191.144 292.012 185.248 297.72 175.793 303.099C174.985 303.559 173.997 303.565 173.174 303.133Z" fill="black" fill-opacity="0.1"/>
<path d="M186.242 303.371C184.729 302.63 184.546 300.545 185.869 299.503C192.536 294.253 195.968 289.943 198.497 282.537C198.998 281.07 200.662 280.323 202.054 281.005C203.209 281.57 203.746 282.926 203.262 284.116C199.966 292.209 196.537 296.862 188.591 303.127C187.922 303.654 187.007 303.746 186.242 303.371Z" fill="white" fill-opacity="0.2"/>
</g>
<path d="M157.436 262.937C155.516 264.871 153.276 269.063 159.676 270.353C167.677 271.965 169.277 254.876 157.436 258.423C145.595 261.97 148.476 277.446 160.956 275.834C170.941 274.544 171.624 264.979 170.717 260.357" stroke="black" stroke-width="3" stroke-linecap="round"/>
<path d="M136.908 254.614C138.548 256.218 140.461 259.694 134.994 260.764C128.161 262.101 126.794 247.93 136.908 250.871C147.022 253.812 144.562 266.646 133.901 265.309C125.372 264.24 124.789 256.307 125.564 252.475" stroke="black" stroke-width="3" stroke-linecap="round"/>
<path d="M153.023 256.239L151.891 251.383C158.923 245.796 175.002 243.765 178.827 243.523L175.803 252.345C167.535 250.459 156.63 254.043 153.023 256.239Z" fill="#57A0A4" stroke="black" stroke-width="3"/>
<path d="M147.152 248.473L147.533 243.501C139.733 239.047 128.514 239.194 124.697 239.536L125.601 247.506C133.486 244.385 143.254 246.85 147.152 248.473Z" fill="#57A0A4" stroke="black" stroke-width="3"/>
<path d="M172.702 394.04C198.914 371.528 234.218 397.015 215.221 409.369C188.262 426.9 167.271 413.833 172.702 394.04Z" fill="#398F94"/>
<path d="M172.702 394.04L171.256 393.643L171.377 393.201L171.725 392.902L172.702 394.04ZM215.221 409.369L214.404 408.111L215.221 409.369ZM203.95 394.962C204.622 395.446 204.774 396.384 204.29 397.056C203.806 397.728 202.868 397.88 202.196 397.396L203.95 394.962ZM171.725 392.902C185.345 381.205 201.397 381.944 211.612 387.301C216.683 389.961 220.525 393.875 221.724 398.195C222.332 400.386 222.249 402.663 221.298 404.84C220.354 407.003 218.599 408.961 216.039 410.626L214.404 408.111C216.593 406.687 217.891 405.146 218.549 403.639C219.202 402.146 219.273 400.581 218.833 398.997C217.936 395.767 214.875 392.4 210.219 389.958C200.977 385.111 186.272 384.363 173.679 395.178L171.725 392.902ZM216.039 410.626C202.307 419.556 189.769 420.9 181.203 417.07C172.516 413.186 168.366 404.174 171.256 393.643L174.149 394.437C171.607 403.699 175.238 411.117 182.428 414.332C189.74 417.601 201.177 416.712 214.404 408.111L216.039 410.626ZM171.875 392.789C177.026 389.384 190.463 385.244 203.95 394.962L202.196 397.396C189.957 388.577 177.906 392.398 173.529 395.292L171.875 392.789Z" fill="black"/>
<path d="M172.5 394.299C177.553 389.466 194.205 384.282 216.877 407.48C190.075 426.154 170.117 417.651 172.5 394.299Z" fill="white" fill-opacity="0.2"/>
<path d="M172.702 394.04L171.256 393.643L171.377 393.201L171.725 392.902L172.702 394.04ZM215.221 409.369L214.404 408.111L215.221 409.369ZM203.95 394.962C204.622 395.446 204.774 396.384 204.29 397.056C203.806 397.728 202.868 397.88 202.196 397.396L203.95 394.962ZM171.725 392.902C185.345 381.205 201.397 381.944 211.612 387.301C216.683 389.961 220.525 393.875 221.724 398.195C222.332 400.386 222.249 402.663 221.298 404.84C220.354 407.003 218.599 408.961 216.039 410.626L214.404 408.111C216.593 406.687 217.891 405.146 218.549 403.639C219.202 402.146 219.273 400.581 218.833 398.997C217.936 395.767 214.875 392.4 210.219 389.958C200.977 385.111 186.272 384.363 173.679 395.178L171.725 392.902ZM216.039 410.626C202.307 419.556 189.769 420.9 181.203 417.07C172.516 413.186 168.366 404.174 171.256 393.643L174.149 394.437C171.607 403.699 175.238 411.117 182.428 414.332C189.74 417.601 201.177 416.712 214.404 408.111L216.039 410.626ZM171.875 392.789C177.026 389.384 190.463 385.244 203.95 394.962L202.196 397.396C189.957 388.577 177.906 392.398 173.529 395.292L171.875 392.789Z" fill="black"/>
<path d="M170.541 394.04C144.329 371.528 109.025 397.015 128.022 409.369C154.981 426.9 175.972 413.833 170.541 394.04Z" fill="#398F94"/>
<path d="M170.541 394.04L171.988 393.643L171.866 393.201L171.518 392.902L170.541 394.04ZM128.022 409.369L128.839 408.111L128.022 409.369ZM139.293 394.962C138.621 395.446 138.469 396.384 138.953 397.056C139.437 397.728 140.375 397.88 141.047 397.396L139.293 394.962ZM171.518 392.902C157.898 381.205 141.846 381.944 131.631 387.301C126.56 389.961 122.719 393.875 121.52 398.195C120.911 400.386 120.994 402.663 121.945 404.84C122.89 407.003 124.644 408.961 127.204 410.626L128.839 408.111C126.65 406.687 125.352 405.146 124.694 403.639C124.042 402.146 123.971 400.581 124.41 398.997C125.307 395.767 128.368 392.4 133.025 389.958C142.266 385.111 156.971 384.363 169.564 395.178L171.518 392.902ZM127.204 410.626C140.936 419.556 153.474 420.9 162.04 417.07C170.727 413.186 174.877 404.174 171.988 393.643L169.095 394.437C171.636 403.699 168.006 411.117 160.815 414.332C153.503 417.601 142.066 416.712 128.839 408.111L127.204 410.626ZM171.368 392.789C166.217 389.384 152.78 385.244 139.293 394.962L141.047 397.396C153.286 388.577 165.337 392.398 169.714 395.292L171.368 392.789Z" fill="black"/>
<path d="M168.326 392.103C162.614 388.609 141.085 389.027 126.366 407.481C112.087 392.981 146.797 374.528 168.326 392.103Z" fill="white" fill-opacity="0.2"/>
<path d="M170.541 394.04L171.988 393.643L171.866 393.201L171.518 392.902L170.541 394.04ZM128.022 409.369L128.839 408.111L128.022 409.369ZM139.293 394.962C138.621 395.446 138.469 396.384 138.953 397.056C139.437 397.728 140.375 397.88 141.047 397.396L139.293 394.962ZM171.518 392.902C157.898 381.205 141.846 381.944 131.631 387.301C126.56 389.961 122.719 393.875 121.52 398.195C120.911 400.386 120.994 402.663 121.945 404.84C122.89 407.003 124.644 408.961 127.204 410.626L128.839 408.111C126.65 406.687 125.352 405.146 124.694 403.639C124.042 402.146 123.971 400.581 124.41 398.997C125.307 395.767 128.368 392.4 133.025 389.958C142.266 385.111 156.971 384.363 169.564 395.178L171.518 392.902ZM127.204 410.626C140.936 419.556 153.474 420.9 162.04 417.07C170.727 413.186 174.877 404.174 171.988 393.643L169.095 394.437C171.636 403.699 168.006 411.117 160.815 414.332C153.503 417.601 142.066 416.712 128.839 408.111L127.204 410.626ZM171.368 392.789C166.217 389.384 152.78 385.244 139.293 394.962L141.047 397.396C153.286 388.577 165.337 392.398 169.714 395.292L171.368 392.789Z" fill="black"/>
<g filter="url(#filter1_f)">
<circle r="81.919" transform="matrix(-1 0 0 1 271.362 417.994)" fill="#CB5029" fill-opacity="0.3"/>
</g>
<path d="M279.119 259.171C251.669 256.918 250.508 276.515 248.187 280.885C290.96 277.935 302.199 315.847 302.472 335.171C323.463 339.34 338.67 328.013 343.648 322.88C331.357 325.994 323.64 322.812 323.572 316.939C342.255 320.873 348.154 307.516 357.168 293.996C336.81 304.542 329.308 303.419 320.295 293.996C348.974 297.903 366.455 269.96 368.23 261.629C357.168 272.282 326.713 272.623 310.667 269.619C314.927 257.983 331.015 257.805 338.526 259.171C328.53 248.191 315.583 249.543 302.472 258.147C290.585 265.948 278.573 270.233 268.057 270.028C268.221 264.128 275.5 260.332 279.119 259.171Z" fill="#CF2020"/>
<path d="M271.13 260.738C250.645 266.883 254.537 273.439 248.187 283.271C285.85 280.676 290.555 315.026 290.796 332.026C309.279 335.694 325.539 332.855 329.923 328.339C319.1 331.078 316.463 316.093 316.402 310.926C321.319 313.794 336.478 315.638 344.262 304.986C326.337 314.263 316.76 296.683 308.823 288.393C334.076 291.83 351.917 280.767 353.481 273.439C343.74 282.81 314.964 276.082 300.834 273.439C304.586 263.202 321.055 254.825 327.669 256.026C317.427 251.315 304.336 260.02 293.869 266.883C283.401 273.746 275.473 272.185 266.214 272.005C261.297 266.883 267.943 261.759 271.13 260.738Z" fill="#E74E1E"/>
<path d="M263.551 265.654C254.332 272.414 252.489 276.511 253.103 285.549C289.008 283.074 296.303 308.638 296.532 324.856C300.493 333.242 305.58 334.848 324.054 330.029C309.596 319.32 313.961 309.959 313.88 307.239C316.543 307.239 320.025 314.409 336.823 309.083C315.928 308.263 309.629 293.843 302.063 285.935C308.413 286.754 318.134 287.368 329.923 281.428C306.16 283.886 295.674 277.285 295.674 277.285C295.674 277.285 296.122 270.98 305.136 264.63C290.591 269.751 285.396 273.619 283.358 274.801C278.219 277.78 266.747 276.964 263.551 274.801C261.721 273.562 262.106 270.05 263.551 265.654Z" fill="#DE8923"/>
<path d="M294.411 253.084C290.667 250.476 287.334 254.331 288.189 255.986C288.786 257.142 290.533 257.629 291.53 256.704C292.406 255.892 292.236 254.916 292.659 253.81C292.913 253.148 293.782 253.094 294.411 253.084Z" fill="#DE8923"/>
<path d="M349.635 263.422C347.599 261.308 345.002 263.226 345.333 264.361C345.563 265.153 346.607 265.691 347.354 265.258C348.011 264.878 348.027 264.254 348.435 263.631C348.68 263.258 349.237 263.343 349.635 263.422Z" fill="#CF2020"/>
<path d="M368.306 258.941C366.269 256.826 363.755 258.406 363.568 259.713C363.414 260.796 365.061 261.827 365.809 261.394C366.465 261.013 366.707 259.963 367.116 259.34C367.36 258.967 367.907 258.862 368.306 258.941Z" fill="#E74E1E"/>
<path d="M361.42 298.385C363.074 301.243 360.091 303.412 358.95 302.696C358.152 302.195 357.907 300.905 358.634 300.242C359.273 299.66 359.966 299.842 360.79 299.604C361.283 299.461 361.375 298.837 361.42 298.385Z" fill="#E74E1E"/>
<path d="M344.243 316.682C345.897 319.54 342.915 321.709 341.773 320.993C340.976 320.492 340.73 319.202 341.458 318.539C342.096 317.957 342.79 318.139 343.613 317.901C344.106 317.758 344.198 317.134 344.243 316.682Z" fill="#DE8923"/>
<path d="M364.81 288.213C362.859 286.809 361.073 288.812 361.51 289.69C361.815 290.304 362.731 290.575 363.264 290.096C363.731 289.675 363.649 289.16 363.881 288.581C364.02 288.234 364.479 288.213 364.81 288.213Z" fill="#CF2020"/>
<path d="M331.507 286.102C315.295 270.94 297.584 279.391 293.601 285.587C292.825 287.501 293.601 293.334 302.907 301.357C307.194 280.46 322.964 283.099 331.507 286.102Z" fill="#EF6438" stroke="black" stroke-width="3"/>
<path d="M277.446 429.808C272.079 427.308 267.704 443.9 267.704 443.9C267.704 443.9 275.118 452.291 279.762 452.901C284.406 453.511 280.909 440.635 280.909 440.635C280.909 440.635 284.93 454.905 290.994 455.855C297.05 456.805 295.463 443.68 295.043 440.795C295.45 443.195 297.442 452.603 303.726 453.476C308.973 454.205 307.679 447.46 306.45 443.395C307.584 446.04 309.721 449.585 313.162 450.121C318.906 451.015 314.904 441.151 314.904 441.151C314.904 441.151 321.216 433.524 315.468 432.003C312.325 431.172 309.752 433.443 307.998 435.838C309.379 432.548 309.89 428.642 304.788 428.283C298.659 427.851 296.323 433.486 295.453 437.17C295.987 432.876 296.244 425.591 291.84 425.538C285.883 425.467 282.48 435.088 281.343 439.006C281.825 436.544 282.014 431.937 277.446 429.808Z" fill="#800707"/>
<path d="M267.704 443.9C267.704 443.9 272.079 427.308 277.446 429.808C283.844 432.79 280.909 440.635 280.909 440.635M267.704 443.9C272.443 442.843 276.925 441.219 280.909 440.635M267.704 443.9C267.704 443.9 275.118 452.291 279.762 452.901C284.406 453.511 280.909 440.635 280.909 440.635M321.404 441.763C320.735 441.699 315.553 441.21 314.904 441.151M280.909 440.635C280.909 440.635 284.362 425.448 291.84 425.538C298.086 425.613 294.957 440.24 294.957 440.24M280.909 440.635C285.887 439.905 290.23 440.339 294.957 440.24M280.909 440.635C280.909 440.635 284.93 454.905 290.994 455.855C297.795 456.922 294.957 440.24 294.957 440.24M294.957 440.24C294.957 440.24 295.736 427.645 304.788 428.283C313.733 428.913 305.425 440.443 305.425 440.443M294.957 440.24C298.318 440.17 301.746 440.244 305.425 440.443M294.957 440.24C294.957 440.24 296.517 452.474 303.726 453.476C311.186 454.512 305.425 440.443 305.425 440.443M305.425 440.443C305.425 440.443 309.374 430.391 315.468 432.003C321.216 433.524 314.904 441.151 314.904 441.151M305.425 440.443C308.389 440.602 311.516 440.842 314.904 441.151M305.425 440.443C305.425 440.443 307.573 449.25 313.162 450.121C318.906 451.015 314.904 441.151 314.904 441.151" stroke="black" stroke-width="3" stroke-linecap="round" stroke-linejoin="round"/>
<path d="M254.392 427.868C259.971 425.884 262.763 442.815 262.763 442.815C262.763 442.815 254.591 450.47 249.91 450.64C245.23 450.809 249.924 438.32 249.924 438.32C249.924 438.32 244.576 452.147 238.45 452.522C232.331 452.897 235.148 439.98 235.838 437.147C235.207 439.498 232.337 448.676 225.999 448.954C220.706 449.185 222.63 442.592 224.237 438.66C222.858 441.187 220.397 444.515 216.921 444.724C211.118 445.073 216.032 435.63 216.032 435.63C216.032 435.63 210.467 427.442 216.333 426.47C219.54 425.939 221.887 428.442 223.408 430.992C222.343 427.587 222.202 423.65 227.316 423.773C233.458 423.92 235.253 429.75 235.772 433.5C235.644 429.175 236.075 421.898 240.464 422.26C246.402 422.751 248.883 432.65 249.646 436.657C249.398 434.161 249.644 429.557 254.392 427.868Z" fill="#800707"/>
<path d="M262.763 442.815C262.763 442.815 259.971 425.884 254.392 427.868C247.742 430.233 249.924 438.32 249.924 438.32M262.763 442.815C258.144 441.317 253.836 439.277 249.924 438.32M262.763 442.815C262.763 442.815 254.591 450.47 249.91 450.64C245.23 450.809 249.924 438.32 249.924 438.32M209.503 435.627C210.175 435.626 215.38 435.628 216.032 435.63M249.924 438.32C249.924 438.32 247.918 422.876 240.464 422.26C234.239 421.746 235.976 436.603 235.976 436.603M249.924 438.32C245.037 437.124 240.673 437.147 235.976 436.603M249.924 438.32C249.924 438.32 244.576 452.147 238.45 452.522C231.579 452.943 235.976 436.603 235.976 436.603M235.976 436.603C235.976 436.603 236.387 423.991 227.316 423.773C218.351 423.557 225.535 435.818 225.535 435.818M235.976 436.603C232.637 436.217 229.217 435.968 225.535 435.818M235.976 436.603C235.976 436.603 233.271 448.636 225.999 448.954C218.474 449.282 225.535 435.818 225.535 435.818M225.535 435.818C225.535 435.818 222.551 425.44 216.333 426.47C210.467 427.442 216.032 435.63 216.032 435.63M225.535 435.818C222.569 435.698 219.433 435.642 216.032 435.63M225.535 435.818C225.535 435.818 222.567 444.384 216.921 444.724C211.118 445.073 216.032 435.63 216.032 435.63" stroke="black" stroke-width="3" stroke-linecap="round" stroke-linejoin="round"/>
<path d="M272.59 442.061C281.816 429.76 286.158 395.042 275.051 376.05C272.727 377.143 266.768 379.002 261.52 377.69C268.08 383.43 272.59 416.64 259.47 439.191C261.657 441.787 267.342 448.293 272.59 442.061Z" fill="#CB5029" stroke="black" stroke-width="3"/>
<path d="M277.101 424.225C281.406 406.39 280.332 390.989 273.381 377.497C271.706 377.019 269.472 378.49 266.645 378.51C270.95 378.51 281.406 397.985 277.101 424.225Z" fill="white" fill-opacity="0.3"/>
<path d="M281.433 371.574C283.206 368.197 281.891 361.351 281.891 361.351C275.777 366.199 263.06 368.511 252.819 366.773C252.819 366.773 252.965 371.791 254.437 374.528C257.613 380.432 277.494 379.08 281.433 371.574Z" fill="#800707" stroke="black" stroke-width="3"/>
<path d="M276.698 370.687C278.104 367.937 277.07 362.366 277.07 362.366C272.225 366.318 262.155 368.213 254.048 366.808C254.048 366.808 254.159 370.892 255.322 373.119C257.83 377.921 273.572 376.801 276.698 370.687Z" fill="white" fill-opacity="0.15"/>
<path d="M281.433 371.574C283.206 368.197 281.891 361.351 281.891 361.351C275.777 366.199 263.06 368.511 252.819 366.773C252.819 366.773 252.965 371.791 254.437 374.528C257.613 380.432 277.494 379.08 281.433 371.574Z" stroke="black" stroke-width="3"/>
<path d="M200.363 321.092C200.363 332.154 206.447 343.729 216.497 352.58C226.528 361.414 240.388 367.417 255.686 367.417C286.492 367.417 311.008 346.445 311.008 321.092C311.008 295.67 286.412 272.872 255.686 272.872C240.421 272.872 226.569 279.324 216.526 288.631C206.461 297.959 200.363 310.015 200.363 321.092Z" fill="#EF6438" stroke="black" stroke-width="3"/>
<path d="M282.44 279.658C296.021 284.793 301.854 292.444 308.72 310.437L298.066 310.437C295.225 282.5 260.184 271.609 238.402 276.344C249.057 272.082 263.025 272.319 282.44 279.658Z" fill="#FF7C53"/>
<path d="M252.845 366.313C228.932 364.892 209.281 349.503 214.016 346.188C244.321 370.101 295.321 360.426 310.141 317.777C311.324 347.372 284.172 368.174 252.845 366.313Z" fill="#CB2929"/>
<path d="M200.363 321.092C200.363 332.154 206.447 343.729 216.497 352.58C226.528 361.414 240.388 367.417 255.686 367.417C286.492 367.417 311.008 346.445 311.008 321.092C311.008 295.67 286.412 272.872 255.686 272.872C240.421 272.872 226.569 279.324 216.526 288.631C206.461 297.959 200.363 310.015 200.363 321.092Z" stroke="black" stroke-width="3"/>
<path d="M167.843 307.444C178.037 282.288 207.259 289.947 216.857 310.201C220.827 318.579 223.429 328.905 221.592 342.637C219.755 356.369 210.967 362.886 199.487 363.005C176.048 363.249 157.649 332.6 167.843 307.444Z" fill="#FF7C53"/>
<path d="M168.769 309.566C177.521 287.968 202.608 294.543 210.848 311.932C214.257 319.125 216.491 327.99 214.914 339.779C213.336 351.569 205.792 357.164 195.936 357.266C175.813 357.475 160.017 331.163 168.769 309.566Z" fill="#EF6438"/>
<path d="M216.383 309.491C206.785 289.236 178.037 282.288 167.843 307.444C157.649 332.6 176.048 363.249 199.488 363.005C210.967 362.886 218.287 355.422 221.592 343.584" stroke="black" stroke-width="3" stroke-linecap="round"/>
<ellipse rx="14.4424" ry="22.9657" transform="matrix(-0.9731 0.230385 0.230385 0.9731 188.515 328.3)" fill="#CB2929"/>
<path d="M202.569 324.972C205.491 337.315 201.568 348.81 193.806 350.648C207.387 338.612 199.81 309.254 183.224 305.952C190.986 304.114 199.647 312.63 202.569 324.972Z" fill="black"/>
<ellipse rx="11.3454" ry="18.041" transform="matrix(-0.9731 0.230385 0.230385 0.9731 191.243 328.59)" fill="black"/>
<g opacity="0.75">
<ellipse rx="4.26168" ry="5.20872" transform="matrix(-1 0 0 1 285.568 315.714)" fill="white" fill-opacity="0.2"/>
<ellipse rx="5.68224" ry="6.86604" transform="matrix(-0.947838 -0.318751 -0.318751 0.947838 295.04 324.033)" fill="black" fill-opacity="0.2"/>
<ellipse rx="3.25503" ry="3.93316" transform="matrix(-0.984384 0.176033 0.176033 0.984384 284.128 326.401)" fill="black" fill-opacity="0.2"/>
</g>
<ellipse rx="9.42999" ry="14.2339" transform="matrix(-0.839393 -0.543525 -0.543525 0.839393 249.504 299.337)" fill="black"/>
<ellipse rx="3.74148" ry="5.35207" transform="matrix(-0.926372 -0.37661 -0.37661 0.926372 253.569 298.299)" fill="white"/>
<ellipse rx="7.09694" ry="10.7124" transform="matrix(-0.95347 -0.301486 -0.301486 0.95347 226.275 296.984)" fill="black"/>
<ellipse rx="2.64308" ry="3.98955" transform="matrix(-0.934824 -0.355111 -0.355111 0.934824 223.911 294.811)" fill="white"/>
<path d="M243.13 296.238L241.556 291.099C248.708 284.576 265.847 281.214 269.941 280.673L267.337 290.38C258.309 288.958 246.846 293.612 243.13 296.238Z" fill="#932C2C" stroke="black" stroke-width="3"/>
<path d="M234.101 293.826L237.01 289.307C231.897 281.088 221.184 275.477 217.391 273.845L214.164 281.865C223.239 282.947 231.236 290.289 234.101 293.826Z" fill="#932C2C" stroke="black" stroke-width="3"/>
<path d="M285.234 435.602C281.616 429.691 266.626 443.055 266.626 443.055C266.626 443.055 268.435 456.039 272.57 459.637C276.706 463.235 281.616 448.407 281.616 448.407C281.616 448.407 276.316 464.934 281.616 469.783C286.91 474.626 293.843 460.79 295.298 457.703C294.144 460.309 290.007 470.778 295.572 475.694C300.219 479.798 303.316 472.379 304.744 467.616C304.141 470.932 303.934 475.773 306.944 478.521C311.968 483.108 314.439 470.893 314.439 470.893C314.439 470.893 325.524 467.531 320.9 462.33C318.372 459.486 314.395 460.04 311.137 461.242C314.609 458.925 317.633 455.443 312.888 451.793C307.19 447.409 301.269 451.397 298.04 454.431C301.336 450.585 306.294 443.641 302.034 440.742C296.269 436.82 286.733 444.011 283.091 447.098C285.152 445.007 288.314 440.633 285.234 435.602Z" fill="#800707"/>
<path d="M266.626 443.055C266.626 443.055 281.616 429.691 285.234 435.602C289.548 442.649 281.616 448.407 281.616 448.407M266.626 443.055C271.931 445.089 277.352 446.401 281.616 448.407M266.626 443.055C266.626 443.055 268.435 456.039 272.57 459.637C276.706 463.235 281.616 448.407 281.616 448.407M320.383 475.694C319.772 475.198 315.034 471.371 314.439 470.893M281.616 448.407C281.616 448.407 294.797 435.819 302.034 440.742C308.077 444.854 295.572 457.106 295.572 457.106M281.616 448.407C286.943 450.914 290.898 454.146 295.572 457.106M281.616 448.407C281.616 448.407 276.316 464.934 281.616 469.783C287.561 475.221 295.572 457.106 295.572 457.106M295.572 457.106C295.572 457.106 304.472 445.318 312.888 451.793C321.205 458.192 305.652 464.073 305.652 464.073M295.572 457.106C298.896 459.211 302.191 461.5 305.652 464.073M295.572 457.106C295.572 457.106 289.188 470.054 295.572 475.694C302.179 481.529 305.652 464.073 305.652 464.073M305.652 464.073C305.652 464.073 315.999 456.816 320.9 462.33C325.524 467.531 314.439 470.893 314.439 470.893M305.652 464.073C308.44 466.145 311.335 468.401 314.439 470.893M305.652 464.073C305.652 464.073 302.055 474.058 306.944 478.521C311.968 483.108 314.439 470.893 314.439 470.893" stroke="black" stroke-width="3" stroke-linecap="round" stroke-linejoin="round"/>
<path d="M246.598 435.602C250.216 429.691 265.206 443.055 265.206 443.055C265.206 443.055 263.397 456.039 259.262 459.637C255.127 463.235 250.216 448.407 250.216 448.407C250.216 448.407 255.516 464.934 250.216 469.783C244.923 474.626 237.989 460.79 236.535 457.703C237.688 460.309 241.825 470.778 236.26 475.694C231.613 479.798 228.516 472.379 227.088 467.616C227.692 470.932 227.898 475.773 224.888 478.521C219.864 483.108 217.393 470.893 217.393 470.893C217.393 470.893 206.308 467.531 210.932 462.33C213.46 459.486 217.437 460.04 220.696 461.242C217.223 458.925 214.2 455.443 218.944 451.793C224.643 447.409 230.563 451.397 233.792 454.431C230.496 450.585 225.538 443.641 229.799 440.742C235.563 436.82 245.1 444.011 248.741 447.098C246.68 445.007 243.518 440.633 246.598 435.602Z" fill="#800707"/>
<path d="M265.206 443.055C265.206 443.055 250.216 429.691 246.598 435.602C242.284 442.649 250.216 448.407 250.216 448.407M265.206 443.055C259.901 445.089 254.48 446.401 250.216 448.407M265.206 443.055C265.206 443.055 263.397 456.039 259.262 459.637C255.127 463.235 250.216 448.407 250.216 448.407M211.449 475.694C212.06 475.198 216.798 471.371 217.393 470.893M250.216 448.407C250.216 448.407 237.035 435.819 229.799 440.742C223.755 444.854 236.26 457.106 236.26 457.106M250.216 448.407C244.889 450.914 240.934 454.146 236.26 457.106M250.216 448.407C250.216 448.407 255.516 464.934 250.216 469.783C244.272 475.221 236.26 457.106 236.26 457.106M236.26 457.106C236.26 457.106 227.36 445.318 218.944 451.793C210.627 458.192 226.18 464.073 226.18 464.073M236.26 457.106C232.936 459.211 229.641 461.5 226.18 464.073M236.26 457.106C236.26 457.106 242.644 470.054 236.26 475.694C229.654 481.529 226.18 464.073 226.18 464.073M226.18 464.073C226.18 464.073 215.833 456.816 210.932 462.33C206.308 467.531 217.393 470.893 217.393 470.893M226.18 464.073C223.393 466.145 220.497 468.401 217.393 470.893M226.18 464.073C226.18 464.073 229.777 474.058 224.888 478.521C219.864 483.108 217.393 470.893 217.393 470.893" stroke="black" stroke-width="3" stroke-linecap="round" stroke-linejoin="round"/>
<g filter="url(#filter2_f)">
<circle cx="544.81" cy="342.392" r="76.8099" fill="#297DCB" fill-opacity="0.25"/>
</g>
<path d="M603.055 353.742C603.86 359.847 611.238 361 616.861 365.338C625.855 372.276 628.31 378.084 623.977 384.705C620.553 389.938 603.591 395.825 592.299 395.297C574.763 394.475 564.597 389.794 547.425 392.8C540.383 394.033 529.826 401.713 518.024 400.405C501.943 398.622 500.62 391.266 491.2 384.705C482.874 378.906 469.039 378.772 472.557 370.331C474.837 364.862 490.016 366.255 494.522 358.809C497.908 353.214 493.486 348.84 495.703 342.87C498.711 334.771 510.882 333.369 520.501 336.148C533.85 340.005 540.439 343.47 554.038 343.83C569.421 344.237 578.388 335.474 592.299 338.837C599.836 340.659 602.206 347.304 603.055 353.742Z" fill="#1285EF" fill-opacity="0.5"/>
<g filter="url(#filter3_f)">
<path d="M603.055 353.742C603.86 359.847 611.238 361 616.861 365.338C625.855 372.276 628.31 378.084 623.977 384.705C620.553 389.938 603.591 395.825 592.299 395.297C574.763 394.475 564.597 389.794 547.425 392.8C540.383 394.033 529.826 401.713 518.024 400.405C501.943 398.622 500.62 391.266 491.2 384.705C482.874 378.906 469.039 378.772 472.557 370.331C474.837 364.862 490.016 366.255 494.522 358.809C497.908 353.214 493.486 348.84 495.703 342.87C498.711 334.771 510.882 333.369 520.501 336.148C533.85 340.005 540.439 343.47 554.038 343.83C569.421 344.237 578.388 335.474 592.299 338.837C599.836 340.659 602.206 347.304 603.055 353.742Z" fill="#1285EF"/>
</g>
<path d="M592.335 356.382C592.987 361.333 598.961 362.267 603.515 365.785C610.798 371.41 612.786 376.119 609.278 381.488C606.505 385.731 592.769 390.504 583.625 390.075C569.424 389.41 561.192 385.614 547.286 388.051C541.583 389.051 533.034 395.278 523.477 394.217C510.455 392.772 509.384 386.808 501.755 381.488C495.013 376.786 483.809 376.677 486.658 369.833C488.505 365.399 500.796 366.528 504.445 360.491C507.187 355.954 503.606 352.408 505.401 347.567C507.837 341.001 517.694 339.864 525.483 342.117C536.293 345.244 541.629 348.054 552.642 348.346C565.098 348.675 572.36 341.571 583.625 344.297C589.728 345.774 591.648 351.163 592.335 356.382Z" fill="#349CFB"/>
<path d="M504.407 200.76C516.617 191.88 525.274 205.939 529.714 215.855C520.243 223.773 501.166 239.964 512.177 267.136C505.961 272.908 496.741 283.624 488.645 273.574C482.208 265.582 492.049 252.188 501.077 248.044C493.825 251.3 471.466 256.959 469.776 242.494C467.778 225.401 502.261 216.669 512.177 217.409C503.741 214.745 495.964 206.9 504.407 200.76Z" fill="#1165B3" stroke="black" stroke-width="3" stroke-linejoin="round"/>
<path d="M509.291 205.865C514.925 200.537 524.194 211.35 527.938 219.629C519.951 226.24 505.64 235.347 514.925 258.034C509.684 262.853 498.973 271.797 495.082 267.015C489.653 260.342 494.13 250.838 501.743 247.378C495.628 250.097 480.595 253.143 479.17 241.066C477.485 226.794 505.369 217.013 513.731 217.631C506.617 215.407 506.905 208.121 509.291 205.865Z" fill="#1C8AF0"/>
<path d="M504.407 200.76C516.617 191.88 525.274 205.939 529.714 215.855C520.243 223.773 501.166 239.964 512.177 267.136C505.961 272.908 496.741 283.624 488.645 273.574C482.208 265.582 492.049 252.188 501.077 248.044C493.825 251.3 471.466 256.959 469.776 242.494C467.778 225.401 502.261 216.669 512.177 217.409C503.741 214.745 495.964 206.9 504.407 200.76Z" stroke="black" stroke-width="3" stroke-linejoin="round"/>
<path d="M544.123 361.357C539.972 352.049 524.736 337.592 497.001 354.228C510.997 366.907 540.015 386.082 544.123 361.357Z" fill="#1D7FDB"/>
<path d="M544.123 361.357C539.972 352.049 524.736 337.592 497.001 354.228C510.997 366.907 540.015 386.082 544.123 361.357ZM544.123 361.357C538.157 358.207 523.132 350.85 509.895 353.161" stroke="black" stroke-width="3" stroke-linecap="round"/>
<path d="M544.123 361.357C538.864 357.046 522.302 349.556 498.127 354.084C511.747 366.81 540.015 386.082 544.123 361.357Z" fill="white" fill-opacity="0.2"/>
<path d="M544.123 361.357C539.972 352.049 524.736 337.592 497.001 354.228C510.997 366.907 540.015 386.082 544.123 361.357ZM544.123 361.357C538.157 358.207 523.132 350.85 509.895 353.161" stroke="black" stroke-width="3" stroke-linecap="round"/>
<path d="M549.13 361.473C552.441 352.718 565.64 338.654 591.952 352.431C579.795 364.798 554.211 383.921 549.13 361.473Z" fill="#1D7FDB"/>
<path d="M549.13 361.473C552.441 352.718 565.64 338.654 591.952 352.431C579.795 364.798 554.211 383.921 549.13 361.473ZM549.13 361.473C554.432 358.267 567.816 350.724 580.074 352.138" stroke="black" stroke-width="3" stroke-linecap="round"/>
<path d="M549.13 361.473C553.723 357.241 568.508 349.493 590.912 352.359C579.102 364.75 554.211 383.921 549.13 361.473Z" fill="white" fill-opacity="0.2"/>
<path d="M549.13 361.473C552.441 352.718 565.64 338.654 591.952 352.431C579.795 364.798 554.211 383.921 549.13 361.473ZM549.13 361.473C554.432 358.267 567.816 350.724 580.074 352.138" stroke="black" stroke-width="3" stroke-linecap="round"/>
<path d="M531.046 307.095L540.988 301.545H548.14L557.501 308.649L551.772 315.975L556.49 325.52L551.772 335.288L556.49 343.058L553.12 352.604L559.017 358.819L550.761 368.587H540.988L533.911 366.145L539.134 353.713L532.563 348.83L537.281 335.288L531.046 327.074L537.281 315.975L531.046 307.095Z" fill="#1C8AF0" stroke="black" stroke-width="3"/>
<path d="M531.934 307.317C535.634 309.759 544.943 313.666 552.58 309.759" stroke="black" stroke-width="3" stroke-linecap="round"/>
<path d="M531.934 326.852C535.634 329.294 545.387 330.759 553.024 326.852" stroke="black" stroke-width="3" stroke-linecap="round"/>
<path d="M533.71 348.608C537.41 351.049 548.806 350.161 553.245 344.39" stroke="black" stroke-width="3" stroke-linecap="round"/>
<path d="M536.29 362.283C539.791 365.002 550.374 365.121 555.244 359.707" stroke="black" stroke-width="3" stroke-linecap="round"/>
<path d="M534.256 326.078L539.424 317.209C541.792 320.339 547.422 326.33 550.998 325.258C545.158 329.399 537.404 327.53 534.256 326.078Z" fill="white" fill-opacity="0.2"/>
<path d="M535.513 347.316L538.791 337.589C541.74 340.179 548.46 344.916 551.747 343.146C546.859 348.377 538.888 348.105 535.513 347.316Z" fill="white" fill-opacity="0.2"/>
<path d="M538.374 362.148L541.763 354.004C544.137 356.399 549.617 360.861 552.541 359.539C548.039 363.733 541.22 363.026 538.374 362.148Z" fill="white" fill-opacity="0.2"/>
<path d="M535.366 298.867C533.705 295.701 534.938 289.281 534.938 289.281C540.67 293.827 552.593 295.995 562.196 294.365C562.196 294.365 562.059 299.07 560.679 301.637C557.701 307.173 539.06 305.905 535.366 298.867Z" fill="#11497C" stroke="black" stroke-width="3"/>
<path d="M539.806 298.036C538.488 295.457 539.457 290.233 539.457 290.233C544 293.939 553.442 295.716 561.043 294.398C561.043 294.398 560.939 298.228 559.849 300.315C557.497 304.818 542.738 303.768 539.806 298.036Z" fill="white" fill-opacity="0.15"/>
<path d="M535.366 298.867C533.705 295.701 534.938 289.281 534.938 289.281C540.67 293.827 552.593 295.995 562.196 294.365C562.196 294.365 562.059 299.07 560.679 301.637C557.701 307.173 539.06 305.905 535.366 298.867Z" stroke="black" stroke-width="3"/>
<path d="M611.287 251.533C611.287 261.872 605.599 272.701 596.19 280.987C586.801 289.256 573.827 294.876 559.508 294.876C530.659 294.876 507.729 275.239 507.729 251.533C507.729 227.759 530.739 206.415 559.508 206.415C573.794 206.415 586.76 212.453 596.162 221.166C605.586 229.899 611.287 241.18 611.287 251.533Z" fill="#1C8AF0" stroke="black" stroke-width="3"/>
<path d="M534.423 212.684C521.689 217.498 516.219 224.672 509.781 241.544L519.771 241.544C522.435 215.348 555.29 205.137 575.714 209.576C565.724 205.581 552.626 205.803 534.423 212.684Z" fill="#369AF8"/>
<path d="M562.172 293.934C584.593 292.602 603.019 278.172 598.579 275.065C570.164 297.486 522.345 288.415 508.45 248.425C507.34 276.175 532.799 295.679 562.172 293.934Z" fill="#176FBF"/>
<path d="M611.287 251.533C611.287 261.872 605.599 272.701 596.19 280.987C586.801 289.256 573.827 294.876 559.508 294.876C530.659 294.876 507.729 275.239 507.729 251.533C507.729 227.759 530.739 206.415 559.508 206.415C573.794 206.415 586.76 212.453 596.162 221.166C605.586 229.899 611.287 241.18 611.287 251.533Z" stroke="black" stroke-width="3"/>
<path d="M641.872 238.736C632.314 215.149 604.915 222.33 595.915 241.321C592.192 249.176 589.752 258.859 591.475 271.734C593.198 284.61 601.437 290.721 612.201 290.832C634.179 291.061 651.43 262.324 641.872 238.736Z" fill="#369AF8"/>
<path d="M641.004 240.726C632.798 220.475 609.275 226.64 601.549 242.945C598.353 249.689 596.258 258.001 597.737 269.055C599.216 280.109 606.29 285.355 615.531 285.451C634.399 285.647 649.21 260.976 641.004 240.726Z" fill="#1C8AF0"/>
<path d="M596.359 240.656C605.359 221.664 632.314 215.149 641.872 238.737C651.43 262.324 634.178 291.061 612.201 290.833C601.437 290.721 594.574 283.722 591.475 272.623" stroke="black" stroke-width="3" stroke-linecap="round"/>
<ellipse cx="622.489" cy="258.292" rx="13.5416" ry="21.5334" transform="rotate(13.3197 622.489 258.292)" fill="#176FBF"/>
<path d="M609.312 255.172C606.572 266.745 610.25 277.523 617.528 279.246C604.795 267.961 611.899 240.434 627.45 237.338C620.172 235.615 612.052 243.599 609.312 255.172Z" fill="black"/>
<ellipse cx="619.932" cy="258.564" rx="10.6378" ry="16.9159" transform="rotate(13.3197 619.932 258.564)" fill="black"/>
<g opacity="0.75">
<path d="M547.061 272.626C549.069 271.571 549.066 268.671 547.138 267.476C539.95 263.018 534.987 257.804 532.155 251.036C531.219 248.799 528.479 247.729 526.455 249.065C525.082 249.971 524.503 251.716 525.184 253.214C528.902 261.388 534.861 267.156 544.415 272.592C545.232 273.056 546.23 273.063 547.061 272.626Z" fill="black" fill-opacity="0.1"/>
<path d="M533.857 272.867C535.386 272.118 535.571 270.011 534.233 268.958C527.497 263.653 524.028 259.297 521.473 251.814C520.966 250.331 519.285 249.576 517.878 250.265C516.712 250.836 516.168 252.206 516.658 253.409C519.988 261.588 523.453 266.289 531.483 272.62C532.159 273.153 533.084 273.245 533.857 272.867Z" fill="white" fill-opacity="0.2"/>
</g>
<path d="M571.671 227.399C561.37 227.757 554.028 226.184 543.796 222.267C533.563 218.35 537.456 243.737 557.706 243.139C571.941 242.718 581.972 227.04 571.671 227.399Z" fill="black"/>
<path d="M594.715 221.344C586.788 225.596 581.873 226.745 572.56 227.358C563.246 227.97 577.147 242.511 588.925 239.255C601.92 235.661 602.642 217.092 594.715 221.344Z" fill="black"/>
<ellipse cx="551.083" cy="232.87" rx="2.70467" ry="4.12818" transform="rotate(0.231351 551.083 232.87)" fill="white"/>
<ellipse cx="582.658" cy="231.908" rx="2.06616" ry="3.15362" transform="rotate(-1.07847 582.658 231.908)" fill="white"/>
<path d="M547.918 364.147C537.41 356.895 511.688 351.36 492.863 387.235C516.099 391.674 559.639 393.273 547.918 364.147Z" fill="#1D7FDB"/>
<path d="M547.918 364.147C537.41 356.895 511.688 351.36 492.863 387.235C516.099 391.674 559.639 393.273 547.918 364.147ZM547.918 364.147C539.482 364.665 518.615 366.589 505.961 377.689" stroke="black" stroke-width="3" stroke-linecap="round"/>
<path d="M547.918 364.147C539.482 362.963 516.883 365.745 493.973 386.346C516.839 391.082 559.639 393.273 547.918 364.147Z" fill="white" fill-opacity="0.2"/>
<path d="M547.918 364.147C537.41 356.895 511.688 351.36 492.863 387.235C516.099 391.674 559.639 393.273 547.918 364.147ZM547.918 364.147C539.482 364.665 518.615 366.589 505.961 377.689" stroke="black" stroke-width="3" stroke-linecap="round"/>
<path d="M549.468 364.147C559.976 356.895 585.698 351.36 604.523 387.235C581.287 391.674 537.747 393.273 549.468 364.147Z" fill="#1D7FDB"/>
<path d="M549.468 364.147C559.976 356.895 585.698 351.36 604.523 387.235C581.287 391.674 537.747 393.273 549.468 364.147ZM549.468 364.147C557.904 364.665 578.771 366.589 591.425 377.689" stroke="black" stroke-width="3" stroke-linecap="round"/>
<path d="M549.468 364.147C557.904 362.963 580.503 365.745 603.413 386.346C580.547 391.082 537.747 393.273 549.468 364.147Z" fill="white" fill-opacity="0.2"/>
<path d="M549.468 364.147C559.976 356.895 585.698 351.36 604.523 387.235C581.287 391.674 537.747 393.273 549.468 364.147ZM549.468 364.147C557.904 364.665 578.771 366.589 591.425 377.689" stroke="black" stroke-width="3" stroke-linecap="round"/>
<g filter="url(#filter4_f)">
<circle cx="453.919" cy="389.994" r="81.919" fill="#F2DA5B" fill-opacity="0.25"/>
</g>
<path d="M425.342 270.005C395.955 267.922 384.748 303.316 404.032 302.114C431.397 300.407 439.122 280.791 425.342 270.005Z" fill="#D9C24A"/>
<path d="M425.342 270.005L426.266 268.824L425.905 268.541L425.448 268.509L425.342 270.005ZM404.032 302.114L403.938 300.616L404.032 302.114ZM425.448 268.509C410.079 267.419 399.387 276.145 395.084 285.078C392.95 289.508 392.289 294.207 393.694 297.851C394.409 299.703 395.655 301.261 397.46 302.295C399.253 303.322 401.494 303.775 404.125 303.611L403.938 300.616C401.748 300.753 400.122 300.363 398.951 299.692C397.793 299.029 396.981 298.035 396.493 296.771C395.495 294.182 395.856 290.388 397.787 286.38C401.613 278.437 411.218 270.508 425.236 271.501L425.448 268.509ZM404.125 303.611C418.109 302.739 427.459 297.263 431.424 290.198C435.455 283.018 433.674 274.622 426.266 268.824L424.417 271.186C430.789 276.174 432.036 282.979 428.808 288.73C425.515 294.597 417.32 299.782 403.938 300.616L404.125 303.611Z" fill="black"/>
<path d="M422.841 269.805C417.155 270.318 402.632 281.55 401.939 301.663C384.793 298.999 399.17 268.721 422.841 269.805Z" fill="white" fill-opacity="0.25"/>
<path d="M425.342 270.005L426.266 268.824L425.905 268.541L425.448 268.509L425.342 270.005ZM404.032 302.114L403.938 300.616L403.938 300.616L404.032 302.114ZM425.448 268.509C410.079 267.419 399.387 276.145 395.084 285.078C392.95 289.508 392.289 294.207 393.694 297.851C394.409 299.703 395.655 301.261 397.46 302.295C399.253 303.322 401.494 303.775 404.125 303.611L403.938 300.616C401.748 300.753 400.122 300.363 398.951 299.692C397.793 299.029 396.981 298.035 396.493 296.771C395.495 294.182 395.856 290.388 397.787 286.38C401.613 278.437 411.218 270.508 425.236 271.501L425.448 268.509ZM404.125 303.611C418.109 302.739 427.459 297.263 431.424 290.198C435.455 283.018 433.674 274.622 426.266 268.824L424.417 271.186C430.789 276.174 432.036 282.979 428.808 288.73C425.515 294.597 417.32 299.782 403.938 300.616L404.125 303.611Z" fill="black"/>
<path d="M430.193 264.516C422.923 231.204 379.965 230.301 387.589 251.322C398.407 281.154 422.708 283.335 430.193 264.516Z" fill="#D9C24A"/>
<path d="M430.193 264.516L431.586 265.07L431.756 264.644L431.658 264.196L430.193 264.516ZM387.589 251.322L386.178 251.833L387.589 251.322ZM431.658 264.196C427.879 246.879 414.787 237.916 403.55 236.064C397.971 235.145 392.613 235.945 389.095 238.64C387.31 240.007 386.019 241.854 385.473 244.139C384.931 246.409 385.15 248.998 386.178 251.833L388.999 250.811C388.121 248.391 388.015 246.41 388.391 244.836C388.764 243.276 389.635 242.005 390.919 241.022C393.539 239.014 397.945 238.181 403.062 239.024C413.215 240.697 425.237 248.842 428.727 264.836L431.658 264.196ZM386.178 251.833C391.69 267.033 400.772 275.549 409.805 277.625C418.967 279.731 427.601 275.091 431.586 265.07L428.799 263.962C425.3 272.76 418.041 276.44 410.477 274.701C402.782 272.933 394.305 265.443 388.999 250.811L386.178 251.833Z" fill="black"/>
<path d="M430.198 264.84C429.09 258.03 419.053 244.05 387.407 248.851C397.423 279.489 418.197 284.652 430.198 264.84Z" fill="white" fill-opacity="0.25"/>
<path d="M430.193 264.516L431.586 265.07L431.756 264.644L431.658 264.196L430.193 264.516ZM387.589 251.322L388.999 250.811L387.589 251.322ZM431.658 264.196C427.879 246.879 414.787 237.916 403.55 236.064C397.971 235.145 392.613 235.945 389.095 238.64C387.31 240.007 386.019 241.854 385.473 244.139C384.931 246.409 385.15 248.998 386.178 251.833L388.999 250.811C388.121 248.391 388.015 246.41 388.391 244.836C388.764 243.276 389.635 242.005 390.919 241.022C393.539 239.014 397.945 238.181 403.062 239.024C413.215 240.697 425.237 248.842 428.727 264.836L431.658 264.196ZM386.178 251.833C391.69 267.033 400.772 275.549 409.805 277.625C418.967 279.731 427.601 275.091 431.586 265.07L428.799 263.962C425.3 272.76 418.041 276.44 410.477 274.701C402.782 272.933 394.305 265.443 388.999 250.811L386.178 251.833Z" fill="black"/>
<path d="M453.186 410.221C448.759 400.294 432.51 384.874 402.93 402.618C417.857 416.139 448.806 436.59 453.186 410.221Z" fill="#AC9311"/>
<path d="M453.186 410.221C448.759 400.294 432.51 384.874 402.93 402.618C417.857 416.139 448.806 436.59 453.186 410.221ZM453.186 410.221C446.823 406.861 430.799 399.015 416.682 401.48" stroke="black" stroke-width="3" stroke-linecap="round"/>
<path d="M453.186 410.221C447.577 405.623 429.914 397.635 404.131 402.464C418.657 416.037 448.806 436.59 453.186 410.221Z" fill="white" fill-opacity="0.2"/>
<path d="M453.186 410.221C448.759 400.294 432.51 384.874 402.93 402.618C417.857 416.139 448.806 436.59 453.186 410.221ZM453.186 410.221C446.823 406.861 430.799 399.015 416.682 401.48" stroke="black" stroke-width="3" stroke-linecap="round"/>
<path d="M458.527 410.344C462.058 401.008 476.135 386.007 504.197 400.701C491.231 413.891 463.945 434.286 458.527 410.344Z" fill="#AC9311"/>
<path d="M458.527 410.344C462.058 401.008 476.135 386.007 504.197 400.701C491.231 413.891 463.945 434.286 458.527 410.344ZM458.527 410.344C464.182 406.925 478.455 398.88 491.529 400.389" stroke="black" stroke-width="3" stroke-linecap="round"/>
<path d="M458.527 410.345C463.425 405.831 479.194 397.568 503.088 400.624C490.492 413.84 463.946 434.286 458.527 410.345Z" fill="white" fill-opacity="0.2"/>
<path d="M458.527 410.344C462.058 401.008 476.135 386.007 504.197 400.701C491.231 413.891 463.945 434.286 458.527 410.344ZM458.527 410.344C464.182 406.925 478.455 398.88 491.529 400.389" stroke="black" stroke-width="3" stroke-linecap="round"/>
<path d="M452.691 414.061C443.465 401.76 439.123 367.042 450.23 348.05C452.554 349.143 458.513 351.002 463.761 349.69C457.201 355.43 452.691 388.64 465.811 411.191C463.624 413.787 457.939 420.293 452.691 414.061Z" fill="#D9C24A" stroke="black" stroke-width="3"/>
<path d="M448.18 396.225C443.875 378.39 444.948 362.989 451.9 349.497C453.574 349.019 455.809 350.49 458.635 350.51C454.33 350.51 443.875 369.985 448.18 396.225Z" fill="white" fill-opacity="0.3"/>
<path d="M443.847 343.574C442.075 340.197 443.39 333.351 443.39 333.351C449.504 338.199 462.22 340.511 472.462 338.773C472.462 338.773 472.315 343.791 470.843 346.528C467.667 352.432 447.787 351.08 443.847 343.574Z" fill="#AC9311" stroke="black" stroke-width="3"/>
<path d="M448.583 342.687C447.176 339.937 448.211 334.366 448.211 334.366C453.056 338.318 463.126 340.213 471.233 338.808C471.233 338.808 471.122 342.892 469.959 345.119C467.45 349.921 451.709 348.801 448.583 342.687Z" fill="white" fill-opacity="0.15"/>
<path d="M443.847 343.574C442.075 340.197 443.39 333.351 443.39 333.351C449.504 338.199 462.22 340.511 472.462 338.773C472.462 338.773 472.315 343.791 470.843 346.528C467.667 352.432 447.787 351.08 443.847 343.574Z" stroke="black" stroke-width="3"/>
<path d="M524.918 293.092C524.918 304.154 518.834 315.729 508.784 324.58C498.753 333.414 484.893 339.417 469.595 339.417C438.789 339.417 414.273 318.445 414.273 293.092C414.273 267.67 438.869 244.872 469.595 244.872C484.86 244.872 498.712 251.324 508.755 260.631C518.82 269.959 524.918 282.015 524.918 293.092Z" fill="#D9C24A" stroke="black" stroke-width="3"/>
<path d="M442.841 251.658C429.26 256.793 423.427 264.444 416.561 282.437L427.215 282.437C430.056 254.5 465.097 243.609 486.879 248.344C476.224 244.082 462.256 244.319 442.841 251.658Z" fill="#F2DA5B"/>
<path d="M472.436 338.313C496.349 336.892 516 321.503 511.265 318.188C480.96 342.101 429.96 332.426 415.14 289.777C413.957 319.372 441.109 340.174 472.436 338.313Z" fill="#B9A22B"/>
<path d="M524.918 293.092C524.918 304.154 518.834 315.729 508.784 324.58C498.753 333.414 484.893 339.417 469.595 339.417C438.789 339.417 414.273 318.445 414.273 293.092C414.273 267.67 438.869 244.872 469.595 244.872C484.86 244.872 498.712 251.324 508.755 260.631C518.82 269.959 524.918 282.015 524.918 293.092Z" stroke="black" stroke-width="3"/>
<path d="M557.438 279.444C547.244 254.288 518.022 261.947 508.424 282.201C504.454 290.579 501.852 300.905 503.689 314.637C505.526 328.369 514.314 334.886 525.794 335.005C549.233 335.249 567.632 304.6 557.438 279.444Z" fill="#F2DA5B"/>
<path d="M556.512 281.566C547.76 259.968 522.673 266.543 514.433 283.932C511.024 291.125 508.79 299.99 510.367 311.779C511.945 323.569 519.489 329.164 529.345 329.266C549.468 329.475 565.264 303.163 556.512 281.566Z" fill="#D9C24A"/>
<path d="M508.898 281.491C518.496 261.236 547.244 254.288 557.438 279.444C567.632 304.6 549.233 335.249 525.793 335.005C514.314 334.886 506.994 327.422 503.689 315.584" stroke="black" stroke-width="3" stroke-linecap="round"/>
<ellipse cx="536.766" cy="300.3" rx="14.4424" ry="22.9657" transform="rotate(13.3197 536.766 300.3)" fill="#B9A22B"/>
<path d="M522.712 296.972C519.79 309.315 523.713 320.81 531.475 322.648C517.894 310.612 525.471 281.254 542.057 277.952C534.295 276.114 525.634 284.63 522.712 296.972Z" fill="black"/>
<ellipse cx="534.038" cy="300.59" rx="11.3454" ry="18.041" transform="rotate(13.3197 534.038 300.59)" fill="black"/>
<g opacity="0.75">
<rect x="433.121" y="281.891" width="11.2483" height="11.2483" rx="5" transform="rotate(36.1969 433.121 281.891)" fill="black" fill-opacity="0.2"/>
<rect x="439.327" y="295.499" width="11.2483" height="11.2483" rx="5" transform="rotate(36.1969 439.327 295.499)" fill="white" fill-opacity="0.2"/>
<rect x="448.038" y="284.134" width="11.2483" height="11.2483" rx="5" transform="rotate(36.1969 448.038 284.134)" fill="white" fill-opacity="0.2"/>
</g>
<ellipse cx="475.777" cy="271.337" rx="9.42999" ry="14.2339" transform="rotate(-32.924 475.777 271.337)" fill="black"/>
<ellipse cx="474.11" cy="272.148" rx="4.23009" ry="6.05101" transform="rotate(-22.1239 474.11 272.148)" fill="white"/>
<ellipse cx="499.006" cy="268.984" rx="7.09694" ry="10.7124" transform="rotate(-17.5469 499.006 268.984)" fill="black"/>
<ellipse cx="496.047" cy="268.334" rx="2.64308" ry="3.98955" transform="rotate(-11.0559 496.047 268.334)" fill="white"/>
<path d="M478.216 259.386L476.383 254.334C466.747 253.422 455.793 258.546 452.196 260.576L456.622 268.002C462.98 261.437 473.667 259.523 478.216 259.386Z" fill="#AC9311" stroke="black" stroke-width="5"/>
<path d="M486.648 255.567L485.806 250.259C493.796 244.796 505.862 243.977 509.991 244.012L509.714 252.652C500.972 249.986 490.694 253.485 486.648 255.567Z" fill="#AC9311" stroke="black" stroke-width="5"/>
<path d="M457.234 413.196C446.027 405.462 418.595 399.559 398.517 437.819C423.298 442.555 469.735 444.259 457.234 413.196Z" fill="#AC9311"/>
<path d="M457.234 413.196C446.027 405.462 418.595 399.559 398.517 437.819C423.298 442.555 469.735 444.259 457.234 413.196ZM457.234 413.196C448.237 413.749 425.982 415.801 412.486 427.639" stroke="black" stroke-width="3" stroke-linecap="round"/>
<path d="M457.234 413.196C448.237 411.933 424.135 414.901 399.701 436.872C424.087 441.923 469.735 444.259 457.234 413.196Z" fill="white" fill-opacity="0.2"/>
<path d="M457.234 413.196C446.027 405.462 418.595 399.559 398.517 437.819C423.298 442.555 469.735 444.259 457.234 413.196ZM457.234 413.196C448.237 413.749 425.982 415.801 412.486 427.639" stroke="black" stroke-width="3" stroke-linecap="round"/>
<path d="M458.887 413.196C470.094 405.462 497.527 399.559 517.604 437.819C492.823 442.555 446.387 444.259 458.887 413.196Z" fill="#AC9311"/>
<path d="M458.887 413.196C470.094 405.462 497.527 399.559 517.604 437.819C492.823 442.555 446.387 444.259 458.887 413.196ZM458.887 413.196C467.884 413.749 490.14 415.801 503.635 427.639" stroke="black" stroke-width="3" stroke-linecap="round"/>
<path d="M458.888 413.196C467.885 411.933 491.987 414.901 516.42 436.872C492.034 441.923 446.387 444.259 458.888 413.196Z" fill="white" fill-opacity="0.2"/>
<path d="M458.887 413.196C470.094 405.462 497.527 399.559 517.604 437.819C492.823 442.555 446.387 444.259 458.887 413.196ZM458.887 413.196C467.884 413.749 490.14 415.801 503.635 427.639" stroke="black" stroke-width="3" stroke-linecap="round"/>
<g filter="url(#filter5_f)">
<path d="M427.185 267.412C427.185 267.412 426.165 256.709 430.154 252.136C433.097 248.762 435.87 246.96 440.366 246.893C443.579 246.845 445.035 249.723 448.228 249.378C453.093 248.852 452.532 242.18 457.179 240.67C460.648 239.543 463.325 239.099 466.537 240.861C467.758 241.531 469.315 243.098 469.315 243.098" stroke="#F2DA5B" stroke-width="3" stroke-linecap="round"/>
</g>
<path d="M427.185 267.412C427.185 267.412 426.165 256.709 430.154 252.136C433.097 248.762 435.87 246.96 440.366 246.893C443.579 246.845 445.035 249.723 448.228 249.378C453.093 248.852 452.532 242.18 457.179 240.67C460.648 239.543 463.325 239.099 466.537 240.861C467.758 241.531 469.315 243.098 469.315 243.098" stroke="#F2DA5B" stroke-width="3" stroke-linecap="round"/>
<path d="M447.675 249.333C447.675 249.333 449.714 247.608 445.719 246.185C441.717 244.76 439.036 241.426 436.628 244.926C434.22 248.426 430.273 246.176 429.784 249.519C429.295 252.863 429.088 253.45 429.088 253.45" stroke="#F2DA5B" stroke-width="3"/>
<g filter="url(#filter6_f)">
<path d="M463.298 345.485C463.298 345.485 471.036 351.08 471.748 356.422C472.273 360.364 471.85 363.27 469.258 366.308C467.406 368.48 464.633 367.764 462.991 370.096C460.49 373.65 465.269 377.188 463.552 381.173C462.27 384.147 460.997 386.194 457.938 387.304C456.775 387.725 454.817 387.845 454.817 387.845" stroke="#F2DA5B" stroke-width="3" stroke-linecap="round"/>
</g>
<path d="M463.298 345.485C463.298 345.485 471.036 351.08 471.748 356.422C472.273 360.364 471.85 363.27 469.258 366.308C467.406 368.48 464.633 367.764 462.991 370.096C460.49 373.65 465.269 377.188 463.552 381.173C462.27 384.147 460.997 386.194 457.938 387.304C456.775 387.725 454.817 387.845 454.817 387.845" stroke="#F2DA5B" stroke-width="3" stroke-linecap="round"/>
<path d="M463.345 369.753C463.345 369.753 463.3 372.125 466.592 370.294C469.889 368.46 473.685 368.626 472.762 364.968C471.839 361.309 475.654 359.996 473.71 357.709C471.767 355.423 471.496 354.94 471.496 354.94" stroke="#F2DA5B" stroke-width="3"/>
<g filter="url(#filter7_f)">
<path d="M451.945 354.72C451.945 354.72 441.429 352.044 438.748 346.631C437.006 343.116 439.515 340.106 437.675 336.641C436.398 334.237 434.24 333.92 432.926 331.536C430.914 327.886 431.621 320.942 431.621 320.942" stroke="#F2DA5B" stroke-width="3" stroke-linecap="round"/>
</g>
<path d="M438.332 339.162C438.332 339.162 434.763 338.098 433.219 336.48C432.16 335.37 432.197 334.292 431.213 333.117C430.309 332.037 429.155 331.961 428.512 330.711C427.458 328.66 427.789 326.526 429.439 324.838C430.083 324.18 431.427 323.555 431.427 323.555" stroke="#F2DA5B" stroke-width="3" stroke-linecap="round"/>
<path d="M451.945 354.72C451.945 354.72 441.429 352.044 438.748 346.631C437.006 343.116 439.515 340.106 437.675 336.641C436.398 334.237 434.24 333.92 432.926 331.536C430.914 327.886 431.621 320.942 431.621 320.942" stroke="#F2DA5B" stroke-width="3" stroke-linecap="round"/>
<g filter="url(#filter8_f)">
<circle cx="363.84" cy="459.172" r="48.5358" fill="#66CC00" fill-opacity="0.2"/>
</g>
<path d="M301.858 307.882C295.939 315.932 285.522 311.907 286.232 326.586C269.759 300.437 305.173 287.521 319.615 302.673C304.463 300.779 304.463 305.988 304.463 305.988C304.463 305.988 302.805 305.041 302.805 303.62C301.858 304.804 301.148 306.225 301.858 307.882Z" fill="#129345" stroke="black" stroke-width="3" stroke-linejoin="round"/>
<path d="M309.541 319.58C307.753 326.066 300.183 326.117 304.201 335.112C287.421 322.834 306.689 306.045 319.511 311.954C309.463 314.502 310.729 317.756 310.729 317.756C310.729 317.756 309.45 317.572 309.105 316.685C308.793 317.658 308.689 318.72 309.541 319.58Z" fill="#129345" stroke="black" stroke-width="3" stroke-linejoin="round"/>
<path d="M327.84 294.963C321.641 294.643 320.088 287.832 312.783 293.242C320.508 275.68 339.468 289.7 336.695 302.429C332.4 293.882 329.721 295.67 329.721 295.67C329.721 295.67 329.631 294.482 330.362 293.994C329.424 293.907 328.446 294.024 327.84 294.963Z" fill="#129345" stroke="black" stroke-width="3" stroke-linejoin="round"/>
<path d="M286.335 326.823C271.295 302.142 284.315 290.885 303.752 294.623C309.908 295.807 313.327 297.973 317.721 300.272C307.777 296.517 296.446 300.107 293.098 305.751C291.435 305.192 290.407 303.681 290.02 301.726C288.306 304.021 289.11 306.368 290.02 308.355C283.324 311.491 285.288 317.206 286.335 326.823Z" fill="#29CB6A" stroke="black" stroke-width="3" stroke-linejoin="round"/>
<path d="M304.282 335.08C288.779 323.199 294.198 312.92 307.325 310.524C311.483 309.766 314.162 310.295 317.487 310.67C310.319 310.734 304.08 315.767 303.362 320.144C302.18 320.198 301.164 319.497 300.441 318.359C299.927 320.224 301.008 321.507 302.067 322.538C298.63 326.152 301.266 329.274 304.282 335.08Z" fill="#29CB6A" stroke="black" stroke-width="3" stroke-linejoin="round"/>
<path d="M312.828 293.309C320.449 276.976 330.788 279.813 335.559 291.165C337.07 294.76 337.126 297.279 337.449 300.349C335.965 293.903 330.19 289.284 326.103 289.508C325.819 288.453 326.248 287.398 327.13 286.521C325.347 286.429 324.406 287.658 323.688 288.818C319.748 286.44 317.459 289.436 312.828 293.309Z" fill="#29CB6A" stroke="black" stroke-width="3" stroke-linejoin="round"/>
<path d="M306.357 298.885C320.326 296.648 328.084 304.801 331.453 310.246L328.183 314.038C321.998 302.604 311.213 298.107 306.357 298.885Z" fill="#1A7156" stroke="black" stroke-width="3"/>
<path d="M310.163 312.741C318.461 307.901 325.355 311.087 328.812 313.66L327.664 316.835C320.968 311.212 313.048 311.058 310.163 312.741Z" fill="#1A7156" stroke="black" stroke-width="3"/>
<path d="M334.127 294.162C340.138 300.676 338.64 307.522 337.01 311.149L333.92 310.746C337.654 303.594 336.217 296.427 334.127 294.162Z" fill="#1A7156" stroke="black" stroke-width="3"/>
<path d="M337.627 460.195C345.007 449.947 359.939 452.696 359.76 462.641C359.495 477.389 342.771 481.227 330.791 477.263C317.614 472.902 311.668 455.483 311.668 455.483C321.951 461.619 332.562 467.228 337.627 460.195Z" fill="#1A7156"/>
<path d="M359.76 462.641C359.939 452.696 345.007 449.947 337.627 460.195C332.562 467.228 321.951 461.619 311.668 455.483M359.76 462.641C359.495 477.389 342.771 481.227 330.791 477.263C317.614 472.902 311.668 455.483 311.668 455.483M359.76 462.641C354.195 460.41 351.016 459.766 345.972 462.987C333.508 470.946 327.159 473.608 311.668 455.483" stroke="black" stroke-width="3" stroke-linecap="round" stroke-linejoin="round"/>
<path d="M330.791 477.263C317.613 472.903 311.674 455.47 311.674 455.47C327.16 473.606 333.511 470.939 345.98 462.969C351.026 459.743 354.205 460.386 359.77 462.617C359.5 477.379 342.771 481.227 330.791 477.263Z" fill="white" fill-opacity="0.2" stroke="black" stroke-width="3" stroke-linecap="round" stroke-linejoin="round"/>
<path d="M386.018 458.239C377.859 447.689 362.199 451.13 362.747 461.619C363.559 477.175 381.348 480.622 393.849 476.005C407.598 470.927 413.244 452.329 413.244 452.329C402.614 459.176 391.617 465.478 386.018 458.239Z" fill="#1A7156"/>
<path d="M362.747 461.619C362.199 451.13 377.859 447.689 386.018 458.239C391.617 465.478 402.614 459.176 413.244 452.329M362.747 461.619C363.559 477.175 381.348 480.622 393.849 476.005C407.598 470.927 413.244 452.329 413.244 452.329M362.747 461.619C368.54 459.064 371.871 458.269 377.311 461.487C390.753 469.437 397.55 472.016 413.244 452.329" stroke="black" stroke-width="3" stroke-linecap="round" stroke-linejoin="round"/>
<path d="M393.849 476.005C407.599 470.928 413.238 452.316 413.238 452.316C397.549 472.014 390.749 469.43 377.303 461.467C371.861 458.245 368.529 459.039 362.736 461.594C363.554 477.164 381.348 480.621 393.849 476.005Z" fill="white" fill-opacity="0.2" stroke="black" stroke-width="3" stroke-linecap="round" stroke-linejoin="round"/>
<path d="M356.218 464.061C346.993 451.76 342.651 417.042 353.758 398.05C356.082 399.143 362.04 401.002 367.288 399.69C360.728 405.43 356.218 438.64 369.339 461.191C367.152 463.787 361.466 470.293 356.218 464.061Z" fill="#29CB6A" stroke="black" stroke-width="3"/>
<path d="M351.708 446.225C347.403 428.39 348.476 412.989 355.428 399.497C357.102 399.019 359.337 400.49 362.163 400.51C357.858 400.51 347.403 419.985 351.708 446.225Z" fill="white" fill-opacity="0.3"/>
<path d="M347.376 393.574C345.603 390.197 346.918 383.351 346.918 383.351C353.032 388.199 365.748 390.511 375.99 388.773C375.99 388.773 375.844 393.791 374.371 396.528C371.196 402.432 351.315 401.08 347.376 393.574Z" fill="#14523F" stroke="black" stroke-width="3"/>
<path d="M352.111 392.687C350.704 389.937 351.739 384.366 351.739 384.366C356.584 388.318 366.654 390.213 374.761 388.808C374.761 388.808 374.65 392.892 373.487 395.119C370.978 399.921 355.237 398.801 352.111 392.687Z" fill="white" fill-opacity="0.15"/>
<path d="M347.376 393.574C345.603 390.197 346.918 383.351 346.918 383.351C353.032 388.199 365.748 390.511 375.99 388.773C375.99 388.773 375.844 393.791 374.371 396.528C371.196 402.432 351.315 401.08 347.376 393.574Z" stroke="black" stroke-width="3"/>
<path d="M428.446 343.092C428.446 354.154 422.362 365.729 412.311 374.58C402.281 383.414 388.421 389.417 373.123 389.417C342.317 389.417 317.801 368.445 317.801 343.092C317.801 317.67 342.397 294.872 373.123 294.872C388.388 294.872 402.24 301.324 412.283 310.631C422.348 319.959 428.446 332.015 428.446 343.092Z" fill="#29CB6A" stroke="black" stroke-width="3"/>
<path d="M346.369 301.658C332.788 306.793 326.955 314.444 320.089 332.437L330.743 332.437C333.584 304.5 368.625 293.609 390.407 298.344C379.752 294.082 365.783 294.319 346.369 301.658Z" fill="#3ED87B"/>
<path d="M375.964 388.313C399.877 386.892 419.528 371.503 414.793 368.188C384.488 392.101 333.487 382.426 318.668 339.777C317.484 369.372 344.637 390.174 375.964 388.313Z" fill="#1CAE56"/>
<path d="M428.446 343.092C428.446 354.154 422.362 365.729 412.311 374.58C402.281 383.414 388.421 389.417 373.123 389.417C342.317 389.417 317.801 368.445 317.801 343.092C317.801 317.67 342.397 294.872 373.123 294.872C388.388 294.872 402.24 301.324 412.283 310.631C422.348 319.959 428.446 332.015 428.446 343.092Z" stroke="black" stroke-width="3"/>
<path d="M460.966 329.444C450.772 304.288 421.55 311.947 411.952 332.201C407.982 340.579 405.379 350.905 407.217 364.637C409.054 378.369 417.842 384.886 429.321 385.005C452.761 385.249 471.16 354.6 460.966 329.444Z" fill="#41EF86"/>
<path d="M460.04 331.566C451.288 309.968 426.201 316.543 417.96 333.932C414.552 341.125 412.318 349.99 413.895 361.779C415.473 373.569 423.017 379.164 432.872 379.266C452.995 379.475 468.792 353.163 460.04 331.566Z" fill="#39E17C"/>
<path d="M412.425 331.491C422.024 311.236 450.772 304.288 460.966 329.444C471.16 354.6 452.76 385.249 429.321 385.005C417.841 384.886 410.522 377.422 407.217 365.584" stroke="black" stroke-width="3" stroke-linecap="round"/>
<ellipse cx="440.293" cy="350.3" rx="14.4424" ry="22.9657" transform="rotate(13.3197 440.293 350.3)" fill="#3AC271"/>
<path d="M426.24 346.972C423.317 359.315 427.241 370.81 435.002 372.648C421.422 360.612 428.998 331.254 445.584 327.952C437.823 326.114 429.162 334.63 426.24 346.972Z" fill="black"/>
<ellipse cx="437.566" cy="350.59" rx="11.3454" ry="18.041" transform="rotate(13.3197 437.566 350.59)" fill="black"/>
<g opacity="0.75">
<path d="M353.823 361.115C350.128 359.021 348.015 355.375 345.033 357.545C344.003 358.296 342.868 360.256 342.541 361.472C341.375 365.804 347.758 368.559 352.161 369.618C356.36 370.628 359.225 369.918 359.549 365.652C359.806 362.266 356.802 362.803 353.823 361.115Z" fill="#1CAE56" fill-opacity="0.5"/>
<path d="M335.725 342.949C339.393 343.148 341.571 346.38 343.044 343.551C343.553 342.573 343.677 340.618 343.463 339.55C342.698 335.746 339.371 333.89 335.553 334.765C331.911 335.599 327.288 339.433 328.68 342.862C329.784 345.583 332.768 342.788 335.725 342.949Z" fill="#1CAE56" fill-opacity="0.5"/>
<path d="M364.905 369.797C365.84 371.983 365.531 374.348 367.616 374.355C368.337 374.357 369.522 373.843 370.088 373.399C372.105 371.816 370.192 368.432 368.582 366.481C367.047 364.62 365.517 363.987 363.901 365.821C362.618 367.277 364.151 368.035 364.905 369.797Z" fill="white" fill-opacity="0.4"/>
<path d="M339.367 351.231C338.75 348.788 339.466 346.364 337.284 346.011C336.53 345.889 335.205 346.23 334.538 346.601C332.164 347.924 333.606 351.783 334.967 354.092C336.265 356.295 337.762 357.211 339.758 355.559C341.342 354.249 339.863 353.201 339.367 351.231Z" fill="white" fill-opacity="0.4"/>
</g>
<ellipse cx="379.305" cy="321.337" rx="9.42999" ry="14.2339" transform="rotate(-32.924 379.305 321.337)" fill="black"/>
<ellipse cx="376.937" cy="319.172" rx="4.86552" ry="6.95999" transform="rotate(-22.1239 376.937 319.172)" fill="white"/>
<ellipse cx="402.534" cy="318.984" rx="7.09694" ry="10.7124" transform="rotate(-17.5469 402.534 318.984)" fill="black"/>
<ellipse cx="400.049" cy="316.914" rx="2.64308" ry="3.98955" transform="rotate(-11.0559 400.049 316.914)" fill="white"/>
<path d="M335.059 473.352C338.776 458.37 356.968 454.704 361.284 466.069C367.685 482.923 350.454 494.878 335.059 495.824C318.127 496.864 303.466 479.802 303.466 479.802C317.92 482.091 332.509 483.633 335.059 473.352Z" fill="#1A7156"/>
<path d="M361.284 466.069C356.968 454.704 338.776 458.37 335.059 473.352C332.509 483.633 317.92 482.091 303.466 479.802M361.284 466.069C367.685 482.923 350.454 494.878 335.059 495.824C318.127 496.864 303.466 479.802 303.466 479.802M361.284 466.069C353.955 466.067 350.057 466.781 345.797 472.727C335.272 487.422 329.278 493.327 303.466 479.802" stroke="black" stroke-width="3" stroke-linecap="round" stroke-linejoin="round"/>
<path d="M335.059 495.824C318.127 496.865 303.466 479.785 303.466 479.785C329.278 493.324 335.272 487.413 345.797 472.703C350.057 466.75 353.955 466.035 361.284 466.038C367.685 482.91 350.454 494.877 335.059 495.824Z" fill="white" fill-opacity="0.2" stroke="black" stroke-width="3" stroke-linecap="round" stroke-linejoin="round"/>
<path d="M388.832 473.352C385.115 458.37 366.923 454.704 362.607 466.069C356.206 482.923 373.437 494.878 388.832 495.824C405.764 496.864 420.425 479.802 420.425 479.802C405.971 482.091 391.383 483.633 388.832 473.352Z" fill="#1A7156"/>
<path d="M362.607 466.069C366.923 454.704 385.115 458.37 388.832 473.352C391.383 483.633 405.971 482.091 420.425 479.802M362.607 466.069C356.206 482.923 373.437 494.878 388.832 495.824C405.764 496.864 420.425 479.802 420.425 479.802M362.607 466.069C369.936 466.067 373.835 466.781 378.094 472.727C388.619 487.422 394.614 493.327 420.425 479.802" stroke="black" stroke-width="3" stroke-linecap="round" stroke-linejoin="round"/>
<path d="M388.832 495.824C405.764 496.865 420.425 479.785 420.425 479.785C394.614 493.324 388.619 487.413 378.094 472.703C373.835 466.75 369.936 466.035 362.607 466.038C356.206 482.91 373.437 494.877 388.832 495.824Z" fill="white" fill-opacity="0.2" stroke="black" stroke-width="3" stroke-linecap="round" stroke-linejoin="round"/>
<defs>
<filter id="filter0_f" x="0" y="0" width="720" height="720" filterUnits="userSpaceOnUse" color-interpolation-filters="sRGB">
<feFlood flood-opacity="0" result="BackgroundImageFix"/>
<feBlend mode="normal" in="SourceGraphic" in2="BackgroundImageFix" result="shape"/>
<feGaussianBlur stdDeviation="100" result="effect1_foregroundBlur"/>
</filter>
<filter id="filter1_f" x="39.4429" y="186.075" width="463.838" height="463.838" filterUnits="userSpaceOnUse" color-interpolation-filters="sRGB">
<feFlood flood-opacity="0" result="BackgroundImageFix"/>
<feBlend mode="normal" in="SourceGraphic" in2="BackgroundImageFix" result="shape"/>
<feGaussianBlur stdDeviation="75" result="effect1_foregroundBlur"/>
</filter>
<filter id="filter2_f" x="318" y="115.582" width="453.62" height="453.62" filterUnits="userSpaceOnUse" color-interpolation-filters="sRGB">
<feFlood flood-opacity="0" result="BackgroundImageFix"/>
<feBlend mode="normal" in="SourceGraphic" in2="BackgroundImageFix" result="shape"/>
<feGaussianBlur stdDeviation="75" result="effect1_foregroundBlur"/>
</filter>
<filter id="filter3_f" x="421.996" y="284.844" width="254.064" height="165.71" filterUnits="userSpaceOnUse" color-interpolation-filters="sRGB">
<feFlood flood-opacity="0" result="BackgroundImageFix"/>
<feBlend mode="normal" in="SourceGraphic" in2="BackgroundImageFix" result="shape"/>
<feGaussianBlur stdDeviation="25" result="effect1_foregroundBlur"/>
</filter>
<filter id="filter4_f" x="222" y="158.075" width="463.838" height="463.838" filterUnits="userSpaceOnUse" color-interpolation-filters="sRGB">
<feFlood flood-opacity="0" result="BackgroundImageFix"/>
<feBlend mode="normal" in="SourceGraphic" in2="BackgroundImageFix" result="shape"/>
<feGaussianBlur stdDeviation="75" result="effect1_foregroundBlur"/>
</filter>
<filter id="filter5_f" x="410.568" y="223.18" width="75.2468" height="60.7321" filterUnits="userSpaceOnUse" color-interpolation-filters="sRGB">
<feFlood flood-opacity="0" result="BackgroundImageFix"/>
<feBlend mode="normal" in="SourceGraphic" in2="BackgroundImageFix" result="shape"/>
<feGaussianBlur stdDeviation="7.5" result="effect1_foregroundBlur"/>
</filter>
<filter id="filter6_f" x="438.317" y="328.985" width="50.1286" height="75.3595" filterUnits="userSpaceOnUse" color-interpolation-filters="sRGB">
<feFlood flood-opacity="0" result="BackgroundImageFix"/>
<feBlend mode="normal" in="SourceGraphic" in2="BackgroundImageFix" result="shape"/>
<feGaussianBlur stdDeviation="7.5" result="effect1_foregroundBlur"/>
</filter>
<filter id="filter7_f" x="415" y="304.442" width="53.445" height="66.7785" filterUnits="userSpaceOnUse" color-interpolation-filters="sRGB">
<feFlood flood-opacity="0" result="BackgroundImageFix"/>
<feBlend mode="normal" in="SourceGraphic" in2="BackgroundImageFix" result="shape"/>
<feGaussianBlur stdDeviation="7.5" result="effect1_foregroundBlur"/>
</filter>
<filter id="filter8_f" x="240.304" y="335.636" width="247.072" height="247.072" filterUnits="userSpaceOnUse" color-interpolation-filters="sRGB">
<feFlood flood-opacity="0" result="BackgroundImageFix"/>
<feBlend mode="normal" in="SourceGraphic" in2="BackgroundImageFix" result="shape"/>
<feGaussianBlur stdDeviation="37.5" result="effect1_foregroundBlur"/>
</filter>
</defs>
</svg>
