<svg width="187" height="74" viewBox="0 0 187 74" fill="none" xmlns="http://www.w3.org/2000/svg">
<rect width="187" height="74" rx="7" fill="#29CB6A" fill-opacity="0.41"/>
<rect x="5" y="5" width="177" height="64" rx="5" fill="#29CB6A"/>
<path d="M42.6426 39.2695C42.6426 38.7161 42.4473 38.293 42.0566 38C41.666 37.7005 40.9629 37.388 39.9473 37.0625C38.9316 36.7305 38.1276 36.4049 37.5352 36.0859C35.9206 35.2135 35.1133 34.0384 35.1133 32.5605C35.1133 31.7923 35.3281 31.1087 35.7578 30.5098C36.194 29.9043 36.8158 29.4323 37.623 29.0938C38.4368 28.7552 39.3483 28.5859 40.3574 28.5859C41.373 28.5859 42.278 28.7715 43.0723 29.1426C43.8665 29.5072 44.4818 30.0247 44.918 30.6953C45.3607 31.3659 45.582 32.1276 45.582 32.9805H42.6523C42.6523 32.3294 42.4473 31.8249 42.0371 31.4668C41.627 31.1022 41.0508 30.9199 40.3086 30.9199C39.5924 30.9199 39.0358 31.0729 38.6387 31.3789C38.2415 31.6784 38.043 32.0755 38.043 32.5703C38.043 33.0326 38.2741 33.4199 38.7363 33.7324C39.2051 34.0449 39.8919 34.3379 40.7969 34.6113C42.4635 35.1126 43.6777 35.7344 44.4395 36.4766C45.2012 37.2188 45.582 38.1432 45.582 39.25C45.582 40.4805 45.1165 41.4473 44.1855 42.1504C43.2546 42.847 42.0013 43.1953 40.4258 43.1953C39.332 43.1953 38.3359 42.9967 37.4375 42.5996C36.5391 42.196 35.8522 41.6458 35.377 40.9492C34.9082 40.2526 34.6738 39.4453 34.6738 38.5273H37.6133C37.6133 40.0964 38.5508 40.8809 40.4258 40.8809C41.1224 40.8809 41.666 40.7409 42.0566 40.4609C42.4473 40.1745 42.6426 39.7773 42.6426 39.2695ZM50.7676 29.8359V32.4336H52.5742V34.5039H50.7676V39.7773C50.7676 40.168 50.8424 40.4479 50.9922 40.6172C51.1419 40.7865 51.4284 40.8711 51.8516 40.8711C52.1641 40.8711 52.4408 40.8483 52.6816 40.8027V42.9414C52.1283 43.1107 51.5586 43.1953 50.9727 43.1953C48.9935 43.1953 47.9844 42.196 47.9453 40.1973V34.5039H46.4023V32.4336H47.9453V29.8359H50.7676ZM60.2695 43C60.1393 42.7461 60.0449 42.4303 59.9863 42.0527C59.3027 42.8145 58.4141 43.1953 57.3203 43.1953C56.2852 43.1953 55.4258 42.8958 54.7422 42.2969C54.0651 41.6979 53.7266 40.9427 53.7266 40.0312C53.7266 38.9115 54.14 38.0521 54.9668 37.4531C55.8001 36.8542 57.0013 36.5514 58.5703 36.5449H59.8691V35.9395C59.8691 35.4512 59.7422 35.0605 59.4883 34.7676C59.2409 34.4746 58.847 34.3281 58.3066 34.3281C57.8314 34.3281 57.457 34.4421 57.1836 34.6699C56.9167 34.8978 56.7832 35.2103 56.7832 35.6074H53.9609C53.9609 34.9954 54.1497 34.429 54.5273 33.9082C54.9049 33.3874 55.4388 32.9805 56.1289 32.6875C56.819 32.388 57.5938 32.2383 58.4531 32.2383C59.7552 32.2383 60.7871 32.5671 61.5488 33.2246C62.3171 33.8757 62.7012 34.7936 62.7012 35.9785V40.5586C62.7077 41.5612 62.8477 42.3197 63.1211 42.834V43H60.2695ZM57.9355 41.0371C58.3522 41.0371 58.7363 40.946 59.0879 40.7637C59.4395 40.5749 59.6999 40.3242 59.8691 40.0117V38.1953H58.8145C57.4017 38.1953 56.6497 38.6836 56.5586 39.6602L56.5488 39.8262C56.5488 40.1777 56.6725 40.4674 56.9199 40.6953C57.1673 40.9232 57.5059 41.0371 57.9355 41.0371ZM70.8066 35.0801C70.4225 35.028 70.084 35.002 69.791 35.002C68.7233 35.002 68.0234 35.3633 67.6914 36.0859V43H64.8691V32.4336H67.5352L67.6133 33.6934C68.1797 32.7233 68.9642 32.2383 69.9668 32.2383C70.2793 32.2383 70.5723 32.2806 70.8457 32.3652L70.8066 35.0801ZM76.041 29.8359V32.4336H77.8477V34.5039H76.041V39.7773C76.041 40.168 76.1159 40.4479 76.2656 40.6172C76.4154 40.7865 76.7018 40.8711 77.125 40.8711C77.4375 40.8711 77.7142 40.8483 77.9551 40.8027V42.9414C77.4017 43.1107 76.832 43.1953 76.2461 43.1953C74.2669 43.1953 73.2578 42.196 73.2188 40.1973V34.5039H71.6758V32.4336H73.2188V29.8359H76.041ZM96.1484 43H93.2188L87.5156 33.6445V43H84.5859V28.7812H87.5156L93.2285 38.1562V28.7812H96.1484V43ZM98.082 37.6191C98.082 36.571 98.2839 35.6367 98.6875 34.8164C99.0911 33.9961 99.6706 33.3613 100.426 32.9121C101.188 32.4629 102.07 32.2383 103.072 32.2383C104.498 32.2383 105.66 32.6745 106.559 33.5469C107.464 34.4193 107.968 35.6042 108.072 37.1016L108.092 37.8242C108.092 39.4453 107.639 40.7474 106.734 41.7305C105.829 42.707 104.615 43.1953 103.092 43.1953C101.568 43.1953 100.351 42.707 99.4395 41.7305C98.5345 40.7539 98.082 39.4258 98.082 37.7461V37.6191ZM100.904 37.8242C100.904 38.8268 101.093 39.5951 101.471 40.1289C101.848 40.6562 102.389 40.9199 103.092 40.9199C103.775 40.9199 104.309 40.6595 104.693 40.1387C105.077 39.6113 105.27 38.7715 105.27 37.6191C105.27 36.6361 105.077 35.8743 104.693 35.334C104.309 34.7936 103.769 34.5234 103.072 34.5234C102.382 34.5234 101.848 34.7936 101.471 35.334C101.093 35.8678 100.904 36.6979 100.904 37.8242ZM119.02 39.1621L120.406 32.4336H123.131L120.436 43H118.072L116.07 36.3496L114.068 43H111.715L109.02 32.4336H111.744L113.121 39.1523L115.055 32.4336H117.096L119.02 39.1621Z" fill="white"/>
<rect width="13.9882" height="1.74852" rx="0.87426" transform="matrix(-0.752794 0.658257 0.752794 0.658257 151.873 35.8618)" fill="white" stroke="white" stroke-width="2"/>
<rect width="13.9882" height="1.74852" rx="0.87426" transform="matrix(-0.752794 -0.658257 -0.752794 0.658257 153.213 36.9507)" fill="white" stroke="white" stroke-width="2"/>
</svg>
