<svg width="248" height="208" viewBox="0 0 248 208" fill="none" xmlns="http://www.w3.org/2000/svg">
<path d="M107.048 8.38052C106.83 3.81801 110.471 0 115.038 0H131.659C136.077 0 139.659 3.58172 139.659 8V195.522H115.959L107.048 8.38052Z" fill="#563E2D"/>
<path d="M113.819 8.38052C113.601 3.81801 117.242 0 121.81 0H138.43C142.848 0 146.43 3.58172 146.43 8V195.522H122.73L113.819 8.38052Z" fill="#755742"/>
<path d="M113.775 8.34012C113.581 3.7925 117.216 0 121.767 0H138.43C142.848 0 146.43 3.58172 146.43 8V90.5666L117.652 99.4539L113.775 8.34012Z" fill="black" fill-opacity="0.25"/>
<path d="M0 25.7749C0 21.3566 3.58172 17.7749 8 17.7749H234.922C239.34 17.7749 242.922 21.3566 242.922 25.7749V52.4439C242.922 55.98 240.6 59.0966 237.212 60.109L231.591 61.7886L237.488 63.1101C240.664 63.8219 242.922 66.6413 242.922 69.8962C242.922 73.6381 239.961 76.7092 236.221 76.846L8.29248 85.1848C3.76255 85.3506 0 81.7231 0 77.1902V74.2821C0 70.6581 2.43618 67.4867 5.93774 66.5525L6.34496 66.4438L5.46905 66.1517C2.20289 65.0625 0 62.0056 0 58.5626V49.6984C0 45.8973 2.6747 42.621 6.39892 41.8603L29.0056 37.2425L6.95842 34.3474C2.97694 33.8245 0 30.4311 0 26.4154V25.7749Z" fill="#563E2D"/>
<path d="M8.01278 14.3892L1.69287 20.3141L15.2355 22.0069L8.01278 14.3892Z" fill="#563E2D"/>
<path d="M7.8059 38.9351L2.53931 43.7463L14.3891 46.5528L7.8059 38.9351Z" fill="#563E2D"/>
<path d="M5.07861 20.6963C5.07861 16.278 8.66034 12.6963 13.0786 12.6963H240C244.418 12.6963 248 16.278 248 20.6963V47.3653C248 50.9013 245.679 54.018 242.291 55.0304L236.67 56.7099L242.567 58.0315C245.743 58.7433 248 61.5627 248 64.8176C248 68.5595 245.039 71.6305 241.3 71.7674L13.3711 80.1062C8.84116 80.2719 5.07861 76.6445 5.07861 72.1116V69.2035C5.07861 65.5795 7.5148 62.4081 11.0164 61.4739L11.4236 61.3652L10.5477 61.0731C7.2815 59.9838 5.07861 56.927 5.07861 53.484V44.6198C5.07861 40.8187 7.75331 37.5424 11.4775 36.7817L34.0842 32.1639L12.037 29.2687C8.05555 28.7459 5.07861 25.3525 5.07861 21.3368V20.6963Z" fill="#755842"/>
<path d="M51.0923 54.1139C50.1937 54.149 49.2848 54.083 48.3656 53.9161C47.4585 53.736 46.7067 53.4738 46.1101 53.1295C45.9405 52.6798 45.8088 52.2286 45.715 51.7759C45.6213 51.3232 45.5009 50.6751 45.3539 49.8315L45.3517 49.7746C45.371 49.6217 45.4489 49.5046 45.5851 49.4232C46.0775 49.6955 46.5481 49.899 46.997 50.0336C47.4455 50.1555 47.9355 50.2061 48.4671 50.1853L48.9227 50.1675L49.2272 50.1746C49.5183 50.1633 49.814 50.1074 50.1144 50.0069C50.2764 49.9372 50.3856 49.8125 50.442 49.6328L49.4165 49.1785C48.6301 48.8416 47.9186 48.4764 47.2821 48.0829C46.6183 47.6398 46.1331 47.063 45.8265 46.3524C45.672 45.9655 45.5855 45.5379 45.5672 45.0696C45.5228 43.9304 45.835 42.9992 46.504 42.2759C47.0873 41.632 47.8927 41.1568 48.9202 40.8505C49.8104 40.6003 50.7935 40.4541 51.8693 40.4121C52.5022 40.3874 53.3782 40.4229 54.4975 40.5187C54.6124 40.5395 54.7716 40.5587 54.9751 40.5761L55.5491 40.6677C55.9824 40.7269 56.3003 40.7525 56.5028 40.7446C56.5155 40.7441 56.5352 40.7623 56.562 40.7993C56.6015 40.8358 56.6343 40.8662 56.6606 40.8905C56.7147 40.9772 56.7671 41.0195 56.8177 41.0175L56.8367 41.0168L56.8557 41.016L56.9092 41.4132C56.9166 41.6031 56.9435 41.8049 56.9899 42.0185C57.0402 42.3335 57.0726 42.6745 57.0869 43.0415C57.0992 43.358 57.0892 43.5865 57.0566 43.7272C57.0032 43.9829 56.8965 44.1708 56.7364 44.2912L54.9618 44.1323L54.772 44.1397L54.5062 44.1501C54.0758 44.1669 53.5839 44.2305 53.0305 44.3408L52.4092 44.4982C52.2583 44.5294 52.1833 44.5577 52.1843 44.583C52.1962 44.8868 52.4035 45.1639 52.8062 45.4144C53 45.5082 53.1933 45.5894 53.3862 45.6579C53.5785 45.7138 53.7005 45.7534 53.7521 45.7767C54.6991 46.006 55.5272 46.4363 56.2363 47.0678C56.5646 47.3592 56.824 47.6723 57.0146 48.0071C57.2051 48.342 57.3066 48.6676 57.3189 48.984C57.3263 49.1739 57.3089 49.3774 57.2667 49.5945C57.2152 50.5473 56.8866 51.384 56.2809 52.1049C55.6849 52.7493 54.9243 53.2354 53.9991 53.563C53.2004 53.8858 52.2315 54.0694 51.0923 54.1139ZM65.0065 53.1712L64.1332 53.2054L63.1459 53.2439L61.8929 53.2928C61.7721 53.1201 61.6835 52.8003 61.6273 52.3335C61.5603 51.9178 61.5113 51.3112 61.4802 50.5138L61.4176 48.4247C61.4105 47.9179 61.3854 47.1139 61.3424 46.0128L61.2832 45.958L59.4037 46.0314C59.1252 46.0423 58.9293 45.733 58.816 45.1036C58.7521 44.7639 58.7072 44.2649 58.6815 43.6068L58.6719 43.3599C58.6937 43.2704 58.701 43.1306 58.6935 42.9408L58.6787 42.5611L58.6918 42.4084L58.7647 42.3295L59.1072 42.3352L59.4869 42.3203C60.0438 42.2986 60.4676 42.2757 60.7582 42.2517L61.9923 42.2035L62.334 42.1902L62.9795 42.165L63.7959 42.1331L64.6123 42.1012C64.7773 42.1074 65.0117 42.1046 65.3155 42.0928L65.7901 42.0742C65.8398 42.0469 65.9216 42.0311 66.0355 42.0266C66.1231 41.9978 66.2049 41.982 66.2808 41.979C66.5213 41.9696 66.7053 41.9751 66.8329 41.9955C67.087 42.0109 67.2773 42.0162 67.4039 42.0112L67.8968 41.9729L68.6372 41.944C69.0169 41.9292 69.2767 41.9254 69.4164 41.9326L69.6829 41.9412C69.6961 41.9534 69.7158 41.9716 69.7421 41.996C69.7679 42.0076 69.7811 42.0198 69.7815 42.0325L69.9076 45.26C69.9105 45.3359 69.8695 45.4199 69.7843 45.512C69.7118 45.6036 69.6381 45.6635 69.5632 45.6918C69.142 45.6195 68.596 45.5964 67.9252 45.6226L67.2038 45.6508C67.0139 45.6582 66.8967 45.9036 66.8522 46.3871C66.8323 46.5273 66.8276 46.7303 66.838 46.9961L66.8602 47.5657C66.8701 47.8188 66.8838 48.0084 66.9014 48.1345L66.9222 48.6661C66.9425 49.185 66.9359 49.667 66.9026 50.1119C66.8901 50.442 66.8869 50.683 66.8928 50.8349C66.8734 50.9877 66.8689 51.1971 66.8793 51.4629C66.8941 51.8426 66.8938 52.1595 66.8784 52.4136C66.8811 52.8065 66.7437 53.021 66.4662 53.0572C66.1639 53.107 65.9874 53.1329 65.9368 53.1349L65.0065 53.1712ZM72.0737 52.8573C71.8333 52.8667 71.7299 52.6552 71.7638 52.2229C71.7578 52.071 71.7828 51.8989 71.8387 51.7066C71.8352 51.618 71.8388 51.5481 71.8495 51.497C71.8597 51.4332 71.864 51.3823 71.8625 51.3443C72.0998 49.9534 72.3694 48.5801 72.6714 47.2247L73.7652 42.1241C73.7643 42.0988 73.782 42.0664 73.8185 42.0269C73.855 41.9875 73.8917 41.9544 73.9287 41.9276L74.0616 41.9224C74.2135 41.9164 74.333 41.8928 74.4201 41.8513C74.4955 41.8357 74.6282 41.8242 74.8181 41.8168C75.1218 41.8049 75.3499 41.8023 75.5023 41.8091C75.7316 41.8381 75.9665 41.848 76.207 41.8386L77.1935 41.7811C77.2937 41.7518 77.4135 41.7344 77.5527 41.729L78.3866 41.6584L79.0131 41.634C79.2536 41.6246 79.488 41.6217 79.7163 41.6255L80.2479 41.6048C80.375 41.6125 80.5588 41.6116 80.7992 41.6022L81.5207 41.5741C81.5587 41.5726 81.5969 41.5774 81.6353 41.5886C81.6738 41.5998 81.7059 41.6112 81.7318 41.6229C81.7834 41.6462 81.8471 41.6564 81.9231 41.6534L82.094 41.6468C82.185 41.7066 82.2318 41.7681 82.2343 41.8314L83.778 46.791C84.2584 48.3821 84.6406 49.7299 84.9246 50.8343C84.9271 50.8976 84.9507 51.0171 84.9956 51.1928C85.0562 51.444 85.0894 51.6455 85.0953 51.7974C85.0988 51.886 85.0908 52.0067 85.0714 52.1596C85.0131 52.2886 84.9269 52.3554 84.813 52.3598L84.6042 52.368C84.4397 52.3744 84.3128 52.373 84.2237 52.3638L83.8061 52.3801L83.4074 52.3957L83.0846 52.4083C82.996 52.4118 82.9451 52.4074 82.932 52.3952L81.8878 52.436L81.8673 52.3988C81.841 52.3745 81.8025 52.3633 81.7519 52.3653L81.6964 52.4055C81.6974 52.4308 81.6853 52.4439 81.66 52.4449L81.603 52.4471L81.4701 52.4523C81.4058 52.4295 81.2914 52.4213 81.1269 52.4277C80.8221 52.4142 80.5685 52.4115 80.366 52.4194C80.2154 52.1337 80.0259 51.501 79.7975 50.5211C79.5332 50.5695 79.2301 50.6003 78.8884 50.6137L78.3948 50.6329L77.9201 50.6515C77.8769 50.8433 77.8514 51.0027 77.8437 51.1298C77.8335 51.1936 77.7913 51.4107 77.7171 51.7813C77.6428 52.1518 77.5702 52.4018 77.4992 52.5313L77.3867 52.5737C77.3492 52.5879 77.3181 52.6018 77.2933 52.6154C77.268 52.6164 77.2553 52.6169 77.2553 52.6169L77.2173 52.6184C77.1414 52.6214 77.0903 52.6107 77.064 52.5863C77.0124 52.563 76.9802 52.5516 76.9676 52.5521L76.2476 52.6182L75.716 52.639C75.6532 52.6541 75.6031 52.6687 75.5656 52.6829C75.5276 52.6844 75.5023 52.6854 75.4897 52.6858L73.9708 52.7452L73.8189 52.7511C73.7055 52.7682 73.4716 52.7837 73.1172 52.7975L72.6616 52.8153C72.5861 52.8309 72.4661 52.8419 72.3016 52.8484L72.0737 52.8573ZM79.5473 48.4963C79.4545 48.069 79.4003 47.8176 79.3847 47.7421L79.1973 46.8367C79.165 46.6605 79.1335 46.5033 79.1028 46.3651C79.0715 46.2142 79.0471 46.0757 79.0295 45.9496C78.9856 45.7992 78.9485 45.6612 78.9183 45.5356C78.9002 45.3969 78.8763 45.2711 78.8465 45.1581C78.8309 45.0827 78.8145 44.9883 78.7974 44.8748C78.7798 44.7488 78.7574 44.6609 78.7301 44.6113L78.6832 44.3849C78.6812 44.3343 78.6668 44.2905 78.64 44.2535L78.6166 44.1403C78.5943 44.2173 78.5831 44.2557 78.5831 44.2557L78.586 44.3317L78.5883 44.3886C78.5888 44.4013 78.5834 44.4268 78.5723 44.4653C78.5606 44.4911 78.5499 44.5422 78.5402 44.6187C78.53 44.6825 78.5206 44.7652 78.5119 44.867C78.5027 44.9561 78.4876 45.0581 78.4668 45.173L78.3643 45.9566L78.2465 46.8358L78.2059 47.2557C78.1845 47.358 78.1656 47.5235 78.1492 47.7523C78.0575 48.3263 78.017 48.5878 78.0277 48.5367L78.8631 48.504C78.8752 48.4909 78.8937 48.4775 78.9185 48.4638C78.9429 48.4375 78.9613 48.4241 78.974 48.4236L79.031 48.4214C79.0942 48.419 79.1451 48.4233 79.1836 48.4345C79.2347 48.4452 79.2795 48.4561 79.318 48.4673C79.3949 48.4896 79.4713 48.4993 79.5473 48.4963ZM95.9957 52.1133C95.4175 51.5908 94.9214 51.0588 94.5072 50.5172C94.2145 50.161 93.7587 49.526 93.1399 48.6121L92.7971 48.1121C92.784 48.0999 92.771 48.0941 92.7584 48.0946C92.7579 48.0819 92.7576 48.0756 92.7576 48.0756L92.6627 48.0793L92.5883 48.1202C92.582 48.2853 92.593 48.7285 92.6212 49.4499C92.6395 49.9183 92.6356 50.4698 92.6097 51.1047L92.613 51.675C92.5678 51.8162 92.5389 51.887 92.5262 51.8875L92.3933 51.8927L92.3364 51.8949C90.948 52.0505 89.9374 52.1407 89.3046 52.1654L89.0198 52.1765L88.6591 52.1906C88.5199 52.1961 88.4184 52.1937 88.3546 52.1835L88.2217 52.1887L87.6257 52.0218L87.5826 51.8904C87.5572 51.8914 87.5373 51.8668 87.5226 51.8167C87.5207 51.7661 87.5192 51.7281 87.5182 51.7028C87.4595 51.1727 87.4127 50.7879 87.378 50.5484C87.3007 49.8669 87.2496 49.3681 87.2245 49.0522C87.1874 48.7494 87.167 48.5537 87.1636 48.4651L87.0279 47.4246L86.9867 46.8558C86.9696 46.7424 86.957 46.5844 86.9491 46.3819L86.9425 46.211C86.9653 46.1468 86.974 46.045 86.9686 45.9058L86.956 45.583C86.9667 45.5319 86.9708 45.4747 86.9683 45.4114L86.9434 45.2603L86.936 45.0704C86.9325 44.9818 86.9171 44.9127 86.8898 44.8631L86.8854 44.7492L86.8858 44.2738C86.895 44.1847 86.8962 44.0515 86.8893 43.8743C86.8997 43.4936 86.8983 43.1324 86.885 42.7907L86.8776 42.6008C86.8634 42.5634 86.8539 42.4813 86.8489 42.3548L86.8386 42.089L86.8311 41.8991C86.7917 41.8626 86.7712 41.8254 86.7697 41.7874C86.7628 41.6102 86.9161 41.4775 87.2295 41.3892C87.3921 41.3321 87.6253 41.2977 87.929 41.2858C90.8908 41.1702 93.1097 41.1849 94.5858 41.3301C96.0367 41.4763 97.0628 41.7848 97.6643 42.2557C97.9268 42.4863 98.1152 42.7642 98.2293 43.0893C98.3555 43.4013 98.4273 43.7787 98.4446 44.2217C98.4723 44.9305 98.293 45.5333 97.9068 46.0301C97.6513 46.3063 97.3499 46.5399 97.0024 46.7309C97.0858 46.9178 97.3221 47.2889 97.7114 47.8441C97.7908 47.9297 97.8641 48.022 97.9314 48.1207C98.0112 48.219 98.104 48.3232 98.2098 48.4331C98.4631 48.7528 98.7556 49.1027 99.0874 49.4827C99.102 49.5328 99.1568 49.6384 99.2519 49.7995C99.3161 49.8223 99.349 49.8527 99.3505 49.8907C99.3641 49.9155 99.3593 49.9538 99.336 50.0054C99.2406 50.1612 98.9518 50.3943 98.4696 50.7047C98.4088 50.7705 98.3353 50.8367 98.2492 50.9035C98.0039 51.1159 97.664 51.3383 97.2294 51.5708C96.8328 51.8017 96.4907 51.9672 96.203 52.0672C96.0916 52.1349 96.0225 52.1503 95.9957 52.1133ZM92.2793 45.5653C92.4439 45.5589 92.6641 45.5186 92.9401 45.4444C93.203 45.3581 93.3898 45.2748 93.5008 45.1944C93.6862 45.0731 93.8458 44.9401 93.9796 44.7954C94.1124 44.6254 94.1746 44.4328 94.1662 44.2177C94.1524 43.8633 94.0336 43.5827 93.8101 43.3759C93.6143 43.2315 93.3772 43.1647 93.0987 43.1755L92.2823 43.2074C92.2888 43.372 92.2862 43.6319 92.2748 43.9873L92.2713 44.3867C92.2559 44.6409 92.2586 45.0337 92.2793 45.5653ZM106.982 51.5322L106.109 51.5663L105.122 51.6048L103.869 51.6538C103.748 51.481 103.659 51.1612 103.603 50.6944C103.536 50.2787 103.487 49.6721 103.456 48.8748L103.393 46.7856C103.386 46.2788 103.361 45.4749 103.318 44.3737L103.259 44.319L101.38 44.3924C101.101 44.4032 100.905 44.094 100.792 43.4646C100.728 43.1248 100.683 42.6259 100.657 41.9677L100.648 41.7209C100.67 41.6313 100.677 41.4916 100.669 41.3017L100.655 40.922L100.668 40.7694L100.741 40.6905L101.083 40.6961L101.463 40.6813C102.02 40.6595 102.443 40.6367 102.734 40.6126L103.968 40.5644L104.31 40.5511L104.955 40.5259L105.772 40.494L106.588 40.4621C106.753 40.4684 106.988 40.4656 107.291 40.4537L107.766 40.4352C107.816 40.4079 107.897 40.392 108.011 40.3875C108.099 40.3588 108.181 40.3429 108.257 40.3399C108.497 40.3306 108.681 40.336 108.809 40.3564C109.063 40.3718 109.253 40.3771 109.38 40.3721L109.873 40.3339L110.613 40.305C110.993 40.2901 111.252 40.2863 111.392 40.2936L111.659 40.3022C111.672 40.3143 111.692 40.3326 111.718 40.3569C111.744 40.3686 111.757 40.3807 111.757 40.3934L111.883 43.6209C111.886 43.6969 111.845 43.7809 111.76 43.8729C111.688 43.9645 111.614 44.0244 111.539 44.0527C111.118 43.9804 110.572 43.9574 109.901 43.9836L109.18 44.0117C108.99 44.0191 108.873 44.2646 108.828 44.748C108.808 44.8882 108.803 45.0912 108.814 45.357L108.836 45.9266C108.846 46.1797 108.86 46.3693 108.877 46.4954L108.898 47.027C108.918 47.5459 108.912 48.0279 108.878 48.4729C108.866 48.8029 108.863 49.0439 108.869 49.1958C108.849 49.3487 108.845 49.558 108.855 49.8238C108.87 50.2035 108.87 50.5204 108.854 50.7746C108.857 51.1674 108.719 51.382 108.442 51.4181C108.14 51.468 107.963 51.4939 107.913 51.4959L106.982 51.5322ZM124.924 50.7746C123.62 50.8255 122.671 50.8562 122.075 50.8668C121.531 50.888 121.113 50.898 120.822 50.8967L119.264 50.9385C119.15 50.943 119.041 50.8965 118.935 50.7992C118.83 50.7019 118.775 50.5963 118.771 50.4824L118.608 46.3056L118.537 44.483L118.457 42.9269C118.437 42.408 118.424 41.7556 118.418 40.9699C118.412 40.8054 118.414 40.3806 118.426 39.6957L118.409 39.259C118.395 38.9046 118.453 38.6171 118.584 38.3965C118.643 38.2801 118.742 38.2192 118.881 38.2138C119.501 38.1896 120.179 38.1758 120.914 38.1724C121.016 38.1811 121.162 38.1818 121.352 38.1744C121.769 38.158 122.08 38.1523 122.283 38.157L123.308 38.117C123.358 38.115 123.504 38.1093 123.745 38.0999C123.998 38.09 124.195 38.114 124.337 38.1719C124.57 38.2895 124.695 38.5762 124.713 39.0319L124.7 39.1845C124.701 39.2225 124.692 39.3179 124.673 39.4708C124.642 39.6621 124.629 39.8021 124.632 39.8907C124.638 40.0299 124.663 40.2063 124.71 40.42C124.741 40.5709 124.758 40.6717 124.76 40.7223L124.783 40.8355L124.887 43.4935L124.935 44.7275L124.981 45.9046L124.99 46.1325C124.994 46.2337 125.053 46.2948 125.168 46.3156C125.207 46.3268 125.289 46.3299 125.416 46.325L126.802 46.2709C127.143 46.2449 127.662 46.2183 128.358 46.1911C128.497 46.1857 128.613 46.2255 128.705 46.3106C128.796 46.3831 128.844 46.4637 128.847 46.5523L128.989 50.1785L128.99 50.2165C128.994 50.3177 128.947 50.402 128.848 50.4692C128.736 50.5243 128.604 50.5611 128.453 50.5797C128.29 50.6241 128.031 50.6532 127.677 50.6671L124.924 50.7746ZM131.338 50.448C131.313 50.449 131.293 50.4245 131.278 50.3743C131.185 50.2639 131.116 50.1271 131.072 49.9641C131.032 49.9023 130.997 49.8212 130.967 49.721C130.845 49.4976 130.75 49.1844 130.684 48.7813C130.61 48.2011 130.567 47.7401 130.554 47.3983C130.535 47.2469 130.52 47.0384 130.51 46.7726L130.492 46.3169C130.477 45.9372 130.46 45.64 130.438 45.4253C130.417 45.198 130.393 44.7489 130.367 44.0781C130.297 42.2808 130.281 40.8934 130.318 39.9158C130.312 39.7639 130.523 39.6416 130.951 39.5489L131.52 39.5266L131.995 39.5081C132.716 39.4799 133.255 39.4716 133.61 39.483C134.143 39.5003 134.682 39.4982 135.226 39.477C135.353 39.472 135.447 39.462 135.51 39.4469L135.795 39.4358L135.893 39.508C136.307 39.4031 136.735 39.3293 137.177 39.2867C137.619 39.2441 138.157 39.2104 138.789 39.1857C138.815 39.1847 138.847 39.2025 138.887 39.239L139.494 39.2153C139.595 39.2113 139.673 39.2653 139.729 39.3772C139.796 39.4887 139.853 39.6512 139.9 39.8649C139.957 40.0275 140.003 40.2285 140.037 40.468C140.1 40.7825 140.153 40.9896 140.195 41.0893C140.209 41.4437 140.152 41.6234 140.026 41.6284C140.013 41.6289 139.993 41.6106 139.966 41.5736L139.89 41.5576C139.826 41.5474 139.757 41.5565 139.682 41.5847C139.607 41.6257 139.526 41.6479 139.437 41.6513C139.361 41.6543 139.297 41.6378 139.245 41.6018C139.219 41.5901 139.162 41.586 139.073 41.5895C138.959 41.5939 138.827 41.6181 138.677 41.662C138.627 41.6766 138.526 41.6996 138.375 41.7308C138.237 41.7616 138.073 41.7807 137.883 41.7881C137.339 41.8093 136.947 41.8373 136.708 41.872C136.569 41.8901 136.437 41.9333 136.313 42.0015L136.312 41.9635C136.261 41.9655 136.219 42.0305 136.186 42.1586C136.106 42.3772 136.061 42.6769 136.05 43.0576C136.042 43.172 136.041 43.2988 136.046 43.438C136.052 43.5772 136.074 43.6714 136.114 43.7206C136.167 43.7692 136.244 43.7916 136.345 43.7876C136.421 43.7846 136.483 43.7569 136.532 43.7043C136.557 43.7033 136.589 43.7084 136.628 43.7195C136.666 43.7307 136.698 43.7485 136.725 43.7728L138.339 43.7098C138.35 43.684 138.368 43.6642 138.393 43.6506C138.418 43.6369 138.443 43.6296 138.468 43.6286C138.595 43.6237 138.691 43.639 138.755 43.6745C138.833 43.7095 138.986 43.7415 139.216 43.7706C139.342 43.7657 139.432 43.8002 139.486 43.8741C139.553 43.9603 139.587 44.0413 139.59 44.1172L140.038 45.3547C140.084 45.5557 139.899 45.6961 139.484 45.7756C139.246 45.8357 138.785 45.879 138.101 45.9057L137.285 45.9376L136.715 45.9598C136.538 45.9667 136.405 45.9846 136.318 46.0134C136.23 46.0295 136.175 46.076 136.152 46.1529C136.104 46.2182 136.083 46.3204 136.088 46.4597L136.091 46.5356C136.094 46.5989 136.102 46.643 136.115 46.6678L136.113 47.0862C136.103 47.1753 136.102 47.3084 136.109 47.4856L136.117 47.6755L136.123 47.8464L136.128 47.9603C136.697 47.938 137.279 47.8963 137.872 47.8351C138.453 47.7744 139.028 47.7329 139.598 47.7107C139.636 47.7092 139.668 47.7396 139.696 47.8019C139.724 47.8516 139.739 47.9143 139.742 47.9903C139.77 48.0652 139.786 48.147 139.789 48.2356C139.822 48.4245 139.867 48.6002 139.924 48.7628L140.078 49.3082L140.093 49.6879L140.095 49.7448L140.101 49.8967L139.955 50.0355L139.822 50.0407L139.765 50.0429C139.626 50.0484 139.537 50.0455 139.498 50.0343C139.459 50.0105 139.414 49.9996 139.364 50.0016C139.339 50.0152 139.302 50.0357 139.252 50.063C139.202 50.0903 139.159 50.1173 139.122 50.1441L139.118 50.0492L138.891 50.077L138.607 50.0882C138.556 50.0901 138.518 50.079 138.491 50.0546L138.339 50.0416C137.87 50.0599 137.543 50.117 137.357 50.213L131.338 50.448ZM142.825 50.0946C142.584 50.104 142.481 49.8925 142.515 49.4602C142.509 49.3083 142.534 49.1362 142.589 48.9439C142.586 48.8553 142.59 48.7854 142.6 48.7343C142.61 48.6705 142.615 48.6197 142.613 48.5817C142.851 47.1907 143.12 45.8175 143.422 44.462L144.516 39.3614C144.515 39.3361 144.533 39.3037 144.569 39.2643C144.606 39.2248 144.642 39.1917 144.679 39.1649L144.812 39.1597C144.964 39.1538 145.084 39.1301 145.171 39.0887C145.246 39.073 145.379 39.0615 145.569 39.0541C145.873 39.0423 146.101 39.0397 146.253 39.0464C146.482 39.0755 146.717 39.0853 146.958 39.0759L147.944 39.0184C148.045 38.9891 148.164 38.9718 148.303 38.9663L149.137 38.8958L149.764 38.8713C150.004 38.8619 150.239 38.8591 150.467 38.8628L150.999 38.8421C151.126 38.8498 151.31 38.849 151.55 38.8396L152.271 38.8114C152.309 38.8099 152.348 38.8148 152.386 38.8259C152.425 38.8371 152.457 38.8485 152.483 38.8602C152.534 38.8835 152.598 38.8937 152.674 38.8908L152.845 38.8841C152.936 38.9439 152.983 39.0055 152.985 39.0688L154.529 44.0283C155.009 45.6194 155.391 46.9672 155.675 48.0716C155.678 48.1349 155.702 48.2544 155.746 48.4301C155.807 48.6813 155.84 48.8828 155.846 49.0347C155.85 49.1233 155.842 49.244 155.822 49.3969C155.764 49.526 155.678 49.5927 155.564 49.5972L155.355 49.6053C155.19 49.6117 155.064 49.6103 154.975 49.6012L154.557 49.6175L154.158 49.633L153.835 49.6456C153.747 49.6491 153.696 49.6447 153.683 49.6326L152.639 49.6734L152.618 49.6361C152.592 49.6118 152.553 49.6006 152.503 49.6026L152.447 49.6428C152.448 49.6681 152.436 49.6813 152.411 49.6822L152.354 49.6845L152.221 49.6897C152.157 49.6668 152.042 49.6586 151.878 49.665C151.573 49.6516 151.319 49.6488 151.117 49.6567C150.966 49.371 150.777 48.7383 150.548 47.7585C150.284 47.8068 149.981 47.8376 149.639 47.851L149.146 47.8703L148.671 47.8888C148.628 48.0806 148.602 48.2401 148.595 48.3671C148.584 48.4309 148.542 48.6481 148.468 49.0186C148.394 49.3891 148.321 49.6391 148.25 49.7687L148.137 49.8111C148.1 49.8252 148.069 49.8391 148.044 49.8528C148.019 49.8537 148.006 49.8542 148.006 49.8542L147.968 49.8557C147.892 49.8587 147.841 49.848 147.815 49.8237C147.763 49.8003 147.731 49.7889 147.718 49.7894L146.998 49.8556L146.467 49.8763C146.404 49.8914 146.354 49.9061 146.316 49.9202C146.278 49.9217 146.253 49.9227 146.24 49.9232L144.722 49.9825L144.57 49.9884C144.456 50.0055 144.222 50.021 143.868 50.0348L143.412 50.0526C143.337 50.0683 143.217 50.0793 143.052 50.0857L142.825 50.0946ZM150.298 45.7337C150.205 45.3063 150.151 45.0549 150.135 44.9794L149.948 44.0741C149.916 43.8979 149.884 43.7406 149.854 43.6024C149.822 43.4515 149.798 43.313 149.78 43.1869C149.736 43.0365 149.699 42.8985 149.669 42.773C149.651 42.6342 149.627 42.5084 149.597 42.3955C149.582 42.32 149.565 42.2256 149.548 42.1122C149.531 41.9861 149.508 41.8982 149.481 41.8486L149.434 41.6223C149.432 41.5716 149.418 41.5278 149.391 41.4908L149.367 41.3777C149.345 41.4546 149.334 41.4931 149.334 41.4931L149.337 41.569L149.339 41.626C149.34 41.6386 149.334 41.6642 149.323 41.7026C149.311 41.7285 149.301 41.7796 149.291 41.856C149.281 41.9198 149.271 42.0026 149.263 42.1043C149.253 42.1934 149.238 42.2954 149.218 42.4103L149.115 43.1939L148.997 44.0732L148.957 44.4931C148.935 44.5953 148.916 44.7608 148.9 44.9897C148.808 45.5637 148.768 45.8251 148.778 45.774L149.614 45.7414C149.626 45.7282 149.644 45.7148 149.669 45.7012C149.694 45.6749 149.712 45.6615 149.725 45.661L149.782 45.6588C149.845 45.6563 149.896 45.6606 149.934 45.6718C149.985 45.6825 150.03 45.6934 150.069 45.7046C150.146 45.7269 150.222 45.7366 150.298 45.7337ZM166.746 49.3506C166.168 48.8281 165.672 48.2961 165.258 47.7545C164.965 47.3983 164.509 46.7633 163.891 45.8494L163.548 45.3494C163.535 45.3372 163.522 45.3314 163.509 45.3319C163.509 45.3192 163.508 45.3129 163.508 45.3129L163.413 45.3166L163.339 45.3576C163.333 45.5226 163.344 45.9658 163.372 46.6873C163.39 47.1556 163.386 47.7072 163.36 48.342L163.364 48.9123C163.319 49.0535 163.29 49.1243 163.277 49.1248L163.144 49.13L163.087 49.1323C161.699 49.2879 160.688 49.378 160.055 49.4028L159.771 49.4139L159.41 49.428C159.271 49.4334 159.169 49.431 159.105 49.4208L158.972 49.426L158.376 49.2592L158.333 49.1277C158.308 49.1287 158.288 49.1042 158.273 49.054C158.271 49.0034 158.27 48.9654 158.269 48.9401C158.21 48.41 158.164 48.0252 158.129 47.7857C158.051 47.1042 158 46.6055 157.975 46.2895C157.938 45.9868 157.918 45.7911 157.914 45.7025L157.779 44.662L157.737 44.0932C157.72 43.9797 157.708 43.8218 157.7 43.6193L157.693 43.4484C157.716 43.3841 157.725 43.2824 157.719 43.1431L157.707 42.8204C157.717 42.7693 157.722 42.7121 157.719 42.6488L157.694 42.4976L157.687 42.3078C157.683 42.2192 157.668 42.1501 157.641 42.1004L157.636 41.9865L157.637 41.5111C157.646 41.422 157.647 41.2889 157.64 41.1117C157.651 40.731 157.649 40.3698 157.636 40.028L157.628 39.8382C157.614 39.8007 157.605 39.7187 157.6 39.5921L157.589 39.3263L157.582 39.1364C157.542 39.1 157.522 39.0627 157.521 39.0248C157.514 38.8476 157.667 38.7148 157.98 38.6265C158.143 38.5695 158.376 38.535 158.68 38.5231C161.642 38.4075 163.86 38.4223 165.337 38.5674C166.787 38.7136 167.814 39.0221 168.415 39.493C168.678 39.7236 168.866 40.0015 168.98 40.3266C169.106 40.6386 169.178 41.0161 169.195 41.4591C169.223 42.1679 169.044 42.7707 168.658 43.2674C168.402 43.5436 168.101 43.7772 167.753 43.9683C167.837 44.1552 168.073 44.5262 168.462 45.0814C168.542 45.1671 168.615 45.2593 168.682 45.3581C168.762 45.4564 168.855 45.5605 168.961 45.6705C169.214 45.9901 169.506 46.34 169.838 46.72C169.853 46.7701 169.908 46.8757 170.003 47.0368C170.067 47.0597 170.1 47.0901 170.101 47.1281C170.115 47.1529 170.11 47.1911 170.087 47.2427C169.991 47.3985 169.703 47.6317 169.22 47.942C169.16 48.0078 169.086 48.074 169 48.1408C168.755 48.3532 168.415 48.5756 167.98 48.8081C167.584 49.0391 167.241 49.2046 166.954 49.3045C166.842 49.3723 166.773 49.3876 166.746 49.3506ZM163.03 42.8027C163.195 42.7962 163.415 42.7559 163.691 42.6818C163.954 42.5955 164.141 42.5121 164.252 42.4317C164.437 42.3104 164.597 42.1774 164.73 42.0327C164.863 41.8628 164.925 41.6702 164.917 41.455C164.903 41.1006 164.784 40.82 164.561 40.6133C164.365 40.4688 164.128 40.402 163.849 40.4129L163.033 40.4447C163.04 40.6093 163.037 40.8693 163.026 41.2246L163.022 41.6241C163.007 41.8782 163.009 42.2711 163.03 42.8027ZM173.936 48.9178L173.632 48.9297L173.347 48.9408L173.196 48.9467L172.447 48.7668L172.405 48.6543C172.392 48.6548 172.383 48.5918 172.378 48.4652C172.372 48.3007 172.36 48.168 172.344 48.0673L172.296 47.3466C172.278 47.1952 172.262 46.9549 172.249 46.6259C172.237 46.3094 172.221 46.0755 172.203 45.9241L172.181 45.3546C172.074 44.5601 172.003 43.7389 171.97 42.8909L171.964 42.739L171.953 42.4542C171.947 42.3023 171.95 42.1945 171.96 42.1307L171.954 41.9788L171.949 41.846C171.934 41.8085 171.926 41.7454 171.922 41.6568L171.914 41.448L171.91 41.3341L171.902 41.1442L171.89 40.8405C171.884 40.6886 171.886 40.5807 171.897 40.517L171.889 40.3271L171.905 40.2314L171.895 39.9846C171.903 39.8576 171.902 39.6864 171.894 39.4713C171.887 39.3067 171.875 39.1614 171.858 39.0354L171.822 38.5994L171.8 38.5242C171.761 38.5004 171.76 38.4814 171.798 38.4673C171.84 38.2628 171.993 38.111 172.255 38.0121C172.38 37.9565 172.588 37.923 172.879 37.9117C173.094 37.9033 173.656 37.8623 174.566 37.7887C175.021 37.7456 175.305 37.7218 175.419 37.7174C175.608 37.6973 175.836 37.6821 176.102 37.6717C176.229 37.6794 176.319 37.7013 176.371 37.7373C176.422 37.7606 176.469 37.8095 176.509 37.884C176.563 37.9579 176.603 38.0134 176.63 38.0504L177.031 38.5862C177.018 38.574 177.185 38.7956 177.533 39.2511C177.856 39.7329 178.244 40.2754 178.699 40.8788C178.766 40.9776 178.847 41.0886 178.94 41.2117C179.034 41.3348 179.134 41.4766 179.242 41.6372L179.216 40.9727C179.222 40.795 179.218 40.5416 179.205 40.2126C179.189 39.7822 179.182 39.3008 179.187 38.7682C179.183 38.6669 179.186 38.5781 179.196 38.5016C179.205 38.4125 179.208 38.3427 179.206 38.2921C179.201 38.1655 179.205 38.102 179.218 38.1015C179.266 38.0235 179.351 37.9378 179.474 37.8443C179.622 37.7371 179.779 37.6866 179.944 37.6928L180.893 37.6558L181.083 37.6484C181.273 37.6409 181.431 37.6411 181.558 37.6488L182.128 37.6266C182.255 37.6343 182.445 37.6332 182.698 37.6233L183.116 37.607L183.306 37.5996C183.559 37.5897 183.75 37.6266 183.88 37.7102C183.958 37.7579 184.012 37.8255 184.04 37.9132C184.069 37.9881 184.086 38.1079 184.092 38.2724C184.099 38.4369 184.098 38.5764 184.09 38.6908C184.082 38.8179 184.082 38.97 184.089 39.1472L184.094 39.2801C184.108 39.3176 184.116 39.3743 184.119 39.4502L184.139 39.9439L184.205 42.1279L184.289 44.2733L184.309 44.7859C184.362 46.1529 184.383 47.0204 184.372 47.3884L184.34 48.0172C184.288 48.3108 184.205 48.4661 184.092 48.4832C184.066 48.4842 184.029 48.492 183.979 48.5066C183.941 48.5208 183.897 48.5288 183.846 48.5308C183.391 48.5486 183.055 48.549 182.839 48.5321L181.852 48.5707L180.864 48.6092L180.617 48.6189C180.58 48.633 180.53 48.6413 180.466 48.6438C180.314 48.6497 180.155 48.6242 179.988 48.5674C179.886 48.546 179.775 48.4806 179.657 48.3712L177.894 46.0822C177.828 45.9961 177.702 45.8552 177.517 45.6596L177.261 45.4414C177.195 45.3806 177.143 45.3509 177.105 45.3524C177.067 45.3539 177.036 45.3741 177.013 45.4131C176.988 45.4394 176.977 45.4652 176.978 45.4905L176.99 45.8133C176.982 45.915 176.981 46.0735 176.99 46.2886L177.011 46.8392C177.004 46.9789 177.005 47.169 177.015 47.4095L177.032 47.8652L177.043 48.15C177.032 48.1758 177.027 48.214 177.029 48.2646C177.029 48.2773 177.014 48.3793 176.984 48.5706C176.96 48.6222 176.943 48.6546 176.931 48.6678C176.918 48.6809 176.874 48.689 176.798 48.6919C176.773 48.6803 176.747 48.6749 176.722 48.6759C176.709 48.6764 176.696 48.6769 176.684 48.6774C175.687 48.805 174.86 48.8817 174.202 48.9074L173.936 48.9178ZM187.417 48.5815C187.19 48.5904 187.035 48.3683 186.954 47.9151C186.909 47.7267 186.883 47.5566 186.877 47.4047C186.869 47.2022 186.858 47.0759 186.843 47.0257C186.816 46.6592 186.762 46.0782 186.68 45.2828L186.595 44.5635C186.476 43.4527 186.405 42.6315 186.385 42.0999L186.205 37.4864C186.201 37.3851 186.312 37.3047 186.537 37.2452C186.662 37.2023 186.839 37.1764 187.067 37.1675C187.219 37.1616 187.384 37.1678 187.562 37.1862C187.74 37.1919 187.873 37.1931 187.961 37.1896C188.152 37.2075 188.45 37.2086 188.855 37.1927L188.929 37.1328L189.764 37.1002C189.804 37.1367 189.849 37.1539 189.899 37.152L189.975 37.149C189.987 37.1359 190.019 37.1283 190.069 37.1263C190.094 37.1127 190.132 37.1049 190.183 37.1029C190.195 37.0897 190.207 37.0829 190.22 37.0824C190.232 37.0819 190.239 37.0817 190.239 37.0817C190.277 37.0802 190.322 37.0911 190.373 37.1145C190.424 37.1251 190.463 37.13 190.488 37.129L191.893 37.0741L192.077 40.3374C192.078 40.3501 192.067 40.3949 192.044 40.4718C192.034 40.5356 192.025 40.6247 192.017 40.7391C191.997 41.1962 191.992 41.5577 192.002 41.8235L192.147 45.5257L192.118 46.2493C192.092 46.5672 192.09 46.8272 192.11 47.0292C192.121 47.295 192.117 47.5107 192.098 47.6762C192.091 47.8286 192.058 47.9503 191.998 48.0414C191.925 48.133 191.807 48.1819 191.642 48.1884L191.623 48.1701L191.565 48.1534C191.54 48.1544 191.527 48.1612 191.528 48.1738L191.433 48.1775C191.358 48.2058 191.314 48.2265 191.302 48.2397C191.239 48.2422 191.092 48.2289 190.863 48.1998L190.597 48.1912C190.533 48.1936 190.496 48.2204 190.486 48.2716L189.062 48.3272L188.796 48.3375L188.306 48.4517L187.853 48.5265L187.417 48.5815ZM196.222 48.0476L195.918 48.0594L195.633 48.0706L195.481 48.0765L194.733 47.8966L194.69 47.7841C194.678 47.7846 194.669 47.7216 194.664 47.595C194.657 47.4305 194.646 47.2978 194.629 47.1971L194.582 46.4764C194.564 46.325 194.548 46.0847 194.535 45.7556C194.523 45.4392 194.507 45.2053 194.489 45.0539L194.466 44.4844C194.359 43.6899 194.289 42.8687 194.256 42.0207L194.25 41.8688L194.239 41.584C194.233 41.4321 194.235 41.3243 194.245 41.2605L194.24 41.1086L194.234 40.9757C194.22 40.9383 194.211 40.8752 194.208 40.7866L194.2 40.5778L194.195 40.4639L194.188 40.274L194.176 39.9702C194.17 39.8184 194.172 39.7105 194.182 39.6468L194.175 39.4569L194.19 39.3612L194.181 39.1144C194.188 38.9874 194.188 38.8162 194.18 38.6011C194.173 38.4365 194.161 38.2912 194.144 38.1651L194.108 37.7292L194.086 37.654C194.047 37.6302 194.046 37.6112 194.083 37.5971C194.126 37.3926 194.279 37.2408 194.541 37.1419C194.666 37.0863 194.873 37.0528 195.165 37.0414C195.38 37.033 195.942 36.9921 196.852 36.9185C197.307 36.8754 197.591 36.8516 197.705 36.8472C197.894 36.8271 198.122 36.8119 198.388 36.8015C198.515 36.8092 198.604 36.8311 198.656 36.8671C198.708 36.8904 198.754 36.9393 198.795 37.0138C198.849 37.0877 198.889 37.1432 198.916 37.1802L199.317 37.7159C199.304 37.7038 199.471 37.9254 199.818 38.3809C200.141 38.8626 200.53 39.4052 200.985 40.0086C201.052 40.1074 201.132 40.2183 201.226 40.3415C201.319 40.4646 201.42 40.6064 201.528 40.767L201.502 40.1025C201.508 39.9248 201.504 39.6714 201.491 39.3423C201.474 38.912 201.468 38.4306 201.473 37.898C201.469 37.7967 201.472 37.7079 201.481 37.6314C201.491 37.5423 201.494 37.4725 201.492 37.4218C201.487 37.2953 201.491 37.2317 201.504 37.2312C201.551 37.1533 201.637 37.0676 201.76 36.9741C201.908 36.8669 202.064 36.8164 202.229 36.8226L203.179 36.7856L203.369 36.7781C203.558 36.7707 203.717 36.7709 203.844 36.7786L204.413 36.7564C204.541 36.7641 204.731 36.763 204.984 36.7531L205.401 36.7368L205.591 36.7294C205.844 36.7195 206.036 36.7564 206.166 36.84C206.244 36.8877 206.297 36.9553 206.326 37.0429C206.354 37.1179 206.372 37.2376 206.378 37.4022C206.385 37.5667 206.384 37.7062 206.375 37.8206C206.368 37.9477 206.367 38.0998 206.374 38.277L206.379 38.4099C206.394 38.4474 206.402 38.5041 206.405 38.58L206.424 39.0737L206.491 41.2577L206.574 43.4031L206.594 43.9157C206.648 45.2827 206.669 46.1502 206.658 46.5182L206.626 47.147C206.574 47.4405 206.491 47.5959 206.378 47.613C206.352 47.614 206.315 47.6218 206.264 47.6364C206.227 47.6506 206.183 47.6586 206.132 47.6606C205.677 47.6784 205.341 47.6788 205.125 47.6619L204.137 47.7005L203.15 47.739L202.903 47.7487C202.866 47.7628 202.815 47.7711 202.752 47.7736C202.6 47.7795 202.441 47.754 202.274 47.6972C202.171 47.6758 202.061 47.6104 201.943 47.5009L200.18 45.212C200.113 45.1258 199.987 44.985 199.802 44.7894L199.547 44.5712C199.481 44.5104 199.429 44.4807 199.391 44.4822C199.353 44.4837 199.322 44.5039 199.298 44.5429C199.274 44.5692 199.262 44.595 199.263 44.6203L199.276 44.943C199.267 45.0448 199.267 45.2033 199.276 45.4184L199.297 45.969C199.29 46.1087 199.291 46.2988 199.3 46.5393L199.318 46.995L199.329 47.2798C199.318 47.3056 199.313 47.3438 199.315 47.3944C199.315 47.4071 199.3 47.5091 199.27 47.7004C199.246 47.752 199.228 47.7844 199.216 47.7975C199.204 47.8107 199.16 47.8188 199.084 47.8217C199.058 47.8101 199.033 47.8047 199.007 47.8057C198.995 47.8062 198.982 47.8067 198.969 47.8072C197.973 47.9348 197.146 48.0115 196.488 48.0372L196.222 48.0476ZM213.679 47.7462C212.868 47.7779 212.108 47.6111 211.396 47.2459C210.57 46.8725 209.907 46.2899 209.408 45.4982C208.839 44.5823 208.529 43.4535 208.477 42.1119C208.441 41.1879 208.573 40.3461 208.872 39.5865C209.185 38.8264 209.635 38.175 210.222 37.6324C210.797 37.1029 211.485 36.6894 212.284 36.392C213.084 36.0945 213.959 35.9273 214.908 35.8902C216.262 35.8373 217.725 36.1415 219.298 36.8026L218.742 39.6195C218.512 39.5777 218.301 39.5289 218.109 39.473C217.61 39.3531 217.157 39.2694 216.749 39.2219C216.469 39.1822 216.253 39.1652 216.101 39.1712C215.443 39.1969 214.937 39.4004 214.584 39.7818C214.172 40.2543 213.985 40.9904 214.024 41.9904C214.057 42.8384 214.216 43.485 214.499 43.9303C214.766 44.2748 215.109 44.4389 215.526 44.4226C215.868 44.4093 216.194 44.3268 216.505 44.1752C216.488 44.0491 216.469 43.9041 216.45 43.74C216.431 43.5633 216.417 43.3611 216.408 43.1332C216.339 42.6795 216.276 42.3588 216.218 42.1709L216.189 41.4305C216.186 41.3419 216.222 41.2961 216.298 41.2931L216.393 41.2894C216.431 41.2879 216.468 41.2801 216.506 41.266C216.543 41.2518 216.581 41.244 216.619 41.2425C216.745 41.2123 216.82 41.1967 216.845 41.1957C216.934 41.1922 217.055 41.2002 217.208 41.2196C217.258 41.2176 217.315 41.2217 217.379 41.2319C217.443 41.2421 217.506 41.2459 217.57 41.2434C217.618 41.1908 217.776 41.1593 218.041 41.149C218.244 41.1411 218.402 41.1286 218.515 41.1114C218.59 41.0832 218.685 41.0668 218.799 41.0624L219.024 40.9965C219.139 41.0047 219.303 41.0046 219.519 40.9962C219.608 41.0054 219.728 41.007 219.88 41.0011C219.918 40.9996 219.95 41.0047 219.976 41.0164C220.001 41.0154 220.02 41.0147 220.033 41.0142L220.45 40.9979L220.528 41.0329L220.549 41.5645C220.564 41.6272 220.574 41.7219 220.579 41.8485L220.589 42.1143L220.608 42.6079L220.674 44.2786L220.677 44.3546C220.665 44.3931 220.661 44.4439 220.663 44.5072C220.653 44.5583 220.649 44.6155 220.651 44.6788L220.655 44.7738C220.681 45.4446 220.687 45.9197 220.672 46.1992C220.663 46.6178 220.63 46.9043 220.573 47.0587C220.307 47.0691 220.099 47.0899 219.948 47.1211L219.568 47.136L219.53 47.1374L219.359 47.1441L219.339 47.1069L219.264 47.1478L217.613 47.2123L217.537 47.2153L217.366 47.2219L217.176 47.2294C217.151 47.243 217.107 47.2511 217.044 47.2535C216.955 47.257 216.887 47.1329 216.839 46.8812C216.765 46.6053 216.721 46.2774 216.706 45.8977C216.601 46.4596 216.27 46.9035 215.712 47.2295C215.166 47.5423 214.489 47.7146 213.679 47.7462Z" fill="white"/>
<path d="M134.279 22.4299L138.088 21.5835L139.78 25.8156L134.702 26.662C132.586 26.2388 132.163 23.6995 134.279 22.4299Z" fill="#3A3A3A"/>
<circle cx="141.05" cy="23.2764" r="4.65529" fill="#5B5B5B"/>
<circle cx="141.896" cy="23.2764" r="4.65529" fill="#8B8B8B"/>
<path d="M145.267 22.8531C145.267 24.2555 144.447 26.2387 143.044 26.2387C141.642 26.2387 143.151 24.2555 143.151 22.8531C143.151 21.4507 141.642 19.8906 143.044 19.8906C144.447 19.8906 145.267 21.4507 145.267 22.8531Z" fill="#9A9A9A"/>
<path d="M160.2 197.54C159.878 205.823 114.118 209.308 106.165 202.593C103.614 200.439 103.234 198.865 104.689 196.413C107.114 192.327 119.19 195.54 132.131 194.96C144.33 194.413 155.298 188.882 159.183 194.272C160.04 195.46 160.243 196.442 160.2 197.54Z" fill="#173531"/>
</svg>
