<svg width="500" height="280" viewBox="0 0 432 314" fill="none" xmlns="http://www.w3.org/2000/svg">
<path d="M102.3 77.56C99.4405 77.56 97.0571 77.43 95.1505 77.17C92.6805 76.8233 90.4488 76.195 88.4555 75.285C88.1955 75.155 87.8055 74.96 87.2855 74.7C86.8088 74.3967 86.3971 74.115 86.0505 73.855C84.6205 72.6417 83.4505 71.2767 82.5405 69.76C81.8038 68.98 81.1321 67.8967 80.5255 66.51C79.3555 63.4767 78.7705 59.8583 78.7705 55.655C78.7705 50.715 79.7888 46.3817 81.8255 42.655C83.6021 39.1017 85.9638 36.3283 88.9105 34.335C91.9005 32.2983 95.2805 31.15 99.0505 30.89L99.8305 30.825H100.675C104.055 30.825 107.695 31.5183 111.595 32.905C111.942 33.0783 112.7 33.425 113.87 33.945C115.04 34.465 116.124 35.05 117.12 35.7L115.95 44.15L112.115 43.175C110.729 42.8283 109.429 42.655 108.215 42.655C105.789 42.655 103.969 43.565 102.755 45.385C101.455 47.2917 100.805 50.39 100.805 54.68C100.805 56.0667 100.87 57.0417 101 57.605C101.174 60.335 101.78 62.35 102.82 63.65C103.817 64.7767 105.009 65.34 106.395 65.34C107.695 65.34 109.147 64.9283 110.75 64.105C112.137 63.455 113.654 62.5667 115.3 61.44L115.95 72.1C114.26 73.66 112.094 74.9817 109.45 76.065C106.937 77.0617 104.554 77.56 102.3 77.56ZM152.206 78.21C152.033 78.21 151.881 78.1883 151.751 78.145C151.101 77.755 150.56 77.3217 150.126 76.845C149.996 76.6283 149.91 76.52 149.866 76.52C149.823 76.4333 149.758 76.39 149.671 76.39L149.541 76.325C149.368 76.1517 149.281 76.065 149.281 76.065L143.756 67.875C143.496 67.3117 143.128 66.705 142.651 66.055C142.348 65.7517 142.088 65.4267 141.871 65.08C141.698 64.82 141.525 64.69 141.351 64.69C141.221 64.69 141.113 64.755 141.026 64.885C140.983 65.015 140.94 65.1883 140.896 65.405C140.766 66.575 140.701 68.1567 140.701 70.15C140.701 72.0567 140.593 73.595 140.376 74.765C140.246 75.3283 140.051 75.61 139.791 75.61H139.401C139.315 75.5667 139.228 75.545 139.141 75.545C139.098 75.5017 139.076 75.48 139.076 75.48C137.56 75.61 135.285 75.7617 132.251 75.935C129.305 76.1083 127.051 76.195 125.491 76.195C125.058 76.195 124.711 76.1517 124.451 76.065H123.021H121.851H121.266L118.926 75.285L118.731 74.765C118.731 74.7217 118.71 74.635 118.666 74.505C118.666 74.375 118.666 74.2017 118.666 73.985C118.666 73.725 118.623 73.2483 118.536 72.555C118.32 69.9117 118.233 68.8717 118.276 69.435C118.19 68.3083 118.038 66.3583 117.821 63.585L117.626 61.18C117.626 60.4 117.605 59.7067 117.561 59.1C117.518 58.4933 117.475 57.9733 117.431 57.54L117.301 56.11C117.171 54.3333 117.106 52.665 117.106 51.105C117.106 51.0617 117.106 50.9967 117.106 50.91C117.15 50.8233 117.171 50.65 117.171 50.39C117.258 50.13 117.301 49.7183 117.301 49.155L117.366 47.985L117.431 47.205C117.431 46.295 117.388 44.9733 117.301 43.24C117.128 42.1567 117.041 40.77 117.041 39.08C117.041 36.6533 117.193 34.8767 117.496 33.75C117.886 32.19 118.536 31.41 119.446 31.41C124.343 31.41 129.326 31.475 134.396 31.605C135.523 31.605 137.213 31.6483 139.466 31.735L142.001 31.8C145.468 31.8867 147.873 31.93 149.216 31.93C154.806 32.19 159.031 33.5983 161.891 36.155C163.191 37.2383 164.145 38.5383 164.751 40.055C165.401 41.5717 165.726 43.1967 165.726 44.93C165.726 46.9233 165.358 48.765 164.621 50.455C164.015 51.7983 163.148 53.0333 162.021 54.16C160.938 55.2433 159.703 56.11 158.316 56.76C158.576 56.89 158.923 57.1717 159.356 57.605C159.53 57.8217 159.833 58.1033 160.266 58.45L161.176 59.1C161.306 59.3167 161.458 59.5333 161.631 59.75C161.805 59.9233 161.978 60.1183 162.151 60.335L165.206 64.105C166.593 65.8817 167.481 67.1817 167.871 68.005C168.175 68.5683 168.326 69.0017 168.326 69.305C168.326 69.7383 168.153 70.1283 167.806 70.475C167.46 70.8217 166.94 71.255 166.246 71.775C165.726 72.165 165.12 72.5333 164.426 72.88C163.776 73.2267 163.278 73.5517 162.931 73.855L160.526 75.155C159.66 75.6317 158.728 76.0433 157.731 76.39C157.688 76.39 157.623 76.4117 157.536 76.455C157.493 76.4983 157.406 76.5417 157.276 76.585C157.016 76.715 156.301 76.9533 155.131 77.3C154.915 77.43 154.546 77.5383 154.026 77.625C153.896 77.7117 153.745 77.7767 153.571 77.82C153.398 77.8633 153.268 77.885 153.181 77.885H152.856C152.813 78.1017 152.726 78.21 152.596 78.21H152.401H152.206ZM141.546 55.265C142.89 55.265 143.951 54.5933 144.731 53.25C145.468 52.0367 145.88 50.65 145.966 49.09C146.053 48.18 146.096 47.0967 146.096 45.84V45.125C146.096 44.1283 145.923 43.0883 145.576 42.005C145.23 40.6183 144.515 39.6217 143.431 39.015C142.955 38.625 142.326 38.43 141.546 38.43C141.33 38.43 141.156 38.69 141.026 39.21C140.636 40.1633 140.42 41.68 140.376 43.76C140.203 44.6267 140.116 45.645 140.116 46.815L140.051 48.765C139.965 51.2783 139.921 53.3583 139.921 55.005C139.921 55.0483 139.943 55.0917 139.986 55.135C140.03 55.1783 140.073 55.2 140.116 55.2L140.571 55.265H141.546ZM193.549 81.785C193.549 81.785 193.506 81.785 193.419 81.785C193.376 81.785 193.333 81.8067 193.289 81.85L193.094 81.915C192.964 81.915 192.899 81.8717 192.899 81.785C192.726 81.6983 192.618 81.5683 192.574 81.395C191.058 81.135 190.083 80.9183 189.649 80.745L187.374 80.095H187.049C186.833 80.095 186.659 80.0517 186.529 79.965C186.139 79.965 185.814 79.9217 185.554 79.835C185.208 79.7917 184.644 79.64 183.864 79.38C183.084 79.12 182.521 78.925 182.174 78.795C181.481 78.5783 180.484 78.21 179.184 77.69C178.578 77.43 178.123 77.2567 177.819 77.17L176.324 76.26C175.978 76 175.804 75.74 175.804 75.48C175.804 74.6567 175.999 73.79 176.389 72.88C176.519 72.5767 176.693 72.2083 176.909 71.775C177.169 71.3417 177.408 70.8433 177.624 70.28C177.711 70.02 177.949 69.63 178.339 69.11C179.379 67.3767 179.943 66.4233 180.029 66.25C180.203 65.7733 180.289 65.34 180.289 64.95C180.289 64.3 179.943 63.6283 179.249 62.935C178.599 62.285 178.274 61.6567 178.274 61.05C178.058 61.05 177.949 61.0717 177.949 61.115H177.819H177.754C177.668 61.0283 177.624 60.9417 177.624 60.855C176.238 59.1217 174.829 57.02 173.399 54.55C171.579 51.69 170.106 49.09 168.979 46.75C168.633 46.23 168.221 45.2983 167.744 43.955C167.181 42.785 166.704 41.5933 166.314 40.38C165.838 39.0367 165.599 38.17 165.599 37.78C165.599 37.3467 166.076 36.7833 167.029 36.09C167.419 35.83 167.874 35.57 168.394 35.31C168.914 35.05 169.304 34.855 169.564 34.725C169.781 34.6817 170.691 34.4433 172.294 34.01L173.204 33.685C173.378 33.555 173.573 33.49 173.789 33.49C174.049 33.49 174.461 33.4033 175.024 33.23C176.281 32.97 177.018 32.7967 177.234 32.71L179.574 32.19C180.874 31.7567 181.633 31.5183 181.849 31.475L181.979 31.41H182.174H182.304C183.214 31.41 183.821 31.6267 184.124 32.06C184.384 32.32 184.818 32.9267 185.424 33.88C185.511 34.14 185.663 34.4433 185.879 34.79C186.139 35.1367 186.313 35.3533 186.399 35.44L186.919 36.155L187.374 36.675C187.548 36.8917 187.721 37.1517 187.894 37.455C188.068 37.7583 188.263 38.0833 188.479 38.43C189.606 40.4233 190.473 41.8317 191.079 42.655C191.469 43.2183 191.794 43.5 192.054 43.5C192.184 43.5 192.401 43.2617 192.704 42.785C193.094 42.1783 193.809 40.7917 194.849 38.625C195.413 37.2383 196.084 35.6567 196.864 33.88C197.254 33.1 197.471 32.6233 197.514 32.45C197.688 31.67 197.883 31.1717 198.099 30.955C198.316 30.6083 198.706 30.435 199.269 30.435C200.656 30.435 202.476 30.7167 204.729 31.28C206.939 31.93 209.063 32.775 211.099 33.815C213.179 34.9417 214.588 35.9817 215.324 36.935C215.324 38.105 215.043 39.1883 214.479 40.185L208.499 53.38L202.649 66.64L202.389 66.705C202.346 66.705 202.281 66.7483 202.194 66.835C199.334 72.425 196.713 77.4517 194.329 81.915C194.243 82.0883 193.983 82.175 193.549 82.175V81.785ZM216.386 75.935C215.649 75.935 215.173 75.4583 214.956 74.505C214.739 74.0283 214.631 73.1617 214.631 71.905C214.631 68.135 214.588 64.7767 214.501 61.83C214.371 57.5833 214.306 53.0983 214.306 48.375V34.075C214.306 33.685 214.479 33.3167 214.826 32.97C215.216 32.58 215.606 32.385 215.996 32.385L223.471 32.45C224.858 32.4933 226.678 32.515 228.931 32.515C232.181 32.515 234.694 32.4933 236.471 32.45L238.876 32.385C241.476 32.2983 243.621 32.255 245.311 32.255C248.041 32.255 250.641 32.645 253.111 33.425C256.014 34.2917 258.376 35.7867 260.196 37.91C262.233 40.2067 263.251 43.305 263.251 47.205C263.251 53.7917 261.583 58.5583 258.246 61.505C255.299 64.2783 250.901 65.665 245.051 65.665H236.146C236.189 66.6617 236.211 67.7233 236.211 68.85C236.211 69.24 236.189 69.7167 236.146 70.28C236.146 70.8 236.146 71.515 236.146 72.425C236.146 73.855 235.843 74.765 235.236 75.155C234.759 75.545 233.871 75.74 232.571 75.74C230.664 75.74 229.343 75.7617 228.606 75.805C225.616 75.805 223.233 75.8483 221.456 75.935H216.386ZM239.656 57.865C240.566 57.865 241.238 56.9983 241.671 55.265C242.018 54.095 242.278 52.3617 242.451 50.065C242.538 48.8083 242.581 47.4 242.581 45.84V45.125C242.581 44.4317 242.473 43.3917 242.256 42.005C242.083 41.225 241.888 40.6183 241.671 40.185C241.454 39.7083 241.173 39.3183 240.826 39.015C240.479 38.625 240.089 38.43 239.656 38.43C239.439 38.43 239.244 38.5167 239.071 38.69C238.941 38.8633 238.811 39.08 238.681 39.34C238.204 40.12 237.771 41.8533 237.381 44.54C237.251 45.32 237.143 46.49 237.056 48.05C236.839 50.4333 236.731 53.6183 236.731 57.605C236.731 57.605 236.753 57.6267 236.796 57.67C236.839 57.7133 236.926 57.7567 237.056 57.8L237.836 57.865H239.656ZM272.928 76.065C272.321 76.065 271.866 75.6533 271.563 74.83C270.913 73.4 270.588 70.8 270.588 67.03C270.588 63.39 270.653 59.2083 270.783 54.485C270.826 52.9683 270.848 50.6283 270.848 47.465L270.653 47.205H263.438C262.874 47.205 262.419 46.9017 262.073 46.295C261.769 45.645 261.531 44.7567 261.358 43.63C261.141 42.33 261.033 40.4667 261.033 38.04V37.13C261.033 36.6967 261.054 36.35 261.098 36.09V35.115V34.53C261.098 34.27 261.228 34.0533 261.488 33.88C261.748 33.6633 262.051 33.5117 262.398 33.425C262.831 33.295 263.481 33.23 264.348 33.23H269.288C270.371 33.23 271.194 33.2517 271.758 33.295L274.163 33.36H297.563C299.253 33.36 300.358 33.3817 300.878 33.425C301.094 33.4683 301.398 33.5117 301.788 33.555C302.178 33.5983 302.459 33.685 302.633 33.815C302.936 33.945 303.109 34.1183 303.153 34.335C303.239 34.5083 303.283 34.79 303.283 35.18V45.905C303.283 46.3817 303.088 46.7067 302.698 46.88C302.438 46.9667 302.091 47.01 301.658 47.01H299.578H297.433C296.436 47.01 295.678 46.9667 295.158 46.88H293.208C292.818 46.88 292.601 46.9667 292.558 47.14C292.558 47.1833 292.536 47.2483 292.493 47.335C292.449 47.3783 292.428 47.4433 292.428 47.53V48.505V50.715C292.428 51.365 292.406 51.8633 292.363 52.21C292.363 53.4667 292.276 56.2183 292.103 60.465L291.972 62.415C291.886 64.235 291.799 65.5567 291.713 66.38V72.555C291.713 74.0283 291.409 74.96 290.803 75.35C290.239 75.5667 289.849 75.6967 289.633 75.74L288.008 75.805C286.318 75.805 285.126 75.8483 284.433 75.935L277.608 76C276.741 76.0433 275.181 76.065 272.928 76.065ZM327.505 77.56C322.348 77.56 318.275 77.1483 315.285 76.325C311.125 75.2417 307.962 73.2267 305.795 70.28C303.282 66.77 302.025 61.895 302.025 55.655C302.025 51.1917 302.523 47.4 303.52 44.28C304.517 41.16 306.055 38.6033 308.135 36.61C310.215 34.6167 312.88 33.165 316.13 32.255C319.423 31.3017 323.432 30.825 328.155 30.825C331.838 30.825 335.305 31.3883 338.555 32.515C342.542 33.945 345.64 36.1333 347.85 39.08C350.58 42.59 351.945 47.205 351.945 52.925C351.945 59.5983 350.948 64.7983 348.955 68.525C346.962 71.9483 344.08 74.375 340.31 75.805C337.233 76.975 332.965 77.56 327.505 77.56ZM326.985 71.255C327.505 71.255 327.917 70.93 328.22 70.28C328.87 68.8933 329.325 66.705 329.585 63.715C329.845 60.985 329.975 58.4067 329.975 55.98V53.38V51.755C329.975 49.8483 329.845 47.53 329.585 44.8C329.325 41.8533 328.87 39.6217 328.22 38.105C327.873 37.3683 327.462 37 326.985 37C326.032 37 325.338 37.91 324.905 39.73C324.472 42.2433 324.255 44.5183 324.255 46.555C324.125 48.2883 324.06 50.9967 324.06 54.68C324.06 57.15 324.125 59.1867 324.255 60.79C324.255 62.8267 324.472 65.1883 324.905 67.875C325.338 70.1283 326.032 71.255 326.985 71.255Z" fill="white"/>
<path d="M30.6609 150.908C29.6182 150.908 28.9435 150.233 28.6369 148.884C28.3302 148.209 28.1769 146.983 28.1769 145.204C28.1769 139.868 28.1155 135.115 27.9929 130.944C27.8089 124.933 27.7169 118.585 27.7169 111.9V91.66C27.7169 91.108 27.9622 90.5867 28.4529 90.096C29.0049 89.544 29.5569 89.268 30.1089 89.268L40.6889 89.36C42.6515 89.4213 45.2275 89.452 48.4169 89.452C53.0169 89.452 56.5742 89.4213 59.0889 89.36L62.4929 89.268C66.1729 89.1453 69.2089 89.084 71.6009 89.084C75.4649 89.084 79.1449 89.636 82.6409 90.74C86.7502 91.9667 90.0929 94.0827 92.6689 97.088C95.5515 100.339 96.9929 104.724 96.9929 110.244C96.9929 119.567 94.6315 126.313 89.9089 130.484C85.7382 134.409 79.5129 136.372 71.2329 136.372H58.6289C58.6902 137.783 58.7209 139.285 58.7209 140.88C58.7209 141.432 58.6902 142.107 58.6289 142.904C58.6289 143.64 58.6289 144.652 58.6289 145.94C58.6289 147.964 58.1995 149.252 57.3409 149.804C56.6662 150.356 55.4089 150.632 53.5689 150.632C50.8702 150.632 48.9995 150.663 47.9569 150.724C43.7249 150.724 40.3515 150.785 37.8369 150.908H30.6609ZM63.5969 125.332C64.8849 125.332 65.8355 124.105 66.4489 121.652C66.9395 119.996 67.3075 117.543 67.5529 114.292C67.6755 112.513 67.7369 110.52 67.7369 108.312V107.3C67.7369 106.319 67.5835 104.847 67.2769 102.884C67.0315 101.78 66.7555 100.921 66.4489 100.308C66.1422 99.6333 65.7435 99.0813 65.2529 98.652C64.7622 98.1 64.2102 97.824 63.5969 97.824C63.2902 97.824 63.0142 97.9467 62.7689 98.192C62.5849 98.4373 62.4009 98.744 62.2169 99.112C61.5422 100.216 60.9289 102.669 60.3769 106.472C60.1929 107.576 60.0395 109.232 59.9169 111.44C59.6102 114.813 59.4569 119.321 59.4569 124.964C59.4569 124.964 59.4875 124.995 59.5489 125.056C59.6102 125.117 59.7329 125.179 59.9169 125.24L61.0209 125.332H63.5969ZM125.593 151C119.275 151 114.675 150.969 111.793 150.908C109.155 150.908 107.131 150.877 105.721 150.816L98.1766 150.724C97.6246 150.724 97.1033 150.479 96.6126 149.988C96.122 149.497 95.8766 148.976 95.8766 148.424V128.184V119.352L95.7846 111.808C95.7846 109.293 95.846 106.135 95.9686 102.332C95.9686 101.535 96.0606 99.48 96.2446 96.168V94.052C96.2446 92.3347 96.582 90.9547 97.2566 89.912C97.5633 89.36 98.054 89.084 98.7286 89.084C101.734 89.084 105.015 89.1453 108.573 89.268C109.063 89.3293 109.769 89.36 110.689 89.36C112.713 89.36 114.215 89.3907 115.197 89.452H120.165C120.41 89.452 121.115 89.452 122.281 89.452C123.507 89.452 124.458 89.6053 125.133 89.912C126.237 90.5253 126.789 91.936 126.789 94.144L126.697 94.88C126.697 95.064 126.635 95.524 126.513 96.26C126.329 97.18 126.237 97.8547 126.237 98.284C126.237 98.9587 126.329 99.8173 126.513 100.86C126.635 101.596 126.697 102.087 126.697 102.332L126.789 102.884V115.764V121.744V127.448V128.552C126.789 129.043 127.065 129.349 127.617 129.472C127.801 129.533 128.199 129.564 128.813 129.564H135.529C137.185 129.503 139.699 129.472 143.073 129.472C143.747 129.472 144.299 129.687 144.729 130.116C145.158 130.484 145.373 130.883 145.373 131.312V148.884V149.068C145.373 149.559 145.127 149.957 144.637 150.264C144.085 150.509 143.441 150.663 142.705 150.724C141.907 150.908 140.65 151 138.933 151H125.593ZM145.373 151.092C144.575 151.092 144.023 150.479 143.717 149.252C143.655 149.068 143.625 148.761 143.625 148.332C143.625 147.719 143.747 146.799 143.993 145.572C144.115 144.775 144.207 144.161 144.269 143.732C144.391 143.241 144.483 142.873 144.545 142.628C146.385 133.98 148.194 126.375 149.973 119.812L156.413 90.74C156.413 90.6173 156.505 90.4333 156.689 90.188C156.873 89.9427 157.087 89.7893 157.333 89.728H157.793C157.793 89.7893 157.885 89.82 158.069 89.82C158.805 89.82 159.633 89.728 160.553 89.544C161.473 89.36 162.301 89.268 163.037 89.268C164.386 89.268 165.643 89.36 166.809 89.544C167.361 89.544 167.974 89.5747 168.649 89.636C169.323 89.6973 170.029 89.728 170.765 89.728C171.01 89.728 171.286 89.6667 171.593 89.544H173.249H175.365L177.573 89.452C178.002 89.3907 178.523 89.36 179.137 89.36C179.627 89.36 179.873 89.3293 179.873 89.268H181.345H184.473H188.337C191.771 89.268 194.041 89.3293 195.145 89.452C195.329 89.452 195.574 89.4827 195.881 89.544C196.249 89.544 196.463 89.6053 196.525 89.728C196.954 89.728 197.383 89.6973 197.813 89.636C198.242 89.5747 198.641 89.544 199.009 89.544C199.867 89.36 200.695 89.268 201.493 89.268C201.861 89.268 202.229 89.36 202.597 89.544C202.965 89.728 203.363 89.82 203.793 89.82L204.253 89.728H204.529C204.713 89.8507 204.897 90.0347 205.081 90.28C205.326 90.464 205.449 90.6173 205.449 90.74L211.889 119.812C213.851 126.988 215.63 134.593 217.225 142.628C217.225 142.996 217.347 143.395 217.593 143.824C217.654 144.253 217.746 144.836 217.869 145.572C217.991 146.308 218.053 146.921 218.053 147.412C218.114 147.657 218.145 147.995 218.145 148.424C218.145 149.283 217.961 149.988 217.593 150.54C217.347 150.908 216.979 151.092 216.489 151.092H215.293C214.373 151.092 213.667 151.061 213.177 151H210.785H208.485H206.645C206.154 151 205.909 150.969 205.909 150.908H200.113V150.724C199.867 150.601 199.561 150.54 199.193 150.54C199.193 150.54 199.162 150.571 199.101 150.632C199.101 150.632 199.07 150.663 199.009 150.724C199.009 150.847 198.947 150.908 198.825 150.908H198.549H197.813C197.506 150.785 196.893 150.724 195.973 150.724C194.133 150.601 192.691 150.54 191.649 150.54C191.281 149.988 190.882 148.884 190.453 147.228C190.085 145.572 189.686 143.732 189.257 141.708C189.134 140.727 189.011 140.052 188.889 139.684C187.601 139.929 185.914 140.052 183.829 140.052H180.977H178.309L177.665 142.996C176.867 147.044 176.223 149.559 175.733 150.54C175.487 150.54 175.181 150.601 174.813 150.724C174.69 150.785 174.567 150.847 174.445 150.908C174.383 150.908 174.353 150.908 174.353 150.908H173.985C173.617 150.908 173.341 150.847 173.157 150.724C173.034 150.601 172.881 150.54 172.697 150.54L168.557 150.724H167.085H165.705C165.459 150.847 165.153 150.908 164.785 150.908H164.417H155.953H155.125C154.45 150.969 153.07 151 150.985 151H148.593C148.102 151.061 147.397 151.092 146.477 151.092H145.373ZM187.877 128.552C187.447 125.547 187.233 124.044 187.233 124.044C187.049 123.185 186.742 121.56 186.313 119.168C186.19 118.555 185.883 116.899 185.393 114.2C184.902 111.256 184.657 109.784 184.657 109.784C184.473 108.557 184.289 107.484 184.105 106.564L184.013 105.368C183.829 105.061 183.737 104.785 183.737 104.54L183.645 103.988C183.583 104.111 183.553 104.295 183.553 104.54C183.553 104.785 183.491 104.939 183.369 105V105.368L183.185 106.564C183.123 106.993 183.031 107.484 182.909 108.036C182.847 108.527 182.755 109.079 182.633 109.692L182.173 112.268C181.498 116.132 181.099 118.371 180.977 118.984C180.915 119.659 180.762 120.671 180.517 122.02C180.394 122.449 180.271 123.093 180.149 123.952L179.413 128.184H184.105L184.749 128H184.933C185.669 128 186.221 128.061 186.589 128.184C186.834 128.184 187.049 128.245 187.233 128.368C187.478 128.429 187.693 128.491 187.877 128.552ZM231.022 151.276C230.408 151.276 229.887 151.215 229.458 151.092H227.618H226.146H225.318L221.178 150.08L220.902 149.344C220.84 149.344 220.81 149.007 220.81 148.332C220.687 146.492 220.626 144.376 220.626 141.984C220.626 140.267 220.564 138.887 220.442 137.844C220.442 136.127 220.411 134.839 220.35 133.98V130.76C220.043 127.939 219.859 124.841 219.798 121.468C219.736 118.095 219.706 114.813 219.706 111.624L219.89 102.24C219.951 101.197 219.982 99.6027 219.982 97.456C219.982 95.3093 219.951 93.7147 219.89 92.672C219.706 91.2613 220.104 90.2187 221.086 89.544C221.699 89.2373 222.772 89.084 224.306 89.084C226.575 89.084 229.488 89.0227 233.046 88.9L235.07 88.716C238.75 88.4707 241.05 88.348 241.97 88.348C242.828 88.348 243.442 88.3787 243.81 88.44C244.668 88.5013 245.251 88.624 245.558 88.808C245.864 88.992 246.14 89.2987 246.386 89.728C246.692 90.1573 246.907 90.4947 247.03 90.74C247.766 91.7213 248.502 92.764 249.238 93.868C250.342 95.524 251.231 96.812 251.906 97.732L257.978 107.024L260.922 111.44C260.922 109.845 260.983 108.588 261.106 107.668V99.112L261.382 92.58C261.443 92.0893 261.504 91.752 261.566 91.568C261.627 91.384 261.719 91.2613 261.842 91.2C261.964 91.0773 262.056 90.9853 262.118 90.924C262.854 90.3107 263.59 89.8507 264.326 89.544C264.939 89.4213 265.43 89.36 265.798 89.36H271.042H272.146C272.636 89.4213 273.495 89.452 274.722 89.452C276.071 89.452 277.144 89.4827 277.942 89.544H281.07H283.646H284.75C286.344 89.544 287.418 89.7893 287.97 90.28C288.644 90.7707 288.982 91.844 288.982 93.5L288.89 94.42L288.798 95.892C288.736 96.26 288.706 96.7507 288.706 97.364V98.468V99.204L288.89 100.124V103.068C288.828 104.111 288.798 105.889 288.798 108.404V115.212C288.736 116.807 288.706 119.045 288.706 121.928V127.264V130.392V144.928L288.338 148.424C288.092 149.835 287.602 150.693 286.866 151L285.302 151.092L283.738 151H279.598H274.17H268.558H267.178C265.951 151.123 264.755 150.969 263.59 150.54C263.038 150.295 262.424 149.896 261.75 149.344L252.366 136.188C252.366 136.127 251.691 134.992 250.342 132.784C249.851 132.048 249.391 131.404 248.962 130.852C248.839 130.607 248.686 130.423 248.502 130.3C248.379 130.116 248.287 130.024 248.226 130.024C247.674 130.024 247.398 130.269 247.398 130.76V132.784C247.336 133.397 247.306 134.409 247.306 135.82V139.408V142.904C247.183 143.64 247.122 144.56 247.122 145.664V147.504V148.884L247.214 149.344C247.214 149.835 246.968 150.141 246.478 150.264C246.171 150.509 245.68 150.571 245.006 150.448C242.92 150.571 241.264 150.693 240.038 150.816C239.302 150.877 238.014 150.969 236.174 151.092C234.334 151.215 232.616 151.276 231.022 151.276ZM305.362 151.092C304.503 151.092 303.859 150.509 303.43 149.344C302.51 147.32 302.05 143.64 302.05 138.304C302.05 133.152 302.142 127.233 302.326 120.548C302.387 118.401 302.418 115.089 302.418 110.612L302.142 110.244H291.93C291.133 110.244 290.489 109.815 289.998 108.956C289.569 108.036 289.231 106.779 288.986 105.184C288.679 103.344 288.526 100.707 288.526 97.272V95.984C288.526 95.3707 288.557 94.88 288.618 94.512V93.132V92.304C288.618 91.936 288.802 91.6293 289.17 91.384C289.538 91.0773 289.967 90.8627 290.458 90.74C291.071 90.556 291.991 90.464 293.218 90.464H300.21C301.743 90.464 302.909 90.4947 303.706 90.556L307.11 90.648H340.23C342.622 90.648 344.186 90.6787 344.922 90.74C345.229 90.8013 345.658 90.8627 346.21 90.924C346.762 90.9853 347.161 91.108 347.406 91.292C347.835 91.476 348.081 91.7213 348.142 92.028C348.265 92.2733 348.326 92.672 348.326 93.224V108.404C348.326 109.079 348.05 109.539 347.498 109.784C347.13 109.907 346.639 109.968 346.026 109.968H343.082H340.046C338.635 109.968 337.562 109.907 336.826 109.784H334.066C333.514 109.784 333.207 109.907 333.146 110.152C333.146 110.213 333.115 110.305 333.054 110.428C332.993 110.489 332.962 110.581 332.962 110.704V112.084V115.212C332.962 116.132 332.931 116.837 332.87 117.328C332.87 119.107 332.747 123.001 332.502 129.012L332.318 131.772C332.195 134.348 332.073 136.219 331.95 137.384V146.124C331.95 148.209 331.521 149.528 330.662 150.08C329.865 150.387 329.313 150.571 329.006 150.632L326.706 150.724C324.314 150.724 322.627 150.785 321.646 150.908L311.986 151C310.759 151.061 308.551 151.092 305.362 151.092ZM373.226 153.208C368.872 153.208 364.486 152.717 360.07 151.736C355.716 150.693 352.128 149.283 349.306 147.504C348.57 145.296 348.018 143.088 347.65 140.88C347.282 138.672 346.822 135.513 346.27 131.404V131.128C346.393 130.392 346.792 129.84 347.466 129.472C349.797 130.883 352.036 131.956 354.182 132.692C356.329 133.367 358.69 133.704 361.266 133.704H363.474L364.946 133.796C366.357 133.796 367.798 133.581 369.27 133.152C370.068 132.845 370.62 132.263 370.926 131.404L366.05 129.012C362.309 127.233 358.936 125.332 355.93 123.308C352.802 121.039 350.564 118.156 349.214 114.66C348.54 112.759 348.202 110.673 348.202 108.404C348.202 102.884 349.889 98.4373 353.262 95.064C356.206 92.0587 360.193 89.912 365.222 88.624C369.577 87.5813 374.361 87.06 379.574 87.06C382.641 87.06 386.873 87.3973 392.27 88.072C392.822 88.1947 393.589 88.3173 394.57 88.44L397.33 88.992C399.416 89.36 400.949 89.544 401.93 89.544C401.992 89.544 402.084 89.636 402.206 89.82C402.39 90.004 402.544 90.1573 402.666 90.28C402.912 90.7093 403.157 90.924 403.402 90.924H403.494H403.586L403.77 92.856C403.77 93.776 403.862 94.7573 404.046 95.8C404.23 97.3333 404.322 98.9893 404.322 100.768C404.322 102.301 404.23 103.405 404.046 104.08C403.74 105.307 403.188 106.196 402.39 106.748L393.834 105.644H392.914H391.626C389.541 105.644 387.149 105.859 384.45 106.288L381.414 106.932C380.678 107.055 380.31 107.177 380.31 107.3C380.31 108.772 381.261 110.152 383.162 111.44C384.082 111.931 385.002 112.36 385.922 112.728C386.842 113.035 387.425 113.249 387.67 113.372C392.209 114.66 396.134 116.899 399.446 120.088C400.98 121.56 402.176 123.124 403.034 124.78C403.893 126.436 404.322 128.031 404.322 129.564C404.322 130.484 404.2 131.465 403.954 132.508C403.525 137.108 401.777 141.095 398.71 144.468C395.705 147.473 391.933 149.681 387.394 151.092C383.469 152.503 378.746 153.208 373.226 153.208Z" fill="url(#paint0_linear)"/>
<path d="M272.651 211L185.651 223C185.651 223 178.151 189.5 184.651 163C191.151 136.5 246.651 120.5 261.651 158C276.651 195.5 272.651 211 272.651 211Z" fill="#172725"/>
<path d="M263 211L176 223C176 223 168.5 189.5 175 163C181.5 136.5 237 120.5 252 158C267 195.5 263 211 263 211Z" fill="#4B4B4B"/>
<path d="M255.554 211.981L175.365 223C175.365 223 168.452 192.239 174.443 167.906C180.434 143.573 231.589 128.881 245.415 163.315C259.241 197.749 255.554 211.981 255.554 211.981Z" fill="#656565"/>
<path d="M36.5084 271C30.2524 271 25.683 270.969 22.8004 270.908C20.0404 270.908 17.955 270.877 16.5444 270.816L9.18437 270.724C8.57103 270.724 8.01903 270.479 7.52837 269.988C6.97637 269.436 6.70037 268.915 6.70037 268.424V251.404C10.8097 247.54 14.1217 244.167 16.6364 241.284C18.1697 239.873 19.611 238.371 20.9604 236.776C22.371 235.181 23.2297 234.2 23.5364 233.832C24.763 232.36 25.499 231.379 25.7444 230.888C26.3577 230.091 26.6644 229.508 26.6644 229.14C26.6644 228.895 26.511 228.772 26.2044 228.772L8.72437 228.404C7.6817 228.404 6.82303 227.699 6.14837 226.288C5.8417 225.429 5.5657 223.835 5.32037 221.504C5.1977 220.523 5.13637 219.112 5.13637 217.272C5.13637 216.72 5.16703 216.229 5.22837 215.8C5.22837 214.88 5.25903 214.175 5.32037 213.684C5.32037 212.703 5.3817 212.028 5.50437 211.66V210.74L5.96437 210.28C6.45503 209.789 7.06837 209.544 7.80437 209.544C8.2337 209.544 8.6017 209.605 8.90837 209.728L9.92037 209.82C12.1284 209.82 14.3977 209.728 16.7284 209.544C18.9364 209.36 21.175 209.268 23.4444 209.268C29.271 209.268 33.6257 209.207 36.5084 209.084L49.8484 208.992C53.283 208.992 55.9204 209.176 57.7604 209.544C58.5577 209.851 59.079 210.096 59.3244 210.28C59.5084 210.648 59.6004 210.863 59.6004 210.924V225.644C59.6004 226.196 59.3857 227.177 58.9564 228.588C58.4657 229.876 57.5457 231.501 56.1964 233.464C53.4977 237.635 48.131 243.921 40.0964 252.324C42.795 252.324 44.7884 252.293 46.0764 252.232H51.5044H56.7484C57.3004 252.232 57.8217 252.447 58.3124 252.876C58.803 253.244 59.0484 253.643 59.0484 254.072V268.884V269.16C59.0484 269.589 58.8337 269.957 58.4044 270.264C57.8524 270.509 57.1777 270.663 56.3804 270.724C55.6444 270.908 54.387 271 52.6084 271H36.5084ZM95.9519 273.208C88.6532 273.208 82.8879 272.625 78.6559 271.46C72.7679 269.927 68.2905 267.075 65.2239 262.904C61.6665 257.936 59.8879 251.036 59.8879 242.204C59.8879 235.887 60.5932 230.52 62.0039 226.104C63.4145 221.688 65.5919 218.069 68.5359 215.248C71.4799 212.427 75.2519 210.372 79.8519 209.084C84.5132 207.735 90.1865 207.06 96.8719 207.06C102.085 207.06 106.992 207.857 111.592 209.452C117.235 211.476 121.62 214.573 124.748 218.744C128.612 223.712 130.544 230.244 130.544 238.34C130.544 247.785 129.133 255.145 126.312 260.42C123.491 265.265 119.412 268.7 114.076 270.724C109.721 272.38 103.68 273.208 95.9519 273.208ZM95.2159 264.284C95.9519 264.284 96.5345 263.824 96.9639 262.904C97.8839 260.941 98.5279 257.844 98.8959 253.612C99.2639 249.748 99.4479 246.099 99.4479 242.664V238.984V236.684C99.4479 233.985 99.2639 230.704 98.8959 226.84C98.5279 222.669 97.8839 219.511 96.9639 217.364C96.4732 216.321 95.8905 215.8 95.2159 215.8C93.8665 215.8 92.8852 217.088 92.2719 219.664C91.6585 223.221 91.3519 226.441 91.3519 229.324C91.1679 231.777 91.0759 235.611 91.0759 240.824C91.0759 244.32 91.1679 247.203 91.3519 249.472C91.3519 252.355 91.6585 255.697 92.2719 259.5C92.8852 262.689 93.8665 264.284 95.2159 264.284ZM141.526 271.276C140.913 271.276 140.422 271.215 140.054 271.092H138.214H136.558H135.914L131.774 270.08L131.406 269.344C131.345 269.344 131.314 269.007 131.314 268.332C131.314 267.473 131.284 266.768 131.222 266.216L131.13 261.984C131.069 261.064 131.038 259.684 131.038 257.844L130.854 250.76C130.854 249.227 130.916 247.111 131.038 244.412L131.13 241.284C131.253 239.321 131.314 236.101 131.314 231.624V230.98V229.784C131.192 229.6 131.13 229.263 131.13 228.772L131.038 228.128C131.038 226.595 131.13 225 131.314 223.344C131.437 221.259 131.498 219.357 131.498 217.64L131.406 215.064C131.345 214.389 131.314 213.592 131.314 212.672C131.314 212.611 131.253 212.519 131.13 212.396C131.069 212.273 131.038 212.151 131.038 212.028C131.038 211.415 131.284 210.893 131.774 210.464C132.265 210.035 132.878 209.728 133.614 209.544C134.596 209.237 135.853 209.084 137.386 209.084H152.934H160.11C160.172 209.084 160.264 209.145 160.386 209.268C160.509 209.391 160.632 209.483 160.754 209.544C161.245 209.973 161.858 210.801 162.594 212.028C162.778 212.396 162.962 212.825 163.146 213.316C163.392 213.745 163.698 214.451 164.066 215.432C164.496 216.413 165.078 217.916 165.814 219.94L166.918 222.792C167.409 223.712 167.961 225.031 168.574 226.748C168.758 227.239 168.942 227.729 169.126 228.22C169.372 228.711 169.586 229.201 169.77 229.692C169.893 230.121 170.016 230.459 170.138 230.704C170.322 230.888 170.414 231.011 170.414 231.072C170.844 232.053 171.304 232.544 171.794 232.544C172.408 232.544 172.898 232.053 173.266 231.072C173.328 231.011 173.389 230.888 173.45 230.704C173.512 230.459 173.665 230.091 173.91 229.6L175.29 226.564L178.97 218.744L180.534 215.432C180.718 214.941 180.841 214.543 180.902 214.236C181.025 213.868 181.148 213.623 181.27 213.5C181.516 212.948 182.098 211.997 183.018 210.648C183.325 210.157 183.601 209.789 183.846 209.544C184.03 209.483 184.153 209.391 184.214 209.268C184.276 209.145 184.368 209.084 184.49 209.084H191.666H207.214H208.594H209.514H210.71H212.734C212.857 209.084 213.01 209.544 213.194 210.464L213.47 219.48C213.593 222.056 213.654 226.104 213.654 231.624V236.96C213.654 239.045 213.562 241.376 213.378 243.952C213.194 246.528 213.072 248.184 213.01 248.92L212.826 250.76V253.98C212.888 254.839 212.918 256.127 212.918 257.844C212.918 259.684 212.949 261.064 213.01 261.984C213.01 263.763 213.072 264.989 213.194 265.664V268.332V269.344L212.918 270.08L208.778 271.092H208.134H206.478H204.638C204.209 271.215 203.688 271.276 203.074 271.276C201.97 271.276 200.437 271.215 198.474 271.092L196.174 271C195.745 270.939 195.254 270.877 194.702 270.816C194.15 270.755 193.476 270.724 192.678 270.724L189.09 270.448C188.968 270.448 188.876 270.479 188.814 270.54H188.078C187.772 270.54 187.588 270.203 187.526 269.528C187.158 268.301 186.974 266.216 186.974 263.272C186.974 261.309 186.944 259.776 186.882 258.672L186.79 253.704C186.729 252.6 186.698 251.005 186.698 248.92C186.698 248.429 186.484 248.184 186.054 248.184C185.809 248.184 185.564 248.491 185.318 249.104L184.306 251.588L183.478 253.888C183.356 254.256 183.233 254.624 183.11 254.992C182.988 255.36 182.834 255.697 182.65 256.004L182.19 257.108C181.638 258.335 180.933 259.715 180.074 261.248C179.154 262.904 178.02 264.223 176.67 265.204C175.934 265.633 175.29 265.848 174.738 265.848H173.358C172.622 265.848 172.009 265.787 171.518 265.664H169.494H167.654C165.201 261.739 162.901 257.445 160.754 252.784L159.374 249.38C159.006 248.583 158.761 248.184 158.638 248.184C158.209 248.184 157.994 248.429 157.994 248.92V253.244C157.994 257.537 157.933 260.696 157.81 262.72C157.688 265.909 157.473 268.117 157.166 269.344C157.105 270.141 156.921 270.54 156.614 270.54H155.97L155.51 270.448C153.425 270.571 151.769 270.693 150.542 270.816C149.806 270.877 148.518 270.969 146.678 271.092C144.838 271.215 143.121 271.276 141.526 271.276ZM236.714 273.208C232.359 273.208 228.863 273.085 226.226 272.84C223.65 272.656 221.595 272.288 220.062 271.736C218.467 271.061 217.302 270.141 216.566 268.976C215.83 267.811 215.462 266.247 215.462 264.284V261.984C215.523 261.371 215.554 260.451 215.554 259.224C215.615 258.611 215.646 257.691 215.646 256.464C215.707 255.851 215.738 255.207 215.738 254.532C215.738 252.201 215.677 248.705 215.554 244.044L215.462 238.524C215.155 234.169 215.002 228.895 215.002 222.7V219.572V216.72C215.002 214.573 215.094 213.009 215.278 212.028C215.401 211.721 215.462 211.445 215.462 211.2C215.523 210.955 215.554 210.771 215.554 210.648C215.615 209.544 216.075 208.716 216.934 208.164C217.425 207.98 218.099 207.888 218.958 207.888C219.51 207.888 220.093 207.857 220.706 207.796C221.381 207.735 222.086 207.704 222.822 207.704C223.803 207.704 225.337 207.643 227.422 207.52C227.974 207.459 228.618 207.397 229.354 207.336C230.151 207.275 231.041 207.244 232.022 207.244C233.985 207.121 235.365 207.06 236.162 207.06C241.191 207.06 247.079 207.551 253.826 208.532C258.549 209.084 262.229 209.667 264.866 210.28C269.343 211.384 272.747 212.825 275.078 214.604C278.083 217.18 279.586 220.461 279.586 224.448C279.586 229.6 277.47 233.495 273.238 236.132C272.931 236.316 272.655 236.469 272.41 236.592C272.165 236.653 271.919 236.745 271.674 236.868C270.57 237.175 269.619 237.573 268.822 238.064C268.699 238.125 268.546 238.248 268.362 238.432C268.178 238.555 268.025 238.739 267.902 238.984C267.902 238.984 267.902 239.015 267.902 239.076C267.963 239.076 267.994 239.107 267.994 239.168C267.994 239.168 268.055 239.229 268.178 239.352C272.41 241.069 275.845 243.185 278.482 245.7C280.445 247.908 281.426 250.208 281.426 252.6C281.426 255.973 279.371 259.377 275.262 262.812C271.214 266.001 266.215 268.424 260.266 270.08C255.85 271.307 251.495 272.165 247.202 272.656C243.951 273.024 240.455 273.208 236.714 273.208ZM247.662 230.244C247.969 230.244 248.306 230.152 248.674 229.968C250.269 229.416 251.771 228.741 253.182 227.944C254.041 227.576 254.869 227.208 255.666 226.84C256.525 226.411 257.107 226.135 257.414 226.012L258.242 225.644L258.978 225.46C259.223 225.46 259.346 225.307 259.346 225C259.346 223.957 258.211 223.252 255.942 222.884C254.593 222.577 252.906 222.424 250.882 222.424C249.042 222.424 247.877 223.129 247.386 224.54C247.079 225.276 246.926 226.196 246.926 227.3C246.926 228.404 246.926 229.079 246.926 229.324V229.784C246.926 230.091 247.171 230.244 247.662 230.244ZM246.282 256.832C246.343 256.832 246.374 256.801 246.374 256.74C250.667 254.655 255.543 252.385 261.002 249.932C261.247 249.687 261.401 249.564 261.462 249.564L261.922 249.288C259.346 248.491 256.801 247.969 254.286 247.724C251.097 247.601 248.459 247.54 246.374 247.54C245.699 247.54 245.362 247.969 245.362 248.828V256.188C245.362 256.617 245.607 256.832 246.098 256.832H246.282ZM284.031 271.092C283.601 271.092 283.203 270.939 282.835 270.632C282.467 270.264 282.191 269.804 282.007 269.252C281.761 268.148 281.577 266.921 281.455 265.572C281.393 265.143 281.363 264.56 281.363 263.824V262.628L281.455 251.22C281.455 247.356 281.547 243.553 281.731 239.812V210.74C281.731 210.127 282.129 209.82 282.927 209.82C287.159 209.82 290.317 209.789 292.403 209.728H301.603C301.787 209.728 301.94 209.697 302.063 209.636C302.185 209.575 302.339 209.544 302.523 209.544C303.32 209.421 304.424 209.391 305.835 209.452C306.877 209.452 307.981 209.544 309.147 209.728C309.515 209.973 309.791 210.035 309.975 209.912C310.097 209.912 310.343 209.851 310.711 209.728C311.631 209.728 312.336 209.789 312.827 209.912C313.379 210.035 313.808 210.311 314.115 210.74C314.421 211.292 314.667 211.967 314.851 212.764C314.912 213.377 314.943 214.665 314.943 216.628V234.568V235.948C314.881 236.439 314.851 237.543 314.851 239.26C314.851 241.1 314.789 242.541 314.667 243.584L314.575 247.724C314.513 248.644 314.483 249.809 314.483 251.22L314.391 252.692V258.58C314.391 262.26 314.237 265.388 313.931 267.964C313.931 268.823 313.716 269.681 313.287 270.54C312.183 270.54 310.588 270.601 308.503 270.724C307.521 270.724 306.877 270.785 306.571 270.908H305.651H305.375C304.945 270.908 304.731 270.847 304.731 270.724C304.24 270.601 303.964 270.54 303.903 270.54L303.167 270.908H294.703C294.641 270.969 294.151 271 293.231 271H289.735H286.331L284.031 271.092ZM323.818 271C323.511 271 323.051 270.969 322.438 270.908C321.825 270.785 321.089 270.693 320.23 270.632L318.298 270.172C317.991 270.111 317.746 270.049 317.562 269.988C317.439 269.865 317.409 269.773 317.47 269.712C317.47 268.117 317.378 266.001 317.194 263.364C317.194 262.444 317.163 261.647 317.102 260.972C317.041 260.236 316.979 259.623 316.918 259.132L316.734 255.176C316.734 254.133 316.673 252.815 316.55 251.22L316.458 248.368C316.458 246.037 316.427 244.228 316.366 242.94C316.305 241.652 316.274 238.953 316.274 234.844C316.274 230.98 316.305 226.993 316.366 222.884C316.427 218.775 316.611 214.88 316.918 211.2C316.918 210.525 317.654 209.973 319.126 209.544C320.046 209.421 321.579 209.36 323.726 209.36C328.694 209.36 332.343 209.268 334.674 209.084C341.911 208.961 347.37 208.9 351.05 208.9H355.098C360.127 209.023 363.991 209.207 366.69 209.452C367.671 209.452 368.377 210.617 368.806 212.948C368.99 213.377 369.205 214.481 369.45 216.26C369.634 217.18 369.879 218.315 370.186 219.664C370.247 220.032 370.247 220.4 370.186 220.768C370.186 221.075 370.186 221.259 370.186 221.32C370.125 221.933 369.787 222.24 369.174 222.24C368.929 222.179 368.561 222.148 368.07 222.148C365.494 222.148 362.335 222.363 358.594 222.792L353.718 223.16C351.694 223.405 350.099 223.559 348.934 223.62C348.75 223.62 348.505 223.988 348.198 224.724C347.953 225.521 347.677 227.361 347.37 230.244L347.186 232.544C347.186 233.341 347.278 233.863 347.462 234.108C347.646 234.292 348.045 234.384 348.658 234.384H356.846C359.238 234.384 361.967 234.537 365.034 234.844H366.138C366.935 235.028 367.426 235.335 367.61 235.764C367.855 236.132 368.009 236.531 368.07 236.96L368.438 245.148V245.424C368.438 246.467 367.334 247.08 365.126 247.264C363.838 247.571 361.385 247.724 357.766 247.724C354.638 247.724 352.614 247.693 351.694 247.632C349.915 247.632 348.842 247.663 348.474 247.724C347.799 247.908 347.37 248.276 347.186 248.828C347.002 249.319 346.91 250.177 346.91 251.404C346.91 252.201 346.849 253.336 346.726 254.808C346.665 255.544 346.634 256.709 346.634 258.304C350.621 258.304 353.565 258.243 355.466 258.12C357.551 257.936 360.495 257.844 364.298 257.844C364.543 257.844 364.789 258.059 365.034 258.488C365.341 259.101 365.831 260.481 366.506 262.628C366.874 263.855 367.242 265.388 367.61 267.228C367.733 267.657 367.794 268.117 367.794 268.608C367.794 269.896 367.181 270.54 365.954 270.54C364.359 270.54 362.213 270.601 359.514 270.724C358.103 270.847 355.895 270.908 352.89 270.908C346.45 270.908 341.605 270.939 338.354 271H323.818ZM396.439 273.208C392.084 273.208 387.699 272.717 383.283 271.736C378.928 270.693 375.34 269.283 372.519 267.504C371.783 265.296 371.231 263.088 370.863 260.88C370.495 258.672 370.035 255.513 369.483 251.404V251.128C369.606 250.392 370.004 249.84 370.679 249.472C373.01 250.883 375.248 251.956 377.395 252.692C379.542 253.367 381.903 253.704 384.479 253.704H386.687L388.159 253.796C389.57 253.796 391.011 253.581 392.483 253.152C393.28 252.845 393.832 252.263 394.139 251.404L389.263 249.012C385.522 247.233 382.148 245.332 379.143 243.308C376.015 241.039 373.776 238.156 372.427 234.66C371.752 232.759 371.415 230.673 371.415 228.404C371.415 222.884 373.102 218.437 376.475 215.064C379.419 212.059 383.406 209.912 388.435 208.624C392.79 207.581 397.574 207.06 402.787 207.06C405.854 207.06 410.086 207.397 415.483 208.072C416.035 208.195 416.802 208.317 417.783 208.44L420.543 208.992C422.628 209.36 424.162 209.544 425.143 209.544C425.204 209.544 425.296 209.636 425.419 209.82C425.603 210.004 425.756 210.157 425.879 210.28C426.124 210.709 426.37 210.924 426.615 210.924H426.707H426.799L426.983 212.856C426.983 213.776 427.075 214.757 427.259 215.8C427.443 217.333 427.535 218.989 427.535 220.768C427.535 222.301 427.443 223.405 427.259 224.08C426.952 225.307 426.4 226.196 425.603 226.748L417.047 225.644H416.127H414.839C412.754 225.644 410.362 225.859 407.663 226.288L404.627 226.932C403.891 227.055 403.523 227.177 403.523 227.3C403.523 228.772 404.474 230.152 406.375 231.44C407.295 231.931 408.215 232.36 409.135 232.728C410.055 233.035 410.638 233.249 410.883 233.372C415.422 234.66 419.347 236.899 422.659 240.088C424.192 241.56 425.388 243.124 426.247 244.78C427.106 246.436 427.535 248.031 427.535 249.564C427.535 250.484 427.412 251.465 427.167 252.508C426.738 257.108 424.99 261.095 421.923 264.468C418.918 267.473 415.146 269.681 410.607 271.092C406.682 272.503 401.959 273.208 396.439 273.208Z" fill="url(#paint1_linear)"/>
<path d="M192.584 198.016C192.272 198.043 192.035 198.033 191.874 197.984C191.681 197.938 191.506 197.922 191.35 197.935L190.929 197.972C190.666 197.838 190.527 197.693 190.513 197.537L185.662 185.223C184.583 182.235 183.513 178.994 182.452 175.501C182.441 175.377 182.415 175.253 182.373 175.131C182.328 174.978 182.283 174.824 182.238 174.671C182.053 173.995 181.946 173.486 181.916 173.142C181.883 172.768 181.891 172.5 181.94 172.338C182.006 172.018 182.195 171.844 182.507 171.817L183.444 171.735C183.821 171.733 184.337 171.704 184.993 171.646L186.398 171.523L187.057 171.513L189.913 171.263C189.947 171.291 189.998 171.334 190.066 171.391C190.162 171.414 190.257 171.422 190.351 171.413C190.351 171.413 190.367 171.412 190.398 171.409C190.426 171.375 190.453 171.326 190.479 171.261L190.85 171.181L191.037 171.165C191.352 171.169 191.79 171.146 192.352 171.097C192.891 171.144 193.707 171.12 194.799 171.024C195.048 171.348 195.398 172.293 195.849 173.858L196.467 176.068L196.875 177.495L197.207 178.598L197.413 179.335C197.794 180.811 198.142 182.086 198.456 183.16C198.702 184.176 199.049 185.451 199.498 186.984L199.653 187.679L199.674 187.913C199.687 188.069 199.715 188.208 199.757 188.33C199.752 188.268 199.763 188.219 199.792 188.185C199.82 188.151 199.832 188.103 199.826 188.041C199.81 187.854 199.815 187.727 199.84 187.662L199.873 186.952C199.981 186.03 200.086 184.716 200.188 183.008L200.321 181.298C200.38 180.884 200.424 180.487 200.453 180.107C200.483 179.727 200.515 179.378 200.55 179.061C200.557 178.777 200.572 178.587 200.595 178.491C200.618 178.394 200.628 178.33 200.625 178.299C200.682 177.508 200.778 176.634 200.915 175.679L201.051 174.535C201.119 173.522 201.251 172.504 201.444 171.481C201.502 171.067 201.597 170.713 201.729 170.418C202.353 170.363 203.004 170.259 203.683 170.105L204.432 170.04L204.756 169.964L204.849 169.956L204.9 169.999C204.94 170.09 204.975 170.134 205.006 170.131C205.225 170.112 205.332 170.087 205.33 170.056C205.327 170.025 205.326 170.009 205.326 170.009C205.354 169.975 205.367 169.942 205.364 169.911L207.939 169.686L208.267 169.657L210.042 169.455C210.479 169.416 210.821 169.371 211.068 169.318L211.958 169.24L212.473 169.195C213.004 169.148 213.314 169.64 213.404 170.67L213.28 171.955C213.199 172.465 213.161 172.752 213.167 172.814C212.636 177.17 212.145 180.547 211.694 182.945L209.055 195.914C209.06 195.977 209.02 196.059 208.935 196.161C208.88 196.26 208.809 196.345 208.721 196.415L208.346 196.448C208.222 196.459 208.068 196.504 207.886 196.583C207.767 196.656 207.614 196.701 207.426 196.717C206.958 196.758 206.597 196.759 206.341 196.718C205.899 196.694 205.522 196.695 205.209 196.723C205.152 196.791 204.984 196.837 204.703 196.861C204.271 196.962 203.4 197.07 202.089 197.184L200.637 197.311L199.467 197.414L198.858 197.467L198.437 197.504C198.34 197.481 197.993 197.464 197.394 197.454L196.411 197.54L195.939 197.534C195.533 197.569 194.958 197.651 194.215 197.779C193.846 197.874 193.302 197.953 192.584 198.016ZM221.516 196.287L220.423 196.194C219.379 196.128 218.504 196.016 217.798 195.857C217.421 195.859 217.084 195.778 216.787 195.615C216.529 195.544 216.362 195.432 216.286 195.282L214.748 189.566L214.727 189.332C214.708 189.114 214.71 188.956 214.733 188.86C214.784 188.729 214.887 188.642 215.04 188.597C217.137 189.2 219.169 189.415 221.136 189.243C221.76 189.189 222.245 189.162 222.591 189.163C223.777 189.059 224.622 188.828 225.125 188.469C225.39 188.258 225.507 187.98 225.477 187.637C225.434 187.137 225.242 186.745 224.902 186.46C224.56 186.144 224.082 185.887 223.467 185.689L221.919 185.259C221.474 185.203 220.96 185.075 220.376 184.875C220.373 184.844 220.356 184.829 220.325 184.832C220.291 184.804 220.256 184.759 220.219 184.7C220.092 184.679 219.813 184.547 219.382 184.301L219.089 184.185C219.152 184.18 219.181 184.161 219.179 184.13C219.176 184.099 219.126 184.072 219.03 184.049C218.931 183.995 218.735 183.917 218.444 183.817C218.18 183.683 217.947 183.53 217.743 183.359C217.448 183.228 217.292 183.053 217.272 182.834L217.252 182.6C216.472 182.669 215.73 181.916 215.026 180.342C214.413 178.728 214.076 177.578 214.016 176.892C213.762 173.989 214.815 171.648 217.176 169.869C219.093 168.411 221.812 167.308 225.332 166.56C227.62 166.108 230.48 165.732 233.914 165.432C234.365 165.55 234.716 165.613 234.969 165.623C235.533 165.605 235.924 165.759 236.142 166.086C236.249 166.234 236.354 166.539 236.458 167.002C236.595 167.493 236.816 168.937 237.119 171.332C237.187 171.389 237.227 171.48 237.238 171.605C237.26 171.854 236.934 172.087 236.261 172.303C235.52 172.463 235.04 172.552 234.822 172.571L233.757 172.806C232.553 173.068 231.767 173.247 231.398 173.342C230.137 173.673 229.282 174.141 228.832 174.746C228.552 175.148 228.43 175.552 228.466 175.958C228.485 176.176 228.531 176.345 228.604 176.465C228.678 176.584 228.846 176.711 229.109 176.845C229.404 176.977 230.25 177.296 231.647 177.803C233.137 178.301 234.644 178.987 236.167 179.86C237.458 180.597 238.431 181.644 239.084 183.002C239.417 183.571 239.626 184.339 239.71 185.306C239.787 186.18 239.743 186.939 239.579 187.582C238.948 189.714 237.566 191.533 235.433 193.041C234.426 193.758 233.361 194.338 232.236 194.783C231.114 195.258 230.022 195.543 228.961 195.636L222.09 196.378L221.516 196.287Z" fill="url(#paint2_linear)"/>
<defs>
<linearGradient id="paint0_linear" x1="215.911" y1="72.7049" x2="215.497" y2="194" gradientUnits="userSpaceOnUse">
<stop stop-color="#29CB6A"/>
<stop offset="0.992908" stop-color="#49DA7B"/>
</linearGradient>
<linearGradient id="paint1_linear" x1="216" y1="163" x2="216" y2="314" gradientUnits="userSpaceOnUse">
<stop stop-color="#CACACA"/>
<stop offset="1" stop-color="#D6D6D6"/>
</linearGradient>
<linearGradient id="paint2_linear" x1="207.245" y1="141.382" x2="214.044" y2="219.085" gradientUnits="userSpaceOnUse">
<stop stop-color="white"/>
</linearGradient>
</defs>
</svg>
