<svg width="193" height="309" viewBox="0 0 193 309" fill="none" xmlns="http://www.w3.org/2000/svg">
<path d="M73.1497 289.555V284.418L75.9751 275.942L84.4514 274.915L107.055 271.062C108.56 270.497 110.177 269.998 111.935 269.521C135.566 263.099 143.614 279.367 140.96 289.555C135.618 291.61 106.028 289.898 91.9003 288.785L90.8729 291.097L73.1497 289.555Z" fill="#755422"/>
<path d="M92.6709 283.391C96.9311 276.509 101.13 273.282 107.055 271.062M107.055 271.062C108.56 270.497 110.177 269.998 111.935 269.521C135.566 263.099 143.614 279.367 140.96 289.555C135.618 291.61 106.028 289.898 91.9003 288.785L90.8729 291.097L73.1497 289.555V284.418L75.9751 275.942L84.4514 274.915L107.055 271.062Z" stroke="black" stroke-width="3"/>
<path d="M73.9204 295.463C72.482 294.025 72.6361 291.097 72.8929 289.813C73.7149 290.429 84.8796 290.754 90.3593 290.84L91.3867 289.042C101.147 289.813 132.854 291.663 143.272 289.042L144.813 295.463C139.265 299.984 107.569 298.032 92.4141 296.491L91.3867 297.518C86.1639 297.433 75.3588 296.902 73.9204 295.463Z" fill="#4D3415" stroke="black" stroke-width="3"/>
<path d="M98.0651 218.149L100.634 171.401H124.008V224.057L121.439 232.276L115.018 230.478C112.107 237.413 104.384 254.674 106.028 267.209L108.339 270.291C102.432 272.603 99.0069 275 97.2945 277.226L88.8182 281.336L84.7085 276.713L82.6536 282.877L71.6087 284.932L70.8381 278.254L76.7459 273.374L74.691 270.034L79.8281 265.411C76.9513 254.315 90.7874 229.28 98.0651 218.149Z" fill="#1C2856" stroke="black" stroke-width="3"/>
<path d="M92.9278 227.098C102.38 221.344 102.346 256.037 101.147 274.103L88.5611 280.781L84.4514 276.672L82.6534 282.579L71.8653 285.148L70.8379 278.727L76.2319 273.333L74.6908 269.993L80.3418 265.884C77.6705 252.527 87.6194 234.461 92.9278 227.098Z" fill="#363D6B"/>
<path d="M98.0651 218.149L100.634 171.401H124.008V224.057L121.439 232.276L115.018 230.478C112.107 237.413 104.384 254.674 106.028 267.209L108.339 270.291C102.432 272.603 99.0069 275 97.2945 277.226L88.8182 281.336L84.7085 276.713L82.6536 282.877L71.6087 284.932L70.8381 278.254L76.7459 273.374L74.691 270.034L79.8281 265.411C76.9513 254.315 90.7874 229.28 98.0651 218.149Z" stroke="black" stroke-width="3"/>
<path d="M103.716 291.61C104.949 266.952 137.792 270.377 154.06 275.172H179.489L184.112 291.61C123.288 309.693 105.171 299.145 103.716 291.61Z" fill="#755422" stroke="black" stroke-width="3"/>
<path d="M101.147 292.124C98.6816 296.439 101.147 302.484 102.689 304.967C133.512 309.693 149.094 303.854 153.033 300.344L187.195 298.032C187.811 293.922 185.397 291.354 184.112 290.583L140.19 294.436L137.878 298.032L135.309 295.463C130.583 298.135 110.566 294.35 101.147 292.124Z" fill="#4E3415" stroke="black" stroke-width="3"/>
<path d="M141.731 229.707V208.388L152.262 215.066L151.491 234.074L158.427 236.899L173.838 272.089L162.793 270.548L145.07 243.321L141.731 244.862L135.052 237.67L141.731 229.707Z" fill="#7B8D6B"/>
<path d="M148.409 241.78L145.07 243.321M145.07 243.321L141.731 244.862L135.052 237.67L141.731 229.707V208.388L152.262 215.066L151.491 234.074M145.07 243.321L162.793 270.548L173.838 272.089L158.427 236.899L151.491 234.074M151.491 234.074L150.978 237.927" stroke="black" stroke-width="3"/>
<path d="M154.317 241.225L164.078 271.021L145.327 242.766L141.731 244.821L135.566 238.143L141.731 229.923V219.392H147.382V238.143L154.317 241.225Z" fill="#92A382"/>
<path d="M148.409 241.78L145.07 243.321M145.07 243.321L141.731 244.862L135.052 237.67L141.731 229.707V208.388L152.262 215.066L151.491 234.074M145.07 243.321L162.793 270.548L173.838 272.089L158.427 236.899L151.491 234.074M151.491 234.074L150.978 237.927" stroke="black" stroke-width="3"/>
<path d="M140.447 261.044C144.351 257.14 151.491 260.959 154.574 263.356L160.995 257.705L170.756 261.815L181.544 255.65L183.47 266.438V273.245L186.938 276.199L184.112 280.309C187.195 285.035 187.965 290.155 187.965 292.124C182.212 288.015 174.951 288.015 172.04 288.528V279.538L167.673 281.593C164.591 278.305 150.978 275.771 144.556 274.915V271.832L149.18 270.291L140.447 261.044Z" fill="#343B69"/>
<path d="M180.003 270.291L183.47 273.245M183.47 273.245L186.938 276.199L184.112 280.309C187.195 285.035 187.965 290.155 187.965 292.124C182.212 288.015 174.951 288.015 172.04 288.528V279.538L167.673 281.593C164.591 278.305 150.978 275.771 144.556 274.915V271.832L149.18 270.291L140.447 261.044C144.351 257.14 151.491 260.959 154.574 263.356L160.995 257.705L170.756 261.815L181.544 255.65L183.47 266.438V273.245Z" stroke="black" stroke-width="3"/>
<path d="M159.711 258.178C166.081 258.794 169.215 273.332 169.985 280.524L167.16 281.552C164.9 278.264 151.149 275.216 144.556 274.103V272.048L149.437 270.25C147.382 268.88 142.964 265.164 141.731 261.26C140.498 257.356 149.95 261.003 154.831 263.315L159.711 258.178Z" fill="#4C5C94"/>
<path d="M180.003 270.291L183.47 273.245M183.47 273.245L186.938 276.199L184.112 280.309C187.195 285.035 187.965 290.155 187.965 292.124C182.212 288.015 174.951 288.015 172.04 288.528V279.538L167.673 281.593C164.591 278.305 150.978 275.771 144.556 274.915V271.832L149.18 270.291L140.447 261.044C144.351 257.14 151.491 260.959 154.574 263.356L160.995 257.705L170.756 261.815L181.544 255.65L183.47 266.438V273.245Z" stroke="black" stroke-width="3"/>
<path d="M181.287 254.88C190.945 257.551 191.647 267.466 190.791 272.089C181.133 262.637 171.184 261.986 167.417 262.842L181.287 254.88Z" fill="#727FBC" stroke="black" stroke-width="3"/>
<path d="M167.417 183.216L165.619 170.887L157.913 155.476L131.457 167.805L132.741 197.857V217.892L139.933 209.416L143.786 224.314L157.913 226.112L159.454 216.608L162.536 227.396L169.472 224.314L164.078 209.416V187.069L167.417 183.216Z" fill="#343B69" stroke="black" stroke-width="3"/>
<path d="M155.344 193.706L145.07 189.34L140.19 184.716L132.741 198.073L131.97 214.769H134.025L140.19 208.861L145.07 224.529L155.344 225.3L154.06 210.145L155.344 193.706Z" fill="#4C5C94"/>
<path d="M167.417 183.216L165.619 170.887L157.913 155.476L131.457 167.805L132.741 197.857V217.892L139.933 209.416L143.786 224.314L157.913 226.112L159.454 216.608L162.536 227.396L169.472 224.314L164.078 209.416V187.069L167.417 183.216Z" stroke="black" stroke-width="3"/>
<path d="M70.5814 149.054L75.4617 115.92L85.2223 110.269L86.7635 107.443L94.4692 131.331L86.7635 195.289L63.6462 193.234V185.015L66.9854 162.411L65.4442 160.613L68.7834 155.476L66.9854 153.421L70.5814 149.054Z" fill="#4D3415" stroke="black" stroke-width="3"/>
<path d="M78.8009 114.337L75.7186 191.395L63.6462 187.028L66.2148 162.884L65.1874 160.058L68.7834 155.692L66.9854 152.609L70.8383 149.013L75.9754 115.622L78.8009 114.337Z" fill="#735321"/>
<path d="M70.5814 149.054L75.4617 115.92L85.2223 110.269L86.7635 107.443L94.4692 131.331L86.7635 195.289L63.6462 193.234V185.015L66.9854 162.411L65.4442 160.613L68.7834 155.476L66.9854 153.421L70.5814 149.054Z" stroke="black" stroke-width="3"/>
<path d="M53.3715 214.297C52.9606 207.515 59.0224 202.738 62.1047 201.197C64.4165 202.31 71.1463 204.536 79.5713 204.536C84.7084 209.673 83.2529 215.752 81.883 218.149L85.9927 223.8C92.3628 222.978 93.7841 225.341 93.6985 226.626C94.3149 228.681 89.6991 233.133 87.3141 235.102C86.9333 239.198 83.657 246.01 81.883 244.863C79.5005 243.322 79.5713 242.294 79.5713 242.294C79.3658 249.281 74.006 250.685 71.3518 250.514L69.8107 246.918L64.6735 243.835L63.1324 226.626L57.7383 236.386L59.7932 246.918C51.9847 250 49.0052 246.661 48.4914 244.606C49.7244 242.962 49.0052 237.071 48.4914 234.331L51.3169 228.681C43.9194 226.42 43.6111 220.547 44.3817 217.893L53.3715 214.297Z" fill="#6D7E5D"/>
<path d="M62.1047 201.197L62.7554 199.845L62.0922 199.526L61.4339 199.855L62.1047 201.197ZM53.3715 214.297L53.9286 215.689L54.9343 215.287L54.8688 214.206L53.3715 214.297ZM44.3817 217.893L43.8246 216.5L43.1452 216.772L42.9412 217.474L44.3817 217.893ZM63.1324 219.177L63.6738 217.778L62.1909 217.204L61.7043 218.718L63.1324 219.177ZM48.4914 234.331L47.1498 233.661L46.9241 234.112L47.0171 234.608L48.4914 234.331ZM48.4914 244.606L47.2914 243.706L46.8631 244.277L47.0362 244.97L48.4914 244.606ZM59.7932 246.918L60.344 248.313L61.5044 247.855L61.2654 246.63L59.7932 246.918ZM63.1324 226.626L64.6264 226.492L61.8195 225.9L63.1324 226.626ZM64.6735 243.835L63.1795 243.969L63.2475 244.729L63.9018 245.121L64.6735 243.835ZM69.8107 246.918L71.1894 246.327L70.9983 245.881L70.5824 245.631L69.8107 246.918ZM71.3518 250.514L69.9731 251.104L70.336 251.951L71.2552 252.01L71.3518 250.514ZM79.5713 242.294L81.0706 242.338L81.094 241.542L80.4477 241.077L79.5713 242.294ZM81.883 244.863L82.6977 243.603L82.6977 243.603L81.883 244.863ZM86.5064 232.277L85.8795 233.639L86.5064 232.277ZM80.3419 231.506L79.1788 232.453L79.727 233.126L80.5836 232.986L80.3419 231.506ZM93.6985 226.626L92.2018 226.526L92.1837 226.797L92.2617 227.057L93.6985 226.626ZM85.9927 223.8L84.7796 224.683L85.3027 225.402L86.1847 225.288L85.9927 223.8ZM81.883 218.149L80.5806 217.405L80.0994 218.247L80.6699 219.032L81.883 218.149ZM79.5713 204.536L80.6319 203.475L80.1926 203.036H79.5713V204.536ZM61.4339 199.855C59.7301 200.707 57.2711 202.41 55.2726 204.825C53.2661 207.25 51.6388 210.502 51.8743 214.387L54.8688 214.206C54.6933 211.31 55.8915 208.783 57.5837 206.738C59.284 204.684 61.397 203.228 62.7755 202.538L61.4339 199.855ZM52.8145 212.904L43.8246 216.5L44.9388 219.285L53.9286 215.689L52.8145 212.904ZM42.9412 217.474C42.4744 219.082 42.3444 221.58 43.4106 224.032C44.5065 226.553 46.7984 228.868 50.8785 230.115L51.7552 227.246C48.4378 226.232 46.8769 224.481 46.1619 222.836C45.4173 221.123 45.5184 219.357 45.8222 218.311L42.9412 217.474ZM51.6714 230.138C53.4088 229.715 56.0666 228.712 58.5545 227.043C61.0368 225.378 63.4942 222.953 64.5604 219.636L61.7043 218.718C60.9211 221.154 59.0548 223.095 56.8836 224.552C54.7182 226.004 52.3928 226.875 50.9623 227.223L51.6714 230.138ZM62.5909 220.576C64.0736 221.15 66.46 221.717 68.9157 221.573C71.3858 221.429 74.1274 220.543 75.9198 217.982L73.4621 216.262C72.3777 217.811 70.6671 218.466 68.7407 218.578C66.7998 218.692 64.8453 218.231 63.6738 217.778L62.5909 220.576ZM49.9752 228.01L47.1498 233.661L49.8331 235.002L52.6585 229.351L49.9752 228.01ZM47.0171 234.608C47.2647 235.928 47.5619 238.014 47.6479 239.946C47.691 240.915 47.6789 241.802 47.5942 242.516C47.5023 243.292 47.3492 243.629 47.2914 243.706L49.6914 245.506C50.2502 244.761 50.4695 243.745 50.5734 242.869C50.6846 241.93 50.6918 240.865 50.6449 239.813C50.5511 237.704 50.2319 235.474 49.9658 234.055L47.0171 234.608ZM47.0362 244.97C47.4037 246.44 48.5951 248.189 50.8549 249.083C53.1118 249.976 56.2239 249.939 60.344 248.313L59.2425 245.522C55.5541 246.978 53.2721 246.813 51.9587 246.293C50.6481 245.775 50.0929 244.827 49.9467 244.242L47.0362 244.97ZM61.2654 246.63L59.2106 236.099L56.2661 236.674L58.321 247.205L61.2654 246.63ZM59.0512 237.112L64.4452 227.351L61.8195 225.9L56.4255 235.661L59.0512 237.112ZM61.6383 226.76L63.1795 243.969L66.1675 243.701L64.6264 226.492L61.6383 226.76ZM63.9018 245.121L69.0389 248.204L70.5824 245.631L65.4452 242.549L63.9018 245.121ZM68.4319 247.508L69.9731 251.104L72.7305 249.923L71.1894 246.327L68.4319 247.508ZM71.2552 252.01C72.8493 252.113 75.2127 251.754 77.2471 250.312C79.3573 248.816 80.9551 246.266 81.0706 242.338L78.0719 242.25C77.982 245.309 76.7972 246.954 75.5125 247.864C74.1521 248.828 72.5085 249.085 71.4484 249.017L71.2552 252.01ZM80.4477 241.077L74.0263 236.453L72.2734 238.888L78.6948 243.511L80.4477 241.077ZM74.4641 236.948C73.609 235.393 71.5577 230.663 70.5484 224.751L67.5912 225.256C68.6588 231.51 70.825 236.556 71.8355 238.394L74.4641 236.948ZM70.5484 224.751C70.5387 224.695 70.5291 224.638 70.5197 224.581L67.5605 225.074C67.5706 225.135 67.5808 225.196 67.5912 225.256L70.5484 224.751ZM79.5713 242.294C78.0748 242.191 78.0747 242.193 78.0746 242.195C78.0745 242.195 78.0744 242.197 78.0744 242.198C78.0742 242.2 78.0741 242.203 78.0739 242.205C78.0736 242.21 78.0733 242.215 78.0731 242.22C78.0726 242.23 78.0722 242.24 78.0719 242.251C78.0712 242.272 78.0709 242.295 78.0711 242.318C78.0715 242.365 78.0737 242.416 78.0786 242.472C78.0883 242.583 78.1083 242.709 78.1436 242.848C78.2147 243.128 78.3442 243.447 78.5607 243.794C78.99 244.483 79.7516 245.27 81.0683 246.122L82.6977 243.603C81.6319 242.914 81.2377 242.417 81.1067 242.207C81.043 242.105 81.0414 242.07 81.0513 242.109C81.056 242.128 81.0629 242.162 81.0672 242.211C81.0693 242.235 81.0708 242.263 81.071 242.294C81.0711 242.31 81.071 242.326 81.0704 242.343C81.0702 242.352 81.0698 242.361 81.0694 242.37C81.0691 242.374 81.0689 242.379 81.0686 242.383C81.0685 242.386 81.0683 242.388 81.0682 242.39C81.0681 242.391 81.068 242.393 81.068 242.394C81.0679 242.395 81.0677 242.397 79.5713 242.294ZM87.1334 230.914C85.4524 230.141 83.6858 229.931 82.3912 229.9C81.7347 229.884 81.1759 229.913 80.7769 229.947C80.5768 229.964 80.4155 229.983 80.3005 229.997C80.2429 230.005 80.1968 230.011 80.1631 230.016C80.1463 230.018 80.1325 230.021 80.122 230.022C80.1167 230.023 80.1122 230.024 80.1086 230.024C80.1067 230.025 80.1051 230.025 80.1037 230.025C80.103 230.025 80.1023 230.025 80.1017 230.025C80.1014 230.025 80.101 230.026 80.1008 230.026C80.1004 230.026 80.1001 230.026 80.3419 231.506C80.5836 232.986 80.5833 232.986 80.5829 232.987C80.5828 232.987 80.5825 232.987 80.5823 232.987C80.5819 232.987 80.5815 232.987 80.5812 232.987C80.5806 232.987 80.5802 232.987 80.58 232.987C80.5795 232.987 80.5798 232.987 80.5809 232.987C80.5831 232.987 80.5883 232.986 80.5964 232.985C80.6126 232.982 80.6405 232.978 80.6791 232.973C80.7564 232.964 80.8762 232.95 81.0314 232.937C81.3427 232.91 81.7905 232.886 82.3186 232.899C83.3935 232.925 84.7093 233.101 85.8795 233.639L87.1334 230.914ZM81.5049 230.559C80.4723 229.291 79.7935 228.286 79.2719 227.182C78.7478 226.074 78.3519 224.802 77.955 222.969L75.023 223.604C75.4449 225.552 75.8998 227.069 76.5597 228.465C77.222 229.866 78.0602 231.08 79.1788 232.453L81.5049 230.559ZM81.0683 246.122C81.7241 246.546 82.4501 246.57 83.0733 246.367C83.6365 246.185 84.1038 245.828 84.4665 245.479C85.1984 244.774 85.8747 243.739 86.4489 242.646C87.6027 240.45 88.5946 237.533 88.8077 235.241L85.8205 234.963C85.6528 236.767 84.8162 239.304 83.7931 241.251C83.2789 242.23 82.7797 242.938 82.3865 243.317C82.1866 243.509 82.1039 243.528 82.1469 243.514C82.2498 243.481 82.4854 243.466 82.6977 243.603L81.0683 246.122ZM88.8077 235.241C88.8809 234.453 88.8729 233.636 88.684 232.91C88.4947 232.183 88.0607 231.341 87.1334 230.914L85.8795 233.639C85.6804 233.548 85.7155 233.416 85.7807 233.666C85.8462 233.918 85.8779 234.346 85.8205 234.963L88.8077 235.241ZM88.2691 236.259C89.5056 235.238 91.3253 233.571 92.7743 231.868C93.4951 231.021 94.1696 230.112 94.6272 229.232C95.0467 228.425 95.4671 227.301 95.1352 226.195L92.2617 227.057C92.2381 226.978 92.3126 227.181 91.9656 227.848C91.6566 228.442 91.1436 229.155 90.4894 229.924C89.1883 231.453 87.5076 232.997 86.3591 233.945L88.2691 236.259ZM95.1952 226.726C95.2797 225.458 94.6026 224.026 93.0078 223.119C91.4659 222.243 89.1412 221.882 85.8008 222.313L86.1847 225.288C89.2143 224.897 90.7853 225.307 91.5252 225.727C92.2122 226.118 92.2029 226.509 92.2018 226.526L95.1952 226.726ZM87.2058 222.918L83.0961 217.267L80.6699 219.032L84.7796 224.683L87.2058 222.918ZM83.1854 218.894C84.7725 216.116 86.3974 209.241 80.6319 203.475L78.5106 205.597C83.0195 210.105 81.7333 215.388 80.5806 217.405L83.1854 218.894ZM61.454 202.548C63.9656 203.758 70.9175 206.036 79.5713 206.036V203.036C71.3751 203.036 64.8674 200.862 62.7554 199.845L61.454 202.548ZM60.4954 226.21C62.9665 227.251 66.298 227.05 69.3467 226.478L68.7929 223.529C65.838 224.084 63.265 224.121 61.6596 223.445L60.4954 226.21ZM69.3467 226.478C73.6804 225.664 78.1054 223.962 80.2731 222.814L78.8694 220.163C76.9686 221.169 72.8301 222.771 68.7929 223.529L69.3467 226.478ZM57.7383 234.886C57.2705 234.886 56.4981 234.83 55.7773 234.667C55.4188 234.585 55.1127 234.486 54.8787 234.377C54.7639 234.323 54.6801 234.274 54.622 234.232C54.5936 234.212 54.5738 234.195 54.5608 234.183C54.5478 234.171 54.5428 234.165 54.5429 234.165L52.2002 236.039C52.6026 236.542 53.1327 236.873 53.6093 237.095C54.0972 237.323 54.6227 237.481 55.1141 237.592C56.0929 237.814 57.093 237.886 57.7383 237.886V234.886ZM72.8266 236.206C71.8986 236.411 71.1012 236.638 70.4047 237.009C69.6672 237.401 69.1258 237.908 68.628 238.546L70.9933 240.391C71.2955 240.004 71.5291 239.809 71.814 239.657C72.1398 239.484 72.6121 239.325 73.473 239.135L72.8266 236.206Z" fill="black"/>
<path d="M60.3071 217.338C74.8966 214.461 75.633 207.063 74.1774 203.724C72.4651 202.868 67.6534 201.361 62.1053 202.183C56.5571 203.005 54.1427 210.916 53.6289 214.769C50.7178 214.769 45.2038 216.567 44.3818 218.622C43.5599 220.677 45.923 224.016 47.4642 226.071L60.3071 217.338Z" fill="#79896A"/>
<path d="M62.1047 201.197L62.7554 199.845L62.0922 199.526L61.4339 199.855L62.1047 201.197ZM53.3715 214.297L53.9286 215.689L54.9343 215.287L54.8688 214.206L53.3715 214.297ZM44.3817 217.893L43.8246 216.5L43.1452 216.772L42.9412 217.474L44.3817 217.893ZM63.1324 219.177L63.6738 217.778L62.1909 217.204L61.7043 218.718L63.1324 219.177ZM48.4914 234.331L47.1498 233.661L46.9241 234.112L47.0171 234.608L48.4914 234.331ZM48.4914 244.606L47.2914 243.706L46.8631 244.277L47.0362 244.97L48.4914 244.606ZM59.7932 246.918L60.344 248.313L61.5044 247.855L61.2654 246.63L59.7932 246.918ZM63.1324 226.626L64.6264 226.492L61.8195 225.9L63.1324 226.626ZM64.6735 243.835L63.1795 243.969L63.2475 244.729L63.9018 245.121L64.6735 243.835ZM69.8107 246.918L71.1894 246.327L70.9983 245.881L70.5824 245.631L69.8107 246.918ZM71.3518 250.514L69.9731 251.104L70.336 251.951L71.2552 252.01L71.3518 250.514ZM79.5713 242.294L81.0706 242.338L81.094 241.542L80.4477 241.077L79.5713 242.294ZM81.883 244.863L81.0683 246.122L81.883 244.863ZM86.5064 232.277L85.8795 233.639L86.5064 232.277ZM80.3419 231.506L79.1788 232.453L79.727 233.126L80.5836 232.986L80.3419 231.506ZM93.6985 226.626L92.2018 226.526L92.1837 226.797L92.2617 227.057L93.6985 226.626ZM85.9927 223.8L84.7796 224.683L85.3027 225.402L86.1847 225.288L85.9927 223.8ZM81.883 218.149L80.5806 217.405L80.0994 218.247L80.6699 219.032L81.883 218.149ZM79.5713 204.536L80.6319 203.475L80.1926 203.036H79.5713V204.536ZM61.4339 199.855C59.7301 200.707 57.2711 202.41 55.2726 204.825C53.2661 207.25 51.6388 210.502 51.8743 214.387L54.8688 214.206C54.6933 211.31 55.8915 208.783 57.5837 206.738C59.284 204.684 61.397 203.228 62.7755 202.538L61.4339 199.855ZM52.8145 212.904L43.8246 216.5L44.9388 219.285L53.9286 215.689L52.8145 212.904ZM42.9412 217.474C42.4744 219.082 42.3444 221.58 43.4106 224.032C44.5065 226.553 46.7984 228.868 50.8785 230.115L51.7552 227.246C48.4378 226.232 46.8769 224.481 46.1619 222.836C45.4173 221.123 45.5184 219.357 45.8222 218.311L42.9412 217.474ZM51.6714 230.138C53.4088 229.715 56.0666 228.712 58.5545 227.043C61.0368 225.378 63.4942 222.953 64.5604 219.636L61.7043 218.718C60.9211 221.154 59.0548 223.095 56.8836 224.552C54.7182 226.004 52.3928 226.875 50.9623 227.223L51.6714 230.138ZM62.5909 220.576C64.0736 221.15 66.46 221.717 68.9157 221.573C71.3858 221.429 74.1274 220.543 75.9198 217.982L73.4621 216.262C72.3777 217.811 70.6671 218.466 68.7407 218.578C66.7998 218.692 64.8453 218.231 63.6738 217.778L62.5909 220.576ZM49.9752 228.01L47.1498 233.661L49.8331 235.002L52.6585 229.351L49.9752 228.01ZM47.0171 234.608C47.2647 235.928 47.5619 238.014 47.6479 239.946C47.691 240.915 47.6789 241.802 47.5942 242.516C47.5023 243.292 47.3492 243.629 47.2914 243.706L49.6914 245.506C50.2502 244.761 50.4695 243.745 50.5734 242.869C50.6846 241.93 50.6918 240.865 50.6449 239.813C50.5511 237.704 50.2319 235.474 49.9658 234.055L47.0171 234.608ZM47.0362 244.97C47.4037 246.44 48.5951 248.189 50.8549 249.083C53.1118 249.976 56.2239 249.939 60.344 248.313L59.2425 245.522C55.5541 246.978 53.2721 246.813 51.9587 246.293C50.6481 245.775 50.0929 244.827 49.9467 244.242L47.0362 244.97ZM61.2654 246.63L59.2106 236.099L56.2661 236.674L58.321 247.205L61.2654 246.63ZM59.0512 237.112L64.4452 227.351L61.8195 225.9L56.4255 235.661L59.0512 237.112ZM61.6383 226.76L63.1795 243.969L66.1675 243.701L64.6264 226.492L61.6383 226.76ZM63.9018 245.121L69.0389 248.204L70.5824 245.631L65.4452 242.549L63.9018 245.121ZM68.4319 247.508L69.9731 251.104L72.7305 249.923L71.1894 246.327L68.4319 247.508ZM71.2552 252.01C72.8493 252.113 75.2127 251.754 77.2471 250.312C79.3573 248.816 80.9551 246.266 81.0706 242.338L78.0719 242.25C77.982 245.309 76.7972 246.954 75.5125 247.864C74.1521 248.828 72.5085 249.085 71.4484 249.017L71.2552 252.01ZM80.4477 241.077L74.0263 236.453L72.2734 238.888L78.6948 243.511L80.4477 241.077ZM74.4641 236.948C73.6004 235.377 71.5181 230.572 70.5197 224.581L67.5605 225.074C68.6169 231.413 70.8156 236.539 71.8355 238.394L74.4641 236.948ZM79.5713 242.294C78.0748 242.191 78.0747 242.193 78.0746 242.195C78.0745 242.195 78.0744 242.197 78.0744 242.198C78.0742 242.2 78.0741 242.203 78.0739 242.205C78.0736 242.21 78.0733 242.215 78.0731 242.22C78.0726 242.23 78.0722 242.24 78.0719 242.251C78.0712 242.272 78.0709 242.295 78.0711 242.318C78.0715 242.365 78.0737 242.416 78.0786 242.472C78.0883 242.583 78.1083 242.709 78.1436 242.848C78.2147 243.128 78.3443 243.447 78.5607 243.794C78.99 244.483 79.7516 245.27 81.0683 246.122L82.6977 243.603C81.6319 242.914 81.2377 242.417 81.1067 242.207C81.043 242.105 81.0414 242.07 81.0513 242.109C81.056 242.128 81.0629 242.162 81.0672 242.211C81.0693 242.235 81.0708 242.263 81.071 242.294C81.0711 242.31 81.071 242.326 81.0704 242.343C81.0702 242.352 81.0698 242.361 81.0694 242.37C81.0691 242.374 81.0689 242.379 81.0686 242.383C81.0685 242.386 81.0683 242.388 81.0682 242.39C81.0681 242.391 81.068 242.393 81.068 242.394C81.0679 242.395 81.0677 242.397 79.5713 242.294ZM87.1334 230.914C85.4524 230.141 83.6858 229.931 82.3912 229.9C81.7347 229.884 81.1759 229.913 80.7769 229.947C80.5768 229.964 80.4155 229.983 80.3005 229.997C80.2429 230.005 80.1968 230.011 80.1631 230.016C80.1463 230.018 80.1325 230.021 80.122 230.022C80.1167 230.023 80.1122 230.024 80.1086 230.024C80.1067 230.025 80.1051 230.025 80.1037 230.025C80.103 230.025 80.1023 230.025 80.1017 230.025C80.1014 230.025 80.101 230.025 80.1009 230.026C80.1004 230.026 80.1001 230.026 80.3419 231.506C80.5836 232.986 80.5833 232.986 80.5829 232.987C80.5828 232.987 80.5825 232.987 80.5823 232.987C80.5819 232.987 80.5815 232.987 80.5812 232.987C80.5806 232.987 80.5802 232.987 80.58 232.987C80.5795 232.987 80.5798 232.987 80.5809 232.987C80.5831 232.987 80.5883 232.986 80.5964 232.985C80.6126 232.982 80.6405 232.978 80.6791 232.973C80.7564 232.964 80.8762 232.95 81.0314 232.937C81.3427 232.91 81.7905 232.886 82.3186 232.899C83.3935 232.925 84.7093 233.101 85.8795 233.639L87.1334 230.914ZM81.5049 230.559C80.4723 229.291 79.7935 228.286 79.2719 227.182C78.7478 226.074 78.3519 224.802 77.955 222.969L75.023 223.604C75.4449 225.552 75.8998 227.069 76.5597 228.465C77.222 229.866 78.0602 231.08 79.1788 232.453L81.5049 230.559ZM81.0683 246.122C81.7241 246.546 82.4501 246.57 83.0733 246.367C83.6365 246.185 84.1038 245.828 84.4665 245.479C85.1984 244.774 85.8747 243.739 86.4489 242.646C87.6027 240.45 88.5946 237.533 88.8077 235.241L85.8205 234.963C85.6528 236.767 84.8162 239.304 83.7931 241.251C83.2789 242.23 82.7797 242.938 82.3865 243.317C82.1866 243.509 82.1039 243.528 82.1469 243.514C82.2498 243.481 82.4854 243.466 82.6977 243.603L81.0683 246.122ZM88.8077 235.241C88.8809 234.453 88.8729 233.636 88.684 232.91C88.4947 232.183 88.0607 231.341 87.1334 230.914L85.8795 233.639C85.6804 233.548 85.7155 233.416 85.7807 233.666C85.8462 233.918 85.8779 234.346 85.8205 234.963L88.8077 235.241ZM88.2692 236.259C89.5056 235.238 91.3253 233.571 92.7743 231.868C93.4951 231.021 94.1696 230.112 94.6272 229.232C95.0467 228.425 95.4671 227.301 95.1352 226.195L92.2617 227.057C92.2381 226.978 92.3126 227.181 91.9656 227.848C91.6566 228.442 91.1436 229.155 90.4894 229.924C89.1883 231.453 87.5076 232.997 86.3591 233.945L88.2692 236.259ZM95.1952 226.726C95.2797 225.458 94.6026 224.026 93.0078 223.119C91.4659 222.243 89.1412 221.882 85.8008 222.313L86.1847 225.288C89.2143 224.897 90.7853 225.307 91.5252 225.727C92.2122 226.118 92.2029 226.509 92.2018 226.526L95.1952 226.726ZM87.2058 222.918L83.0961 217.267L80.6699 219.032L84.7796 224.683L87.2058 222.918ZM83.1854 218.894C84.7725 216.116 86.3974 209.241 80.6319 203.475L78.5106 205.597C83.0195 210.105 81.7333 215.388 80.5806 217.405L83.1854 218.894ZM61.454 202.548C63.9656 203.758 70.9175 206.036 79.5713 206.036V203.036C71.3751 203.036 64.8674 200.862 62.7554 199.845L61.454 202.548ZM60.4954 226.21C62.0043 226.846 63.803 227.008 65.5989 226.932C67.4147 226.854 69.3468 226.525 71.1954 226.081C74.879 225.194 78.4025 223.805 80.2731 222.814L78.8694 220.163C77.2468 221.022 73.9636 222.329 70.4937 223.164C68.7655 223.58 67.0342 223.867 65.4707 223.934C63.8873 224.002 62.5908 223.837 61.6596 223.445L60.4954 226.21ZM57.7383 234.886C57.2705 234.886 56.4981 234.83 55.7773 234.667C55.4188 234.585 55.1127 234.486 54.8787 234.377C54.7639 234.323 54.6801 234.274 54.622 234.232C54.5936 234.212 54.5738 234.195 54.5608 234.183C54.5478 234.171 54.5428 234.165 54.5429 234.165L52.2002 236.039C52.6026 236.542 53.1327 236.873 53.6093 237.095C54.0971 237.323 54.6227 237.481 55.1141 237.592C56.0929 237.814 57.093 237.886 57.7383 237.886V234.886ZM72.8266 236.206C71.8986 236.411 71.1012 236.638 70.4047 237.009C69.6672 237.401 69.1258 237.908 68.628 238.546L70.9933 240.391C71.2955 240.004 71.5291 239.809 71.814 239.657C72.1398 239.484 72.6121 239.325 73.473 239.135L72.8266 236.206Z" fill="black"/>
<path d="M61.3345 185.528L58.509 200.426C61.3858 204.125 79.4002 205.221 88.0477 205.306L89.332 189.638L74.6911 185.528L72.1225 189.638L70.5814 185.528H61.3345Z" fill="#4D3415" stroke="black" stroke-width="3"/>
<path d="M70.3245 185.487L62.105 186.515L58.7659 200.642L74.4342 204.495C72.5848 198.947 78.1158 191.053 81.1125 187.799L74.4342 185.487L72.1225 189.854L70.3245 185.487Z" fill="#755422"/>
<path d="M61.3345 185.528L58.509 200.426C61.3858 204.125 79.4002 205.221 88.0477 205.306L89.332 189.638L74.6911 185.528L72.1225 189.638L70.5814 185.528H61.3345Z" stroke="black" stroke-width="3"/>
<path d="M84.1946 136.725L81.3691 112.067L84.1946 110.526L88.5612 103.333L114.247 171.658L91.6435 185.014L84.1946 142.376L88.5612 136.725H84.1946Z" fill="#563615" stroke="black" stroke-width="3"/>
<path d="M112.192 181.932L85.7356 106.672L92.9276 95.3706L103.459 84.3257L159.711 167.805L112.192 181.932Z" fill="#9CA58F" stroke="black" stroke-width="3"/>
<path d="M95.4964 111.553L98.8356 103.077L90.1024 93.5728L80.5986 104.875L87.0201 113.351C89.075 114.173 93.5272 112.495 95.4964 111.553Z" fill="#5E0E12" stroke="black" stroke-width="3"/>
<path d="M102.688 164.209L95.2395 112.066L87.0201 113.608C82.4994 120.183 73.321 147.684 69.5537 161.383C71.8141 168.37 80.7699 179.021 84.9652 183.473C90.7188 179.98 99.178 169.175 102.688 164.209Z" fill="#5E0E12" stroke="black" stroke-width="3"/>
<path d="M97.0374 164.138L91.2631 123.625L77.2593 140.834C74.9476 147.513 73.9202 150.852 70.8379 161.383C72.5901 166.812 80.0463 175.647 83.2985 179.106C87.7587 176.392 94.3162 167.997 97.0374 164.138Z" fill="#C01D25"/>
<path d="M102.432 106.159L92.6709 96.9118L104.486 83.2983L102.432 106.159Z" fill="#96A488" stroke="black" stroke-width="3"/>
<path d="M162.793 149.311C158.824 139.294 139.676 92.8023 106.284 80.4731L102.432 84.5829C104.075 89.1036 101.747 112.152 100.377 123.368L121.182 186.299L128.117 202.738C138.392 192.669 143.529 190.152 144.813 190.152L142.501 182.703L152.776 191.95L157.399 182.703L156.629 177.822H161.252C167.622 166.932 174.523 164.723 177.177 164.979C177.177 164.979 166.762 159.329 162.793 149.311Z" fill="#4D3415" stroke="black" stroke-width="3"/>
<path d="M114.761 104.361C114.555 101.689 109.024 88.8636 106.284 82.7847L103.202 84.8395L100.377 123.111L127.861 200.683C130.326 192.874 123.237 140.235 119.127 114.378H110.394L114.761 104.361Z" fill="#725120" stroke="black" stroke-width="3"/>
<path d="M133.768 159.842C138.392 157.959 148.05 152.804 149.694 147.256" stroke="black" stroke-width="3"/>
<ellipse cx="142.118" cy="128.866" rx="4.62345" ry="8.21946" transform="rotate(-24.1222 142.118 128.866)" fill="#332514"/>
<ellipse cx="135.26" cy="170.545" rx="2.63354" ry="4.68185" transform="rotate(-24.1222 135.26 170.545)" fill="#332514"/>
<ellipse cx="161.973" cy="163.352" rx="2.63354" ry="4.68185" transform="rotate(-24.1222 161.973 163.352)" fill="#332514"/>
<path d="M123.751 148.54V144.687V143.403L125.292 137.752L113.733 135.44V146.485V167.291L122.466 161.126L123.237 156.76C123.237 156.76 125.907 154.766 126.062 152.907C126.223 150.984 123.751 148.54 123.751 148.54Z" fill="#79896A" stroke="black" stroke-width="3"/>
<path d="M102.945 150.338C99.2462 102.254 111.678 91.4321 118.356 92.0314C123.836 91.0896 132.997 100.559 128.888 145.972C125.977 145.287 119.127 143.917 117.586 143.403L121.182 150.338L116.302 153.677L119.898 155.475L121.439 159.842H127.09L122.209 165.236L121.439 189.381C110.343 190.408 101.061 186.213 97.8079 183.987C101.096 177.617 102.602 162.325 102.945 155.475L106.284 154.191L102.945 150.338Z" fill="#4D3415" stroke="black" stroke-width="3" stroke-linejoin="bevel"/>
<path d="M104.229 157.233L98.8354 183.689C101.318 186.001 107.26 190.11 111.165 188.056C108.493 178.603 116.387 165.795 120.668 160.572L119.641 155.691L116.045 153.123L120.668 150.297L113.733 141.051L123.494 138.482V120.759C123.066 112.282 120.001 84.7473 111.165 96.871C102.329 108.995 102.86 137.54 104.229 150.297L107.825 154.407L104.229 157.233Z" fill="#755422"/>
<path d="M102.945 150.338C99.2462 102.254 111.678 91.4321 118.356 92.0314C123.836 91.0896 132.997 100.559 128.888 145.972C125.977 145.287 119.127 143.917 117.586 143.403L121.182 150.338L116.302 153.677L119.898 155.475L121.439 159.842H127.09L122.209 165.236L121.439 189.381C110.343 190.408 101.061 186.213 97.8079 183.987C101.096 177.617 102.602 162.325 102.945 155.475L106.284 154.191L102.945 150.338Z" stroke="black" stroke-width="3" stroke-linejoin="bevel"/>
<path d="M123.75 189.124C111.832 191.179 101.061 186.812 97.2939 183.987C95.7528 186.812 92.9273 194.107 93.9548 200.683C97.8932 203.166 109.572 207.001 124.778 202.481C123.339 198.576 123.493 191.949 123.75 189.124Z" fill="#4D3415" stroke="black" stroke-width="3"/>
<path d="M116.815 193.192C108.137 194.731 100.317 189.4 97.5737 187.285C96.4516 189.4 94.3942 194.86 95.1424 199.782C98.4696 200.946 107.07 205.237 117.586 202.696C116.539 199.774 116.628 195.307 116.815 193.192Z" fill="#745321"/>
<path d="M92.157 226.882C88.2528 216.813 93.0989 206.419 96.0099 202.48C106.49 205.357 112.534 205.049 114.247 204.535C121.439 206.076 117.843 216.865 119.127 216.865C120.154 216.865 122.809 219.776 124.007 221.231L133.768 222.772C136.234 227.704 132.74 232.019 130.686 233.56H128.421C128.772 238.285 125.755 242.781 124.007 244.605L121.182 242.55C121.695 251.284 114.247 253.082 114.247 252.054C114.247 251.232 112.363 249.486 111.421 248.715L106.798 247.431C105.154 246.198 102.003 235.444 100.633 230.221L97.8077 240.495C99.8625 243.783 100.547 248.544 100.633 250.513C98.9892 252.157 95.8384 252.91 94.4685 253.082C89.1259 253.903 88.6466 248.972 89.0748 246.403C84.9651 240.239 89.4172 230.82 92.157 226.882Z" fill="#7B8D6B"/>
<path d="M121.182 242.55C121.695 251.284 114.247 253.082 114.247 252.054C114.247 251.232 112.363 249.486 111.421 248.715L106.798 247.431C105.154 246.198 102.003 235.444 100.633 230.221L97.8077 240.495C99.8625 243.783 100.547 248.544 100.633 250.513C98.9892 252.157 95.8384 252.91 94.4685 253.082C89.1259 253.903 88.6466 248.972 89.0748 246.403C84.9651 240.239 89.4172 230.82 92.157 226.882C88.2528 216.813 93.0989 206.419 96.0099 202.48C106.49 205.357 112.534 205.049 114.247 204.535C121.439 206.076 117.843 216.865 119.127 216.865C120.154 216.865 122.809 219.776 124.007 221.231L133.768 222.772C136.234 227.704 132.74 232.019 130.686 233.56H128.421M121.182 242.55L113.219 238.954L106.798 226.111M121.182 242.55L124.007 244.605C125.755 242.781 128.772 238.285 128.421 233.56M114.247 222.002L119.127 230.221L128.117 231.762C128.278 232.362 128.377 232.963 128.421 233.56" stroke="black" stroke-width="3"/>
<path d="M115.531 214.769L110.908 205.008L96.7807 201.669C88.3559 212.354 90.0167 222.56 91.9001 226.327C85.3246 235.574 87.2767 243.708 89.0747 246.619L90.6158 252.527H95.4961L94.4687 240.711L100.12 227.868L106.541 247.133L111.678 248.931L115.531 252.527L120.411 248.16L110.137 242.253L107.312 226.327L113.733 239.684L124.778 243.537L126.833 238.4L116.302 231.978L110.908 221.704L115.531 214.769Z" fill="#8A9A7D"/>
<path d="M121.182 242.55C121.695 251.284 114.247 253.082 114.247 252.054C114.247 251.232 112.363 249.486 111.421 248.715L106.798 247.431C105.154 246.198 102.003 235.444 100.633 230.221L97.8077 240.495C99.8625 243.783 100.547 248.544 100.633 250.513C98.9892 252.157 95.8384 252.91 94.4685 253.082C89.1259 253.903 88.6466 248.972 89.0748 246.403C84.9651 240.239 89.4172 230.82 92.157 226.882C88.2528 216.813 93.0989 206.419 96.0099 202.48C106.49 205.357 112.534 205.049 114.247 204.535C121.439 206.076 117.843 216.865 119.127 216.865C120.154 216.865 122.809 219.776 124.007 221.231L133.768 222.772C136.234 227.704 132.74 232.019 130.686 233.56H128.421M121.182 242.55L113.219 238.954L106.798 226.111M121.182 242.55L124.007 244.605C125.755 242.781 128.772 238.285 128.421 233.56M114.247 222.002L119.127 230.221L128.117 231.762C128.278 232.362 128.377 232.963 128.421 233.56" stroke="black" stroke-width="3"/>
<path d="M61.8479 123.625L33.8504 121.827L32.5661 114.635L26.6584 113.608L24.8604 108.214L31.7955 99.9943C32.412 97.7339 30.34 93.4016 29.2269 91.5179L21.7781 88.6925H12.2743L5.59599 78.675C12.9935 69.6336 10.0482 58.1264 7.65086 53.5029L2.25684 46.3109C12.2743 -6.60189 76.7457 -3.00588 98.0649 10.0939C119.384 23.1937 120.668 53.2461 118.357 62.7498C116.507 70.3528 100.976 87.3226 93.4415 94.8571L83.6809 110.782L61.8479 123.625Z" fill="#79896A" stroke="black" stroke-width="3"/>
<path d="M17.6683 79.9593C26.6054 79.9593 36.1622 71.3687 36.1622 61.7223C36.1622 52.0759 29.4309 42.7148 20.4938 42.7148C15.7782 42.7148 7.52628 45.4057 4.5686 48.8794C8.62677 53.5094 15.8188 66.8513 7.39395 75.9877C10.1884 78.4692 13.7671 79.9593 17.6683 79.9593Z" fill="#627254"/>
<path d="M77.5161 29.6151C74.6392 21.8067 86.078 11.9776 92.157 8.03906C122.209 18.3134 118.87 61.2087 118.87 61.2087C119.205 62.4963 103.029 87.0206 92.9277 95.6277L84.7083 110.525L69.8105 119.259L75.9751 108.984C81.5232 88.8466 79.3141 84.6684 77.5161 85.0965C70.0673 84.0691 62.6184 80.7299 56.4538 73.0242C41.1329 53.8728 56.6147 29.8059 77.5161 29.6151Z" fill="#627254"/>
<path d="M61.8479 123.625L33.8504 121.827L32.5661 114.635L26.6584 113.608L24.8604 108.214L31.7955 99.9943C32.412 97.7339 30.34 93.4016 29.2269 91.5179L21.7781 88.6925H12.2743L5.59599 78.675C12.9935 69.6336 10.0482 58.1264 7.65086 53.5029L2.25684 46.3109C12.2743 -6.60189 76.7457 -3.00588 98.0649 10.0939C119.384 23.1937 120.668 53.2461 118.357 62.7498C116.507 70.3528 100.976 87.3226 93.4415 94.8571L83.6809 110.782L61.8479 123.625Z" stroke="black" stroke-width="3"/>
<path d="M25.8877 113.351L38.2169 114.892M62.3616 114.892H71.0947L75.4613 108.728" stroke="black" stroke-width="3"/>
<path d="M69.8105 109.241L29.7406 107.443C32.3092 106.587 36.984 103.179 35.1346 96.3978C34.364 93.5521 31.8982 86.9678 28.1994 83.3961C41.7215 81.9047 56.1312 84.0072 62.8753 85.6098C74.3825 91.3634 72.2934 103.761 69.8105 109.241Z" fill="#551C1D"/>
<path d="M17.1545 85.6098C20.6373 84.5242 24.383 83.817 28.1994 83.3961M28.1994 83.3961C41.7215 81.9047 56.1312 84.0072 62.8753 85.6098C74.3825 91.3634 72.2934 103.761 69.8105 109.241L29.7406 107.443C32.3092 106.587 36.984 103.179 35.1346 96.3978C34.364 93.5521 31.8982 86.9678 28.1994 83.3961Z" stroke="black" stroke-width="3"/>
<path d="M51.0598 84.3258C51.0049 84.782 45.9105 88.3013 42.0698 89.7198C36.592 91.7431 30.2543 91.8261 27.172 91.0042C24.0897 90.1822 20.8362 86.552 19.7231 85.0965C27.172 81.5005 51.2152 83.0364 51.0598 84.3258Z" fill="#C78E86" stroke="black" stroke-width="3"/>
<path d="M70.0672 93.316C49.313 92.2886 44.3814 102.306 44.1245 107.7L69.5535 108.984C72.9748 102.205 71.2848 95.8862 70.0672 93.316Z" fill="#86534D" stroke="black" stroke-width="3"/>
<path d="M58.2519 103.847C54.9641 104.669 53.4572 107.272 53.1147 108.47L70.0674 109.241L71.3517 103.59C68.2694 103.248 61.5397 103.025 58.2519 103.847Z" fill="#C58C84" stroke="black" stroke-width="3"/>
<path d="M27.1721 95.8844L28.9701 83.5552L39.7582 83.2983L41.2993 95.3707L27.1721 95.8844Z" fill="#C7D197" stroke="black" stroke-width="3"/>
<path d="M28.7134 94.343L29.9556 85.7881L37.4092 85.6099L38.474 93.9866L28.7134 94.343Z" fill="#E8F1BE"/>
<path d="M46.1795 94.0863L45.4089 88.9491L51.0598 84.5825L55.4264 93.5726L46.1795 94.0863Z" fill="#E8F1BE" stroke="black" stroke-width="3"/>
<path d="M58.252 90.4902L59.2794 85.353C62.1944 85.7145 63.6263 86.2314 65.7008 87.9216L63.1323 93.8293L58.252 90.4902Z" fill="#E8F1BE" stroke="black" stroke-width="3"/>
<path d="M28.7134 100.251L32.3094 107.186H37.4466L38.2171 100.251H28.7134Z" fill="#E8F1BE" stroke="black" stroke-width="3"/>
<path d="M57.4814 98.9665L59.5363 104.361L64.6735 107.957L68.2695 103.59L67.2421 96.9116L57.4814 98.9665Z" fill="#E8F1BE" stroke="black" stroke-width="3"/>
<ellipse cx="37.7248" cy="71.1846" rx="2.05487" ry="4.10973" transform="rotate(30.9167 37.7248 71.1846)" fill="black"/>
<ellipse cx="46.6073" cy="68.9276" rx="2.49325" ry="4.9865" transform="rotate(-12.4559 46.6073 68.9276)" fill="black"/>
<path d="M97.5513 77.6475L94.2121 81.7572L94.9827 87.4081L88.8181 93.059" stroke="black" stroke-width="3" stroke-linecap="square"/>
<circle cx="16.3841" cy="64.0344" r="14.3841" fill="black"/>
<circle cx="16.1273" cy="64.2911" r="12.586" fill="#C7D197"/>
<path d="M26.6584 63.5205C26.6584 69.7623 21.5985 74.8223 15.3567 74.8223C9.1149 74.8223 4.05493 69.7623 4.05493 63.5205C4.05493 57.2787 9.1149 52.2188 15.3567 52.2188C21.5985 52.2188 26.6584 57.2787 26.6584 63.5205Z" fill="#E6EFBC"/>
<circle cx="75.9751" cy="57.356" r="22.6035" fill="black"/>
<circle cx="75.7183" cy="57.613" r="19.7781" fill="#C7D197"/>
<circle cx="74.1771" cy="56.0719" r="18.2369" fill="#E6EFBC"/>
<circle cx="14.843" cy="61.4655" r="2.05487" fill="black"/>
<circle cx="79.0573" cy="57.8698" r="2.05487" fill="black"/>
</svg>
