<svg width="84" height="41" viewBox="0 0 84 41" fill="none" xmlns="http://www.w3.org/2000/svg">
<circle cx="20.4999" cy="20.5" r="18.5" fill="black"/>
<circle cx="20.4999" cy="20.5" r="10.5" fill="#BBFBFF"/>
<rect x="6.99989" y="10" width="26" height="1" fill="black"/>
<rect x="6.99989" y="12" width="26" height="1" fill="black"/>
<rect x="6.99989" y="14" width="26" height="1" fill="black"/>
<rect x="6.99989" y="16" width="26" height="1" fill="black"/>
<rect x="6.99989" y="18" width="26" height="1" fill="black"/>
<rect x="6.99989" y="20" width="26" height="1" fill="black"/>
<rect x="6.99989" y="22" width="26" height="1" fill="black"/>
<rect x="6.99989" y="24" width="26" height="1" fill="black"/>
<rect x="6.99989" y="26" width="26" height="1" fill="black"/>
<rect x="6.99989" y="28" width="26" height="1" fill="black"/>
<rect x="6.99989" y="30" width="26" height="1" fill="black"/>
<g filter="url(#filter0_f)">
<circle cx="20.4999" cy="20.5" r="10.5" fill="#1ED6FF" fill-opacity="0.5"/>
</g>
<circle cx="63.4999" cy="20.5" r="18.5" fill="black"/>
<circle cx="63.4999" cy="20.5" r="10.5" fill="#BBFBFF"/>
<rect x="49.9999" y="10" width="26" height="1" fill="black"/>
<rect x="49.9999" y="12" width="26" height="1" fill="black"/>
<rect x="49.9999" y="14" width="26" height="1" fill="black"/>
<rect x="49.9999" y="16" width="26" height="1" fill="black"/>
<rect x="49.9999" y="18" width="26" height="1" fill="black"/>
<rect x="49.9999" y="20" width="26" height="1" fill="black"/>
<rect x="49.9999" y="22" width="26" height="1" fill="black"/>
<rect x="49.9999" y="24" width="26" height="1" fill="black"/>
<rect x="49.9999" y="26" width="26" height="1" fill="black"/>
<rect x="49.9999" y="28" width="26" height="1" fill="black"/>
<rect x="49.9999" y="30" width="26" height="1" fill="black"/>
<g filter="url(#filter1_f)">
<circle cx="63.4999" cy="20.5" r="10.5" fill="#1ED6FF" fill-opacity="0.5"/>
</g>
<defs>
<filter id="filter0_f" x="-0.000106812" y="0" width="41" height="41" filterUnits="userSpaceOnUse" color-interpolation-filters="sRGB">
<feFlood flood-opacity="0" result="BackgroundImageFix"/>
<feBlend mode="normal" in="SourceGraphic" in2="BackgroundImageFix" result="shape"/>
<feGaussianBlur stdDeviation="5" result="effect1_foregroundBlur"/>
</filter>
<filter id="filter1_f" x="42.9999" y="0" width="41" height="41" filterUnits="userSpaceOnUse" color-interpolation-filters="sRGB">
<feFlood flood-opacity="0" result="BackgroundImageFix"/>
<feBlend mode="normal" in="SourceGraphic" in2="BackgroundImageFix" result="shape"/>
<feGaussianBlur stdDeviation="5" result="effect1_foregroundBlur"/>
</filter>
</defs>
</svg>
