<svg width="173" height="220" viewBox="0 0 173 220" fill="none" xmlns="http://www.w3.org/2000/svg">
<rect x="23" y="85.0002" width="43" height="60" rx="10" fill="#1470C6"/>
<rect x="41" y="101" width="22" height="40" rx="8" fill="#238AEA"/>
<rect x="25.5" y="87.5002" width="38" height="55" rx="7.5" stroke="black" stroke-width="5"/>
<rect x="26.0314" y="1.05908" width="43" height="91.1989" rx="10" transform="rotate(2.07564 26.0314 1.05908)" fill="#1470C6"/>
<rect x="42.9526" y="38.7449" width="21.5" height="48.0709" rx="8" transform="rotate(2.07564 42.9526 38.7449)" fill="#238AEA"/>
<rect x="28.4393" y="3.64799" width="38" height="86.1989" rx="7.5" transform="rotate(2.07564 28.4393 3.64799)" stroke="black" stroke-width="5"/>
<rect x="18" y="78.0002" width="53" height="19" rx="9.5" fill="#1470C6"/>
<rect x="30" y="86.0002" width="37" height="9" rx="4.5" fill="#238AEA"/>
<rect x="20.5" y="80.5002" width="48" height="14" rx="7" stroke="black" stroke-width="5"/>
<path d="M19.7143 134.61C22.9286 119.13 67.3195 119.13 69.2143 134.61L81.9456 207.274C83.0178 213.394 78.3086 219 72.0956 219H15.1749C8.872 219 4.14085 213.24 5.3654 207.057L19.7143 134.61Z" fill="#1470C6"/>
<path d="M33.5138 138.345C35.7662 127.218 66.8734 127.218 68.2011 138.345L73.0726 177.482C73.7384 182.831 61.2487 188.591 56.3679 186.303V186.303C51.2672 183.913 31.7826 162.07 32.1926 156.451L33.5138 138.345Z" fill="#238AEA"/>
<path d="M66.7328 134.914L66.7407 134.978L66.7518 135.041L79.4831 207.706C80.2872 212.296 76.7554 216.5 72.0956 216.5H15.1749C10.4477 216.5 6.89935 212.18 7.81776 207.543L22.1621 135.118C22.1628 135.115 22.1635 135.111 22.1642 135.108C22.7229 132.441 25.161 130.018 29.4999 128.21C33.7627 126.434 39.3276 125.5 44.9591 125.5C50.595 125.5 56.0621 126.435 60.141 128.197C64.2945 129.992 66.419 132.35 66.7328 134.914Z" stroke="black" stroke-width="5"/>
<path d="M2 204C2 190.193 13.1929 179 27 179H59C72.8071 179 84 190.193 84 204V214C84 216.761 81.7614 219 79 219H7C4.23858 219 2 216.761 2 214V204Z" fill="#1470C6"/>
<path d="M26 210.833C26 199.327 35.3274 190 46.8333 190H58.1667C69.6726 190 79 199.327 79 210.833V210.833C79 213.135 77.1345 215 74.8333 215H30.1667C27.8655 215 26 213.135 26 210.833V210.833Z" fill="#238AEA"/>
<path d="M27 181.5H59C71.4264 181.5 81.5 191.574 81.5 204V214C81.5 215.381 80.3807 216.5 79 216.5H7C5.61929 216.5 4.5 215.381 4.5 214V204C4.5 191.574 14.5736 181.5 27 181.5Z" stroke="black" stroke-width="5"/>
<rect width="43" height="60" rx="10" transform="matrix(-1 0 0 1 150.052 85.0002)" fill="#1470C6"/>
<rect width="20" height="40" rx="8" transform="matrix(-1 0 0 1 146 101)" fill="#238AEA"/>
<rect x="-2.5" y="2.5" width="38" height="55" rx="7.5" transform="matrix(-1 0 0 1 145.052 85.0002)" stroke="black" stroke-width="5"/>
<rect width="43" height="91.1989" rx="10" transform="matrix(-0.999344 0.0362188 0.0362188 0.999344 147.02 1.05908)" fill="#1470C6"/>
<rect width="21.5" height="48.0709" rx="8" transform="matrix(-0.999344 0.0362188 0.0362188 0.999344 143.099 38.7449)" fill="#238AEA"/>
<rect x="-2.40781" y="2.58891" width="38" height="86.1989" rx="7.5" transform="matrix(-0.999344 0.0362188 0.0362188 0.999344 142.112 1.14799)" stroke="black" stroke-width="5"/>
<rect width="53" height="19" rx="9.5" transform="matrix(-1 0 0 1 155.052 78.0002)" fill="#1470C6"/>
<rect width="37" height="9" rx="4.5" transform="matrix(-1 0 0 1 151.052 86.0002)" fill="#238AEA"/>
<rect x="-2.5" y="2.5" width="48" height="14" rx="7" transform="matrix(-1 0 0 1 150.052 78.0002)" stroke="black" stroke-width="5"/>
<path d="M153.337 134.61C150.123 119.13 105.732 119.13 103.837 134.61L91.1061 207.274C90.0339 213.394 94.743 219 100.956 219H157.877C164.18 219 168.911 213.24 167.686 207.057L153.337 134.61Z" fill="#1470C6"/>
<path d="M115.565 138.344C117.818 127.218 148.925 127.218 150.253 138.344L155.124 177.482C155.79 182.831 143.3 188.591 138.42 186.303V186.303C133.319 183.913 113.834 162.069 114.244 156.451L115.565 138.344Z" fill="#238AEA"/>
<path d="M106.319 134.914L106.311 134.978L106.3 135.041L93.5686 207.706C92.7644 212.296 96.2963 216.5 100.956 216.5H157.877C162.604 216.5 166.152 212.18 165.234 207.543L150.89 135.118C150.889 135.115 150.888 135.111 150.887 135.108C150.329 132.441 147.891 130.018 143.552 128.21C139.289 126.434 133.724 125.5 128.093 125.5C122.457 125.5 116.99 126.435 112.911 128.197C108.757 129.992 106.633 132.35 106.319 134.914Z" stroke="black" stroke-width="5"/>
<path d="M171.052 204C171.052 190.193 159.859 179 146.052 179H114.052C100.245 179 89.0517 190.193 89.0517 204V214C89.0517 216.761 91.2902 219 94.0517 219H166.052C168.813 219 171.052 216.761 171.052 214V204Z" fill="#1470C6"/>
<path d="M167.052 210.833C167.052 199.327 157.724 190 146.218 190H134.885C123.379 190 114.052 199.327 114.052 210.833V210.833C114.052 213.135 115.917 215 118.218 215H162.885C165.186 215 167.052 213.135 167.052 210.833V210.833Z" fill="#238AEA"/>
<path d="M146.052 181.5H114.052C101.625 181.5 91.5517 191.574 91.5517 204V214C91.5517 215.381 92.671 216.5 94.0517 216.5H166.052C167.432 216.5 168.552 215.381 168.552 214V204C168.552 191.574 158.478 181.5 146.052 181.5Z" stroke="black" stroke-width="5"/>
</svg>
