<svg width="169" height="210" viewBox="0 0 169 210" fill="none" xmlns="http://www.w3.org/2000/svg">
<rect x="2.31102" y="2.7651" width="21.9519" height="78.8728" rx="10.976" transform="matrix(0.9941 0.108471 -0.0696906 0.997569 39.082 1.0683)" fill="#14342F" stroke="black" stroke-width="5"/>
<rect x="2.48906" y="2.60599" width="21.9519" height="78.8728" rx="10.976" transform="matrix(0.999101 0.0424016 -0.00347626 0.999994 33.0123 56.683)" fill="#14342F" stroke="black" stroke-width="5"/>
<rect width="17.6414" height="54.8991" rx="8.82072" transform="matrix(0.9941 0.108471 -0.0696906 0.997569 43.666 30.2209)" fill="#1C4942"/>
<rect width="17.6414" height="54.8991" rx="8.82072" transform="matrix(0.999101 0.0424016 -0.00347626 0.999994 39.6952 85.3164)" fill="#1C4942"/>
<rect x="2.31102" y="2.7651" width="21.9519" height="78.8728" rx="10.976" transform="matrix(0.9941 0.108471 -0.0696906 0.997569 39.082 1.0683)" stroke="black" stroke-width="5"/>
<rect x="2.48906" y="2.60599" width="21.9519" height="78.8728" rx="10.976" transform="matrix(0.999101 0.0424016 -0.00347626 0.999994 33.0123 56.683)" stroke="black" stroke-width="5"/>
<circle cx="46" cy="73.9995" r="17" fill="#1470C6"/>
<circle cx="50.5" cy="74.4998" r="8.5" fill="#238AEA"/>
<circle cx="46" cy="73.9995" r="14.5" stroke="black" stroke-width="5"/>
<path d="M19.7143 124.61C22.9286 109.13 67.3196 109.13 69.2143 124.61L81.9456 197.274C83.0178 203.394 78.3086 209 72.0956 209H15.1749C8.87202 209 4.14086 203.24 5.36541 197.057L19.7143 124.61Z" fill="#1470C6"/>
<path d="M33.5138 128.344C35.7662 117.218 66.8734 117.218 68.2011 128.344L73.0726 167.482C73.7385 172.831 61.2487 178.591 56.3679 176.303V176.303C51.2672 173.913 31.7826 152.069 32.1926 146.451L33.5138 128.344Z" fill="#238AEA"/>
<path d="M66.7328 124.914L66.7407 124.978L66.7518 125.041L79.4831 197.706C80.2873 202.296 76.7554 206.5 72.0956 206.5H15.1749C10.4477 206.5 6.89936 202.18 7.81778 197.543L22.1621 125.118C22.1628 125.115 22.1635 125.111 22.1642 125.108C22.7229 122.441 25.161 120.018 29.4999 118.21C33.7627 116.434 39.3276 115.5 44.9591 115.5C50.595 115.5 56.0622 116.435 60.141 118.197C64.2946 119.992 66.419 122.35 66.7328 124.914Z" stroke="black" stroke-width="5"/>
<path d="M2.00002 194C2.00002 180.193 13.1929 169 27 169H59C72.8071 169 84 180.193 84 194V204C84 206.761 81.7614 209 79 209H7.00002C4.23859 209 2.00002 206.761 2.00002 204V194Z" fill="#1470C6"/>
<path d="M26 200.833C26 189.327 35.3274 180 46.8333 180H58.1667C69.6726 180 79 189.327 79 200.833V200.833C79 203.135 77.1345 205 74.8333 205H30.1667C27.8655 205 26 203.135 26 200.833V200.833Z" fill="#238AEA"/>
<path d="M27 171.5H59C71.4264 171.5 81.5 181.574 81.5 194V204C81.5 205.381 80.3807 206.5 79 206.5H7.00002C5.6193 206.5 4.50002 205.381 4.50002 204V194C4.50002 181.574 14.5736 171.5 27 171.5Z" stroke="black" stroke-width="5"/>
<rect x="-2.31102" y="2.7651" width="21.9519" height="78.8728" rx="10.976" transform="matrix(-0.9941 0.108471 0.0696906 0.997569 125.071 1.56966)" fill="#14342F" stroke="black" stroke-width="5"/>
<rect x="-2.48906" y="2.60599" width="21.9519" height="78.8728" rx="10.976" transform="matrix(-0.999101 0.0424016 0.00347626 0.999994 130.762 56.8941)" fill="#14342F" stroke="black" stroke-width="5"/>
<rect width="17.6414" height="54.8991" rx="8.82072" transform="matrix(-0.9941 0.108471 0.0696906 0.997569 130.082 30.2209)" fill="#1C4942"/>
<rect width="17.6414" height="54.8991" rx="8.82072" transform="matrix(-0.999101 0.0424016 0.00347626 0.999994 135.053 85.3167)" fill="#1C4942"/>
<rect x="-2.31102" y="2.7651" width="21.9519" height="78.8728" rx="10.976" transform="matrix(-0.9941 0.108471 0.0696906 0.997569 125.071 1.56966)" stroke="black" stroke-width="5"/>
<rect x="-2.48906" y="2.60599" width="21.9519" height="78.8728" rx="10.976" transform="matrix(-0.999101 0.0424016 0.00347626 0.999994 130.762 56.8941)" stroke="black" stroke-width="5"/>
<circle r="17" transform="matrix(-1 0 0 1 122.748 73.9995)" fill="#1470C6"/>
<circle r="8.5" transform="matrix(-1 0 0 1 127.248 74.4998)" fill="#238AEA"/>
<circle r="14.5" transform="matrix(-1 0 0 1 122.748 73.9995)" stroke="black" stroke-width="5"/>
<path d="M149.033 124.61C145.819 109.13 101.428 109.13 99.5334 124.61L86.8021 197.274C85.7299 203.394 90.4391 209 96.6521 209H153.573C159.876 209 164.607 203.24 163.382 197.057L149.033 124.61Z" fill="#1470C6"/>
<path d="M112.261 128.344C114.514 117.218 145.621 117.218 146.949 128.344L151.82 167.482C152.486 172.831 139.996 178.591 135.116 176.303V176.303C130.015 173.913 110.53 152.069 110.94 146.451L112.261 128.344Z" fill="#238AEA"/>
<path d="M102.015 124.914L102.007 124.978L101.996 125.041L89.2646 197.706C88.4605 202.296 91.9923 206.5 96.6521 206.5H153.573C158.3 206.5 161.848 202.18 160.93 197.543L146.586 125.118C146.585 125.115 146.584 125.111 146.583 125.108C146.025 122.441 143.587 120.018 139.248 118.21C134.985 116.434 129.42 115.5 123.789 115.5C118.153 115.5 112.686 116.435 108.607 118.197C104.453 119.992 102.329 122.35 102.015 124.914Z" stroke="black" stroke-width="5"/>
<path d="M166.748 194C166.748 180.193 155.555 169 141.748 169H109.748C95.9406 169 84.7477 180.193 84.7477 194V204C84.7477 206.761 86.9863 209 89.7477 209H161.748C164.509 209 166.748 206.761 166.748 204V194Z" fill="#1470C6"/>
<path d="M162.748 200.833C162.748 189.327 153.42 180 141.914 180H130.581C119.075 180 109.748 189.327 109.748 200.833V200.833C109.748 203.135 111.613 205 113.914 205H158.581C160.882 205 162.748 203.135 162.748 200.833V200.833Z" fill="#238AEA"/>
<path d="M141.748 171.5H109.748C97.3213 171.5 87.2477 181.574 87.2477 194V204C87.2477 205.381 88.367 206.5 89.7477 206.5H161.748C163.128 206.5 164.248 205.381 164.248 204V194C164.248 181.574 154.174 171.5 141.748 171.5Z" stroke="black" stroke-width="5"/>
</svg>
