<svg width="177" height="198" viewBox="0 0 177 198" fill="none" xmlns="http://www.w3.org/2000/svg">
<rect x="42.6009" y="3.29627" width="28" height="79" rx="14" transform="rotate(5 42.6009 3.29627)" fill="#14342F" stroke="black" stroke-width="5"/>
<rect x="46.1558" y="29.4888" width="21.6002" height="54.9824" rx="10.8001" transform="rotate(5 46.1558 29.4888)" fill="#1C4942"/>
<rect x="42.601" y="3.29627" width="28" height="79" rx="14" transform="rotate(5 42.601 3.29627)" stroke="black" stroke-width="5"/>
<path d="M36.8886 48.3919C45.6077 40.2912 52.4691 40.2378 61.3133 48.2016C82.1724 66.9843 95.2683 149.619 75.5542 173.276C65.1538 185.756 17.8602 179.886 11.5928 168.457C-2.30445 143.114 16.3247 67.4972 36.8886 48.3919Z" fill="#1470C6"/>
<path d="M45.7163 59.4966C51.8464 53.8014 56.6703 53.7638 62.8883 59.3629C77.5535 72.5682 86.7607 130.665 72.9005 147.297C65.5884 156.072 32.3383 151.944 27.932 143.909C18.1614 126.092 31.2587 72.9288 45.7163 59.4966Z" fill="#238AEA"/>
<path d="M38.5901 50.2234C42.7606 46.3487 46.0761 44.7958 49.0734 44.7725C52.0707 44.7491 55.41 46.2502 59.6403 50.0594C64.3812 54.3284 68.9406 62.529 72.7569 73.1845C76.5409 83.7497 79.4808 96.4024 81.17 109.237C82.8596 122.075 83.2858 135.004 82.0934 146.127C80.8912 157.341 78.0828 166.336 73.6335 171.675C71.6244 174.086 67.4752 175.931 61.632 176.931C55.9111 177.91 49.0593 177.997 42.2626 177.344C35.4678 176.691 28.8537 175.311 23.6114 173.433C20.9895 172.493 18.7726 171.451 17.0658 170.354C15.3321 169.239 14.2885 168.173 13.7848 167.254C10.6231 161.489 9.17822 152.535 9.29032 141.718C9.40157 130.982 11.0402 118.736 13.7569 106.633C16.4729 94.5333 20.2497 82.6514 24.5991 72.6448C28.9765 62.5736 33.8304 54.6455 38.5901 50.2234Z" stroke="black" stroke-width="5"/>
<path d="M5.09713 167.471C19.035 146.843 70.9647 146.843 84.9025 167.471C89.2299 173.876 88.1831 183.712 86.7678 190.249C85.8773 194.362 82.1002 197 77.892 197H12.1076C7.8995 197 4.1224 194.362 3.2319 190.249C1.81657 183.712 0.769762 173.876 5.09713 167.471Z" fill="#1470C6"/>
<path d="M17.3769 174.033C28.0734 157.989 67.9264 157.989 78.6229 174.033C81.618 178.526 81.2585 185.189 80.3623 190.183C79.6163 194.341 75.8043 197 71.5805 197H24.4192C20.1955 197 16.3835 194.341 15.6375 190.183C14.7413 185.189 14.3818 178.526 17.3769 174.033Z" fill="#238AEA"/>
<path d="M7.16868 168.871C10.2584 164.298 15.5931 160.687 22.346 158.216C29.0731 155.754 37.0089 154.5 44.9999 154.5C52.9908 154.5 60.9267 155.754 67.6538 158.216C74.4067 160.687 79.7414 164.298 82.8311 168.871C84.621 171.52 85.3933 175.039 85.4895 178.873C85.585 182.68 85.0085 186.561 84.3244 189.72C83.7187 192.518 81.1007 194.5 77.8921 194.5H12.1077C8.89912 194.5 6.28113 192.518 5.67534 189.72C4.99132 186.561 4.41476 182.68 4.51028 178.873C4.60649 175.039 5.37883 171.52 7.16868 168.871Z" stroke="black" stroke-width="5"/>
<rect x="-2.2726" y="2.70838" width="28" height="79" rx="14" transform="matrix(-0.996195 0.0871557 0.0871557 0.996195 132.249 0.570437)" fill="#14342F" stroke="black" stroke-width="5"/>
<rect width="21.4554" height="54.6137" rx="10.7277" transform="matrix(-0.996195 0.0871557 0.0871557 0.996195 137.583 26.6367)" fill="#1C4942"/>
<rect x="-2.2726" y="2.70838" width="28" height="79" rx="14" transform="matrix(-0.996195 0.0871557 0.0871557 0.996195 132.249 0.570437)" stroke="black" stroke-width="5"/>
<path d="M140.462 48.166C131.743 40.0654 124.881 40.0119 116.037 47.9758C95.1779 66.7584 82.082 149.393 101.796 173.05C112.196 185.53 159.49 179.66 165.757 168.231C179.655 142.888 161.026 67.2714 140.462 48.166Z" fill="#1470C6"/>
<path d="M142.634 59.2708C136.504 53.5756 131.68 53.538 125.462 59.137C110.797 72.3423 101.59 130.439 115.45 147.071C122.762 155.846 156.012 151.719 160.418 143.683C170.189 125.866 157.092 72.703 142.634 59.2708Z" fill="#238AEA"/>
<path d="M138.76 49.9976C134.59 46.1229 131.274 44.57 128.277 44.5466C125.28 44.5233 121.94 46.0244 117.71 49.8336C112.969 54.1026 108.41 62.3032 104.593 72.9587C100.809 83.5239 97.8695 96.1766 96.1803 109.011C94.4906 121.85 94.0645 134.778 95.2569 145.901C96.4591 157.115 99.2675 166.11 103.717 171.449C105.726 173.86 109.875 175.705 115.718 176.705C121.439 177.684 128.291 177.771 135.088 177.118C141.882 176.465 148.497 175.085 153.739 173.207C156.361 172.267 158.578 171.225 160.285 170.128C162.018 169.014 163.062 167.947 163.566 167.029C166.727 161.263 168.172 152.309 168.06 141.492C167.949 130.756 166.31 118.51 163.593 106.407C160.877 94.3075 157.101 82.4256 152.751 72.4189C148.374 62.3477 143.52 54.4197 138.76 49.9976Z" stroke="black" stroke-width="5"/>
<path d="M172.253 167.246C158.315 146.617 106.386 146.617 92.4478 167.246C88.1204 173.65 89.1672 183.487 90.5825 190.023C91.473 194.136 95.2501 196.774 99.4583 196.774H165.243C169.451 196.774 173.228 194.136 174.118 190.023C175.534 183.487 176.581 173.65 172.253 167.246Z" fill="#1470C6"/>
<path d="M166.973 173.807C156.277 157.763 116.424 157.763 105.727 173.807C102.732 178.3 103.092 184.964 103.988 189.958C104.734 194.115 108.546 196.774 112.77 196.774H159.931C164.155 196.774 167.967 194.115 168.713 189.958C169.609 184.964 169.969 178.3 166.973 173.807Z" fill="#238AEA"/>
<path d="M170.182 168.645C167.092 164.072 161.757 160.461 155.004 157.99C148.277 155.528 140.341 154.274 132.35 154.274C124.359 154.274 116.424 155.528 109.696 157.99C102.944 160.461 97.6089 164.072 94.5192 168.645C92.7293 171.294 91.957 174.813 91.8608 178.648C91.7653 182.454 92.3418 186.335 93.0259 189.494C93.6316 192.292 96.2496 194.274 99.4582 194.274H165.243C168.451 194.274 171.069 192.292 171.675 189.494C172.359 186.335 172.936 182.454 172.84 178.648C172.744 174.813 171.971 171.294 170.182 168.645Z" stroke="black" stroke-width="5"/>
</svg>
