<svg width="166" height="57" viewBox="0 0 166 57" fill="none" xmlns="http://www.w3.org/2000/svg">
<rect x="29.9998" y="17.1055" width="39" height="19" rx="8" fill="#238AEA"/>
<rect x="38.9998" y="26.1055" width="22" height="7" rx="3.5" fill="#439EF3"/>
<rect x="32.4998" y="19.6055" width="34" height="14" rx="5.5" stroke="black" stroke-width="5"/>
<circle cx="21.4998" cy="26.5" r="21.5" fill="#238AEA"/>
<circle cx="23.9806" cy="30.6345" r="10.75" fill="#439EF3"/>
<circle cx="21.4998" cy="26.5" r="19" stroke="black" stroke-width="5"/>
<circle cx="69.9998" cy="26.1055" r="13" fill="#238AEA"/>
<circle cx="71.4998" cy="28.6055" r="6.5" fill="#439EF3"/>
<circle cx="69.9998" cy="26.1055" r="10.5" stroke="black" stroke-width="5"/>
<path d="M98.0074 16.2931C99.9103 14.1107 103.162 12.2744 107.239 10.7865C111.272 9.31501 115.889 8.26256 120.293 7.5164C124.688 6.77181 128.816 6.34104 131.849 6.09666C132.97 6.00631 133.94 5.94161 134.715 5.89598V52.3104C133.96 52.3786 132.985 52.4563 131.838 52.5248C128.967 52.6965 125.037 52.8102 120.784 52.5824C116.522 52.3541 111.996 51.7857 107.911 50.6182C103.807 49.4452 100.309 47.7125 97.9352 45.2665C92.7665 39.9407 90.8703 35.0919 91.0772 30.5608C91.2873 25.9607 93.6809 21.2552 98.0074 16.2931Z" fill="#008D79" stroke="black" stroke-width="4"/>
<ellipse cx="135.507" cy="28.9555" rx="14.4666" ry="25.1581" fill="#05564A"/>
<path d="M147.974 28.9555C147.974 35.6171 146.417 41.5498 144.003 45.748C141.558 50.0004 138.481 52.1136 135.507 52.1136C132.534 52.1136 129.457 50.0004 127.012 45.748C124.598 41.5498 123.041 35.6171 123.041 28.9555C123.041 22.2939 124.598 16.3612 127.012 12.163C129.457 7.91056 132.534 5.79736 135.507 5.79736C138.481 5.79736 141.558 7.91056 144.003 12.163C146.417 16.3612 147.974 22.2939 147.974 28.9555Z" stroke="black" stroke-width="4"/>
<ellipse cx="136.269" cy="28.9555" rx="6.0912" ry="13.9767" fill="black"/>
<path d="M75.5342 36.3729C73.393 32.6592 72.3936 29.4921 72.3481 26.4051C72.3026 23.3182 73.2079 20.1014 75.2379 16.2789C77.3535 12.2954 82.4615 9.23988 89.5045 7.12078C96.4403 5.03394 104.769 4.00002 112.611 3.68931C120.452 3.37868 127.679 3.79553 132.378 4.54831C133.399 4.71201 134.255 4.88485 134.948 5.05516C126.764 10.6131 123.793 20.4628 123.737 29.3417C123.706 34.1608 124.522 38.8525 125.925 42.6995C127.297 46.4611 129.358 49.757 132.069 51.3198C132.417 51.5203 132.696 51.7004 132.919 51.8582C132.584 51.9591 132.167 52.0592 131.66 52.1511C127.973 52.8199 121.3 52.7652 113.626 51.8283C105.997 50.897 97.5938 49.1202 90.4852 46.4691C83.2693 43.7779 77.8238 40.3442 75.5342 36.3729ZM133.827 51.4707C133.827 51.4708 133.823 51.4743 133.815 51.4809C133.822 51.4739 133.826 51.4706 133.827 51.4707Z" fill="#238AEA" stroke="black" stroke-width="4"/>
<path d="M75.3545 36.9147C72.1867 31.8661 72.1276 27.8586 75.1442 22.6486C82.2587 10.3611 110.426 14.7074 109.365 18.9501C106.088 32.0581 111.203 46.2533 117.151 49.3908C128.315 55.28 82.8257 48.8218 75.3545 36.9147Z" fill="#439EF3"/>
<path d="M75.5341 36.3729C73.393 32.6592 72.3935 29.4921 72.348 26.4051C72.3025 23.3182 73.2079 20.1014 75.2379 16.2789C77.3534 12.2954 82.4615 9.23988 89.5045 7.12078C96.4403 5.03394 104.769 4.00002 112.611 3.68931C120.452 3.37868 127.679 3.79553 132.377 4.54831C133.399 4.71201 134.255 4.88485 134.948 5.05516C126.764 10.6131 123.793 20.4628 123.737 29.3417C123.706 34.1608 124.522 38.8525 125.925 42.6995C127.297 46.4611 129.358 49.757 132.069 51.3198C132.417 51.5203 132.696 51.7004 132.919 51.8582C132.584 51.9591 132.167 52.0592 131.66 52.1511C127.973 52.8199 121.3 52.7652 113.626 51.8283C105.997 50.897 97.5938 49.1202 90.4852 46.4691C83.2693 43.7779 77.8238 40.3442 75.5341 36.3729ZM133.827 51.4707C133.827 51.4708 133.823 51.4743 133.815 51.4809C133.822 51.4739 133.826 51.4706 133.827 51.4707Z" stroke="black" stroke-width="4"/>
</svg>
