<svg width="103" height="156" viewBox="0 0 103 156" fill="none" xmlns="http://www.w3.org/2000/svg">
<rect width="65" height="24" rx="12" transform="matrix(-0.280289 0.959916 0.959916 0.280289 44.2431 1.25488)" fill="#238AEA"/>
<rect width="33" height="12" rx="6" transform="matrix(-0.280289 0.959916 0.959916 0.280289 44.8731 34.7751)" fill="#439EF3"/>
<rect x="1.69907" y="3.10051" width="60" height="19" rx="9.5" transform="matrix(-0.280289 0.959916 0.959916 0.280289 43.4422 1.85539)" stroke="black" stroke-width="5"/>
<rect width="65" height="24" rx="12" transform="matrix(0.155096 0.987899 0.987899 -0.155096 24 68.7224)" fill="#238AEA"/>
<rect width="34" height="12" rx="6" transform="matrix(0.155096 0.987899 0.987899 -0.155096 37.2911 88.905)" fill="#439EF3"/>
<rect x="2.85749" y="2.08201" width="60" height="19" rx="9.5" transform="matrix(0.155096 0.987899 0.987899 -0.155096 24.3575 68.3044)" stroke="black" stroke-width="5"/>
<path d="M43.9159 118.233C22.0346 121.668 28.1001 146.022 28.1001 146.022L39.0408 144.304C39.0408 144.304 37.1864 132.492 45.9389 131.118C54.6915 129.744 53.8108 141.985 53.8108 141.985L66.3926 140.01C66.3926 140.01 65.7973 114.797 43.9159 118.233Z" fill="#238AEA"/>
<path d="M28.1 146.022C28.1 146.022 27.6553 144.236 27.4411 141.563C27.2282 136.053 29.0521 127.146 42.4582 125.041C62.2162 121.939 59.652 141.068 59.652 141.068L66.3925 140.01C66.3925 140.01 65.7973 114.797 43.9159 118.233C27.9598 120.738 26.8644 134.366 27.4411 141.563C27.542 144.174 28.1 146.022 28.1 146.022Z" fill="#439EF3"/>
<path d="M43.9159 118.233C22.0345 121.668 28.1 146.022 28.1 146.022L39.0408 144.304C39.0408 144.304 37.1864 132.492 45.9389 131.118C54.6915 129.744 53.8108 141.985 53.8108 141.985L66.3926 140.01C66.3926 140.01 65.7973 114.797 43.9159 118.233Z" stroke="black" stroke-width="5"/>
<circle r="15" transform="matrix(-0.280289 0.959916 0.959916 0.280289 36.3032 67.6927)" fill="#238AEA"/>
<circle r="8" transform="matrix(-0.280289 0.959916 0.959916 0.280289 38.6223 70.4534)" fill="#439EF3"/>
<circle r="12.5" transform="matrix(-0.280289 0.959916 0.959916 0.280289 36.3032 67.6927)" stroke="black" stroke-width="5"/>
</svg>
