<svg width="255" height="155" viewBox="0 0 255 155" fill="none" xmlns="http://www.w3.org/2000/svg">
<path d="M31.1708 8.05786L239.348 6.88232C276.642 19.8132 240.461 137.367 202.054 146.771H64.0115L31.1708 8.05786Z" fill="white"/>
<path d="M31.1708 8.05786L228.5 8.05788C265.794 20.9888 238.446 131.9 198.5 146.771H64.0115L31.1708 8.05786Z" fill="#238AEA"/>
<path d="M77.4836 52.094C72.3367 39.7422 76.0372 32.4212 89.4118 31.9994C130.851 30.6925 208.551 23.1487 229.616 21.0497C233.027 20.7097 236.365 22.0876 237.996 25.103C255.719 57.8713 232.842 136.4 199 144.22H77.4999C98.8269 126.597 89.087 79.9403 77.4836 52.094Z" fill="#439EF3"/>
<path d="M65.9888 144.271L34.3276 10.5401L238.918 9.38479C246.567 12.2602 250.962 20.6233 252.167 33.1127C253.378 45.6798 251.227 61.5484 246.685 77.4631C242.149 93.3569 235.285 109.097 227.237 121.396C219.197 133.68 210.295 142.043 201.743 144.271H65.9888Z" stroke="black" stroke-width="5"/>
<path d="M74.1592 70.0365C83.6052 108.194 78.4902 142.68 62.7346 147.063C56.4999 148.798 26.5492 124.067 17.1033 85.9099C7.65733 47.7525 12.7723 13.2664 28.5278 8.88311C44.2834 4.49979 64.7133 31.8791 74.1592 70.0365Z" fill="#1470C6"/>
<path d="M70.518 78.6066C78.855 112.284 75.4199 142.421 62.8454 145.92C54.9999 148.102 33.319 124.953 24.982 91.2751C16.6451 57.5975 20.0802 27.4605 32.6546 23.9621C45.229 20.4638 62.181 44.929 70.518 78.6066Z" fill="#238AEA"/>
<path d="M71.7507 70.7065C76.4143 89.5453 77.4507 107.365 75.443 120.902C74.4383 127.676 72.69 133.248 70.3566 137.32C68.0293 141.382 65.2324 143.774 62.1339 144.636C60.509 145.089 57.6793 144.523 53.7749 142.001C50.0013 139.563 45.6993 135.596 41.3642 130.282C32.7033 119.665 24.1455 103.958 19.5118 85.2398C14.8482 66.401 13.8118 48.581 15.8195 35.0447C16.8242 28.2706 18.5725 22.698 20.9059 18.6259C23.2332 14.5646 26.0301 12.1719 29.1286 11.3099C32.2271 10.4478 35.7719 11.0762 39.6805 13.4027C43.5994 15.7353 47.7036 19.6797 51.7166 25.0578C59.7357 35.8046 67.0871 51.8678 71.7507 70.7065Z" stroke="black" stroke-width="5"/>
<ellipse rx="9.14083" ry="19.8417" transform="matrix(0.984066 -0.177801 0.168955 0.985624 38.3474 66.3291)" fill="black"/>
</svg>
