<svg width="259" height="191" viewBox="0 0 259 191" fill="none" xmlns="http://www.w3.org/2000/svg">
<path d="M11.2591 51.5416L255.758 44.8918C255.758 44.8918 256.029 179.456 133.175 177.031C16.3633 174.725 11.2591 51.5416 11.2591 51.5416Z" fill="#1470C6" stroke="black" stroke-width="5"/>
<path d="M252.591 56.2759C252.591 56.2759 246.44 173.561 144.702 174.076C210.95 171.502 245.493 117.957 245.493 59.2643L252.591 56.2759Z" fill="white"/>
<path d="M35.8657 61.8386L246.286 59.104C246.286 59.104 248.805 170.472 144.228 174.076C52.6084 177.233 35.8657 61.8386 35.8657 61.8386Z" fill="#238AEA"/>
<path d="M35.8657 61.8386L246.286 59.104C246.286 59.104 248.805 170.472 144.228 174.076C52.6084 177.233 35.8657 61.8386 35.8657 61.8386Z" fill="#4DA6FA"/>
<path d="M256.377 44.8485C260.282 83.4351 7.40851 83.9696 10.7844 48.5398C15.1145 3.09726 252.79 9.41193 256.377 44.8485Z" fill="#1470C6" stroke="black" stroke-width="5"/>
<path d="M254.125 44.5922C257.881 78.8878 23.7384 78.2792 26.736 46.8191C30.5809 6.46824 250.676 13.0962 254.125 44.5922Z" fill="#2F87DB"/>
<path d="M256.377 44.8485C260.282 83.4351 7.40851 83.9696 10.7844 48.5398C15.1145 3.09726 252.79 9.41193 256.377 44.8485Z" stroke="black" stroke-width="5"/>
<path d="M256.377 45.8781C256.377 45.8781 256.029 179.456 133.175 177.031C16.3634 174.724 10.7861 49.4821 10.7861 49.4821" stroke="black" stroke-width="5"/>
<path d="M50.9998 89.0246C52.3881 97.4717 47.193 105.358 42.1657 106.184C37.1384 107.011 29.6925 101.202 28.3043 92.7545C26.916 84.3074 30.8712 76.6247 37.1384 75.5948C43.4056 74.5648 49.6116 80.5775 50.9998 89.0246Z" fill="black"/>
</svg>
