<svg width="110" height="74" viewBox="0 0 110 74" fill="none" xmlns="http://www.w3.org/2000/svg">
<path d="M2.55523 15.5C44.2219 24.0263 67.2987 24.3173 107.855 15.5C107.855 15.5 107.855 20.5176 107.855 50.5241C107.855 80.5305 2.55535 80.5305 2.5552 50.5241C2.55504 20.5176 2.55523 15.5 2.55523 15.5Z" fill="#1C423C"/>
<path d="M3.3307 16L44.133 21C41.6821 34.8682 40.7657 39.9024 40.7657 54.2439C40.7658 68.5853 6.91595 68.5853 6.9159 54.2439C6.91585 39.9024 5.10286 29.3886 3.3307 16Z" fill="#14342F"/>
<path d="M106.587 14.3218C106.462 15.6112 106.322 17.2676 106.183 19.3423C105.767 25.5387 105.355 35.4767 105.355 50.5241C105.355 56.3193 100.244 61.3687 90.514 65.0657C81.015 68.6749 68.177 70.5289 55.2052 70.5289C42.2333 70.5289 29.3954 68.6749 19.8963 65.0657C10.1661 61.3687 5.05527 56.3193 5.05524 50.5241C5.05516 35.4521 4.41351 25.4829 3.76405 19.2505C3.55652 17.2589 3.34803 15.6475 3.15912 14.3717C22.8727 19.2386 38.78 21.7346 54.7459 21.7518C70.7785 21.769 86.7533 19.2865 106.587 14.3218Z" stroke="black" stroke-width="5"/>
<path d="M106.618 11.0322C106.866 11.2791 106.958 11.4367 106.99 11.5078C106.96 11.588 106.862 11.7899 106.556 12.1186C106.067 12.642 105.231 13.2821 103.964 13.9887C101.439 15.3961 97.6385 16.8292 92.7672 18.1104C83.057 20.6641 69.5342 22.5 54.5417 22.5C39.5493 22.5 26.133 20.6641 16.5308 18.1121C11.7132 16.8317 7.96732 15.4001 5.48422 13.9961C4.23782 13.2914 3.41798 12.6536 2.93954 12.1329C2.62256 11.7879 2.53186 11.5812 2.50724 11.5065C2.53454 11.4391 2.62133 11.2775 2.87732 11.0183C3.32923 10.5608 4.12448 9.99622 5.36648 9.37889C7.83948 8.14969 11.581 6.95494 16.414 5.91599C26.0405 3.84659 39.4928 2.5 54.5417 2.5C69.5905 2.5 83.1491 3.84655 92.8829 5.91711C97.7695 6.9566 101.566 8.15265 104.081 9.38509C105.344 10.0043 106.156 10.5715 106.618 11.0322ZM2.49577 11.5429C2.4955 11.5429 2.49598 11.5395 2.49798 11.5326C2.49703 11.5394 2.49603 11.5429 2.49577 11.5429ZM107.003 11.5414C107.005 11.5483 107.005 11.5518 107.005 11.5517C107.005 11.5517 107.004 11.5482 107.003 11.5414Z" fill="#336961" stroke="black" stroke-width="5"/>
</svg>
