<svg width="103" height="49" viewBox="0 0 103 49" fill="none" xmlns="http://www.w3.org/2000/svg">
<path d="M1.02456 25.1987C1.02462 -4.80778 31.4042 5.50705 52.8403 5.42524C72.5855 5.34989 102.475 -6.95119 101.761 25.1987C101.345 43.9107 76.0427 45.6319 57.7188 47.114C35.1928 48.9358 1.02451 45.2029 1.02456 25.1987Z" fill="black"/>
<path d="M76.8806 35.0008C78.3796 36.4524 80.8659 35.9683 81.7107 34.0603L90.3381 14.5758C91.3199 12.3586 89.4018 9.95308 87.0216 10.4165L63.0868 15.0768C60.7066 15.5402 59.8312 18.4896 61.5731 20.1765L76.8806 35.0008Z" fill="#1ED6FF"/>
<path d="M25.9659 35.4952C26.813 37.4022 29.3 37.8833 30.7972 36.4299L46.0869 21.5873C47.8268 19.8983 46.9479 16.9499 44.5671 16.4893L20.6267 11.8578C18.2459 11.3972 16.3308 13.805 17.3152 16.0211L25.9659 35.4952Z" fill="#1ED6FF"/>
<rect x="13.1702" y="9.48102" width="77.1595" height="1.42888" fill="black"/>
<rect x="13.1702" y="23.7698" width="77.1595" height="1.42888" fill="black"/>
<rect x="13.1702" y="12.3388" width="77.1595" height="1.42888" fill="black"/>
<rect x="13.1702" y="26.6276" width="77.1595" height="1.42888" fill="black"/>
<rect x="13.1702" y="15.1965" width="77.1595" height="1.42888" fill="black"/>
<rect x="13.1702" y="29.4854" width="77.1595" height="1.42888" fill="black"/>
<rect x="13.1702" y="18.0543" width="77.1595" height="1.42888" fill="black"/>
<rect x="13.1702" y="32.3431" width="77.1595" height="1.42888" fill="black"/>
<rect x="13.1702" y="20.912" width="77.1595" height="1.42888" fill="black"/>
<rect x="13.1702" y="35.2009" width="77.1595" height="1.42888" fill="black"/>
<g filter="url(#filter0_f)">
<path d="M76.8806 35.0008C78.3796 36.4524 80.8659 35.9683 81.7107 34.0603L90.3381 14.5758C91.3199 12.3586 89.4018 9.95308 87.0216 10.4165L63.0868 15.0768C60.7066 15.5402 59.8312 18.4896 61.5731 20.1765L76.8806 35.0008Z" fill="#00FFF0" fill-opacity="0.6"/>
</g>
<g filter="url(#filter1_f)">
<path d="M25.9659 35.4952C26.813 37.4022 29.3 37.8833 30.7972 36.4299L46.0869 21.5873C47.8268 19.8983 46.9479 16.9499 44.5671 16.4893L20.6267 11.8578C18.2459 11.3972 16.3308 13.805 17.3152 16.0211L25.9659 35.4952Z" fill="#00FFF0" fill-opacity="0.6"/>
</g>
<defs>
<filter id="filter0_f" x="55.137" y="4.84216" width="44.3213" height="38.8527" filterUnits="userSpaceOnUse" color-interpolation-filters="sRGB">
<feFlood flood-opacity="0" result="BackgroundImageFix"/>
<feBlend mode="normal" in="SourceGraphic" in2="BackgroundImageFix" result="shape"/>
<feGaussianBlur stdDeviation="2.5" result="effect1_foregroundBlur"/>
</filter>
<filter id="filter1_f" x="8.21706" y="6.28699" width="44.3006" height="38.8223" filterUnits="userSpaceOnUse" color-interpolation-filters="sRGB">
<feFlood flood-opacity="0" result="BackgroundImageFix"/>
<feBlend mode="normal" in="SourceGraphic" in2="BackgroundImageFix" result="shape"/>
<feGaussianBlur stdDeviation="2.5" result="effect1_foregroundBlur"/>
</filter>
</defs>
</svg>
