<svg width="91" height="39" viewBox="0 0 91 39" fill="none" xmlns="http://www.w3.org/2000/svg">
<path d="M-0.000152588 20.8811C-0.000152588 29.9489 7.9833 36.9432 16.9724 35.7508L46.8632 31.7857C48.2804 31.5977 49.7171 31.6133 51.1298 31.8319L73.7057 35.3258C82.7962 36.7326 90.9998 29.701 90.9998 20.5023V19.1221C90.9998 12.5173 86.6844 6.63127 80.2926 4.96772C54.5597 -1.72961 36.5115 -1.5929 10.7966 5.00154C4.36345 6.65128 -0.000152588 12.5575 -0.000152588 19.1988V20.8811Z" fill="black"/>
<path d="M16.4998 13.5C22.6665 13.6667 31.9998 16.3 37.9998 25.5" stroke="#1ED6FF" stroke-width="5" stroke-linecap="round"/>
<g filter="url(#filter0_f)">
<path d="M16.4998 13.5C22.6665 13.6667 31.9998 16.3 37.9998 25.5" stroke="#1ED6FF" stroke-width="5" stroke-linecap="round"/>
</g>
<path d="M77.4998 13.5C71.3332 13.6667 61.9998 16.3 55.9998 25.5" stroke="#1ED6FF" stroke-width="5" stroke-linecap="round"/>
<g filter="url(#filter1_f)">
<path d="M77.4998 13.5C71.3332 13.6667 61.9998 16.3 55.9998 25.5" stroke="#1ED6FF" stroke-width="5" stroke-linecap="round"/>
</g>
<defs>
<filter id="filter0_f" x="3.99983" y="1" width="46.5003" height="37.0003" filterUnits="userSpaceOnUse" color-interpolation-filters="sRGB">
<feFlood flood-opacity="0" result="BackgroundImageFix"/>
<feBlend mode="normal" in="SourceGraphic" in2="BackgroundImageFix" result="shape"/>
<feGaussianBlur stdDeviation="5" result="effect1_foregroundBlur"/>
</filter>
<filter id="filter1_f" x="43.4996" y="1" width="46.5003" height="37.0003" filterUnits="userSpaceOnUse" color-interpolation-filters="sRGB">
<feFlood flood-opacity="0" result="BackgroundImageFix"/>
<feBlend mode="normal" in="SourceGraphic" in2="BackgroundImageFix" result="shape"/>
<feGaussianBlur stdDeviation="5" result="effect1_foregroundBlur"/>
</filter>
</defs>
</svg>
