<svg width="77" height="41" viewBox="0 0 77 41" fill="none" xmlns="http://www.w3.org/2000/svg">
<path d="M41.9999 30.0933C41.9999 35.6162 46.477 40.0933 51.9999 40.0933H66.1154C71.6382 40.0933 76.1154 35.6162 76.1154 30.0933V15.3208C76.1154 8.10136 68.6992 3.26076 62.0904 6.16654L47.9749 12.3729C44.3441 13.9693 41.9999 17.5608 41.9999 21.5271V30.0933Z" fill="black"/>
<path d="M61.9082 15.548C60.7143 13.8366 58.1812 13.8366 56.9873 15.548L47.808 28.7057C46.4206 30.6945 47.8436 33.4222 50.2685 33.4222H68.627C71.0519 33.4222 72.4749 30.6945 71.0875 28.7057L61.9082 15.548Z" fill="#1ED6FF"/>
<rect x="71.903" y="30.1083" width="26.6267" height="0.832084" transform="rotate(-180 71.903 30.1083)" fill="black"/>
<rect x="71.903" y="36.765" width="26.6267" height="0.832084" transform="rotate(-180 71.903 36.765)" fill="black"/>
<rect x="71.903" y="21.7875" width="23.2984" height="0.832084" transform="rotate(-180 71.903 21.7875)" fill="black"/>
<rect x="71.903" y="28.4442" width="26.6267" height="0.832084" transform="rotate(-180 71.903 28.4442)" fill="black"/>
<rect x="71.903" y="35.1008" width="26.6267" height="0.832084" transform="rotate(-180 71.903 35.1008)" fill="black"/>
<rect x="71.903" y="20.1233" width="23.2984" height="0.832084" transform="rotate(-180 71.903 20.1233)" fill="black"/>
<rect x="71.903" y="26.78" width="26.6267" height="0.832084" transform="rotate(-180 71.903 26.78)" fill="black"/>
<rect x="71.903" y="33.4366" width="26.6267" height="0.832084" transform="rotate(-180 71.903 33.4366)" fill="black"/>
<rect x="71.903" y="18.4591" width="23.2984" height="0.832084" transform="rotate(-180 71.903 18.4591)" fill="black"/>
<rect x="71.903" y="25.1158" width="26.6267" height="0.832084" transform="rotate(-180 71.903 25.1158)" fill="black"/>
<rect x="71.903" y="31.7725" width="26.6267" height="0.832084" transform="rotate(-180 71.903 31.7725)" fill="black"/>
<rect x="71.903" y="16.795" width="23.2984" height="0.832084" transform="rotate(-180 71.903 16.795)" fill="black"/>
<rect x="71.903" y="23.4517" width="23.2984" height="0.832084" transform="rotate(-180 71.903 23.4517)" fill="black"/>
<rect x="71.903" y="15.1308" width="23.2984" height="0.832084" transform="rotate(-180 71.903 15.1308)" fill="black"/>
<g filter="url(#filter0_f)">
<path d="M61.9082 15.548C60.7143 13.8366 58.1812 13.8366 56.9873 15.548L47.808 28.7057C46.4206 30.6945 47.8436 33.4222 50.2685 33.4222H68.627C71.0519 33.4222 72.4749 30.6945 71.0875 28.7057L61.9082 15.548Z" fill="#00FFF0" fill-opacity="0.6"/>
</g>
<path d="M34.6875 30.0933C34.6875 35.6162 30.2104 40.0933 24.6875 40.0933H10.572C5.0492 40.0933 0.572052 35.6162 0.572052 30.0933V15.3208C0.572052 8.10136 7.98821 3.26076 14.597 6.16654L28.7125 12.3729C32.3433 13.9693 34.6875 17.5608 34.6875 21.5271V30.0933Z" fill="black"/>
<path d="M14.7792 15.548C15.9731 13.8366 18.5062 13.8366 19.7001 15.548L28.8793 28.7057C30.2668 30.6945 28.8438 33.4222 26.4189 33.4222H8.06038C5.63548 33.4222 4.21252 30.6945 5.59994 28.7057L14.7792 15.548Z" fill="#1ED6FF"/>
<rect width="26.6267" height="0.832084" transform="matrix(1 0 0 -1 4.78439 30.1083)" fill="black"/>
<rect width="26.6267" height="0.832084" transform="matrix(1 0 0 -1 4.78439 36.765)" fill="black"/>
<rect width="23.2984" height="0.832084" transform="matrix(1 0 0 -1 4.78439 21.7875)" fill="black"/>
<rect width="26.6267" height="0.832084" transform="matrix(1 0 0 -1 4.78439 28.4442)" fill="black"/>
<rect width="26.6267" height="0.832084" transform="matrix(1 0 0 -1 4.78439 35.1008)" fill="black"/>
<rect width="23.2984" height="0.832084" transform="matrix(1 0 0 -1 4.78439 20.1233)" fill="black"/>
<rect width="26.6267" height="0.832084" transform="matrix(1 0 0 -1 4.78439 26.78)" fill="black"/>
<rect width="26.6267" height="0.832084" transform="matrix(1 0 0 -1 4.78439 33.4366)" fill="black"/>
<rect width="23.2984" height="0.832084" transform="matrix(1 0 0 -1 4.78439 18.4591)" fill="black"/>
<rect width="26.6267" height="0.832084" transform="matrix(1 0 0 -1 4.78439 25.1158)" fill="black"/>
<rect width="26.6267" height="0.832084" transform="matrix(1 0 0 -1 4.78439 31.7725)" fill="black"/>
<rect width="23.2984" height="0.832084" transform="matrix(1 0 0 -1 4.78439 16.795)" fill="black"/>
<rect width="23.2984" height="0.832084" transform="matrix(1 0 0 -1 4.78439 23.4517)" fill="black"/>
<rect width="23.2984" height="0.832084" transform="matrix(1 0 0 -1 4.78439 15.1308)" fill="black"/>
<g filter="url(#filter1_f)">
<path d="M14.7792 15.548C15.9731 13.8366 18.5062 13.8366 19.7001 15.548L28.8793 28.7057C30.2668 30.6945 28.8438 33.4222 26.4189 33.4222H8.06038C5.63548 33.4222 4.21252 30.6945 5.59994 28.7057L14.7792 15.548Z" fill="#00FFF0" fill-opacity="0.6"/>
</g>
<defs>
<filter id="filter0_f" x="42.2633" y="9.2644" width="34.369" height="29.1578" filterUnits="userSpaceOnUse" color-interpolation-filters="sRGB">
<feFlood flood-opacity="0" result="BackgroundImageFix"/>
<feBlend mode="normal" in="SourceGraphic" in2="BackgroundImageFix" result="shape"/>
<feGaussianBlur stdDeviation="2.5" result="effect1_foregroundBlur"/>
</filter>
<filter id="filter1_f" x="0.0551605" y="9.2644" width="34.369" height="29.1578" filterUnits="userSpaceOnUse" color-interpolation-filters="sRGB">
<feFlood flood-opacity="0" result="BackgroundImageFix"/>
<feBlend mode="normal" in="SourceGraphic" in2="BackgroundImageFix" result="shape"/>
<feGaussianBlur stdDeviation="2.5" result="effect1_foregroundBlur"/>
</filter>
</defs>
</svg>
