<svg width="34" height="49" viewBox="0 0 34 49" fill="none" xmlns="http://www.w3.org/2000/svg">
<path d="M3.10425 17.9243L17.0355 3.09464L30.6319 17.7328L17.3207 44.0989L3.10425 17.9243Z" fill="#1ABA5A"/>
<path d="M17.3188 44.0983L3.10236 17.9237L17.1736 23.2278L30.63 17.7322L17.3188 44.0983Z" fill="#29CB6A"/>
<path d="M17.3188 44.0983L3.10236 17.9237L17.1736 23.2278L17.3188 44.0983Z" fill="#008636"/>
<path d="M17.0338 3.09393L30.6302 17.7321L17.1738 23.2278L17.0338 3.09393Z" fill="#9AFFC2"/>
<path d="M17.0355 3.09464L3.10425 17.9243M17.0355 3.09464L30.6319 17.7328M17.0355 3.09464L17.3207 44.0989M3.10425 17.9243L17.3207 44.0989M3.10425 17.9243L17.1755 23.2285L30.6319 17.7328M30.6319 17.7328L17.3207 44.0989" stroke="black" stroke-width="4"/>
</svg>
