<svg width="167" height="84" viewBox="0 0 167 84" fill="none" xmlns="http://www.w3.org/2000/svg">
<path d="M12.7856 35.8605L109.762 31.2491C112.614 31.1135 115 33.3887 115 36.2434V63.7111C115 66.5828 112.586 68.8644 109.719 68.7032L12.7856 63.2558C-3.35362 60.2119 -5.14685 39.2849 12.7856 35.8605Z" fill="#42E884"/>
<path d="M23.4514 47.5581L109.86 45.1436C112.675 45.065 115 47.3255 115 50.1417V59.8322C115 62.6583 112.659 64.9227 109.835 64.8294L23.4514 61.9767C8.99631 60.3747 7.3902 49.3605 23.4514 47.5581Z" fill="#50FA94"/>
<path d="M2.50699 49.6081C2.33441 44.9575 5.3338 39.8935 13.0857 38.349L109.881 33.7462C111.307 33.6784 112.5 34.8161 112.5 36.2434V63.7111C112.5 65.147 111.293 66.2878 109.86 66.2072L13.0941 60.7692C6.22007 59.4084 2.68456 54.393 2.50699 49.6081Z" stroke="black" stroke-width="5"/>
<path d="M143.434 50.8128C143.434 61.6403 134.657 70.4176 123.829 70.4176C113.002 70.4176 104.224 61.6403 104.224 50.8128C104.224 39.9853 113.002 31.2079 123.829 31.2079C127.545 31.2079 131.011 32.239 133.968 34.0293C139.647 37.4685 143.434 43.6996 143.434 50.8128Z" fill="#42E884" stroke="black" stroke-width="5"/>
<path d="M151.128 28.3759C142.006 27.985 135.334 33.2938 132.406 36.8649C131.896 37.4874 131.893 38.3648 132.331 39.0403L135.276 43.5836C136.006 44.709 137.617 44.8075 138.605 43.9002C143.212 39.6685 148.658 38.4897 152.643 38.4785C154.266 38.474 155.652 36.7949 155.054 35.286L152.798 29.5967C152.522 28.8997 151.877 28.408 151.128 28.3759Z" fill="#42E884" stroke="black" stroke-width="5"/>
<path d="M130.188 17.2034C122.647 22.352 120.482 30.5987 120.275 35.2118C120.239 36.016 120.762 36.7204 121.517 36.9993L126.596 38.8749C127.855 39.3395 129.204 38.4539 129.452 37.1358C130.608 30.9879 134.265 26.7828 137.45 24.3883C138.747 23.4128 138.852 21.2379 137.47 20.3875L132.257 17.1812C131.618 16.7884 130.807 16.7806 130.188 17.2034Z" fill="#42E884" stroke="black" stroke-width="5"/>
<path d="M158.373 49.2286C150.244 45.0708 141.966 47.1153 137.817 49.1409C137.093 49.4941 136.725 50.2903 136.841 51.0869L137.625 56.4444C137.819 57.7715 139.242 58.5325 140.518 58.1196C146.47 56.1935 151.912 57.3923 155.538 59.0431C157.016 59.7156 158.976 58.7671 159.061 57.1462L159.382 51.0345C159.421 50.2857 159.04 49.5701 158.373 49.2286Z" fill="#42E884" stroke="black" stroke-width="5"/>
<path d="M131.397 80.1028C122.638 77.5248 118.039 70.3448 116.423 66.0193C116.141 65.2652 116.422 64.434 117.055 63.9363L121.31 60.5885C122.364 59.7592 123.92 60.1867 124.562 61.3644C127.555 66.858 132.328 69.7336 136.095 71.0318C137.63 71.5606 138.399 73.5976 137.345 74.8322L133.372 79.4872C132.885 80.0576 132.116 80.3145 131.397 80.1028Z" fill="#42E884" stroke="black" stroke-width="5"/>
<path d="M141 50.5C141 60.165 133.165 68 123.5 68C113.835 68 106 60.165 106 50.5C106 40.835 113.835 33 123.5 33C126.813 33 129.911 33.9205 132.552 35.5198C137.616 38.5862 141 44.1479 141 50.5Z" fill="#42E884"/>
<path d="M137.787 51.9562C137.787 60.5861 130.791 67.582 122.161 67.582C113.532 67.582 106.536 60.5861 106.536 51.9562C106.536 43.3262 113.532 36.3303 122.161 36.3303C125.12 36.3303 127.886 37.1523 130.244 38.5803C134.765 41.3183 137.787 46.2843 137.787 51.9562Z" fill="#50FA94"/>
<path d="M59.0075 15.2932C60.9104 13.1107 64.162 11.2745 68.2394 9.78654C72.2717 8.31508 76.8891 7.26262 81.293 6.51647C85.6877 5.77187 89.816 5.3411 92.849 5.09672C93.9705 5.00637 94.94 4.94167 95.7154 4.89604V51.3104C94.9604 51.3787 93.9855 51.4563 92.8384 51.5249C89.9675 51.6965 86.0368 51.8102 81.7841 51.5824C77.5225 51.3541 72.996 50.7857 68.9114 49.6183C64.8071 48.4452 61.3092 46.7125 58.9353 44.2665C53.7665 38.9408 51.8703 34.092 52.0773 29.5609C52.2874 24.9608 54.6809 20.2553 59.0075 15.2932Z" fill="#008D79" stroke="black" stroke-width="4"/>
<ellipse cx="96.5074" cy="27.9556" rx="14.4666" ry="25.1581" fill="#05564A"/>
<path d="M108.974 27.9556C108.974 34.6171 107.417 40.5499 105.003 44.7481C102.558 49.0005 99.4811 51.1137 96.5074 51.1137C93.5336 51.1137 90.457 49.0005 88.0117 44.7481C85.5977 40.5499 84.0408 34.6171 84.0408 27.9556C84.0408 21.294 85.5977 15.3612 88.0117 11.163C90.457 6.91062 93.5336 4.79742 96.5074 4.79742C99.4811 4.79742 102.558 6.91062 105.003 11.163C107.417 15.3612 108.974 21.294 108.974 27.9556Z" stroke="black" stroke-width="4"/>
<ellipse cx="97.2688" cy="27.9556" rx="6.0912" ry="13.9767" fill="black"/>
<path d="M36.5342 35.3729C34.3931 31.6592 33.3936 28.4921 33.3481 25.4051C33.3026 22.3182 34.208 19.1014 36.238 15.2789C38.3535 11.2954 43.4616 8.23988 50.5046 6.12078C57.4404 4.03394 65.769 3.00002 73.6115 2.68931C81.452 2.37868 88.6788 2.79553 93.3776 3.54831C94.3994 3.71201 95.2548 3.88485 95.9477 4.05516C87.7637 9.61308 84.7934 19.4628 84.7367 28.3417C84.7059 33.1608 85.5222 37.8525 86.9253 41.6995C88.2973 45.4611 90.3579 48.757 93.0691 50.3198C93.4169 50.5203 93.6964 50.7004 93.9189 50.8582C93.5839 50.9591 93.1666 51.0592 92.6596 51.1511C88.9727 51.8199 82.3 51.7652 74.6261 50.8283C66.9971 49.897 58.5939 48.1202 51.4853 45.4691C44.2694 42.7779 38.8239 39.3442 36.5342 35.3729ZM94.8267 50.4707C94.827 50.4708 94.8233 50.4743 94.8146 50.4809C94.822 50.4739 94.8263 50.4706 94.8267 50.4707Z" fill="#42E884" stroke="black" stroke-width="4"/>
<path d="M36.3545 35.9146C33.1867 30.866 33.1276 26.8584 36.1442 21.6485C43.2588 9.36101 71.4258 13.7073 70.3651 17.95C67.0881 31.058 72.2027 45.2532 78.1507 48.3907C89.3151 54.2798 43.8257 47.8217 36.3545 35.9146Z" fill="#50FA94"/>
<path d="M36.5342 35.3729C34.3931 31.6592 33.3936 28.4921 33.3481 25.4051C33.3026 22.3182 34.208 19.1014 36.238 15.2789C38.3535 11.2954 43.4615 8.23988 50.5045 6.12078C57.4403 4.03394 65.7689 3.00002 73.6115 2.68931C81.452 2.37868 88.6788 2.79553 93.3776 3.54831C94.3994 3.71201 95.2548 3.88485 95.9477 4.05516C87.7636 9.61308 84.7934 19.4628 84.7366 28.3417C84.7059 33.1608 85.5222 37.8525 86.9253 41.6995C88.2973 45.4611 90.3579 48.757 93.069 50.3198C93.4168 50.5203 93.6964 50.7004 93.9189 50.8582C93.5839 50.9591 93.1666 51.0592 92.6596 51.1511C88.9727 51.8199 82.3 51.7652 74.6261 50.8283C66.997 49.897 58.5938 48.1202 51.4853 45.4691C44.2694 42.7779 38.8238 39.3442 36.5342 35.3729ZM94.8266 50.4707C94.827 50.4708 94.8233 50.4743 94.8146 50.4809C94.822 50.4739 94.8263 50.4706 94.8266 50.4707Z" stroke="black" stroke-width="4"/>
</svg>
