<svg width="166" height="112" viewBox="0 0 166 112" fill="none" xmlns="http://www.w3.org/2000/svg">
<path d="M161.904 81.3122C158.728 104.811 8.84578 106.081 9.4809 80.042L161.904 81.3122Z" fill="#29CB6A"/>
<path d="M9.48089 81.3122L161.904 82.5824C161.904 82.5824 161.739 9.27284 85.3256 10.6594C12.6709 11.9778 9.48089 81.3122 9.48089 81.3122Z" fill="#29CB6A"/>
<path d="M159.483 80.2188C156.625 101.368 21.7286 102.511 22.3002 79.0755L159.483 80.2188Z" fill="#42E884"/>
<path d="M22.3002 80.2188L159.483 81.362C159.483 81.362 159.334 15.3823 90.5615 16.6303C25.1712 17.8168 22.3002 80.2188 22.3002 80.2188Z" fill="#42E884"/>
<path d="M161.904 82.5824C161.904 82.5824 161.739 9.27284 85.3256 10.6594C12.6709 11.9778 9.48089 81.3122 9.48089 81.3122" stroke="black" stroke-width="5"/>
<path d="M161.904 81.3122C158.728 104.811 8.84578 106.081 9.4809 80.042" stroke="black" stroke-width="5"/>
</svg>
