<svg width="140" height="93" viewBox="0 0 140 93" fill="none" xmlns="http://www.w3.org/2000/svg">
<path d="M-9.15527e-05 20.2398C-9.15527e-05 9.19413 8.95421 0.239807 19.9999 0.239807H120C131.046 0.239807 140 9.19411 140 20.2398V65.554C140 75.0762 133.282 83.3293 123.902 84.9671C84.3799 91.868 56.5023 91.9902 16.1009 84.9605C6.71829 83.3279 -9.15527e-05 75.0746 -9.15527e-05 65.551V20.2398Z" fill="#29CB6A"/>
<path d="M14.3835 33.0891C14.3835 22.0434 23.3378 13.0891 34.3835 13.0891H114.246C125.292 13.0891 134.246 22.0434 134.246 33.0891V66.7354C134.246 76.256 127.541 84.5197 118.154 86.1076C86.2775 91.4997 63.0546 91.5905 30.484 86.1014C21.0945 84.519 14.3835 76.2543 14.3835 66.7324V33.0891Z" fill="#2FE477"/>
<path d="M19.9999 2.73981H120C129.665 2.73981 137.5 10.5748 137.5 20.2398V66.418C137.5 74.4248 132.091 81.3999 124.375 83.1254C84.6366 92.012 56.8755 91.9371 15.7913 83.0317C7.99292 81.3413 2.49991 74.328 2.49991 66.2581V20.2398C2.49991 10.5748 10.3349 2.73981 19.9999 2.73981Z" stroke="black" stroke-width="5"/>
</svg>
