<svg width="259" height="173" viewBox="0 0 259 173" fill="none" xmlns="http://www.w3.org/2000/svg">
<path d="M11.2591 45.3771L255.758 39.5227C255.758 39.5227 242 99.0449 214.5 139.543C186.5 157.591 171.5 158.472 134 158.472C99.149 158.472 95.9999 157.151 60.4999 144.826C31.4999 106.088 11.2591 45.3771 11.2591 45.3771Z" fill="white"/>
<path d="M13.4999 49.5L248.545 44.8064C248.545 44.8064 235.183 102.693 208.494 142.082C181.326 159.64 166.773 160.499 130.394 160.508C96.5837 160.516 94.9364 156.978 60.4999 145C32.376 107.336 13.4999 49.5 13.4999 49.5Z" fill="#29CB6A"/>
<path d="M27.8657 54.4426L246 52C241.5 73.5 216 167.5 136.228 153.256C46.1567 137.173 27.8657 54.4426 27.8657 54.4426Z" fill="#42E884"/>
<path d="M11.4999 46.5L255.758 39.5227C255.758 39.5227 241.99 99.0859 214.471 139.612C186.452 157.673 171.442 158.554 133.916 158.554C99.0411 158.554 95.8897 157.232 60.3653 144.898C31.3453 106.134 11.4999 46.5 11.4999 46.5Z" stroke="black" stroke-width="5"/>
<path d="M256.377 39.4846C260.282 73.4562 7.40851 73.9267 10.7845 42.7343C15.1145 2.72682 252.79 8.28625 256.377 39.4846Z" fill="#29CB6A" stroke="black" stroke-width="5"/>
<path d="M254.125 39.2588C257.881 69.4526 23.7384 68.9168 26.736 41.2194C30.5809 5.69455 250.676 11.5298 254.125 39.2588Z" fill="#2FE477"/>
<path d="M256.377 39.4846C260.282 73.4562 7.40851 73.9267 10.7845 42.7343C15.1145 2.72682 252.79 8.28625 256.377 39.4846Z" stroke="black" stroke-width="5"/>
<path d="M50.9998 78.3773C52.3881 85.8141 47.193 92.7573 42.1657 93.4847C37.1384 94.2121 29.6925 89.0979 28.3043 81.6611C26.916 74.2243 30.8712 67.4604 37.1384 66.5536C43.4056 65.6468 49.6116 70.9405 50.9998 78.3773Z" fill="black"/>
</svg>
