<svg width="253" height="170" viewBox="0 0 253 170" fill="none" xmlns="http://www.w3.org/2000/svg">
<path d="M213.99 17.2348C192.396 10.2033 86.5533 3.4393 17.0722 23.6972C12.2603 25.1002 12.7998 31.5198 17.7265 32.4416L48.1779 38.1391C122.101 52.8766 186.088 39.6401 237.508 27.4623L213.99 17.2348Z" fill="#29CB6A"/>
<path d="M212.608 20.1414C193.846 14.1361 101.811 13.0148 45.4588 33.2864C43.833 33.8713 43.7339 36.0882 45.2754 36.8684L59.9627 44.3018C120.803 56.2034 189.625 38.3316 231.96 28.4199L212.608 20.1414Z" fill="#42E884"/>
<path d="M213.99 17.2348C192.396 10.2033 86.5533 3.4393 17.0722 23.6972C12.2603 25.1002 12.7998 31.5198 17.7265 32.4416L48.1779 38.1391C120.734 52.6041 187.564 42.083 238.631 30.1743C239.563 29.957 239.672 28.6849 238.798 28.2953L213.99 17.2348Z" stroke="black" stroke-width="5"/>
<path d="M20.1114 24.7509L49.2713 38.2721C50.9456 39.0485 52.0561 40.684 52.16 42.5267L57.6491 139.864C57.8822 143.998 53.2765 146.608 49.8498 144.283L20.3228 124.25C19.0334 123.375 18.2256 121.949 18.1379 120.394L13.016 29.5685C12.8034 25.7987 16.6859 23.1626 20.1114 24.7509Z" fill="#29CB6A"/>
<path d="M20.1114 24.7509L49.2713 38.2721C50.9456 39.0485 52.0561 40.684 52.16 42.5267L57.6491 139.864C57.8822 143.998 53.2765 146.608 49.8498 144.283L20.3228 124.25C19.0334 123.375 18.2256 121.949 18.1379 120.394L13.016 29.5685C12.8034 25.7987 16.6859 23.1626 20.1114 24.7509Z" fill="#29CB6A"/>
<path d="M28.19 42.3755L50.5315 53.2477C52.1608 54.0406 53.2336 55.6529 53.3356 57.4621L57.9656 139.564C58.2015 143.748 53.4941 146.349 50.0776 143.921L27.4424 127.84C26.2031 126.959 25.4318 125.563 25.3462 124.045L21.01 47.1529C20.7951 43.3418 24.7577 40.7052 28.19 42.3755Z" fill="#42E884"/>
<path d="M20.1114 24.7509L49.2713 38.2721C50.9456 39.0485 52.0561 40.684 52.16 42.5267L57.6491 139.864C57.8822 143.998 53.2765 146.608 49.8498 144.283L20.3228 124.25C19.0334 123.375 18.2256 121.949 18.1379 120.394L13.016 29.5685C12.8034 25.7987 16.6859 23.1626 20.1114 24.7509Z" stroke="black" stroke-width="5"/>
<path d="M43.4945 40.2363C43.3183 37.1106 46.041 34.5963 49.1476 34.9848C120.73 43.9365 163.944 42.9172 232.219 26.1366C238.721 24.5385 245.017 29.5554 244.786 36.2472L241.716 125.23C241.584 129.064 239.254 132.497 235.735 134.024C166.736 163.963 132.039 168.957 56.4946 149.129C52.3357 148.038 49.3669 144.369 49.1248 140.076L43.4945 40.2363Z" fill="white"/>
<path d="M45.8179 40.0333C45.6409 36.8941 48.3843 34.3751 51.5011 34.7888C120.009 43.8832 159.706 44.3775 224.867 28.0521C231.306 26.4391 237.599 31.3118 237.51 37.9486L236.36 124.015C236.308 127.885 234.017 131.387 230.486 132.971C164.395 162.61 131.192 168.385 58.6942 148.598C54.585 147.477 51.6713 143.832 51.4315 139.579L45.8179 40.0333Z" fill="#42E884"/>
<path d="M63.7888 58.1464C63.6136 55.038 66.2951 52.529 69.389 52.8767C129.257 59.6062 167.489 55.7228 224.599 41.9958C231.004 40.4564 237.181 45.3474 237.066 51.9333L235.795 124.359C235.725 128.312 233.334 131.861 229.677 133.368C171.822 157.206 138.908 160.984 75.7113 145.511C71.4837 144.476 68.4485 140.776 68.2035 136.43L63.7888 58.1464Z" fill="#59FE9B"/>
<path d="M48.8374 37.4655C120.832 46.4687 164.391 45.4245 233.272 28.452C238.091 27.2645 242.749 30.887 242.749 35.7826L242.749 123.724C242.749 128.679 239.809 133.171 235.278 135.099C201.822 149.326 175.815 157.05 148.985 158.84C122.147 160.63 94.2954 156.495 57.1296 146.714C54.0295 145.898 51.8025 143.157 51.6208 139.936L45.9906 40.0956C45.9033 38.5474 47.2601 37.2683 48.8374 37.4655Z" stroke="black" stroke-width="5"/>
<ellipse cx="30.0945" cy="67.5182" rx="7.92348" ry="12.5841" transform="rotate(-3.22763 30.0945 67.5182)" fill="black"/>
</svg>
