<svg width="250" height="250" viewBox="0 0 250 250" fill="none" xmlns="http://www.w3.org/2000/svg">
<rect x="2" y="3" width="242" height="242" rx="121" fill="#D9C24A" fill-opacity="0.15"/>
<g filter="url(#filter0_f)">
<circle cx="125.161" cy="125.2" r="49.2163" fill="#D9C24A" fill-opacity="0.4"/>
</g>
<path d="M90.258 94.4862C115.592 89.6113 163.888 95.1469 154.404 156.289C105.168 155.886 92.8294 140.678 90.258 94.4862Z" fill="#B9A22B" stroke="black" stroke-width="5"/>
<path d="M90.3729 94.8934C110.906 91.4182 150.281 96.5573 143.513 144.914C103.453 143.833 93.1798 131.577 90.3729 94.8934Z" fill="#93801F"/>
<path d="M90.1091 94.6619C116.437 98.7 146.01 113.126 154.255 156.465C105.019 156.062 92.6805 140.854 90.1091 94.6619Z" fill="#D9C24A" stroke="black" stroke-width="5"/>
<path d="M125.017 150.889C97.9357 145.127 94.2865 111.708 93.9023 99.3198L108.595 105.658C103.121 112.86 101.969 142.131 125.017 150.889Z" fill="#F2DA5B"/>
<g filter="url(#filter1_f)">
<path d="M111 87.9642C112.777 85.6942 118.299 81.5127 126.171 82.9464C134.044 84.38 135.644 80.2271 140.112 82.9464C145.708 86.3518 148.559 91.4051 142.982 98" stroke="#D9C24A" stroke-opacity="0.75" stroke-width="2"/>
</g>
<path d="M111 87.9642C112.777 85.6942 118.299 81.5127 126.171 82.9464C134.044 84.38 135.644 80.2271 140.112 82.9464C145.708 86.3518 148.559 91.4051 142.982 98" stroke="#F2DA5B" stroke-width="2" stroke-linecap="round" stroke-linejoin="round"/>
<path d="M124.5 83C126.5 82.6667 130.7 81.5 131.5 79.5C132.5 77 134 75 139 77C144 79 139 81.5 144 85.5" stroke="#F2DA5B"/>
<g filter="url(#filter2_f)">
<path d="M132.116 152.62C129.322 154.341 121.243 156.882 111.279 153.274C101.314 149.667 98.3543 153.278 93.0992 149.368C86.5181 144.47 83.8618 138.731 92.5192 133.846" stroke="#D9C24A" stroke-opacity="0.75" stroke-width="2"/>
</g>
<path d="M140.5 156C137.706 157.721 126.775 172.92 114.001 154.5C107.223 144.726 98.3544 153.278 93.0994 149.368C86.5183 144.47 83.862 138.731 92.5194 133.846" stroke="#F2DA5B" stroke-width="2" stroke-linecap="round" stroke-linejoin="round"/>
<path d="M113.468 153.69C110.79 153.456 105.068 153.419 103.605 155.15C101.775 157.314 99.3991 158.849 93.2991 155.493C87.1991 152.136 94.2445 151.093 88.5647 145.781" stroke="#F2DA5B"/>
<path d="M135.5 159.5C132.5 162.5 130.501 161 129.501 159.5C128.501 158 128.477 156.847 125.001 156C121.524 155.153 122.997 159.46 119.001 159.5" stroke="#F2DA5B" stroke-linecap="round"/>
<defs>
<filter id="filter0_f" x="0.944336" y="0.984123" width="248.433" height="248.433" filterUnits="userSpaceOnUse" color-interpolation-filters="sRGB">
<feFlood flood-opacity="0" result="BackgroundImageFix"/>
<feBlend mode="normal" in="SourceGraphic" in2="BackgroundImageFix" result="shape"/>
<feGaussianBlur stdDeviation="37.5" result="effect1_foregroundBlur"/>
</filter>
<filter id="filter1_f" x="106.213" y="77" width="44.7884" height="25.6457" filterUnits="userSpaceOnUse" color-interpolation-filters="sRGB">
<feFlood flood-opacity="0" result="BackgroundImageFix"/>
<feBlend mode="normal" in="SourceGraphic" in2="BackgroundImageFix" result="shape"/>
<feGaussianBlur stdDeviation="2" result="effect1_foregroundBlur"/>
</filter>
<filter id="filter2_f" x="80.0308" y="128.058" width="59.0274" height="35.5165" filterUnits="userSpaceOnUse" color-interpolation-filters="sRGB">
<feFlood flood-opacity="0" result="BackgroundImageFix"/>
<feBlend mode="normal" in="SourceGraphic" in2="BackgroundImageFix" result="shape"/>
<feGaussianBlur stdDeviation="2" result="effect1_foregroundBlur"/>
</filter>
</defs>
</svg>
