<svg width="250" height="250" viewBox="0 0 250 250" fill="none" xmlns="http://www.w3.org/2000/svg">
<rect x="2" y="3" width="242" height="242" rx="121" fill="#E0824D" fill-opacity="0.15"/>
<g filter="url(#filter0_f)">
<circle cx="125.161" cy="125.2" r="49.2163" fill="#CC4900" fill-opacity="0.2"/>
</g>
<g filter="url(#filter1_f)">
<path d="M165.298 125.279C164.692 134.876 165.129 137.493 169.032 146.077C174.365 157.81 167.965 163.143 160.498 165.276C150.981 167.994 142.64 162.233 133.83 161.543C123.031 160.697 125.699 167.266 111 164C101.399 161.867 102.246 149.903 96.4934 142.344C92.7094 137.372 84.3862 140.274 82 134.5C78.3412 125.646 84.275 117.519 83.1594 108.214C82.089 99.2863 72.2979 90.9532 77.9997 84C81.8839 79.2634 90.4697 83.7315 96.4934 82.6161C105.095 81.0232 109.423 73.5486 118 75C124.401 76.0832 128.466 83.4674 137 92C145.533 100.533 152.581 94.0633 160.498 100C164.764 103.2 166.056 113.281 165.298 125.279Z" fill="#CB2929" fill-opacity="0.5"/>
</g>
<path d="M147.124 84C150.696 89.2228 151.213 92.5002 147.124 92.9839C144.834 93.2547 142.805 90.0404 144.834 88.5042C146.863 86.9681 147.259 85.2801 147.124 84Z" fill="#CB2929"/>
<path d="M152.918 80C150.536 84.0622 150.191 86.6113 152.918 86.9875C154.444 87.1981 155.797 84.6981 154.444 83.5033C153.091 82.3085 152.827 80.9956 152.918 80Z" fill="#CB5029"/>
<path d="M91.9175 72C89.5362 76.6425 89.1913 79.5558 91.9175 79.9857C93.444 80.2264 94.7967 77.3692 93.444 76.0038C92.0912 74.6383 91.8273 73.1379 91.9175 72Z" fill="#CB2929"/>
<path d="M76.9175 107C74.5362 111.062 74.1913 113.611 76.9175 113.987C78.444 114.198 79.7967 111.698 78.444 110.503C77.0912 109.309 76.8273 107.996 76.9175 107Z" fill="#CB5029"/>
<path d="M176.918 142C174.536 146.062 174.191 148.611 176.918 148.987C178.444 149.198 179.797 146.698 178.444 145.503C177.091 144.309 176.827 142.996 176.918 142Z" fill="#CB5029"/>
<path d="M172.918 135C170.536 139.643 170.191 142.556 172.918 142.986C174.444 143.226 175.797 140.369 174.444 139.004C173.091 137.638 172.827 136.138 172.918 135Z" fill="#CB8129"/>
<path d="M126.603 66C129.58 70.6425 130.011 73.5558 126.603 73.9857C124.695 74.2264 123.004 71.3692 124.695 70.0038C126.386 68.6383 126.716 67.1379 126.603 66Z" fill="#CB2929"/>
<path d="M122.959 64C121.768 66.3213 121.596 67.7779 122.959 67.9928C123.722 68.1132 124.398 66.6846 123.722 66.0019C123.046 65.3192 122.914 64.5689 122.959 64Z" fill="#CB8129"/>
<path d="M165.298 125.279C164.692 134.876 165.129 137.493 169.032 146.077C174.365 157.81 167.965 163.143 160.498 165.276C150.981 167.994 142.64 162.233 133.83 161.543C123.031 160.697 125.699 167.266 111 164C101.399 161.867 102.246 149.903 96.4934 142.344C92.7094 137.372 84.3862 140.274 82 134.5C78.3412 125.646 84.275 117.519 83.1594 108.214C82.089 99.2863 72.2979 90.9532 77.9997 84C81.8839 79.2634 90.4697 83.7315 96.4934 82.6161C105.095 81.0232 109.423 73.5486 118 75C124.401 76.0832 128.466 83.4674 137 92C145.533 100.533 152.581 94.0633 160.498 100C164.764 103.2 166.056 113.281 165.298 125.279Z" fill="#CB2929"/>
<path d="M161 126.5C160.431 135.498 160.841 137.952 164.5 146C169.5 157 163.5 162 156.5 164C147.578 166.549 139.759 161.147 131.5 160.5C121.377 159.707 123.279 163.562 109.5 160.5C100.5 158.5 101.892 149.587 96.4996 142.5C92.9524 137.838 86.2367 135.414 83.9998 130C80.5699 121.699 85.0457 119.224 83.9998 110.5C82.9964 102.13 74.6545 95.5192 79.9996 89C83.6408 84.5591 90.8528 87.5458 96.4996 86.5C104.563 85.0066 108.46 79.1392 116.5 80.5C122.5 81.5156 125 84 133 92C141 100 146.579 98.9339 154 104.5C158 107.5 161.71 115.251 161 126.5Z" fill="#CB5029"/>
<path d="M157.208 126.614C156.699 134.718 157.066 136.928 160.346 144.176C164.828 154.084 159.449 158.587 153.174 160.388C145.176 162.684 138.166 157.819 130.761 157.236C121.686 156.522 123.391 159.994 111.038 157.236C102.969 155.435 104.218 147.407 99.3829 141.024C96.2028 136.826 90.1821 134.642 88.1767 129.766C85.1017 122.289 89.1143 120.061 88.1767 112.203C87.2771 104.664 79.7985 98.7102 84.5904 92.8386C87.8548 88.8388 94.3205 91.5289 99.3829 90.5869C106.612 89.2418 110.105 83.9573 117.313 85.1829C122.693 86.0977 124.934 88.3353 132.106 95.5406C139.278 102.746 144.28 101.786 150.933 106.799C154.518 109.501 157.845 116.482 157.208 126.614Z" fill="#CB8129"/>
<path d="M90.258 94.4862C115.592 89.6113 163.888 95.147 154.404 156.289C105.168 155.886 92.8294 140.678 90.258 94.4862Z" fill="#AE741C" stroke="black" stroke-width="5"/>
<path d="M90.3729 94.8934C110.906 91.4183 150.281 96.5573 143.513 144.914C103.453 143.833 93.1798 131.577 90.3729 94.8934Z" fill="#8B4918"/>
<path d="M90.1091 94.6619C116.437 98.7 146.01 113.126 154.255 156.465C105.019 156.062 92.6805 140.854 90.1091 94.6619Z" fill="#CB5029" stroke="black" stroke-width="5"/>
<path d="M125.017 150.889C97.9362 145.127 94.287 111.708 93.9028 99.3199L108.596 105.658C103.122 112.86 101.97 142.131 125.017 150.889Z" fill="#E0824D"/>
<defs>
<filter id="filter0_f" x="0.944336" y="0.984123" width="248.433" height="248.433" filterUnits="userSpaceOnUse" color-interpolation-filters="sRGB">
<feFlood flood-opacity="0" result="BackgroundImageFix"/>
<feBlend mode="normal" in="SourceGraphic" in2="BackgroundImageFix" result="shape"/>
<feGaussianBlur stdDeviation="37.5" result="effect1_foregroundBlur"/>
</filter>
<filter id="filter1_f" x="36.228" y="34.8141" width="174.772" height="171.186" filterUnits="userSpaceOnUse" color-interpolation-filters="sRGB">
<feFlood flood-opacity="0" result="BackgroundImageFix"/>
<feBlend mode="normal" in="SourceGraphic" in2="BackgroundImageFix" result="shape"/>
<feGaussianBlur stdDeviation="20" result="effect1_foregroundBlur"/>
</filter>
</defs>
</svg>
