<svg width="250" height="250" viewBox="0 0 250 250" fill="none" xmlns="http://www.w3.org/2000/svg">
<rect x="2" y="3" width="242" height="242" rx="121" fill="#29CB6A" fill-opacity="0.15"/>
<g filter="url(#filter0_f)">
<circle cx="125.161" cy="125.2" r="49.2163" fill="#66CC00" fill-opacity="0.2"/>
</g>
<path d="M90.2577 94.4862C115.591 89.6113 163.888 95.1469 154.404 156.289C105.168 155.886 92.8291 140.678 90.2577 94.4862Z" fill="#1CAE56" stroke="black" stroke-width="5"/>
<path d="M90.3726 94.8934C110.906 91.4182 150.281 96.5573 143.513 144.914C103.453 143.833 93.1795 131.577 90.3726 94.8934Z" fill="#188B46"/>
<path d="M90.1088 94.6619C116.436 98.7 146.01 113.126 154.255 156.465C105.019 156.062 92.6803 140.854 90.1088 94.6619Z" fill="#29CB6A" stroke="black" stroke-width="5"/>
<path d="M125.017 150.889C97.9357 145.127 94.2865 111.708 93.9023 99.3198L108.595 105.658C103.121 112.86 101.969 142.131 125.017 150.889Z" fill="#4DE087"/>
<defs>
<filter id="filter0_f" x="0.94458" y="0.984123" width="248.433" height="248.433" filterUnits="userSpaceOnUse" color-interpolation-filters="sRGB">
<feFlood flood-opacity="0" result="BackgroundImageFix"/>
<feBlend mode="normal" in="SourceGraphic" in2="BackgroundImageFix" result="shape"/>
<feGaussianBlur stdDeviation="37.5" result="effect1_foregroundBlur"/>
</filter>
</defs>
</svg>
