<svg width="250" height="250" viewBox="0 0 250 250" fill="none" xmlns="http://www.w3.org/2000/svg">
<rect x="2" y="3" width="242" height="242" rx="121" fill="#D0FCFF" fill-opacity="0.1"/>
<g filter="url(#filter0_f)">
<circle cx="125.161" cy="125.2" r="49.2163" fill="#D0FCFF" fill-opacity="0.4"/>
</g>
<path d="M132.438 173.81L130 154L156 157.048L150.719 172.794C150.719 172.794 149.541 168.033 148.281 165.175C146 160 142.188 186 142.188 186C142.188 186 139.688 163.357 137 163C132.46 162.397 132.438 173.81 132.438 173.81Z" fill="#A3EDF2"/>
<path d="M132.5 170.5L130 154L156 157.048L151 169.5C151 169.5 150.444 164.68 149.094 162.127C144.556 153.548 142.188 186 142.188 186C142.188 186 139.875 161 137.5 161C133.715 161 132.5 170.5 132.5 170.5Z" fill="#BBFBFF"/>
<path d="M142 177V158L146 158.5L142 177Z" fill="white"/>
<path d="M132.5 167L133 158H134.5L132.5 167Z" fill="white"/>
<path d="M151.5 168L152.5 159H154.5L151.5 168Z" fill="white"/>
<path d="M90.2575 94.4862C115.591 89.6113 163.887 95.1469 154.404 156.289C105.168 155.886 92.8289 140.678 90.2575 94.4862Z" fill="#BFEDF0" stroke="black" stroke-width="5"/>
<path d="M90.3724 94.8934C110.906 91.4182 150.281 96.5573 143.512 144.914C103.452 143.833 93.1793 131.577 90.3724 94.8934Z" fill="#92C9CC"/>
<path d="M90.1086 94.6619C116.436 98.7 146.01 113.126 154.255 156.465C105.019 156.062 92.68 140.854 90.1086 94.6619Z" fill="#D0FCFF" stroke="black" stroke-width="5"/>
<path d="M125.017 150.889C97.9357 145.127 94.2865 111.708 93.9023 99.3198L108.595 105.658C103.121 112.86 101.969 142.131 125.017 150.889Z" fill="#BFECEF"/>
<path d="M92.7396 164.656C92.7396 164.656 88.2123 124.22 90.7125 119.72C95.4453 134.045 98.0324 140.707 102.212 143.436L100.268 150.854C100.268 150.854 98.7407 146.194 97.2719 143.436C94.6132 138.445 92.7396 164.656 92.7396 164.656Z" fill="#A3EDF2"/>
<path d="M92.7398 164.656C92.7398 164.656 89.7122 125.22 91.2124 121.72C92.8791 127.887 97.3125 140.82 101.712 143.22L100.304 147.548C100.304 147.548 99.7484 145.666 98.2124 143.22C93.0512 135.001 92.7398 164.656 92.7398 164.656Z" fill="#BBFBFF"/>
<path d="M92.8798 148.844L92.8801 129.72C94.3927 133.561 95.0332 135.776 95.7121 136.22L92.8798 148.844Z" fill="white"/>
<defs>
<filter id="filter0_f" x="0.944336" y="0.984123" width="248.433" height="248.433" filterUnits="userSpaceOnUse" color-interpolation-filters="sRGB">
<feFlood flood-opacity="0" result="BackgroundImageFix"/>
<feBlend mode="normal" in="SourceGraphic" in2="BackgroundImageFix" result="shape"/>
<feGaussianBlur stdDeviation="37.5" result="effect1_foregroundBlur"/>
</filter>
</defs>
</svg>
