<svg width="224" height="225" viewBox="0 0 224 225" fill="none" xmlns="http://www.w3.org/2000/svg">
<rect x="20" y="21" width="181" height="181" rx="90.5" fill="#D0FCFF" fill-opacity="0.05"/>
<g filter="url(#filter0_f)">
<circle cx="112.116" cy="112.397" r="36.8105" fill="#D0FCFF" fill-opacity="0.4"/>
</g>
<path d="M117.558 148.754L115.735 133.938L135.182 136.217L131.232 147.994C131.232 147.994 130.351 144.433 129.409 142.295C127.702 138.425 124.851 157.871 124.851 157.871C124.851 157.871 122.981 140.936 120.971 140.669C117.575 140.218 117.558 148.754 117.558 148.754Z" fill="#A3EDF2"/>
<path d="M117.605 146.278L115.735 133.938L135.182 136.217L131.442 145.53C131.442 145.53 131.026 141.925 130.016 140.016C126.623 133.599 124.851 157.871 124.851 157.871C124.851 157.871 123.121 139.173 121.345 139.173C118.514 139.173 117.605 146.278 117.605 146.278Z" fill="#BBFBFF"/>
<path d="M124.71 151.14V136.93L127.702 137.304L124.71 151.14Z" fill="white"/>
<path d="M117.605 143.661L117.979 136.93H119.101L117.605 143.661Z" fill="white"/>
<path d="M131.816 144.409L132.564 137.677H134.059L131.816 144.409Z" fill="white"/>
<path d="M86.0104 89.4255C104.958 85.7794 141.081 89.9197 133.987 135.65C97.1623 135.349 87.9336 123.974 86.0104 89.4255Z" fill="#BFEDF0" stroke="black" stroke-width="3"/>
<path d="M86.0964 89.7303C101.454 87.1311 130.904 90.9748 125.842 127.143C95.8794 126.334 88.1958 117.167 86.0964 89.7303Z" fill="#92C9CC"/>
<path d="M85.8992 89.5567C105.59 92.5769 127.71 103.367 133.876 135.781C97.0511 135.48 87.8224 124.105 85.8992 89.5567Z" fill="#D0FCFF" stroke="black" stroke-width="3"/>
<path d="M112.008 131.611C91.7532 127.301 89.0239 102.306 88.7366 93.0405L99.7259 97.781C95.6318 103.168 94.7699 125.06 112.008 131.611Z" fill="#BFECEF"/>
<path d="M87.8671 141.908C87.8671 141.908 84.4809 111.664 86.3509 108.299C89.8907 119.013 91.8257 123.996 94.9519 126.037L93.4977 131.585C93.4977 131.585 92.3555 128.099 91.2569 126.037C89.2684 122.304 87.8671 141.908 87.8671 141.908Z" fill="#A3EDF2"/>
<path d="M87.8669 141.908C87.8669 141.908 85.6024 112.412 86.7245 109.794C87.9711 114.406 91.2869 124.08 94.5778 125.875L93.5246 129.112C93.5246 129.112 93.1088 127.704 91.96 125.875C88.0997 119.727 87.8669 141.908 87.8669 141.908Z" fill="#BBFBFF"/>
<path d="M87.972 130.081L87.9722 115.778C89.1036 118.651 89.5826 120.308 90.0904 120.64L87.972 130.081Z" fill="white"/>
<defs>
<filter id="filter0_f" x="0.30542" y="0.586914" width="223.621" height="223.621" filterUnits="userSpaceOnUse" color-interpolation-filters="sRGB">
<feFlood flood-opacity="0" result="BackgroundImageFix"/>
<feBlend mode="normal" in="SourceGraphic" in2="BackgroundImageFix" result="shape"/>
<feGaussianBlur stdDeviation="37.5" result="effect1_foregroundBlur"/>
</filter>
</defs>
</svg>
