<svg width="326" height="429" viewBox="0 0 326 429" fill="none" xmlns="http://www.w3.org/2000/svg">
<path d="M265.821 370.093L267.711 393.091C267.672 396.944 265.321 401.002 260.208 405.049C255.08 409.109 247.504 412.875 237.919 416.084C218.777 422.493 192.172 426.5 162.67 426.5C133.168 426.5 106.563 422.493 87.4207 416.084C77.8364 412.875 70.2604 409.109 65.1317 405.049C60.0135 400.998 57.6632 396.936 57.6293 393.079L59.1964 371.336L265.821 370.093Z" fill="#ADE0F0" stroke="black" stroke-width="5"/>
<path d="M267.711 370.12C267.711 374.002 265.364 378.094 260.209 382.175C255.08 386.235 247.504 390.001 237.92 393.209C218.777 399.619 192.172 403.626 162.67 403.626C133.168 403.626 106.564 399.619 87.4209 393.209C77.8366 390.001 70.2607 386.235 65.1319 382.175C59.9762 378.094 57.6292 374.002 57.6292 370.12C57.6292 366.239 59.9762 362.147 65.1319 358.066C70.2607 354.006 77.8366 350.24 87.4209 347.031C106.564 340.622 133.168 336.615 162.67 336.615C192.172 336.615 218.777 340.622 237.92 347.031C247.504 350.24 255.08 354.006 260.209 358.066C265.364 362.147 267.711 366.239 267.711 370.12Z" fill="#5EC7E8" stroke="black" stroke-width="5"/>
<path d="M253.237 368.524C253.237 371.375 251.243 374.411 246.852 377.435C242.507 380.426 236.122 383.179 228.097 385.516C212.067 390.183 189.834 393.091 165.214 393.091C140.593 393.091 118.36 390.183 102.33 385.516C94.3051 383.179 87.9202 380.426 83.5755 377.435C79.1839 374.411 77.1897 371.375 77.1897 368.524C77.1897 365.672 79.1839 362.636 83.5755 359.613C87.9202 356.622 94.3051 353.868 102.33 351.531C118.36 346.864 140.593 343.956 165.214 343.956C189.834 343.956 212.067 346.864 228.097 351.531C236.122 353.868 242.507 356.622 246.852 359.613C251.243 362.636 253.237 365.672 253.237 368.524Z" fill="url(#paint0_linear)" stroke="black" stroke-width="3"/>
<path d="M241.5 368.055C241.5 368.852 241.161 369.746 240.286 370.747C239.402 371.758 238.031 372.804 236.144 373.849C232.371 375.937 226.811 377.865 219.812 379.504C205.839 382.774 186.459 384.811 165 384.811C143.541 384.811 124.161 382.774 110.188 379.504C103.189 377.865 97.6293 375.937 93.8559 373.849C91.9688 372.804 90.5977 371.758 89.714 370.747C88.8387 369.746 88.5 368.852 88.5 368.055C88.5 367.257 88.8387 366.364 89.714 365.362C90.5977 364.352 91.9688 363.305 93.8559 362.261C97.6293 360.172 103.189 358.244 110.188 356.606C124.161 353.335 143.541 351.298 165 351.298C186.459 351.298 205.839 353.335 219.812 356.606C226.811 358.244 232.371 360.172 236.144 362.261C238.031 363.305 239.402 364.352 240.286 365.362C241.161 366.364 241.5 367.257 241.5 368.055Z" fill="#73CFEC" stroke="black" stroke-width="3"/>
<path d="M236.8 396.383L245.849 392.994V411.209L236.8 414.598V396.383Z" fill="white" fill-opacity="0.5"/>
<path d="M229.492 398.501L233.32 397.23V415.868L229.492 417.139V398.501Z" fill="white" fill-opacity="0.5"/>
<path d="M268.471 368.849L270.211 390.453C270.211 410.338 222.063 426.458 162.67 426.458C103.277 426.458 55.1289 410.338 55.1289 390.453L56.8691 370.967" stroke="black" stroke-width="5"/>
<path d="M66.2658 364.099L43.1353 110.519H284.721L259.021 364.099C245.314 389.371 80.8295 388.943 66.2658 364.099Z" fill="#9AE1FF" fill-opacity="0.15"/>
<path d="M275.726 116.516H238.032L229.893 358.959H254.309L275.726 116.516Z" fill="url(#paint1_linear)"/>
<path d="M257.877 368.081C260.5 384.5 214.728 399.5 161.5 399.5C108.272 399.5 64.6923 380.5 66.0001 363.5C66.5386 356.5 108.272 340.5 161.5 340.5C214.728 340.5 255.255 351.663 257.877 368.081Z" fill="#D8EDF4" fill-opacity="0.11"/>
<path d="M35.5746 81.3104L291.027 80.0478L293.357 103.354C293.317 106.577 291.601 109.961 287.728 113.408C283.803 116.901 277.87 120.254 270.014 123.283C254.318 129.335 231.498 133.886 203.318 135.941C201.419 136.079 199.755 136.811 198.762 138.451C197.922 139.838 197.833 141.493 197.829 142.738C197.827 143.475 197.851 144.192 197.875 144.898C197.946 146.955 198.013 148.927 197.402 151.081C196.663 153.68 194.84 156.592 189.86 159.16C184.782 161.779 176.48 164.002 162.96 164.996C150.862 164.494 143.224 162.471 138.381 159.906C133.613 157.379 131.482 154.293 130.411 151.359C129.512 148.898 129.329 146.548 129.151 144.264C129.103 143.653 129.056 143.047 128.995 142.445C128.868 141.18 128.653 139.602 127.905 138.332C127.492 137.631 126.899 136.987 126.073 136.54C125.291 136.117 124.444 135.947 123.601 135.935C95.459 133.878 72.6666 129.329 56.986 123.283C49.1294 120.254 43.1971 116.901 39.2716 113.408C35.3929 109.956 33.6779 106.567 33.6422 103.34L35.5746 81.3104Z" fill="#ADE0F0" stroke="black" stroke-width="5"/>
<path d="M293.358 80.1067C293.358 83.8201 290.593 87.9561 284.094 92.1831C277.701 96.3404 268.286 100.18 256.428 103.442C232.748 109.956 199.892 114.016 163.5 114.016C127.108 114.016 94.2521 109.956 70.5715 103.442C58.7135 100.18 49.2983 96.3404 42.906 92.1831C36.4066 87.9561 33.6416 83.8201 33.6416 80.1067C33.6416 76.3934 36.4066 72.2574 42.906 68.0304C49.2983 63.8731 58.7135 60.0339 70.5715 56.772C94.2521 50.2579 127.108 46.1975 163.5 46.1975C199.892 46.1975 232.748 50.2579 256.428 56.772C268.286 60.0339 277.701 63.8731 284.094 68.0304C290.593 72.2574 293.358 76.3934 293.358 80.1067Z" fill="#E4F8FF" stroke="black" stroke-width="5"/>
<path d="M254.737 106.664L265.874 103.237V121.656L254.737 125.083V106.664Z" fill="white" fill-opacity="0.5"/>
<path d="M245.742 108.806L250.454 107.521V126.368L245.742 127.653V108.806Z" fill="white" fill-opacity="0.5"/>
<path d="M293.716 78.8217L295.858 100.667C295.858 117.142 256.079 131.062 201.5 135.554C189.464 136.544 214.5 163.362 164 164C113.5 164.638 137.536 136.544 125.5 135.554C70.921 131.062 31.1416 117.142 31.1416 100.667L33.2833 80.9634" stroke="black" stroke-width="5"/>
<path d="M30.7134 80.82L30.7134 67.5C64.1242 115.475 256.521 114.403 295.5 66V78C277.938 119.549 72.2627 126.653 30.7134 80.82Z" fill="#2DB3FF"/>
<path d="M293.358 69.4092C293.358 73.1226 290.593 77.2586 284.094 81.4856C277.701 85.6429 268.286 89.4821 256.428 92.744C232.748 99.2581 199.892 103.318 163.5 103.318C127.108 103.318 94.2521 99.2581 70.5715 92.744C58.7135 89.4821 49.2983 85.6429 42.906 81.4856C36.4066 77.2586 33.6416 73.1226 33.6416 69.4092C33.6416 52.1084 47.4116 35.4107 71.0778 22.8858C94.6093 10.4323 127.284 2.5 163.5 2.5C199.71 2.5 232.383 10.5546 255.917 23.0709C279.596 35.6638 293.358 52.3632 293.358 69.4092Z" fill="#E4F8FF" stroke="black" stroke-width="5"/>
<path d="M262 62.5C262 78.5866 215.936 92.5 157.503 92.5C99.0711 92.5 46.5 78.5866 46.5 62.5C46.5 46.4134 99.0711 10.5 157.503 10.5C215.936 10.5 262 46.4134 262 62.5Z" fill="url(#paint2_linear)" fill-opacity="0.5"/>
<g filter="url(#filter0_f)">
<path d="M30.7134 80.82L30.7134 67.5C64.1242 115.475 256.521 114.403 295.5 66V78C277.938 119.549 72.2627 126.653 30.7134 80.82Z" fill="#2DB3FF" fill-opacity="0.75"/>
</g>
<circle cx="164" cy="79" r="6.5" fill="#62EB32" stroke="#0A2838" stroke-width="3"/>
<circle cx="136" cy="74" r="6.5" fill="#62EB32" stroke="#0A2838" stroke-width="3"/>
<circle cx="192" cy="74" r="6.5" fill="#62EB32" stroke="#0A2838" stroke-width="3"/>
<path d="M195.5 77.5001C194.675 73.2926 193.446 71.5153 190 69.3751C190 69.3751 193.928 68.0986 196 71.0001C198.5 74.5001 195.5 77.5001 195.5 77.5001Z" fill="white" fill-opacity="0.3"/>
<path d="M167.5 82.5C166.675 78.2925 165.446 76.6402 162 74.5C162 74.5 165.335 72.8017 168 76C170.173 78.6081 168 82.4999 167.5 82.5Z" fill="white" fill-opacity="0.3"/>
<path d="M139.5 77.4505C138.675 73.243 137.446 71.5907 134 69.4505C134 69.4505 137.335 67.7522 140 70.9505C142.173 73.5586 140 77.4504 139.5 77.4505Z" fill="white" fill-opacity="0.3"/>
<defs>
<filter id="filter0_f" x="0.713379" y="36" width="324.787" height="106.284" filterUnits="userSpaceOnUse" color-interpolation-filters="sRGB">
<feFlood flood-opacity="0" result="BackgroundImageFix"/>
<feBlend mode="normal" in="SourceGraphic" in2="BackgroundImageFix" result="shape"/>
<feGaussianBlur stdDeviation="15" result="effect1_foregroundBlur"/>
</filter>
<linearGradient id="paint0_linear" x1="32.427" y1="363.832" x2="258.687" y2="370.584" gradientUnits="userSpaceOnUse">
<stop stop-color="#FF7360"/>
<stop offset="1" stop-color="#FFC774"/>
</linearGradient>
<linearGradient id="paint1_linear" x1="259.877" y1="29.9904" x2="246.17" y2="358.959" gradientUnits="userSpaceOnUse">
<stop stop-color="#AAF5FF" stop-opacity="0.23"/>
<stop offset="1" stop-color="#C4C4C4" stop-opacity="0"/>
</linearGradient>
<linearGradient id="paint2_linear" x1="244.56" y1="45.7279" x2="75.4633" y2="85.3361" gradientUnits="userSpaceOnUse">
<stop offset="0.095841" stop-color="white"/>
<stop offset="1" stop-color="#E4F8FF" stop-opacity="0"/>
</linearGradient>
</defs>
</svg>
