<svg width="767" height="720" viewBox="0 0 767 720" fill="none" xmlns="http://www.w3.org/2000/svg">
<g filter="url(#filter0_f)">
<circle cx="360" cy="360" r="160" fill="#29CB6A" fill-opacity="0.3"/>
</g>
<path d="M220.984 197.26L190.472 225.02L207.08 239.663L238.344 218.252L242.904 197.785L220.984 197.26Z" fill="#D0FCFF"/>
<path d="M242.904 197.785L198.666 232.226L193.012 222.82L220.984 197.26L242.904 197.785Z" fill="#9EE3E7"/>
<path d="M229.042 210.115L242.673 198.005L227.504 208.27L229.042 210.115Z" fill="white"/>
<path d="M220.984 197.26L229.775 207.872L227.94 208.959L220.984 197.26Z" fill="white"/>
<path d="M228.38 209.421L229.995 208.103L238.344 218.252L228.38 209.421Z" fill="white"/>
<path d="M203.234 230.3L229.505 209.674L227.966 207.828L201.222 229.347L203.234 230.3Z" fill="white"/>
<path d="M227.932 225.432L188.857 238.651L198.212 258.719L235.434 251.619L247.808 234.69L227.932 225.432Z" fill="#D0FCFF"/>
<path d="M247.808 234.69L193.48 248.535L192.066 237.652L227.932 225.432L247.808 234.69Z" fill="#9EE3E7"/>
<path d="M230.168 240.438L247.508 234.8L229.498 238.131L230.168 240.438Z" fill="white"/>
<path d="M227.932 225.432L231.738 238.676L229.621 238.937L227.932 225.432Z" fill="white"/>
<path d="M229.84 239.537L231.847 238.976L235.434 251.619L229.84 239.537Z" fill="white"/>
<path d="M198.437 248.6L230.769 240.219L230.098 237.912L196.975 246.921L198.437 248.6Z" fill="white"/>
<path d="M190.797 201.041L178.126 225.763L192.063 231.066L206.71 210.169L204.742 196.186L190.797 201.041Z" fill="#D0FCFF"/>
<path d="M204.742 196.186L184.998 228.368L179.207 223.775L190.797 201.041L204.742 196.186Z" fill="#9EE3E7"/>
<path d="M198.919 207.24L204.648 196.379L197.512 206.44L198.919 207.24Z" fill="white"/>
<path d="M190.797 201.041L198.85 205.652L197.95 206.772L190.797 201.041Z" fill="white"/>
<path d="M198.338 206.959L199.044 205.746L206.71 210.17L198.338 206.959Z" fill="white"/>
<path d="M187.422 226.073L199.107 206.852L197.7 206.053L185.928 225.948L187.422 226.073Z" fill="white"/>
<path d="M219.982 225.589C225.474 233.058 235.14 229.324 234.481 242.944C249.767 218.681 216.906 206.696 203.506 220.756C217.565 218.998 217.565 223.832 217.565 223.832C217.565 223.832 219.103 222.953 219.103 221.635C219.982 222.733 220.641 224.051 219.982 225.589Z" fill="#9EE3E7" stroke="black" stroke-width="3" stroke-linejoin="round"/>
<path d="M234.386 243.164C248.342 220.263 236.26 209.818 218.225 213.287C212.513 214.385 209.34 216.394 205.263 218.528C214.49 215.044 225.004 218.374 228.11 223.612C229.654 223.093 230.607 221.691 230.966 219.877C232.557 222.006 231.811 224.184 230.966 226.028C237.179 228.938 235.357 234.241 234.386 243.164Z" fill="#D0FCFF" stroke="black" stroke-width="3" stroke-linejoin="round"/>
<path d="M215.808 217.241C202.847 215.165 195.648 222.731 192.521 227.782L195.556 231.301C201.295 220.692 211.302 216.519 215.808 217.241Z" fill="#57A0A4" stroke="black" stroke-width="3"/>
<path d="M170.424 366.641C158.206 342.607 125.159 350.499 135.192 365.059C149.429 385.722 168.458 382.535 170.424 366.641Z" fill="#57A0A4"/>
<path d="M170.424 366.641L171.913 366.826L171.969 366.371L171.761 365.962L170.424 366.641ZM135.192 365.059L136.427 364.208L135.192 365.059ZM147.53 357.696C146.724 357.888 146.226 358.696 146.418 359.502C146.61 360.308 147.418 360.806 148.224 360.615L147.53 357.696ZM171.761 365.962C165.345 353.341 153.408 349.044 144.326 349.884C139.826 350.3 135.788 352.004 133.563 354.862C132.43 356.317 131.784 358.057 131.824 359.992C131.865 361.913 132.577 363.908 133.957 365.91L136.427 364.208C135.298 362.57 134.849 361.134 134.824 359.93C134.799 358.74 135.184 357.663 135.93 356.706C137.46 354.74 140.568 353.244 144.602 352.871C152.59 352.133 163.285 355.908 169.087 367.321L171.761 365.962ZM133.957 365.91C141.246 376.49 149.985 381.279 157.454 381.058C165.056 380.834 170.849 375.425 171.913 366.826L168.935 366.457C168.033 373.751 163.328 377.883 157.365 378.06C151.269 378.24 143.374 374.291 136.427 364.208L133.957 365.91ZM171.665 365.8C168.904 361.728 160.314 354.656 147.53 357.696L148.224 360.615C159.512 357.93 166.942 364.179 169.182 367.483L171.665 365.8Z" fill="black"/>
<path d="M169.402 364.585C166.32 360.367 150.664 354.268 134.559 363.205C128.568 348.499 159.095 345.506 169.402 364.585Z" fill="white" fill-opacity="0.25"/>
<path d="M170.424 366.641L171.913 366.826L171.969 366.371L171.761 365.962L170.424 366.641ZM135.192 365.059L136.427 364.208L135.192 365.059ZM147.53 357.696C146.724 357.888 146.226 358.696 146.418 359.502C146.61 360.308 147.418 360.806 148.224 360.615L147.53 357.696ZM171.761 365.962C165.345 353.341 153.408 349.044 144.326 349.884C139.826 350.3 135.788 352.004 133.563 354.862C132.43 356.317 131.784 358.057 131.824 359.992C131.865 361.913 132.577 363.908 133.957 365.91L136.427 364.208C135.298 362.57 134.849 361.134 134.824 359.93C134.799 358.74 135.184 357.663 135.93 356.706C137.46 354.74 140.568 353.244 144.602 352.871C152.59 352.133 163.285 355.908 169.087 367.321L171.761 365.962ZM133.957 365.91C141.246 376.49 149.985 381.279 157.454 381.058C165.056 380.834 170.849 375.425 171.913 366.826L168.935 366.457C168.033 373.751 163.328 377.883 157.365 378.06C151.269 378.24 143.374 374.291 136.427 364.208L133.957 365.91ZM171.665 365.8C168.904 361.728 160.314 354.656 147.53 357.696L148.224 360.615C159.512 357.93 166.942 364.179 169.182 367.483L171.665 365.8Z" fill="black"/>
<path d="M176.172 368.866C183.148 344.61 214.923 346.015 208.278 361.175C198.848 382.689 180.793 383.128 176.172 368.866Z" fill="#57A0A4"/>
<path d="M176.172 368.866L174.745 369.328L174.603 368.892L174.73 368.451L176.172 368.866ZM208.278 361.175L209.652 361.777L208.278 361.175ZM195.637 356.495C196.465 356.53 197.107 357.23 197.071 358.058C197.035 358.886 196.335 359.528 195.507 359.492L195.637 356.495ZM174.73 368.451C178.406 355.672 188.654 349.586 197.186 348.747C201.412 348.331 205.455 349.184 208.034 351.441C209.348 352.591 210.262 354.095 210.571 355.905C210.878 357.7 210.571 359.679 209.652 361.777L206.904 360.572C207.646 358.88 207.8 357.499 207.614 356.41C207.43 355.336 206.898 354.433 206.058 353.699C204.33 352.186 201.24 351.362 197.48 351.732C190.042 352.464 180.914 357.803 177.613 369.28L174.73 368.451ZM209.652 361.777C204.816 372.81 197.61 378.791 190.662 379.917C183.582 381.065 177.258 377.085 174.745 369.328L177.599 368.404C179.706 374.909 184.721 377.841 190.182 376.956C195.774 376.049 202.311 371.053 206.904 360.572L209.652 361.777ZM174.793 368.274C176.622 364.015 183.299 355.961 195.637 356.495L195.507 359.492C184.706 359.024 179.013 366.051 177.55 369.458L174.793 368.274Z" fill="black"/>
<path d="M176.153 369.105C177.3 364.128 185.387 354.286 208.532 359.358C199.656 381.506 184.062 384.318 176.153 369.105Z" fill="white" fill-opacity="0.25"/>
<path d="M176.172 368.866L174.745 369.328L174.603 368.892L174.73 368.451L176.172 368.866ZM208.278 361.175L206.904 360.572L208.278 361.175ZM195.637 356.495C196.465 356.53 197.107 357.23 197.071 358.058C197.035 358.886 196.335 359.528 195.507 359.492L195.637 356.495ZM174.73 368.451C178.406 355.672 188.654 349.586 197.186 348.747C201.412 348.331 205.455 349.184 208.034 351.441C209.348 352.591 210.262 354.095 210.571 355.905C210.878 357.7 210.571 359.679 209.652 361.777L206.904 360.572C207.646 358.88 207.8 357.499 207.614 356.41C207.43 355.336 206.898 354.433 206.058 353.699C204.33 352.186 201.24 351.362 197.48 351.732C190.042 352.464 180.914 357.803 177.613 369.28L174.73 368.451ZM209.652 361.777C204.816 372.81 197.61 378.791 190.662 379.917C183.582 381.065 177.258 377.085 174.745 369.328L177.599 368.404C179.706 374.909 184.721 377.841 190.182 376.956C195.774 376.049 202.311 371.053 206.904 360.572L209.652 361.777ZM174.793 368.274C176.622 364.015 183.299 355.961 195.637 356.495L195.507 359.492C184.706 359.024 179.013 366.051 177.55 369.458L174.793 368.274Z" fill="black"/>
<path d="M184.41 347.318C190.5 363.346 185.484 375.827 173.865 375.437C162.432 375.054 159.365 365.551 161.343 353.029C163.879 336.969 166.249 320.223 166.835 307.555C168.916 305.523 170.733 304.968 176.501 306.236C176.677 316.078 180.236 336.333 184.41 347.318Z" fill="#D0FCFF" stroke="black" stroke-width="3"/>
<path d="M182.652 362.696C184.761 357.248 181.11 349.447 178.478 341.386C177.759 339.185 173.294 339.681 173.075 341.986L172.986 342.924C172.107 352.151 170.789 361.817 172.986 363.355C175.183 364.893 178.038 366.43 182.652 362.696Z" fill="white" fill-opacity="0.2"/>
<path d="M184.748 307.102C186.392 303.968 185.172 297.616 185.172 297.616C179.499 302.114 167.7 304.26 158.197 302.647C158.197 302.647 158.333 307.303 159.699 309.843C162.646 315.321 181.092 314.067 184.748 307.102Z" fill="#398F94" stroke="black" stroke-width="3"/>
<path d="M180.354 306.279C181.659 303.727 180.699 298.558 180.699 298.558C176.204 302.225 166.86 303.983 159.338 302.68C159.338 302.68 159.441 306.469 160.52 308.535C162.847 312.991 177.453 311.952 180.354 306.279Z" fill="white" fill-opacity="0.15"/>
<path d="M184.748 307.102C186.392 303.968 185.172 297.616 185.172 297.616C179.499 302.114 167.7 304.26 158.197 302.647C158.197 302.647 158.333 307.303 159.699 309.843C162.646 315.321 181.092 314.067 184.748 307.102Z" stroke="black" stroke-width="3"/>
<path d="M109.632 260.26C109.632 270.486 115.258 281.198 124.566 289.396C133.855 297.577 146.69 303.136 160.857 303.136C189.4 303.136 212.081 283.708 212.081 260.26C212.081 236.743 189.32 215.626 160.857 215.626C146.723 215.626 133.896 221.6 124.594 230.22C115.271 238.86 109.632 250.02 109.632 260.26Z" fill="#D0FCFF" stroke="black" stroke-width="3"/>
<path d="M185.681 221.815C198.283 226.579 203.695 233.678 210.066 250.374L200.18 250.374C197.544 224.451 165.031 214.346 144.82 218.739C154.706 214.785 167.667 215.005 185.681 221.815Z" fill="white"/>
<path d="M158.221 302.22C136.032 300.901 117.798 286.622 122.192 283.546C150.312 305.734 197.634 296.758 211.384 257.184C212.483 284.645 187.288 303.946 158.221 302.22Z" fill="#9EE3E7"/>
<path d="M109.632 260.26C109.632 270.486 115.258 281.198 124.566 289.396C133.855 297.577 146.69 303.136 160.857 303.136C189.4 303.136 212.081 283.708 212.081 260.26C212.081 236.743 189.32 215.626 160.857 215.626C146.723 215.626 133.896 221.6 124.594 230.22C115.271 238.86 109.632 250.02 109.632 260.26Z" stroke="black" stroke-width="3"/>
<path d="M79.3491 247.597C88.8078 224.255 115.922 231.361 124.828 250.155C128.512 257.928 130.927 267.51 129.222 280.251C127.517 292.993 119.363 299.04 108.712 299.151C86.9627 299.377 69.8904 270.939 79.3491 247.597Z" fill="white"/>
<path d="M80.2083 249.565C88.3288 229.525 111.607 235.626 119.253 251.761C122.416 258.435 124.489 266.661 123.025 277.6C121.561 288.539 114.561 293.73 105.416 293.825C86.7447 294.019 72.0879 269.604 80.2083 249.565Z" fill="#D0FCFF"/>
<path d="M124.389 249.495C115.483 230.702 88.808 224.254 79.3493 247.597C69.8906 270.939 86.9629 299.377 108.712 299.151C119.364 299.04 126.155 292.114 129.222 281.13" stroke="black" stroke-width="3" stroke-linecap="round"/>
<ellipse rx="13.4008" ry="21.3095" transform="matrix(-0.9731 0.230385 0.230385 0.9731 98.5307 266.948)" fill="#9EE3E7"/>
<path d="M111.571 263.861C114.282 275.313 110.642 285.979 103.44 287.684C116.041 276.517 109.011 249.276 93.6213 246.212C100.823 244.507 108.86 252.408 111.571 263.861Z" fill="black"/>
<ellipse rx="10.5272" ry="16.7399" transform="matrix(-0.9731 0.230385 0.230385 0.9731 101.062 267.217)" fill="black"/>
<g opacity="0.75">
<path d="M173.174 281.133C171.187 280.09 171.191 277.22 173.098 276.037C180.211 271.625 185.123 266.465 187.926 259.768C188.852 257.554 191.563 256.495 193.566 257.817C194.925 258.714 195.498 260.441 194.824 261.923C191.144 270.012 185.248 275.72 175.793 281.099C174.985 281.559 173.997 281.565 173.174 281.133Z" fill="black" fill-opacity="0.1"/>
<path d="M186.242 281.371C184.729 280.63 184.546 278.545 185.869 277.503C192.536 272.253 195.968 267.943 198.497 260.537C198.998 259.07 200.662 258.323 202.054 259.005C203.209 259.57 203.746 260.926 203.262 262.116C199.966 270.209 196.537 274.862 188.591 281.127C187.922 281.654 187.007 281.746 186.242 281.371Z" fill="white" fill-opacity="0.2"/>
</g>
<path d="M157.436 240.937C155.516 242.871 153.276 247.063 159.676 248.353C167.677 249.965 169.277 232.876 157.436 236.423C145.595 239.97 148.475 255.446 160.956 253.834C170.941 252.544 171.624 242.979 170.717 238.357" stroke="black" stroke-width="3" stroke-linecap="round"/>
<path d="M136.908 232.614C138.548 234.218 140.461 237.694 134.994 238.764C128.161 240.101 126.794 225.93 136.908 228.871C147.022 231.812 144.562 244.646 133.901 243.309C125.372 242.24 124.789 234.307 125.564 230.475" stroke="black" stroke-width="3" stroke-linecap="round"/>
<path d="M153.023 234.239L151.891 229.383C158.923 223.796 175.002 221.765 178.827 221.523L175.803 230.345C167.535 228.459 156.63 232.043 153.023 234.239Z" fill="#57A0A4" stroke="black" stroke-width="3"/>
<path d="M147.152 226.473L147.533 221.501C139.733 217.047 128.514 217.194 124.697 217.536L125.601 225.506C133.486 222.385 143.254 224.85 147.152 226.473Z" fill="#57A0A4" stroke="black" stroke-width="3"/>
<path d="M172.702 372.04C198.914 349.528 234.218 375.015 215.221 387.369C188.262 404.9 167.271 391.833 172.702 372.04Z" fill="#398F94"/>
<path d="M172.702 372.04L171.256 371.643L171.377 371.201L171.725 370.902L172.702 372.04ZM215.221 387.369L214.404 386.111L215.221 387.369ZM203.95 372.962C204.622 373.446 204.774 374.384 204.29 375.056C203.806 375.728 202.868 375.88 202.196 375.396L203.95 372.962ZM171.725 370.902C185.345 359.205 201.397 359.944 211.612 365.301C216.683 367.961 220.525 371.875 221.724 376.195C222.332 378.386 222.249 380.663 221.298 382.84C220.354 385.003 218.599 386.961 216.039 388.626L214.404 386.111C216.593 384.687 217.891 383.146 218.549 381.639C219.202 380.146 219.273 378.581 218.833 376.997C217.936 373.767 214.875 370.4 210.219 367.958C200.977 363.111 186.272 362.363 173.679 373.178L171.725 370.902ZM216.039 388.626C202.307 397.556 189.769 398.9 181.203 395.07C172.516 391.186 168.366 382.174 171.256 371.643L174.149 372.437C171.607 381.699 175.238 389.117 182.428 392.332C189.74 395.601 201.177 394.712 214.404 386.111L216.039 388.626ZM171.875 370.789C177.026 367.384 190.463 363.244 203.95 372.962L202.196 375.396C189.957 366.577 177.906 370.398 173.529 373.292L171.875 370.789Z" fill="black"/>
<path d="M172.5 372.299C177.553 367.466 194.205 362.282 216.876 385.48C190.075 404.154 170.117 395.651 172.5 372.299Z" fill="white" fill-opacity="0.2"/>
<path d="M172.702 372.04L171.256 371.643L171.377 371.201L171.725 370.902L172.702 372.04ZM215.221 387.369L214.404 386.111L215.221 387.369ZM203.95 372.962C204.622 373.446 204.774 374.384 204.29 375.056C203.806 375.728 202.868 375.88 202.196 375.396L203.95 372.962ZM171.725 370.902C185.345 359.205 201.397 359.944 211.612 365.301C216.683 367.961 220.525 371.875 221.724 376.195C222.332 378.386 222.249 380.663 221.298 382.84C220.354 385.003 218.599 386.961 216.039 388.626L214.404 386.111C216.593 384.687 217.891 383.146 218.549 381.639C219.202 380.146 219.273 378.581 218.833 376.997C217.936 373.767 214.875 370.4 210.219 367.958C200.977 363.111 186.272 362.363 173.679 373.178L171.725 370.902ZM216.039 388.626C202.307 397.556 189.769 398.9 181.203 395.07C172.516 391.186 168.366 382.174 171.256 371.643L174.149 372.437C171.607 381.699 175.238 389.117 182.428 392.332C189.74 395.601 201.177 394.712 214.404 386.111L216.039 388.626ZM171.875 370.789C177.026 367.384 190.463 363.244 203.95 372.962L202.196 375.396C189.957 366.577 177.906 370.398 173.529 373.292L171.875 370.789Z" fill="black"/>
<path d="M170.541 372.04C144.329 349.528 109.025 375.015 128.022 387.369C154.981 404.9 175.972 391.833 170.541 372.04Z" fill="#398F94"/>
<path d="M170.541 372.04L171.988 371.643L171.866 371.201L171.518 370.902L170.541 372.04ZM128.022 387.369L128.839 386.111L128.022 387.369ZM139.293 372.962C138.621 373.446 138.469 374.384 138.953 375.056C139.437 375.728 140.375 375.88 141.047 375.396L139.293 372.962ZM171.518 370.902C157.898 359.205 141.846 359.944 131.631 365.301C126.56 367.961 122.719 371.875 121.52 376.195C120.911 378.386 120.994 380.663 121.945 382.84C122.89 385.003 124.644 386.961 127.204 388.626L128.839 386.111C126.65 384.687 125.352 383.146 124.694 381.639C124.042 380.146 123.971 378.581 124.41 376.997C125.307 373.767 128.368 370.4 133.025 367.958C142.266 363.111 156.971 362.363 169.564 373.178L171.518 370.902ZM127.204 388.626C140.936 397.556 153.474 398.9 162.04 395.07C170.727 391.186 174.877 382.174 171.988 371.643L169.095 372.437C171.636 381.699 168.006 389.117 160.815 392.332C153.503 395.601 142.066 394.712 128.839 386.111L127.204 388.626ZM171.368 370.789C166.217 367.384 152.78 363.244 139.293 372.962L141.047 375.396C153.286 366.577 165.337 370.398 169.714 373.292L171.368 370.789Z" fill="black"/>
<path d="M168.326 370.103C162.614 366.609 141.085 367.027 126.366 385.481C112.087 370.981 146.797 352.528 168.326 370.103Z" fill="white" fill-opacity="0.2"/>
<path d="M170.541 372.04L171.988 371.643L171.866 371.201L171.518 370.902L170.541 372.04ZM128.022 387.369L128.839 386.111L128.022 387.369ZM139.293 372.962C138.621 373.446 138.469 374.384 138.953 375.056C139.437 375.728 140.375 375.88 141.047 375.396L139.293 372.962ZM171.518 370.902C157.898 359.205 141.846 359.944 131.631 365.301C126.56 367.961 122.719 371.875 121.52 376.195C120.911 378.386 120.994 380.663 121.945 382.84C122.89 385.003 124.644 386.961 127.204 388.626L128.839 386.111C126.65 384.687 125.352 383.146 124.694 381.639C124.042 380.146 123.971 378.581 124.41 376.997C125.307 373.767 128.368 370.4 133.025 367.958C142.266 363.111 156.971 362.363 169.564 373.178L171.518 370.902ZM127.204 388.626C140.936 397.556 153.474 398.9 162.04 395.07C170.727 391.186 174.877 382.174 171.988 371.643L169.095 372.437C171.636 381.699 168.006 389.117 160.815 392.332C153.503 395.601 142.066 394.712 128.839 386.111L127.204 388.626ZM171.368 370.789C166.217 367.384 152.78 363.244 139.293 372.962L141.047 375.396C153.286 366.577 165.337 370.398 169.714 373.292L171.368 370.789Z" fill="black"/>
<g filter="url(#filter1_f)">
<circle r="81.919" transform="matrix(-1 0 0 1 271.362 395.994)" fill="#CB5029" fill-opacity="0.3"/>
</g>
<path d="M279.12 237.171C251.67 234.918 250.509 254.515 248.187 258.885C290.96 255.935 302.2 293.847 302.473 313.171C323.463 317.34 338.67 306.013 343.648 300.88C331.357 303.994 323.641 300.812 323.573 294.939C342.255 298.873 348.155 285.516 357.168 271.996C336.811 282.542 329.309 281.419 320.295 271.996C348.974 275.903 366.455 247.96 368.23 239.629C357.168 250.282 326.714 250.623 310.667 247.619C314.928 235.983 331.016 235.805 338.527 237.171C328.53 226.191 315.583 227.543 302.473 236.147C290.586 243.948 278.574 248.233 268.058 248.028C268.222 242.128 275.501 238.332 279.12 237.171Z" fill="#CF2020"/>
<path d="M271.13 238.738C250.645 244.883 254.537 251.439 248.187 261.271C285.851 258.676 290.556 293.026 290.796 310.026C309.279 313.694 325.54 310.855 329.923 306.339C319.1 309.078 316.463 294.093 316.403 288.926C321.319 291.794 336.478 293.638 344.263 282.986C326.337 292.263 316.76 274.683 308.823 266.393C334.077 269.83 351.918 258.767 353.481 251.439C343.74 260.81 314.964 254.082 300.834 251.439C304.586 241.202 321.056 232.825 327.67 234.026C317.427 229.315 304.336 238.02 293.869 244.883C283.402 251.746 275.474 250.185 266.214 250.005C261.297 244.883 267.944 239.759 271.13 238.738Z" fill="#E74E1E"/>
<path d="M263.551 243.654C254.333 250.414 252.489 254.511 253.104 263.549C289.009 261.074 296.303 286.638 296.532 302.856C300.493 311.242 305.58 312.848 324.054 308.029C309.596 297.32 313.962 287.959 313.88 285.239C316.543 285.239 320.025 292.409 336.823 287.083C315.928 286.263 309.629 271.843 302.063 263.935C308.414 264.754 318.134 265.368 329.923 259.428C306.16 261.886 295.674 255.285 295.674 255.285C295.674 255.285 296.123 248.98 305.136 242.63C290.592 247.751 285.396 251.619 283.358 252.801C278.22 255.78 266.747 254.964 263.551 252.801C261.721 251.562 262.106 248.05 263.551 243.654Z" fill="#DE8923"/>
<path d="M294.411 231.084C290.667 228.476 287.334 232.331 288.189 233.986C288.786 235.142 290.534 235.629 291.531 234.704C292.406 233.892 292.236 232.916 292.659 231.81C292.913 231.148 293.783 231.094 294.411 231.084Z" fill="#DE8923"/>
<path d="M349.636 241.422C347.599 239.308 345.002 241.226 345.333 242.361C345.564 243.153 346.607 243.691 347.355 243.258C348.011 242.878 348.028 242.254 348.436 241.631C348.68 241.258 349.237 241.343 349.636 241.422Z" fill="#CF2020"/>
<path d="M368.306 236.941C366.269 234.826 363.755 236.406 363.568 237.713C363.414 238.796 365.061 239.827 365.809 239.394C366.465 239.013 366.708 237.963 367.116 237.34C367.36 236.967 367.907 236.862 368.306 236.941Z" fill="#E74E1E"/>
<path d="M361.42 276.385C363.074 279.243 360.091 281.412 358.95 280.696C358.152 280.195 357.907 278.905 358.634 278.242C359.273 277.66 359.967 277.842 360.79 277.604C361.283 277.461 361.375 276.837 361.42 276.385Z" fill="#E74E1E"/>
<path d="M344.244 294.682C345.898 297.54 342.915 299.709 341.774 298.993C340.976 298.492 340.731 297.202 341.458 296.539C342.097 295.957 342.79 296.139 343.614 295.901C344.107 295.758 344.199 295.134 344.244 294.682Z" fill="#DE8923"/>
<path d="M364.81 266.213C362.859 264.809 361.073 266.812 361.51 267.69C361.815 268.304 362.731 268.575 363.264 268.096C363.731 267.675 363.649 267.16 363.881 266.581C364.02 266.234 364.479 266.213 364.81 266.213Z" fill="#CF2020"/>
<path d="M331.508 264.102C315.295 248.94 297.585 257.391 293.601 263.587C292.826 265.501 293.602 271.334 302.907 279.357C307.194 258.46 322.965 261.099 331.508 264.102Z" fill="#EF6438" stroke="black" stroke-width="3"/>
<path d="M277.447 407.808C272.08 405.308 267.705 421.9 267.705 421.9C267.705 421.9 275.119 430.291 279.763 430.901C284.407 431.511 280.91 418.635 280.91 418.635C280.91 418.635 284.931 432.905 290.994 433.855C297.051 434.805 295.464 421.68 295.043 418.795C295.451 421.195 297.442 430.603 303.727 431.476C308.974 432.205 307.68 425.46 306.451 421.395C307.585 424.04 309.722 427.585 313.163 428.121C318.907 429.015 314.905 419.151 314.905 419.151C314.905 419.151 321.216 411.524 315.468 410.003C312.325 409.172 309.753 411.443 307.999 413.838C309.38 410.548 309.891 406.642 304.789 406.283C298.66 405.851 296.324 411.486 295.454 415.17C295.988 410.876 296.244 403.591 291.841 403.538C285.884 403.467 282.481 413.088 281.343 417.006C281.825 414.544 282.014 409.937 277.447 407.808Z" fill="#800707"/>
<path d="M267.705 421.9C267.705 421.9 272.08 405.308 277.447 407.808C283.845 410.79 280.91 418.635 280.91 418.635M267.705 421.9C272.444 420.843 276.926 419.219 280.91 418.635M267.705 421.9C267.705 421.9 275.119 430.291 279.763 430.901C284.407 431.511 280.91 418.635 280.91 418.635M321.405 419.763C320.736 419.699 315.554 419.21 314.905 419.151M280.91 418.635C280.91 418.635 284.362 403.448 291.841 403.538C298.087 403.613 294.958 418.24 294.958 418.24M280.91 418.635C285.888 417.905 290.231 418.339 294.958 418.24M280.91 418.635C280.91 418.635 284.931 432.905 290.994 433.855C297.795 434.922 294.958 418.24 294.958 418.24M294.958 418.24C294.958 418.24 295.737 405.645 304.789 406.283C313.733 406.913 305.426 418.443 305.426 418.443M294.958 418.24C298.319 418.17 301.746 418.244 305.426 418.443M294.958 418.24C294.958 418.24 296.517 430.474 303.727 431.476C311.187 432.512 305.426 418.443 305.426 418.443M305.426 418.443C305.426 418.443 309.375 408.391 315.468 410.003C321.216 411.524 314.905 419.151 314.905 419.151M305.426 418.443C308.39 418.602 311.517 418.842 314.905 419.151M305.426 418.443C305.426 418.443 307.574 427.25 313.163 428.121C318.907 429.015 314.905 419.151 314.905 419.151" stroke="black" stroke-width="3" stroke-linecap="round" stroke-linejoin="round"/>
<path d="M254.393 405.868C259.971 403.884 262.764 420.815 262.764 420.815C262.764 420.815 254.591 428.47 249.911 428.64C245.23 428.809 249.925 416.32 249.925 416.32C249.925 416.32 244.577 430.147 238.451 430.522C232.332 430.897 235.149 417.98 235.839 415.147C235.207 417.498 232.338 426.676 225.999 426.954C220.706 427.185 222.63 420.592 224.237 416.66C222.859 419.187 220.397 422.515 216.921 422.724C211.119 423.073 216.032 413.63 216.032 413.63C216.032 413.63 210.468 405.442 216.333 404.47C219.541 403.939 221.888 406.442 223.408 408.992C222.344 405.587 222.203 401.65 227.316 401.773C233.458 401.92 235.253 407.75 235.772 411.5C235.645 407.175 236.076 399.898 240.465 400.26C246.403 400.751 248.883 410.65 249.647 414.657C249.399 412.161 249.645 407.557 254.393 405.868Z" fill="#800707"/>
<path d="M262.764 420.815C262.764 420.815 259.971 403.884 254.393 405.868C247.742 408.233 249.925 416.32 249.925 416.32M262.764 420.815C258.145 419.317 253.836 417.277 249.925 416.32M262.764 420.815C262.764 420.815 254.591 428.47 249.911 428.64C245.23 428.809 249.925 416.32 249.925 416.32M209.504 413.627C210.176 413.626 215.38 413.628 216.032 413.63M249.925 416.32C249.925 416.32 247.919 400.876 240.465 400.26C234.239 399.746 235.977 414.603 235.977 414.603M249.925 416.32C245.038 415.124 240.673 415.147 235.977 414.603M249.925 416.32C249.925 416.32 244.577 430.147 238.451 430.522C231.579 430.943 235.977 414.603 235.977 414.603M235.977 414.603C235.977 414.603 236.387 401.991 227.316 401.773C218.352 401.557 225.536 413.818 225.536 413.818M235.977 414.603C232.637 414.217 229.218 413.968 225.536 413.818M235.977 414.603C235.977 414.603 233.271 426.636 225.999 426.954C218.475 427.282 225.536 413.818 225.536 413.818M225.536 413.818C225.536 413.818 222.552 403.44 216.333 404.47C210.468 405.442 216.032 413.63 216.032 413.63M225.536 413.818C222.57 413.698 219.434 413.642 216.032 413.63M225.536 413.818C225.536 413.818 222.567 422.384 216.921 422.724C211.119 423.073 216.032 413.63 216.032 413.63" stroke="black" stroke-width="3" stroke-linecap="round" stroke-linejoin="round"/>
<path d="M272.591 420.061C281.816 407.76 286.158 373.042 275.051 354.05C272.727 355.143 266.769 357.002 261.521 355.69C268.081 361.43 272.591 394.64 259.471 417.191C261.657 419.787 267.343 426.293 272.591 420.061Z" fill="#CB5029" stroke="black" stroke-width="3"/>
<path d="M277.101 402.225C281.406 384.39 280.333 368.989 273.381 355.497C271.707 355.019 269.473 356.49 266.646 356.51C270.951 356.51 281.406 375.985 277.101 402.225Z" fill="white" fill-opacity="0.3"/>
<path d="M281.433 349.574C283.206 346.197 281.891 339.351 281.891 339.351C275.777 344.199 263.061 346.511 252.819 344.773C252.819 344.773 252.965 349.791 254.438 352.528C257.613 358.432 277.494 357.08 281.433 349.574Z" fill="#800707" stroke="black" stroke-width="3"/>
<path d="M276.698 348.687C278.105 345.937 277.07 340.366 277.07 340.366C272.225 344.318 262.155 346.213 254.048 344.808C254.048 344.808 254.159 348.892 255.322 351.119C257.831 355.921 273.572 354.801 276.698 348.687Z" fill="white" fill-opacity="0.15"/>
<path d="M281.433 349.574C283.206 346.197 281.891 339.351 281.891 339.351C275.777 344.199 263.061 346.511 252.819 344.773C252.819 344.773 252.965 349.791 254.438 352.528C257.613 358.432 277.494 357.08 281.433 349.574Z" stroke="black" stroke-width="3"/>
<path d="M200.363 299.092C200.363 310.154 206.447 321.729 216.497 330.58C226.528 339.414 240.387 345.417 255.685 345.417C286.492 345.417 311.008 324.445 311.008 299.092C311.008 273.67 286.412 250.872 255.685 250.872C240.421 250.872 226.568 257.324 216.525 266.631C206.461 275.959 200.363 288.015 200.363 299.092Z" fill="#EF6438" stroke="black" stroke-width="3"/>
<path d="M282.44 257.658C296.021 262.793 301.854 270.444 308.72 288.437L298.066 288.437C295.225 260.5 260.184 249.609 238.402 254.344C249.057 250.082 263.025 250.319 282.44 257.658Z" fill="#FF7C53"/>
<path d="M252.844 344.313C228.932 342.892 209.281 327.503 214.016 324.188C244.321 348.101 295.321 338.426 310.14 295.777C311.324 325.372 284.171 346.174 252.844 344.313Z" fill="#CB2929"/>
<path d="M200.363 299.092C200.363 310.154 206.447 321.729 216.497 330.58C226.528 339.414 240.387 345.417 255.685 345.417C286.492 345.417 311.008 324.445 311.008 299.092C311.008 273.67 286.412 250.872 255.685 250.872C240.421 250.872 226.568 257.324 216.525 266.631C206.461 275.959 200.363 288.015 200.363 299.092Z" stroke="black" stroke-width="3"/>
<path d="M167.843 285.444C178.037 260.288 207.259 267.947 216.857 288.201C220.827 296.579 223.43 306.905 221.592 320.637C219.755 334.369 210.968 340.886 199.488 341.005C176.048 341.249 157.649 310.6 167.843 285.444Z" fill="#FF7C53"/>
<path d="M168.769 287.566C177.52 265.968 202.608 272.543 210.848 289.932C214.257 297.125 216.491 305.99 214.913 317.779C213.336 329.569 205.792 335.164 195.936 335.266C175.813 335.475 160.017 309.163 168.769 287.566Z" fill="#EF6438"/>
<path d="M216.383 287.491C206.785 267.236 178.037 260.288 167.843 285.444C157.649 310.6 176.048 341.249 199.488 341.005C210.967 340.886 218.287 333.422 221.592 321.584" stroke="black" stroke-width="3" stroke-linecap="round"/>
<ellipse rx="14.4424" ry="22.9657" transform="matrix(-0.9731 0.230385 0.230385 0.9731 188.515 306.3)" fill="#CB2929"/>
<path d="M202.569 302.972C205.491 315.315 201.568 326.81 193.806 328.648C207.387 316.612 199.81 287.254 183.224 283.952C190.986 282.114 199.647 290.63 202.569 302.972Z" fill="black"/>
<ellipse rx="11.3454" ry="18.041" transform="matrix(-0.9731 0.230385 0.230385 0.9731 191.243 306.59)" fill="black"/>
<g opacity="0.75">
<ellipse rx="4.26168" ry="5.20872" transform="matrix(-1 0 0 1 285.568 293.714)" fill="white" fill-opacity="0.2"/>
<ellipse rx="5.68224" ry="6.86604" transform="matrix(-0.947838 -0.318751 -0.318751 0.947838 295.04 302.033)" fill="black" fill-opacity="0.2"/>
<ellipse rx="3.25503" ry="3.93316" transform="matrix(-0.984384 0.176033 0.176033 0.984384 284.128 304.401)" fill="black" fill-opacity="0.2"/>
</g>
<ellipse rx="9.42999" ry="14.2339" transform="matrix(-0.839393 -0.543525 -0.543525 0.839393 249.504 277.337)" fill="black"/>
<ellipse rx="3.74148" ry="5.35207" transform="matrix(-0.926372 -0.37661 -0.37661 0.926372 253.569 276.299)" fill="white"/>
<ellipse rx="7.09694" ry="10.7124" transform="matrix(-0.95347 -0.301486 -0.301486 0.95347 226.275 274.984)" fill="black"/>
<ellipse rx="2.64308" ry="3.98955" transform="matrix(-0.934824 -0.355111 -0.355111 0.934824 223.911 272.811)" fill="white"/>
<path d="M243.13 274.238L241.556 269.099C248.708 262.576 265.847 259.214 269.941 258.673L267.337 268.38C258.309 266.958 246.846 271.612 243.13 274.238Z" fill="#932C2C" stroke="black" stroke-width="3"/>
<path d="M234.101 271.826L237.01 267.307C231.897 259.088 221.184 253.477 217.39 251.845L214.164 259.865C223.239 260.947 231.236 268.289 234.101 271.826Z" fill="#932C2C" stroke="black" stroke-width="3"/>
<path d="M285.235 413.602C281.617 407.691 266.627 421.055 266.627 421.055C266.627 421.055 268.436 434.039 272.571 437.637C276.706 441.235 281.617 426.407 281.617 426.407C281.617 426.407 276.317 442.934 281.617 447.783C286.91 452.626 293.843 438.79 295.298 435.703C294.145 438.309 290.008 448.778 295.573 453.694C300.22 457.798 303.316 450.379 304.745 445.616C304.141 448.932 303.935 453.773 306.945 456.521C311.969 461.108 314.44 448.893 314.44 448.893C314.44 448.893 325.524 445.531 320.901 440.33C318.373 437.486 314.396 438.04 311.137 439.242C314.61 436.925 317.633 433.443 312.889 429.793C307.19 425.409 301.27 429.397 298.041 432.431C301.337 428.585 306.295 421.641 302.034 418.742C296.27 414.82 286.733 422.011 283.092 425.098C285.153 423.007 288.314 418.633 285.235 413.602Z" fill="#800707"/>
<path d="M266.627 421.055C266.627 421.055 281.617 407.691 285.235 413.602C289.549 420.649 281.617 426.407 281.617 426.407M266.627 421.055C271.932 423.089 277.353 424.401 281.617 426.407M266.627 421.055C266.627 421.055 268.436 434.039 272.571 437.637C276.706 441.235 281.617 426.407 281.617 426.407M320.384 453.694C319.773 453.198 315.035 449.371 314.44 448.893M281.617 426.407C281.617 426.407 294.798 413.819 302.034 418.742C308.078 422.854 295.573 435.106 295.573 435.106M281.617 426.407C286.944 428.914 290.899 432.146 295.573 435.106M281.617 426.407C281.617 426.407 276.317 442.934 281.617 447.783C287.561 453.221 295.573 435.106 295.573 435.106M295.573 435.106C295.573 435.106 304.472 423.318 312.889 429.793C321.206 436.192 305.652 442.073 305.652 442.073M295.573 435.106C298.897 437.211 302.192 439.5 305.652 442.073M295.573 435.106C295.573 435.106 289.188 448.054 295.573 453.694C302.179 459.529 305.652 442.073 305.652 442.073M305.652 442.073C305.652 442.073 315.999 434.816 320.901 440.33C325.524 445.531 314.44 448.893 314.44 448.893M305.652 442.073C308.44 444.145 311.335 446.401 314.44 448.893M305.652 442.073C305.652 442.073 302.056 452.058 306.945 456.521C311.969 461.108 314.44 448.893 314.44 448.893" stroke="black" stroke-width="3" stroke-linecap="round" stroke-linejoin="round"/>
<path d="M246.599 413.602C250.217 407.691 265.207 421.055 265.207 421.055C265.207 421.055 263.398 434.039 259.263 437.637C255.127 441.235 250.217 426.407 250.217 426.407C250.217 426.407 255.517 442.934 250.217 447.783C244.923 452.626 237.99 438.79 236.535 435.703C237.689 438.309 241.826 448.778 236.261 453.694C231.614 457.798 228.517 450.379 227.089 445.616C227.692 448.932 227.899 453.773 224.889 456.521C219.865 461.108 217.394 448.893 217.394 448.893C217.394 448.893 206.309 445.531 210.933 440.33C213.461 437.486 217.438 438.04 220.696 439.242C217.224 436.925 214.2 433.443 218.945 429.793C224.643 425.409 230.564 429.397 233.793 432.431C230.497 428.585 225.539 421.641 229.799 418.742C235.564 414.82 245.1 422.011 248.742 425.098C246.681 423.007 243.519 418.633 246.599 413.602Z" fill="#800707"/>
<path d="M265.207 421.055C265.207 421.055 250.217 407.691 246.599 413.602C242.285 420.649 250.217 426.407 250.217 426.407M265.207 421.055C259.902 423.089 254.481 424.401 250.217 426.407M265.207 421.055C265.207 421.055 263.398 434.039 259.263 437.637C255.127 441.235 250.217 426.407 250.217 426.407M211.45 453.694C212.061 453.198 216.799 449.371 217.394 448.893M250.217 426.407C250.217 426.407 237.036 413.819 229.799 418.742C223.756 422.854 236.261 435.106 236.261 435.106M250.217 426.407C244.89 428.914 240.935 432.146 236.261 435.106M250.217 426.407C250.217 426.407 255.517 442.934 250.217 447.783C244.272 453.221 236.261 435.106 236.261 435.106M236.261 435.106C236.261 435.106 227.361 423.318 218.945 429.793C210.628 436.192 226.181 442.073 226.181 442.073M236.261 435.106C232.937 437.211 229.642 439.5 226.181 442.073M236.261 435.106C236.261 435.106 242.645 448.054 236.261 453.694C229.654 459.529 226.181 442.073 226.181 442.073M226.181 442.073C226.181 442.073 215.834 434.816 210.933 440.33C206.309 445.531 217.394 448.893 217.394 448.893M226.181 442.073C223.393 444.145 220.498 446.401 217.394 448.893M226.181 442.073C226.181 442.073 229.778 452.058 224.889 456.521C219.865 461.108 217.394 448.893 217.394 448.893" stroke="black" stroke-width="3" stroke-linecap="round" stroke-linejoin="round"/>
<g filter="url(#filter2_f)">
<circle cx="544.81" cy="342.392" r="76.8099" fill="#297DCB" fill-opacity="0.25"/>
</g>
<path d="M603.055 353.742C603.86 359.847 611.238 361 616.862 365.338C625.855 372.276 628.31 378.084 623.977 384.705C620.553 389.938 603.591 395.825 592.299 395.297C574.763 394.475 564.597 389.794 547.426 392.8C540.383 394.033 529.826 401.713 518.024 400.405C501.943 398.622 500.621 391.266 491.2 384.705C482.875 378.906 469.039 378.772 472.558 370.331C474.838 364.862 490.016 366.255 494.522 358.809C497.908 353.214 493.486 348.84 495.703 342.87C498.711 334.771 510.882 333.369 520.502 336.148C533.85 340.005 540.439 343.47 554.039 343.83C569.421 344.237 578.388 335.474 592.299 338.837C599.836 340.659 602.207 347.304 603.055 353.742Z" fill="#1285EF" fill-opacity="0.5"/>
<g filter="url(#filter3_f)">
<path d="M603.055 353.742C603.86 359.847 611.238 361 616.862 365.338C625.855 372.276 628.31 378.084 623.977 384.705C620.553 389.938 603.591 395.825 592.299 395.297C574.763 394.475 564.597 389.794 547.426 392.8C540.383 394.033 529.826 401.713 518.024 400.405C501.943 398.622 500.621 391.266 491.2 384.705C482.875 378.906 469.039 378.772 472.558 370.331C474.838 364.862 490.016 366.255 494.522 358.809C497.908 353.214 493.486 348.84 495.703 342.87C498.711 334.771 510.882 333.369 520.502 336.148C533.85 340.005 540.439 343.47 554.039 343.83C569.421 344.237 578.388 335.474 592.299 338.837C599.836 340.659 602.207 347.304 603.055 353.742Z" fill="#1285EF"/>
</g>
<path d="M592.335 356.382C592.987 361.333 598.961 362.267 603.515 365.785C610.798 371.41 612.786 376.119 609.278 381.488C606.505 385.731 592.769 390.504 583.625 390.075C569.424 389.41 561.192 385.614 547.286 388.051C541.583 389.051 533.034 395.278 523.477 394.217C510.455 392.772 509.384 386.808 501.755 381.488C495.013 376.786 483.809 376.677 486.658 369.833C488.505 365.399 500.796 366.528 504.445 360.491C507.187 355.954 503.606 352.408 505.401 347.567C507.837 341.001 517.694 339.864 525.483 342.117C536.293 345.244 541.629 348.054 552.642 348.346C565.098 348.675 572.36 341.571 583.625 344.297C589.728 345.774 591.648 351.163 592.335 356.382Z" fill="#349CFB"/>
<path d="M504.407 200.76C516.617 191.88 525.274 205.939 529.714 215.855C520.243 223.773 501.166 239.964 512.177 267.136C505.961 272.908 496.741 283.624 488.645 273.574C482.208 265.582 492.049 252.188 501.077 248.044C493.825 251.3 471.466 256.959 469.776 242.494C467.778 225.401 502.261 216.669 512.177 217.409C503.741 214.745 495.964 206.9 504.407 200.76Z" fill="#1165B3" stroke="black" stroke-width="3" stroke-linejoin="round"/>
<path d="M509.291 205.865C514.925 200.537 524.194 211.35 527.938 219.629C519.951 226.24 505.64 235.347 514.925 258.034C509.684 262.853 498.973 271.797 495.082 267.015C489.653 260.342 494.13 250.838 501.743 247.378C495.628 250.097 480.595 253.143 479.17 241.066C477.485 226.794 505.369 217.013 513.731 217.631C506.617 215.407 506.905 208.121 509.291 205.865Z" fill="#1C8AF0"/>
<path d="M504.407 200.76C516.617 191.88 525.274 205.939 529.714 215.855C520.243 223.773 501.166 239.964 512.177 267.136C505.961 272.908 496.741 283.624 488.645 273.574C482.208 265.582 492.049 252.188 501.077 248.044C493.825 251.3 471.466 256.959 469.776 242.494C467.778 225.401 502.261 216.669 512.177 217.409C503.741 214.745 495.964 206.9 504.407 200.76Z" stroke="black" stroke-width="3" stroke-linejoin="round"/>
<path d="M544.123 361.357C539.972 352.049 524.736 337.592 497.001 354.228C510.997 366.907 540.015 386.082 544.123 361.357Z" fill="#1D7FDB"/>
<path d="M544.123 361.357C539.972 352.049 524.736 337.592 497.001 354.228C510.997 366.907 540.015 386.082 544.123 361.357ZM544.123 361.357C538.157 358.207 523.132 350.85 509.895 353.161" stroke="black" stroke-width="3" stroke-linecap="round"/>
<path d="M544.123 361.357C538.863 357.046 522.302 349.556 498.126 354.084C511.747 366.81 540.015 386.082 544.123 361.357Z" fill="white" fill-opacity="0.2"/>
<path d="M544.123 361.357C539.972 352.049 524.736 337.592 497.001 354.228C510.997 366.907 540.015 386.082 544.123 361.357ZM544.123 361.357C538.157 358.207 523.132 350.85 509.895 353.161" stroke="black" stroke-width="3" stroke-linecap="round"/>
<path d="M549.13 361.473C552.441 352.718 565.64 338.654 591.951 352.431C579.795 364.798 554.211 383.921 549.13 361.473Z" fill="#1D7FDB"/>
<path d="M549.13 361.473C552.441 352.718 565.64 338.654 591.951 352.431C579.795 364.798 554.211 383.921 549.13 361.473ZM549.13 361.473C554.432 358.267 567.816 350.724 580.074 352.138" stroke="black" stroke-width="3" stroke-linecap="round"/>
<path d="M549.13 361.473C553.723 357.241 568.508 349.493 590.912 352.359C579.102 364.75 554.211 383.921 549.13 361.473Z" fill="white" fill-opacity="0.2"/>
<path d="M549.13 361.473C552.441 352.718 565.64 338.654 591.951 352.431C579.795 364.798 554.211 383.921 549.13 361.473ZM549.13 361.473C554.432 358.267 567.816 350.724 580.074 352.138" stroke="black" stroke-width="3" stroke-linecap="round"/>
<path d="M531.046 307.095L540.987 301.545H548.139L557.501 308.649L551.772 315.975L556.49 325.52L551.772 335.288L556.49 343.058L553.12 352.604L559.017 358.819L550.761 368.587H540.987L533.91 366.145L539.134 353.713L532.562 348.83L537.28 335.288L531.046 327.074L537.28 315.975L531.046 307.095Z" fill="#1C8AF0" stroke="black" stroke-width="3"/>
<path d="M531.934 307.317C535.634 309.759 544.943 313.666 552.58 309.759" stroke="black" stroke-width="3" stroke-linecap="round"/>
<path d="M531.934 326.852C535.634 329.294 545.387 330.759 553.024 326.852" stroke="black" stroke-width="3" stroke-linecap="round"/>
<path d="M533.71 348.608C537.41 351.049 548.806 350.161 553.245 344.39" stroke="black" stroke-width="3" stroke-linecap="round"/>
<path d="M536.29 362.283C539.791 365.002 550.373 365.121 555.243 359.707" stroke="black" stroke-width="3" stroke-linecap="round"/>
<path d="M534.256 326.078L539.424 317.209C541.792 320.339 547.421 326.33 550.998 325.258C545.158 329.399 537.403 327.53 534.256 326.078Z" fill="white" fill-opacity="0.2"/>
<path d="M535.513 347.316L538.791 337.589C541.74 340.179 548.46 344.916 551.747 343.146C546.859 348.377 538.888 348.105 535.513 347.316Z" fill="white" fill-opacity="0.2"/>
<path d="M538.373 362.148L541.762 354.004C544.137 356.399 549.616 360.861 552.54 359.539C548.038 363.733 541.22 363.026 538.373 362.148Z" fill="white" fill-opacity="0.2"/>
<path d="M535.367 298.867C533.705 295.701 534.938 289.281 534.938 289.281C540.67 293.827 552.594 295.995 562.197 294.365C562.197 294.365 562.059 299.07 560.679 301.637C557.701 307.173 539.06 305.905 535.367 298.867Z" fill="#11497C" stroke="black" stroke-width="3"/>
<path d="M539.807 298.036C538.488 295.457 539.458 290.233 539.458 290.233C544.001 293.939 553.442 295.716 561.044 294.398C561.044 294.398 560.94 298.228 559.849 300.315C557.497 304.818 542.738 303.768 539.807 298.036Z" fill="white" fill-opacity="0.15"/>
<path d="M535.367 298.867C533.705 295.701 534.938 289.281 534.938 289.281C540.67 293.827 552.594 295.995 562.197 294.365C562.197 294.365 562.059 299.07 560.679 301.637C557.701 307.173 539.06 305.905 535.367 298.867Z" stroke="black" stroke-width="3"/>
<path d="M611.287 251.533C611.287 261.872 605.6 272.701 596.191 280.987C586.801 289.256 573.828 294.876 559.509 294.876C530.659 294.876 507.73 275.239 507.73 251.533C507.73 227.759 530.739 206.415 559.509 206.415C573.795 206.415 586.761 212.453 596.163 221.166C605.586 229.899 611.287 241.18 611.287 251.533Z" fill="#1C8AF0" stroke="black" stroke-width="3"/>
<path d="M534.423 212.684C521.689 217.498 516.22 224.672 509.782 241.544L519.771 241.544C522.435 215.348 555.29 205.137 575.714 209.576C565.724 205.581 552.626 205.803 534.423 212.684Z" fill="#369AF8"/>
<path d="M562.172 293.934C584.593 292.602 603.019 278.172 598.579 275.065C570.164 297.486 522.345 288.415 508.45 248.425C507.34 276.175 532.799 295.679 562.172 293.934Z" fill="#176FBF"/>
<path d="M611.287 251.533C611.287 261.872 605.6 272.701 596.191 280.987C586.801 289.256 573.828 294.876 559.509 294.876C530.659 294.876 507.73 275.239 507.73 251.533C507.73 227.759 530.739 206.415 559.509 206.415C573.795 206.415 586.761 212.453 596.163 221.166C605.586 229.899 611.287 241.18 611.287 251.533Z" stroke="black" stroke-width="3"/>
<path d="M641.873 238.736C632.315 215.149 604.915 222.33 595.916 241.321C592.193 249.176 589.753 258.859 591.476 271.734C593.199 284.61 601.438 290.721 612.202 290.832C634.179 291.061 651.431 262.324 641.873 238.736Z" fill="#369AF8"/>
<path d="M641.005 240.726C632.799 220.475 609.276 226.64 601.55 242.945C598.354 249.689 596.259 258.001 597.738 269.055C599.217 280.109 606.291 285.355 615.531 285.451C634.399 285.647 649.21 260.976 641.005 240.726Z" fill="#1C8AF0"/>
<path d="M596.359 240.656C605.359 221.664 632.315 215.149 641.873 238.737C651.431 262.324 634.179 291.061 612.202 290.833C601.438 290.721 594.575 283.722 591.476 272.623" stroke="black" stroke-width="3" stroke-linecap="round"/>
<ellipse cx="622.49" cy="258.292" rx="13.5416" ry="21.5334" transform="rotate(13.3197 622.49 258.292)" fill="#176FBF"/>
<path d="M609.312 255.172C606.573 266.745 610.251 277.523 617.529 279.246C604.795 267.961 611.899 240.434 627.451 237.338C620.173 235.615 612.052 243.599 609.312 255.172Z" fill="black"/>
<ellipse cx="619.932" cy="258.564" rx="10.6378" ry="16.9159" transform="rotate(13.3197 619.932 258.564)" fill="black"/>
<g opacity="0.75">
<path d="M547.061 272.626C549.069 271.571 549.066 268.671 547.138 267.476C539.95 263.018 534.987 257.804 532.155 251.036C531.219 248.799 528.479 247.729 526.455 249.065C525.082 249.971 524.503 251.716 525.184 253.214C528.902 261.388 534.861 267.156 544.415 272.592C545.232 273.056 546.23 273.063 547.061 272.626Z" fill="black" fill-opacity="0.1"/>
<path d="M533.857 272.867C535.386 272.118 535.57 270.011 534.233 268.958C527.497 263.653 524.028 259.297 521.472 251.814C520.966 250.331 519.285 249.576 517.878 250.265C516.711 250.836 516.168 252.206 516.658 253.409C519.988 261.588 523.453 266.289 531.483 272.62C532.159 273.153 533.084 273.245 533.857 272.867Z" fill="white" fill-opacity="0.2"/>
</g>
<path d="M571.671 227.399C561.369 227.757 554.028 226.184 543.795 222.267C533.563 218.35 537.456 243.737 557.705 243.139C571.94 242.718 581.972 227.04 571.671 227.399Z" fill="black"/>
<path d="M594.715 221.344C586.788 225.596 581.873 226.745 572.56 227.358C563.246 227.97 577.147 242.511 588.925 239.255C601.92 235.661 602.642 217.092 594.715 221.344Z" fill="black"/>
<ellipse cx="551.083" cy="232.87" rx="2.70467" ry="4.12818" transform="rotate(0.231351 551.083 232.87)" fill="white"/>
<ellipse cx="582.658" cy="231.908" rx="2.06616" ry="3.15362" transform="rotate(-1.07847 582.658 231.908)" fill="white"/>
<path d="M547.918 364.147C537.41 356.895 511.688 351.36 492.863 387.235C516.099 391.674 559.639 393.273 547.918 364.147Z" fill="#1D7FDB"/>
<path d="M547.918 364.147C537.41 356.895 511.688 351.36 492.863 387.235C516.099 391.674 559.639 393.273 547.918 364.147ZM547.918 364.147C539.482 364.665 518.615 366.589 505.961 377.689" stroke="black" stroke-width="3" stroke-linecap="round"/>
<path d="M547.918 364.147C539.482 362.963 516.883 365.745 493.973 386.346C516.839 391.082 559.639 393.273 547.918 364.147Z" fill="white" fill-opacity="0.2"/>
<path d="M547.918 364.147C537.41 356.895 511.688 351.36 492.863 387.235C516.099 391.674 559.639 393.273 547.918 364.147ZM547.918 364.147C539.482 364.665 518.615 366.589 505.961 377.689" stroke="black" stroke-width="3" stroke-linecap="round"/>
<path d="M549.468 364.147C559.976 356.895 585.697 351.36 604.522 387.235C581.287 391.674 537.747 393.273 549.468 364.147Z" fill="#1D7FDB"/>
<path d="M549.468 364.147C559.976 356.895 585.697 351.36 604.522 387.235C581.287 391.674 537.747 393.273 549.468 364.147ZM549.468 364.147C557.904 364.665 578.771 366.589 591.425 377.689" stroke="black" stroke-width="3" stroke-linecap="round"/>
<path d="M549.468 364.147C557.904 362.963 580.503 365.745 603.413 386.346C580.547 391.082 537.747 393.273 549.468 364.147Z" fill="white" fill-opacity="0.2"/>
<path d="M549.468 364.147C559.976 356.895 585.697 351.36 604.522 387.235C581.287 391.674 537.747 393.273 549.468 364.147ZM549.468 364.147C557.904 364.665 578.771 366.589 591.425 377.689" stroke="black" stroke-width="3" stroke-linecap="round"/>
<g filter="url(#filter4_f)">
<circle cx="453.919" cy="389.994" r="81.919" fill="#F2DA5B" fill-opacity="0.25"/>
</g>
<path d="M425.342 270.005C395.955 267.922 384.748 303.316 404.031 302.114C431.397 300.407 439.122 280.791 425.342 270.005Z" fill="#D9C24A"/>
<path d="M425.342 270.005L426.266 268.824L425.905 268.541L425.448 268.509L425.342 270.005ZM404.031 302.114L403.938 300.616L404.031 302.114ZM425.448 268.509C410.079 267.419 399.387 276.145 395.084 285.078C392.95 289.508 392.289 294.207 393.694 297.851C394.408 299.703 395.655 301.261 397.46 302.295C399.252 303.322 401.494 303.775 404.125 303.611L403.938 300.616C401.748 300.753 400.122 300.363 398.951 299.692C397.793 299.029 396.98 298.035 396.493 296.771C395.494 294.182 395.856 290.388 397.787 286.38C401.613 278.437 411.218 270.508 425.235 271.501L425.448 268.509ZM404.125 303.611C418.109 302.739 427.459 297.263 431.424 290.198C435.455 283.018 433.674 274.622 426.266 268.824L424.417 271.186C430.789 276.174 432.036 282.979 428.808 288.73C425.515 294.597 417.32 299.782 403.938 300.616L404.125 303.611Z" fill="black"/>
<path d="M422.841 269.805C417.155 270.318 402.632 281.55 401.939 301.663C384.793 298.999 399.17 268.721 422.841 269.805Z" fill="white" fill-opacity="0.25"/>
<path d="M425.342 270.005L426.266 268.824L425.905 268.541L425.448 268.509L425.342 270.005ZM404.031 302.114L403.938 300.616L403.938 300.616L404.031 302.114ZM425.448 268.509C410.079 267.419 399.387 276.145 395.084 285.078C392.95 289.508 392.289 294.207 393.694 297.851C394.408 299.703 395.655 301.261 397.46 302.295C399.252 303.322 401.494 303.775 404.125 303.611L403.938 300.616C401.748 300.753 400.122 300.363 398.951 299.692C397.793 299.029 396.98 298.035 396.493 296.771C395.494 294.182 395.856 290.388 397.787 286.38C401.613 278.437 411.218 270.508 425.235 271.501L425.448 268.509ZM404.125 303.611C418.109 302.739 427.459 297.263 431.424 290.198C435.455 283.018 433.674 274.622 426.266 268.824L424.417 271.186C430.789 276.174 432.036 282.979 428.808 288.73C425.515 294.597 417.32 299.782 403.938 300.616L404.125 303.611Z" fill="black"/>
<path d="M430.193 264.516C422.923 231.204 379.966 230.301 387.589 251.322C398.407 281.154 422.708 283.335 430.193 264.516Z" fill="#D9C24A"/>
<path d="M430.193 264.516L431.587 265.07L431.756 264.644L431.658 264.196L430.193 264.516ZM387.589 251.322L386.179 251.833L387.589 251.322ZM431.658 264.196C427.879 246.879 414.787 237.916 403.55 236.064C397.971 235.145 392.613 235.945 389.095 238.64C387.31 240.007 386.02 241.854 385.474 244.139C384.931 246.409 385.15 248.998 386.179 251.833L388.999 250.811C388.121 248.391 388.015 246.41 388.392 244.836C388.764 243.276 389.635 242.005 390.92 241.022C393.54 239.014 397.945 238.181 403.062 239.024C413.215 240.697 425.237 248.842 428.727 264.836L431.658 264.196ZM386.179 251.833C391.691 267.033 400.773 275.549 409.805 277.625C418.967 279.731 427.601 275.091 431.587 265.07L428.799 263.962C425.3 272.76 418.041 276.44 410.477 274.701C402.783 272.933 394.305 265.443 388.999 250.811L386.179 251.833Z" fill="black"/>
<path d="M430.198 264.84C429.09 258.03 419.053 244.05 387.407 248.851C397.423 279.489 418.197 284.652 430.198 264.84Z" fill="white" fill-opacity="0.25"/>
<path d="M430.193 264.516L431.587 265.07L431.756 264.644L431.658 264.196L430.193 264.516ZM387.589 251.322L388.999 250.811L387.589 251.322ZM431.658 264.196C427.879 246.879 414.787 237.916 403.55 236.064C397.971 235.145 392.613 235.945 389.095 238.64C387.31 240.007 386.02 241.854 385.474 244.139C384.931 246.409 385.15 248.998 386.179 251.833L388.999 250.811C388.121 248.391 388.015 246.41 388.392 244.836C388.764 243.276 389.635 242.005 390.92 241.022C393.54 239.014 397.945 238.181 403.062 239.024C413.215 240.697 425.237 248.842 428.727 264.836L431.658 264.196ZM386.179 251.833C391.691 267.033 400.773 275.549 409.805 277.625C418.967 279.731 427.601 275.091 431.587 265.07L428.799 263.962C425.3 272.76 418.041 276.44 410.477 274.701C402.783 272.933 394.305 265.443 388.999 250.811L386.179 251.833Z" fill="black"/>
<path d="M453.187 410.221C448.76 400.294 432.51 384.874 402.931 402.618C417.857 416.139 448.806 436.59 453.187 410.221Z" fill="#AC9311"/>
<path d="M453.187 410.221C448.76 400.294 432.51 384.874 402.931 402.618C417.857 416.139 448.806 436.59 453.187 410.221ZM453.187 410.221C446.824 406.861 430.8 399.015 416.682 401.48" stroke="black" stroke-width="3" stroke-linecap="round"/>
<path d="M453.187 410.221C447.578 405.623 429.914 397.635 404.131 402.464C418.658 416.037 448.806 436.59 453.187 410.221Z" fill="white" fill-opacity="0.2"/>
<path d="M453.187 410.221C448.76 400.294 432.51 384.874 402.931 402.618C417.857 416.139 448.806 436.59 453.187 410.221ZM453.187 410.221C446.824 406.861 430.8 399.015 416.682 401.48" stroke="black" stroke-width="3" stroke-linecap="round"/>
<path d="M458.527 410.344C462.058 401.008 476.135 386.007 504.197 400.701C491.231 413.891 463.946 434.286 458.527 410.344Z" fill="#AC9311"/>
<path d="M458.527 410.344C462.058 401.008 476.135 386.007 504.197 400.701C491.231 413.891 463.946 434.286 458.527 410.344ZM458.527 410.344C464.182 406.925 478.455 398.88 491.529 400.389" stroke="black" stroke-width="3" stroke-linecap="round"/>
<path d="M458.527 410.345C463.425 405.831 479.194 397.568 503.088 400.624C490.492 413.84 463.946 434.286 458.527 410.345Z" fill="white" fill-opacity="0.2"/>
<path d="M458.527 410.344C462.058 401.008 476.135 386.007 504.197 400.701C491.231 413.891 463.946 434.286 458.527 410.344ZM458.527 410.344C464.182 406.925 478.455 398.88 491.529 400.389" stroke="black" stroke-width="3" stroke-linecap="round"/>
<path d="M452.691 414.061C443.465 401.76 439.123 367.042 450.23 348.05C452.554 349.143 458.513 351.002 463.761 349.69C457.201 355.43 452.691 388.64 465.811 411.191C463.624 413.787 457.939 420.293 452.691 414.061Z" fill="#D9C24A" stroke="black" stroke-width="3"/>
<path d="M448.18 396.225C443.875 378.39 444.948 362.989 451.9 349.497C453.574 349.019 455.809 350.49 458.635 350.51C454.33 350.51 443.875 369.985 448.18 396.225Z" fill="white" fill-opacity="0.3"/>
<path d="M443.847 343.574C442.075 340.197 443.39 333.351 443.39 333.351C449.504 338.199 462.22 340.511 472.462 338.773C472.462 338.773 472.315 343.791 470.843 346.528C467.667 352.432 447.787 351.08 443.847 343.574Z" fill="#AC9311" stroke="black" stroke-width="3"/>
<path d="M448.583 342.687C447.177 339.937 448.211 334.366 448.211 334.366C453.056 338.318 463.126 340.213 471.233 338.808C471.233 338.808 471.122 342.892 469.959 345.119C467.451 349.921 451.709 348.801 448.583 342.687Z" fill="white" fill-opacity="0.15"/>
<path d="M443.847 343.574C442.075 340.197 443.39 333.351 443.39 333.351C449.504 338.199 462.22 340.511 472.462 338.773C472.462 338.773 472.315 343.791 470.843 346.528C467.667 352.432 447.787 351.08 443.847 343.574Z" stroke="black" stroke-width="3"/>
<path d="M524.918 293.092C524.918 304.154 518.834 315.729 508.784 324.58C498.753 333.414 484.893 339.417 469.595 339.417C438.789 339.417 414.273 318.445 414.273 293.092C414.273 267.67 438.869 244.872 469.595 244.872C484.86 244.872 498.712 251.324 508.755 260.631C518.82 269.959 524.918 282.015 524.918 293.092Z" fill="#D9C24A" stroke="black" stroke-width="3"/>
<path d="M442.841 251.658C429.26 256.793 423.427 264.444 416.561 282.437L427.215 282.437C430.056 254.5 465.097 243.609 486.878 248.344C476.224 244.082 462.255 244.319 442.841 251.658Z" fill="#F2DA5B"/>
<path d="M472.436 338.313C496.349 336.892 516 321.503 511.265 318.188C480.96 342.101 429.96 332.426 415.14 289.777C413.957 319.372 441.109 340.174 472.436 338.313Z" fill="#B9A22B"/>
<path d="M524.918 293.092C524.918 304.154 518.834 315.729 508.784 324.58C498.753 333.414 484.893 339.417 469.595 339.417C438.789 339.417 414.273 318.445 414.273 293.092C414.273 267.67 438.869 244.872 469.595 244.872C484.86 244.872 498.712 251.324 508.755 260.631C518.82 269.959 524.918 282.015 524.918 293.092Z" stroke="black" stroke-width="3"/>
<path d="M557.438 279.444C547.244 254.288 518.022 261.947 508.424 282.201C504.453 290.579 501.851 300.905 503.688 314.637C505.526 328.369 514.313 334.886 525.793 335.005C549.232 335.249 567.631 304.6 557.438 279.444Z" fill="#F2DA5B"/>
<path d="M556.512 281.566C547.76 259.968 522.673 266.543 514.433 283.932C511.024 291.125 508.79 299.99 510.367 311.779C511.945 323.569 519.489 329.164 529.345 329.266C549.468 329.475 565.264 303.163 556.512 281.566Z" fill="#D9C24A"/>
<path d="M508.897 281.491C518.495 261.236 547.244 254.288 557.438 279.444C567.632 304.6 549.232 335.249 525.793 335.005C514.313 334.886 506.994 327.422 503.689 315.584" stroke="black" stroke-width="3" stroke-linecap="round"/>
<ellipse cx="536.765" cy="300.3" rx="14.4424" ry="22.9657" transform="rotate(13.3197 536.765 300.3)" fill="#B9A22B"/>
<path d="M522.711 296.972C519.789 309.315 523.713 320.81 531.474 322.648C517.894 310.612 525.47 281.254 542.056 277.952C534.295 276.114 525.634 284.63 522.711 296.972Z" fill="black"/>
<ellipse cx="534.038" cy="300.59" rx="11.3454" ry="18.041" transform="rotate(13.3197 534.038 300.59)" fill="black"/>
<g opacity="0.75">
<rect x="433.122" y="281.891" width="11.2483" height="11.2483" rx="5" transform="rotate(36.1969 433.122 281.891)" fill="black" fill-opacity="0.2"/>
<rect x="439.327" y="295.499" width="11.2483" height="11.2483" rx="5" transform="rotate(36.1969 439.327 295.499)" fill="white" fill-opacity="0.2"/>
<rect x="448.039" y="284.134" width="11.2483" height="11.2483" rx="5" transform="rotate(36.1969 448.039 284.134)" fill="white" fill-opacity="0.2"/>
</g>
<ellipse cx="475.777" cy="271.337" rx="9.42999" ry="14.2339" transform="rotate(-32.924 475.777 271.337)" fill="black"/>
<ellipse cx="474.11" cy="272.148" rx="4.23009" ry="6.05101" transform="rotate(-22.1239 474.11 272.148)" fill="white"/>
<ellipse cx="499.006" cy="268.984" rx="7.09694" ry="10.7124" transform="rotate(-17.5469 499.006 268.984)" fill="black"/>
<ellipse cx="496.047" cy="268.334" rx="2.64308" ry="3.98955" transform="rotate(-11.0559 496.047 268.334)" fill="white"/>
<path d="M478.216 259.386L476.383 254.334C466.747 253.422 455.793 258.546 452.196 260.576L456.621 268.002C462.98 261.437 473.667 259.523 478.216 259.386Z" fill="#AC9311" stroke="black" stroke-width="5"/>
<path d="M486.647 255.567L485.805 250.259C493.796 244.796 505.861 243.977 509.991 244.012L509.713 252.652C500.971 249.986 490.694 253.485 486.647 255.567Z" fill="#AC9311" stroke="black" stroke-width="5"/>
<path d="M457.234 413.196C446.027 405.462 418.594 399.559 398.517 437.819C423.298 442.555 469.735 444.259 457.234 413.196Z" fill="#AC9311"/>
<path d="M457.234 413.196C446.027 405.462 418.594 399.559 398.517 437.819C423.298 442.555 469.735 444.259 457.234 413.196ZM457.234 413.196C448.237 413.749 425.981 415.801 412.486 427.639" stroke="black" stroke-width="3" stroke-linecap="round"/>
<path d="M457.234 413.196C448.237 411.933 424.135 414.901 399.701 436.872C424.087 441.923 469.735 444.259 457.234 413.196Z" fill="white" fill-opacity="0.2"/>
<path d="M457.234 413.196C446.027 405.462 418.594 399.559 398.517 437.819C423.298 442.555 469.735 444.259 457.234 413.196ZM457.234 413.196C448.237 413.749 425.981 415.801 412.486 427.639" stroke="black" stroke-width="3" stroke-linecap="round"/>
<path d="M458.887 413.196C470.094 405.462 497.527 399.559 517.604 437.819C492.823 442.555 446.387 444.259 458.887 413.196Z" fill="#AC9311"/>
<path d="M458.887 413.196C470.094 405.462 497.527 399.559 517.604 437.819C492.823 442.555 446.387 444.259 458.887 413.196ZM458.887 413.196C467.884 413.749 490.14 415.801 503.635 427.639" stroke="black" stroke-width="3" stroke-linecap="round"/>
<path d="M458.888 413.196C467.885 411.933 491.987 414.901 516.42 436.872C492.034 441.923 446.387 444.259 458.888 413.196Z" fill="white" fill-opacity="0.2"/>
<path d="M458.887 413.196C470.094 405.462 497.527 399.559 517.604 437.819C492.823 442.555 446.387 444.259 458.887 413.196ZM458.887 413.196C467.884 413.749 490.14 415.801 503.635 427.639" stroke="black" stroke-width="3" stroke-linecap="round"/>
<g filter="url(#filter5_f)">
<path d="M427.185 267.412C427.185 267.412 426.165 256.709 430.154 252.136C433.097 248.762 435.87 246.96 440.366 246.893C443.58 246.845 445.035 249.723 448.229 249.378C453.094 248.852 452.533 242.18 457.18 240.67C460.648 239.543 463.325 239.099 466.538 240.861C467.759 241.531 469.315 243.098 469.315 243.098" stroke="#F2DA5B" stroke-width="3" stroke-linecap="round"/>
</g>
<path d="M427.185 267.412C427.185 267.412 426.165 256.709 430.154 252.136C433.097 248.762 435.87 246.96 440.366 246.893C443.58 246.845 445.035 249.723 448.229 249.378C453.094 248.852 452.533 242.18 457.18 240.67C460.648 239.543 463.325 239.099 466.538 240.861C467.759 241.531 469.315 243.098 469.315 243.098" stroke="#F2DA5B" stroke-width="3" stroke-linecap="round"/>
<path d="M447.675 249.333C447.675 249.333 449.714 247.608 445.719 246.185C441.717 244.76 439.036 241.426 436.628 244.926C434.22 248.426 430.273 246.176 429.784 249.519C429.295 252.863 429.088 253.45 429.088 253.45" stroke="#F2DA5B" stroke-width="3"/>
<g filter="url(#filter6_f)">
<path d="M463.298 345.485C463.298 345.485 471.036 351.08 471.748 356.422C472.273 360.364 471.85 363.27 469.258 366.308C467.406 368.48 464.633 367.764 462.991 370.096C460.49 373.65 465.269 377.188 463.552 381.173C462.27 384.147 460.997 386.194 457.938 387.304C456.775 387.725 454.817 387.845 454.817 387.845" stroke="#F2DA5B" stroke-width="3" stroke-linecap="round"/>
</g>
<path d="M463.298 345.485C463.298 345.485 471.036 351.08 471.748 356.422C472.273 360.364 471.85 363.27 469.258 366.308C467.406 368.48 464.633 367.764 462.991 370.096C460.49 373.65 465.269 377.188 463.552 381.173C462.27 384.147 460.997 386.194 457.938 387.304C456.775 387.725 454.817 387.845 454.817 387.845" stroke="#F2DA5B" stroke-width="3" stroke-linecap="round"/>
<path d="M463.345 369.753C463.345 369.753 463.3 372.125 466.592 370.294C469.889 368.46 473.685 368.626 472.762 364.968C471.839 361.309 475.654 359.996 473.71 357.709C471.767 355.423 471.496 354.94 471.496 354.94" stroke="#F2DA5B" stroke-width="3"/>
<g filter="url(#filter7_f)">
<path d="M451.945 354.72C451.945 354.72 441.429 352.044 438.747 346.631C437.005 343.116 439.515 340.106 437.675 336.641C436.398 334.237 434.24 333.92 432.926 331.536C430.913 327.886 431.62 320.942 431.62 320.942" stroke="#F2DA5B" stroke-width="3" stroke-linecap="round"/>
</g>
<path d="M438.332 339.162C438.332 339.162 434.763 338.098 433.219 336.48C432.16 335.37 432.197 334.292 431.213 333.117C430.308 332.037 429.154 331.961 428.512 330.711C427.457 328.66 427.789 326.526 429.439 324.838C430.082 324.18 431.426 323.555 431.426 323.555" stroke="#F2DA5B" stroke-width="3" stroke-linecap="round"/>
<path d="M451.945 354.72C451.945 354.72 441.429 352.044 438.747 346.631C437.005 343.116 439.515 340.106 437.675 336.641C436.398 334.237 434.24 333.92 432.926 331.536C430.913 327.886 431.62 320.942 431.62 320.942" stroke="#F2DA5B" stroke-width="3" stroke-linecap="round"/>
<g filter="url(#filter8_f)">
<circle cx="359.84" cy="456.172" r="48.5358" fill="#66CC00" fill-opacity="0.2"/>
</g>
<path d="M297.858 304.882C291.939 312.932 281.522 308.907 282.232 323.586C265.759 297.437 301.173 284.521 315.615 299.673C300.463 297.779 300.463 302.988 300.463 302.988C300.463 302.988 298.805 302.041 298.805 300.62C297.858 301.804 297.148 303.225 297.858 304.882Z" fill="#129345" stroke="black" stroke-width="3" stroke-linejoin="round"/>
<path d="M305.541 316.58C303.753 323.066 296.183 323.117 300.201 332.112C283.421 319.834 302.689 303.045 315.51 308.954C305.462 311.502 306.728 314.756 306.728 314.756C306.728 314.756 305.45 314.572 305.104 313.685C304.793 314.658 304.689 315.72 305.541 316.58Z" fill="#129345" stroke="black" stroke-width="3" stroke-linejoin="round"/>
<path d="M323.84 291.963C317.64 291.643 316.088 284.832 308.783 290.242C316.507 272.68 335.468 286.7 332.695 299.429C328.4 290.882 325.72 292.67 325.72 292.67C325.72 292.67 325.631 291.482 326.362 290.994C325.424 290.907 324.446 291.024 323.84 291.963Z" fill="#129345" stroke="black" stroke-width="3" stroke-linejoin="round"/>
<path d="M282.334 323.823C267.294 299.142 280.315 287.885 299.752 291.623C305.908 292.807 309.327 294.973 313.721 297.272C303.777 293.517 292.446 297.107 289.098 302.751C287.435 302.192 286.407 300.681 286.02 298.726C284.305 301.021 285.11 303.368 286.02 305.355C279.324 308.491 281.288 314.206 282.334 323.823Z" fill="#29CB6A" stroke="black" stroke-width="3" stroke-linejoin="round"/>
<path d="M300.282 332.08C284.779 320.199 290.197 309.92 303.325 307.524C307.483 306.766 310.162 307.295 313.486 307.67C306.318 307.734 300.08 312.767 299.362 317.144C298.18 317.198 297.163 316.497 296.441 315.359C295.926 317.224 297.008 318.507 298.067 319.538C294.63 323.152 297.265 326.274 300.282 332.08Z" fill="#29CB6A" stroke="black" stroke-width="3" stroke-linejoin="round"/>
<path d="M308.828 290.309C316.448 273.976 326.788 276.813 331.559 288.165C333.07 291.76 333.126 294.279 333.449 297.349C331.965 290.903 326.189 286.284 322.103 286.508C321.819 285.453 322.248 284.398 323.13 283.521C321.347 283.429 320.406 284.658 319.688 285.818C315.748 283.44 313.459 286.436 308.828 290.309Z" fill="#29CB6A" stroke="black" stroke-width="3" stroke-linejoin="round"/>
<path d="M302.356 295.885C316.325 293.648 324.083 301.801 327.453 307.246L324.182 311.038C317.998 299.604 307.213 295.107 302.356 295.885Z" fill="#1A7156" stroke="black" stroke-width="3"/>
<path d="M306.163 309.741C314.461 304.901 321.355 308.087 324.812 310.66L323.664 313.835C316.968 308.212 309.048 308.058 306.163 309.741Z" fill="#1A7156" stroke="black" stroke-width="3"/>
<path d="M330.126 291.162C336.138 297.676 334.64 304.522 333.009 308.149L329.92 307.746C333.654 300.594 332.216 293.427 330.126 291.162Z" fill="#1A7156" stroke="black" stroke-width="3"/>
<path d="M333.626 457.195C341.007 446.947 355.939 449.696 355.76 459.641C355.495 474.389 338.77 478.227 326.79 474.263C313.613 469.902 307.668 452.483 307.668 452.483C317.95 458.619 328.561 464.228 333.626 457.195Z" fill="#1A7156"/>
<path d="M355.76 459.641C355.939 449.696 341.007 446.947 333.626 457.195C328.561 464.228 317.95 458.619 307.668 452.483M355.76 459.641C355.495 474.389 338.77 478.227 326.79 474.263C313.613 469.902 307.668 452.483 307.668 452.483M355.76 459.641C350.194 457.41 347.016 456.766 341.972 459.987C329.508 467.946 323.158 470.608 307.668 452.483" stroke="black" stroke-width="3" stroke-linecap="round" stroke-linejoin="round"/>
<path d="M326.79 474.263C313.613 469.903 307.673 452.47 307.673 452.47C323.159 470.606 329.511 467.939 341.979 459.969C347.025 456.743 350.204 457.386 355.77 459.617C355.499 474.379 338.771 478.227 326.79 474.263Z" fill="white" fill-opacity="0.2" stroke="black" stroke-width="3" stroke-linecap="round" stroke-linejoin="round"/>
<path d="M382.018 455.239C373.859 444.689 358.199 448.13 358.746 458.619C359.558 474.175 377.348 477.622 389.848 473.005C403.598 467.927 409.244 449.329 409.244 449.329C398.613 456.176 387.617 462.478 382.018 455.239Z" fill="#1A7156"/>
<path d="M358.746 458.619C358.199 448.13 373.859 444.689 382.018 455.239C387.617 462.478 398.613 456.176 409.244 449.329M358.746 458.619C359.558 474.175 377.348 477.622 389.848 473.005C403.598 467.927 409.244 449.329 409.244 449.329M358.746 458.619C364.54 456.064 367.871 455.269 373.311 458.487C386.752 466.437 393.549 469.016 409.244 449.329" stroke="black" stroke-width="3" stroke-linecap="round" stroke-linejoin="round"/>
<path d="M389.848 473.005C403.598 467.928 409.238 449.316 409.238 449.316C393.548 469.014 386.749 466.43 373.302 458.467C367.86 455.245 364.529 456.039 358.735 458.594C359.554 474.164 377.347 477.621 389.848 473.005Z" fill="white" fill-opacity="0.2" stroke="black" stroke-width="3" stroke-linecap="round" stroke-linejoin="round"/>
<path d="M352.218 461.061C342.993 448.76 338.651 414.042 349.758 395.05C352.082 396.143 358.04 398.002 363.288 396.69C356.728 402.43 352.218 435.64 365.339 458.191C363.152 460.787 357.466 467.293 352.218 461.061Z" fill="#29CB6A" stroke="black" stroke-width="3"/>
<path d="M347.708 443.225C343.403 425.39 344.476 409.989 351.428 396.497C353.102 396.019 355.336 397.49 358.163 397.51C353.858 397.51 343.403 416.985 347.708 443.225Z" fill="white" fill-opacity="0.3"/>
<path d="M343.376 390.574C341.603 387.197 342.918 380.351 342.918 380.351C349.032 385.199 361.748 387.511 371.99 385.773C371.99 385.773 371.844 390.791 370.371 393.528C367.196 399.432 347.315 398.08 343.376 390.574Z" fill="#14523F" stroke="black" stroke-width="3"/>
<path d="M348.111 389.687C346.704 386.937 347.739 381.366 347.739 381.366C352.584 385.318 362.654 387.213 370.761 385.808C370.761 385.808 370.65 389.892 369.487 392.119C366.978 396.921 351.237 395.801 348.111 389.687Z" fill="white" fill-opacity="0.15"/>
<path d="M343.376 390.574C341.603 387.197 342.918 380.351 342.918 380.351C349.032 385.199 361.748 387.511 371.99 385.773C371.99 385.773 371.844 390.791 370.371 393.528C367.196 399.432 347.315 398.08 343.376 390.574Z" stroke="black" stroke-width="3"/>
<path d="M424.446 340.092C424.446 351.154 418.362 362.729 408.311 371.58C398.281 380.414 384.421 386.417 369.123 386.417C338.317 386.417 313.801 365.445 313.801 340.092C313.801 314.67 338.397 291.872 369.123 291.872C384.388 291.872 398.24 298.324 408.283 307.631C418.348 316.959 424.446 329.015 424.446 340.092Z" fill="#29CB6A" stroke="black" stroke-width="3"/>
<path d="M342.369 298.658C328.789 303.793 322.955 311.444 316.089 329.437L326.743 329.437C329.584 301.5 364.625 290.609 386.407 295.344C375.753 291.082 361.784 291.319 342.369 298.658Z" fill="#3ED87B"/>
<path d="M371.965 385.313C395.877 383.892 415.528 368.503 410.793 365.188C380.488 389.101 329.488 379.426 314.669 336.777C313.485 366.372 340.638 387.174 371.965 385.313Z" fill="#1CAE56"/>
<path d="M424.446 340.092C424.446 351.154 418.362 362.729 408.311 371.58C398.281 380.414 384.421 386.417 369.123 386.417C338.317 386.417 313.801 365.445 313.801 340.092C313.801 314.67 338.397 291.872 369.123 291.872C384.388 291.872 398.24 298.324 408.283 307.631C418.348 316.959 424.446 329.015 424.446 340.092Z" stroke="black" stroke-width="3"/>
<path d="M456.966 326.444C446.772 301.288 417.55 308.947 407.952 329.201C403.982 337.579 401.379 347.905 403.217 361.637C405.054 375.369 413.842 381.886 425.321 382.005C448.761 382.249 467.16 351.6 456.966 326.444Z" fill="#41EF86"/>
<path d="M456.04 328.566C447.289 306.968 422.201 313.543 413.961 330.932C410.553 338.125 408.318 346.99 409.896 358.779C411.473 370.569 419.017 376.164 428.873 376.266C448.996 376.475 464.792 350.163 456.04 328.566Z" fill="#39E17C"/>
<path d="M408.426 328.491C418.024 308.236 446.772 301.288 456.966 326.444C467.16 351.6 448.761 382.249 425.321 382.005C413.842 381.886 406.522 374.422 403.217 362.584" stroke="black" stroke-width="3" stroke-linecap="round"/>
<ellipse cx="436.294" cy="347.3" rx="14.4424" ry="22.9657" transform="rotate(13.3197 436.294 347.3)" fill="#3AC271"/>
<path d="M422.24 343.972C419.318 356.315 423.241 367.81 431.003 369.648C417.422 357.612 424.999 328.254 441.585 324.952C433.823 323.114 425.162 331.63 422.24 343.972Z" fill="black"/>
<ellipse cx="433.566" cy="347.59" rx="11.3454" ry="18.041" transform="rotate(13.3197 433.566 347.59)" fill="black"/>
<g opacity="0.75">
<path d="M349.823 358.115C346.128 356.021 344.015 352.375 341.033 354.545C340.003 355.296 338.868 357.256 338.541 358.472C337.375 362.804 343.758 365.559 348.161 366.618C352.36 367.628 355.225 366.918 355.549 362.652C355.806 359.266 352.802 359.803 349.823 358.115Z" fill="#1CAE56" fill-opacity="0.5"/>
<path d="M331.725 339.949C335.393 340.148 337.571 343.38 339.044 340.551C339.553 339.573 339.677 337.618 339.463 336.55C338.698 332.746 335.371 330.89 331.553 331.765C327.911 332.599 323.288 336.433 324.68 339.862C325.784 342.583 328.768 339.788 331.725 339.949Z" fill="#1CAE56" fill-opacity="0.5"/>
<path d="M360.905 366.797C361.84 368.983 361.531 371.348 363.617 371.355C364.338 371.357 365.522 370.843 366.089 370.399C368.106 368.816 366.192 365.432 364.583 363.481C363.048 361.62 361.518 360.987 359.901 362.821C358.619 364.277 360.151 365.035 360.905 366.797Z" fill="white" fill-opacity="0.4"/>
<path d="M335.367 348.231C334.75 345.788 335.466 343.364 333.284 343.011C332.53 342.889 331.205 343.23 330.538 343.601C328.164 344.924 329.606 348.783 330.967 351.092C332.265 353.295 333.762 354.211 335.758 352.559C337.342 351.249 335.863 350.201 335.367 348.231Z" fill="white" fill-opacity="0.4"/>
</g>
<ellipse cx="375.305" cy="318.337" rx="9.42999" ry="14.2339" transform="rotate(-32.924 375.305 318.337)" fill="black"/>
<ellipse cx="372.937" cy="316.172" rx="4.86552" ry="6.95999" transform="rotate(-22.1239 372.937 316.172)" fill="white"/>
<ellipse cx="398.534" cy="315.984" rx="7.09694" ry="10.7124" transform="rotate(-17.5469 398.534 315.984)" fill="black"/>
<ellipse cx="396.049" cy="313.914" rx="2.64308" ry="3.98955" transform="rotate(-11.0559 396.049 313.914)" fill="white"/>
<path d="M331.059 470.352C334.776 455.37 352.968 451.704 357.284 463.069C363.685 479.923 346.454 491.878 331.059 492.824C314.127 493.864 299.466 476.802 299.466 476.802C313.92 479.091 328.509 480.633 331.059 470.352Z" fill="#1A7156"/>
<path d="M357.284 463.069C352.968 451.704 334.776 455.37 331.059 470.352C328.509 480.633 313.92 479.091 299.466 476.802M357.284 463.069C363.685 479.923 346.454 491.878 331.059 492.824C314.127 493.864 299.466 476.802 299.466 476.802M357.284 463.069C349.955 463.067 346.057 463.781 341.797 469.727C331.272 484.422 325.278 490.327 299.466 476.802" stroke="black" stroke-width="3" stroke-linecap="round" stroke-linejoin="round"/>
<path d="M331.059 492.824C314.127 493.865 299.466 476.785 299.466 476.785C325.278 490.324 331.272 484.413 341.797 469.703C346.057 463.75 349.955 463.035 357.284 463.038C363.685 479.91 346.454 491.877 331.059 492.824Z" fill="white" fill-opacity="0.2" stroke="black" stroke-width="3" stroke-linecap="round" stroke-linejoin="round"/>
<path d="M384.832 470.352C381.115 455.37 362.923 451.704 358.607 463.069C352.206 479.923 369.437 491.878 384.832 492.824C401.764 493.864 416.425 476.802 416.425 476.802C401.971 479.091 387.383 480.633 384.832 470.352Z" fill="#1A7156"/>
<path d="M358.607 463.069C362.923 451.704 381.115 455.37 384.832 470.352C387.383 480.633 401.971 479.091 416.425 476.802M358.607 463.069C352.206 479.923 369.437 491.878 384.832 492.824C401.764 493.864 416.425 476.802 416.425 476.802M358.607 463.069C365.936 463.067 369.835 463.781 374.094 469.727C384.619 484.422 390.614 490.327 416.425 476.802" stroke="black" stroke-width="3" stroke-linecap="round" stroke-linejoin="round"/>
<path d="M384.832 492.824C401.764 493.865 416.425 476.785 416.425 476.785C390.614 490.324 384.619 484.413 374.094 469.703C369.835 463.75 365.936 463.035 358.607 463.038C352.206 479.91 369.437 491.877 384.832 492.824Z" fill="white" fill-opacity="0.2" stroke="black" stroke-width="3" stroke-linecap="round" stroke-linejoin="round"/>
<defs>
<filter id="filter0_f" x="0" y="0" width="720" height="720" filterUnits="userSpaceOnUse" color-interpolation-filters="sRGB">
<feFlood flood-opacity="0" result="BackgroundImageFix"/>
<feBlend mode="normal" in="SourceGraphic" in2="BackgroundImageFix" result="shape"/>
<feGaussianBlur stdDeviation="100" result="effect1_foregroundBlur"/>
</filter>
<filter id="filter1_f" x="39.4429" y="164.075" width="463.838" height="463.838" filterUnits="userSpaceOnUse" color-interpolation-filters="sRGB">
<feFlood flood-opacity="0" result="BackgroundImageFix"/>
<feBlend mode="normal" in="SourceGraphic" in2="BackgroundImageFix" result="shape"/>
<feGaussianBlur stdDeviation="75" result="effect1_foregroundBlur"/>
</filter>
<filter id="filter2_f" x="318" y="115.582" width="453.62" height="453.62" filterUnits="userSpaceOnUse" color-interpolation-filters="sRGB">
<feFlood flood-opacity="0" result="BackgroundImageFix"/>
<feBlend mode="normal" in="SourceGraphic" in2="BackgroundImageFix" result="shape"/>
<feGaussianBlur stdDeviation="75" result="effect1_foregroundBlur"/>
</filter>
<filter id="filter3_f" x="421.996" y="284.844" width="254.064" height="165.71" filterUnits="userSpaceOnUse" color-interpolation-filters="sRGB">
<feFlood flood-opacity="0" result="BackgroundImageFix"/>
<feBlend mode="normal" in="SourceGraphic" in2="BackgroundImageFix" result="shape"/>
<feGaussianBlur stdDeviation="25" result="effect1_foregroundBlur"/>
</filter>
<filter id="filter4_f" x="222" y="158.075" width="463.838" height="463.838" filterUnits="userSpaceOnUse" color-interpolation-filters="sRGB">
<feFlood flood-opacity="0" result="BackgroundImageFix"/>
<feBlend mode="normal" in="SourceGraphic" in2="BackgroundImageFix" result="shape"/>
<feGaussianBlur stdDeviation="75" result="effect1_foregroundBlur"/>
</filter>
<filter id="filter5_f" x="404.41" y="210.326" width="82.0829" height="85.2095" filterUnits="userSpaceOnUse" color-interpolation-filters="sRGB">
<feFlood flood-opacity="0" result="BackgroundImageFix"/>
<feBlend mode="normal" in="SourceGraphic" in2="BackgroundImageFix" result="shape"/>
<feGaussianBlur stdDeviation="7.5" result="effect1_foregroundBlur"/>
</filter>
<filter id="filter6_f" x="431.199" y="327.647" width="62.0999" height="77.027" filterUnits="userSpaceOnUse" color-interpolation-filters="sRGB">
<feFlood flood-opacity="0" result="BackgroundImageFix"/>
<feBlend mode="normal" in="SourceGraphic" in2="BackgroundImageFix" result="shape"/>
<feGaussianBlur stdDeviation="7.5" result="effect1_foregroundBlur"/>
</filter>
<filter id="filter7_f" x="412.198" y="301.553" width="56.6858" height="73.5145" filterUnits="userSpaceOnUse" color-interpolation-filters="sRGB">
<feFlood flood-opacity="0" result="BackgroundImageFix"/>
<feBlend mode="normal" in="SourceGraphic" in2="BackgroundImageFix" result="shape"/>
<feGaussianBlur stdDeviation="7.5" result="effect1_foregroundBlur"/>
</filter>
<filter id="filter8_f" x="236.304" y="332.636" width="247.072" height="247.072" filterUnits="userSpaceOnUse" color-interpolation-filters="sRGB">
<feFlood flood-opacity="0" result="BackgroundImageFix"/>
<feBlend mode="normal" in="SourceGraphic" in2="BackgroundImageFix" result="shape"/>
<feGaussianBlur stdDeviation="37.5" result="effect1_foregroundBlur"/>
</filter>
</defs>
</svg>
