<svg width="357" height="453" viewBox="0 0 357 453" fill="none" xmlns="http://www.w3.org/2000/svg">
<rect x="101.601" y="258.296" width="28" height="79" rx="14" transform="rotate(5 101.601 258.296)" fill="#14342F" stroke="black" stroke-width="5"/>
<rect x="105.156" y="284.489" width="21.6002" height="54.9824" rx="10.8001" transform="rotate(5 105.156 284.489)" fill="#1C4942"/>
<rect x="101.601" y="258.296" width="28" height="79" rx="14" transform="rotate(5 101.601 258.296)" stroke="black" stroke-width="5"/>
<path d="M95.8888 303.392C104.608 295.291 111.469 295.238 120.313 303.202C141.173 321.984 154.268 404.619 134.554 428.276C124.154 440.756 76.8604 434.886 70.593 423.456C56.6957 398.114 75.3248 322.497 95.8888 303.392Z" fill="#29CB6A"/>
<path d="M104.717 314.497C110.847 308.801 115.67 308.764 121.888 314.363C136.554 327.568 145.761 385.665 131.901 402.297C124.589 411.072 91.3385 406.944 86.9321 398.909C77.1615 381.092 90.2589 327.929 104.717 314.497Z" fill="#42E884"/>
<path d="M97.5902 305.223C101.761 301.349 105.076 299.796 108.074 299.772C111.071 299.749 114.41 301.25 118.64 305.059C123.381 309.328 127.941 317.529 131.757 328.184C135.541 338.75 138.481 351.402 140.17 364.237C141.86 377.075 142.286 390.004 141.094 401.127C139.891 412.341 137.083 421.336 132.634 426.675C130.625 429.086 126.475 430.931 120.632 431.931C114.911 432.91 108.06 432.997 101.263 432.344C94.468 431.691 87.8538 430.311 82.6116 428.433C79.9897 427.493 77.7728 426.451 76.0659 425.354C74.3323 424.239 73.2886 423.173 72.7849 422.254C69.6232 416.489 68.1784 407.535 68.2905 396.718C68.4017 385.982 70.0404 373.735 72.7571 361.633C75.4731 349.533 79.2499 337.651 83.5992 327.645C87.9767 317.574 92.8305 309.645 97.5902 305.223Z" stroke="black" stroke-width="5"/>
<path d="M64.0973 422.471C78.0351 401.843 129.965 401.843 143.903 422.471C148.23 428.876 147.183 438.712 145.768 445.249C144.877 449.362 141.1 452 136.892 452H71.1078C66.8997 452 63.1226 449.362 62.2321 445.249C60.8167 438.712 59.7699 428.876 64.0973 422.471Z" fill="#29CB6A"/>
<path d="M76.377 429.033C87.0735 412.989 126.927 412.989 137.623 429.033C140.618 433.526 140.259 440.189 139.362 445.183C138.616 449.341 134.804 452 130.581 452H83.4194C79.1956 452 75.3836 449.341 74.6376 445.183C73.7414 440.189 73.3819 433.526 76.377 429.033Z" fill="#42E884"/>
<path d="M66.1688 423.871C69.2585 419.298 74.5932 415.687 81.3461 413.216C88.0732 410.754 96.009 409.5 104 409.5C111.991 409.5 119.927 410.754 126.654 413.216C133.407 415.687 138.742 419.298 141.831 423.871C143.621 426.52 144.393 430.039 144.49 433.873C144.585 437.68 144.009 441.561 143.325 444.72C142.719 447.518 140.101 449.5 136.892 449.5H71.1078C67.8992 449.5 65.2812 447.518 64.6754 444.72C63.9914 441.561 63.4149 437.68 63.5104 433.873C63.6066 430.039 64.3789 426.52 66.1688 423.871Z" stroke="black" stroke-width="5"/>
<rect x="-2.2726" y="2.70838" width="28" height="79" rx="14" transform="matrix(-0.996195 0.0871557 0.0871557 0.996195 191.249 255.571)" fill="#14342F" stroke="black" stroke-width="5"/>
<rect width="21.4554" height="54.6137" rx="10.7277" transform="matrix(-0.996195 0.0871557 0.0871557 0.996195 196.583 281.637)" fill="#1C4942"/>
<rect x="-2.2726" y="2.70838" width="28" height="79" rx="14" transform="matrix(-0.996195 0.0871557 0.0871557 0.996195 191.249 255.57)" stroke="black" stroke-width="5"/>
<path d="M199.462 303.166C190.743 295.065 183.881 295.012 175.037 302.976C154.178 321.758 141.082 404.393 160.796 428.05C171.197 440.53 218.49 434.66 224.757 423.231C238.655 397.888 220.026 322.271 199.462 303.166Z" fill="#29CB6A"/>
<path d="M201.634 314.271C195.504 308.576 190.68 308.538 184.462 314.137C169.797 327.342 160.59 385.439 174.45 402.071C181.762 410.846 215.012 406.719 219.418 398.683C229.189 380.866 216.092 327.703 201.634 314.271Z" fill="#42E884"/>
<path d="M197.76 304.998C193.59 301.123 190.274 299.57 187.277 299.547C184.28 299.523 180.94 301.024 176.71 304.834C171.969 309.103 167.41 317.303 163.593 327.959C159.809 338.524 156.87 351.177 155.18 364.011C153.491 376.85 153.064 389.778 154.257 400.901C155.459 412.115 158.268 421.11 162.717 426.449C164.726 428.86 168.875 430.705 174.718 431.705C180.439 432.684 187.291 432.771 194.088 432.118C200.882 431.465 207.497 430.085 212.739 428.207C215.361 427.267 217.578 426.225 219.285 425.128C221.018 424.014 222.062 422.947 222.566 422.029C225.727 416.263 227.172 407.309 227.06 396.492C226.949 385.756 225.31 373.51 222.593 361.407C219.877 349.307 216.101 337.426 211.751 327.419C207.374 317.348 202.52 309.42 197.76 304.998Z" stroke="black" stroke-width="5"/>
<path d="M231.253 422.246C217.315 401.617 165.386 401.617 151.448 422.246C147.12 428.65 148.167 438.487 149.583 445.023C150.473 449.136 154.25 451.774 158.458 451.774H224.243C228.451 451.774 232.228 449.136 233.118 445.023C234.534 438.487 235.581 428.65 231.253 422.246Z" fill="#29CB6A"/>
<path d="M225.973 428.807C215.277 412.763 175.424 412.763 164.727 428.807C161.732 433.3 162.092 439.964 162.988 444.958C163.734 449.115 167.546 451.774 171.77 451.774H218.931C223.155 451.774 226.967 449.115 227.713 444.958C228.609 439.964 228.969 433.3 225.973 428.807Z" fill="#42E884"/>
<path d="M229.182 423.645C226.092 419.072 220.757 415.461 214.004 412.99C207.277 410.528 199.341 409.274 191.35 409.274C183.36 409.274 175.424 410.528 168.697 412.99C161.944 415.461 156.609 419.072 153.519 423.645C151.729 426.294 150.957 429.813 150.861 433.648C150.765 437.454 151.342 441.335 152.026 444.494C152.632 447.292 155.25 449.274 158.458 449.274H224.243C227.451 449.274 230.069 447.292 230.675 444.494C231.359 441.335 231.936 437.454 231.84 433.648C231.744 429.813 230.972 426.294 229.182 423.645Z" stroke="black" stroke-width="5"/>
<path d="M215 229.947C215 243.724 215 282.254 147 282.254C79.0001 282.254 79 243.724 79 229.947C79 216.169 109.445 205 147 205C184.555 205 215 216.169 215 229.947Z" fill="#42E884"/>
<path d="M210.976 233.836C210.976 245.318 210.976 277.426 154.243 277.426C97.509 277.426 97.5089 245.318 97.5089 233.836C97.5089 222.355 122.909 213.047 154.243 213.047C185.576 213.047 210.976 222.355 210.976 233.836Z" fill="#59FE9B"/>
<ellipse cx="147" cy="229.947" rx="68" ry="24.9467" fill="#29CB6A"/>
<path d="M212.5 229.947C212.5 236.85 212.453 249.144 204.499 259.769C196.641 270.265 180.549 279.754 147 279.754C113.451 279.754 97.3588 270.265 89.5014 259.769C81.5473 249.144 81.5 236.85 81.5 229.947C81.5 227.496 82.8456 224.845 85.9819 222.125C89.1115 219.41 93.7855 216.852 99.7778 214.654C111.742 210.264 128.438 207.5 147 207.5C165.562 207.5 182.258 210.264 194.222 214.654C200.215 216.852 204.888 219.41 208.018 222.125C211.154 224.845 212.5 227.496 212.5 229.947Z" stroke="black" stroke-width="5"/>
<path d="M212.5 229.947C212.5 232.397 211.154 235.048 208.018 237.769C204.888 240.483 200.214 243.041 194.222 245.24C182.258 249.629 165.562 252.393 147 252.393C128.438 252.393 111.742 249.629 99.7778 245.24C93.7855 243.041 89.1115 240.483 85.9819 237.769C82.8456 235.048 81.5 232.397 81.5 229.947C81.5 227.496 82.8456 224.845 85.9819 222.125C89.1115 219.41 93.7855 216.852 99.7778 214.654C111.742 210.264 128.438 207.5 147 207.5C165.562 207.5 182.258 210.264 194.222 214.654C200.214 216.852 204.888 219.41 208.018 222.125C211.154 224.845 212.5 227.496 212.5 229.947Z" stroke="black" stroke-width="5"/>
<path d="M94.5553 186.5C136.222 195.026 159.299 195.317 199.855 186.5C199.855 186.5 199.855 191.518 199.855 221.524C199.855 251.531 94.5554 251.531 94.5552 221.524C94.5551 191.518 94.5553 186.5 94.5553 186.5Z" fill="#1C423C"/>
<path d="M95.3308 187L136.133 192C133.682 205.868 132.766 210.902 132.766 225.244C132.766 239.585 98.9161 239.585 98.916 225.244C98.916 210.902 97.103 200.389 95.3308 187Z" fill="#14342F"/>
<path d="M198.587 185.322C198.462 186.611 198.322 188.268 198.183 190.342C197.767 196.539 197.355 206.477 197.355 221.524C197.355 227.319 192.244 232.369 182.514 236.066C173.015 239.675 160.177 241.529 147.205 241.529C134.233 241.529 121.395 239.675 111.896 236.066C102.166 232.369 97.0554 227.319 97.0553 221.524C97.0553 206.452 96.4136 196.483 95.7641 190.25C95.5566 188.259 95.3481 186.647 95.1592 185.372C114.873 190.239 130.78 192.735 146.746 192.752C162.779 192.769 178.753 190.286 198.587 185.322Z" stroke="black" stroke-width="5"/>
<path d="M198.619 182.032C198.866 182.279 198.958 182.437 198.99 182.508C198.96 182.588 198.863 182.79 198.556 183.119C198.067 183.642 197.231 184.282 195.964 184.989C193.439 186.396 189.639 187.829 184.767 189.11C175.057 191.664 161.534 193.5 146.542 193.5C131.549 193.5 118.133 191.664 108.531 189.112C103.713 187.832 99.9674 186.4 97.4843 184.996C96.2379 184.291 95.4181 183.654 94.9396 183.133C94.6226 182.788 94.532 182.581 94.5073 182.506C94.5346 182.439 94.6214 182.278 94.8774 182.018C95.3293 181.561 96.1246 180.996 97.3666 180.379C99.8396 179.15 103.581 177.955 108.414 176.916C118.041 174.847 131.493 173.5 146.542 173.5C161.591 173.5 175.149 174.847 184.883 176.917C189.77 177.957 193.566 179.153 196.081 180.385C197.344 181.004 198.156 181.571 198.619 182.032ZM94.4959 182.543C94.4956 182.543 94.4961 182.539 94.4981 182.533C94.4971 182.539 94.4961 182.543 94.4959 182.543ZM199.003 182.541C199.005 182.548 199.006 182.552 199.005 182.552C199.005 182.552 199.004 182.548 199.003 182.541Z" fill="#336961" stroke="black" stroke-width="5"/>
<path d="M227.657 137.146C223.725 133.013 222.129 129.708 222.07 126.704C222.011 123.699 223.476 120.335 227.243 116.051C231.396 111.328 239.531 107.215 250.217 104.179C260.799 101.172 273.497 99.3273 286.346 98.8662C299.197 98.405 312.098 99.3314 323.094 101.807C334.167 104.299 342.958 108.284 347.977 113.665C352.809 118.846 353.817 125.924 352.182 132.668C350.534 139.464 346.301 145.457 341.331 148.259C335.453 151.573 326.606 153.851 316.131 155.011C305.709 156.164 293.894 156.187 282.235 155.138C270.573 154.089 259.141 151.975 249.472 148.891C239.736 145.786 232.072 141.787 227.657 137.146Z" fill="#59FE9B" stroke="black" stroke-width="5"/>
<path d="M230.628 138.066C223.871 130.963 223.76 125.312 230.233 117.95C245.501 100.585 314.357 96.4488 332.539 115.943C341.667 125.73 335.934 142.303 326.581 147.576C305.842 159.27 246.565 154.818 230.628 138.066Z" fill="#54EF92"/>
<path d="M227.657 137.146C223.725 133.013 222.129 129.708 222.07 126.704C222.011 123.699 223.476 120.335 227.243 116.051C231.396 111.328 239.531 107.215 250.217 104.179C260.799 101.172 273.497 99.3273 286.346 98.8662C299.197 98.405 312.098 99.3314 323.094 101.807C334.167 104.299 342.958 108.284 347.977 113.665C352.809 118.846 353.817 125.924 352.182 132.668C350.534 139.464 346.301 145.457 341.331 148.259C335.453 151.573 326.606 153.851 316.131 155.011C305.709 156.164 293.894 156.187 282.235 155.138C270.573 154.089 259.141 151.975 249.472 148.891C239.736 145.786 232.072 141.787 227.657 137.146Z" stroke="black" stroke-width="5"/>
<path d="M294.394 118.538C295.906 116.805 298.522 115.315 301.866 114.095C305.165 112.891 308.952 112.027 312.573 111.413C316.186 110.801 319.581 110.447 322.076 110.246C322.827 110.185 323.496 110.139 324.062 110.103V147.7C323.495 147.748 322.806 147.801 322.018 147.848C319.659 147.989 316.43 148.082 312.939 147.895C309.438 147.708 305.732 147.241 302.397 146.288C299.042 145.329 296.221 143.922 294.322 141.966C290.103 137.619 288.598 133.708 288.763 130.094C288.931 126.412 290.85 122.603 294.394 118.538Z" fill="#008D79" stroke="black" stroke-width="4"/>
<ellipse cx="325.066" cy="128.754" rx="11.9341" ry="20.754" fill="#05564A"/>
<path d="M335 128.754C335 134.199 333.727 139.031 331.771 142.432C329.784 145.888 327.34 147.508 325.066 147.508C322.791 147.508 320.348 145.888 318.361 142.432C316.405 139.031 315.132 134.199 315.132 128.754C315.132 123.309 316.405 118.477 318.361 115.076C320.348 111.62 322.791 110 325.066 110C327.34 110 329.784 111.62 331.771 115.076C333.727 118.477 335 123.309 335 128.754Z" stroke="black" stroke-width="4"/>
<ellipse cx="325.694" cy="128.754" rx="5.02489" ry="11.53" fill="black"/>
<path d="M275.895 134.695C274.148 131.665 273.349 129.11 273.313 126.641C273.277 124.172 273.999 121.577 275.656 118.458C277.331 115.304 281.423 112.819 287.213 111.077C292.896 109.367 299.735 108.516 306.188 108.261C312.639 108.005 318.577 108.349 322.425 108.965C322.921 109.045 323.366 109.126 323.762 109.208C317.368 113.952 315.051 121.927 315.006 129.074C314.98 133.088 315.66 137 316.832 140.215C317.973 143.343 319.707 146.153 322.046 147.504C321.978 147.518 321.907 147.531 321.833 147.544C318.844 148.087 313.381 148.047 307.061 147.275C300.787 146.509 293.883 145.048 288.051 142.873C282.111 140.658 277.72 137.861 275.895 134.695ZM326.084 109.915C326.084 109.915 326.083 109.914 326.08 109.912C326.083 109.914 326.085 109.915 326.084 109.915ZM323.476 147.047C323.476 147.047 323.47 147.052 323.453 147.063C323.467 147.052 323.475 147.046 323.476 147.047Z" fill="#42E884" stroke="black" stroke-width="4"/>
<path d="M275.443 135.32C272.83 131.155 272.781 127.849 275.27 123.551C281.139 113.415 304.375 117 303.5 120.5C300.797 131.313 305.016 143.024 309.923 145.612C319.133 150.47 281.607 145.142 275.443 135.32Z" fill="#50FA94"/>
<path d="M275.895 134.695C274.148 131.665 273.349 129.11 273.313 126.641C273.277 124.172 273.999 121.577 275.656 118.458C277.331 115.304 281.423 112.819 287.213 111.077C292.896 109.367 299.735 108.516 306.188 108.261C312.639 108.005 318.577 108.349 322.425 108.965C322.921 109.045 323.366 109.126 323.762 109.208C317.368 113.952 315.051 121.927 315.006 129.074C314.98 133.088 315.66 137 316.832 140.215C317.973 143.343 319.707 146.153 322.046 147.504C321.978 147.518 321.907 147.531 321.833 147.544C318.844 148.087 313.381 148.047 307.061 147.275C300.787 146.509 293.883 145.048 288.051 142.873C282.111 140.658 277.72 137.861 275.895 134.695ZM326.084 109.915C326.084 109.915 326.083 109.914 326.08 109.912C326.083 109.914 326.085 109.915 326.084 109.915ZM323.476 147.047C323.476 147.047 323.47 147.052 323.453 147.063C323.467 147.052 323.475 147.046 323.476 147.047Z" stroke="black" stroke-width="4"/>
<path d="M23.2593 101.542L267.758 94.8918C267.758 94.8918 268.029 229.456 145.175 227.031C28.3635 224.725 23.2593 101.542 23.2593 101.542Z" fill="#29CB6A" stroke="black" stroke-width="5"/>
<path d="M264.591 106.276C264.591 106.276 258.44 223.561 156.702 224.076C222.95 221.502 257.493 167.957 257.493 109.264L264.591 106.276Z" fill="white"/>
<path d="M47.8659 111.839L258.286 109.104C258.286 109.104 260.806 220.472 156.228 224.076C64.6085 227.233 47.8659 111.839 47.8659 111.839Z" fill="#42E884"/>
<path d="M47.8659 111.839L258.286 109.104C258.286 109.104 260.806 220.472 156.228 224.076C64.6085 227.233 47.8659 111.839 47.8659 111.839Z" fill="#59FE9B"/>
<path d="M268.377 94.8485C272.282 133.435 19.4086 133.97 22.7845 98.5398C27.1145 53.0973 264.79 59.4119 268.377 94.8485Z" fill="#29CB6A" stroke="black" stroke-width="5"/>
<path d="M266.125 94.592C269.881 128.888 35.7384 128.279 38.7361 96.819C42.581 56.4681 262.676 63.0961 266.125 94.592Z" fill="#2FE477"/>
<path d="M268.377 94.8485C272.282 133.435 19.4086 133.97 22.7845 98.5398C27.1145 53.0973 264.79 59.4119 268.377 94.8485Z" stroke="black" stroke-width="5"/>
<path d="M268.377 95.8782C268.377 95.8782 268.029 229.456 145.175 227.031C28.3635 224.725 22.7862 99.4822 22.7862 99.4822" stroke="black" stroke-width="5"/>
<path d="M63 139.025C64.3882 147.472 59.1931 155.358 54.1659 156.185C49.1386 157.011 41.6927 151.202 40.3045 142.755C38.9162 134.308 42.8714 126.625 49.1386 125.595C55.4058 124.565 61.6118 130.578 63 139.025Z" fill="black"/>
<path d="M233.906 87.9175C230.334 114.352 61.7282 115.781 62.4427 86.4885L233.906 87.9175Z" fill="#29CB6A"/>
<path d="M62.4427 87.9175L233.906 89.3463C233.906 89.3463 233.721 6.87886 147.762 8.43867C66.0312 9.92174 62.4427 87.9175 62.4427 87.9175Z" fill="#29CB6A"/>
<path d="M231.183 86.6874C227.968 110.479 76.2204 111.765 76.8634 85.4013L231.183 86.6874Z" fill="#42E884"/>
<path d="M76.8634 86.6874L231.183 87.9734C231.183 87.9734 231.016 13.7515 153.652 15.1554C80.0931 16.4902 76.8634 86.6874 76.8634 86.6874Z" fill="#42E884"/>
<path d="M233.906 89.3463C233.906 89.3463 233.721 6.87886 147.762 8.43867C66.0312 9.92175 62.4427 87.9175 62.4427 87.9175" stroke="black" stroke-width="5"/>
<path d="M233.906 87.9175C230.334 114.352 61.7282 115.781 62.4427 86.4885" stroke="black" stroke-width="5"/>
<path d="M111.025 71.1987C111.025 41.1922 141.404 51.507 162.84 51.4252C182.586 51.3499 212.475 39.0488 211.761 71.1987C211.345 89.9107 186.043 91.6319 167.719 93.114C145.193 94.9358 111.025 91.2029 111.025 71.1987Z" fill="black"/>
<path d="M186.881 81.0008C188.38 82.4524 190.866 81.9683 191.711 80.0603L200.338 60.5758C201.32 58.3586 199.402 55.9531 197.022 56.4165L173.087 61.0768C170.707 61.5402 169.831 64.4896 171.573 66.1765L186.881 81.0008Z" fill="#1ED6FF"/>
<path d="M135.966 81.4952C136.813 83.4022 139.3 83.8833 140.797 82.4299L156.087 67.5873C157.827 65.8983 156.948 62.9499 154.567 62.4893L130.627 57.8578C128.246 57.3972 126.331 59.805 127.315 62.0211L135.966 81.4952Z" fill="#1ED6FF"/>
<rect x="123.17" y="55.481" width="77.1595" height="1.42888" fill="black"/>
<rect x="123.17" y="69.7698" width="77.1595" height="1.42888" fill="black"/>
<rect x="123.17" y="58.3388" width="77.1595" height="1.42888" fill="black"/>
<rect x="123.17" y="72.6276" width="77.1595" height="1.42888" fill="black"/>
<rect x="123.17" y="61.1965" width="77.1595" height="1.42888" fill="black"/>
<rect x="123.17" y="75.4854" width="77.1595" height="1.42888" fill="black"/>
<rect x="123.17" y="64.0543" width="77.1595" height="1.42888" fill="black"/>
<rect x="123.17" y="78.3431" width="77.1595" height="1.42888" fill="black"/>
<rect x="123.17" y="66.912" width="77.1595" height="1.42888" fill="black"/>
<rect x="123.17" y="81.2009" width="77.1595" height="1.42888" fill="black"/>
<g filter="url(#filter0_f)">
<path d="M186.881 81.0008C188.38 82.4524 190.866 81.9683 191.711 80.0603L200.338 60.5758C201.32 58.3586 199.402 55.9531 197.022 56.4165L173.087 61.0768C170.707 61.5402 169.831 64.4896 171.573 66.1765L186.881 81.0008Z" fill="#00FFF0" fill-opacity="0.6"/>
</g>
<g filter="url(#filter1_f)">
<path d="M135.966 81.4952C136.813 83.4022 139.3 83.8833 140.797 82.4299L156.087 67.5873C157.827 65.8983 156.948 62.9499 154.567 62.4893L130.627 57.8578C128.246 57.3972 126.331 59.805 127.315 62.0211L135.966 81.4952Z" fill="#00FFF0" fill-opacity="0.6"/>
</g>
<path d="M155.144 156.025L175.809 135.139L195.963 155.741L176.211 192.868L155.144 156.025Z" fill="#35D876"/>
<path d="M159.114 156.564L175.72 139.781L191.914 156.336L176.042 186.17L159.114 156.564Z" fill="#12302B"/>
<path d="M159.114 156.564L175.72 139.781L168.855 157.775L176.042 186.17L159.114 156.564Z" fill="black"/>
<path d="M162.104 156.924L176.036 142.095L189.632 156.733L176.321 183.099L162.104 156.924Z" fill="#1ABA5A"/>
<path d="M176.319 183.098L162.102 156.924L176.174 162.228L189.63 156.732L176.319 183.098Z" fill="#29CB6A"/>
<path d="M176.319 183.098L162.102 156.924L176.174 162.228L176.319 183.098Z" fill="#008636"/>
<path d="M176.034 142.094L189.63 156.732L176.174 162.228L176.034 142.094Z" fill="#9AFFC2"/>
<path d="M176.036 142.095L162.104 156.924M176.036 142.095L189.632 156.733M176.036 142.095L176.321 183.099M162.104 156.924L176.321 183.099M162.104 156.924L176.176 162.228L189.632 156.733M189.632 156.733L176.321 183.099" stroke="black" stroke-width="4"/>
<path d="M22.6856 127.881C26.8947 124.031 30.2298 122.5 33.2349 122.5C36.2399 122.5 39.5751 124.031 43.7842 127.881C48.4253 132.126 52.3773 140.34 55.2037 151.083C58.0025 161.723 59.5979 174.454 59.8071 187.309C60.0162 200.167 58.837 213.047 56.1467 223.993C53.4376 235.015 49.2809 243.726 43.8025 248.639C38.528 253.368 31.4318 254.237 24.7212 252.47C17.9587 250.689 12.0499 246.339 9.34549 241.315C6.1475 235.374 4.04312 226.484 3.08948 215.988C2.14071 205.545 2.34962 193.733 3.62668 182.096C4.90409 170.457 7.24216 159.068 10.5147 149.462C13.8099 139.789 17.9588 132.204 22.6856 127.881Z" fill="#29CB6A" stroke="black" stroke-width="5"/>
<path d="M26.1705 138.711C32.9466 132.43 38.2409 132.43 45.017 138.711C60.9984 153.526 63.6079 218.957 45.017 235.851C35.6842 244.333 20.2687 238.583 15.5016 229.608C4.93119 209.706 10.1891 153.526 26.1705 138.711Z" fill="#32E077"/>
<path d="M22.6856 127.881C26.8947 124.031 30.2298 122.5 33.2349 122.5C36.2399 122.5 39.5751 124.031 43.7842 127.881C48.4253 132.126 52.3773 140.34 55.2037 151.083C58.0025 161.723 59.5979 174.454 59.8071 187.309C60.0162 200.167 58.837 213.047 56.1467 223.993C53.4376 235.015 49.2809 243.726 43.8025 248.639C38.528 253.368 31.4318 254.237 24.7212 252.47C17.9587 250.689 12.0499 246.339 9.34549 241.315C6.1475 235.374 4.04312 226.484 3.08948 215.988C2.14071 205.545 2.34962 193.733 3.62668 182.096C4.90409 170.457 7.24216 159.068 10.5147 149.462C13.8099 139.789 17.9588 132.204 22.6856 127.881Z" stroke="black" stroke-width="5"/>
<defs>
<filter id="filter0_f" x="165.137" y="50.8422" width="44.3213" height="38.8527" filterUnits="userSpaceOnUse" color-interpolation-filters="sRGB">
<feFlood flood-opacity="0" result="BackgroundImageFix"/>
<feBlend mode="normal" in="SourceGraphic" in2="BackgroundImageFix" result="shape"/>
<feGaussianBlur stdDeviation="2.5" result="effect1_foregroundBlur"/>
</filter>
<filter id="filter1_f" x="118.217" y="52.287" width="44.3006" height="38.8223" filterUnits="userSpaceOnUse" color-interpolation-filters="sRGB">
<feFlood flood-opacity="0" result="BackgroundImageFix"/>
<feBlend mode="normal" in="SourceGraphic" in2="BackgroundImageFix" result="shape"/>
<feGaussianBlur stdDeviation="2.5" result="effect1_foregroundBlur"/>
</filter>
</defs>
</svg>
