<svg width="23" height="23" viewBox="0 0 23 23" fill="none" xmlns="http://www.w3.org/2000/svg">
<g clip-path="url(#clip0)">
<path d="M19.7142 0C19.2605 0 18.8928 0.367765 18.8928 0.821444V3.82209C14.6637 -0.272226 7.91636 -0.16297 3.82204 4.06602C1.89248 6.05906 0.816043 8.72592 0.821385 11.5C0.821385 11.9537 1.18915 12.3214 1.64283 12.3214C2.09651 12.3214 2.46423 11.9537 2.46423 11.5C2.46524 6.5097 6.51143 2.46505 11.5017 2.46606C14.0362 2.46655 16.4538 3.53143 18.165 5.40087L14.5261 6.6141C14.0952 6.75748 13.862 7.22305 14.0054 7.65401C14.1487 8.08497 14.6143 8.31816 15.0453 8.17478L19.9738 6.53194C20.3103 6.41989 20.5368 6.10454 20.5357 5.74996V0.821396C20.5357 0.367765 20.1679 0 19.7142 0Z" fill="white"/>
<path d="M21.3571 10.6785C20.9034 10.6785 20.5357 11.0462 20.5357 11.4999C20.5347 16.4902 16.4885 20.5348 11.4982 20.5338C8.96374 20.5333 6.5461 19.4684 4.83486 17.599L8.47377 16.3858C8.90473 16.2424 9.13793 15.7768 8.99454 15.3459C8.85116 14.9149 8.3856 14.6817 7.95464 14.8251L3.02607 16.4679C2.68964 16.58 2.46308 16.8953 2.46419 17.2499V22.1785C2.46419 22.6322 2.83196 22.9999 3.28564 22.9999C3.73931 22.9999 4.10708 22.6322 4.10708 22.1785V19.1778C8.33612 23.2721 15.0835 23.1629 19.1778 18.9339C21.1074 16.9408 22.1838 14.274 22.1785 11.4999C22.1786 11.0462 21.8108 10.6785 21.3571 10.6785Z" fill="white"/>
</g>
<defs>
<clipPath id="clip0">
<rect width="23" height="23" fill="white"/>
</clipPath>
</defs>
</svg>
