<svg width="278" height="239" viewBox="0 0 300 239" fill="none" xmlns="http://www.w3.org/2000/svg">
<g>
<path d="M113.51 20.3111C112.95 15.7779 116.293 11.6968 120.848 11.3532L139.279 9.9628C143.685 9.63044 147.526 12.9326 147.858 17.3383L162.795 215.335L137.828 217.219L113.51 20.3111Z" fill="#563E2D"/>
<path d="M120.643 19.773C120.083 15.2398 123.426 11.1588 127.981 10.8152L146.412 9.42472C150.818 9.09235 154.659 12.3945 154.991 16.8002L169.928 214.797L144.961 216.681L120.643 19.773Z" fill="#755742"/>
<path d="M120.596 19.7361C120.061 15.2159 123.4 11.1607 127.939 10.8183L146.412 9.42472C150.818 9.09235 154.659 12.3945 154.991 16.8002L161.587 104.231L131.977 115.881L120.596 19.7361Z" fill="black" fill-opacity="0.25"/>
<path d="M2.14623 47.1624C1.81387 42.7566 5.11601 38.9156 9.52177 38.5833L249.475 20.4815C253.881 20.1491 257.722 23.4513 258.054 27.857L260.233 56.7375C260.499 60.2635 258.418 63.546 255.116 64.8104L249.014 67.1467L255.331 68.0702C258.733 68.5677 261.336 71.3585 261.594 74.7873C261.892 78.7292 259.017 82.1998 255.088 82.6411L15.1719 109.592C10.6672 110.098 6.64249 106.764 6.30149 102.244L6.00905 98.3671C5.73643 94.7533 7.92715 91.4077 11.3485 90.2127L12.0964 89.9515L10.8348 89.6339C7.49598 88.7935 5.06938 85.911 4.81038 82.4778L4.05371 72.4475C3.76777 68.6572 6.18843 65.189 9.84487 64.1502L33.6477 57.3882L9.7963 56.0686C5.78678 55.8467 2.56299 52.6869 2.26091 48.6826L2.14623 47.1624Z" fill="#563E2D"/>
<path d="M9.71635 34.9816L3.52946 41.7255L17.9306 42.4326L9.71635 34.9816Z" fill="#563E2D"/>
<path d="M11.449 60.8559L6.28323 66.3428L18.9896 68.3577L11.449 60.8559Z" fill="#563E2D"/>
<path d="M7.09252 41.4085C6.76016 37.0027 10.0623 33.1617 14.4681 32.8294L254.421 14.7276C258.827 14.3952 262.668 17.6974 263 22.1031L265.179 50.9836C265.445 54.5096 263.364 57.7921 260.062 59.0565L253.96 61.3928L260.277 62.3163C263.68 62.8138 266.282 65.6045 266.541 69.0334C266.838 72.9753 263.963 76.4459 260.035 76.8872L20.1182 103.838C15.6135 104.344 11.5888 101.01 11.2478 96.4898L10.9553 92.6132C10.6827 88.9994 12.8734 85.6538 16.2948 84.4588L17.0427 84.1976L15.7811 83.88C12.4423 83.0396 10.0157 80.1571 9.75667 76.7239L9 66.6936C8.71406 62.9033 11.1347 59.4351 14.7912 58.3963L38.594 51.6343L14.7426 50.3147C10.7331 50.0928 7.50928 46.933 7.2072 42.9287L7.09252 41.4085Z" fill="#755842"/>
<path d="M62.7191 71.6179C61.8256 71.7205 60.9143 71.7232 59.9851 71.6259C59.0671 71.5145 58.2977 71.3096 57.6769 71.0112C57.4739 70.5755 57.3086 70.1355 57.1811 69.6911C57.0536 69.2468 56.8848 68.6095 56.6747 67.7794L56.6682 67.7228C56.676 67.5689 56.7448 67.4462 56.8746 67.3548C57.386 67.5893 57.8706 67.7568 58.3284 67.8573C58.7847 67.9451 59.2772 67.9587 59.8057 67.898L60.2587 67.846L60.5629 67.8302C60.8523 67.7969 61.143 67.7189 61.4349 67.5962C61.5913 67.5145 61.6908 67.3819 61.7335 67.1985L60.6767 66.8226C59.8672 66.5458 59.1303 66.2352 58.466 65.8907C57.7707 65.4988 57.2435 64.9601 56.8843 64.2746C56.7011 63.9004 56.5827 63.4805 56.5293 63.0149C56.3992 61.8823 56.6405 60.9303 57.2532 60.1587C57.7864 59.4727 58.5538 58.9383 59.5553 58.5556C60.4242 58.2391 61.3935 58.0194 62.4631 57.8966C63.0923 57.8243 63.9686 57.7938 65.0918 57.8051C65.208 57.8173 65.3682 57.8244 65.5724 57.8264L66.1517 57.8746C66.5882 57.901 66.9072 57.9027 67.1085 57.8795C67.1211 57.8781 67.1421 57.8948 67.1716 57.9297C67.2137 57.9631 67.2488 57.9909 67.2768 58.0132C67.3373 58.0955 67.3927 58.1338 67.443 58.128L67.4619 58.1258L67.4808 58.1237L67.564 58.5157C67.5857 58.7045 67.6277 58.9037 67.69 59.1132C67.7639 59.4235 67.8218 59.7611 67.8637 60.126C67.8998 60.4406 67.907 60.6693 67.8851 60.8121C67.8511 61.071 67.7588 61.2665 67.6082 61.3985L65.8267 61.3736L65.638 61.3952L65.3737 61.4256C64.9458 61.4747 64.4601 61.5751 63.9165 61.7268L63.3088 61.9304C63.1607 61.9729 63.0881 62.0068 63.091 62.0319C63.1256 62.334 63.3532 62.5947 63.7737 62.8142C63.974 62.8932 64.1728 62.9596 64.3703 63.0134C64.5663 63.0547 64.6909 63.085 64.7441 63.1044C65.7056 63.2617 66.5638 63.6285 67.3184 64.2049C67.6677 64.4708 67.9499 64.7635 68.1651 65.083C68.3803 65.4026 68.506 65.7196 68.5421 66.0342C68.5638 66.223 68.5617 66.4272 68.536 66.6469C68.5562 67.6008 68.2915 68.46 67.7418 69.2243C67.196 69.9118 66.4741 70.4537 65.5761 70.85C64.804 71.2319 63.8516 71.4879 62.7191 71.6179ZM76.5229 69.6313L75.6546 69.731L74.6731 69.8437L73.4272 69.9868C73.2938 69.8236 73.1814 69.5114 73.0902 69.0501C72.9922 68.6406 72.8976 68.0395 72.8066 67.2467L72.5871 65.1681C72.5419 64.6633 72.4564 63.8635 72.3307 62.7687L72.2676 62.7186L70.3988 62.9332C70.122 62.965 69.9034 62.6713 69.7431 62.0522C69.6537 61.7182 69.5715 61.2241 69.4963 60.5697L69.4682 60.3243C69.4832 60.2333 69.4799 60.0935 69.4582 59.9047L69.4149 59.5272L69.4164 59.374L69.4832 59.2898L69.8252 59.2697L70.2027 59.2264C70.7564 59.1628 71.1772 59.1081 71.4652 59.0623L72.6922 58.9214L73.0319 58.8824L73.6737 58.8087L74.4854 58.7155L75.297 58.6223C75.4621 58.6161 75.6956 58.5956 75.9976 58.561L76.4695 58.5068C76.517 58.4758 76.5973 58.4538 76.7106 58.4408C76.7958 58.4056 76.8761 58.3836 76.9516 58.3749C77.1907 58.3475 77.3746 58.3391 77.5034 58.3498C77.7579 58.3461 77.9481 58.337 78.074 58.3225L78.5626 58.2473L79.2987 58.1628C79.6763 58.1194 79.935 58.0961 80.0748 58.0928L80.3413 58.0813C80.3553 58.0925 80.3763 58.1092 80.4044 58.1314C80.431 58.1411 80.445 58.1523 80.4465 58.1649L80.8149 61.3738C80.8236 61.4493 80.789 61.5361 80.711 61.6343C80.6456 61.7311 80.5766 61.7964 80.504 61.8302C80.0786 61.7898 79.5324 61.8079 78.8655 61.8845L78.1482 61.9669C77.9594 61.9885 77.861 62.2421 77.853 62.7275C77.8438 62.8688 77.8543 63.0716 77.8846 63.3359L77.9497 63.9021C77.9786 64.1538 78.0065 64.3419 78.0336 64.4663L78.0942 64.9948C78.1535 65.5107 78.1832 65.9918 78.1835 66.438C78.1959 66.7681 78.2107 67.0086 78.2281 67.1596C78.2203 67.3135 78.2315 67.5226 78.2619 67.7869C78.3052 68.1644 78.3287 68.4804 78.3325 68.735C78.3647 69.1266 78.2438 69.3508 77.9699 69.4078C77.6722 69.4802 77.4982 69.5193 77.4478 69.5251L76.5229 69.6313ZM83.5465 68.7866C83.3074 68.814 83.1884 68.6109 83.1896 68.1773C83.1723 68.0263 83.1843 67.8528 83.2255 67.6568C83.2154 67.5687 83.2137 67.4988 83.2205 67.447C83.2259 67.3826 83.2264 67.3316 83.2221 67.2938C83.354 65.8889 83.5196 64.4993 83.7188 63.125L84.4258 57.9566C84.4229 57.9314 84.4382 57.8978 84.4716 57.8557C84.505 57.8136 84.5391 57.7778 84.574 57.7483L84.7061 57.7331C84.8571 57.7158 84.9745 57.6832 85.0583 57.6353C85.1323 57.6141 85.2637 57.5926 85.4525 57.5709C85.7545 57.5362 85.9817 57.5165 86.1342 57.5118C86.365 57.5235 86.6 57.5157 86.8391 57.4882L87.8185 57.3566C87.9163 57.3199 88.0344 57.2936 88.1728 57.2777L88.999 57.1446L89.6219 57.073C89.861 57.0456 90.0945 57.0252 90.3225 57.0117L90.851 56.951C90.9783 56.9492 91.1615 56.9345 91.4006 56.9071L92.1179 56.8247C92.1556 56.8204 92.1941 56.8223 92.2333 56.8306C92.2725 56.8388 92.3054 56.8478 92.332 56.8575C92.3852 56.8769 92.4496 56.8822 92.5251 56.8736L92.695 56.8541C92.7903 56.9069 92.8416 56.9647 92.8488 57.0276L94.7612 61.857C95.36 63.4075 95.8425 64.7227 96.2087 65.8026C96.216 65.8656 96.2486 65.9829 96.3066 66.1548C96.3858 66.4007 96.4341 66.5991 96.4514 66.7501C96.4615 66.8382 96.4627 66.9592 96.4548 67.1131C96.4064 67.2462 96.3255 67.3192 96.2123 67.3322L96.0046 67.3561C95.841 67.3748 95.7145 67.383 95.6249 67.3805L95.2097 67.4282L94.8133 67.4737L94.4924 67.5106C94.4043 67.5207 94.3532 67.5202 94.3392 67.509L93.301 67.6283L93.2778 67.5927C93.2497 67.5704 93.2106 67.5621 93.1602 67.5679L93.1079 67.6122C93.1108 67.6373 93.0997 67.6514 93.0745 67.6543L93.0179 67.6608L92.8857 67.6759C92.8199 67.658 92.7052 67.6584 92.5416 67.6772C92.2367 67.6867 91.9836 67.703 91.7823 67.7261C91.6106 67.4526 91.3741 66.8359 91.0726 65.876C90.8127 65.9441 90.5128 65.9977 90.173 66.0367L89.6823 66.093L89.2104 66.1472C89.1817 66.3418 89.1683 66.5027 89.1702 66.63C89.1648 66.6943 89.139 66.914 89.0929 67.2891C89.0467 67.6641 88.9931 67.9189 88.932 68.0534L88.8231 68.1042C88.7868 68.1211 88.7568 68.1373 88.733 68.1528C88.7079 68.1557 88.6953 68.1571 88.6953 68.1571L88.6575 68.1614C88.582 68.1701 88.5302 68.1633 88.5022 68.141C88.449 68.1216 88.4161 68.1127 88.4035 68.1141L87.6905 68.2342L87.162 68.2949C87.1005 68.3147 87.0516 68.3331 87.0153 68.35C86.9776 68.3543 86.9524 68.3572 86.9398 68.3587L85.4297 68.5321L85.2787 68.5494C85.1669 68.575 84.9348 68.608 84.5825 68.6485L84.1295 68.7005C84.0554 68.7218 83.9366 68.7418 83.773 68.7606L83.5465 68.7866ZM90.6708 63.8758C90.5462 63.4566 90.4732 63.21 90.452 63.1359L90.1969 62.2472C90.1515 62.0739 90.1083 61.9195 90.0672 61.784C90.0247 61.6359 89.9899 61.4996 89.9629 61.3752C89.9078 61.2286 89.8605 61.0937 89.8208 60.9708C89.7924 60.8338 89.759 60.7101 89.7209 60.5998C89.6996 60.5257 89.6762 60.4328 89.6506 60.321C89.6236 60.1966 89.5946 60.1107 89.5636 60.0632L89.4999 59.841C89.4941 59.7907 89.4765 59.7481 89.447 59.7132L89.4151 59.6022C89.3986 59.6805 89.3903 59.7197 89.3903 59.7197L89.399 59.7952L89.4055 59.8519C89.4069 59.8645 89.4035 59.8903 89.3953 59.9295C89.3856 59.9562 89.3788 60.0079 89.3749 60.0849C89.3695 60.1493 89.3663 60.2325 89.3653 60.3346C89.3628 60.4241 89.3555 60.527 89.3434 60.6431L89.3001 61.4322L89.2488 62.3178L89.2398 62.7396C89.2262 62.8432 89.2198 63.0097 89.2207 63.2391C89.1725 63.8184 89.1517 64.0821 89.1585 64.0303L89.9891 63.935C90.0002 63.9209 90.0177 63.9062 90.0414 63.8907C90.0637 63.8626 90.0811 63.8479 90.0937 63.8464L90.1503 63.8399C90.2132 63.8327 90.2643 63.8332 90.3035 63.8415C90.3553 63.8483 90.4007 63.8558 90.4399 63.8641C90.5183 63.8806 90.5953 63.8845 90.6708 63.8758ZM107.345 66.2452C106.729 65.7677 106.194 65.2744 105.74 64.7655C105.422 64.4324 104.919 63.8335 104.234 62.9687L103.854 62.4959C103.84 62.4848 103.827 62.4799 103.814 62.4814C103.813 62.4688 103.812 62.4625 103.812 62.4625L103.718 62.4733L103.647 62.5197C103.653 62.6848 103.697 63.1259 103.779 63.8432C103.833 64.3088 103.871 64.8591 103.892 65.4941L103.939 66.0626C103.904 66.2068 103.881 66.2796 103.868 66.281L103.736 66.2962L103.679 66.3027C102.307 66.5623 101.306 66.7282 100.676 66.8005L100.393 66.833L100.035 66.8742C99.8963 66.8901 99.7949 66.8954 99.7305 66.89L99.5984 66.9052L98.9915 66.7836L98.9386 66.6558C98.9134 66.6587 98.8917 66.6357 98.8733 66.5868C98.8675 66.5365 98.8632 66.4987 98.8603 66.4735C98.7619 65.9493 98.6863 65.5691 98.6337 65.3329C98.5054 64.6592 98.4168 64.1657 98.3681 63.8526C98.3083 63.5535 98.2733 63.3598 98.2632 63.2718L98.0496 62.2444L97.9657 61.6803C97.9401 61.5685 97.9157 61.4119 97.8926 61.2106L97.8731 61.0407C97.8911 60.9749 97.8921 60.8728 97.8762 60.7343L97.8393 60.4134C97.8461 60.3617 97.8459 60.3043 97.8387 60.2414L97.8025 60.0926L97.7808 59.9038C97.7707 59.8157 97.7502 59.7479 97.7192 59.7005L97.7062 59.5872L97.6709 59.1132C97.6734 59.0236 97.6645 58.8908 97.6443 58.7146C97.6261 58.3342 97.5975 57.9741 97.5585 57.6343L97.5368 57.4456C97.5199 57.4093 97.5042 57.3282 97.4898 57.2024L97.4594 56.9381L97.4377 56.7493C97.3956 56.7159 97.3724 56.6803 97.3681 56.6426C97.3479 56.4664 97.4907 56.3225 97.7967 56.2109C97.9545 56.1418 98.1844 56.0899 98.4864 56.0552C101.431 55.7171 103.645 55.5649 105.128 55.5986C106.585 55.6352 107.632 55.8657 108.267 56.29C108.546 56.5002 108.755 56.7631 108.893 57.0787C109.042 57.3803 109.142 57.7513 109.193 58.1918C109.274 58.8965 109.141 59.511 108.793 60.0355C108.559 60.3301 108.276 60.5857 107.944 60.8023C108.041 60.9824 108.304 61.3347 108.734 61.859C108.82 61.9384 108.9 62.0249 108.975 62.1183C109.062 62.2103 109.162 62.3072 109.276 62.4089C109.552 62.7086 109.87 63.0355 110.23 63.3894C110.248 63.4383 110.311 63.5395 110.418 63.693C110.483 63.7109 110.518 63.7388 110.523 63.7765C110.538 63.8003 110.536 63.8387 110.517 63.892C110.434 64.0545 110.163 64.3087 109.706 64.6545C109.65 64.7246 109.582 64.7962 109.501 64.8693C109.272 65.0995 108.95 65.3469 108.534 65.6114C108.156 65.8715 107.827 66.0623 107.548 66.1836C107.442 66.2595 107.374 66.2801 107.345 66.2452ZM103.146 59.9953C103.31 59.9765 103.526 59.9198 103.796 59.8251C104.052 59.7192 104.232 59.6221 104.336 59.5336C104.512 59.3986 104.661 59.254 104.784 59.0997C104.903 58.9202 104.951 58.7235 104.926 58.5096C104.886 58.1572 104.746 57.8863 104.508 57.697C104.302 57.5677 104.06 57.5189 103.784 57.5507L102.972 57.6439C102.991 57.8075 103.008 58.0669 103.023 58.4221L103.05 58.8207C103.053 59.0753 103.086 59.4668 103.146 59.9953ZM118.256 64.8392L117.388 64.9389L116.407 65.0517L115.161 65.1947C115.027 65.0315 114.915 64.7193 114.824 64.258C114.726 63.8485 114.631 63.2474 114.54 62.4546L114.321 60.3761C114.275 59.8713 114.19 59.0715 114.064 57.9767L114.001 57.9266L112.132 58.1411C111.856 58.1729 111.637 57.8793 111.477 57.2602C111.387 56.9262 111.305 56.432 111.23 55.7777L111.202 55.5323C111.217 55.4413 111.213 55.3014 111.192 55.1127L111.148 54.7351L111.15 54.582L111.217 54.4978L111.559 54.4777L111.936 54.4343C112.49 54.3707 112.911 54.316 113.199 54.2702L114.426 54.1293L114.766 54.0903L115.407 54.0166L116.219 53.9234L117.031 53.8302C117.196 53.824 117.429 53.8036 117.731 53.7689L118.203 53.7147C118.251 53.6838 118.331 53.6618 118.444 53.6488C118.529 53.6135 118.61 53.5915 118.685 53.5829C118.924 53.5554 119.108 53.547 119.237 53.5578C119.492 53.554 119.682 53.5449 119.808 53.5305L120.296 53.4553L121.032 53.3707C121.41 53.3274 121.669 53.304 121.808 53.3007L122.075 53.2893C122.089 53.3004 122.11 53.3171 122.138 53.3394C122.165 53.3491 122.179 53.3602 122.18 53.3728L122.549 56.5817C122.557 56.6572 122.523 56.7441 122.445 56.8423C122.379 56.939 122.31 57.0043 122.238 57.0382C121.812 56.9978 121.266 57.0159 120.599 57.0924L119.882 57.1748C119.693 57.1965 119.595 57.45 119.587 57.9354C119.577 58.0768 119.588 58.2795 119.618 58.5438L119.683 59.1101C119.712 59.3618 119.74 59.5498 119.767 59.6742L119.828 60.2027C119.887 60.7187 119.917 61.1998 119.917 61.646C119.929 61.976 119.944 62.2166 119.962 62.3676C119.954 62.5215 119.965 62.7306 119.995 62.9948C120.039 63.3724 120.062 63.6884 120.066 63.943C120.098 64.3345 119.977 64.5588 119.703 64.6157C119.406 64.6882 119.232 64.7273 119.181 64.733L118.256 64.8392ZM136.09 62.7341C134.794 62.8829 133.85 62.985 133.257 63.0403C132.716 63.1025 132.3 63.1439 132.009 63.1645L130.459 63.3234C130.345 63.3364 130.233 63.2983 130.121 63.2092C130.008 63.1201 129.946 63.0189 129.933 62.9057L129.456 58.7529L129.248 56.9409L129.051 55.3952C128.992 54.8793 128.93 54.2297 128.866 53.4466C128.847 53.283 128.817 52.8593 128.777 52.1754L128.727 51.7413C128.687 51.3889 128.723 51.0979 128.837 50.868C128.887 50.7476 128.981 50.6794 129.12 50.6635C129.736 50.5927 130.411 50.5279 131.144 50.4693C131.246 50.4703 131.391 50.46 131.58 50.4383C131.995 50.3906 132.305 50.3615 132.507 50.351L133.527 50.234C133.577 50.2282 133.722 50.2116 133.961 50.1841C134.212 50.1552 134.411 50.1643 134.557 50.2113C134.798 50.3111 134.944 50.5876 134.996 51.0406L134.995 51.1938C134.999 51.2315 134.997 51.3273 134.989 51.4812C134.973 51.6743 134.97 51.8149 134.98 51.903C134.996 52.0414 135.035 52.2154 135.098 52.425C135.14 52.5731 135.164 52.6724 135.17 52.7227L135.202 52.8338L135.506 55.4764L135.646 56.7034L135.781 57.8737L135.807 58.1002C135.818 58.2009 135.882 58.2573 135.998 58.2694C136.038 58.2777 136.12 58.2746 136.246 58.2601L137.624 58.1019C137.962 58.0503 138.477 57.9848 139.17 57.9053C139.308 57.8894 139.426 57.9205 139.524 57.9984C139.621 58.0638 139.675 58.1406 139.685 58.2287L140.099 61.834L140.103 61.8717C140.115 61.9724 140.074 62.06 139.98 62.1344C139.873 62.1978 139.744 62.2444 139.595 62.2743C139.435 62.3309 139.18 62.3794 138.827 62.4198L136.09 62.7341ZM142.462 61.926C142.437 61.9289 142.415 61.9059 142.396 61.857C142.295 61.7539 142.216 61.6227 142.16 61.4634C142.115 61.4048 142.074 61.3266 142.037 61.2289C141.898 61.0154 141.78 60.7102 141.684 60.3132C141.567 59.7402 141.489 59.2837 141.45 58.944C141.42 58.7944 141.39 58.5875 141.36 58.3232L141.307 57.8702C141.264 57.4927 141.224 57.1977 141.187 56.9852C141.148 56.7601 141.091 56.3141 141.014 55.6472C140.809 53.8603 140.688 52.478 140.653 51.5003C140.635 51.3493 140.836 51.2115 141.255 51.0869L141.822 51.0219L142.294 50.9677C143.011 50.8853 143.547 50.8365 143.902 50.8212C144.435 50.7982 144.972 50.7557 145.513 50.6936C145.639 50.6791 145.733 50.662 145.794 50.6422L146.077 50.6097L146.18 50.6743C146.586 50.5386 147.007 50.4328 147.444 50.3571C147.882 50.2813 148.415 50.2073 149.045 50.1351C149.07 50.1322 149.103 50.1475 149.146 50.1809L149.75 50.1115C149.85 50.1 149.932 50.1479 149.996 50.2554C150.071 50.3614 150.141 50.5192 150.203 50.7288C150.272 50.8867 150.333 51.0837 150.386 51.3199C150.472 51.6287 150.54 51.8313 150.589 51.9276C150.63 52.28 150.587 52.4634 150.461 52.4778C150.449 52.4792 150.427 52.4625 150.398 52.4277L150.32 52.4175C150.256 52.4121 150.187 52.4264 150.115 52.4602C150.044 52.5066 149.964 52.5349 149.876 52.545C149.8 52.5537 149.735 52.542 149.681 52.51C149.654 52.5003 149.597 52.5006 149.509 52.5107C149.395 52.5237 149.265 52.5577 149.119 52.6128C149.07 52.6312 148.971 52.6616 148.823 52.7041C148.688 52.7452 148.526 52.7766 148.337 52.7982C147.796 52.8604 147.407 52.9177 147.171 52.9704C147.034 52.9988 146.906 53.0518 146.787 53.1291L146.783 53.0914C146.733 53.0972 146.696 53.1651 146.673 53.2953C146.609 53.5194 146.586 53.8216 146.605 54.202C146.605 54.3167 146.613 54.4433 146.629 54.5817C146.645 54.7201 146.675 54.8123 146.718 54.8583C146.774 54.9029 146.853 54.9194 146.953 54.9078C147.029 54.8991 147.089 54.8667 147.134 54.8106C147.159 54.8077 147.191 54.8104 147.23 54.8187C147.269 54.8269 147.303 54.8422 147.331 54.8645L148.935 54.6802C148.945 54.6536 148.962 54.6326 148.986 54.6171C149.009 54.6016 149.034 54.5924 149.059 54.5896C149.185 54.5751 149.281 54.5831 149.348 54.6137C149.428 54.6428 149.584 54.6632 149.815 54.6749C149.94 54.6605 150.033 54.6881 150.092 54.7578C150.165 54.8387 150.206 54.9169 150.214 54.9924L150.754 56.1927C150.815 56.3897 150.641 56.5435 150.233 56.6541C150 56.7319 149.543 56.8098 148.864 56.8878L148.052 56.981L147.486 57.046C147.31 57.0663 147.179 57.094 147.094 57.1293C147.007 57.152 146.956 57.2025 146.939 57.2809C146.896 57.3496 146.882 57.4532 146.898 57.5916L146.907 57.6671C146.914 57.73 146.925 57.7734 146.941 57.7971L146.97 58.2145C146.967 58.3041 146.976 58.4369 146.996 58.6131L147.018 58.8019L147.038 58.9717L147.051 59.085C147.617 59.02 148.194 58.9346 148.781 58.829C149.355 58.7247 149.926 58.6401 150.492 58.5751C150.53 58.5708 150.565 58.5986 150.597 58.6586C150.628 58.7061 150.648 58.7676 150.657 58.8431C150.69 58.9157 150.712 58.996 150.722 59.0841C150.769 59.27 150.827 59.4418 150.896 59.5996L151.091 60.1319L151.135 60.5094L151.141 60.566L151.159 60.717L151.023 60.8665L150.891 60.8817L150.834 60.8882C150.696 60.9041 150.607 60.9079 150.568 60.8996C150.527 60.8788 150.481 60.8713 150.431 60.8771C150.407 60.8925 150.372 60.9157 150.324 60.9467C150.277 60.9776 150.236 61.0079 150.201 61.0374L150.19 60.943L149.966 60.9879L149.683 61.0204C149.632 61.0262 149.593 61.0179 149.565 60.9956L149.412 60.9941C148.946 61.0476 148.624 61.1292 148.445 61.2389L142.462 61.926ZM153.889 60.7095C153.65 60.737 153.531 60.5339 153.532 60.1002C153.515 59.9492 153.527 59.7757 153.568 59.5797C153.558 59.4917 153.556 59.4217 153.563 59.3699C153.568 59.3056 153.569 59.2545 153.565 59.2168C153.696 57.8119 153.862 56.4223 154.061 55.0479L154.768 49.8795C154.765 49.8543 154.781 49.8207 154.814 49.7786C154.847 49.7365 154.882 49.7007 154.916 49.6712L155.049 49.6561C155.2 49.6387 155.317 49.6061 155.401 49.5583C155.475 49.537 155.606 49.5155 155.795 49.4939C156.097 49.4592 156.324 49.4395 156.477 49.4347C156.708 49.4465 156.942 49.4386 157.182 49.4111L158.161 49.2796C158.259 49.2428 158.377 49.2165 158.515 49.2006L159.341 49.0675L159.964 48.996C160.203 48.9685 160.437 48.9481 160.665 48.9347L161.194 48.874C161.321 48.8721 161.504 48.8575 161.743 48.83L162.46 48.7476C162.498 48.7433 162.537 48.7453 162.576 48.7535C162.615 48.7618 162.648 48.7707 162.675 48.7804C162.728 48.7998 162.792 48.8052 162.868 48.7965L163.037 48.777C163.133 48.8298 163.184 48.8877 163.191 48.9506L165.104 53.78C165.702 55.3304 166.185 56.6456 166.551 57.7256C166.558 57.7885 166.591 57.9059 166.649 58.0777C166.728 58.3236 166.777 58.5221 166.794 58.6731C166.804 58.7612 166.805 58.8822 166.797 59.0361C166.749 59.1691 166.668 59.2422 166.555 59.2552L166.347 59.279C166.184 59.2978 166.057 59.3059 165.967 59.3035L165.552 59.3512L165.156 59.3967L164.835 59.4335C164.747 59.4436 164.696 59.4431 164.682 59.432L163.644 59.5512L163.62 59.5156C163.592 59.4933 163.553 59.4851 163.503 59.4909L163.45 59.5351C163.453 59.5603 163.442 59.5743 163.417 59.5772L163.36 59.5837L163.228 59.5989C163.162 59.5809 163.048 59.5814 162.884 59.6001C162.579 59.6097 162.326 59.626 162.125 59.6491C161.953 59.3755 161.717 58.7588 161.415 57.799C161.155 57.8671 160.855 57.9206 160.516 57.9596L160.025 58.016L159.553 58.0702C159.524 58.2647 159.511 58.4256 159.513 58.5529C159.507 58.6173 159.482 58.837 159.435 59.212C159.389 59.5871 159.336 59.8419 159.274 59.9764L159.166 60.0271C159.129 60.044 159.099 60.0602 159.076 60.0757C159.05 60.0786 159.038 60.08 159.038 60.08L159 60.0844C158.925 60.0931 158.873 60.0862 158.845 60.064C158.791 60.0446 158.759 60.0356 158.746 60.0371L158.033 60.1572L157.504 60.2179C157.443 60.2377 157.394 60.256 157.358 60.2729C157.32 60.2773 157.295 60.2802 157.282 60.2816L155.772 60.455L155.621 60.4724C155.509 60.4979 155.277 60.531 154.925 60.5714L154.472 60.6234C154.398 60.6447 154.279 60.6647 154.115 60.6835L153.889 60.7095ZM161.013 55.7987C160.889 55.3796 160.816 55.1329 160.794 55.0589L160.539 54.1702C160.494 53.9969 160.451 53.8425 160.41 53.7069C160.367 53.5588 160.332 53.4226 160.305 53.2982C160.25 53.1515 160.203 53.0167 160.163 52.8937C160.135 52.7568 160.102 52.6331 160.063 52.5227C160.042 52.4487 160.019 52.3557 159.993 52.2439C159.966 52.1195 159.937 52.0336 159.906 51.9862L159.842 51.764C159.837 51.7136 159.819 51.671 159.789 51.6362L159.758 51.5251C159.741 51.6035 159.733 51.6427 159.733 51.6427L159.741 51.7182L159.748 51.7748C159.749 51.7874 159.746 51.8133 159.738 51.8525C159.728 51.8791 159.721 51.9309 159.717 52.0078C159.712 52.0722 159.709 52.1554 159.708 52.2575C159.705 52.3471 159.698 52.4499 159.686 52.5661L159.643 53.3552L159.591 54.2408L159.582 54.6626C159.569 54.7661 159.562 54.9326 159.563 55.162C159.515 55.7413 159.494 56.005 159.501 55.9533L160.332 55.8579C160.343 55.8439 160.36 55.8291 160.384 55.8136C160.406 55.7856 160.424 55.7708 160.436 55.7694L160.493 55.7629C160.556 55.7557 160.607 55.7562 160.646 55.7644C160.698 55.7712 160.743 55.7788 160.782 55.787C160.861 55.8035 160.938 55.8074 161.013 55.7987ZM177.687 58.1681C177.071 57.6906 176.537 57.1974 176.083 56.6885C175.764 56.3553 175.262 55.7564 174.576 54.8916L174.197 54.4188C174.183 54.4077 174.169 54.4029 174.157 54.4043C174.155 54.3917 174.155 54.3854 174.155 54.3854L174.06 54.3963L173.989 54.4427C173.995 54.6077 174.039 55.0489 174.122 55.7662C174.175 56.2318 174.213 56.7821 174.235 57.417L174.281 57.9855C174.247 58.1297 174.223 58.2025 174.211 58.204L174.078 58.2191L174.022 58.2256C172.649 58.4853 171.648 58.6512 171.019 58.7234L170.736 58.7559L170.377 58.7971C170.239 58.813 170.137 58.8183 170.073 58.8129L169.941 58.8281L169.334 58.7065L169.281 58.5787C169.256 58.5816 169.234 58.5586 169.216 58.5097C169.21 58.4594 169.206 58.4216 169.203 58.3965C169.104 57.8723 169.029 57.4921 168.976 57.2559C168.848 56.5821 168.759 56.0887 168.711 55.7755C168.651 55.4764 168.616 55.2828 168.606 55.1947L168.392 54.1674L168.308 53.6032C168.283 53.4914 168.258 53.3349 168.235 53.1335L168.216 52.9636C168.234 52.8978 168.235 52.7957 168.219 52.6573L168.182 52.3364C168.189 52.2846 168.188 52.2273 168.181 52.1643L168.145 52.0155L168.123 51.8267C168.113 51.7386 168.093 51.6709 168.062 51.6234L168.049 51.5102L168.013 51.0361C168.016 50.9466 168.007 50.8137 167.987 50.6375C167.969 50.2571 167.94 49.8971 167.901 49.5573L167.879 49.3685C167.862 49.3322 167.847 49.2511 167.832 49.1253L167.802 48.861L167.78 48.6723C167.738 48.6389 167.715 48.6033 167.711 48.5655C167.69 48.3894 167.833 48.2455 168.139 48.1338C168.297 48.0647 168.527 48.0128 168.829 47.9781C171.774 47.64 173.987 47.4878 175.47 47.5215C176.928 47.5582 177.974 47.7886 178.61 48.2129C178.889 48.4231 179.097 48.686 179.236 49.0017C179.385 49.3033 179.485 49.6743 179.536 50.1147C179.616 50.8194 179.483 51.434 179.135 51.9584C178.901 52.253 178.618 52.5086 178.286 52.7253C178.383 52.9054 178.647 53.2576 179.077 53.782C179.162 53.8614 179.243 53.9478 179.317 54.0413C179.404 54.1333 179.504 54.2301 179.618 54.3318C179.895 54.6315 180.213 54.9584 180.572 55.3124C180.591 55.3613 180.653 55.4625 180.76 55.6159C180.826 55.6339 180.861 55.6617 180.865 55.6995C180.881 55.7232 180.879 55.7617 180.859 55.8149C180.776 55.9775 180.506 56.2316 180.048 56.5774C179.992 56.6476 179.924 56.7192 179.843 56.7922C179.615 57.0224 179.292 57.2698 178.877 57.5343C178.498 57.7945 178.17 57.9852 177.89 58.1065C177.784 58.1825 177.717 58.203 177.687 58.1681ZM173.489 51.9183C173.652 51.8995 173.869 51.8427 174.139 51.748C174.394 51.6422 174.574 51.545 174.679 51.4565C174.855 51.3216 175.004 51.1769 175.126 51.0226C175.246 50.8431 175.293 50.6464 175.269 50.4325C175.228 50.0801 175.089 49.8093 174.85 49.6199C174.644 49.4906 174.403 49.4418 174.126 49.4736L173.314 49.5668C173.333 49.7304 173.35 49.9898 173.366 50.3451L173.392 50.7436C173.396 50.9982 173.428 51.3897 173.489 51.9183ZM184.824 57.1957L184.522 57.2304L184.239 57.2629L184.088 57.2802L183.328 57.1571L183.277 57.0482C183.264 57.0496 183.251 56.9874 183.236 56.8616C183.218 56.698 183.196 56.5666 183.172 56.4674L183.071 55.7522C183.041 55.6027 183.007 55.3643 182.969 55.0371C182.933 54.7225 182.9 54.4904 182.87 54.3409L182.805 53.7746C182.639 52.9905 182.507 52.1768 182.41 51.3337L182.393 51.1827L182.36 50.8996C182.343 50.7486 182.337 50.6409 182.343 50.5765L182.325 50.4255L182.31 50.2934C182.293 50.2571 182.28 50.1949 182.269 50.1068L182.246 49.8991L182.233 49.7859L182.211 49.5971L182.176 49.2951C182.159 49.1441 182.153 49.0364 182.158 48.9721L182.137 48.7833L182.145 48.6868L182.116 48.4414C182.115 48.3141 182.101 48.1435 182.077 47.9295C182.058 47.766 182.035 47.622 182.008 47.4976L181.939 47.0656L181.912 46.9922C181.871 46.9714 181.869 46.9525 181.905 46.9356C181.933 46.7285 182.073 46.5657 182.327 46.4473C182.447 46.3825 182.652 46.3335 182.942 46.3003C183.156 46.2757 183.713 46.1925 184.615 46.0507C185.065 45.9735 185.347 45.9284 185.46 45.9154C185.647 45.8812 185.873 45.8489 186.138 45.8185C186.265 45.8167 186.356 45.8317 186.41 45.8637C186.464 45.8831 186.513 45.9284 186.56 45.9995C186.619 46.0693 186.663 46.1216 186.693 46.1564L187.133 46.6605C187.119 46.6493 187.302 46.8578 187.683 47.2858C188.041 47.7419 188.47 48.2537 188.969 48.8212C189.043 48.9146 189.132 49.0192 189.234 49.135C189.337 49.2507 189.448 49.3846 189.567 49.5366L189.491 48.8759C189.484 48.6983 189.461 48.4459 189.423 48.1187C189.374 47.6909 189.332 47.2112 189.296 46.6798C189.285 46.5791 189.281 46.4903 189.285 46.4134C189.287 46.3238 189.286 46.2539 189.28 46.2036C189.266 46.0777 189.265 46.0141 189.277 46.0127C189.319 45.9314 189.398 45.8395 189.513 45.7369C189.653 45.6189 189.805 45.5568 189.97 45.5506L190.914 45.4422L191.103 45.4206C191.291 45.3989 191.449 45.3871 191.577 45.3852L192.143 45.3202C192.27 45.3184 192.46 45.303 192.711 45.2741L193.127 45.2264L193.315 45.2047C193.567 45.1758 193.761 45.1982 193.897 45.2718C193.978 45.3135 194.036 45.3769 194.072 45.4621C194.105 45.5347 194.132 45.6528 194.151 45.8164C194.169 45.98 194.179 46.1192 194.179 46.2339C194.181 46.3612 194.192 46.5129 194.213 46.6891L194.228 46.8212C194.245 46.8575 194.257 46.9134 194.266 46.9889L194.322 47.4797L194.553 49.6526L194.798 51.7856L194.856 52.2952C195.012 53.6543 195.099 54.5177 195.115 54.8856L195.13 55.515C195.101 55.8116 195.03 55.9728 194.918 55.9983C194.893 56.0012 194.856 56.0119 194.807 56.0302C194.771 56.0471 194.727 56.0585 194.677 56.0643C194.224 56.1163 193.889 56.142 193.672 56.1414L192.691 56.2541L191.709 56.3668L191.464 56.395C191.427 56.4119 191.378 56.424 191.315 56.4312C191.164 56.4485 191.003 56.4351 190.832 56.391C190.729 56.3774 190.614 56.3205 190.487 56.2202L188.558 54.0703C188.485 53.9895 188.348 53.8585 188.149 53.6774L187.878 53.479C187.808 53.4233 187.754 53.3977 187.716 53.402C187.678 53.4063 187.649 53.4288 187.628 53.4695C187.606 53.4975 187.596 53.5241 187.599 53.5493L187.636 53.8702C187.635 53.9723 187.647 54.1303 187.671 54.3443L187.734 54.8917C187.737 55.0315 187.753 55.221 187.78 55.4601L187.832 55.9131L187.865 56.1963C187.855 56.2229 187.853 56.2614 187.859 56.3117C187.86 56.3243 187.853 56.4271 187.837 56.6202C187.817 56.6734 187.802 56.7071 187.791 56.7211C187.78 56.7351 187.737 56.7465 187.661 56.7551C187.634 56.7454 187.609 56.742 187.583 56.7449C187.571 56.7464 187.558 56.7478 187.546 56.7493C186.562 56.9515 185.742 57.0902 185.088 57.1653L184.824 57.1957ZM198.242 55.8462C198.015 55.8722 197.844 55.6623 197.729 55.2165C197.67 55.0321 197.632 54.8644 197.614 54.7134C197.591 54.512 197.57 54.3869 197.552 54.338C197.498 53.9745 197.4 53.3993 197.258 52.6123L197.119 51.9015C196.917 50.8028 196.785 49.9892 196.724 49.4606L196.198 44.8738C196.186 44.7731 196.291 44.6846 196.511 44.6082C196.633 44.556 196.807 44.5169 197.033 44.4909C197.184 44.4736 197.349 44.4674 197.529 44.4723C197.706 44.4647 197.839 44.4558 197.927 44.4457C198.119 44.4492 198.416 44.4278 198.819 44.3816L198.888 44.3163L199.718 44.2209C199.76 44.2543 199.806 44.2681 199.857 44.2624L199.932 44.2537C199.943 44.2397 199.974 44.2298 200.024 44.224C200.048 44.2085 200.085 44.1979 200.136 44.1921C200.147 44.1781 200.159 44.1703 200.171 44.1689C200.184 44.1674 200.19 44.1667 200.19 44.1667C200.228 44.1624 200.273 44.1699 200.326 44.1893C200.378 44.1961 200.417 44.1981 200.442 44.1952L201.839 44.0348L202.268 47.2749C202.27 47.2875 202.262 47.333 202.246 47.4114C202.24 47.4758 202.238 47.5653 202.238 47.68C202.252 48.1374 202.275 48.4982 202.305 48.7624L202.728 52.4433L202.753 53.167C202.752 53.486 202.769 53.7454 202.805 53.9453C202.835 54.2096 202.847 54.4249 202.841 54.5914C202.845 54.7439 202.821 54.8677 202.768 54.9631C202.703 55.0598 202.589 55.1176 202.425 55.1364L202.404 55.1197L202.345 55.1073C202.32 55.1102 202.308 55.1179 202.31 55.1305L202.215 55.1413C202.143 55.1752 202.101 55.1991 202.09 55.2131C202.027 55.2204 201.88 55.2181 201.649 55.2064L201.382 55.2178C201.32 55.2251 201.285 55.2546 201.278 55.3063L199.862 55.4689L199.598 55.4992L199.118 55.65L198.671 55.7586L198.242 55.8462ZM206.981 54.6515L206.679 54.6862L206.396 54.7187L206.245 54.736L205.485 54.6129L205.434 54.504C205.421 54.5054 205.408 54.4432 205.393 54.3174C205.375 54.1538 205.353 54.0224 205.329 53.9232L205.228 53.208C205.198 53.0585 205.164 52.8201 205.127 52.4929C205.09 52.1783 205.057 51.9462 205.028 51.7967L204.962 51.2304C204.796 50.4463 204.664 49.6327 204.567 48.7895L204.55 48.6385L204.518 48.3554C204.5 48.2044 204.494 48.0967 204.5 48.0323L204.482 47.8813L204.467 47.7492C204.45 47.7129 204.437 47.6507 204.427 47.5626L204.403 47.355L204.39 47.2417L204.368 47.0529L204.333 46.7509C204.316 46.5999 204.31 46.4922 204.315 46.4279L204.294 46.2391L204.302 46.1426L204.274 45.8972C204.272 45.7699 204.259 45.5993 204.234 45.3854C204.215 45.2218 204.192 45.0778 204.165 44.9534L204.097 44.5214L204.069 44.4481C204.028 44.4272 204.026 44.4084 204.062 44.3914C204.09 44.1843 204.23 44.0215 204.485 43.9031C204.605 43.8383 204.809 43.7893 205.099 43.7561C205.313 43.7315 205.87 43.6483 206.772 43.5065C207.222 43.4294 207.504 43.3843 207.617 43.3713C207.805 43.337 208.03 43.3047 208.295 43.2744C208.422 43.2725 208.513 43.2875 208.568 43.3195C208.621 43.3389 208.671 43.3842 208.717 43.4553C208.776 43.5251 208.82 43.5774 208.85 43.6122L209.29 44.1163C209.276 44.1051 209.459 44.3136 209.84 44.7416C210.198 45.1977 210.627 45.7095 211.126 46.277C211.2 46.3705 211.289 46.475 211.391 46.5908C211.494 46.7065 211.605 46.8404 211.724 46.9924L211.648 46.3317C211.641 46.1541 211.618 45.9017 211.581 45.5745C211.531 45.1467 211.489 44.667 211.454 44.1356C211.442 44.035 211.438 43.9461 211.442 43.8692C211.445 43.7797 211.443 43.7097 211.437 43.6594C211.423 43.5336 211.422 43.4699 211.434 43.4685C211.476 43.3872 211.555 43.2953 211.67 43.1927C211.81 43.0747 211.962 43.0126 212.127 43.0064L213.071 42.898L213.26 42.8764C213.448 42.8547 213.606 42.8429 213.734 42.8411L214.3 42.776C214.427 42.7742 214.617 42.7588 214.868 42.7299L215.284 42.6822L215.472 42.6605C215.724 42.6316 215.918 42.654 216.054 42.7276C216.135 42.7693 216.194 42.8327 216.229 42.9179C216.263 42.9905 216.289 43.1087 216.308 43.2722C216.327 43.4358 216.336 43.575 216.337 43.6897C216.338 43.817 216.349 43.9687 216.37 44.1449L216.385 44.277C216.402 44.3133 216.415 44.3692 216.423 44.4447L216.48 44.9355L216.71 47.1084L216.955 49.2414L217.013 49.751C217.169 51.1101 217.256 51.9736 217.273 52.3414L217.287 52.9708C217.258 53.2674 217.187 53.4286 217.075 53.4542C217.05 53.457 217.013 53.4677 216.964 53.486C216.928 53.503 216.885 53.5143 216.834 53.5201C216.381 53.5721 216.046 53.5978 215.829 53.5972L214.848 53.7099L213.866 53.8226L213.621 53.8508C213.585 53.8677 213.535 53.8798 213.472 53.887C213.321 53.9044 213.16 53.891 212.989 53.8468C212.886 53.8332 212.771 53.7763 212.645 53.676L210.715 51.5261C210.642 51.4453 210.506 51.3143 210.306 51.1332L210.035 50.9348C209.965 50.8791 209.911 50.8535 209.873 50.8578C209.835 50.8621 209.806 50.8846 209.785 50.9253C209.763 50.9533 209.753 50.9799 209.756 51.0051L209.793 51.326C209.792 51.4281 209.804 51.5861 209.828 51.8001L209.891 52.3475C209.894 52.4873 209.91 52.6768 209.937 52.9159L209.989 53.3689L210.022 53.6521C210.012 53.6787 210.01 53.7172 210.016 53.7675C210.017 53.7801 210.01 53.8829 209.994 54.076C209.975 54.1292 209.959 54.1629 209.948 54.1769C209.937 54.1909 209.894 54.2023 209.818 54.2109C209.792 54.2013 209.766 54.1978 209.741 54.2007C209.728 54.2022 209.715 54.2036 209.703 54.2051C208.719 54.4073 207.9 54.546 207.245 54.6211L206.981 54.6515ZM224.366 53.0378C223.56 53.1303 222.789 53.0212 222.052 52.7106C221.201 52.4004 220.496 51.8693 219.938 51.1174C219.302 50.2469 218.908 49.1446 218.755 47.8107C218.649 46.8921 218.717 46.0428 218.959 45.2628C219.214 44.4813 219.613 43.7979 220.158 43.2126C220.692 42.6413 221.346 42.1773 222.121 41.8206C222.896 41.4638 223.756 41.2313 224.7 41.1229C226.046 40.9683 227.528 41.1615 229.146 41.7025L228.804 44.5531C228.571 44.5288 228.357 44.496 228.161 44.4548C227.655 44.3727 227.196 44.3233 226.786 44.3066C226.504 44.2881 226.287 44.2875 226.136 44.3048C225.482 44.38 224.993 44.621 224.67 45.0278C224.294 45.53 224.163 46.2781 224.277 47.2722C224.374 48.1154 224.581 48.7483 224.897 49.1709C225.189 49.4944 225.543 49.6323 225.958 49.5846C226.298 49.5456 226.617 49.4388 226.916 49.2643C226.889 49.1399 226.859 48.9966 226.828 48.8344C226.795 48.6597 226.766 48.4591 226.74 48.2326C226.638 47.7853 226.55 47.4702 226.478 47.2872L226.394 46.5511C226.384 46.463 226.416 46.4146 226.492 46.4059L226.586 46.3951C226.624 46.3908 226.661 46.3801 226.697 46.3632C226.734 46.3463 226.771 46.3357 226.808 46.3313C226.931 46.2917 227.005 46.2705 227.031 46.2676C227.119 46.2575 227.24 46.2563 227.394 46.2642C227.444 46.2584 227.501 46.2582 227.566 46.2635C227.63 46.2689 227.694 46.2679 227.757 46.2607C227.801 46.2046 227.956 46.1614 228.22 46.131C228.421 46.1079 228.578 46.0836 228.69 46.058C228.762 46.0241 228.855 46.0007 228.968 45.9877L229.188 45.9051C229.303 45.9046 229.467 45.8922 229.681 45.8676C229.771 45.8701 229.891 45.8626 230.042 45.8453C230.08 45.841 230.112 45.8436 230.139 45.8533C230.164 45.8504 230.183 45.8483 230.195 45.8468L230.611 45.7991L230.69 45.8282L230.751 46.3568C230.771 46.4182 230.788 46.5119 230.802 46.6377L230.833 46.902L230.889 47.3928L231.08 49.0538L231.089 49.1294C231.08 49.1685 231.08 49.2196 231.087 49.2825C231.08 49.3343 231.08 49.3917 231.088 49.4546L231.099 49.549C231.175 50.2159 231.217 50.6893 231.223 50.969C231.246 51.3872 231.234 51.6753 231.189 51.8336C230.924 51.8639 230.718 51.9004 230.57 51.9429L230.193 51.9862L230.155 51.9905L229.985 52.01L229.962 51.9745L229.891 52.0209L228.248 52.2095L228.173 52.2181L228.003 52.2376L227.814 52.2593C227.791 52.2748 227.747 52.2861 227.684 52.2934C227.596 52.3035 227.519 52.1849 227.452 51.9375C227.357 51.6679 227.288 51.3443 227.245 50.9668C227.183 51.5349 226.886 52.0025 226.354 52.3696C225.834 52.7226 225.171 52.9453 224.366 53.0378Z" fill="white"/>
<path d="M143.371 33.4178L147.316 32.2235L149.436 36.5472L144.153 37.8425C141.891 37.5648 141.243 34.9235 143.371 33.4178Z" fill="#3A3A3A"/>
<circle cx="150.572" cy="33.771" r="4.91809" transform="rotate(-4.31415 150.572 33.771)" fill="#5B5B5B"/>
<circle cx="151.464" cy="33.7041" r="4.91809" transform="rotate(-4.31415 151.464 33.7041)" fill="#8B8B8B"/>
<path d="M154.981 32.99C155.092 34.4674 154.386 36.6219 152.909 36.7333C151.431 36.8448 152.863 34.6355 152.752 33.1582C152.64 31.6808 150.927 30.1573 152.404 30.0458C153.881 29.9344 154.869 31.5127 154.981 32.99Z" fill="#9A9A9A"/>
<path d="M184.595 215.829C184.914 224.58 136.985 231.888 128.073 225.446C125.214 223.38 124.689 221.752 126.027 219.053C128.257 214.556 141.234 216.982 154.82 215.342C167.628 213.796 178.743 207.097 183.264 212.467C184.261 213.65 184.553 214.669 184.595 215.829Z" fill="#173531"/>
</g>
</svg>
