<svg width="588" height="173" viewBox="0 0 588 173" fill="none" xmlns="http://www.w3.org/2000/svg">
<path d="M54.525 48.77C51.375 45.62 49.8 41.795 49.8 37.295C49.8 32.795 51.375 28.97 54.525 25.82C57.705 22.64 61.545 21.05 66.045 21.05C70.185 21.05 73.815 22.445 76.935 25.235C77.385 25.655 77.4 26.075 76.98 26.495L74.235 29.33C73.875 29.72 73.5 29.72 73.11 29.33C71.1 27.56 68.79 26.675 66.18 26.675C63.33 26.675 60.945 27.71 59.025 29.78C57.105 31.82 56.145 34.28 56.145 37.16C56.145 40.01 57.105 42.455 59.025 44.495C60.975 46.535 63.375 47.555 66.225 47.555C68.715 47.555 71.01 46.7 73.11 44.99C73.5 44.63 73.875 44.63 74.235 44.99L77.025 47.87C77.205 48.05 77.28 48.26 77.25 48.5C77.25 48.71 77.16 48.905 76.98 49.085C73.98 51.995 70.335 53.45 66.045 53.45C61.545 53.45 57.705 51.89 54.525 48.77ZM100.857 52.145V22.355C100.857 22.115 100.932 21.92 101.082 21.77C101.262 21.59 101.472 21.5 101.712 21.5H114.582C117.282 21.5 119.592 22.445 121.512 24.335C123.432 26.225 124.392 28.505 124.392 31.175C124.392 33.215 123.777 35.045 122.547 36.665C121.347 38.255 119.742 39.455 117.732 40.265L123.897 51.695C124.077 51.995 124.077 52.295 123.897 52.595C123.747 52.865 123.492 53 123.132 53H118.407C118.077 53 117.837 52.865 117.687 52.595L111.702 40.67H106.707V52.145C106.707 52.355 106.617 52.55 106.437 52.73C106.287 52.91 106.092 53 105.852 53H101.712C101.472 53 101.262 52.925 101.082 52.775C100.932 52.595 100.857 52.385 100.857 52.145ZM106.752 35.855H114.087C115.287 35.855 116.322 35.405 117.192 34.505C118.092 33.605 118.542 32.525 118.542 31.265C118.542 30.065 118.092 29.045 117.192 28.205C116.322 27.335 115.287 26.9 114.087 26.9H106.752V35.855ZM154.857 52.145V37.835L144.597 22.805C144.417 22.505 144.402 22.22 144.552 21.95C144.702 21.65 144.957 21.5 145.317 21.5H149.907C150.177 21.5 150.417 21.635 150.627 21.905L157.827 32.255L165.027 21.905C165.237 21.635 165.477 21.5 165.747 21.5H170.382C170.742 21.5 170.997 21.65 171.147 21.95C171.297 22.22 171.282 22.505 171.102 22.805L160.707 37.79V52.145C160.707 52.355 160.617 52.55 160.437 52.73C160.287 52.91 160.092 53 159.852 53H155.712C155.472 53 155.262 52.925 155.082 52.775C154.932 52.595 154.857 52.385 154.857 52.145ZM193.063 52.145V22.355C193.063 22.115 193.138 21.92 193.288 21.77C193.468 21.59 193.678 21.5 193.918 21.5H204.493C207.253 21.5 209.623 22.475 211.603 24.425C213.583 26.375 214.573 28.715 214.573 31.445C214.573 34.235 213.583 36.62 211.603 38.6C209.653 40.58 207.298 41.57 204.538 41.57H198.913V52.145C198.913 52.355 198.823 52.55 198.643 52.73C198.493 52.91 198.298 53 198.058 53H193.918C193.678 53 193.468 52.925 193.288 52.775C193.138 52.595 193.063 52.385 193.063 52.145ZM198.913 36.08H204.133C205.393 36.08 206.473 35.63 207.373 34.73C208.303 33.83 208.768 32.72 208.768 31.4C208.768 30.17 208.303 29.135 207.373 28.295C206.473 27.455 205.393 27.035 204.133 27.035H198.913V36.08ZM241.924 52.145V26.9H235.039C234.799 26.9 234.589 26.825 234.409 26.675C234.259 26.495 234.184 26.285 234.184 26.045V22.355C234.184 22.115 234.259 21.92 234.409 21.77C234.589 21.59 234.799 21.5 235.039 21.5H254.704C254.944 21.5 255.139 21.59 255.289 21.77C255.469 21.92 255.559 22.115 255.559 22.355V26.045C255.559 26.285 255.469 26.495 255.289 26.675C255.139 26.825 254.944 26.9 254.704 26.9H247.819V52.145C247.819 52.355 247.729 52.55 247.549 52.73C247.369 52.91 247.174 53 246.964 53H242.779C242.539 53 242.329 52.91 242.149 52.73C241.999 52.55 241.924 52.355 241.924 52.145ZM280.36 48.77C277.24 45.62 275.68 41.795 275.68 37.295C275.68 32.795 277.24 28.97 280.36 25.82C283.51 22.64 287.335 21.05 291.835 21.05C296.335 21.05 300.16 22.64 303.31 25.82C306.46 28.97 308.035 32.795 308.035 37.295C308.035 41.795 306.46 45.62 303.31 48.77C300.16 51.89 296.335 53.45 291.835 53.45C287.335 53.45 283.51 51.89 280.36 48.77ZM284.545 29.96C282.535 32 281.53 34.445 281.53 37.295C281.53 40.145 282.535 42.575 284.545 44.585C286.585 46.595 289.015 47.6 291.835 47.6C294.685 47.6 297.115 46.595 299.125 44.585C301.165 42.545 302.185 40.115 302.185 37.295C302.185 34.445 301.165 32 299.125 29.96C297.085 27.92 294.655 26.9 291.835 26.9C289.015 26.9 286.585 27.92 284.545 29.96ZM341.511 52.955L327.606 22.67C327.456 22.37 327.456 22.1 327.606 21.86C327.786 21.62 328.041 21.5 328.371 21.5H332.961C333.351 21.5 333.606 21.665 333.726 21.995L342.366 41.345H342.681L351.321 21.995C351.441 21.665 351.696 21.5 352.086 21.5H356.676C357.006 21.5 357.246 21.62 357.396 21.86C357.576 22.1 357.591 22.37 357.441 22.67L343.491 52.955C343.341 53.285 343.086 53.45 342.726 53.45H342.276C341.916 53.45 341.661 53.285 341.511 52.955ZM379.54 52.145V22.355C379.54 22.115 379.615 21.92 379.765 21.77C379.945 21.59 380.155 21.5 380.395 21.5H398.71C398.95 21.5 399.145 21.59 399.295 21.77C399.475 21.92 399.565 22.115 399.565 22.355V26.045C399.565 26.285 399.475 26.495 399.295 26.675C399.145 26.825 398.95 26.9 398.71 26.9H385.39V34.28H396.505C396.745 34.28 396.94 34.37 397.09 34.55C397.27 34.73 397.36 34.925 397.36 35.135V38.87C397.36 39.11 397.27 39.32 397.09 39.5C396.94 39.65 396.745 39.725 396.505 39.725H385.39V47.6H398.71C398.95 47.6 399.145 47.69 399.295 47.87C399.475 48.02 399.565 48.215 399.565 48.455V52.145C399.565 52.385 399.475 52.595 399.295 52.775C399.145 52.925 398.95 53 398.71 53H380.395C380.155 53 379.945 52.925 379.765 52.775C379.615 52.595 379.54 52.385 379.54 52.145ZM423.995 52.145V22.355C423.995 22.115 424.07 21.92 424.22 21.77C424.4 21.59 424.61 21.5 424.85 21.5H437.72C440.42 21.5 442.73 22.445 444.65 24.335C446.57 26.225 447.53 28.505 447.53 31.175C447.53 33.215 446.915 35.045 445.685 36.665C444.485 38.255 442.88 39.455 440.87 40.265L447.035 51.695C447.215 51.995 447.215 52.295 447.035 52.595C446.885 52.865 446.63 53 446.27 53H441.545C441.215 53 440.975 52.865 440.825 52.595L434.84 40.67H429.845V52.145C429.845 52.355 429.755 52.55 429.575 52.73C429.425 52.91 429.23 53 428.99 53H424.85C424.61 53 424.4 52.925 424.22 52.775C424.07 52.595 423.995 52.385 423.995 52.145ZM429.89 35.855H437.225C438.425 35.855 439.46 35.405 440.33 34.505C441.23 33.605 441.68 32.525 441.68 31.265C441.68 30.065 441.23 29.045 440.33 28.205C439.46 27.335 438.425 26.9 437.225 26.9H429.89V35.855ZM470.346 49.94C469.926 49.52 469.851 49.07 470.121 48.59L471.741 45.8C471.921 45.5 472.176 45.335 472.506 45.305C472.836 45.245 473.091 45.305 473.271 45.485L473.496 45.62C473.646 45.74 473.811 45.86 473.991 45.98C474.201 46.1 474.456 46.25 474.756 46.43C475.056 46.61 475.356 46.79 475.656 46.97C475.956 47.12 476.301 47.285 476.691 47.465C477.081 47.615 477.456 47.75 477.816 47.87C478.176 47.99 478.551 48.095 478.941 48.185C479.331 48.245 479.706 48.275 480.066 48.275C481.236 48.275 482.211 47.945 482.991 47.285C483.771 46.595 484.161 45.77 484.161 44.81C484.161 43.7 483.696 42.725 482.766 41.885C481.836 41.015 480.396 40.19 478.446 39.41C475.926 38.39 473.886 37.115 472.326 35.585C470.766 34.055 469.986 32.09 469.986 29.69C469.986 27.41 470.841 25.4 472.551 23.66C474.291 21.92 476.811 21.05 480.111 21.05C483.441 21.05 486.441 22.055 489.111 24.065C489.321 24.185 489.456 24.41 489.516 24.74C489.576 25.07 489.531 25.34 489.381 25.55L487.671 28.115C487.191 28.835 486.666 29.015 486.096 28.655C483.456 27.005 481.371 26.18 479.841 26.18C478.641 26.18 477.681 26.51 476.961 27.17C476.241 27.83 475.881 28.55 475.881 29.33C475.881 30.38 476.301 31.295 477.141 32.075C477.981 32.855 479.331 33.62 481.191 34.37C482.481 34.88 483.591 35.405 484.521 35.945C485.481 36.455 486.456 37.115 487.446 37.925C488.466 38.705 489.246 39.665 489.786 40.805C490.326 41.915 490.596 43.16 490.596 44.54C490.596 46.97 489.636 49.07 487.716 50.84C485.796 52.58 483.306 53.45 480.246 53.45C478.536 53.45 476.901 53.195 475.341 52.685C473.811 52.175 472.716 51.71 472.056 51.29C471.396 50.84 470.826 50.39 470.346 49.94ZM514.356 52.145V22.355C514.356 22.115 514.431 21.92 514.581 21.77C514.761 21.59 514.971 21.5 515.211 21.5H533.526C533.766 21.5 533.961 21.59 534.111 21.77C534.291 21.92 534.381 22.115 534.381 22.355V26.045C534.381 26.285 534.291 26.495 534.111 26.675C533.961 26.825 533.766 26.9 533.526 26.9H520.206V34.28H531.321C531.561 34.28 531.756 34.37 531.906 34.55C532.086 34.73 532.176 34.925 532.176 35.135V38.87C532.176 39.11 532.086 39.32 531.906 39.5C531.756 39.65 531.561 39.725 531.321 39.725H520.206V47.6H533.526C533.766 47.6 533.961 47.69 534.111 47.87C534.291 48.02 534.381 48.215 534.381 48.455V52.145C534.381 52.385 534.291 52.595 534.111 52.775C533.961 52.925 533.766 53 533.526 53H515.211C514.971 53 514.761 52.925 514.581 52.775C514.431 52.595 514.356 52.385 514.356 52.145Z" fill="white"/>
<path d="M191.644 142.768L180.682 103.792C180.566 103.405 180.605 103.077 180.798 102.806C180.991 102.535 181.301 102.4 181.726 102.4H187.062C187.603 102.4 187.951 102.671 188.106 103.212L194.138 126.354H194.37L203.592 102.458C203.747 102.033 204.075 101.82 204.578 101.82H205.622C206.125 101.82 206.453 102.033 206.608 102.458L215.888 126.354H216.12L222.036 103.212C222.191 102.671 222.539 102.4 223.08 102.4H228.416C228.841 102.4 229.151 102.535 229.344 102.806C229.537 103.077 229.576 103.405 229.46 103.792L218.498 142.768C218.382 143.309 218.034 143.58 217.454 143.58H216.526C216.023 143.58 215.695 143.367 215.54 142.942L205.158 116.668H204.868L194.602 142.942C194.409 143.367 194.08 143.58 193.616 143.58H192.688C192.147 143.58 191.799 143.309 191.644 142.768ZM253.596 143C253.171 143 252.842 142.845 252.61 142.536C252.417 142.227 252.417 141.879 252.61 141.492L270.648 102.458C270.841 102.033 271.17 101.82 271.634 101.82H272.214C272.678 101.82 273.007 102.033 273.2 102.458L291.064 141.492C291.257 141.879 291.238 142.227 291.006 142.536C290.813 142.845 290.503 143 290.078 143H285.032C284.297 143 283.737 142.613 283.35 141.84L280.508 135.576H263.166L260.324 141.84C260.015 142.613 259.454 143 258.642 143H253.596ZM266.008 129.138H277.666L271.866 116.378H271.692L266.008 129.138ZM319.547 141.898V103.502C319.547 103.193 319.644 102.941 319.837 102.748C320.069 102.516 320.34 102.4 320.649 102.4H337.237C340.717 102.4 343.694 103.618 346.169 106.054C348.644 108.49 349.881 111.429 349.881 114.87C349.881 117.499 349.088 119.858 347.503 121.946C345.956 123.995 343.888 125.542 341.297 126.586L349.243 141.318C349.475 141.705 349.475 142.091 349.243 142.478C349.05 142.826 348.721 143 348.257 143H342.167C341.742 143 341.432 142.826 341.239 142.478L333.525 127.108H327.087V141.898C327.087 142.169 326.971 142.42 326.739 142.652C326.546 142.884 326.294 143 325.985 143H320.649C320.34 143 320.069 142.903 319.837 142.71C319.644 142.478 319.547 142.207 319.547 141.898ZM327.145 120.902H336.599C338.146 120.902 339.48 120.322 340.601 119.162C341.761 118.002 342.341 116.61 342.341 114.986C342.341 113.439 341.761 112.125 340.601 111.042C339.48 109.921 338.146 109.36 336.599 109.36H327.145V120.902ZM379.288 139.056C378.747 138.515 378.65 137.935 378.998 137.316L381.086 133.72C381.318 133.333 381.647 133.121 382.072 133.082C382.497 133.005 382.826 133.082 383.058 133.314L383.348 133.488C383.541 133.643 383.754 133.797 383.986 133.952C384.257 134.107 384.585 134.3 384.972 134.532C385.359 134.764 385.745 134.996 386.132 135.228C386.519 135.421 386.963 135.634 387.466 135.866C387.969 136.059 388.452 136.233 388.916 136.388C389.38 136.543 389.863 136.678 390.366 136.794C390.869 136.871 391.352 136.91 391.816 136.91C393.324 136.91 394.581 136.485 395.586 135.634C396.591 134.745 397.094 133.681 397.094 132.444C397.094 131.013 396.495 129.757 395.296 128.674C394.097 127.553 392.241 126.489 389.728 125.484C386.48 124.169 383.851 122.526 381.84 120.554C379.829 118.582 378.824 116.049 378.824 112.956C378.824 110.017 379.926 107.427 382.13 105.184C384.373 102.941 387.621 101.82 391.874 101.82C396.166 101.82 400.033 103.115 403.474 105.706C403.745 105.861 403.919 106.151 403.996 106.576C404.073 107.001 404.015 107.349 403.822 107.62L401.618 110.926C400.999 111.854 400.323 112.086 399.588 111.622C396.185 109.495 393.498 108.432 391.526 108.432C389.979 108.432 388.742 108.857 387.814 109.708C386.886 110.559 386.422 111.487 386.422 112.492C386.422 113.845 386.963 115.025 388.046 116.03C389.129 117.035 390.869 118.021 393.266 118.988C394.929 119.645 396.359 120.322 397.558 121.018C398.795 121.675 400.052 122.526 401.328 123.57C402.643 124.575 403.648 125.813 404.344 127.282C405.04 128.713 405.388 130.317 405.388 132.096C405.388 135.228 404.151 137.935 401.676 140.216C399.201 142.459 395.992 143.58 392.048 143.58C389.844 143.58 387.737 143.251 385.726 142.594C383.754 141.937 382.343 141.337 381.492 140.796C380.641 140.216 379.907 139.636 379.288 139.056Z" fill="white"/>
<path d="M54 159.791C162 51.7914 414 41.7915 542 159.791" stroke="url(#paint0_linear)" stroke-width="4" stroke-linecap="square"/>
<g opacity="0.5" filter="url(#filter0_f)">
<path d="M54 159.791C162 51.7914 414 41.7915 542 159.791" stroke="url(#paint1_linear)" stroke-width="4" stroke-linecap="square"/>
</g>
<g filter="url(#filter1_f)">
<rect x="542.269" y="10" width="3.46154" height="10" rx="1.73077" fill="white" fill-opacity="0.8"/>
<rect x="539" y="16.7308" width="3.46154" height="10" rx="1.73077" transform="rotate(-90 539 16.7308)" fill="white" fill-opacity="0.8"/>
</g>
<rect x="542.269" y="10" width="3.46154" height="10" rx="1.73077" fill="white"/>
<rect x="539" y="16.7308" width="3.46154" height="10" rx="1.73077" transform="rotate(-90 539 16.7308)" fill="white"/>
<defs>
<filter id="filter0_f" x="41.1716" y="63" width="513.655" height="109.62" filterUnits="userSpaceOnUse" color-interpolation-filters="sRGB">
<feFlood flood-opacity="0" result="BackgroundImageFix"/>
<feBlend mode="normal" in="SourceGraphic" in2="BackgroundImageFix" result="shape"/>
<feGaussianBlur stdDeviation="5" result="effect1_foregroundBlur"/>
</filter>
<filter id="filter1_f" x="529" y="0" width="30" height="30" filterUnits="userSpaceOnUse" color-interpolation-filters="sRGB">
<feFlood flood-opacity="0" result="BackgroundImageFix"/>
<feBlend mode="normal" in="SourceGraphic" in2="BackgroundImageFix" result="shape"/>
<feGaussianBlur stdDeviation="5" result="effect1_foregroundBlur"/>
</filter>
<linearGradient id="paint0_linear" x1="298" y1="51" x2="298" y2="139" gradientUnits="userSpaceOnUse">
<stop stop-color="white"/>
<stop offset="1" stop-color="white" stop-opacity="0"/>
</linearGradient>
<linearGradient id="paint1_linear" x1="298" y1="51" x2="298" y2="139" gradientUnits="userSpaceOnUse">
<stop stop-color="white"/>
<stop offset="1" stop-color="white" stop-opacity="0"/>
</linearGradient>
</defs>
</svg>
