<svg width="159" height="460" viewBox="0 0 159 460" fill="none" xmlns="http://www.w3.org/2000/svg">
<path d="M69.6337 433.222L68.1524 276.325C76.1817 280.333 86.6967 272.287 91.2555 267.261L83.5438 434.923C76.9659 439.95 74.0671 438.843 69.6337 433.222Z" fill="#2E364B"/>
<path d="M67.7476 433.213L70 286C73.4433 288.805 74.2539 292.766 78.8232 292.382C81.0549 292.194 83.3762 293.676 83.2723 295.923L77.0001 431.5C73.0321 436.854 70.0081 438.575 67.7476 433.213Z" fill="#434F6D"/>
<path d="M69.6337 433.222L68.1524 276.325C76.1817 280.333 86.6967 272.287 91.2555 267.261L83.5438 434.923C76.9659 439.95 74.0671 438.843 69.6337 433.222Z" stroke="black" stroke-width="5"/>
<path d="M67.9746 432.188C73.1932 434.162 77.5643 433.331 82.0482 431.663C83.293 431.2 84.6664 431.995 84.8239 433.313L86.3308 445.936C86.475 447.143 85.5178 448.198 84.3024 448.172L37.9249 447.186C21.0644 445.331 32.0382 427.179 67.5155 432.069C67.6702 432.091 67.8286 432.132 67.9746 432.188Z" fill="#1D2334"/>
<path d="M68.1674 432.406C72.7326 435.731 73.3597 435.356 75.4067 434.36C76.6899 433.735 78.0186 434.814 77.8625 436.233L77.7801 436.982C77.677 437.919 76.9335 438.657 75.9957 438.753L39.6589 442.47C39.5184 442.485 39.3681 442.484 39.2279 442.467C22.7134 440.524 32.1504 427.248 67.2404 432.032C67.5701 432.076 67.8984 432.21 68.1674 432.406Z" fill="#2E364B"/>
<path d="M68.9869 430.408C73.6277 434.744 78.5646 433.249 82.2414 431.182C83.4398 430.508 84.9956 431.072 85.3566 432.399L88.5935 444.295C88.938 445.561 87.9907 446.81 86.6787 446.82L37.9248 447.186C21.1365 445.339 32.6778 425.186 67.804 429.832C68.2446 429.89 68.6622 430.105 68.9869 430.408Z" stroke="black" stroke-width="5"/>
<path d="M28.9111 444.164C29.0032 441.377 31.7195 439.443 34.4037 440.196C52.6752 445.325 64.9755 446.156 83.6211 441.939C86.3332 441.326 88.9461 443.407 88.8542 446.186C88.7916 448.082 87.4476 449.703 85.5904 450.093C64.6138 454.499 51.879 454.022 31.9436 448.345C30.093 447.818 28.8476 446.087 28.9111 444.164Z" fill="#3D5AA4" stroke="black" stroke-width="5"/>
<g filter="url(#filter0_f)">
<path d="M33.1216 444.065C33.2635 443.798 33.5748 443.658 33.8711 443.72C56.0276 448.317 60.3126 449.243 81.9859 445.911C82.7529 445.793 83.3129 446.627 82.9055 447.288C82.7664 447.513 82.5267 447.668 82.265 447.709C59.0572 451.353 55.5754 450.209 33.5812 445.051C33.1463 444.949 32.912 444.459 33.1216 444.065Z" fill="#7097FF"/>
</g>
<path d="M101 435.966L83 280.256C91.4 283.262 101 273.991 105 268.443L115 435.966C108.994 441.76 105.997 441.013 101 435.966Z" fill="#2E364B"/>
<path d="M98.95 436.143L84 289.571C87.7697 291.795 89.6145 292.332 93.5707 291.068C95.533 290.441 97.6388 291.712 97.772 293.768L107 436.143C103.546 441.634 101.823 440.926 98.95 436.143Z" fill="#434F6D"/>
<path d="M101 435.966L83 280.256C91.4 283.262 101 273.991 105 268.443L115 435.966C108.994 441.76 105.997 441.013 101 435.966Z" stroke="black" stroke-width="5"/>
<path d="M99.2287 431.805C104.632 433.197 108.886 431.893 113.16 429.744C114.347 429.148 115.799 429.787 116.1 431.081L118.979 443.463C119.254 444.647 118.418 445.8 117.207 445.908L70.9998 450C54.0376 450 62.96 430.756 98.7595 431.737C98.9156 431.742 99.0775 431.766 99.2287 431.805Z" fill="#1D2334"/>
<path d="M99.4443 432.001C104.346 434.806 104.928 434.365 106.854 433.151C108.061 432.39 109.5 433.317 109.5 434.744L109.5 435.498C109.5 436.44 108.841 437.255 107.92 437.453L72.2076 445.123C72.0696 445.153 71.9201 445.168 71.7789 445.167C55.151 445.042 63.0793 430.814 98.4819 431.73C98.8146 431.739 99.1555 431.836 99.4443 432.001Z" fill="#2E364B"/>
<path d="M100.04 429.925C105.128 433.728 109.871 431.702 113.3 429.245C114.418 428.444 116.026 428.834 116.53 430.114L121.048 441.584C121.529 442.805 120.724 444.15 119.421 444.303L70.9999 450C54.1103 450 63.3779 428.706 98.8016 429.482C99.2459 429.492 99.6845 429.659 100.04 429.925Z" stroke="black" stroke-width="5"/>
<path d="M61.7096 447.982C61.4963 445.202 63.9848 442.982 66.7353 443.437C85.4582 446.537 97.7755 446.017 115.848 439.786C118.477 438.88 121.302 440.663 121.514 443.435C121.659 445.327 120.501 447.085 118.697 447.676C98.3285 454.35 85.6179 455.269 65.1812 451.806C63.2841 451.485 61.8568 449.9 61.7096 447.982Z" fill="#3D5AA4" stroke="black" stroke-width="5"/>
<g filter="url(#filter1_f)">
<path d="M65.884 447.423C65.9959 447.142 66.2901 446.969 66.5913 446.998C89.1177 449.144 93.4783 449.596 114.657 443.913C115.407 443.712 116.054 444.48 115.722 445.181C115.608 445.42 115.387 445.601 115.131 445.67C92.4611 451.83 88.8751 451.074 66.4486 448.352C66.0052 448.299 65.7188 447.838 65.884 447.423Z" fill="#7097FF"/>
</g>
<path d="M97.1084 165.742C97.1084 165.742 90.2309 117.269 91.4723 108.601C84.9758 117.122 79.3346 129.76 58.8533 126.256C74.2085 133.249 66.9674 169.486 66.9674 169.486C66.6789 184.105 95.3205 184.931 97.1084 165.742Z" fill="#967BE7"/>
<path d="M91.0296 161.43C91.0296 161.43 85.7864 124.475 86.7328 117.867C81.7801 124.363 77.4794 133.999 61.8651 131.327C73.5714 136.659 68.051 164.284 68.051 164.284C67.8311 175.429 89.6666 176.059 91.0296 161.43Z" fill="#A68EEC"/>
<path d="M97.1084 165.742C97.1084 165.742 90.2309 117.269 91.4723 108.601C84.9758 117.122 79.3346 129.76 58.8533 126.256C74.2085 133.249 66.9674 169.486 66.9674 169.486C66.6789 184.105 95.3205 184.931 97.1084 165.742Z" stroke="black" stroke-width="5"/>
<path d="M130.375 85.0823C130.375 117.578 91.7809 143.92 73.6534 143.92C55.5258 143.92 16.9318 117.578 16.9318 85.0823C16.9318 52.587 42.3269 26.2443 73.6534 26.2443C104.98 26.2443 130.375 52.587 130.375 85.0823Z" fill="#A68EEC"/>
<path d="M121.062 86.3522C121.062 116.276 85.6365 140.534 68.9971 140.534C52.3577 140.534 16.9318 116.276 16.9318 86.3522C16.9318 56.4284 40.2422 32.1704 68.9971 32.1704C97.752 32.1704 121.062 56.4284 121.062 86.3522Z" fill="#C8B8F8"/>
<path d="M128.722 85.5057C128.722 101.11 119.416 115.513 107.511 126.144C101.589 131.432 95.1126 135.701 89.0239 138.638C82.8905 141.597 77.338 143.114 73.2301 143.114C69.1222 143.114 63.5698 141.597 57.4364 138.638C51.3476 135.701 44.8717 131.432 38.9495 126.144C27.0447 115.513 17.7386 101.11 17.7386 85.5057C17.7386 53.6044 42.6667 27.8977 73.2301 27.8977C103.794 27.8977 128.722 53.6044 128.722 85.5057Z" stroke="black" stroke-width="5"/>
<path d="M66.6816 81.6641C61.3609 65.0461 43.5454 47.4314 24.04 70.5519C27.2878 83.4088 40.3631 103.631 66.6816 81.6641Z" fill="#A68EEC"/>
<path d="M61.4866 80.6256C57.1588 68.927 42.8924 56.8022 27.5229 73.6874C30.1806 82.758 40.6941 96.8444 61.4866 80.6256Z" fill="white" stroke="black" stroke-width="5"/>
<path d="M56.2168 79.6009C51.558 69.6415 38.1376 60.0358 25.8734 75.9943C28.8725 83.7676 39.14 95.3714 56.2168 79.6009Z" fill="black"/>
<path d="M70.1228 81.6642C75.4436 65.0462 93.2591 47.4315 112.764 70.552C109.517 83.4089 96.4414 103.631 70.1228 81.6642Z" fill="#A68EEC"/>
<path d="M73.6247 80.6256C77.9525 68.927 92.2189 56.8022 107.588 73.6874C104.931 82.758 94.4172 96.8444 73.6247 80.6256Z" fill="white" stroke="black" stroke-width="5"/>
<path d="M72.9684 79.6009C77.6271 69.6415 91.0476 60.0358 103.312 75.9943C100.313 83.7676 90.0452 95.3714 72.9684 79.6009Z" fill="black"/>
<ellipse cx="61.4086" cy="95.9194" rx="2.28019" ry="3.25741" transform="rotate(13.8539 61.4086 95.9194)" fill="black"/>
<ellipse rx="2.75167" ry="3.93095" transform="matrix(-0.970909 0.239447 0.239447 0.970909 69.194 96.4605)" fill="black"/>
<path d="M39.8642 282.559C31.8872 196.327 50.7109 154.433 66.2152 154.823C68.4463 161.966 71.2309 178.743 64.5203 188.708C46.6536 203.613 47.303 257.215 49.8636 282.44C66.2628 282.245 68.5556 303.647 67.6522 314.372C64.8689 316.241 58.828 315.433 57.6527 314.49C59.5131 298.971 56.9667 293.835 53.472 294.451C48.8129 310.118 49.7048 320.325 51.7409 324.318C50.1658 327.092 44.2844 329.19 43.7827 329.004C43.293 330.158 41.2518 325.591 41.2518 325.591C39.6767 328.364 34.2884 329.691 32.7833 329.135C24.2615 314.736 33.8914 288.414 39.8642 282.559Z" fill="#967BE7"/>
<path d="M39.8642 282.559C31.8872 196.327 50.7109 154.433 66.2152 154.823C68.4463 161.966 63.3395 168.632 56.4432 180.194C35.6586 215.039 43.3498 262.428 45.9105 287.653C62.3096 287.458 68.5556 303.647 67.6522 314.372C64.8689 316.241 58.828 315.433 57.6527 314.49C59.5131 298.971 56.9667 293.835 53.472 294.451C48.8129 310.118 49.7048 320.325 51.7409 324.318C50.1658 327.092 44.2844 329.19 43.7827 329.004C43.293 330.158 41.2518 325.591 41.2518 325.591C39.6767 328.364 34.2884 329.691 32.7833 329.135C24.2615 314.736 33.8914 288.414 39.8642 282.559Z" fill="#A68EEC"/>
<path d="M41.2518 325.591C39.6767 328.364 34.2884 329.691 32.7833 329.135C24.2615 314.736 33.8914 288.414 39.8642 282.559C31.8872 196.327 50.7109 154.433 66.2152 154.823C68.4463 161.966 71.2309 178.743 64.5203 188.708C46.6536 203.613 47.303 257.215 49.8636 282.44C66.2628 282.245 68.5556 303.647 67.6522 314.372C64.8689 316.241 58.828 315.433 57.6527 314.49C59.5131 298.971 56.9667 293.835 53.472 294.451C48.8129 310.118 49.7048 320.325 51.7409 324.318C50.1658 327.092 44.2844 329.19 43.7827 329.004C43.293 330.158 41.2518 325.591 41.2518 325.591ZM41.2518 325.591C39.4501 316.577 39.1021 308.971 43.0036 298.019" stroke="black" stroke-width="5" stroke-linecap="round" stroke-linejoin="round"/>
<path d="M97.9555 149.787C88.3741 166.322 67.2948 160.417 67.2948 151.756C60.4164 151.908 47.854 170.671 51.9646 190.73C58.4993 222.617 61.0669 221.83 67.2948 273.008C74.4809 285.605 99.3927 282.062 105.621 271.039C97.9555 197.422 139.606 194.747 124.783 167.109C119.082 156.48 97.9555 149.787 97.9555 149.787Z" fill="#2E364B"/>
<path d="M97.9555 149.787C88.3741 166.322 67.2948 160.417 67.2948 151.756C60.4164 151.908 47.854 170.671 51.9646 190.73C58.4993 222.617 61.0669 221.83 67.2948 273.008C74.9601 280.881 87.4159 282.849 93.1648 273.008C85.4997 199.39 109.932 208.839 103.704 180.888C101.159 169.462 97.9555 149.787 97.9555 149.787Z" fill="#434F6D"/>
<path d="M97.9555 149.787C88.3741 166.322 67.2948 160.417 67.2948 151.756C60.4164 151.908 47.854 170.671 51.9646 190.73C58.4993 222.617 61.0669 221.83 67.2948 273.008C74.4809 285.605 99.3927 282.062 105.621 271.039C97.9555 197.422 139.606 194.747 124.783 167.109C119.082 156.48 97.9555 149.787 97.9555 149.787Z" stroke="black" stroke-width="5"/>
<path d="M73.203 202.344L66.0357 165.274C65.9356 164.756 66.2545 164.25 66.7646 164.116L75.9559 161.713C76.2363 161.64 76.5347 161.692 76.7738 161.855L84.4279 167.097C84.7821 167.339 84.942 167.781 84.8252 168.194L75.1471 202.426C74.8604 203.44 73.403 203.379 73.203 202.344Z" fill="white" stroke="black" stroke-width="4"/>
<path d="M73.1468 202.393L70.2194 189.764C70.1865 189.622 70.185 189.475 70.215 189.332L73.4932 173.768C73.7166 172.707 75.2317 172.71 75.4511 173.771L78.7419 189.696C78.7752 189.858 78.7682 190.025 78.7212 190.183L75.0796 202.452C74.7874 203.437 73.3787 203.394 73.1468 202.393Z" fill="#2E364B" stroke="black" stroke-width="3"/>
<path d="M73.3309 174.759L68.7377 167.839C68.4604 167.421 68.5354 166.863 68.9132 166.533L75.0424 161.181C75.5033 160.779 76.2144 160.881 76.5433 161.397L80.7535 168.002C81.007 168.4 80.9482 168.92 80.6124 169.252L74.8662 174.918C74.4183 175.359 73.6787 175.283 73.3309 174.759Z" fill="#2E364B" stroke="black" stroke-width="3"/>
<path d="M78.559 160.439C85.6842 160.937 92.3665 155.562 95.1053 150.873C95.678 149.892 96.8749 149.358 97.926 149.788L103.388 152.023C104.548 152.498 104.99 153.913 104.285 154.949C98.972 162.748 94.4098 166.942 86.7494 172.868C85.8222 173.585 84.4805 173.345 83.8519 172.356L77.3946 162.194C76.9035 161.422 77.6455 160.375 78.559 160.439Z" fill="white" stroke="black" stroke-width="5"/>
<path d="M73.3847 158.999C69.3273 156.665 67.9732 155.49 67.5214 154.24C67.1311 153.16 66.3175 152.266 65.2971 152.793C63.818 153.556 62.2113 154.866 60.9987 156.015C60.6715 156.325 60.4692 156.745 60.4273 157.194C59.9936 161.837 60.8469 164.671 62.7852 168.477C63.3614 169.608 64.8484 169.877 65.8135 169.052L73.7157 162.299C74.7797 161.39 74.5979 159.696 73.3847 158.999Z" fill="white" stroke="black" stroke-width="5"/>
<path d="M145.543 289.269C153.095 202.987 134.065 161.215 118.563 161.706C112.292 167.199 104.909 185.279 117.515 195.671C135.455 210.461 137.979 263.974 135.543 289.215C119.143 289.127 116.956 310.543 117.912 321.262C120.705 323.113 126.741 322.266 127.912 321.315C125.975 305.808 128.496 300.656 131.994 301.249C136.73 316.886 135.889 327.098 133.872 331.105C135.461 333.868 141.353 335.928 141.853 335.739C142.349 336.89 144.367 332.309 144.367 332.309C145.956 335.073 151.351 336.364 152.853 335.798C161.304 321.344 151.544 295.085 145.543 289.269Z" fill="#967BE7"/>
<path d="M145.543 289.269C153.095 202.987 134.065 161.215 118.563 161.706C116.367 168.863 121.507 175.497 128.46 187.013C149.416 221.722 141.958 269.161 139.522 294.402C123.122 294.314 116.956 310.543 117.912 321.262C120.705 323.113 126.741 322.266 127.912 321.315C125.975 305.808 128.496 300.656 131.994 301.249C136.73 316.886 135.889 327.098 133.872 331.105C135.461 333.868 141.353 335.928 141.853 335.739C142.349 336.89 144.367 332.309 144.367 332.309C145.956 335.073 151.351 336.364 152.853 335.798C161.304 321.344 151.544 295.085 145.543 289.269Z" fill="#A68EEC"/>
<path d="M144.367 332.309C145.956 335.073 151.351 336.364 152.853 335.798C161.304 321.344 151.544 295.085 145.543 289.269C153.095 202.987 134.065 161.215 118.563 161.706C108.671 167.623 108.874 184.782 115.634 194.703C133.574 209.493 137.979 263.974 135.543 289.215C119.143 289.127 116.956 310.543 117.912 321.262C120.705 323.113 126.741 322.266 127.912 321.315C125.975 305.808 128.496 300.656 131.994 301.249C136.73 316.886 135.889 327.098 133.872 331.105C135.461 333.868 141.353 335.928 141.853 335.739C142.349 336.89 144.367 332.309 144.367 332.309ZM144.367 332.309C146.125 323.284 146.435 315.676 142.48 304.749" stroke="black" stroke-width="5" stroke-linecap="round" stroke-linejoin="round"/>
<circle cx="74.5" cy="74.5" r="74.5" fill="#73EBE4" fill-opacity="0.15"/>
<path d="M143.074 76.2405C143.074 113.178 104.131 136.348 91.0084 140.503C54.0712 140.503 114.29 113.178 114.29 76.2405C114.29 39.3034 39.256 9.35986 76.1931 9.35986C113.13 9.35986 143.074 39.3034 143.074 76.2405Z" fill="#73EBE4" fill-opacity="0.1"/>
<ellipse cx="58.3068" cy="30.0662" rx="13" ry="9.5" transform="rotate(8.97488 58.3068 30.0662)" fill="#73EBE4" fill-opacity="0.1"/>
<defs>
<filter id="filter0_f" x="29.0438" y="439.705" width="57.9986" height="14.1281" filterUnits="userSpaceOnUse" color-interpolation-filters="sRGB">
<feFlood flood-opacity="0" result="BackgroundImageFix"/>
<feBlend mode="normal" in="SourceGraphic" in2="BackgroundImageFix" result="shape"/>
<feGaussianBlur stdDeviation="2" result="effect1_foregroundBlur"/>
</filter>
<filter id="filter1_f" x="61.8367" y="439.881" width="57.9746" height="14.5012" filterUnits="userSpaceOnUse" color-interpolation-filters="sRGB">
<feFlood flood-opacity="0" result="BackgroundImageFix"/>
<feBlend mode="normal" in="SourceGraphic" in2="BackgroundImageFix" result="shape"/>
<feGaussianBlur stdDeviation="2" result="effect1_foregroundBlur"/>
</filter>
</defs>
</svg>
