<svg width="143" height="103" viewBox="0 0 143 103" fill="none" xmlns="http://www.w3.org/2000/svg">
<ellipse cx="57.1595" cy="66.4145" rx="19.9147" ry="30.0599" transform="rotate(-32.924 57.1595 66.4145)" fill="black"/>
<ellipse cx="48.5759" cy="64.2235" rx="7.90141" ry="11.3027" transform="rotate(-22.1239 48.5759 64.2235)" fill="white"/>
<ellipse cx="106.216" cy="61.4471" rx="14.9876" ry="22.6228" transform="rotate(-17.5469 106.216 61.4471)" fill="black"/>
<ellipse cx="111.209" cy="56.8583" rx="5.58177" ry="8.42531" transform="rotate(-20.8002 111.209 56.8583)" fill="white"/>
<path d="M70.622 59.8709L73.9448 49.0189C58.8424 35.2428 22.6468 28.1425 14 27L19.5 47.5C38.5657 44.4978 62.7732 54.3253 70.622 59.8709Z" fill="#1A7156" stroke="black" stroke-width="5"/>
<path d="M89.6894 54.7765L83.5461 45.2337C94.3427 27.8758 116.967 16.0281 124.979 12.5817L131.793 29.5175C112.628 31.8025 95.7384 47.3089 89.6894 54.7765Z" fill="#1A7156" stroke="black" stroke-width="5"/>
</svg>
