<svg width="141" height="131" viewBox="0 0 141 131" fill="none" xmlns="http://www.w3.org/2000/svg">
<path d="M49.6052 66C37.1053 83 15.1053 74.5 16.6053 105.5C-18.184 50.2777 56.605 23 87.1052 55C55.1052 51 55.1052 62 55.1052 62C55.1052 62 51.6053 60 51.6053 57C49.6052 59.5 48.1053 62.5 49.6052 66Z" fill="#129345" stroke="black" stroke-width="5" stroke-linejoin="round"/>
<path d="M65.8304 90.7058C62.0537 104.403 46.0672 104.51 54.5522 123.506C19.1156 97.576 59.8065 62.1211 86.8841 74.6009C65.6641 79.9814 68.3381 86.8529 68.3381 86.8529C68.3381 86.8529 65.6374 86.4653 64.9081 84.5913C64.2503 86.6454 64.0305 88.8888 65.8304 90.7058Z" fill="#129345" stroke="black" stroke-width="5" stroke-linejoin="round"/>
<path d="M104.475 38.7182C91.3821 38.041 88.1044 23.6582 72.6773 35.0832C88.9894 -2.00563 129.032 27.6026 123.176 54.4833C114.105 36.4343 108.446 40.211 108.446 40.211C108.446 40.211 108.258 37.7005 109.801 36.6705C107.819 36.4865 105.754 36.7349 104.475 38.7182Z" fill="#129345" stroke="black" stroke-width="5" stroke-linejoin="round"/>
<path d="M16.8218 106C-14.9406 53.8779 12.557 30.1062 53.6052 38C66.6052 40.5 73.8254 45.0736 83.1051 49.9301C62.105 42 38.1752 49.5796 31.105 61.5C27.5925 60.3194 25.4222 57.1294 24.605 53C20.9843 57.8456 22.6837 62.8024 24.605 67C10.4646 73.6225 14.6123 85.6912 16.8218 106Z" fill="#29CB6A" stroke="black" stroke-width="5" stroke-linejoin="round"/>
<path d="M54.724 123.439C21.984 98.3474 33.4272 76.6398 61.1511 71.5809C69.9313 69.9788 75.5892 71.0968 82.6102 71.8896C67.4721 72.0245 54.2982 82.6527 52.7807 91.8955C50.2844 92.01 48.1385 90.5296 46.6122 88.1264C45.5262 92.0661 47.8097 94.7753 50.0465 96.9517C42.7877 104.583 48.354 111.177 54.724 123.439Z" fill="#29CB6A" stroke="black" stroke-width="5" stroke-linejoin="round"/>
<path d="M72.7718 35.2247C88.8653 0.732391 110.701 6.72338 120.776 30.6965C123.967 38.2888 124.085 43.6091 124.768 50.0929C121.634 36.4801 109.437 26.725 100.807 27.1969C100.207 24.9705 101.114 22.7424 102.975 20.8889C99.2095 20.6944 97.2228 23.291 95.7069 25.7395C87.3863 20.7177 82.5527 27.0452 72.7718 35.2247Z" fill="#29CB6A" stroke="black" stroke-width="5" stroke-linejoin="round"/>
<path d="M59.1055 47C88.6055 42.2753 104.989 59.4946 112.105 70.9926L105.198 79.0001C92.138 54.8544 69.3613 45.3575 59.1055 47Z" fill="#1A7156" stroke="black" stroke-width="5"/>
<path d="M67.1427 76.2616C84.6672 66.0417 99.2264 72.7687 106.528 78.2024L104.103 84.9088C89.9629 73.0339 73.2352 72.7086 67.1427 76.2616Z" fill="#1A7156" stroke="black" stroke-width="5"/>
<path d="M117.751 37.0264C130.446 50.7826 127.282 65.2394 123.839 72.8992L117.314 72.0492C125.2 56.9456 122.165 41.8088 117.751 37.0264Z" fill="#1A7156" stroke="black" stroke-width="5"/>
</svg>
