<svg width="244" height="112" viewBox="0 0 244 112" fill="none" xmlns="http://www.w3.org/2000/svg">
<path d="M69.1419 54.6619C84.7281 33.0197 116.262 38.8258 115.885 59.8278C115.325 90.9741 80.0057 99.0794 54.7056 90.7069C26.8775 81.4978 14.322 44.7118 14.322 44.7118C36.0368 57.6689 58.4458 69.514 69.1419 54.6619Z" fill="#1A7156"/>
<path d="M115.885 59.8278C116.262 38.8258 84.7281 33.0197 69.1419 54.6619C58.4458 69.514 36.0368 57.6689 14.322 44.7118M115.885 59.8278C115.325 90.9741 80.0057 99.0794 54.7056 90.7069C26.8775 81.4978 14.322 44.7118 14.322 44.7118M115.885 59.8278C104.131 55.116 97.4189 53.7562 86.7662 60.5587C60.4448 77.3669 47.0356 82.9874 14.322 44.7118" stroke="black" stroke-width="5" stroke-linecap="round" stroke-linejoin="round"/>
<path d="M54.7056 90.7068C26.8768 81.4995 14.3329 44.6845 14.3329 44.6845C47.0373 82.9831 60.4506 77.3525 86.782 60.5194C97.4388 53.7067 104.152 55.0653 115.905 59.7771C115.334 90.9521 80.0064 99.0777 54.7056 90.7068Z" fill="white" fill-opacity="0.2" stroke="black" stroke-width="5" stroke-linecap="round" stroke-linejoin="round"/>
<path d="M171.337 50.5304C154.106 28.2521 121.035 35.518 122.192 57.6695C123.906 90.5206 161.475 97.7999 187.874 88.0505C216.911 77.327 228.834 38.0505 228.834 38.0505C206.384 52.509 183.162 65.819 171.337 50.5304Z" fill="#1A7156"/>
<path d="M122.192 57.6695C121.035 35.518 154.106 28.2521 171.337 50.5304C183.162 65.819 206.384 52.509 228.834 38.0505M122.192 57.6695C123.906 90.5206 161.475 97.7999 187.874 88.0505C216.911 77.327 228.834 38.0505 228.834 38.0505M122.192 57.6695C134.426 52.2725 141.461 50.5951 152.949 57.3899C181.335 74.1789 195.69 79.6267 228.834 38.0505" stroke="black" stroke-width="5" stroke-linecap="round" stroke-linejoin="round"/>
<path d="M187.874 88.0505C216.911 77.3288 228.821 38.0221 228.821 38.0221C195.688 79.6223 181.329 74.164 152.931 57.349C141.438 50.5437 134.403 52.2198 122.168 57.6168C123.896 90.4977 161.474 97.7982 187.874 88.0505Z" fill="white" fill-opacity="0.2" stroke="black" stroke-width="5" stroke-linecap="round" stroke-linejoin="round"/>
</svg>
