<svg width="229" height="110" viewBox="0 0 229 110" fill="none" xmlns="http://www.w3.org/2000/svg">
<path d="M113.453 64.7173C104.103 43.752 69.7869 11.1891 7.31953 48.6603C38.8425 77.2155 104.201 120.404 113.453 64.7173Z" fill="#0D7455"/>
<path d="M113.453 64.7173C104.103 43.752 69.7869 11.1891 7.31953 48.6603C38.8425 77.2155 104.201 120.404 113.453 64.7173ZM113.453 64.7173C100.015 57.6205 66.1744 41.052 36.3609 46.2568" stroke="black" stroke-width="5" stroke-linecap="round"/>
<path d="M113.452 64.7173C101.607 55.0073 64.3046 38.1368 9.85437 48.3353C40.5324 76.9988 104.201 120.404 113.452 64.7173Z" fill="white" fill-opacity="0.2"/>
<path d="M113.453 64.7173C104.103 43.752 69.7869 11.1891 7.31953 48.6603C38.8425 77.2155 104.201 120.404 113.453 64.7173ZM113.453 64.7173C100.015 57.6205 66.1744 41.052 36.3609 46.2568" stroke="black" stroke-width="5" stroke-linecap="round"/>
<path d="M124.731 64.9774C132.188 45.2595 161.917 13.5814 221.178 44.6122C193.797 72.4675 136.174 115.538 124.731 64.9774Z" fill="#0D7455"/>
<path d="M124.731 64.9774C132.188 45.2595 161.917 13.5814 221.178 44.6122C193.797 72.4675 136.174 115.538 124.731 64.9774ZM124.731 64.9774C136.673 57.7565 166.817 40.7671 194.426 43.9532" stroke="black" stroke-width="5" stroke-linecap="round"/>
<path d="M124.731 64.9774C135.074 55.4454 168.376 37.995 218.837 44.449C192.236 72.3588 136.174 115.538 124.731 64.9774Z" fill="white" fill-opacity="0.2"/>
<path d="M124.731 64.9774C132.188 45.2595 161.917 13.5814 221.178 44.6122C193.797 72.4675 136.174 115.538 124.731 64.9774ZM124.731 64.9774C136.673 57.7565 166.817 40.7671 194.426 43.9532" stroke="black" stroke-width="5" stroke-linecap="round"/>
</svg>
