<svg width="253" height="83" viewBox="0 0 253 83" fill="none" xmlns="http://www.w3.org/2000/svg">
<path d="M69.7205 32.4465C77.57 0.808559 115.987 -6.9336 125.103 17.0668C138.621 52.6599 102.231 77.9061 69.7205 79.9035C33.9618 82.1005 3 46.0684 3 46.0684C33.5257 50.902 64.3337 54.1584 69.7205 32.4465Z" fill="#1A7156"/>
<path d="M125.103 17.0668C115.987 -6.9336 77.57 0.808559 69.7205 32.4465C64.3337 54.1584 33.5257 50.902 3 46.0684M125.103 17.0668C138.621 52.6599 102.231 77.9061 69.7205 79.9035C33.9618 82.1005 3 46.0684 3 46.0684M125.103 17.0668C109.626 17.0618 101.392 18.5693 92.3968 31.1283C70.1703 62.1599 57.5102 74.6304 3 46.0684" stroke="black" stroke-width="5" stroke-linecap="round" stroke-linejoin="round"/>
<path d="M69.7205 79.9034C33.9618 82.1028 3 46.0324 3 46.0324C57.5102 74.6248 70.1703 62.141 92.3968 31.0764C101.392 18.5041 109.626 16.9951 125.103 17.0001C138.621 52.6309 102.231 77.9039 69.7205 79.9034Z" fill="white" fill-opacity="0.2" stroke="black" stroke-width="5" stroke-linecap="round" stroke-linejoin="round"/>
<path d="M183.279 32.4465C175.43 0.808559 137.013 -6.9336 127.897 17.0668C114.379 52.6599 150.769 77.9061 183.279 79.9035C219.038 82.1005 250 46.0684 250 46.0684C219.474 50.902 188.666 54.1584 183.279 32.4465Z" fill="#1A7156"/>
<path d="M127.897 17.0668C137.013 -6.9336 175.43 0.808559 183.279 32.4465C188.666 54.1584 219.474 50.902 250 46.0684M127.897 17.0668C114.379 52.6599 150.769 77.9061 183.279 79.9035C219.038 82.1005 250 46.0684 250 46.0684M127.897 17.0668C143.374 17.0618 151.608 18.5693 160.603 31.1283C182.83 62.1599 195.49 74.6304 250 46.0684" stroke="black" stroke-width="5" stroke-linecap="round" stroke-linejoin="round"/>
<path d="M183.279 79.9034C219.038 82.1028 250 46.0324 250 46.0324C195.49 74.6248 182.83 62.141 160.603 31.0764C151.608 18.5041 143.374 16.9951 127.897 17.0001C114.379 52.6309 150.769 77.9039 183.279 79.9034Z" fill="white" fill-opacity="0.2" stroke="black" stroke-width="5" stroke-linecap="round" stroke-linejoin="round"/>
</svg>
